<?xml version="1.0" encoding="UTF-8" standalone="no"?>
<!DOCTYPE svg PUBLIC "-//W3C//DTD SVG 1.1//EN"
 "http://www.w3.org/Graphics/SVG/1.1/DTD/svg11.dtd">
<!-- Generated by graphviz version 14.1.4 (20260321.0153)
 -->
<!-- Title: busca_valor_coluna Pages: 1 -->
<svg width="752pt" height="104pt"
 viewBox="0.00 0.00 752.00 104.00" xmlns="http://www.w3.org/2000/svg" xmlns:xlink="http://www.w3.org/1999/xlink">
<g id="graph0" class="graph" transform="scale(1 1) rotate(0) translate(4 100)">
<title>busca_valor_coluna</title>
<!-- Node1 -->
<g id="Node000001" class="node">
<title>Node1</title>
<g id="a_Node000001"><a xlink:title="Inicia a busca por um valor em uma coluna específica do arquivo CSV.">
<polygon fill="#999999" stroke="#666666" points="102.25,-58 0,-58 0,-38 102.25,-38 102.25,-58"/>
<text xml:space="preserve" text-anchor="middle" x="51.12" y="-44.5" font-family="Helvetica,sans-Serif" font-size="10.00">busca_valor_coluna</text>
</a>
</g>
</g>
<!-- Node2 -->
<g id="Node000002" class="node">
<title>Node2</title>
<g id="a_Node000002"><a xlink:href="exemplo__2_8c.html#a1d139aeb7facf235c50daa42a1924ae5" target="_top" xlink:title="Processa blocos de dados lidos do SD em tempo real para busca de valores.">
<polygon fill="white" stroke="#666666" points="231.88,-96 148.38,-96 148.38,-76 231.88,-76 231.88,-96"/>
<text xml:space="preserve" text-anchor="middle" x="190.12" y="-82.5" font-family="Helvetica,sans-Serif" font-size="10.00">callback_busca</text>
</a>
</g>
</g>
<!-- Node1&#45;&gt;Node2 -->
<g id="edge1_Node000001_Node000002" class="edge">
<title>Node1&#45;&gt;Node2</title>
<g id="a_edge1_Node000001_Node000002"><a xlink:title=" ">
<path fill="none" stroke="#63b8ff" d="M89.92,-58.48C105.65,-62.85 124.09,-67.96 140.78,-72.59"/>
<polygon fill="#63b8ff" stroke="#63b8ff" points="139.42,-75.85 149.99,-75.15 141.29,-69.1 139.42,-75.85"/>
</a>
</g>
</g>
<!-- Node3 -->
<g id="Node000003" class="node">
<title>Node3</title>
<g id="a_Node000003"><a xlink:href="sdcard_8c.html#a4c9e96825f9777aab8c8980c35310db6" target="_top" xlink:title="Lê o conteúdo de um arquivo em modo streaming via callback.">
<polygon fill="white" stroke="#666666" points="242,-58 138.25,-58 138.25,-38 242,-38 242,-58"/>
<text xml:space="preserve" text-anchor="middle" x="190.12" y="-44.5" font-family="Helvetica,sans-Serif" font-size="10.00">sd_file_read_stream</text>
</a>
</g>
</g>
<!-- Node1&#45;&gt;Node3 -->
<g id="edge2_Node000001_Node000003" class="edge">
<title>Node1&#45;&gt;Node3</title>
<g id="a_edge2_Node000001_Node000003"><a xlink:title=" ">
<path fill="none" stroke="#63b8ff" d="M102.75,-48C110.43,-48 118.44,-48 126.34,-48"/>
<polygon fill="#63b8ff" stroke="#63b8ff" points="126.28,-51.5 136.28,-48 126.28,-44.5 126.28,-51.5"/>
</a>
</g>
</g>
<!-- Node8 -->
<g id="Node000008" class="node">
<title>Node8</title>
<g id="a_Node000008"><a xlink:href="sdcard_8c.html#af2ad3468d37d6d256e022bafa756ac32" target="_top" xlink:title="Converte uma string convencional para o formato FAT 8.3.">
<polygon fill="white" stroke="#666666" points="233.75,-20 146.5,-20 146.5,0 233.75,0 233.75,-20"/>
<text xml:space="preserve" text-anchor="middle" x="190.12" y="-6.5" font-family="Helvetica,sans-Serif" font-size="10.00">sd_set_filename</text>
</a>
</g>
</g>
<!-- Node1&#45;&gt;Node8 -->
<g id="edge10_Node000001_Node000008" class="edge">
<title>Node1&#45;&gt;Node8</title>
<g id="a_edge10_Node000001_Node000008"><a xlink:title=" ">
<path fill="none" stroke="#63b8ff" d="M89.92,-37.52C105.65,-33.15 124.09,-28.04 140.78,-23.41"/>
<polygon fill="#63b8ff" stroke="#63b8ff" points="141.29,-26.9 149.99,-20.85 139.42,-20.15 141.29,-26.9"/>
</a>
</g>
</g>
<!-- Node4 -->
<g id="Node000004" class="node">
<title>Node4</title>
<g id="a_Node000004"><a xlink:href="sdcard_8c.html#aba9c8b9a5590e13424ab4a69280f0c1d" target="_top" xlink:title="Lê um único bloco de 512 bytes do cartão (LBA).">
<polygon fill="white" stroke="#666666" points="631.25,-58 562.75,-58 562.75,-38 631.25,-38 631.25,-58"/>
<text xml:space="preserve" text-anchor="middle" x="597" y="-44.5" font-family="Helvetica,sans-Serif" font-size="10.00">sd_blk_read</text>
</a>
</g>
</g>
<!-- Node3&#45;&gt;Node4 -->
<g id="edge3_Node000003_Node000004" class="edge">
<title>Node3&#45;&gt;Node4</title>
<g id="a_edge3_Node000003_Node000004"><a xlink:title=" ">
<path fill="none" stroke="#63b8ff" d="M242.44,-57.32C254.1,-59.15 266.45,-60.85 278,-62 388.03,-72.97 417.16,-81.76 526.75,-67 535.7,-65.79 545.13,-63.75 554.04,-61.44"/>
<polygon fill="#63b8ff" stroke="#63b8ff" points="554.83,-64.85 563.54,-58.81 552.97,-58.11 554.83,-64.85"/>
</a>
</g>
</g>
<!-- Node6 -->
<g id="Node000006" class="node">
<title>Node6</title>
<g id="a_Node000006"><a xlink:href="sdcard_8c.html#a7b0d2ab1fae193461c611a4f2e6c9245" target="_top" xlink:title="Obtém o próximo cluster na tabela FAT.">
<polygon fill="white" stroke="#666666" points="526.75,-58 406.5,-58 406.5,-38 526.75,-38 526.75,-58"/>
<text xml:space="preserve" text-anchor="middle" x="466.62" y="-44.5" font-family="Helvetica,sans-Serif" font-size="10.00">sd_fat_get_next_cluster</text>
</a>
</g>
</g>
<!-- Node3&#45;&gt;Node6 -->
<g id="edge5_Node000003_Node000006" class="edge">
<title>Node3&#45;&gt;Node6</title>
<g id="a_edge5_Node000003_Node000006"><a xlink:title=" ">
<path fill="none" stroke="#63b8ff" d="M242.43,-48C285.44,-48 347.29,-48 394.97,-48"/>
<polygon fill="#63b8ff" stroke="#63b8ff" points="394.95,-51.5 404.95,-48 394.95,-44.5 394.95,-51.5"/>
</a>
</g>
</g>
<!-- Node7 -->
<g id="Node000007" class="node">
<title>Node7</title>
<g id="a_Node000007"><a xlink:href="sdcard_8c.html#a3794ef278970bdb3d1d50b3f10fc4e9f" target="_top" xlink:title="Localiza a entrada de um arquivo no diretório raiz.">
<polygon fill="white" stroke="#666666" points="370.5,-20 278,-20 278,0 370.5,0 370.5,-20"/>
<text xml:space="preserve" text-anchor="middle" x="324.25" y="-6.5" font-family="Helvetica,sans-Serif" font-size="10.00">sd_find_file_entry</text>
</a>
</g>
</g>
<!-- Node3&#45;&gt;Node7 -->
<g id="edge7_Node000003_Node000007" class="edge">
<title>Node3&#45;&gt;Node7</title>
<g id="a_edge7_Node000003_Node000007"><a xlink:title=" ">
<path fill="none" stroke="#63b8ff" d="M227.58,-37.52C242.6,-33.2 260.19,-28.14 276.17,-23.54"/>
<polygon fill="#63b8ff" stroke="#63b8ff" points="276.82,-27 285.46,-20.87 274.88,-20.27 276.82,-27"/>
</a>
</g>
</g>
<!-- Node5 -->
<g id="Node000005" class="node">
<title>Node5</title>
<g id="a_Node000005"><a xlink:href="sdcard_8c.html#aae1cfbcba5f92f4639e23fd8ed8fa3c0" target="_top" xlink:title="Envia um comando SPI para o cartão SD e aguarda resposta R1.">
<polygon fill="white" stroke="#666666" points="744,-58 667.25,-58 667.25,-38 744,-38 744,-58"/>
<text xml:space="preserve" text-anchor="middle" x="705.62" y="-44.5" font-family="Helvetica,sans-Serif" font-size="10.00">sd_cmd_send</text>
</a>
</g>
</g>
<!-- Node4&#45;&gt;Node5 -->
<g id="edge4_Node000004_Node000005" class="edge">
<title>Node4&#45;&gt;Node5</title>
<g id="a_edge4_Node000004_Node000005"><a xlink:title=" ">
<path fill="none" stroke="#63b8ff" d="M631.74,-48C639.37,-48 647.62,-48 655.73,-48"/>
<polygon fill="#63b8ff" stroke="#63b8ff" points="655.52,-51.5 665.52,-48 655.52,-44.5 655.52,-51.5"/>
</a>
</g>
</g>
<!-- Node6&#45;&gt;Node4 -->
<g id="edge6_Node000006_Node000004" class="edge">
<title>Node6&#45;&gt;Node4</title>
<g id="a_edge6_Node000006_Node000004"><a xlink:title=" ">
<path fill="none" stroke="#63b8ff" d="M526.93,-48C535.04,-48 543.26,-48 551.06,-48"/>
<polygon fill="#63b8ff" stroke="#63b8ff" points="551,-51.5 561,-48 551,-44.5 551,-51.5"/>
</a>
</g>
</g>
<!-- Node7&#45;&gt;Node4 -->
<g id="edge8_Node000007_Node000004" class="edge">
<title>Node7&#45;&gt;Node4</title>
<g id="a_edge8_Node000007_Node000004"><a xlink:title=" ">
<path fill="none" stroke="#63b8ff" d="M370.77,-12.03C411.82,-14.4 473.69,-19.3 526.75,-29 534.84,-30.48 543.37,-32.46 551.56,-34.58"/>
<polygon fill="#63b8ff" stroke="#63b8ff" points="550.43,-37.9 561,-37.14 552.26,-31.15 550.43,-37.9"/>
</a>
</g>
</g>
<!-- Node7&#45;&gt;Node6 -->
<g id="edge9_Node000007_Node000006" class="edge">
<title>Node7&#45;&gt;Node6</title>
<g id="a_edge9_Node000007_Node000006"><a xlink:title=" ">
<path fill="none" stroke="#63b8ff" d="M363.98,-20.48C380.09,-24.85 398.99,-29.96 416.09,-34.59"/>
<polygon fill="#63b8ff" stroke="#63b8ff" points="414.99,-37.92 425.56,-37.15 416.82,-31.16 414.99,-37.92"/>
</a>
</g>
</g>
</g>
</svg>
