<?xml version="1.0" encoding="UTF-8" standalone="no"?>
<!DOCTYPE svg PUBLIC "-//W3C//DTD SVG 1.1//EN"
 "http://www.w3.org/Graphics/SVG/1.1/DTD/svg11.dtd">
<!-- Generated by graphviz version 14.1.4 (20260321.0153)
 -->
<!-- Title: main Pages: 1 -->
<svg width="869pt" height="375pt"
 viewBox="0.00 0.00 869.00 375.00" xmlns="http://www.w3.org/2000/svg" xmlns:xlink="http://www.w3.org/1999/xlink">
<g id="graph0" class="graph" transform="scale(1 1) rotate(0) translate(4 371.3)">
<title>main</title>
<!-- Node1 -->
<g id="Node000001" class="node">
<title>Node1</title>
<g id="a_Node000001"><a xlink:title=" ">
<polygon fill="#999999" stroke="#666666" points="37,-229 0,-229 0,-209 37,-209 37,-229"/>
<text xml:space="preserve" text-anchor="middle" x="18.5" y="-215.5" font-family="Helvetica,sans-Serif" font-size="10.00">main</text>
</a>
</g>
</g>
<!-- Node2 -->
<g id="Node000002" class="node">
<title>Node2</title>
<g id="a_Node000002"><a xlink:href="exemplo__4_8c.html#a9b602da3b929a3986801ce8dc359d8c4" target="_top" xlink:title="Função de delay exigida pela biblioteca sd_begin.">
<polygon fill="white" stroke="#666666" points="170.75,-324 79,-324 79,-304 170.75,-304 170.75,-324"/>
<text xml:space="preserve" text-anchor="middle" x="124.88" y="-310.5" font-family="Helvetica,sans-Serif" font-size="10.00">my_delay_ms_lib</text>
</a>
</g>
</g>
<!-- Node1&#45;&gt;Node2 -->
<g id="edge1_Node000001_Node000002" class="edge">
<title>Node1&#45;&gt;Node2</title>
<g id="a_edge1_Node000001_Node000002"><a xlink:title=" ">
<path fill="none" stroke="#63b8ff" d="M24.24,-229.35C32.14,-245.53 49.5,-276.86 73,-295 74.51,-296.17 76.11,-297.27 77.76,-298.31"/>
<polygon fill="#63b8ff" stroke="#63b8ff" points="75.88,-301.27 86.35,-302.89 79.17,-295.1 75.88,-301.27"/>
</a>
</g>
</g>
<!-- Node3 -->
<g id="Node000003" class="node">
<title>Node3</title>
<g id="a_Node000003"><a xlink:href="exemplo__5_8c.html#a1ebabf5df3f5856d744054ab8d011d87" target="_top" xlink:title="Interpreta e executa o comando digitado.">
<polygon fill="white" stroke="#666666" points="176.75,-248 73,-248 73,-228 176.75,-228 176.75,-248"/>
<text xml:space="preserve" text-anchor="middle" x="124.88" y="-234.5" font-family="Helvetica,sans-Serif" font-size="10.00">processar_comando</text>
</a>
</g>
</g>
<!-- Node1&#45;&gt;Node3 -->
<g id="edge2_Node000001_Node000003" class="edge">
<title>Node1&#45;&gt;Node3</title>
<g id="a_edge2_Node000001_Node000003"><a xlink:title=" ">
<path fill="none" stroke="#63b8ff" d="M37.21,-222.22C44.24,-223.5 52.78,-225.06 61.72,-226.69"/>
<polygon fill="#63b8ff" stroke="#63b8ff" points="60.81,-230.08 71.27,-228.42 62.06,-223.19 60.81,-230.08"/>
</a>
</g>
</g>
<!-- Node15 -->
<g id="Node000015" class="node">
<title>Node15</title>
<g id="a_Node000015"><a xlink:href="sdcard_8c.html#a0de914bcd39f32ddd2f8412744267322" target="_top" xlink:title="Prepara o contexto da biblioteca e inicializa a interface de hardware.">
<polygon fill="white" stroke="#666666" points="152.38,-210 97.38,-210 97.38,-190 152.38,-190 152.38,-210"/>
<text xml:space="preserve" text-anchor="middle" x="124.88" y="-196.5" font-family="Helvetica,sans-Serif" font-size="10.00">sd_begin</text>
</a>
</g>
</g>
<!-- Node1&#45;&gt;Node15 -->
<g id="edge22_Node000001_Node000015" class="edge">
<title>Node1&#45;&gt;Node15</title>
<g id="a_edge22_Node000001_Node000015"><a xlink:title=" ">
<path fill="none" stroke="#63b8ff" d="M37.21,-215.78C50.53,-213.35 69.29,-209.94 85.94,-206.9"/>
<polygon fill="#63b8ff" stroke="#63b8ff" points="86.35,-210.39 95.56,-205.15 85.09,-203.5 86.35,-210.39"/>
</a>
</g>
</g>
<!-- Node23 -->
<g id="Node000023" class="node">
<title>Node23</title>
<g id="a_Node000023"><a xlink:href="sdcard_8c.html#a8fb3672dbc5a29bab3e7614f4c655aff" target="_top" xlink:title="Localiza e monta o sistema de arquivos FAT32 no cartão SD.">
<polygon fill="white" stroke="#666666" points="162.5,-286 87.25,-286 87.25,-266 162.5,-266 162.5,-286"/>
<text xml:space="preserve" text-anchor="middle" x="124.88" y="-272.5" font-family="Helvetica,sans-Serif" font-size="10.00">sd_fat_mount</text>
</a>
</g>
</g>
<!-- Node1&#45;&gt;Node23 -->
<g id="edge31_Node000001_Node000023" class="edge">
<title>Node1&#45;&gt;Node23</title>
<g id="a_edge31_Node000001_Node000023"><a xlink:title=" ">
<path fill="none" stroke="#63b8ff" d="M32.08,-229.37C42.55,-237.64 58.1,-249.1 73,-257 75.81,-258.49 78.77,-259.92 81.78,-261.27"/>
<polygon fill="#63b8ff" stroke="#63b8ff" points="80.13,-264.38 90.71,-265.01 82.83,-257.92 80.13,-264.38"/>
</a>
</g>
</g>
<!-- Node24 -->
<g id="Node000024" class="node">
<title>Node24</title>
<g id="a_Node000024"><a xlink:href="exemplo__5_8c.html#ab623c1f26019eb7e6ba94279fab87446" target="_top" xlink:title="Lê uma linha inteira de caracteres da UART até encontrar &#39;Enter&#39;. Faz o &quot;echo&quot; (devolve o caractere) ...">
<polygon fill="white" stroke="#666666" points="160.62,-172 89.12,-172 89.12,-152 160.62,-152 160.62,-172"/>
<text xml:space="preserve" text-anchor="middle" x="124.88" y="-158.5" font-family="Helvetica,sans-Serif" font-size="10.00">uart_get_line</text>
</a>
</g>
</g>
<!-- Node1&#45;&gt;Node24 -->
<g id="edge33_Node000001_Node000024" class="edge">
<title>Node1&#45;&gt;Node24</title>
<g id="a_edge33_Node000001_Node000024"><a xlink:title=" ">
<path fill="none" stroke="#63b8ff" d="M32.08,-208.63C42.55,-200.36 58.1,-188.9 73,-181 75.81,-179.51 78.77,-178.08 81.78,-176.73"/>
<polygon fill="#63b8ff" stroke="#63b8ff" points="82.83,-180.08 90.71,-172.99 80.13,-173.62 82.83,-180.08"/>
</a>
</g>
</g>
<!-- Node26 -->
<g id="Node000026" class="node">
<title>Node26</title>
<g id="a_Node000026"><a xlink:href="exemplo__1_8c.html#a0c0ca72359ddf28dcd15900dfba19343" target="_top" xlink:title=" ">
<polygon fill="white" stroke="#666666" points="150.12,-134 99.62,-134 99.62,-114 150.12,-114 150.12,-134"/>
<text xml:space="preserve" text-anchor="middle" x="124.88" y="-120.5" font-family="Helvetica,sans-Serif" font-size="10.00">uart_init</text>
</a>
</g>
</g>
<!-- Node1&#45;&gt;Node26 -->
<g id="edge35_Node000001_Node000026" class="edge">
<title>Node1&#45;&gt;Node26</title>
<g id="a_edge35_Node000001_Node000026"><a xlink:title=" ">
<path fill="none" stroke="#63b8ff" d="M24.24,-208.65C32.14,-192.47 49.5,-161.14 73,-143 77.68,-139.38 83.13,-136.4 88.68,-133.95"/>
<polygon fill="#63b8ff" stroke="#63b8ff" points="89.81,-137.27 97.9,-130.43 87.31,-130.73 89.81,-137.27"/>
</a>
</g>
</g>
<!-- Node4 -->
<g id="Node000004" class="node">
<title>Node4</title>
<g id="a_Node000004"><a xlink:href="sdcard_8c.html#ac0efead9da3dedebd72b376562fca898" target="_top" xlink:title="Lista todos os arquivos presentes no diretório raiz via Serial.">
<polygon fill="white" stroke="#666666" points="286.5,-324 226.25,-324 226.25,-304 286.5,-304 286.5,-324"/>
<text xml:space="preserve" text-anchor="middle" x="256.38" y="-310.5" font-family="Helvetica,sans-Serif" font-size="10.00">sd_dir_list</text>
</a>
</g>
</g>
<!-- Node3&#45;&gt;Node4 -->
<g id="edge3_Node000003_Node000004" class="edge">
<title>Node3&#45;&gt;Node4</title>
<g id="a_edge3_Node000003_Node000004"><a xlink:title=" ">
<path fill="none" stroke="#63b8ff" d="M160.31,-248.41C166.02,-250.82 171.72,-253.67 176.75,-257 196.15,-269.85 193.76,-281.56 212.75,-295 214.49,-296.23 216.31,-297.4 218.2,-298.53"/>
<polygon fill="#63b8ff" stroke="#63b8ff" points="216.09,-301.37 226.56,-302.96 219.37,-295.19 216.09,-301.37"/>
</a>
</g>
</g>
<!-- Node8 -->
<g id="Node000008" class="node">
<title>Node8</title>
<g id="a_Node000008"><a xlink:href="sdcard_8c.html#af2ad75b395d583c12294747d47860497" target="_top" xlink:title="Exclui um arquivo do diretório e libera seu espaço no disco.">
<polygon fill="white" stroke="#666666" points="294.38,-248 218.38,-248 218.38,-228 294.38,-228 294.38,-248"/>
<text xml:space="preserve" text-anchor="middle" x="256.38" y="-234.5" font-family="Helvetica,sans-Serif" font-size="10.00">sd_file_delete</text>
</a>
</g>
</g>
<!-- Node3&#45;&gt;Node8 -->
<g id="edge8_Node000003_Node000008" class="edge">
<title>Node3&#45;&gt;Node8</title>
<g id="a_edge8_Node000003_Node000008"><a xlink:title=" ">
<path fill="none" stroke="#63b8ff" d="M177.06,-238C186.81,-238 196.99,-238 206.66,-238"/>
<polygon fill="#63b8ff" stroke="#63b8ff" points="206.63,-241.5 216.63,-238 206.63,-234.5 206.63,-241.5"/>
</a>
</g>
</g>
<!-- Node13 -->
<g id="Node000013" class="node">
<title>Node13</title>
<g id="a_Node000013"><a xlink:href="sdcard_8c.html#aec719268715a8022ad876f40ef9bb2fa" target="_top" xlink:title="Calcula a capacidade total do cartão SD em Megabytes (MB).">
<polygon fill="white" stroke="#666666" points="598.25,-172 492.25,-172 492.25,-152 598.25,-152 598.25,-172"/>
<text xml:space="preserve" text-anchor="middle" x="545.25" y="-158.5" font-family="Helvetica,sans-Serif" font-size="10.00">sd_get_capacity_mb</text>
</a>
</g>
</g>
<!-- Node3&#45;&gt;Node13 -->
<g id="edge19_Node000003_Node000013" class="edge">
<title>Node3&#45;&gt;Node13</title>
<g id="a_edge19_Node000003_Node000013"><a xlink:title=" ">
<path fill="none" stroke="#63b8ff" d="M171.78,-227.56C184.98,-224.66 199.42,-221.6 212.75,-219 305.67,-200.86 413.85,-182.84 480.69,-172.06"/>
<polygon fill="#63b8ff" stroke="#63b8ff" points="481.06,-175.54 490.37,-170.5 479.95,-168.63 481.06,-175.54"/>
</a>
</g>
</g>
<!-- Node14 -->
<g id="Node000014" class="node">
<title>Node14</title>
<g id="a_Node000014"><a xlink:href="sdcard_8c.html#af2ad3468d37d6d256e022bafa756ac32" target="_top" xlink:title="Converte uma string convencional para o formato FAT 8.3.">
<polygon fill="white" stroke="#666666" points="300,-286 212.75,-286 212.75,-266 300,-266 300,-286"/>
<text xml:space="preserve" text-anchor="middle" x="256.38" y="-272.5" font-family="Helvetica,sans-Serif" font-size="10.00">sd_set_filename</text>
</a>
</g>
</g>
<!-- Node3&#45;&gt;Node14 -->
<g id="edge21_Node000003_Node000014" class="edge">
<title>Node3&#45;&gt;Node14</title>
<g id="a_edge21_Node000003_Node000014"><a xlink:title=" ">
<path fill="none" stroke="#63b8ff" d="M161.6,-248.48C176.18,-252.76 193.24,-257.77 208.77,-262.33"/>
<polygon fill="#63b8ff" stroke="#63b8ff" points="207.73,-265.67 218.31,-265.12 209.7,-258.95 207.73,-265.67"/>
</a>
</g>
</g>
<!-- Node5 -->
<g id="Node000005" class="node">
<title>Node5</title>
<g id="a_Node000005"><a xlink:href="sdcard_8c.html#aba9c8b9a5590e13424ab4a69280f0c1d" target="_top" xlink:title="Lê um único bloco de 512 bytes do cartão (LBA).">
<polygon fill="white" stroke="#666666" points="579.5,-324 511,-324 511,-304 579.5,-304 579.5,-324"/>
<text xml:space="preserve" text-anchor="middle" x="545.25" y="-310.5" font-family="Helvetica,sans-Serif" font-size="10.00">sd_blk_read</text>
</a>
</g>
</g>
<!-- Node4&#45;&gt;Node5 -->
<g id="edge4_Node000004_Node000005" class="edge">
<title>Node4&#45;&gt;Node5</title>
<g id="a_edge4_Node000004_Node000005"><a xlink:title=" ">
<path fill="none" stroke="#63b8ff" d="M286.94,-322.9C301.56,-326.85 319.55,-331.04 336,-333 389.07,-339.32 403.11,-338.67 456.25,-333 470.46,-331.48 485.74,-328.63 499.51,-325.58"/>
<polygon fill="#63b8ff" stroke="#63b8ff" points="500.24,-329.01 509.2,-323.35 498.67,-322.19 500.24,-329.01"/>
</a>
</g>
</g>
<!-- Node7 -->
<g id="Node000007" class="node">
<title>Node7</title>
<g id="a_Node000007"><a xlink:href="sdcard_8c.html#a7b0d2ab1fae193461c611a4f2e6c9245" target="_top" xlink:title="Obtém o próximo cluster na tabela FAT.">
<polygon fill="white" stroke="#666666" points="456.25,-324 336,-324 336,-304 456.25,-304 456.25,-324"/>
<text xml:space="preserve" text-anchor="middle" x="396.12" y="-310.5" font-family="Helvetica,sans-Serif" font-size="10.00">sd_fat_get_next_cluster</text>
</a>
</g>
</g>
<!-- Node4&#45;&gt;Node7 -->
<g id="edge6_Node000004_Node000007" class="edge">
<title>Node4&#45;&gt;Node7</title>
<g id="a_edge6_Node000004_Node000007"><a xlink:title=" ">
<path fill="none" stroke="#63b8ff" d="M286.93,-314C298.04,-314 311.22,-314 324.48,-314"/>
<polygon fill="#63b8ff" stroke="#63b8ff" points="324.08,-317.5 334.08,-314 324.08,-310.5 324.08,-317.5"/>
</a>
</g>
</g>
<!-- Node6 -->
<g id="Node000006" class="node">
<title>Node6</title>
<g id="a_Node000006"><a xlink:href="sdcard_8c.html#aae1cfbcba5f92f4639e23fd8ed8fa3c0" target="_top" xlink:title="Envia um comando SPI para o cartão SD e aguarda resposta R1.">
<polygon fill="white" stroke="#666666" points="860.5,-210 783.75,-210 783.75,-190 860.5,-190 860.5,-210"/>
<text xml:space="preserve" text-anchor="middle" x="822.12" y="-196.5" font-family="Helvetica,sans-Serif" font-size="10.00">sd_cmd_send</text>
</a>
</g>
</g>
<!-- Node5&#45;&gt;Node6 -->
<g id="edge5_Node000005_Node000006" class="edge">
<title>Node5&#45;&gt;Node6</title>
<g id="a_edge5_Node000005_Node000006"><a xlink:title=" ">
<path fill="none" stroke="#63b8ff" d="M580,-318.63C622.05,-322.72 694.82,-324.16 747.75,-295 778.2,-278.22 800.12,-242.97 811.7,-220.45"/>
<polygon fill="#63b8ff" stroke="#63b8ff" points="814.76,-222.15 816.01,-211.63 808.47,-219.08 814.76,-222.15"/>
</a>
</g>
</g>
<!-- Node7&#45;&gt;Node5 -->
<g id="edge7_Node000007_Node000005" class="edge">
<title>Node7&#45;&gt;Node5</title>
<g id="a_edge7_Node000007_Node000005"><a xlink:title=" ">
<path fill="none" stroke="#63b8ff" d="M456.54,-314C470.85,-314 485.91,-314 499.42,-314"/>
<polygon fill="#63b8ff" stroke="#63b8ff" points="499.33,-317.5 509.33,-314 499.33,-310.5 499.33,-317.5"/>
</a>
</g>
</g>
<!-- Node8&#45;&gt;Node5 -->
<g id="edge9_Node000008_Node000005" class="edge">
<title>Node8&#45;&gt;Node5</title>
<g id="a_edge9_Node000008_Node000005"><a xlink:title=" ">
<path fill="none" stroke="#63b8ff" d="M294.58,-247.86C347.2,-261.8 443.22,-287.23 499.61,-302.17"/>
<polygon fill="#63b8ff" stroke="#63b8ff" points="498.65,-305.54 509.21,-304.72 500.44,-298.77 498.65,-305.54"/>
</a>
</g>
</g>
<!-- Node8&#45;&gt;Node7 -->
<g id="edge18_Node000008_Node000007" class="edge">
<title>Node8&#45;&gt;Node7</title>
<g id="a_edge18_Node000008_Node000007"><a xlink:title=" ">
<path fill="none" stroke="#63b8ff" d="M284.22,-248.38C289.62,-250.9 295.12,-253.8 300,-257 318.15,-268.91 317.65,-278.4 336,-290 341.27,-293.33 347.07,-296.36 352.93,-299.05"/>
<polygon fill="#63b8ff" stroke="#63b8ff" points="351.45,-302.22 362.02,-302.94 354.21,-295.79 351.45,-302.22"/>
</a>
</g>
</g>
<!-- Node9 -->
<g id="Node000009" class="node">
<title>Node9</title>
<g id="a_Node000009"><a xlink:href="sdcard_8c.html#ac6d558621f33abf80f245adb3d0f4e67" target="_top" xlink:title="Escreve um único bloco de 512 bytes.">
<polygon fill="white" stroke="#666666" points="580.62,-248 509.88,-248 509.88,-228 580.62,-228 580.62,-248"/>
<text xml:space="preserve" text-anchor="middle" x="545.25" y="-234.5" font-family="Helvetica,sans-Serif" font-size="10.00">sd_blk_write</text>
</a>
</g>
</g>
<!-- Node8&#45;&gt;Node9 -->
<g id="edge10_Node000008_Node000009" class="edge">
<title>Node8&#45;&gt;Node9</title>
<g id="a_edge10_Node000008_Node000009"><a xlink:title=" ">
<path fill="none" stroke="#63b8ff" d="M292.67,-227.59C306.1,-224.12 321.64,-220.71 336,-219 389.07,-212.68 403.11,-213.33 456.25,-219 470.09,-220.48 484.95,-223.23 498.45,-226.18"/>
<polygon fill="#63b8ff" stroke="#63b8ff" points="497.41,-229.54 507.94,-228.36 498.97,-222.71 497.41,-229.54"/>
</a>
</g>
</g>
<!-- Node12 -->
<g id="Node000012" class="node">
<title>Node12</title>
<g id="a_Node000012"><a xlink:href="sdcard_8c.html#a5afd6e264210d197c43e84b5e7dd8856" target="_top" xlink:title="Libera uma cadeia de clusters na tabela FAT, marcando&#45;os como disponíveis.">
<polygon fill="white" stroke="#666666" points="442.75,-248 349.5,-248 349.5,-228 442.75,-228 442.75,-248"/>
<text xml:space="preserve" text-anchor="middle" x="396.12" y="-234.5" font-family="Helvetica,sans-Serif" font-size="10.00">sd_fat_free_chain</text>
</a>
</g>
</g>
<!-- Node8&#45;&gt;Node12 -->
<g id="edge15_Node000008_Node000012" class="edge">
<title>Node8&#45;&gt;Node12</title>
<g id="a_edge15_Node000008_Node000012"><a xlink:title=" ">
<path fill="none" stroke="#63b8ff" d="M294.65,-238C307.92,-238 323.18,-238 337.74,-238"/>
<polygon fill="#63b8ff" stroke="#63b8ff" points="337.7,-241.5 347.7,-238 337.7,-234.5 337.7,-241.5"/>
</a>
</g>
</g>
<!-- Node9&#45;&gt;Node6 -->
<g id="edge11_Node000009_Node000006" class="edge">
<title>Node9&#45;&gt;Node6</title>
<g id="a_edge11_Node000009_Node000006"><a xlink:title=" ">
<path fill="none" stroke="#63b8ff" d="M581.06,-236.4C621.41,-234.17 689.78,-229.17 747.75,-219 756.5,-217.46 765.73,-215.42 774.59,-213.24"/>
<polygon fill="#63b8ff" stroke="#63b8ff" points="775.26,-216.68 784.08,-210.81 773.53,-209.9 775.26,-216.68"/>
</a>
</g>
</g>
<!-- Node10 -->
<g id="Node000010" class="node">
<title>Node10</title>
<g id="a_Node000010"><a xlink:href="sdcard_8c.html#afcdb9112d386e92b29ad0cac9f5fc277" target="_top" xlink:title="Obtém o status atual do cartão SD (comando CMD13).">
<polygon fill="white" stroke="#666666" points="729.75,-210 652.25,-210 652.25,-190 729.75,-190 729.75,-210"/>
<text xml:space="preserve" text-anchor="middle" x="691" y="-196.5" font-family="Helvetica,sans-Serif" font-size="10.00">sd_get_status</text>
</a>
</g>
</g>
<!-- Node9&#45;&gt;Node10 -->
<g id="edge12_Node000009_Node000010" class="edge">
<title>Node9&#45;&gt;Node10</title>
<g id="a_edge12_Node000009_Node000010"><a xlink:title=" ">
<path fill="none" stroke="#63b8ff" d="M581.05,-228.8C599.05,-224.04 621.33,-218.15 641.04,-212.94"/>
<polygon fill="#63b8ff" stroke="#63b8ff" points="641.75,-216.37 650.53,-210.43 639.96,-209.61 641.75,-216.37"/>
</a>
</g>
</g>
<!-- Node11 -->
<g id="Node000011" class="node">
<title>Node11</title>
<g id="a_Node000011"><a xlink:href="sdcard_8c.html#a8c2c0ebbeee0d06d43335bc9df4b3142" target="_top" xlink:title="Aguarda o cartão sair do estado de ocupado (busy).">
<polygon fill="white" stroke="#666666" points="739.5,-286 642.5,-286 642.5,-266 739.5,-266 739.5,-286"/>
<text xml:space="preserve" text-anchor="middle" x="691" y="-272.5" font-family="Helvetica,sans-Serif" font-size="10.00">sd_spi_wait_ready</text>
</a>
</g>
</g>
<!-- Node9&#45;&gt;Node11 -->
<g id="edge14_Node000009_Node000011" class="edge">
<title>Node9&#45;&gt;Node11</title>
<g id="a_edge14_Node000009_Node000011"><a xlink:title=" ">
<path fill="none" stroke="#63b8ff" d="M581.05,-247.2C598.55,-251.83 620.1,-257.52 639.39,-262.62"/>
<polygon fill="#63b8ff" stroke="#63b8ff" points="638.42,-265.99 648.98,-265.16 640.21,-259.22 638.42,-265.99"/>
</a>
</g>
</g>
<!-- Node10&#45;&gt;Node6 -->
<g id="edge13_Node000010_Node000006" class="edge">
<title>Node10&#45;&gt;Node6</title>
<g id="a_edge13_Node000010_Node000006"><a xlink:title=" ">
<path fill="none" stroke="#63b8ff" d="M730.04,-200C743.18,-200 758.09,-200 771.98,-200"/>
<polygon fill="#63b8ff" stroke="#63b8ff" points="771.84,-203.5 781.84,-200 771.84,-196.5 771.84,-203.5"/>
</a>
</g>
</g>
<!-- Node12&#45;&gt;Node5 -->
<g id="edge16_Node000012_Node000005" class="edge">
<title>Node12&#45;&gt;Node5</title>
<g id="a_edge16_Node000012_Node000005"><a xlink:title=" ">
<path fill="none" stroke="#63b8ff" d="M425.17,-248.4C435.13,-252.35 446.32,-257.09 456.25,-262 478.05,-272.79 501.74,-286.94 519.04,-297.75"/>
<polygon fill="#63b8ff" stroke="#63b8ff" points="516.83,-300.49 527.15,-302.87 520.56,-294.57 516.83,-300.49"/>
</a>
</g>
</g>
<!-- Node12&#45;&gt;Node9 -->
<g id="edge17_Node000012_Node000009" class="edge">
<title>Node12&#45;&gt;Node9</title>
<g id="a_edge17_Node000012_Node000009"><a xlink:title=" ">
<path fill="none" stroke="#63b8ff" d="M442.87,-238C460.5,-238 480.63,-238 498.28,-238"/>
<polygon fill="#63b8ff" stroke="#63b8ff" points="498.24,-241.5 508.24,-238 498.24,-234.5 498.24,-241.5"/>
</a>
</g>
</g>
<!-- Node13&#45;&gt;Node6 -->
<g id="edge20_Node000013_Node000006" class="edge">
<title>Node13&#45;&gt;Node6</title>
<g id="a_edge20_Node000013_Node000006"><a xlink:title=" ">
<path fill="none" stroke="#63b8ff" d="M598.74,-164.65C639.59,-167.27 697.57,-172.19 747.75,-181 756.5,-182.54 765.73,-184.58 774.59,-186.76"/>
<polygon fill="#63b8ff" stroke="#63b8ff" points="773.53,-190.1 784.08,-189.19 775.26,-183.32 773.53,-190.1"/>
</a>
</g>
</g>
<!-- Node16 -->
<g id="Node000016" class="node">
<title>Node16</title>
<g id="a_Node000016"><a xlink:href="sdcard_8c.html#afac6d670e786eaea1f07a4eb95b25ac6" target="_top" xlink:title="Inicialização rápida para AVR (configura pinos + HAL interno).">
<polygon fill="white" stroke="#666666" points="292.88,-115 219.88,-115 219.88,-95 292.88,-95 292.88,-115"/>
<text xml:space="preserve" text-anchor="middle" x="256.38" y="-101.5" font-family="Helvetica,sans-Serif" font-size="10.00">sd_quick_init</text>
</a>
</g>
</g>
<!-- Node15&#45;&gt;Node16 -->
<g id="edge23_Node000015_Node000016" class="edge">
<title>Node15&#45;&gt;Node16</title>
<g id="a_edge23_Node000015_Node000016"><a xlink:title=" ">
<path fill="none" stroke="#63b8ff" d="M152.73,-192.3C160.78,-189.38 169.41,-185.63 176.75,-181 183.59,-176.68 216.2,-144.4 237.22,-123.32"/>
<polygon fill="#63b8ff" stroke="#63b8ff" points="239.51,-125.98 244.08,-116.42 234.54,-121.05 239.51,-125.98"/>
</a>
</g>
</g>
<!-- Node17 -->
<g id="Node000017" class="node">
<title>Node17</title>
<g id="a_Node000017"><a xlink:href="sdcard_8c.html#a6cf66af945c22b51e07f145a63869c5a" target="_top" xlink:title="Desativa o Chip Select (CS) &#45; Pino PB2.">
<polygon fill="white" stroke="#666666" points="431.5,-20 360.75,-20 360.75,0 431.5,0 431.5,-20"/>
<text xml:space="preserve" text-anchor="middle" x="396.12" y="-6.5" font-family="Helvetica,sans-Serif" font-size="10.00">_sd_cs_high</text>
</a>
</g>
</g>
<!-- Node16&#45;&gt;Node17 -->
<g id="edge24_Node000016_Node000017" class="edge">
<title>Node16&#45;&gt;Node17</title>
<g id="a_edge24_Node000016_Node000017"><a xlink:title=" ">
<path fill="none" stroke="#63b8ff" d="M286.72,-94.69C291.45,-92.28 296.08,-89.39 300,-86 322.66,-66.39 312.31,-47.35 336,-29 340.2,-25.75 344.97,-23.04 349.95,-20.79"/>
<polygon fill="#63b8ff" stroke="#63b8ff" points="350.83,-24.2 358.89,-17.34 348.31,-17.67 350.83,-24.2"/>
</a>
</g>
</g>
<!-- Node18 -->
<g id="Node000018" class="node">
<title>Node18</title>
<g id="a_Node000018"><a xlink:href="sdcard_8c.html#aeabfda2a0d078f02c8fdedc7c840cc69" target="_top" xlink:title="Ativa o Chip Select (CS) &#45; Pino PB2.">
<polygon fill="white" stroke="#666666" points="430,-134 362.25,-134 362.25,-114 430,-114 430,-134"/>
<text xml:space="preserve" text-anchor="middle" x="396.12" y="-120.5" font-family="Helvetica,sans-Serif" font-size="10.00">_sd_cs_low</text>
</a>
</g>
</g>
<!-- Node16&#45;&gt;Node18 -->
<g id="edge25_Node000016_Node000018" class="edge">
<title>Node16&#45;&gt;Node18</title>
<g id="a_edge25_Node000016_Node000018"><a xlink:title=" ">
<path fill="none" stroke="#63b8ff" d="M293.21,-109.94C310.77,-112.36 332.08,-115.3 350.67,-117.87"/>
<polygon fill="#63b8ff" stroke="#63b8ff" points="349.95,-121.3 360.34,-119.2 350.91,-114.37 349.95,-121.3"/>
</a>
</g>
</g>
<!-- Node19 -->
<g id="Node000019" class="node">
<title>Node19</title>
<g id="a_Node000019"><a xlink:href="sdcard_8c.html#a8092c4cbf898989b2bf07325565e0cbd" target="_top" xlink:title="Transmissão/recepção de um byte via SPI (função interna).">
<polygon fill="white" stroke="#666666" points="440.12,-96 352.12,-96 352.12,-76 440.12,-76 440.12,-96"/>
<text xml:space="preserve" text-anchor="middle" x="396.12" y="-82.5" font-family="Helvetica,sans-Serif" font-size="10.00">_sd_spi_transfer</text>
</a>
</g>
</g>
<!-- Node16&#45;&gt;Node19 -->
<g id="edge26_Node000016_Node000019" class="edge">
<title>Node16&#45;&gt;Node19</title>
<g id="a_edge26_Node000016_Node000019"><a xlink:title=" ">
<path fill="none" stroke="#63b8ff" d="M293.21,-100.06C307.64,-98.07 324.61,-95.73 340.52,-93.53"/>
<polygon fill="#63b8ff" stroke="#63b8ff" points="340.94,-97.01 350.36,-92.17 339.98,-90.07 340.94,-97.01"/>
</a>
</g>
</g>
<!-- Node20 -->
<g id="Node000020" class="node">
<title>Node20</title>
<g id="a_Node000020"><a xlink:href="sdcard_8c.html#abb7664cb3bec0e4c545128d134f0e054" target="_top" xlink:title="Tenta inicializar o cartão at 3 vezes com delay entre tentativas.">
<polygon fill="white" stroke="#666666" points="430.75,-58 361.5,-58 361.5,-38 430.75,-38 430.75,-58"/>
<text xml:space="preserve" text-anchor="middle" x="396.12" y="-44.5" font-family="Helvetica,sans-Serif" font-size="10.00">sd_init_retry</text>
</a>
</g>
</g>
<!-- Node16&#45;&gt;Node20 -->
<g id="edge27_Node000016_Node000020" class="edge">
<title>Node16&#45;&gt;Node20</title>
<g id="a_edge27_Node000016_Node000020"><a xlink:title=" ">
<path fill="none" stroke="#63b8ff" d="M281.4,-94.62C287.5,-91.9 294.02,-88.9 300,-86 316.27,-78.09 319.32,-74.02 336,-67 340.65,-65.04 345.58,-63.16 350.53,-61.4"/>
<polygon fill="#63b8ff" stroke="#63b8ff" points="351.52,-64.76 359.86,-58.24 349.27,-58.14 351.52,-64.76"/>
</a>
</g>
</g>
<!-- Node21 -->
<g id="Node000021" class="node">
<title>Node21</title>
<g id="a_Node000021"><a xlink:href="sdcard_8c.html#a6a8f9df03a1b222e8ea45199b7431e19" target="_top" xlink:title="Inicializa o cartão SD no modo SPI.">
<polygon fill="white" stroke="#666666" points="567.5,-66 523,-66 523,-46 567.5,-46 567.5,-66"/>
<text xml:space="preserve" text-anchor="middle" x="545.25" y="-52.5" font-family="Helvetica,sans-Serif" font-size="10.00">sd_init</text>
</a>
</g>
</g>
<!-- Node20&#45;&gt;Node21 -->
<g id="edge28_Node000020_Node000021" class="edge">
<title>Node20&#45;&gt;Node21</title>
<g id="a_edge28_Node000020_Node000021"><a xlink:title=" ">
<path fill="none" stroke="#63b8ff" d="M431.25,-49.86C455.36,-51.17 487.49,-52.91 511.33,-54.21"/>
<polygon fill="#63b8ff" stroke="#63b8ff" points="510.93,-57.69 521.11,-54.74 511.31,-50.7 510.93,-57.69"/>
</a>
</g>
</g>
<!-- Node21&#45;&gt;Node6 -->
<g id="edge30_Node000021_Node000006" class="edge">
<title>Node21&#45;&gt;Node6</title>
<g id="a_edge30_Node000021_Node000006"><a xlink:title=" ">
<path fill="none" stroke="#63b8ff" d="M566.02,-66.36C613.55,-91.26 734.47,-154.61 791.06,-184.25"/>
<polygon fill="#63b8ff" stroke="#63b8ff" points="789.34,-187.3 799.83,-188.84 792.59,-181.1 789.34,-187.3"/>
</a>
</g>
</g>
<!-- Node22 -->
<g id="Node000022" class="node">
<title>Node22</title>
<g id="a_Node000022"><a xlink:href="sdcard_8c.html#abf6c02ac2130c37a0bff2e6b9a6c25cb" target="_top" xlink:title="Configura a velocidade do SPI no AVR (função interna).">
<polygon fill="white" stroke="#666666" points="747.75,-72 634.25,-72 634.25,-40 747.75,-40 747.75,-72"/>
<text xml:space="preserve" text-anchor="start" x="642.25" y="-58.5" font-family="Helvetica,sans-Serif" font-size="10.00">sd_avr_spi_set_speed</text>
<text xml:space="preserve" text-anchor="middle" x="691" y="-46.5" font-family="Helvetica,sans-Serif" font-size="10.00">_default</text>
</a>
</g>
</g>
<!-- Node21&#45;&gt;Node22 -->
<g id="edge29_Node000021_Node000022" class="edge">
<title>Node21&#45;&gt;Node22</title>
<g id="a_edge29_Node000021_Node000022"><a xlink:title=" ">
<path fill="none" stroke="#63b8ff" d="M567.77,-56C582.44,-56 602.73,-56 622.57,-56"/>
<polygon fill="#63b8ff" stroke="#63b8ff" points="622.31,-59.5 632.31,-56 622.31,-52.5 622.31,-59.5"/>
</a>
</g>
</g>
<!-- Node23&#45;&gt;Node5 -->
<g id="edge32_Node000023_Node000005" class="edge">
<title>Node23&#45;&gt;Node5</title>
<g id="a_edge32_Node000023_Node000005"><a xlink:title=" ">
<path fill="none" stroke="#63b8ff" d="M160.31,-286.41C166.02,-288.82 171.72,-291.67 176.75,-295 196.15,-307.85 192.02,-322.45 212.75,-333 309.41,-382.19 349.73,-369.41 456.25,-349 476.25,-345.17 497.5,-336.85 514.11,-329.28"/>
<polygon fill="#63b8ff" stroke="#63b8ff" points="515.37,-332.56 522.92,-325.12 512.38,-326.23 515.37,-332.56"/>
</a>
</g>
</g>
<!-- Node25 -->
<g id="Node000025" class="node">
<title>Node25</title>
<g id="a_Node000025"><a xlink:href="exemplo__5_8c.html#a00dbbc6e035bfd12196ec47a99f8e1fe" target="_top" xlink:title="Recebe um caractere da UART.">
<polygon fill="white" stroke="#666666" points="291.38,-77 221.38,-77 221.38,-57 291.38,-57 291.38,-77"/>
<text xml:space="preserve" text-anchor="middle" x="256.38" y="-63.5" font-family="Helvetica,sans-Serif" font-size="10.00">uart_getchar</text>
</a>
</g>
</g>
<!-- Node24&#45;&gt;Node25 -->
<g id="edge34_Node000024_Node000025" class="edge">
<title>Node24&#45;&gt;Node25</title>
<g id="a_edge34_Node000024_Node000025"><a xlink:title=" ">
<path fill="none" stroke="#63b8ff" d="M160.9,-152.39C166.55,-149.9 172.07,-146.81 176.75,-143 200,-124.1 190.09,-105.61 212.75,-86 213.85,-85.05 215.01,-84.13 216.21,-83.26"/>
<polygon fill="#63b8ff" stroke="#63b8ff" points="218,-86.27 224.73,-78.09 214.37,-80.28 218,-86.27"/>
</a>
</g>
</g>
</g>
</svg>
