<?xml version="1.0" encoding="UTF-8" standalone="no"?>
<!DOCTYPE svg PUBLIC "-//W3C//DTD SVG 1.1//EN"
 "http://www.w3.org/Graphics/SVG/1.1/DTD/svg11.dtd">
<!-- Generated by graphviz version 14.1.4 (20260321.0153)
 -->
<!-- Title: processar_comando Pages: 1 -->
<svg width="744pt" height="196pt"
 viewBox="0.00 0.00 744.00 196.00" xmlns="http://www.w3.org/2000/svg" xmlns:xlink="http://www.w3.org/1999/xlink">
<g id="graph0" class="graph" transform="scale(1 1) rotate(0) translate(4 192.3)">
<title>processar_comando</title>
<!-- Node1 -->
<g id="Node000001" class="node">
<title>Node1</title>
<g id="a_Node000001"><a xlink:title="Interpreta e executa o comando digitado.">
<polygon fill="#999999" stroke="#666666" points="103.75,-98.21 0,-98.21 0,-78.21 103.75,-78.21 103.75,-98.21"/>
<text xml:space="preserve" text-anchor="middle" x="51.88" y="-84.71" font-family="Helvetica,sans-Serif" font-size="10.00">processar_comando</text>
</a>
</g>
</g>
<!-- Node2 -->
<g id="Node000002" class="node">
<title>Node2</title>
<g id="a_Node000002"><a xlink:href="sdcard_8c.html#ac0efead9da3dedebd72b376562fca898" target="_top" xlink:title="Lista todos os arquivos presentes no diretório raiz via Serial.">
<polygon fill="white" stroke="#666666" points="213.5,-174.21 153.25,-174.21 153.25,-154.21 213.5,-154.21 213.5,-174.21"/>
<text xml:space="preserve" text-anchor="middle" x="183.38" y="-160.71" font-family="Helvetica,sans-Serif" font-size="10.00">sd_dir_list</text>
</a>
</g>
</g>
<!-- Node1&#45;&gt;Node2 -->
<g id="edge1_Node000001_Node000002" class="edge">
<title>Node1&#45;&gt;Node2</title>
<g id="a_edge1_Node000001_Node000002"><a xlink:title=" ">
<path fill="none" stroke="#63b8ff" d="M70.61,-98.62C92.41,-111.41 129.62,-133.25 155.08,-148.19"/>
<polygon fill="#63b8ff" stroke="#63b8ff" points="153.15,-151.12 163.55,-153.16 156.7,-145.08 153.15,-151.12"/>
</a>
</g>
</g>
<!-- Node6 -->
<g id="Node000006" class="node">
<title>Node6</title>
<g id="a_Node000006"><a xlink:href="sdcard_8c.html#af2ad75b395d583c12294747d47860497" target="_top" xlink:title="Exclui um arquivo do diretório e libera seu espaço no disco.">
<polygon fill="white" stroke="#666666" points="221.38,-117.21 145.38,-117.21 145.38,-97.21 221.38,-97.21 221.38,-117.21"/>
<text xml:space="preserve" text-anchor="middle" x="183.38" y="-103.71" font-family="Helvetica,sans-Serif" font-size="10.00">sd_file_delete</text>
</a>
</g>
</g>
<!-- Node1&#45;&gt;Node6 -->
<g id="edge6_Node000001_Node000006" class="edge">
<title>Node1&#45;&gt;Node6</title>
<g id="a_edge6_Node000001_Node000006"><a xlink:title=" ">
<path fill="none" stroke="#63b8ff" d="M104.06,-95.72C113.91,-97.16 124.21,-98.68 133.98,-100.11"/>
<polygon fill="#63b8ff" stroke="#63b8ff" points="133.24,-103.54 143.64,-101.53 134.26,-96.61 133.24,-103.54"/>
</a>
</g>
</g>
<!-- Node11 -->
<g id="Node000011" class="node">
<title>Node11</title>
<g id="a_Node000011"><a xlink:href="sdcard_8c.html#aec719268715a8022ad876f40ef9bb2fa" target="_top" xlink:title="Calcula a capacidade total do cartão SD em Megabytes (MB).">
<polygon fill="white" stroke="#666666" points="376.12,-22.21 270.12,-22.21 270.12,-2.21 376.12,-2.21 376.12,-22.21"/>
<text xml:space="preserve" text-anchor="middle" x="323.12" y="-8.71" font-family="Helvetica,sans-Serif" font-size="10.00">sd_get_capacity_mb</text>
</a>
</g>
</g>
<!-- Node1&#45;&gt;Node11 -->
<g id="edge17_Node000001_Node000011" class="edge">
<title>Node1&#45;&gt;Node11</title>
<g id="a_edge17_Node000001_Node000011"><a xlink:title=" ">
<path fill="none" stroke="#63b8ff" d="M104.12,-79.34C139.11,-72.72 186.32,-62.68 227,-50.21 247.84,-43.82 270.53,-34.84 288.52,-27.21"/>
<polygon fill="#63b8ff" stroke="#63b8ff" points="289.87,-30.44 297.67,-23.27 287.1,-24.01 289.87,-30.44"/>
</a>
</g>
</g>
<!-- Node12 -->
<g id="Node000012" class="node">
<title>Node12</title>
<g id="a_Node000012"><a xlink:href="sdcard_8c.html#af2ad3468d37d6d256e022bafa756ac32" target="_top" xlink:title="Converte uma string convencional para o formato FAT 8.3.">
<polygon fill="white" stroke="#666666" points="227,-41.21 139.75,-41.21 139.75,-21.21 227,-21.21 227,-41.21"/>
<text xml:space="preserve" text-anchor="middle" x="183.38" y="-27.71" font-family="Helvetica,sans-Serif" font-size="10.00">sd_set_filename</text>
</a>
</g>
</g>
<!-- Node1&#45;&gt;Node12 -->
<g id="edge19_Node000001_Node000012" class="edge">
<title>Node1&#45;&gt;Node12</title>
<g id="a_edge19_Node000001_Node000012"><a xlink:title=" ">
<path fill="none" stroke="#63b8ff" d="M76.63,-77.75C96.71,-68.92 125.72,-56.14 148.28,-46.21"/>
<polygon fill="#63b8ff" stroke="#63b8ff" points="149.65,-49.44 157.39,-42.21 146.83,-43.03 149.65,-49.44"/>
</a>
</g>
</g>
<!-- Node3 -->
<g id="Node000003" class="node">
<title>Node3</title>
<g id="a_Node000003"><a xlink:href="sdcard_8c.html#aba9c8b9a5590e13424ab4a69280f0c1d" target="_top" xlink:title="Lê um único bloco de 512 bytes do cartão (LBA).">
<polygon fill="white" stroke="#666666" points="488.88,-174.21 420.38,-174.21 420.38,-154.21 488.88,-154.21 488.88,-174.21"/>
<text xml:space="preserve" text-anchor="middle" x="454.62" y="-160.71" font-family="Helvetica,sans-Serif" font-size="10.00">sd_blk_read</text>
</a>
</g>
</g>
<!-- Node2&#45;&gt;Node3 -->
<g id="edge2_Node000002_Node000003" class="edge">
<title>Node2&#45;&gt;Node3</title>
<g id="a_edge2_Node000002_Node000003"><a xlink:title=" ">
<path fill="none" stroke="#63b8ff" d="M213.94,-173.11C228.56,-177.06 246.55,-181.25 263,-183.21 316.07,-189.53 330.27,-190.24 383.25,-183.21 392.44,-181.99 402.13,-179.91 411.28,-177.57"/>
<polygon fill="#63b8ff" stroke="#63b8ff" points="411.92,-181.02 420.65,-175.02 410.08,-174.27 411.92,-181.02"/>
</a>
</g>
</g>
<!-- Node5 -->
<g id="Node000005" class="node">
<title>Node5</title>
<g id="a_Node000005"><a xlink:href="sdcard_8c.html#a7b0d2ab1fae193461c611a4f2e6c9245" target="_top" xlink:title="Obtém o próximo cluster na tabela FAT.">
<polygon fill="white" stroke="#666666" points="383.25,-174.21 263,-174.21 263,-154.21 383.25,-154.21 383.25,-174.21"/>
<text xml:space="preserve" text-anchor="middle" x="323.12" y="-160.71" font-family="Helvetica,sans-Serif" font-size="10.00">sd_fat_get_next_cluster</text>
</a>
</g>
</g>
<!-- Node2&#45;&gt;Node5 -->
<g id="edge4_Node000002_Node000005" class="edge">
<title>Node2&#45;&gt;Node5</title>
<g id="a_edge4_Node000002_Node000005"><a xlink:title=" ">
<path fill="none" stroke="#63b8ff" d="M213.93,-164.21C225.04,-164.21 238.22,-164.21 251.48,-164.21"/>
<polygon fill="#63b8ff" stroke="#63b8ff" points="251.08,-167.71 261.08,-164.21 251.08,-160.71 251.08,-167.71"/>
</a>
</g>
</g>
<!-- Node4 -->
<g id="Node000004" class="node">
<title>Node4</title>
<g id="a_Node000004"><a xlink:href="sdcard_8c.html#aae1cfbcba5f92f4639e23fd8ed8fa3c0" target="_top" xlink:title="Envia um comando SPI para o cartão SD e aguarda resposta R1.">
<polygon fill="white" stroke="#666666" points="735.75,-117.21 659,-117.21 659,-97.21 735.75,-97.21 735.75,-117.21"/>
<text xml:space="preserve" text-anchor="middle" x="697.38" y="-103.71" font-family="Helvetica,sans-Serif" font-size="10.00">sd_cmd_send</text>
</a>
</g>
</g>
<!-- Node3&#45;&gt;Node4 -->
<g id="edge3_Node000003_Node000004" class="edge">
<title>Node3&#45;&gt;Node4</title>
<g id="a_edge3_Node000003_Node000004"><a xlink:title=" ">
<path fill="none" stroke="#63b8ff" d="M489.35,-156.22C530.48,-146.49 600.31,-129.95 647.37,-118.81"/>
<polygon fill="#63b8ff" stroke="#63b8ff" points="648.12,-122.23 657.04,-116.52 646.5,-115.42 648.12,-122.23"/>
</a>
</g>
</g>
<!-- Node5&#45;&gt;Node3 -->
<g id="edge5_Node000005_Node000003" class="edge">
<title>Node5&#45;&gt;Node3</title>
<g id="a_edge5_Node000005_Node000003"><a xlink:title=" ">
<path fill="none" stroke="#63b8ff" d="M383.57,-164.21C391.97,-164.21 400.49,-164.21 408.55,-164.21"/>
<polygon fill="#63b8ff" stroke="#63b8ff" points="408.47,-167.71 418.47,-164.21 408.47,-160.71 408.47,-167.71"/>
</a>
</g>
</g>
<!-- Node6&#45;&gt;Node3 -->
<g id="edge7_Node000006_Node000003" class="edge">
<title>Node6&#45;&gt;Node3</title>
<g id="a_edge7_Node000006_Node000003"><a xlink:title=" ">
<path fill="none" stroke="#63b8ff" d="M221.57,-113.46C261.65,-120.39 327.24,-132.32 383.25,-145.21 391.65,-147.14 400.57,-149.39 409.13,-151.66"/>
<polygon fill="#63b8ff" stroke="#63b8ff" points="408.08,-155 418.64,-154.22 409.9,-148.24 408.08,-155"/>
</a>
</g>
</g>
<!-- Node6&#45;&gt;Node5 -->
<g id="edge16_Node000006_Node000005" class="edge">
<title>Node6&#45;&gt;Node5</title>
<g id="a_edge16_Node000006_Node000005"><a xlink:title=" ">
<path fill="none" stroke="#63b8ff" d="M209.13,-117.69C224.6,-124.21 244.94,-132.75 263,-140.21 270.29,-143.22 278.1,-146.41 285.58,-149.45"/>
<polygon fill="#63b8ff" stroke="#63b8ff" points="284.21,-152.67 294.79,-153.19 286.84,-146.19 284.21,-152.67"/>
</a>
</g>
</g>
<!-- Node7 -->
<g id="Node000007" class="node">
<title>Node7</title>
<g id="a_Node000007"><a xlink:href="sdcard_8c.html#ac6d558621f33abf80f245adb3d0f4e67" target="_top" xlink:title="Escreve um único bloco de 512 bytes.">
<polygon fill="white" stroke="#666666" points="490,-98.21 419.25,-98.21 419.25,-78.21 490,-78.21 490,-98.21"/>
<text xml:space="preserve" text-anchor="middle" x="454.62" y="-84.71" font-family="Helvetica,sans-Serif" font-size="10.00">sd_blk_write</text>
</a>
</g>
</g>
<!-- Node6&#45;&gt;Node7 -->
<g id="edge8_Node000006_Node000007" class="edge">
<title>Node6&#45;&gt;Node7</title>
<g id="a_edge8_Node000006_Node000007"><a xlink:title=" ">
<path fill="none" stroke="#63b8ff" d="M203.55,-96.71C222.72,-86.44 251.03,-71.95 263,-69.21 315.1,-57.28 330.27,-62.18 383.25,-69.21 392.44,-70.43 402.13,-72.5 411.28,-74.85"/>
<polygon fill="#63b8ff" stroke="#63b8ff" points="410.08,-78.15 420.65,-77.4 411.92,-71.39 410.08,-78.15"/>
</a>
</g>
</g>
<!-- Node10 -->
<g id="Node000010" class="node">
<title>Node10</title>
<g id="a_Node000010"><a xlink:href="sdcard_8c.html#a5afd6e264210d197c43e84b5e7dd8856" target="_top" xlink:title="Libera uma cadeia de clusters na tabela FAT, marcando&#45;os como disponíveis.">
<polygon fill="white" stroke="#666666" points="369.75,-98.21 276.5,-98.21 276.5,-78.21 369.75,-78.21 369.75,-98.21"/>
<text xml:space="preserve" text-anchor="middle" x="323.12" y="-84.71" font-family="Helvetica,sans-Serif" font-size="10.00">sd_fat_free_chain</text>
</a>
</g>
</g>
<!-- Node6&#45;&gt;Node10 -->
<g id="edge13_Node000006_Node000010" class="edge">
<title>Node6&#45;&gt;Node10</title>
<g id="a_edge13_Node000006_Node000010"><a xlink:title=" ">
<path fill="none" stroke="#63b8ff" d="M221.65,-102.07C235.05,-100.22 250.48,-98.09 265.17,-96.06"/>
<polygon fill="#63b8ff" stroke="#63b8ff" points="265.28,-99.58 274.71,-94.75 264.33,-92.65 265.28,-99.58"/>
</a>
</g>
</g>
<!-- Node7&#45;&gt;Node4 -->
<g id="edge9_Node000007_Node000004" class="edge">
<title>Node7&#45;&gt;Node4</title>
<g id="a_edge9_Node000007_Node000004"><a xlink:title=" ">
<path fill="none" stroke="#63b8ff" d="M487.14,-98.62C499.16,-102.09 513.08,-105.5 526,-107.21 566.7,-112.61 613.36,-112.15 647.54,-110.6"/>
<polygon fill="#63b8ff" stroke="#63b8ff" points="647.31,-114.12 657.12,-110.12 646.95,-107.13 647.31,-114.12"/>
</a>
</g>
</g>
<!-- Node8 -->
<g id="Node000008" class="node">
<title>Node8</title>
<g id="a_Node000008"><a xlink:href="sdcard_8c.html#afcdb9112d386e92b29ad0cac9f5fc277" target="_top" xlink:title="Obtém o status atual do cartão SD (comando CMD13).">
<polygon fill="white" stroke="#666666" points="613.25,-98.21 535.75,-98.21 535.75,-78.21 613.25,-78.21 613.25,-98.21"/>
<text xml:space="preserve" text-anchor="middle" x="574.5" y="-84.71" font-family="Helvetica,sans-Serif" font-size="10.00">sd_get_status</text>
</a>
</g>
</g>
<!-- Node7&#45;&gt;Node8 -->
<g id="edge10_Node000007_Node000008" class="edge">
<title>Node7&#45;&gt;Node8</title>
<g id="a_edge10_Node000007_Node000008"><a xlink:title=" ">
<path fill="none" stroke="#63b8ff" d="M490.35,-88.21C500.84,-88.21 512.56,-88.21 523.82,-88.21"/>
<polygon fill="#63b8ff" stroke="#63b8ff" points="523.8,-91.71 533.8,-88.21 523.8,-84.71 523.8,-91.71"/>
</a>
</g>
</g>
<!-- Node9 -->
<g id="Node000009" class="node">
<title>Node9</title>
<g id="a_Node000009"><a xlink:href="sdcard_8c.html#a8c2c0ebbeee0d06d43335bc9df4b3142" target="_top" xlink:title="Aguarda o cartão sair do estado de ocupado (busy).">
<polygon fill="white" stroke="#666666" points="623,-60.21 526,-60.21 526,-40.21 623,-40.21 623,-60.21"/>
<text xml:space="preserve" text-anchor="middle" x="574.5" y="-46.71" font-family="Helvetica,sans-Serif" font-size="10.00">sd_spi_wait_ready</text>
</a>
</g>
</g>
<!-- Node7&#45;&gt;Node9 -->
<g id="edge12_Node000007_Node000009" class="edge">
<title>Node7&#45;&gt;Node9</title>
<g id="a_edge12_Node000007_Node000009"><a xlink:title=" ">
<path fill="none" stroke="#63b8ff" d="M488.15,-77.72C501.16,-73.53 516.34,-68.64 530.26,-64.15"/>
<polygon fill="#63b8ff" stroke="#63b8ff" points="531.2,-67.52 539.64,-61.12 529.05,-60.86 531.2,-67.52"/>
</a>
</g>
</g>
<!-- Node8&#45;&gt;Node4 -->
<g id="edge11_Node000008_Node000004" class="edge">
<title>Node8&#45;&gt;Node4</title>
<g id="a_edge11_Node000008_Node000004"><a xlink:title=" ">
<path fill="none" stroke="#63b8ff" d="M613.75,-94.22C624.54,-95.92 636.42,-97.79 647.73,-99.56"/>
<polygon fill="#63b8ff" stroke="#63b8ff" points="646.87,-102.97 657.3,-101.07 647.96,-96.06 646.87,-102.97"/>
</a>
</g>
</g>
<!-- Node10&#45;&gt;Node3 -->
<g id="edge14_Node000010_Node000003" class="edge">
<title>Node10&#45;&gt;Node3</title>
<g id="a_edge14_Node000010_Node000003"><a xlink:title=" ">
<path fill="none" stroke="#63b8ff" d="M353.97,-98.64C363.56,-102.43 374.07,-107.06 383.25,-112.21 401.12,-122.23 419.7,-136.12 433.27,-147.03"/>
<polygon fill="#63b8ff" stroke="#63b8ff" points="430.68,-149.43 440.63,-153.06 435.11,-144.02 430.68,-149.43"/>
</a>
</g>
</g>
<!-- Node10&#45;&gt;Node7 -->
<g id="edge15_Node000010_Node000007" class="edge">
<title>Node10&#45;&gt;Node7</title>
<g id="a_edge15_Node000010_Node000007"><a xlink:title=" ">
<path fill="none" stroke="#63b8ff" d="M370.15,-88.21C382.38,-88.21 395.58,-88.21 407.8,-88.21"/>
<polygon fill="#63b8ff" stroke="#63b8ff" points="407.64,-91.71 417.64,-88.21 407.64,-84.71 407.64,-91.71"/>
</a>
</g>
</g>
<!-- Node11&#45;&gt;Node4 -->
<g id="edge18_Node000011_Node000004" class="edge">
<title>Node11&#45;&gt;Node4</title>
<g id="a_edge18_Node000011_Node000004"><a xlink:title=" ">
<path fill="none" stroke="#63b8ff" d="M376.59,-4.52C438.54,2.14 543.25,5.68 623,-31.21 649.14,-43.3 670.82,-69.16 683.68,-87.34"/>
<polygon fill="#63b8ff" stroke="#63b8ff" points="680.7,-89.18 689.19,-95.51 686.5,-85.26 680.7,-89.18"/>
</a>
</g>
</g>
</g>
</svg>
