<?xml version="1.0" encoding="UTF-8" standalone="no"?>
<!DOCTYPE svg PUBLIC "-//W3C//DTD SVG 1.1//EN"
 "http://www.w3.org/Graphics/SVG/1.1/DTD/svg11.dtd">
<!-- Generated by graphviz version 14.1.4 (20260321.0153)
 -->
<!-- Title: registrar_dado_com_rotacao Pages: 1 -->
<svg width="1243pt" height="616pt"
 viewBox="0.00 0.00 1243.00 616.00" xmlns="http://www.w3.org/2000/svg" xmlns:xlink="http://www.w3.org/1999/xlink">
<g id="graph0" class="graph" transform="scale(1 1) rotate(0) translate(4 611.97)">
<title>registrar_dado_com_rotacao</title>
<!-- Node1 -->
<g id="Node000001" class="node">
<title>Node1</title>
<g id="a_Node000001"><a xlink:title="Formata e grava um registro CSV com data, hora e 4 sensores.">
<polygon fill="#999999" stroke="#666666" points="101.5,-422.06 0,-422.06 0,-390.06 101.5,-390.06 101.5,-422.06"/>
<text xml:space="preserve" text-anchor="start" x="8" y="-408.56" font-family="Helvetica,sans-Serif" font-size="10.00">registrar_dado_com</text>
<text xml:space="preserve" text-anchor="middle" x="50.75" y="-396.56" font-family="Helvetica,sans-Serif" font-size="10.00">_rotacao</text>
</a>
</g>
</g>
<!-- Node2 -->
<g id="Node000002" class="node">
<title>Node2</title>
<g id="a_Node000002"><a xlink:href="exemplo__3_8c.html#a71f1a2293174059d753ba1816e7df0e2" target="_top" xlink:title="Callback que fornece os dados formatados para a biblioteca SD.">
<polygon fill="white" stroke="#666666" points="265.62,-492.06 141.62,-492.06 141.62,-472.06 265.62,-472.06 265.62,-492.06"/>
<text xml:space="preserve" text-anchor="middle" x="203.62" y="-478.56" font-family="Helvetica,sans-Serif" font-size="10.00">callback_escrita_rotacao</text>
</a>
</g>
</g>
<!-- Node1&#45;&gt;Node2 -->
<g id="edge1_Node000001_Node000002" class="edge">
<title>Node1&#45;&gt;Node2</title>
<g id="a_edge1_Node000001_Node000002"><a xlink:title=" ">
<path fill="none" stroke="#63b8ff" d="M75.82,-422.37C92.63,-433.34 115.86,-447.63 137.5,-458.06 144.66,-461.51 152.45,-464.78 160.07,-467.72"/>
<polygon fill="#63b8ff" stroke="#63b8ff" points="158.64,-470.92 169.23,-471.13 161.08,-464.36 158.64,-470.92"/>
</a>
</g>
</g>
<!-- Node3 -->
<g id="Node000003" class="node">
<title>Node3</title>
<g id="a_Node000003"><a xlink:href="exemplo__3_8c.html#a1888a7d50f8090bc2f0c577e2ce4074f" target="_top" xlink:title="Localiza ou cria o volume de log adequado no cartão.">
<polygon fill="white" stroke="#666666" points="269.75,-416.06 137.5,-416.06 137.5,-396.06 269.75,-396.06 269.75,-416.06"/>
<text xml:space="preserve" text-anchor="middle" x="203.62" y="-402.56" font-family="Helvetica,sans-Serif" font-size="10.00">gerenciar_proximo_volume</text>
</a>
</g>
</g>
<!-- Node1&#45;&gt;Node3 -->
<g id="edge2_Node000001_Node000003" class="edge">
<title>Node1&#45;&gt;Node3</title>
<g id="a_edge2_Node000001_Node000003"><a xlink:title=" ">
<path fill="none" stroke="#63b8ff" d="M101.99,-406.06C109.62,-406.06 117.64,-406.06 125.69,-406.06"/>
<polygon fill="#63b8ff" stroke="#63b8ff" points="125.52,-409.56 135.52,-406.06 125.52,-402.56 125.52,-409.56"/>
</a>
</g>
</g>
<!-- Node18 -->
<g id="Node000018" class="node">
<title>Node18</title>
<g id="a_Node000018"><a xlink:href="sdcard_8c.html#a62fe3cc3e143e0df2bd0bc2c8badc78a" target="_top" xlink:title="Obtém tamanho do arquivo.">
<polygon fill="white" stroke="#666666" points="407.25,-454.06 320.75,-454.06 320.75,-434.06 407.25,-434.06 407.25,-454.06"/>
<text xml:space="preserve" text-anchor="middle" x="364" y="-440.56" font-family="Helvetica,sans-Serif" font-size="10.00">sd_file_get_size</text>
</a>
</g>
</g>
<!-- Node1&#45;&gt;Node18 -->
<g id="edge45_Node000001_Node000018" class="edge">
<title>Node1&#45;&gt;Node18</title>
<g id="a_edge45_Node000001_Node000018"><a xlink:title=" ">
<path fill="none" stroke="#63b8ff" d="M101.87,-418.35C113.51,-420.87 125.89,-423.3 137.5,-425.06 195.74,-433.93 263.12,-438.93 308.95,-441.55"/>
<polygon fill="#63b8ff" stroke="#63b8ff" points="308.72,-445.04 318.9,-442.09 309.1,-438.05 308.72,-445.04"/>
</a>
</g>
</g>
<!-- Node19 -->
<g id="Node000019" class="node">
<title>Node19</title>
<g id="a_Node000019"><a xlink:href="sdcard_8c.html#af2ad3468d37d6d256e022bafa756ac32" target="_top" xlink:title="Converte uma string convencional para o formato FAT 8.3.">
<polygon fill="white" stroke="#666666" points="407.62,-207.06 320.38,-207.06 320.38,-187.06 407.62,-187.06 407.62,-207.06"/>
<text xml:space="preserve" text-anchor="middle" x="364" y="-193.56" font-family="Helvetica,sans-Serif" font-size="10.00">sd_set_filename</text>
</a>
</g>
</g>
<!-- Node1&#45;&gt;Node19 -->
<g id="edge46_Node000001_Node000019" class="edge">
<title>Node1&#45;&gt;Node19</title>
<g id="a_edge46_Node000001_Node000019"><a xlink:title=" ">
<path fill="none" stroke="#63b8ff" d="M69.18,-389.82C108.51,-353.9 208.37,-266.93 305.75,-216.06 308.76,-214.49 311.93,-213.01 315.17,-211.62"/>
<polygon fill="#63b8ff" stroke="#63b8ff" points="316.19,-214.98 324.22,-208.08 313.63,-208.47 316.19,-214.98"/>
</a>
</g>
</g>
<!-- Node20 -->
<g id="Node000020" class="node">
<title>Node20</title>
<g id="a_Node000020"><a xlink:href="sdcard_8c.html#a3cb6e9bbb79a21ebf8cf7357ed262726" target="_top" xlink:title="Adiciona dados ao final de um arquivo, expandindo clusters se necessário.">
<polygon fill="white" stroke="#666666" points="422.25,-378.06 305.75,-378.06 305.75,-358.06 422.25,-358.06 422.25,-378.06"/>
<text xml:space="preserve" text-anchor="middle" x="364" y="-364.56" font-family="Helvetica,sans-Serif" font-size="10.00">sd_file_append_stream</text>
</a>
</g>
</g>
<!-- Node1&#45;&gt;Node20 -->
<g id="edge32_Node000001_Node000020" class="edge">
<title>Node1&#45;&gt;Node20</title>
<g id="a_edge32_Node000001_Node000020"><a xlink:title=" ">
<path fill="none" stroke="#63b8ff" d="M101.87,-393.78C113.51,-391.25 125.89,-388.83 137.5,-387.06 189.67,-379.12 249.16,-374.28 293.94,-371.48"/>
<polygon fill="#63b8ff" stroke="#63b8ff" points="294.01,-374.98 303.78,-370.88 293.58,-367.99 294.01,-374.98"/>
</a>
</g>
</g>
<!-- Node4 -->
<g id="Node000004" class="node">
<title>Node4</title>
<g id="a_Node000004"><a xlink:href="sdcard_8c.html#a5228ed5a829330c001b1614c8476236c" target="_top" xlink:title="Cria um novo arquivo no diretorio raiz com expansao de cluster.">
<polygon fill="white" stroke="#666666" points="402.38,-245.06 325.62,-245.06 325.62,-225.06 402.38,-225.06 402.38,-245.06"/>
<text xml:space="preserve" text-anchor="middle" x="364" y="-231.56" font-family="Helvetica,sans-Serif" font-size="10.00">sd_file_create</text>
</a>
</g>
</g>
<!-- Node3&#45;&gt;Node4 -->
<g id="edge3_Node000003_Node000004" class="edge">
<title>Node3&#45;&gt;Node4</title>
<g id="a_edge3_Node000003_Node000004"><a xlink:title=" ">
<path fill="none" stroke="#63b8ff" d="M214.29,-395.62C240.42,-367.41 312.7,-289.38 345.91,-253.52"/>
<polygon fill="#63b8ff" stroke="#63b8ff" points="348.2,-256.19 352.43,-246.48 343.07,-251.43 348.2,-256.19"/>
</a>
</g>
</g>
<!-- Node16 -->
<g id="Node000016" class="node">
<title>Node16</title>
<g id="a_Node000016"><a xlink:href="sdcard_8c.html#a6bb4db7466137c6d4346e2264d403230" target="_top" xlink:title="Verifica se arquivo existe.">
<polygon fill="white" stroke="#666666" points="402,-416.06 326,-416.06 326,-396.06 402,-396.06 402,-416.06"/>
<text xml:space="preserve" text-anchor="middle" x="364" y="-402.56" font-family="Helvetica,sans-Serif" font-size="10.00">sd_file_exists</text>
</a>
</g>
</g>
<!-- Node3&#45;&gt;Node16 -->
<g id="edge25_Node000003_Node000016" class="edge">
<title>Node3&#45;&gt;Node16</title>
<g id="a_edge25_Node000003_Node000016"><a xlink:title=" ">
<path fill="none" stroke="#63b8ff" d="M269.96,-406.06C284.87,-406.06 300.46,-406.06 314.52,-406.06"/>
<polygon fill="#63b8ff" stroke="#63b8ff" points="314.4,-409.56 324.4,-406.06 314.4,-402.56 314.4,-409.56"/>
</a>
</g>
</g>
<!-- Node3&#45;&gt;Node18 -->
<g id="edge29_Node000003_Node000018" class="edge">
<title>Node3&#45;&gt;Node18</title>
<g id="a_edge29_Node000003_Node000018"><a xlink:title=" ">
<path fill="none" stroke="#63b8ff" d="M248.32,-416.55C267.16,-421.07 289.38,-426.4 309.22,-431.16"/>
<polygon fill="#63b8ff" stroke="#63b8ff" points="308.26,-434.53 318.8,-433.46 309.89,-427.72 308.26,-434.53"/>
</a>
</g>
</g>
<!-- Node3&#45;&gt;Node19 -->
<g id="edge31_Node000003_Node000019" class="edge">
<title>Node3&#45;&gt;Node19</title>
<g id="a_edge31_Node000003_Node000019"><a xlink:title=" ">
<path fill="none" stroke="#63b8ff" d="M210.49,-395.62C222.03,-374.98 248.45,-327.48 269.75,-287.06 286.24,-255.76 278.94,-239.15 305.75,-216.06 307.2,-214.82 308.73,-213.65 310.32,-212.57"/>
<polygon fill="#63b8ff" stroke="#63b8ff" points="311.7,-215.81 318.71,-207.86 308.27,-209.7 311.7,-215.81"/>
</a>
</g>
</g>
<!-- Node4&#45;&gt;Node4 -->
<g id="edge24_Node000004_Node000004" class="edge">
<title>Node4&#45;&gt;Node4</title>
<g id="a_edge24_Node000004_Node000004"><a xlink:title=" ">
<path fill="none" stroke="#63b8ff" d="M338.76,-245.4C327.97,-254.04 336.38,-263.06 364,-263.06 379.1,-263.06 388.46,-260.36 392.08,-256.51"/>
<polygon fill="#63b8ff" stroke="#63b8ff" points="395.48,-255.69 389.62,-246.87 388.7,-257.42 395.48,-255.69"/>
</a>
</g>
</g>
<!-- Node5 -->
<g id="Node000005" class="node">
<title>Node5</title>
<g id="a_Node000005"><a xlink:href="sdcard_8c.html#acd7b26d07ec9452df93bb131bbcb4feb" target="_top" xlink:title="Converte componentes de data para o formato FAT (16 bits). Formato: yyyyyyymmmmddddd (ano desde 1980)...">
<polygon fill="white" stroke="#666666" points="573.62,-93.06 472.12,-93.06 472.12,-73.06 573.62,-73.06 573.62,-93.06"/>
<text xml:space="preserve" text-anchor="middle" x="522.88" y="-79.56" font-family="Helvetica,sans-Serif" font-size="10.00">_sd_make_fat_date</text>
</a>
</g>
</g>
<!-- Node4&#45;&gt;Node5 -->
<g id="edge4_Node000004_Node000005" class="edge">
<title>Node4&#45;&gt;Node5</title>
<g id="a_edge4_Node000004_Node000005"><a xlink:title=" ">
<path fill="none" stroke="#63b8ff" d="M402.66,-228.11C409.87,-225.34 416.85,-221.47 422.25,-216.06 458.3,-179.96 422.93,-143.88 458.25,-107.06 461.2,-103.98 464.59,-101.3 468.23,-98.95"/>
<polygon fill="#63b8ff" stroke="#63b8ff" points="469.85,-102.05 476.99,-94.23 466.53,-95.89 469.85,-102.05"/>
</a>
</g>
</g>
<!-- Node6 -->
<g id="Node000006" class="node">
<title>Node6</title>
<g id="a_Node000006"><a xlink:href="sdcard_8c.html#ab9a99a1bb2c8bfaf686c5272fd5190ba" target="_top" xlink:title="Converte componentes de tempo para o formato FAT (16 bits). Formato: hhhhhmmmmmmsssss (segundos são d...">
<polygon fill="white" stroke="#666666" points="573.62,-55.06 472.12,-55.06 472.12,-35.06 573.62,-35.06 573.62,-55.06"/>
<text xml:space="preserve" text-anchor="middle" x="522.88" y="-41.56" font-family="Helvetica,sans-Serif" font-size="10.00">_sd_make_fat_time</text>
</a>
</g>
</g>
<!-- Node4&#45;&gt;Node6 -->
<g id="edge5_Node000004_Node000006" class="edge">
<title>Node4&#45;&gt;Node6</title>
<g id="a_edge5_Node000004_Node000006"><a xlink:title=" ">
<path fill="none" stroke="#63b8ff" d="M402.73,-228.57C410.02,-225.78 417.02,-221.78 422.25,-216.06 469.14,-164.86 410.59,-114.55 458.25,-64.06 459.44,-62.81 460.7,-61.63 462.04,-60.53"/>
<polygon fill="#63b8ff" stroke="#63b8ff" points="463.86,-63.52 470.37,-55.16 460.07,-57.63 463.86,-63.52"/>
</a>
</g>
</g>
<!-- Node7 -->
<g id="Node000007" class="node">
<title>Node7</title>
<g id="a_Node000007"><a xlink:href="sdcard_8c.html#aba9c8b9a5590e13424ab4a69280f0c1d" target="_top" xlink:title="Lê um único bloco de 512 bytes do cartão (LBA).">
<polygon fill="white" stroke="#666666" points="988.38,-359.06 919.88,-359.06 919.88,-339.06 988.38,-339.06 988.38,-359.06"/>
<text xml:space="preserve" text-anchor="middle" x="954.12" y="-345.56" font-family="Helvetica,sans-Serif" font-size="10.00">sd_blk_read</text>
</a>
</g>
</g>
<!-- Node4&#45;&gt;Node7 -->
<g id="edge6_Node000004_Node000007" class="edge">
<title>Node4&#45;&gt;Node7</title>
<g id="a_edge6_Node000004_Node000007"><a xlink:title=" ">
<path fill="none" stroke="#63b8ff" d="M402.85,-225.55C419.69,-221.79 439.84,-217.92 458.25,-216.06 647.65,-196.96 717.46,-178.64 882.75,-273.06 906.9,-286.86 927.55,-311.72 940.12,-329.24"/>
<polygon fill="#63b8ff" stroke="#63b8ff" points="937.14,-331.08 945.69,-337.33 942.9,-327.11 937.14,-331.08"/>
</a>
</g>
</g>
<!-- Node9 -->
<g id="Node000009" class="node">
<title>Node9</title>
<g id="a_Node000009"><a xlink:href="sdcard_8c.html#ac6d558621f33abf80f245adb3d0f4e67" target="_top" xlink:title="Escreve um único bloco de 512 bytes.">
<polygon fill="white" stroke="#666666" points="989.5,-235.06 918.75,-235.06 918.75,-215.06 989.5,-215.06 989.5,-235.06"/>
<text xml:space="preserve" text-anchor="middle" x="954.12" y="-221.56" font-family="Helvetica,sans-Serif" font-size="10.00">sd_blk_write</text>
</a>
</g>
</g>
<!-- Node4&#45;&gt;Node9 -->
<g id="edge8_Node000004_Node000009" class="edge">
<title>Node4&#45;&gt;Node9</title>
<g id="a_edge8_Node000004_Node000009"><a xlink:title=" ">
<path fill="none" stroke="#63b8ff" d="M402.63,-228.86C410.02,-226.05 417.08,-221.97 422.25,-216.06 478.84,-151.38 392.06,-80.89 458.25,-26.06 547.87,48.17 813.57,-54.43 882.75,-107.06 915.67,-132.11 936.29,-177.38 946.16,-203.98"/>
<polygon fill="#63b8ff" stroke="#63b8ff" points="942.82,-205.04 949.44,-213.31 949.43,-202.72 942.82,-205.04"/>
</a>
</g>
</g>
<!-- Node12 -->
<g id="Node000012" class="node">
<title>Node12</title>
<g id="a_Node000012"><a xlink:href="sdcard_8c.html#a6dcdbe623e720ed71f92e745c440db85" target="_top" xlink:title="Expande o diretorio alocando um novo cluster.">
<polygon fill="white" stroke="#666666" points="575.88,-245.06 469.88,-245.06 469.88,-225.06 575.88,-225.06 575.88,-245.06"/>
<text xml:space="preserve" text-anchor="middle" x="522.88" y="-231.56" font-family="Helvetica,sans-Serif" font-size="10.00">sd_expand_directory</text>
</a>
</g>
</g>
<!-- Node4&#45;&gt;Node12 -->
<g id="edge13_Node000004_Node000012" class="edge">
<title>Node4&#45;&gt;Node12</title>
<g id="a_edge13_Node000004_Node000012"><a xlink:title=" ">
<path fill="none" stroke="#63b8ff" d="M402.58,-235.06C419.24,-235.06 439.33,-235.06 458.22,-235.06"/>
<polygon fill="#63b8ff" stroke="#63b8ff" points="457.97,-238.56 467.97,-235.06 457.97,-231.56 457.97,-238.56"/>
</a>
</g>
</g>
<!-- Node15 -->
<g id="Node000015" class="node">
<title>Node15</title>
<g id="a_Node000015"><a xlink:href="sdcard_8c.html#a7b0d2ab1fae193461c611a4f2e6c9245" target="_top" xlink:title="Obtém o próximo cluster na tabela FAT.">
<polygon fill="white" stroke="#666666" points="882.75,-435.06 762.5,-435.06 762.5,-415.06 882.75,-415.06 882.75,-435.06"/>
<text xml:space="preserve" text-anchor="middle" x="822.62" y="-421.56" font-family="Helvetica,sans-Serif" font-size="10.00">sd_fat_get_next_cluster</text>
</a>
</g>
</g>
<!-- Node4&#45;&gt;Node15 -->
<g id="edge23_Node000004_Node000015" class="edge">
<title>Node4&#45;&gt;Node15</title>
<g id="a_edge23_Node000004_Node000015"><a xlink:title=" ">
<path fill="none" stroke="#63b8ff" d="M370.53,-245.28C383.1,-267.53 416.03,-320.66 458.25,-349.06 546.93,-408.73 673.21,-422.99 751.16,-425.63"/>
<polygon fill="#63b8ff" stroke="#63b8ff" points="750.69,-429.11 760.79,-425.89 750.89,-422.12 750.69,-429.11"/>
</a>
</g>
</g>
<!-- Node8 -->
<g id="Node000008" class="node">
<title>Node8</title>
<g id="a_Node000008"><a xlink:href="sdcard_8c.html#aae1cfbcba5f92f4639e23fd8ed8fa3c0" target="_top" xlink:title="Envia um comando SPI para o cartão SD e aguarda resposta R1.">
<polygon fill="white" stroke="#666666" points="1235.25,-292.06 1158.5,-292.06 1158.5,-272.06 1235.25,-272.06 1235.25,-292.06"/>
<text xml:space="preserve" text-anchor="middle" x="1196.88" y="-278.56" font-family="Helvetica,sans-Serif" font-size="10.00">sd_cmd_send</text>
</a>
</g>
</g>
<!-- Node7&#45;&gt;Node8 -->
<g id="edge7_Node000007_Node000008" class="edge">
<title>Node7&#45;&gt;Node8</title>
<g id="a_edge7_Node000007_Node000008"><a xlink:title=" ">
<path fill="none" stroke="#63b8ff" d="M988.85,-339.68C1030.19,-328.17 1100.51,-308.6 1147.58,-295.5"/>
<polygon fill="#63b8ff" stroke="#63b8ff" points="1148.26,-298.95 1156.96,-292.89 1146.39,-292.2 1148.26,-298.95"/>
</a>
</g>
</g>
<!-- Node9&#45;&gt;Node8 -->
<g id="edge9_Node000009_Node000008" class="edge">
<title>Node9&#45;&gt;Node8</title>
<g id="a_edge9_Node000009_Node000008"><a xlink:title=" ">
<path fill="none" stroke="#63b8ff" d="M970.29,-235.49C984.05,-244.39 1005.22,-256.72 1025.5,-263.06 1065.18,-275.47 1112.3,-280 1146.91,-281.55"/>
<polygon fill="#63b8ff" stroke="#63b8ff" points="1146.5,-285.03 1156.63,-281.91 1146.77,-278.04 1146.5,-285.03"/>
</a>
</g>
</g>
<!-- Node10 -->
<g id="Node000010" class="node">
<title>Node10</title>
<g id="a_Node000010"><a xlink:href="sdcard_8c.html#afcdb9112d386e92b29ad0cac9f5fc277" target="_top" xlink:title="Obtém o status atual do cartão SD (comando CMD13).">
<polygon fill="white" stroke="#666666" points="1112.75,-216.06 1035.25,-216.06 1035.25,-196.06 1112.75,-196.06 1112.75,-216.06"/>
<text xml:space="preserve" text-anchor="middle" x="1074" y="-202.56" font-family="Helvetica,sans-Serif" font-size="10.00">sd_get_status</text>
</a>
</g>
</g>
<!-- Node9&#45;&gt;Node10 -->
<g id="edge10_Node000009_Node000010" class="edge">
<title>Node9&#45;&gt;Node10</title>
<g id="a_edge10_Node000009_Node000010"><a xlink:title=" ">
<path fill="none" stroke="#63b8ff" d="M989.85,-219.46C1000.45,-217.76 1012.31,-215.85 1023.67,-214.01"/>
<polygon fill="#63b8ff" stroke="#63b8ff" points="1024,-217.51 1033.32,-212.46 1022.89,-210.6 1024,-217.51"/>
</a>
</g>
</g>
<!-- Node11 -->
<g id="Node000011" class="node">
<title>Node11</title>
<g id="a_Node000011"><a xlink:href="sdcard_8c.html#a8c2c0ebbeee0d06d43335bc9df4b3142" target="_top" xlink:title="Aguarda o cartão sair do estado de ocupado (busy).">
<polygon fill="white" stroke="#666666" points="1122.5,-254.06 1025.5,-254.06 1025.5,-234.06 1122.5,-234.06 1122.5,-254.06"/>
<text xml:space="preserve" text-anchor="middle" x="1074" y="-240.56" font-family="Helvetica,sans-Serif" font-size="10.00">sd_spi_wait_ready</text>
</a>
</g>
</g>
<!-- Node9&#45;&gt;Node11 -->
<g id="edge12_Node000009_Node000011" class="edge">
<title>Node9&#45;&gt;Node11</title>
<g id="a_edge12_Node000009_Node000011"><a xlink:title=" ">
<path fill="none" stroke="#63b8ff" d="M989.85,-230.66C997.51,-231.89 1005.83,-233.24 1014.14,-234.58"/>
<polygon fill="#63b8ff" stroke="#63b8ff" points="1013.49,-238.02 1023.92,-236.15 1014.61,-231.11 1013.49,-238.02"/>
</a>
</g>
</g>
<!-- Node10&#45;&gt;Node8 -->
<g id="edge11_Node000010_Node000008" class="edge">
<title>Node10&#45;&gt;Node8</title>
<g id="a_edge11_Node000010_Node000008"><a xlink:title=" ">
<path fill="none" stroke="#63b8ff" d="M1104.74,-216.47C1110.77,-218.99 1116.95,-221.88 1122.5,-225.06 1142.02,-236.25 1162.04,-252.16 1176.23,-264.33"/>
<polygon fill="#63b8ff" stroke="#63b8ff" points="1173.68,-266.75 1183.51,-270.71 1178.29,-261.49 1173.68,-266.75"/>
</a>
</g>
</g>
<!-- Node12&#45;&gt;Node9 -->
<g id="edge14_Node000012_Node000009" class="edge">
<title>Node12&#45;&gt;Node9</title>
<g id="a_edge14_Node000012_Node000009"><a xlink:title=" ">
<path fill="none" stroke="#63b8ff" d="M576.08,-233.85C660.73,-231.87 826.56,-228.01 907.07,-226.14"/>
<polygon fill="#63b8ff" stroke="#63b8ff" points="906.89,-229.64 916.8,-225.91 906.72,-222.64 906.89,-229.64"/>
</a>
</g>
</g>
<!-- Node13 -->
<g id="Node000013" class="node">
<title>Node13</title>
<g id="a_Node000013"><a xlink:href="sdcard_8c.html#afa6b333a50132b6be29e88aa75fd90f1" target="_top" xlink:title="Aloca um cluster livre na FAT32 utilizando busca circular otimizada.">
<polygon fill="white" stroke="#666666" points="726.5,-359.06 623.5,-359.06 623.5,-339.06 726.5,-339.06 726.5,-359.06"/>
<text xml:space="preserve" text-anchor="middle" x="675" y="-345.56" font-family="Helvetica,sans-Serif" font-size="10.00">sd_fat_alloc_cluster</text>
</a>
</g>
</g>
<!-- Node12&#45;&gt;Node13 -->
<g id="edge15_Node000012_Node000013" class="edge">
<title>Node12&#45;&gt;Node13</title>
<g id="a_edge15_Node000012_Node000013"><a xlink:title=" ">
<path fill="none" stroke="#63b8ff" d="M537.46,-245.38C563.36,-265.05 620.04,-308.08 651.62,-332.07"/>
<polygon fill="#63b8ff" stroke="#63b8ff" points="649.27,-334.67 659.35,-337.94 653.5,-329.1 649.27,-334.67"/>
</a>
</g>
</g>
<!-- Node14 -->
<g id="Node000014" class="node">
<title>Node14</title>
<g id="a_Node000014"><a xlink:href="sdcard_8c.html#a144349126da9cc0bcd1dd34243989e98" target="_top" xlink:title="Atualiza uma entrada na Tabela de Alocação de Arquivos (FAT).">
<polygon fill="white" stroke="#666666" points="870.75,-302.06 774.5,-302.06 774.5,-282.06 870.75,-282.06 870.75,-302.06"/>
<text xml:space="preserve" text-anchor="middle" x="822.62" y="-288.56" font-family="Helvetica,sans-Serif" font-size="10.00">sd_fat_write_entry</text>
</a>
</g>
</g>
<!-- Node12&#45;&gt;Node14 -->
<g id="edge22_Node000012_Node000014" class="edge">
<title>Node12&#45;&gt;Node14</title>
<g id="a_edge22_Node000012_Node000014"><a xlink:title=" ">
<path fill="none" stroke="#63b8ff" d="M576.04,-238.13C617.28,-241.3 676.1,-247.48 726.5,-259.06 746.53,-263.67 768.23,-271 785.84,-277.59"/>
<polygon fill="#63b8ff" stroke="#63b8ff" points="784.22,-280.72 794.81,-281.03 786.72,-274.18 784.22,-280.72"/>
</a>
</g>
</g>
<!-- Node12&#45;&gt;Node15 -->
<g id="edge20_Node000012_Node000015" class="edge">
<title>Node12&#45;&gt;Node15</title>
<g id="a_edge20_Node000012_Node000015"><a xlink:title=" ">
<path fill="none" stroke="#63b8ff" d="M533.4,-245.52C546.27,-259.85 569.65,-286.59 587.5,-311.06 605.16,-335.27 599.54,-350.08 623.5,-368.06 644.99,-384.19 709.42,-401.01 759.04,-412.16"/>
<polygon fill="#63b8ff" stroke="#63b8ff" points="758.02,-415.52 768.54,-414.26 759.53,-408.68 758.02,-415.52"/>
</a>
</g>
</g>
<!-- Node13&#45;&gt;Node7 -->
<g id="edge16_Node000013_Node000007" class="edge">
<title>Node13&#45;&gt;Node7</title>
<g id="a_edge16_Node000013_Node000007"><a xlink:title=" ">
<path fill="none" stroke="#63b8ff" d="M726.83,-349.06C778.76,-349.06 858.63,-349.06 908.28,-349.06"/>
<polygon fill="#63b8ff" stroke="#63b8ff" points="908.09,-352.56 918.09,-349.06 908.09,-345.56 908.09,-352.56"/>
</a>
</g>
</g>
<!-- Node13&#45;&gt;Node14 -->
<g id="edge17_Node000013_Node000014" class="edge">
<title>Node13&#45;&gt;Node14</title>
<g id="a_edge17_Node000013_Node000014"><a xlink:title=" ">
<path fill="none" stroke="#63b8ff" d="M702.71,-338.61C725.7,-329.61 759.11,-316.53 784.67,-306.53"/>
<polygon fill="#63b8ff" stroke="#63b8ff" points="785.64,-309.91 793.68,-303 783.09,-303.39 785.64,-309.91"/>
</a>
</g>
</g>
<!-- Node14&#45;&gt;Node7 -->
<g id="edge18_Node000014_Node000007" class="edge">
<title>Node14&#45;&gt;Node7</title>
<g id="a_edge18_Node000014_Node000007"><a xlink:title=" ">
<path fill="none" stroke="#63b8ff" d="M847.38,-302.52C867.46,-311.36 896.47,-324.13 919.03,-334.06"/>
<polygon fill="#63b8ff" stroke="#63b8ff" points="917.58,-337.24 928.14,-338.06 920.4,-330.83 917.58,-337.24"/>
</a>
</g>
</g>
<!-- Node14&#45;&gt;Node9 -->
<g id="edge19_Node000014_Node000009" class="edge">
<title>Node14&#45;&gt;Node9</title>
<g id="a_edge19_Node000014_Node000009"><a xlink:title=" ">
<path fill="none" stroke="#63b8ff" d="M843.86,-281.59C865.05,-270.63 898.58,-253.29 922.91,-240.7"/>
<polygon fill="#63b8ff" stroke="#63b8ff" points="924.42,-243.86 931.69,-236.15 921.2,-237.64 924.42,-243.86"/>
</a>
</g>
</g>
<!-- Node15&#45;&gt;Node7 -->
<g id="edge21_Node000015_Node000007" class="edge">
<title>Node15&#45;&gt;Node7</title>
<g id="a_edge21_Node000015_Node000007"><a xlink:title=" ">
<path fill="none" stroke="#63b8ff" d="M841.36,-414.65C863.16,-401.86 900.37,-380.02 925.83,-365.08"/>
<polygon fill="#63b8ff" stroke="#63b8ff" points="927.45,-368.19 934.3,-360.11 923.9,-362.15 927.45,-368.19"/>
</a>
</g>
</g>
<!-- Node17 -->
<g id="Node000017" class="node">
<title>Node17</title>
<g id="a_Node000017"><a xlink:href="sdcard_8c.html#a3794ef278970bdb3d1d50b3f10fc4e9f" target="_top" xlink:title="Localiza a entrada de um arquivo no diretório raiz.">
<polygon fill="white" stroke="#666666" points="721.25,-549.06 628.75,-549.06 628.75,-529.06 721.25,-529.06 721.25,-549.06"/>
<text xml:space="preserve" text-anchor="middle" x="675" y="-535.56" font-family="Helvetica,sans-Serif" font-size="10.00">sd_find_file_entry</text>
</a>
</g>
</g>
<!-- Node16&#45;&gt;Node17 -->
<g id="edge26_Node000016_Node000017" class="edge">
<title>Node16&#45;&gt;Node17</title>
<g id="a_edge26_Node000016_Node000017"><a xlink:title=" ">
<path fill="none" stroke="#63b8ff" d="M402.25,-412.61C409.67,-415.4 416.83,-419.38 422.25,-425.06 463.06,-467.81 411.14,-517.38 458.25,-553.06 511.18,-593.16 593.99,-571.15 640.1,-553.73"/>
<polygon fill="#63b8ff" stroke="#63b8ff" points="641.29,-557.02 649.32,-550.1 638.73,-550.51 641.29,-557.02"/>
</a>
</g>
</g>
<!-- Node17&#45;&gt;Node7 -->
<g id="edge27_Node000017_Node000007" class="edge">
<title>Node17&#45;&gt;Node7</title>
<g id="a_edge27_Node000017_Node000007"><a xlink:title=" ">
<path fill="none" stroke="#63b8ff" d="M721.47,-546.05C766.84,-550.43 836.32,-549.82 882.75,-515.06 929.82,-479.82 945.7,-406.92 950.83,-370.6"/>
<polygon fill="#63b8ff" stroke="#63b8ff" points="954.27,-371.26 952.03,-360.9 947.32,-370.39 954.27,-371.26"/>
</a>
</g>
</g>
<!-- Node17&#45;&gt;Node15 -->
<g id="edge28_Node000017_Node000015" class="edge">
<title>Node17&#45;&gt;Node15</title>
<g id="a_edge28_Node000017_Node000015"><a xlink:title=" ">
<path fill="none" stroke="#63b8ff" d="M689.18,-528.74C714.2,-509.16 768.81,-466.41 799.52,-442.37"/>
<polygon fill="#63b8ff" stroke="#63b8ff" points="801.67,-445.13 807.39,-436.21 797.36,-439.62 801.67,-445.13"/>
</a>
</g>
</g>
<!-- Node18&#45;&gt;Node17 -->
<g id="edge30_Node000018_Node000017" class="edge">
<title>Node18&#45;&gt;Node17</title>
<g id="a_edge30_Node000018_Node000017"><a xlink:title=" ">
<path fill="none" stroke="#63b8ff" d="M367.8,-454.43C376.03,-482.66 403.17,-560.77 458.25,-591.06 508.59,-618.74 532.15,-606.42 587.5,-591.06 611.92,-584.29 636.35,-568.57 652.99,-556.18"/>
<polygon fill="#63b8ff" stroke="#63b8ff" points="654.85,-559.17 660.63,-550.29 650.58,-553.62 654.85,-559.17"/>
</a>
</g>
</g>
<!-- Node20&#45;&gt;Node7 -->
<g id="edge33_Node000020_Node000007" class="edge">
<title>Node20&#45;&gt;Node7</title>
<g id="a_edge33_Node000020_Node000007"><a xlink:title=" ">
<path fill="none" stroke="#63b8ff" d="M411.39,-378.55C415.43,-380.85 419.15,-383.65 422.25,-387.06 470.66,-440.38 403.76,-497.97 458.25,-545.06 548.56,-623.11 607.24,-563.02 726.5,-558.06 796.12,-555.17 827.47,-587.49 882.75,-545.06 938.26,-502.47 950.06,-412.27 952.51,-370.78"/>
<polygon fill="#63b8ff" stroke="#63b8ff" points="956.01,-371.01 952.95,-360.87 949.01,-370.7 956.01,-371.01"/>
</a>
</g>
</g>
<!-- Node20&#45;&gt;Node9 -->
<g id="edge34_Node000020_Node000009" class="edge">
<title>Node20&#45;&gt;Node9</title>
<g id="a_edge34_Node000020_Node000009"><a xlink:title=" ">
<path fill="none" stroke="#63b8ff" d="M371.13,-357.77C391.31,-323.92 454.62,-218.09 458.25,-216.06 607.1,-132.75 822.67,-184.06 911.98,-211.3"/>
<polygon fill="#63b8ff" stroke="#63b8ff" points="910.7,-214.57 921.29,-214.2 912.78,-207.88 910.7,-214.57"/>
</a>
</g>
</g>
<!-- Node20&#45;&gt;Node13 -->
<g id="edge35_Node000020_Node000013" class="edge">
<title>Node20&#45;&gt;Node13</title>
<g id="a_edge35_Node000020_Node000013"><a xlink:title=" ">
<path fill="none" stroke="#63b8ff" d="M422.4,-364.53C476.17,-361.23 556.33,-356.3 611.65,-352.9"/>
<polygon fill="#63b8ff" stroke="#63b8ff" points="611.78,-356.4 621.55,-352.29 611.35,-349.41 611.78,-356.4"/>
</a>
</g>
</g>
<!-- Node20&#45;&gt;Node14 -->
<g id="edge40_Node000020_Node000014" class="edge">
<title>Node20&#45;&gt;Node14</title>
<g id="a_edge40_Node000020_Node000014"><a xlink:title=" ">
<path fill="none" stroke="#63b8ff" d="M377.59,-357.57C394.65,-344.06 426.6,-321.12 458.25,-311.06 561.55,-278.25 689.6,-280.89 762.83,-286.19"/>
<polygon fill="#63b8ff" stroke="#63b8ff" points="762.35,-289.67 772.59,-286.95 762.89,-282.69 762.35,-289.67"/>
</a>
</g>
</g>
<!-- Node20&#45;&gt;Node15 -->
<g id="edge39_Node000020_Node000015" class="edge">
<title>Node20&#45;&gt;Node15</title>
<g id="a_edge39_Node000020_Node000015"><a xlink:title=" ">
<path fill="none" stroke="#63b8ff" d="M407.23,-378.55C412.56,-380.87 417.72,-383.67 422.25,-387.06 444.75,-403.91 433.35,-426.02 458.25,-439.06 563.88,-494.41 711.47,-460.46 781.58,-438.85"/>
<polygon fill="#63b8ff" stroke="#63b8ff" points="782.23,-442.32 790.71,-435.96 780.12,-435.65 782.23,-442.32"/>
</a>
</g>
</g>
<!-- Node20&#45;&gt;Node17 -->
<g id="edge44_Node000020_Node000017" class="edge">
<title>Node20&#45;&gt;Node17</title>
<g id="a_edge44_Node000020_Node000017"><a xlink:title=" ">
<path fill="none" stroke="#63b8ff" d="M410.97,-378.53C415.14,-380.83 419.01,-383.64 422.25,-387.06 464.32,-431.56 411.3,-480.75 458.25,-520.06 481.53,-539.56 561.31,-542.02 617.04,-541.18"/>
<polygon fill="#63b8ff" stroke="#63b8ff" points="617.09,-544.68 627.02,-540.98 616.95,-537.68 617.09,-544.68"/>
</a>
</g>
</g>
<!-- Node21 -->
<g id="Node000021" class="node">
<title>Node21</title>
<g id="a_Node000021"><a xlink:href="sdcard_8c.html#a7e010bc4f9f46359dcefc007d522f58a" target="_top" xlink:title="Aloca um novo cluster e o encadeia ao final de uma sequência existente.">
<polygon fill="white" stroke="#666666" points="587.5,-340.06 458.25,-340.06 458.25,-320.06 587.5,-320.06 587.5,-340.06"/>
<text xml:space="preserve" text-anchor="middle" x="522.88" y="-326.56" font-family="Helvetica,sans-Serif" font-size="10.00">sd_fat_chain_new_cluster</text>
</a>
</g>
</g>
<!-- Node20&#45;&gt;Node21 -->
<g id="edge36_Node000020_Node000021" class="edge">
<title>Node20&#45;&gt;Node21</title>
<g id="a_edge36_Node000020_Node000021"><a xlink:title=" ">
<path fill="none" stroke="#63b8ff" d="M408.28,-357.58C426.63,-353.13 448.21,-347.91 467.61,-343.21"/>
<polygon fill="#63b8ff" stroke="#63b8ff" points="468.37,-346.63 477.26,-340.87 466.72,-339.82 468.37,-346.63"/>
</a>
</g>
</g>
<!-- Node22 -->
<g id="Node000022" class="node">
<title>Node22</title>
<g id="a_Node000022"><a xlink:href="sdcard_8c.html#afba53615c129e4e1a3ca0dd1c272ab11" target="_top" xlink:title=" ">
<polygon fill="white" stroke="#666666" points="574,-511.06 471.75,-511.06 471.75,-491.06 574,-491.06 574,-511.06"/>
<text xml:space="preserve" text-anchor="middle" x="522.88" y="-497.56" font-family="Helvetica,sans-Serif" font-size="10.00">sd_file_update_size</text>
</a>
</g>
</g>
<!-- Node20&#45;&gt;Node22 -->
<g id="edge41_Node000020_Node000022" class="edge">
<title>Node20&#45;&gt;Node22</title>
<g id="a_edge41_Node000020_Node000022"><a xlink:title=" ">
<path fill="none" stroke="#63b8ff" d="M409.72,-378.48C414.29,-380.79 418.59,-383.62 422.25,-387.06 453.61,-416.6 427.49,-446.9 458.25,-477.06 461.48,-480.23 465.16,-482.98 469.1,-485.38"/>
<polygon fill="#63b8ff" stroke="#63b8ff" points="467.43,-488.46 477.92,-489.93 470.64,-482.24 467.43,-488.46"/>
</a>
</g>
</g>
<!-- Node21&#45;&gt;Node13 -->
<g id="edge37_Node000021_Node000013" class="edge">
<title>Node21&#45;&gt;Node13</title>
<g id="a_edge37_Node000021_Node000013"><a xlink:title=" ">
<path fill="none" stroke="#63b8ff" d="M587.98,-338.18C595.9,-339.18 603.99,-340.2 611.89,-341.2"/>
<polygon fill="#63b8ff" stroke="#63b8ff" points="611.41,-344.67 621.77,-342.45 612.29,-337.72 611.41,-344.67"/>
</a>
</g>
</g>
<!-- Node21&#45;&gt;Node14 -->
<g id="edge38_Node000021_Node000014" class="edge">
<title>Node21&#45;&gt;Node14</title>
<g id="a_edge38_Node000021_Node000014"><a xlink:title=" ">
<path fill="none" stroke="#63b8ff" d="M587.75,-321.91C639.75,-315.27 712.55,-305.98 763.06,-299.54"/>
<polygon fill="#63b8ff" stroke="#63b8ff" points="763.46,-303.01 772.93,-298.28 762.57,-296.07 763.46,-303.01"/>
</a>
</g>
</g>
<!-- Node22&#45;&gt;Node9 -->
<g id="edge42_Node000022_Node000009" class="edge">
<title>Node22&#45;&gt;Node9</title>
<g id="a_edge42_Node000022_Node000009"><a xlink:title=" ">
<path fill="none" stroke="#63b8ff" d="M574.43,-508.66C651.12,-517.14 796.99,-520.87 882.75,-444.06 922.33,-408.61 902.48,-380.64 918.75,-330.06 928.12,-300.92 939.16,-267.32 946.16,-246.13"/>
<polygon fill="#63b8ff" stroke="#63b8ff" points="949.38,-247.51 949.2,-236.92 942.74,-245.32 949.38,-247.51"/>
</a>
</g>
</g>
<!-- Node22&#45;&gt;Node17 -->
<g id="edge43_Node000022_Node000017" class="edge">
<title>Node22&#45;&gt;Node17</title>
<g id="a_edge43_Node000022_Node000017"><a xlink:title=" ">
<path fill="none" stroke="#63b8ff" d="M565.29,-511.55C582.77,-515.97 603.31,-521.17 621.81,-525.85"/>
<polygon fill="#63b8ff" stroke="#63b8ff" points="620.7,-529.18 631.25,-528.24 622.41,-522.39 620.7,-529.18"/>
</a>
</g>
</g>
</g>
</svg>
