<?xml version="1.0" encoding="UTF-8" standalone="no"?>
<!DOCTYPE svg PUBLIC "-//W3C//DTD SVG 1.1//EN"
 "http://www.w3.org/Graphics/SVG/1.1/DTD/svg11.dtd">
<!-- Generated by graphviz version 14.1.4 (20260321.0153)
 -->
<!-- Title: carregar_parametros_boot Pages: 1 -->
<svg width="791pt" height="142pt"
 viewBox="0.00 0.00 791.00 142.00" xmlns="http://www.w3.org/2000/svg" xmlns:xlink="http://www.w3.org/1999/xlink">
<g id="graph0" class="graph" transform="scale(1 1) rotate(0) translate(4 138)">
<title>carregar_parametros_boot</title>
<!-- Node1 -->
<g id="Node000001" class="node">
<title>Node1</title>
<g id="a_Node000001"><a xlink:title="Localiza e processa o arquivo CONFIG.ini no cartão SD.">
<polygon fill="#999999" stroke="#666666" points="129.25,-77 0,-77 0,-57 129.25,-57 129.25,-77"/>
<text xml:space="preserve" text-anchor="middle" x="64.62" y="-63.5" font-family="Helvetica,sans-Serif" font-size="10.00">carregar_parametros_boot</text>
</a>
</g>
</g>
<!-- Node2 -->
<g id="Node000002" class="node">
<title>Node2</title>
<g id="a_Node000002"><a xlink:href="exemplo__4_8c.html#a95f3b940be7bd6926d8ef9532f3db2a3" target="_top" xlink:title="Callback chamado pela sd_file_read_stream para processar dados lidos.">
<polygon fill="white" stroke="#666666" points="281,-134 165.25,-134 165.25,-114 281,-114 281,-134"/>
<text xml:space="preserve" text-anchor="middle" x="223.12" y="-120.5" font-family="Helvetica,sans-Serif" font-size="10.00">callback_parser_config</text>
</a>
</g>
</g>
<!-- Node1&#45;&gt;Node2 -->
<g id="edge1_Node000001_Node000002" class="edge">
<title>Node1&#45;&gt;Node2</title>
<g id="a_edge1_Node000001_Node000002"><a xlink:title=" ">
<path fill="none" stroke="#63b8ff" d="M92.15,-77.47C112.16,-85.27 140.32,-96.09 165.25,-105 169.9,-106.66 174.77,-108.36 179.63,-110.02"/>
<polygon fill="#63b8ff" stroke="#63b8ff" points="178.13,-113.21 188.72,-113.1 180.37,-106.58 178.13,-113.21"/>
</a>
</g>
</g>
<!-- Node3 -->
<g id="Node000003" class="node">
<title>Node3</title>
<g id="a_Node000003"><a xlink:href="sdcard_8c.html#a6bb4db7466137c6d4346e2264d403230" target="_top" xlink:title="Verifica se arquivo existe.">
<polygon fill="white" stroke="#666666" points="261.12,-96 185.12,-96 185.12,-76 261.12,-76 261.12,-96"/>
<text xml:space="preserve" text-anchor="middle" x="223.12" y="-82.5" font-family="Helvetica,sans-Serif" font-size="10.00">sd_file_exists</text>
</a>
</g>
</g>
<!-- Node1&#45;&gt;Node3 -->
<g id="edge2_Node000001_Node000003" class="edge">
<title>Node1&#45;&gt;Node3</title>
<g id="a_edge2_Node000001_Node000003"><a xlink:title=" ">
<path fill="none" stroke="#63b8ff" d="M129.73,-74.78C144.37,-76.56 159.7,-78.42 173.56,-80.1"/>
<polygon fill="#63b8ff" stroke="#63b8ff" points="172.96,-83.56 183.31,-81.29 173.81,-76.61 172.96,-83.56"/>
</a>
</g>
</g>
<!-- Node8 -->
<g id="Node000008" class="node">
<title>Node8</title>
<g id="a_Node000008"><a xlink:href="sdcard_8c.html#a4c9e96825f9777aab8c8980c35310db6" target="_top" xlink:title="Lê o conteúdo de um arquivo em modo streaming via callback.">
<polygon fill="white" stroke="#666666" points="275,-58 171.25,-58 171.25,-38 275,-38 275,-58"/>
<text xml:space="preserve" text-anchor="middle" x="223.12" y="-44.5" font-family="Helvetica,sans-Serif" font-size="10.00">sd_file_read_stream</text>
</a>
</g>
</g>
<!-- Node1&#45;&gt;Node8 -->
<g id="edge8_Node000001_Node000008" class="edge">
<title>Node1&#45;&gt;Node8</title>
<g id="a_edge8_Node000001_Node000008"><a xlink:title=" ">
<path fill="none" stroke="#63b8ff" d="M129.73,-59.22C139.56,-58.02 149.7,-56.79 159.49,-55.6"/>
<polygon fill="#63b8ff" stroke="#63b8ff" points="159.79,-59.09 169.3,-54.41 158.95,-52.14 159.79,-59.09"/>
</a>
</g>
</g>
<!-- Node9 -->
<g id="Node000009" class="node">
<title>Node9</title>
<g id="a_Node000009"><a xlink:href="sdcard_8c.html#af2ad3468d37d6d256e022bafa756ac32" target="_top" xlink:title="Converte uma string convencional para o formato FAT 8.3.">
<polygon fill="white" stroke="#666666" points="266.75,-20 179.5,-20 179.5,0 266.75,0 266.75,-20"/>
<text xml:space="preserve" text-anchor="middle" x="223.12" y="-6.5" font-family="Helvetica,sans-Serif" font-size="10.00">sd_set_filename</text>
</a>
</g>
</g>
<!-- Node1&#45;&gt;Node9 -->
<g id="edge12_Node000001_Node000009" class="edge">
<title>Node1&#45;&gt;Node9</title>
<g id="a_edge12_Node000001_Node000009"><a xlink:title=" ">
<path fill="none" stroke="#63b8ff" d="M92.15,-56.53C112.16,-48.73 140.32,-37.91 165.25,-29 169.9,-27.34 174.77,-25.64 179.63,-23.98"/>
<polygon fill="#63b8ff" stroke="#63b8ff" points="180.37,-27.42 188.72,-20.9 178.13,-20.79 180.37,-27.42"/>
</a>
</g>
</g>
<!-- Node4 -->
<g id="Node000004" class="node">
<title>Node4</title>
<g id="a_Node000004"><a xlink:href="sdcard_8c.html#a3794ef278970bdb3d1d50b3f10fc4e9f" target="_top" xlink:title="Localiza a entrada de um arquivo no diretório raiz.">
<polygon fill="white" stroke="#666666" points="409.5,-96 317,-96 317,-76 409.5,-76 409.5,-96"/>
<text xml:space="preserve" text-anchor="middle" x="363.25" y="-82.5" font-family="Helvetica,sans-Serif" font-size="10.00">sd_find_file_entry</text>
</a>
</g>
</g>
<!-- Node3&#45;&gt;Node4 -->
<g id="edge3_Node000003_Node000004" class="edge">
<title>Node3&#45;&gt;Node4</title>
<g id="a_edge3_Node000003_Node000004"><a xlink:title=" ">
<path fill="none" stroke="#63b8ff" d="M261.5,-86C275.06,-86 290.71,-86 305.56,-86"/>
<polygon fill="#63b8ff" stroke="#63b8ff" points="305.2,-89.5 315.2,-86 305.2,-82.5 305.2,-89.5"/>
</a>
</g>
</g>
<!-- Node5 -->
<g id="Node000005" class="node">
<title>Node5</title>
<g id="a_Node000005"><a xlink:href="sdcard_8c.html#aba9c8b9a5590e13424ab4a69280f0c1d" target="_top" xlink:title="Lê um único bloco de 512 bytes do cartão (LBA).">
<polygon fill="white" stroke="#666666" points="670.25,-58 601.75,-58 601.75,-38 670.25,-38 670.25,-58"/>
<text xml:space="preserve" text-anchor="middle" x="636" y="-44.5" font-family="Helvetica,sans-Serif" font-size="10.00">sd_blk_read</text>
</a>
</g>
</g>
<!-- Node4&#45;&gt;Node5 -->
<g id="edge4_Node000004_Node000005" class="edge">
<title>Node4&#45;&gt;Node5</title>
<g id="a_edge4_Node000004_Node000005"><a xlink:title=" ">
<path fill="none" stroke="#63b8ff" d="M409.77,-83.97C450.82,-81.6 512.69,-76.7 565.75,-67 573.84,-65.52 582.37,-63.54 590.56,-61.42"/>
<polygon fill="#63b8ff" stroke="#63b8ff" points="591.26,-64.85 600,-58.86 589.43,-58.1 591.26,-64.85"/>
</a>
</g>
</g>
<!-- Node7 -->
<g id="Node000007" class="node">
<title>Node7</title>
<g id="a_Node000007"><a xlink:href="sdcard_8c.html#a7b0d2ab1fae193461c611a4f2e6c9245" target="_top" xlink:title="Obtém o próximo cluster na tabela FAT.">
<polygon fill="white" stroke="#666666" points="565.75,-58 445.5,-58 445.5,-38 565.75,-38 565.75,-58"/>
<text xml:space="preserve" text-anchor="middle" x="505.62" y="-44.5" font-family="Helvetica,sans-Serif" font-size="10.00">sd_fat_get_next_cluster</text>
</a>
</g>
</g>
<!-- Node4&#45;&gt;Node7 -->
<g id="edge6_Node000004_Node000007" class="edge">
<title>Node4&#45;&gt;Node7</title>
<g id="a_edge6_Node000004_Node000007"><a xlink:title=" ">
<path fill="none" stroke="#63b8ff" d="M402.98,-75.52C419.09,-71.15 437.99,-66.04 455.09,-61.41"/>
<polygon fill="#63b8ff" stroke="#63b8ff" points="455.82,-64.84 464.56,-58.85 453.99,-58.08 455.82,-64.84"/>
</a>
</g>
</g>
<!-- Node6 -->
<g id="Node000006" class="node">
<title>Node6</title>
<g id="a_Node000006"><a xlink:href="sdcard_8c.html#aae1cfbcba5f92f4639e23fd8ed8fa3c0" target="_top" xlink:title="Envia um comando SPI para o cartão SD e aguarda resposta R1.">
<polygon fill="white" stroke="#666666" points="783,-58 706.25,-58 706.25,-38 783,-38 783,-58"/>
<text xml:space="preserve" text-anchor="middle" x="744.62" y="-44.5" font-family="Helvetica,sans-Serif" font-size="10.00">sd_cmd_send</text>
</a>
</g>
</g>
<!-- Node5&#45;&gt;Node6 -->
<g id="edge5_Node000005_Node000006" class="edge">
<title>Node5&#45;&gt;Node6</title>
<g id="a_edge5_Node000005_Node000006"><a xlink:title=" ">
<path fill="none" stroke="#63b8ff" d="M670.74,-48C678.37,-48 686.62,-48 694.73,-48"/>
<polygon fill="#63b8ff" stroke="#63b8ff" points="694.52,-51.5 704.52,-48 694.52,-44.5 694.52,-51.5"/>
</a>
</g>
</g>
<!-- Node7&#45;&gt;Node5 -->
<g id="edge7_Node000007_Node000005" class="edge">
<title>Node7&#45;&gt;Node5</title>
<g id="a_edge7_Node000007_Node000005"><a xlink:title=" ">
<path fill="none" stroke="#63b8ff" d="M565.93,-48C574.04,-48 582.26,-48 590.06,-48"/>
<polygon fill="#63b8ff" stroke="#63b8ff" points="590,-51.5 600,-48 590,-44.5 590,-51.5"/>
</a>
</g>
</g>
<!-- Node8&#45;&gt;Node4 -->
<g id="edge11_Node000008_Node000004" class="edge">
<title>Node8&#45;&gt;Node4</title>
<g id="a_edge11_Node000008_Node000004"><a xlink:title=" ">
<path fill="none" stroke="#63b8ff" d="M262.23,-58.48C278.09,-62.85 296.68,-67.96 313.51,-72.59"/>
<polygon fill="#63b8ff" stroke="#63b8ff" points="312.24,-75.87 322.81,-75.15 314.09,-69.12 312.24,-75.87"/>
</a>
</g>
</g>
<!-- Node8&#45;&gt;Node5 -->
<g id="edge9_Node000008_Node000005" class="edge">
<title>Node8&#45;&gt;Node5</title>
<g id="a_edge9_Node000008_Node000005"><a xlink:title=" ">
<path fill="none" stroke="#63b8ff" d="M275.29,-39.15C342.31,-28.94 463.32,-15.2 565.75,-29 574.7,-30.21 584.13,-32.25 593.04,-34.56"/>
<polygon fill="#63b8ff" stroke="#63b8ff" points="591.97,-37.89 602.54,-37.19 593.83,-31.15 591.97,-37.89"/>
</a>
</g>
</g>
<!-- Node8&#45;&gt;Node7 -->
<g id="edge10_Node000008_Node000007" class="edge">
<title>Node8&#45;&gt;Node7</title>
<g id="a_edge10_Node000008_Node000007"><a xlink:title=" ">
<path fill="none" stroke="#63b8ff" d="M275.25,-48C319.67,-48 384.45,-48 433.85,-48"/>
<polygon fill="#63b8ff" stroke="#63b8ff" points="433.59,-51.5 443.59,-48 433.59,-44.5 433.59,-51.5"/>
</a>
</g>
</g>
</g>
</svg>
