<?xml version="1.0" encoding="UTF-8" standalone="no"?>
<!DOCTYPE svg PUBLIC "-//W3C//DTD SVG 1.1//EN"
 "http://www.w3.org/Graphics/SVG/1.1/DTD/svg11.dtd">
<!-- Generated by graphviz version 14.1.4 (20260321.0153)
 -->
<!-- Title: callback_escreve_string Pages: 1 -->
<svg width="508pt" height="154pt"
 viewBox="0.00 0.00 508.00 154.00" xmlns="http://www.w3.org/2000/svg" xmlns:xlink="http://www.w3.org/1999/xlink">
<g id="graph0" class="graph" transform="scale(1 1) rotate(0) translate(4 150)">
<title>callback_escreve_string</title>
<!-- Node1 -->
<g id="Node000001" class="node">
<title>Node1</title>
<g id="a_Node000001"><a xlink:title="Callback chamado pela biblioteca sd_file_append_stream().">
<polygon fill="#999999" stroke="#666666" points="121,-86 0,-86 0,-66 121,-66 121,-86"/>
<text xml:space="preserve" text-anchor="middle" x="60.5" y="-72.5" font-family="Helvetica,sans-Serif" font-size="10.00">callback_escreve_string</text>
</a>
</g>
</g>
<!-- Node1&#45;&gt;Node1 -->
<g id="edge1_Node000001_Node000001" class="edge">
<title>Node1&#45;&gt;Node1</title>
<g id="a_edge1_Node000001_Node000001"><a xlink:title=" ">
<path fill="none" stroke="#63b8ff" d="M42.23,-86.34C34.42,-94.98 40.51,-104 60.5,-104 71.43,-104 78.21,-101.3 80.83,-97.44"/>
<polygon fill="#63b8ff" stroke="#63b8ff" points="84.31,-97.02 79.05,-87.83 77.42,-98.3 84.31,-97.02"/>
</a>
</g>
</g>
<!-- Node2 -->
<g id="Node000002" class="node">
<title>Node2</title>
<g id="a_Node000002"><a xlink:href="exemplo__3_8c.html#a840291bc02cba5474a4cb46a9b9566fe" target="_top" xlink:title="Ponto de entrada do programa.">
<polygon fill="white" stroke="#666666" points="194,-86 157,-86 157,-66 194,-66 194,-86"/>
<text xml:space="preserve" text-anchor="middle" x="175.5" y="-72.5" font-family="Helvetica,sans-Serif" font-size="10.00">main</text>
</a>
</g>
</g>
<!-- Node1&#45;&gt;Node2 -->
<g id="edge2_Node000001_Node000002" class="edge">
<title>Node1&#45;&gt;Node2</title>
<g id="a_edge2_Node000001_Node000002"><a xlink:title=" ">
<path fill="none" stroke="#63b8ff" d="M121.31,-76C129.68,-76 137.96,-76 145.41,-76"/>
<polygon fill="#63b8ff" stroke="#63b8ff" points="145.14,-79.5 155.14,-76 145.14,-72.5 145.14,-79.5"/>
</a>
</g>
</g>
<!-- Node4 -->
<g id="Node000004" class="node">
<title>Node4</title>
<g id="a_Node000004"><a xlink:href="exemplo__1_8c.html#acf4adecab7a79ecc6960a9057647935d" target="_top" xlink:title=" ">
<polygon fill="white" stroke="#666666" points="319.12,-146 242.38,-146 242.38,-126 319.12,-126 319.12,-146"/>
<text xml:space="preserve" text-anchor="middle" x="280.75" y="-132.5" font-family="Helvetica,sans-Serif" font-size="10.00">my_delay_ms</text>
</a>
</g>
</g>
<!-- Node1&#45;&gt;Node4 -->
<g id="edge9_Node000001_Node000004" class="edge">
<title>Node1&#45;&gt;Node4</title>
<g id="a_edge9_Node000001_Node000004"><a xlink:title=" ">
<path fill="none" stroke="#63b8ff" d="M99.52,-86.45C136.05,-96.5 191.43,-111.72 231.15,-122.64"/>
<polygon fill="#63b8ff" stroke="#63b8ff" points="230.14,-125.99 240.71,-125.27 232,-119.24 230.14,-125.99"/>
</a>
</g>
</g>
<!-- Node7 -->
<g id="Node000007" class="node">
<title>Node7</title>
<g id="a_Node000007"><a xlink:href="exemplo__1_8c.html#a0c0ca72359ddf28dcd15900dfba19343" target="_top" xlink:title=" ">
<polygon fill="white" stroke="#666666" points="306,-20 255.5,-20 255.5,0 306,0 306,-20"/>
<text xml:space="preserve" text-anchor="middle" x="280.75" y="-6.5" font-family="Helvetica,sans-Serif" font-size="10.00">uart_init</text>
</a>
</g>
</g>
<!-- Node1&#45;&gt;Node7 -->
<g id="edge10_Node000001_Node000007" class="edge">
<title>Node1&#45;&gt;Node7</title>
<g id="a_edge10_Node000001_Node000007"><a xlink:title=" ">
<path fill="none" stroke="#63b8ff" d="M96.08,-65.54C136.62,-53.28 203.46,-33.07 244.35,-20.71"/>
<polygon fill="#63b8ff" stroke="#63b8ff" points="245.14,-24.12 253.7,-17.88 243.12,-17.42 245.14,-24.12"/>
</a>
</g>
</g>
<!-- Node3 -->
<g id="Node000003" class="node">
<title>Node3</title>
<g id="a_Node000003"><a xlink:href="exemplo__3_8c.html#a1888a7d50f8090bc2f0c577e2ce4074f" target="_top" xlink:title="Localiza ou cria o volume de log adequado no cartão.">
<polygon fill="white" stroke="#666666" points="499.75,-105 367.5,-105 367.5,-85 499.75,-85 499.75,-105"/>
<text xml:space="preserve" text-anchor="middle" x="433.62" y="-91.5" font-family="Helvetica,sans-Serif" font-size="10.00">gerenciar_proximo_volume</text>
</a>
</g>
</g>
<!-- Node2&#45;&gt;Node3 -->
<g id="edge3_Node000002_Node000003" class="edge">
<title>Node2&#45;&gt;Node3</title>
<g id="a_edge3_Node000002_Node000003"><a xlink:title=" ">
<path fill="none" stroke="#63b8ff" d="M194.1,-77.31C226.94,-79.74 299.29,-85.11 355.75,-89.3"/>
<polygon fill="#63b8ff" stroke="#63b8ff" points="355.44,-92.78 365.67,-90.03 355.96,-85.8 355.44,-92.78"/>
</a>
</g>
</g>
<!-- Node2&#45;&gt;Node4 -->
<g id="edge4_Node000002_Node000004" class="edge">
<title>Node2&#45;&gt;Node4</title>
<g id="a_edge4_Node000002_Node000004"><a xlink:title=" ">
<path fill="none" stroke="#63b8ff" d="M190.68,-86.35C201.26,-93.88 216.21,-104.09 230,-112 235.12,-114.94 240.65,-117.85 246.11,-120.58"/>
<polygon fill="#63b8ff" stroke="#63b8ff" points="244.47,-123.68 255,-124.9 247.53,-117.38 244.47,-123.68"/>
</a>
</g>
</g>
<!-- Node5 -->
<g id="Node000005" class="node">
<title>Node5</title>
<g id="a_Node000005"><a xlink:href="exemplo__3_8c.html#a9765d93a7e9eac42493b89eb0dc1ab12" target="_top" xlink:title="Formata e grava um registro CSV com data, hora e 4 sensores.">
<polygon fill="white" stroke="#666666" points="331.5,-70 230,-70 230,-38 331.5,-38 331.5,-70"/>
<text xml:space="preserve" text-anchor="start" x="238" y="-56.5" font-family="Helvetica,sans-Serif" font-size="10.00">registrar_dado_com</text>
<text xml:space="preserve" text-anchor="middle" x="280.75" y="-44.5" font-family="Helvetica,sans-Serif" font-size="10.00">_rotacao</text>
</a>
</g>
</g>
<!-- Node2&#45;&gt;Node5 -->
<g id="edge5_Node000002_Node000005" class="edge">
<title>Node2&#45;&gt;Node5</title>
<g id="a_edge5_Node000002_Node000005"><a xlink:title=" ">
<path fill="none" stroke="#63b8ff" d="M194.48,-72.17C201.39,-70.7 209.72,-68.92 218.43,-67.07"/>
<polygon fill="#63b8ff" stroke="#63b8ff" points="219.06,-70.51 228.11,-65 217.6,-63.66 219.06,-70.51"/>
</a>
</g>
</g>
<!-- Node2&#45;&gt;Node7 -->
<g id="edge8_Node000002_Node000007" class="edge">
<title>Node2&#45;&gt;Node7</title>
<g id="a_edge8_Node000002_Node000007"><a xlink:title=" ">
<path fill="none" stroke="#63b8ff" d="M185.91,-65.83C195.98,-55.42 212.85,-39.35 230,-29 234.61,-26.22 239.69,-23.72 244.79,-21.52"/>
<polygon fill="#63b8ff" stroke="#63b8ff" points="245.73,-24.92 253.75,-17.99 243.16,-18.41 245.73,-24.92"/>
</a>
</g>
</g>
<!-- Node5&#45;&gt;Node3 -->
<g id="edge7_Node000005_Node000003" class="edge">
<title>Node5&#45;&gt;Node3</title>
<g id="a_edge7_Node000005_Node000003"><a xlink:title=" ">
<path fill="none" stroke="#63b8ff" d="M331.99,-67.65C348.43,-72.12 366.67,-77.08 383.05,-81.53"/>
<polygon fill="#63b8ff" stroke="#63b8ff" points="382.03,-84.88 392.6,-84.12 383.87,-78.12 382.03,-84.88"/>
</a>
</g>
</g>
<!-- Node6 -->
<g id="Node000006" class="node">
<title>Node6</title>
<g id="a_Node000006"><a xlink:href="exemplo__3_8c.html#a71f1a2293174059d753ba1816e7df0e2" target="_top" xlink:title="Callback que fornece os dados formatados para a biblioteca SD.">
<polygon fill="white" stroke="#666666" points="495.62,-64 371.62,-64 371.62,-44 495.62,-44 495.62,-64"/>
<text xml:space="preserve" text-anchor="middle" x="433.62" y="-50.5" font-family="Helvetica,sans-Serif" font-size="10.00">callback_escrita_rotacao</text>
</a>
</g>
</g>
<!-- Node5&#45;&gt;Node6 -->
<g id="edge6_Node000005_Node000006" class="edge">
<title>Node5&#45;&gt;Node6</title>
<g id="a_edge6_Node000005_Node000006"><a xlink:title=" ">
<path fill="none" stroke="#63b8ff" d="M331.99,-54C340.95,-54 350.44,-54 359.88,-54"/>
<polygon fill="#63b8ff" stroke="#63b8ff" points="359.81,-57.5 369.81,-54 359.81,-50.5 359.81,-57.5"/>
</a>
</g>
</g>
</g>
</svg>
