<?xml version="1.0" encoding="UTF-8" standalone="no"?>
<!DOCTYPE svg PUBLIC "-//W3C//DTD SVG 1.1//EN"
 "http://www.w3.org/Graphics/SVG/1.1/DTD/svg11.dtd">
<!-- Generated by graphviz version 14.1.4 (20260321.0153)
 -->
<!-- Title: uart_putchar Pages: 1 -->
<svg width="184pt" height="46pt"
 viewBox="0.00 0.00 184.00 46.00" xmlns="http://www.w3.org/2000/svg" xmlns:xlink="http://www.w3.org/1999/xlink">
<g id="graph0" class="graph" transform="scale(1 1) rotate(0) translate(4 42)">
<title>uart_putchar</title>
<!-- Node1 -->
<g id="Node000001" class="node">
<title>Node1</title>
<g id="a_Node000001"><a xlink:title="Envia um caractere via UART (usado pelo printf).">
<polygon fill="#999999" stroke="#666666" points="70,-20 0,-20 0,0 70,0 70,-20"/>
<text xml:space="preserve" text-anchor="middle" x="35" y="-6.5" font-family="Helvetica,sans-Serif" font-size="10.00">uart_putchar</text>
</a>
</g>
</g>
<!-- Node2 -->
<g id="Node000002" class="node">
<title>Node2</title>
<g id="a_Node000002"><a xlink:href="exemplo__1_8c.html#a985ba70f2a53d95f1fd11f70f1d8f4f6" target="_top" xlink:title=" ">
<polygon fill="white" stroke="#666666" points="176,-20 106,-20 106,0 176,0 176,-20"/>
<text xml:space="preserve" text-anchor="middle" x="141" y="-6.5" font-family="Helvetica,sans-Serif" font-size="10.00">uart_putchar</text>
</a>
</g>
</g>
<!-- Node1&#45;&gt;Node2 -->
<g id="edge1_Node000001_Node000002" class="edge">
<title>Node1&#45;&gt;Node2</title>
<g id="a_edge1_Node000001_Node000002"><a xlink:title=" ">
<path fill="none" stroke="#63b8ff" d="M70.34,-10C77.97,-10 86.18,-10 94.19,-10"/>
<polygon fill="#63b8ff" stroke="#63b8ff" points="94.18,-13.5 104.18,-10 94.18,-6.5 94.18,-13.5"/>
</a>
</g>
</g>
<!-- Node2&#45;&gt;Node2 -->
<g id="edge2_Node000002_Node000002" class="edge">
<title>Node2&#45;&gt;Node2</title>
<g id="a_edge2_Node000002_Node000002"><a xlink:title=" ">
<path fill="none" stroke="#63b8ff" d="M124.16,-20.34C116.96,-28.98 122.57,-38 141,-38 151.08,-38 157.32,-35.3 159.73,-31.44"/>
<polygon fill="#63b8ff" stroke="#63b8ff" points="163.23,-31.1 158.1,-21.83 156.33,-32.28 163.23,-31.1"/>
</a>
</g>
</g>
</g>
</svg>
