<?xml version="1.0" encoding="UTF-8" standalone="no"?>
<!DOCTYPE svg PUBLIC "-//W3C//DTD SVG 1.1//EN"
 "http://www.w3.org/Graphics/SVG/1.1/DTD/svg11.dtd">
<!-- Generated by graphviz version 14.1.4 (20260321.0153)
 -->
<!-- Title: teste_basico_escrever_string Pages: 1 -->
<svg width="1144pt" height="908pt"
 viewBox="0.00 0.00 1144.00 908.00" xmlns="http://www.w3.org/2000/svg" xmlns:xlink="http://www.w3.org/1999/xlink">
<g id="graph0" class="graph" transform="scale(1 1) rotate(0) translate(4 904.44)">
<title>teste_basico_escrever_string</title>
<!-- Node1 -->
<g id="Node000001" class="node">
<title>Node1</title>
<g id="a_Node000001"><a xlink:title="Demonstração completa e básica da biblioteca.">
<polygon fill="#999999" stroke="#666666" points="114.25,-678.44 0,-678.44 0,-646.44 114.25,-646.44 114.25,-678.44"/>
<text xml:space="preserve" text-anchor="start" x="8" y="-664.94" font-family="Helvetica,sans-Serif" font-size="10.00">teste_basico_escrever</text>
<text xml:space="preserve" text-anchor="middle" x="57.12" y="-652.94" font-family="Helvetica,sans-Serif" font-size="10.00">_string</text>
</a>
</g>
</g>
<!-- Node2 -->
<g id="Node000002" class="node">
<title>Node2</title>
<g id="a_Node000002"><a xlink:href="exemplo__1_8c.html#a014f66c320f488d0c93cf4b998611466" target="_top" xlink:title="Callback chamado pela biblioteca sd_file_append_stream().">
<polygon fill="white" stroke="#666666" points="271.25,-862.44 150.25,-862.44 150.25,-842.44 271.25,-842.44 271.25,-862.44"/>
<text xml:space="preserve" text-anchor="middle" x="210.75" y="-848.94" font-family="Helvetica,sans-Serif" font-size="10.00">callback_escreve_string</text>
</a>
</g>
</g>
<!-- Node1&#45;&gt;Node2 -->
<g id="edge1_Node000001_Node000002" class="edge">
<title>Node1&#45;&gt;Node2</title>
<g id="a_edge1_Node000001_Node000002"><a xlink:title=" ">
<path fill="none" stroke="#63b8ff" d="M62.4,-678.74C72.14,-712.61 99.14,-791 150.25,-833.44 151.55,-834.52 152.92,-835.54 154.34,-836.5"/>
<polygon fill="#63b8ff" stroke="#63b8ff" points="152.52,-839.5 162.96,-841.32 155.93,-833.38 152.52,-839.5"/>
</a>
</g>
</g>
<!-- Node3 -->
<g id="Node000003" class="node">
<title>Node3</title>
<g id="a_Node000003"><a xlink:href="exemplo__1_8c.html#a9ddddd20ec13dcafa912ee1d93f76a37" target="_top" xlink:title=" ">
<polygon fill="white" stroke="#666666" points="249.12,-824.44 172.38,-824.44 172.38,-804.44 249.12,-804.44 249.12,-824.44"/>
<text xml:space="preserve" text-anchor="middle" x="210.75" y="-810.94" font-family="Helvetica,sans-Serif" font-size="10.00">my_delay_ms</text>
</a>
</g>
</g>
<!-- Node1&#45;&gt;Node3 -->
<g id="edge2_Node000001_Node000003" class="edge">
<title>Node1&#45;&gt;Node3</title>
<g id="a_edge2_Node000001_Node000003"><a xlink:title=" ">
<path fill="none" stroke="#63b8ff" d="M64.98,-678.51C77.7,-706.41 107.58,-763.86 150.25,-795.44 153.78,-798.05 157.68,-800.31 161.74,-802.26"/>
<polygon fill="#63b8ff" stroke="#63b8ff" points="160.09,-805.37 170.67,-805.94 162.76,-798.9 160.09,-805.37"/>
</a>
</g>
</g>
<!-- Node4 -->
<g id="Node000004" class="node">
<title>Node4</title>
<g id="a_Node000004"><a xlink:href="sdcard_8c.html#a0de914bcd39f32ddd2f8412744267322" target="_top" xlink:title="Prepara o contexto da biblioteca e inicializa a interface de hardware.">
<polygon fill="white" stroke="#666666" points="238.25,-786.44 183.25,-786.44 183.25,-766.44 238.25,-766.44 238.25,-786.44"/>
<text xml:space="preserve" text-anchor="middle" x="210.75" y="-772.94" font-family="Helvetica,sans-Serif" font-size="10.00">sd_begin</text>
</a>
</g>
</g>
<!-- Node1&#45;&gt;Node4 -->
<g id="edge3_Node000001_Node000004" class="edge">
<title>Node1&#45;&gt;Node4</title>
<g id="a_edge3_Node000001_Node000004"><a xlink:title=" ">
<path fill="none" stroke="#63b8ff" d="M71.26,-678.7C87.89,-698.4 118.24,-731.53 150.25,-752.44 157.03,-756.87 164.76,-760.72 172.36,-763.96"/>
<polygon fill="#63b8ff" stroke="#63b8ff" points="170.89,-767.14 181.48,-767.58 173.47,-760.64 170.89,-767.14"/>
</a>
</g>
</g>
<!-- Node13 -->
<g id="Node000013" class="node">
<title>Node13</title>
<g id="a_Node000013"><a xlink:href="sdcard_8c.html#ac0efead9da3dedebd72b376562fca898" target="_top" xlink:title="Lista todos os arquivos presentes no diretório raiz via Serial.">
<polygon fill="white" stroke="#666666" points="554.12,-672.44 493.88,-672.44 493.88,-652.44 554.12,-652.44 554.12,-672.44"/>
<text xml:space="preserve" text-anchor="middle" x="524" y="-658.94" font-family="Helvetica,sans-Serif" font-size="10.00">sd_dir_list</text>
</a>
</g>
</g>
<!-- Node1&#45;&gt;Node13 -->
<g id="edge12_Node000001_Node000013" class="edge">
<title>Node1&#45;&gt;Node13</title>
<g id="a_edge12_Node000001_Node000013"><a xlink:title=" ">
<path fill="none" stroke="#63b8ff" d="M114.66,-662.44C209.57,-662.44 398.69,-662.44 481.99,-662.44"/>
<polygon fill="#63b8ff" stroke="#63b8ff" points="481.97,-665.94 491.97,-662.44 481.97,-658.94 481.97,-665.94"/>
</a>
</g>
</g>
<!-- Node16 -->
<g id="Node000016" class="node">
<title>Node16</title>
<g id="a_Node000016"><a xlink:href="sdcard_8c.html#a8fb3672dbc5a29bab3e7614f4c655aff" target="_top" xlink:title="Localiza e monta o sistema de arquivos FAT32 no cartão SD.">
<polygon fill="white" stroke="#666666" points="709.25,-710.44 634,-710.44 634,-690.44 709.25,-690.44 709.25,-710.44"/>
<text xml:space="preserve" text-anchor="middle" x="671.62" y="-696.94" font-family="Helvetica,sans-Serif" font-size="10.00">sd_fat_mount</text>
</a>
</g>
</g>
<!-- Node1&#45;&gt;Node16 -->
<g id="edge17_Node000001_Node000016" class="edge">
<title>Node1&#45;&gt;Node16</title>
<g id="a_edge17_Node000001_Node000016"><a xlink:title=" ">
<path fill="none" stroke="#63b8ff" d="M114.52,-671.96C126.3,-673.68 138.66,-675.29 150.25,-676.44 323.34,-693.53 530.05,-698.49 622.18,-699.89"/>
<polygon fill="#63b8ff" stroke="#63b8ff" points="622.06,-703.39 632.11,-700.04 622.16,-696.39 622.06,-703.39"/>
</a>
</g>
</g>
<!-- Node17 -->
<g id="Node000017" class="node">
<title>Node17</title>
<g id="a_Node000017"><a xlink:href="sdcard_8c.html#a3cb6e9bbb79a21ebf8cf7357ed262726" target="_top" xlink:title="Adiciona dados ao final de um arquivo, expandindo clusters se necessário.">
<polygon fill="white" stroke="#666666" points="269,-292.44 152.5,-292.44 152.5,-272.44 269,-272.44 269,-292.44"/>
<text xml:space="preserve" text-anchor="middle" x="210.75" y="-278.94" font-family="Helvetica,sans-Serif" font-size="10.00">sd_file_append_stream</text>
</a>
</g>
</g>
<!-- Node1&#45;&gt;Node17 -->
<g id="edge19_Node000001_Node000017" class="edge">
<title>Node1&#45;&gt;Node17</title>
<g id="a_edge19_Node000001_Node000017"><a xlink:title=" ">
<path fill="none" stroke="#63b8ff" d="M64.64,-646.11C88.92,-585.27 174.12,-371.74 201.33,-303.54"/>
<polygon fill="#63b8ff" stroke="#63b8ff" points="204.56,-304.89 205.02,-294.3 198.06,-302.29 204.56,-304.89"/>
</a>
</g>
</g>
<!-- Node26 -->
<g id="Node000026" class="node">
<title>Node26</title>
<g id="a_Node000026"><a xlink:href="sdcard_8c.html#a5228ed5a829330c001b1614c8476236c" target="_top" xlink:title="Cria um novo arquivo no diretorio raiz com expansao de cluster.">
<polygon fill="white" stroke="#666666" points="249.12,-558.44 172.38,-558.44 172.38,-538.44 249.12,-538.44 249.12,-558.44"/>
<text xml:space="preserve" text-anchor="middle" x="210.75" y="-544.94" font-family="Helvetica,sans-Serif" font-size="10.00">sd_file_create</text>
</a>
</g>
</g>
<!-- Node1&#45;&gt;Node26 -->
<g id="edge42_Node000001_Node000026" class="edge">
<title>Node1&#45;&gt;Node26</title>
<g id="a_edge42_Node000001_Node000026"><a xlink:title=" ">
<path fill="none" stroke="#63b8ff" d="M79.85,-646.1C108.39,-624.64 158.29,-587.13 187.22,-565.37"/>
<polygon fill="#63b8ff" stroke="#63b8ff" points="189.07,-568.36 194.96,-559.55 184.87,-562.77 189.07,-568.36"/>
</a>
</g>
</g>
<!-- Node30 -->
<g id="Node000030" class="node">
<title>Node30</title>
<g id="a_Node000030"><a xlink:href="sdcard_8c.html#af2ad75b395d583c12294747d47860497" target="_top" xlink:title="Exclui um arquivo do diretório e libera seu espaço no disco.">
<polygon fill="white" stroke="#666666" points="562,-140.44 486,-140.44 486,-120.44 562,-120.44 562,-140.44"/>
<text xml:space="preserve" text-anchor="middle" x="524" y="-126.94" font-family="Helvetica,sans-Serif" font-size="10.00">sd_file_delete</text>
</a>
</g>
</g>
<!-- Node1&#45;&gt;Node30 -->
<g id="edge54_Node000001_Node000030" class="edge">
<title>Node1&#45;&gt;Node30</title>
<g id="a_edge54_Node000001_Node000030"><a xlink:title=" ">
<path fill="none" stroke="#63b8ff" d="M57.96,-646.04C58.14,-588.41 65.28,-391.77 150.25,-263.44 197.86,-191.54 226.48,-179.65 307.25,-149.44 361.89,-129 429.54,-126.35 474.36,-127.44"/>
<polygon fill="#63b8ff" stroke="#63b8ff" points="474.18,-130.94 484.29,-127.77 474.41,-123.94 474.18,-130.94"/>
</a>
</g>
</g>
<!-- Node32 -->
<g id="Node000032" class="node">
<title>Node32</title>
<g id="a_Node000032"><a xlink:href="sdcard_8c.html#aec0c2db609a8f514fa7487deecd78461" target="_top" xlink:title="Sincroniza o tamanho do arquivo no diretório físico (Flush).">
<polygon fill="white" stroke="#666666" points="407.25,-102.44 336.5,-102.44 336.5,-82.44 407.25,-82.44 407.25,-102.44"/>
<text xml:space="preserve" text-anchor="middle" x="371.88" y="-88.94" font-family="Helvetica,sans-Serif" font-size="10.00">sd_file_sync</text>
</a>
</g>
</g>
<!-- Node1&#45;&gt;Node32 -->
<g id="edge61_Node000001_Node000032" class="edge">
<title>Node1&#45;&gt;Node32</title>
<g id="a_edge61_Node000001_Node000032"><a xlink:title=" ">
<path fill="none" stroke="#63b8ff" d="M58.34,-646.16C59.8,-563.52 70.78,-191.37 150.25,-116.44 196.67,-72.67 275.36,-75.48 325.14,-82.93"/>
<polygon fill="#63b8ff" stroke="#63b8ff" points="324.29,-86.33 334.72,-84.49 325.41,-79.43 324.29,-86.33"/>
</a>
</g>
</g>
<!-- Node34 -->
<g id="Node000034" class="node">
<title>Node34</title>
<g id="a_Node000034"><a xlink:href="sdcard_8c.html#aec719268715a8022ad876f40ef9bb2fa" target="_top" xlink:title="Calcula a capacidade total do cartão SD em Megabytes (MB).">
<polygon fill="white" stroke="#666666" points="1023.25,-558.44 917.25,-558.44 917.25,-538.44 1023.25,-538.44 1023.25,-558.44"/>
<text xml:space="preserve" text-anchor="middle" x="970.25" y="-544.94" font-family="Helvetica,sans-Serif" font-size="10.00">sd_get_capacity_mb</text>
</a>
</g>
</g>
<!-- Node1&#45;&gt;Node34 -->
<g id="edge67_Node000001_Node000034" class="edge">
<title>Node1&#45;&gt;Node34</title>
<g id="a_edge67_Node000001_Node000034"><a xlink:title=" ">
<path fill="none" stroke="#63b8ff" d="M98.84,-678.93C157.8,-701.28 270.86,-738.44 370.88,-738.44 370.88,-738.44 370.88,-738.44 672.62,-738.44 770.74,-738.44 899.51,-597.03 917.25,-584.44 926.23,-578.06 936.15,-571.16 944.9,-565.12"/>
<polygon fill="#63b8ff" stroke="#63b8ff" points="946.67,-568.15 952.92,-559.6 942.7,-562.39 946.67,-568.15"/>
</a>
</g>
</g>
<!-- Node35 -->
<g id="Node000035" class="node">
<title>Node35</title>
<g id="a_Node000035"><a xlink:href="sdcard_8c.html#af2ad3468d37d6d256e022bafa756ac32" target="_top" xlink:title="Converte uma string convencional para o formato FAT 8.3.">
<polygon fill="white" stroke="#666666" points="254.38,-64.44 167.12,-64.44 167.12,-44.44 254.38,-44.44 254.38,-64.44"/>
<text xml:space="preserve" text-anchor="middle" x="210.75" y="-50.94" font-family="Helvetica,sans-Serif" font-size="10.00">sd_set_filename</text>
</a>
</g>
</g>
<!-- Node1&#45;&gt;Node35 -->
<g id="edge69_Node000001_Node000035" class="edge">
<title>Node1&#45;&gt;Node35</title>
<g id="a_edge69_Node000001_Node000035"><a xlink:title=" ">
<path fill="none" stroke="#63b8ff" d="M58.58,-646.01C61.28,-560.85 77.49,-169.91 150.25,-78.44 152.57,-75.52 155.31,-72.95 158.3,-70.69"/>
<polygon fill="#63b8ff" stroke="#63b8ff" points="159.93,-73.8 166.65,-65.6 156.29,-67.82 159.93,-73.8"/>
</a>
</g>
</g>
<!-- Node5 -->
<g id="Node000005" class="node">
<title>Node5</title>
<g id="a_Node000005"><a xlink:href="sdcard_8c.html#afac6d670e786eaea1f07a4eb95b25ac6" target="_top" xlink:title="Inicialização rápida para AVR (configura pinos + HAL interno).">
<polygon fill="white" stroke="#666666" points="408.38,-824.44 335.38,-824.44 335.38,-804.44 408.38,-804.44 408.38,-824.44"/>
<text xml:space="preserve" text-anchor="middle" x="371.88" y="-810.94" font-family="Helvetica,sans-Serif" font-size="10.00">sd_quick_init</text>
</a>
</g>
</g>
<!-- Node4&#45;&gt;Node5 -->
<g id="edge4_Node000004_Node000005" class="edge">
<title>Node4&#45;&gt;Node5</title>
<g id="a_edge4_Node000004_Node000005"><a xlink:title=" ">
<path fill="none" stroke="#63b8ff" d="M238.74,-782.88C262.05,-788.45 296.24,-796.61 324,-803.24"/>
<polygon fill="#63b8ff" stroke="#63b8ff" points="323.05,-806.61 333.59,-805.53 324.68,-799.81 323.05,-806.61"/>
</a>
</g>
</g>
<!-- Node6 -->
<g id="Node000006" class="node">
<title>Node6</title>
<g id="a_Node000006"><a xlink:href="sdcard_8c.html#a6cf66af945c22b51e07f145a63869c5a" target="_top" xlink:title="Desativa o Chip Select (CS) &#45; Pino PB2.">
<polygon fill="white" stroke="#666666" points="559.38,-900.44 488.62,-900.44 488.62,-880.44 559.38,-880.44 559.38,-900.44"/>
<text xml:space="preserve" text-anchor="middle" x="524" y="-886.94" font-family="Helvetica,sans-Serif" font-size="10.00">_sd_cs_high</text>
</a>
</g>
</g>
<!-- Node5&#45;&gt;Node6 -->
<g id="edge5_Node000005_Node000006" class="edge">
<title>Node5&#45;&gt;Node6</title>
<g id="a_edge5_Node000005_Node000006"><a xlink:title=" ">
<path fill="none" stroke="#63b8ff" d="M389.01,-824.74C408.37,-836.85 442.03,-857.1 472.5,-871.44 475.62,-872.9 478.89,-874.34 482.19,-875.73"/>
<polygon fill="#63b8ff" stroke="#63b8ff" points="480.77,-878.93 491.36,-879.4 483.38,-872.43 480.77,-878.93"/>
</a>
</g>
</g>
<!-- Node7 -->
<g id="Node000007" class="node">
<title>Node7</title>
<g id="a_Node000007"><a xlink:href="sdcard_8c.html#aeabfda2a0d078f02c8fdedc7c840cc69" target="_top" xlink:title="Ativa o Chip Select (CS) &#45; Pino PB2.">
<polygon fill="white" stroke="#666666" points="557.88,-862.44 490.12,-862.44 490.12,-842.44 557.88,-842.44 557.88,-862.44"/>
<text xml:space="preserve" text-anchor="middle" x="524" y="-848.94" font-family="Helvetica,sans-Serif" font-size="10.00">_sd_cs_low</text>
</a>
</g>
</g>
<!-- Node5&#45;&gt;Node7 -->
<g id="edge6_Node000005_Node000007" class="edge">
<title>Node5&#45;&gt;Node7</title>
<g id="a_edge6_Node000005_Node000007"><a xlink:title=" ">
<path fill="none" stroke="#63b8ff" d="M408.83,-823.54C429.83,-828.85 456.5,-835.6 478.78,-841.24"/>
<polygon fill="#63b8ff" stroke="#63b8ff" points="477.63,-844.56 488.18,-843.62 479.34,-837.78 477.63,-844.56"/>
</a>
</g>
</g>
<!-- Node8 -->
<g id="Node000008" class="node">
<title>Node8</title>
<g id="a_Node000008"><a xlink:href="sdcard_8c.html#a8092c4cbf898989b2bf07325565e0cbd" target="_top" xlink:title="Transmissão/recepção de um byte via SPI (função interna).">
<polygon fill="white" stroke="#666666" points="568,-824.44 480,-824.44 480,-804.44 568,-804.44 568,-824.44"/>
<text xml:space="preserve" text-anchor="middle" x="524" y="-810.94" font-family="Helvetica,sans-Serif" font-size="10.00">_sd_spi_transfer</text>
</a>
</g>
</g>
<!-- Node5&#45;&gt;Node8 -->
<g id="edge7_Node000005_Node000008" class="edge">
<title>Node5&#45;&gt;Node8</title>
<g id="a_edge7_Node000005_Node000008"><a xlink:title=" ">
<path fill="none" stroke="#63b8ff" d="M408.83,-814.44C426.6,-814.44 448.42,-814.44 468.21,-814.44"/>
<polygon fill="#63b8ff" stroke="#63b8ff" points="468.06,-817.94 478.06,-814.44 468.06,-810.94 468.06,-817.94"/>
</a>
</g>
</g>
<!-- Node9 -->
<g id="Node000009" class="node">
<title>Node9</title>
<g id="a_Node000009"><a xlink:href="sdcard_8c.html#abb7664cb3bec0e4c545128d134f0e054" target="_top" xlink:title="Tenta inicializar o cartão até 3 vezes com delay entre tentativas.">
<polygon fill="white" stroke="#666666" points="558.62,-786.44 489.38,-786.44 489.38,-766.44 558.62,-766.44 558.62,-786.44"/>
<text xml:space="preserve" text-anchor="middle" x="524" y="-772.94" font-family="Helvetica,sans-Serif" font-size="10.00">sd_init_retry</text>
</a>
</g>
</g>
<!-- Node5&#45;&gt;Node9 -->
<g id="edge8_Node000005_Node000009" class="edge">
<title>Node5&#45;&gt;Node9</title>
<g id="a_edge8_Node000005_Node000009"><a xlink:title=" ">
<path fill="none" stroke="#63b8ff" d="M408.83,-805.33C429.52,-800.1 455.7,-793.47 477.77,-787.89"/>
<polygon fill="#63b8ff" stroke="#63b8ff" points="478.58,-791.29 487.41,-785.44 476.86,-784.5 478.58,-791.29"/>
</a>
</g>
</g>
<!-- Node10 -->
<g id="Node000010" class="node">
<title>Node10</title>
<g id="a_Node000010"><a xlink:href="sdcard_8c.html#a6a8f9df03a1b222e8ea45199b7431e19" target="_top" xlink:title="Inicializa o cartão SD no modo SPI.">
<polygon fill="white" stroke="#666666" points="693.88,-786.44 649.38,-786.44 649.38,-766.44 693.88,-766.44 693.88,-786.44"/>
<text xml:space="preserve" text-anchor="middle" x="671.62" y="-772.94" font-family="Helvetica,sans-Serif" font-size="10.00">sd_init</text>
</a>
</g>
</g>
<!-- Node9&#45;&gt;Node10 -->
<g id="edge9_Node000009_Node000010" class="edge">
<title>Node9&#45;&gt;Node10</title>
<g id="a_edge9_Node000009_Node000010"><a xlink:title=" ">
<path fill="none" stroke="#63b8ff" d="M558.78,-776.44C582.53,-776.44 614.15,-776.44 637.71,-776.44"/>
<polygon fill="#63b8ff" stroke="#63b8ff" points="637.7,-779.94 647.7,-776.44 637.7,-772.94 637.7,-779.94"/>
</a>
</g>
</g>
<!-- Node11 -->
<g id="Node000011" class="node">
<title>Node11</title>
<g id="a_Node000011"><a xlink:href="sdcard_8c.html#abf6c02ac2130c37a0bff2e6b9a6c25cb" target="_top" xlink:title="Configura a velocidade do SPI no AVR (função interna).">
<polygon fill="white" stroke="#666666" points="881.25,-836.44 767.75,-836.44 767.75,-804.44 881.25,-804.44 881.25,-836.44"/>
<text xml:space="preserve" text-anchor="start" x="775.75" y="-822.94" font-family="Helvetica,sans-Serif" font-size="10.00">sd_avr_spi_set_speed</text>
<text xml:space="preserve" text-anchor="middle" x="824.5" y="-810.94" font-family="Helvetica,sans-Serif" font-size="10.00">_default</text>
</a>
</g>
</g>
<!-- Node10&#45;&gt;Node11 -->
<g id="edge10_Node000010_Node000011" class="edge">
<title>Node10&#45;&gt;Node11</title>
<g id="a_edge10_Node000010_Node000011"><a xlink:title=" ">
<path fill="none" stroke="#63b8ff" d="M694.24,-782.74C710.63,-787.52 734.08,-794.36 756.52,-800.9"/>
<polygon fill="#63b8ff" stroke="#63b8ff" points="755.39,-804.22 765.97,-803.66 757.35,-797.5 755.39,-804.22"/>
</a>
</g>
</g>
<!-- Node12 -->
<g id="Node000012" class="node">
<title>Node12</title>
<g id="a_Node000012"><a xlink:href="sdcard_8c.html#aae1cfbcba5f92f4639e23fd8ed8fa3c0" target="_top" xlink:title="Envia um comando SPI para o cartão SD e aguarda resposta R1.">
<polygon fill="white" stroke="#666666" points="1136,-330.44 1059.25,-330.44 1059.25,-310.44 1136,-310.44 1136,-330.44"/>
<text xml:space="preserve" text-anchor="middle" x="1097.62" y="-316.94" font-family="Helvetica,sans-Serif" font-size="10.00">sd_cmd_send</text>
</a>
</g>
</g>
<!-- Node10&#45;&gt;Node12 -->
<g id="edge11_Node000010_Node000012" class="edge">
<title>Node10&#45;&gt;Node12</title>
<g id="a_edge11_Node000010_Node000012"><a xlink:title=" ">
<path fill="none" stroke="#63b8ff" d="M694.11,-779.19C733.9,-783.2 820.5,-786.84 881.25,-752.44 1039.1,-663.03 1084,-415.92 1094.1,-341.75"/>
<polygon fill="#63b8ff" stroke="#63b8ff" points="1097.52,-342.55 1095.32,-332.18 1090.58,-341.66 1097.52,-342.55"/>
</a>
</g>
</g>
<!-- Node14 -->
<g id="Node000014" class="node">
<title>Node14</title>
<g id="a_Node000014"><a xlink:href="sdcard_8c.html#aba9c8b9a5590e13424ab4a69280f0c1d" target="_top" xlink:title="Lê um único bloco de 512 bytes do cartão (LBA).">
<polygon fill="white" stroke="#666666" points="858.75,-330.44 790.25,-330.44 790.25,-310.44 858.75,-310.44 858.75,-330.44"/>
<text xml:space="preserve" text-anchor="middle" x="824.5" y="-316.94" font-family="Helvetica,sans-Serif" font-size="10.00">sd_blk_read</text>
</a>
</g>
</g>
<!-- Node13&#45;&gt;Node14 -->
<g id="edge13_Node000013_Node000014" class="edge">
<title>Node13&#45;&gt;Node14</title>
<g id="a_edge13_Node000013_Node000014"><a xlink:title=" ">
<path fill="none" stroke="#63b8ff" d="M554.62,-668.29C598.7,-675.17 681.7,-680.82 731.75,-638.44 778.2,-599.09 810.61,-407.05 820.4,-342.02"/>
<polygon fill="#63b8ff" stroke="#63b8ff" points="823.84,-342.69 821.84,-332.28 816.92,-341.67 823.84,-342.69"/>
</a>
</g>
</g>
<!-- Node15 -->
<g id="Node000015" class="node">
<title>Node15</title>
<g id="a_Node000015"><a xlink:href="sdcard_8c.html#a7b0d2ab1fae193461c611a4f2e6c9245" target="_top" xlink:title="Obtém o próximo cluster na tabela FAT.">
<polygon fill="white" stroke="#666666" points="731.75,-406.44 611.5,-406.44 611.5,-386.44 731.75,-386.44 731.75,-406.44"/>
<text xml:space="preserve" text-anchor="middle" x="671.62" y="-392.94" font-family="Helvetica,sans-Serif" font-size="10.00">sd_fat_get_next_cluster</text>
</a>
</g>
</g>
<!-- Node13&#45;&gt;Node15 -->
<g id="edge15_Node000013_Node000015" class="edge">
<title>Node13&#45;&gt;Node15</title>
<g id="a_edge15_Node000013_Node000015"><a xlink:title=" ">
<path fill="none" stroke="#63b8ff" d="M530.71,-652.01C552.46,-612.28 630.37,-469.97 659.51,-416.73"/>
<polygon fill="#63b8ff" stroke="#63b8ff" points="662.5,-418.57 664.23,-408.12 656.36,-415.21 662.5,-418.57"/>
</a>
</g>
</g>
<!-- Node14&#45;&gt;Node12 -->
<g id="edge14_Node000014_Node000012" class="edge">
<title>Node14&#45;&gt;Node12</title>
<g id="a_edge14_Node000014_Node000012"><a xlink:title=" ">
<path fill="none" stroke="#63b8ff" d="M859.02,-320.44C906.27,-320.44 992.79,-320.44 1047.36,-320.44"/>
<polygon fill="#63b8ff" stroke="#63b8ff" points="1047.32,-323.94 1057.32,-320.44 1047.32,-316.94 1047.32,-323.94"/>
</a>
</g>
</g>
<!-- Node15&#45;&gt;Node14 -->
<g id="edge16_Node000015_Node000014" class="edge">
<title>Node15&#45;&gt;Node14</title>
<g id="a_edge16_Node000015_Node000014"><a xlink:title=" ">
<path fill="none" stroke="#63b8ff" d="M700.62,-385.94C710.57,-381.98 721.78,-377.26 731.75,-372.44 754.21,-361.57 778.75,-347.54 796.8,-336.79"/>
<polygon fill="#63b8ff" stroke="#63b8ff" points="798.55,-339.83 805.31,-331.67 794.94,-333.83 798.55,-339.83"/>
</a>
</g>
</g>
<!-- Node16&#45;&gt;Node14 -->
<g id="edge18_Node000016_Node000014" class="edge">
<title>Node16&#45;&gt;Node14</title>
<g id="a_edge18_Node000016_Node000014"><a xlink:title=" ">
<path fill="none" stroke="#63b8ff" d="M709.46,-691.59C717.75,-688.07 725.84,-683.19 731.75,-676.44 819.45,-576.19 825.14,-402.81 824.24,-342.15"/>
<polygon fill="#63b8ff" stroke="#63b8ff" points="827.74,-342.12 824.01,-332.2 820.75,-342.28 827.74,-342.12"/>
</a>
</g>
</g>
<!-- Node17&#45;&gt;Node14 -->
<g id="edge20_Node000017_Node000014" class="edge">
<title>Node17&#45;&gt;Node14</title>
<g id="a_edge20_Node000017_Node000014"><a xlink:title=" ">
<path fill="none" stroke="#63b8ff" d="M216.1,-292.87C227.12,-317.84 258.77,-380.97 307.25,-408.44 371.53,-444.85 398.73,-422.43 472.5,-426.44 587.66,-432.69 627.24,-464.2 731.75,-415.44 766.89,-399.04 795.64,-362.86 811.11,-340.18"/>
<polygon fill="#63b8ff" stroke="#63b8ff" points="813.85,-342.37 816.42,-332.09 808.01,-338.52 813.85,-342.37"/>
</a>
</g>
</g>
<!-- Node17&#45;&gt;Node15 -->
<g id="edge34_Node000017_Node000015" class="edge">
<title>Node17&#45;&gt;Node15</title>
<g id="a_edge34_Node000017_Node000015"><a xlink:title=" ">
<path fill="none" stroke="#63b8ff" d="M218.39,-292.76C232.15,-313.13 265.93,-358.15 307.25,-377.44 401.04,-421.21 523.62,-416.73 599.72,-407.84"/>
<polygon fill="#63b8ff" stroke="#63b8ff" points="600.06,-411.32 609.56,-406.63 599.2,-404.38 600.06,-411.32"/>
</a>
</g>
</g>
<!-- Node18 -->
<g id="Node000018" class="node">
<title>Node18</title>
<g id="a_Node000018"><a xlink:href="sdcard_8c.html#ac6d558621f33abf80f245adb3d0f4e67" target="_top" xlink:title="Escreve um único bloco de 512 bytes.">
<polygon fill="white" stroke="#666666" points="859.88,-178.44 789.12,-178.44 789.12,-158.44 859.88,-158.44 859.88,-178.44"/>
<text xml:space="preserve" text-anchor="middle" x="824.5" y="-164.94" font-family="Helvetica,sans-Serif" font-size="10.00">sd_blk_write</text>
</a>
</g>
</g>
<!-- Node17&#45;&gt;Node18 -->
<g id="edge21_Node000017_Node000018" class="edge">
<title>Node17&#45;&gt;Node18</title>
<g id="a_edge21_Node000017_Node000018"><a xlink:title=" ">
<path fill="none" stroke="#63b8ff" d="M213.26,-272.31C218.85,-238.52 241.56,-128.58 307.25,-73.44 365.37,-24.64 397.33,-40.88 472.5,-30.44 586.63,-14.58 630.46,27.5 731.75,-27.44 779.08,-53.11 805.82,-114.93 817.09,-147.52"/>
<polygon fill="#63b8ff" stroke="#63b8ff" points="813.64,-148.23 820.07,-156.65 820.29,-146.05 813.64,-148.23"/>
</a>
</g>
</g>
<!-- Node21 -->
<g id="Node000021" class="node">
<title>Node21</title>
<g id="a_Node000021"><a xlink:href="sdcard_8c.html#afa6b333a50132b6be29e88aa75fd90f1" target="_top" xlink:title="Aloca um cluster livre na FAT32 utilizando busca circular otimizada.">
<polygon fill="white" stroke="#666666" points="575.5,-292.44 472.5,-292.44 472.5,-272.44 575.5,-272.44 575.5,-292.44"/>
<text xml:space="preserve" text-anchor="middle" x="524" y="-278.94" font-family="Helvetica,sans-Serif" font-size="10.00">sd_fat_alloc_cluster</text>
</a>
</g>
</g>
<!-- Node17&#45;&gt;Node21 -->
<g id="edge26_Node000017_Node000021" class="edge">
<title>Node17&#45;&gt;Node21</title>
<g id="a_edge26_Node000017_Node000021"><a xlink:title=" ">
<path fill="none" stroke="#63b8ff" d="M254.74,-292.85C271.08,-296.32 289.92,-299.73 307.25,-301.44 364.42,-307.07 379.39,-307.63 436.5,-301.44 448.43,-300.14 461.13,-297.87 473.01,-295.34"/>
<polygon fill="#63b8ff" stroke="#63b8ff" points="473.64,-298.78 482.63,-293.18 472.11,-291.95 473.64,-298.78"/>
</a>
</g>
</g>
<!-- Node22 -->
<g id="Node000022" class="node">
<title>Node22</title>
<g id="a_Node000022"><a xlink:href="sdcard_8c.html#a144349126da9cc0bcd1dd34243989e98" target="_top" xlink:title="Atualiza uma entrada na Tabela de Alocação de Arquivos (FAT).">
<polygon fill="white" stroke="#666666" points="719.75,-292.44 623.5,-292.44 623.5,-272.44 719.75,-272.44 719.75,-292.44"/>
<text xml:space="preserve" text-anchor="middle" x="671.62" y="-278.94" font-family="Helvetica,sans-Serif" font-size="10.00">sd_fat_write_entry</text>
</a>
</g>
</g>
<!-- Node17&#45;&gt;Node22 -->
<g id="edge35_Node000017_Node000022" class="edge">
<title>Node17&#45;&gt;Node22</title>
<g id="a_edge35_Node000017_Node000022"><a xlink:title=" ">
<path fill="none" stroke="#63b8ff" d="M256.7,-272.01C272.59,-268.72 290.63,-265.43 307.25,-263.44 425.66,-249.23 457.3,-240.57 575.5,-256.44 593.56,-258.86 613.05,-263.76 629.65,-268.66"/>
<polygon fill="#63b8ff" stroke="#63b8ff" points="628.6,-272 639.19,-271.58 630.65,-265.31 628.6,-272"/>
</a>
</g>
</g>
<!-- Node23 -->
<g id="Node000023" class="node">
<title>Node23</title>
<g id="a_Node000023"><a xlink:href="sdcard_8c.html#a7e010bc4f9f46359dcefc007d522f58a" target="_top" xlink:title="Aloca um novo cluster e o encadeia ao final de uma sequência existente.">
<polygon fill="white" stroke="#666666" points="436.5,-292.44 307.25,-292.44 307.25,-272.44 436.5,-272.44 436.5,-292.44"/>
<text xml:space="preserve" text-anchor="middle" x="371.88" y="-278.94" font-family="Helvetica,sans-Serif" font-size="10.00">sd_fat_chain_new_cluster</text>
</a>
</g>
</g>
<!-- Node17&#45;&gt;Node23 -->
<g id="edge31_Node000017_Node000023" class="edge">
<title>Node17&#45;&gt;Node23</title>
<g id="a_edge31_Node000017_Node000023"><a xlink:title=" ">
<path fill="none" stroke="#63b8ff" d="M269.2,-282.44C277.68,-282.44 286.52,-282.44 295.3,-282.44"/>
<polygon fill="#63b8ff" stroke="#63b8ff" points="295.26,-285.94 305.26,-282.44 295.26,-278.94 295.26,-285.94"/>
</a>
</g>
</g>
<!-- Node24 -->
<g id="Node000024" class="node">
<title>Node24</title>
<g id="a_Node000024"><a xlink:href="sdcard_8c.html#afba53615c129e4e1a3ca0dd1c272ab11" target="_top" xlink:title=" ">
<polygon fill="white" stroke="#666666" points="423,-178.44 320.75,-178.44 320.75,-158.44 423,-158.44 423,-178.44"/>
<text xml:space="preserve" text-anchor="middle" x="371.88" y="-164.94" font-family="Helvetica,sans-Serif" font-size="10.00">sd_file_update_size</text>
</a>
</g>
</g>
<!-- Node17&#45;&gt;Node24 -->
<g id="edge36_Node000017_Node000024" class="edge">
<title>Node17&#45;&gt;Node24</title>
<g id="a_edge36_Node000017_Node000024"><a xlink:title=" ">
<path fill="none" stroke="#63b8ff" d="M220.2,-272.15C235.71,-253.83 270.53,-215.36 307.25,-192.44 312.83,-188.95 319,-185.85 325.23,-183.12"/>
<polygon fill="#63b8ff" stroke="#63b8ff" points="326.33,-186.45 334.29,-179.46 323.7,-179.96 326.33,-186.45"/>
</a>
</g>
</g>
<!-- Node25 -->
<g id="Node000025" class="node">
<title>Node25</title>
<g id="a_Node000025"><a xlink:href="sdcard_8c.html#a3794ef278970bdb3d1d50b3f10fc4e9f" target="_top" xlink:title="Localiza a entrada de um arquivo no diretório raiz.">
<polygon fill="white" stroke="#666666" points="570.25,-178.44 477.75,-178.44 477.75,-158.44 570.25,-158.44 570.25,-178.44"/>
<text xml:space="preserve" text-anchor="middle" x="524" y="-164.94" font-family="Helvetica,sans-Serif" font-size="10.00">sd_find_file_entry</text>
</a>
</g>
</g>
<!-- Node17&#45;&gt;Node25 -->
<g id="edge41_Node000017_Node000025" class="edge">
<title>Node17&#45;&gt;Node25</title>
<g id="a_edge41_Node000017_Node000025"><a xlink:title=" ">
<path fill="none" stroke="#63b8ff" d="M228.11,-272.08C246.71,-260.66 278.26,-242.33 307.25,-230.44 359.66,-208.94 422.1,-191.87 466.3,-181.13"/>
<polygon fill="#63b8ff" stroke="#63b8ff" points="467.02,-184.55 475.93,-178.82 465.39,-177.74 467.02,-184.55"/>
</a>
</g>
</g>
<!-- Node18&#45;&gt;Node12 -->
<g id="edge22_Node000018_Node000012" class="edge">
<title>Node18&#45;&gt;Node12</title>
<g id="a_edge22_Node000018_Node000012"><a xlink:title=" ">
<path fill="none" stroke="#63b8ff" d="M841.54,-178.87C859.69,-190.57 890.26,-209.93 917.25,-225.44 968.7,-255 1030.07,-286.77 1066.05,-305.06"/>
<polygon fill="#63b8ff" stroke="#63b8ff" points="1064.08,-307.98 1074.58,-309.38 1067.24,-301.74 1064.08,-307.98"/>
</a>
</g>
</g>
<!-- Node19 -->
<g id="Node000019" class="node">
<title>Node19</title>
<g id="a_Node000019"><a xlink:href="sdcard_8c.html#afcdb9112d386e92b29ad0cac9f5fc277" target="_top" xlink:title="Obtém o status atual do cartão SD (comando CMD13).">
<polygon fill="white" stroke="#666666" points="1009,-178.44 931.5,-178.44 931.5,-158.44 1009,-158.44 1009,-178.44"/>
<text xml:space="preserve" text-anchor="middle" x="970.25" y="-164.94" font-family="Helvetica,sans-Serif" font-size="10.00">sd_get_status</text>
</a>
</g>
</g>
<!-- Node18&#45;&gt;Node19 -->
<g id="edge23_Node000018_Node000019" class="edge">
<title>Node18&#45;&gt;Node19</title>
<g id="a_edge23_Node000018_Node000019"><a xlink:title=" ">
<path fill="none" stroke="#63b8ff" d="M860.3,-168.44C878.13,-168.44 900.17,-168.44 919.74,-168.44"/>
<polygon fill="#63b8ff" stroke="#63b8ff" points="919.73,-171.94 929.73,-168.44 919.73,-164.94 919.73,-171.94"/>
</a>
</g>
</g>
<!-- Node20 -->
<g id="Node000020" class="node">
<title>Node20</title>
<g id="a_Node000020"><a xlink:href="sdcard_8c.html#a8c2c0ebbeee0d06d43335bc9df4b3142" target="_top" xlink:title="Aguarda o cartão sair do estado de ocupado (busy).">
<polygon fill="white" stroke="#666666" points="1018.75,-216.44 921.75,-216.44 921.75,-196.44 1018.75,-196.44 1018.75,-216.44"/>
<text xml:space="preserve" text-anchor="middle" x="970.25" y="-202.94" font-family="Helvetica,sans-Serif" font-size="10.00">sd_spi_wait_ready</text>
</a>
</g>
</g>
<!-- Node18&#45;&gt;Node20 -->
<g id="edge25_Node000018_Node000020" class="edge">
<title>Node18&#45;&gt;Node20</title>
<g id="a_edge25_Node000018_Node000020"><a xlink:title=" ">
<path fill="none" stroke="#63b8ff" d="M860.3,-177.64C877.8,-182.26 899.35,-187.96 918.64,-193.06"/>
<polygon fill="#63b8ff" stroke="#63b8ff" points="917.67,-196.42 928.23,-195.59 919.46,-189.65 917.67,-196.42"/>
</a>
</g>
</g>
<!-- Node19&#45;&gt;Node12 -->
<g id="edge24_Node000019_Node000012" class="edge">
<title>Node19&#45;&gt;Node12</title>
<g id="a_edge24_Node000019_Node000012"><a xlink:title=" ">
<path fill="none" stroke="#63b8ff" d="M1009.39,-178.69C1014.38,-181.05 1019.16,-183.93 1023.25,-187.44 1058.82,-217.92 1080.35,-270.13 1090.21,-299.24"/>
<polygon fill="#63b8ff" stroke="#63b8ff" points="1086.86,-300.28 1093.26,-308.73 1093.53,-298.14 1086.86,-300.28"/>
</a>
</g>
</g>
<!-- Node21&#45;&gt;Node14 -->
<g id="edge27_Node000021_Node000014" class="edge">
<title>Node21&#45;&gt;Node14</title>
<g id="a_edge27_Node000021_Node000014"><a xlink:title=" ">
<path fill="none" stroke="#63b8ff" d="M567.48,-292.89C581.43,-296.02 597.06,-299.21 611.5,-301.44 668.75,-310.25 735.38,-315.4 778.44,-318.06"/>
<polygon fill="#63b8ff" stroke="#63b8ff" points="778.23,-321.55 788.42,-318.66 778.64,-314.57 778.23,-321.55"/>
</a>
</g>
</g>
<!-- Node21&#45;&gt;Node22 -->
<g id="edge28_Node000021_Node000022" class="edge">
<title>Node21&#45;&gt;Node22</title>
<g id="a_edge28_Node000021_Node000022"><a xlink:title=" ">
<path fill="none" stroke="#63b8ff" d="M575.93,-282.44C587.62,-282.44 600.13,-282.44 612.11,-282.44"/>
<polygon fill="#63b8ff" stroke="#63b8ff" points="611.87,-285.94 621.87,-282.44 611.87,-278.94 611.87,-285.94"/>
</a>
</g>
</g>
<!-- Node22&#45;&gt;Node14 -->
<g id="edge29_Node000022_Node000014" class="edge">
<title>Node22&#45;&gt;Node14</title>
<g id="a_edge29_Node000022_Node000014"><a xlink:title=" ">
<path fill="none" stroke="#63b8ff" d="M714.25,-292.92C734.42,-298 758.65,-304.1 779.16,-309.27"/>
<polygon fill="#63b8ff" stroke="#63b8ff" points="778.1,-312.61 788.65,-311.66 779.81,-305.82 778.1,-312.61"/>
</a>
</g>
</g>
<!-- Node22&#45;&gt;Node18 -->
<g id="edge30_Node000022_Node000018" class="edge">
<title>Node22&#45;&gt;Node18</title>
<g id="a_edge30_Node000022_Node000018"><a xlink:title=" ">
<path fill="none" stroke="#63b8ff" d="M686.28,-272.12C712.31,-252.45 769.27,-209.41 801.01,-185.43"/>
<polygon fill="#63b8ff" stroke="#63b8ff" points="802.91,-188.38 808.78,-179.56 798.69,-182.8 802.91,-188.38"/>
</a>
</g>
</g>
<!-- Node23&#45;&gt;Node21 -->
<g id="edge32_Node000023_Node000021" class="edge">
<title>Node23&#45;&gt;Node21</title>
<g id="a_edge32_Node000023_Node000021"><a xlink:title=" ">
<path fill="none" stroke="#63b8ff" d="M436.98,-282.44C444.9,-282.44 452.99,-282.44 460.89,-282.44"/>
<polygon fill="#63b8ff" stroke="#63b8ff" points="460.76,-285.94 470.76,-282.44 460.76,-278.94 460.76,-285.94"/>
</a>
</g>
</g>
<!-- Node23&#45;&gt;Node22 -->
<g id="edge33_Node000023_Node000022" class="edge">
<title>Node23&#45;&gt;Node22</title>
<g id="a_edge33_Node000023_Node000022"><a xlink:title=" ">
<path fill="none" stroke="#63b8ff" d="M417.75,-272.02C434.79,-268.55 454.44,-265.14 472.5,-263.44 518.07,-259.13 529.94,-258.93 575.5,-263.44 588.99,-264.77 603.39,-267.14 616.81,-269.77"/>
<polygon fill="#63b8ff" stroke="#63b8ff" points="615.82,-273.14 626.32,-271.71 617.22,-266.28 615.82,-273.14"/>
</a>
</g>
</g>
<!-- Node24&#45;&gt;Node18 -->
<g id="edge37_Node000024_Node000018" class="edge">
<title>Node24&#45;&gt;Node18</title>
<g id="a_edge37_Node000024_Node000018"><a xlink:title=" ">
<path fill="none" stroke="#63b8ff" d="M387.38,-157.98C436.99,-123.59 603.9,-19.17 731.75,-73.44 767.62,-88.66 796.31,-125.55 811.53,-148.62"/>
<polygon fill="#63b8ff" stroke="#63b8ff" points="808.44,-150.27 816.75,-156.84 814.35,-146.52 808.44,-150.27"/>
</a>
</g>
</g>
<!-- Node24&#45;&gt;Node25 -->
<g id="edge38_Node000024_Node000025" class="edge">
<title>Node24&#45;&gt;Node25</title>
<g id="a_edge38_Node000024_Node000025"><a xlink:title=" ">
<path fill="none" stroke="#63b8ff" d="M423.28,-168.44C437.13,-168.44 452.23,-168.44 466.4,-168.44"/>
<polygon fill="#63b8ff" stroke="#63b8ff" points="466.01,-171.94 476.01,-168.44 466.01,-164.94 466.01,-171.94"/>
</a>
</g>
</g>
<!-- Node25&#45;&gt;Node14 -->
<g id="edge39_Node000025_Node000014" class="edge">
<title>Node25&#45;&gt;Node14</title>
<g id="a_edge39_Node000025_Node000014"><a xlink:title=" ">
<path fill="none" stroke="#63b8ff" d="M549.71,-178.87C558.1,-182.76 567.4,-187.45 575.5,-192.44 592.76,-203.07 593.73,-210.68 611.5,-220.44 661.25,-247.76 680.63,-238.77 731.75,-263.44 755.86,-275.07 781.62,-291.46 799.68,-303.68"/>
<polygon fill="#63b8ff" stroke="#63b8ff" points="797.64,-306.52 807.87,-309.3 801.6,-300.75 797.64,-306.52"/>
</a>
</g>
</g>
<!-- Node25&#45;&gt;Node15 -->
<g id="edge40_Node000025_Node000015" class="edge">
<title>Node25&#45;&gt;Node15</title>
<g id="a_edge40_Node000025_Node000015"><a xlink:title=" ">
<path fill="none" stroke="#63b8ff" d="M531.64,-178.83C554.14,-214.06 627.84,-329.44 657.79,-376.34"/>
<polygon fill="#63b8ff" stroke="#63b8ff" points="654.8,-378.17 663.14,-384.71 660.7,-374.4 654.8,-378.17"/>
</a>
</g>
</g>
<!-- Node26&#45;&gt;Node14 -->
<g id="edge45_Node000026_Node000014" class="edge">
<title>Node26&#45;&gt;Node14</title>
<g id="a_edge45_Node000026_Node000014"><a xlink:title=" ">
<path fill="none" stroke="#63b8ff" d="M224.01,-558.78C241.26,-572.58 274.3,-596.35 307.25,-605.44 362.63,-620.71 380.87,-619.77 436.5,-605.44 581.65,-568.03 618.59,-540.73 731.75,-442.44 766.59,-412.17 796.48,-366.64 812.04,-340.61"/>
<polygon fill="#63b8ff" stroke="#63b8ff" points="815.01,-342.45 817.04,-332.05 808.97,-338.92 815.01,-342.45"/>
</a>
</g>
</g>
<!-- Node26&#45;&gt;Node15 -->
<g id="edge52_Node000026_Node000015" class="edge">
<title>Node26&#45;&gt;Node15</title>
<g id="a_edge52_Node000026_Node000015"><a xlink:title=" ">
<path fill="none" stroke="#63b8ff" d="M228.06,-537.95C246.61,-526.41 278.11,-507.97 307.25,-496.44 421.81,-451.08 457.1,-460.53 575.5,-426.44 592.81,-421.45 611.75,-415.57 628.15,-410.34"/>
<polygon fill="#63b8ff" stroke="#63b8ff" points="629.15,-413.69 637.6,-407.3 627,-407.03 629.15,-413.69"/>
</a>
</g>
</g>
<!-- Node26&#45;&gt;Node18 -->
<g id="edge46_Node000026_Node000018" class="edge">
<title>Node26&#45;&gt;Node18</title>
<g id="a_edge46_Node000026_Node000018"><a xlink:title=" ">
<path fill="none" stroke="#63b8ff" d="M249.38,-541.01C362.81,-518.32 695.9,-449.4 731.75,-415.44 770.32,-378.89 749.46,-351.32 767.75,-301.44 782.55,-261.07 802.57,-215.02 814.16,-189.07"/>
<polygon fill="#63b8ff" stroke="#63b8ff" points="817.31,-190.59 818.22,-180.04 810.93,-187.72 817.31,-190.59"/>
</a>
</g>
</g>
<!-- Node26&#45;&gt;Node26 -->
<g id="edge53_Node000026_Node000026" class="edge">
<title>Node26&#45;&gt;Node26</title>
<g id="a_edge53_Node000026_Node000026"><a xlink:title=" ">
<path fill="none" stroke="#63b8ff" d="M186.34,-558.77C175.91,-567.41 184.05,-576.44 210.75,-576.44 225.35,-576.44 234.4,-573.74 237.9,-569.88"/>
<polygon fill="#63b8ff" stroke="#63b8ff" points="241.32,-569.11 235.52,-560.24 234.52,-570.79 241.32,-569.11"/>
</a>
</g>
</g>
<!-- Node27 -->
<g id="Node000027" class="node">
<title>Node27</title>
<g id="a_Node000027"><a xlink:href="sdcard_8c.html#acd7b26d07ec9452df93bb131bbcb4feb" target="_top" xlink:title="Converte componentes de data para o formato FAT (16 bits). Formato: yyyyyyymmmmddddd (ano desde 1980)...">
<polygon fill="white" stroke="#666666" points="422.62,-596.44 321.12,-596.44 321.12,-576.44 422.62,-576.44 422.62,-596.44"/>
<text xml:space="preserve" text-anchor="middle" x="371.88" y="-582.94" font-family="Helvetica,sans-Serif" font-size="10.00">_sd_make_fat_date</text>
</a>
</g>
</g>
<!-- Node26&#45;&gt;Node27 -->
<g id="edge43_Node000026_Node000027" class="edge">
<title>Node26&#45;&gt;Node27</title>
<g id="a_edge43_Node000026_Node000027"><a xlink:title=" ">
<path fill="none" stroke="#63b8ff" d="M249.46,-557.44C269.26,-562.17 293.9,-568.05 315.79,-573.28"/>
<polygon fill="#63b8ff" stroke="#63b8ff" points="314.94,-576.68 325.48,-575.6 316.57,-569.87 314.94,-576.68"/>
</a>
</g>
</g>
<!-- Node28 -->
<g id="Node000028" class="node">
<title>Node28</title>
<g id="a_Node000028"><a xlink:href="sdcard_8c.html#ab9a99a1bb2c8bfaf686c5272fd5190ba" target="_top" xlink:title="Converte componentes de tempo para o formato FAT (16 bits). Formato: hhhhhmmmmmmsssss (segundos são d...">
<polygon fill="white" stroke="#666666" points="422.62,-558.44 321.12,-558.44 321.12,-538.44 422.62,-538.44 422.62,-558.44"/>
<text xml:space="preserve" text-anchor="middle" x="371.88" y="-544.94" font-family="Helvetica,sans-Serif" font-size="10.00">_sd_make_fat_time</text>
</a>
</g>
</g>
<!-- Node26&#45;&gt;Node28 -->
<g id="edge44_Node000026_Node000028" class="edge">
<title>Node26&#45;&gt;Node28</title>
<g id="a_edge44_Node000026_Node000028"><a xlink:title=" ">
<path fill="none" stroke="#63b8ff" d="M249.46,-548.44C267.37,-548.44 289.23,-548.44 309.44,-548.44"/>
<polygon fill="#63b8ff" stroke="#63b8ff" points="309.27,-551.94 319.27,-548.44 309.27,-544.94 309.27,-551.94"/>
</a>
</g>
</g>
<!-- Node29 -->
<g id="Node000029" class="node">
<title>Node29</title>
<g id="a_Node000029"><a xlink:href="sdcard_8c.html#a6dcdbe623e720ed71f92e745c440db85" target="_top" xlink:title="Expande o diretorio alocando um novo cluster.">
<polygon fill="white" stroke="#666666" points="424.88,-368.44 318.88,-368.44 318.88,-348.44 424.88,-348.44 424.88,-368.44"/>
<text xml:space="preserve" text-anchor="middle" x="371.88" y="-354.94" font-family="Helvetica,sans-Serif" font-size="10.00">sd_expand_directory</text>
</a>
</g>
</g>
<!-- Node26&#45;&gt;Node29 -->
<g id="edge47_Node000026_Node000029" class="edge">
<title>Node26&#45;&gt;Node29</title>
<g id="a_edge47_Node000026_Node000029"><a xlink:title=" ">
<path fill="none" stroke="#63b8ff" d="M220.53,-537.95C246.35,-507.13 322.25,-416.5 355.25,-377.09"/>
<polygon fill="#63b8ff" stroke="#63b8ff" points="357.61,-379.73 361.34,-369.82 352.24,-375.24 357.61,-379.73"/>
</a>
</g>
</g>
<!-- Node29&#45;&gt;Node15 -->
<g id="edge50_Node000029_Node000015" class="edge">
<title>Node29&#45;&gt;Node15</title>
<g id="a_edge50_Node000029_Node000015"><a xlink:title=" ">
<path fill="none" stroke="#63b8ff" d="M425.33,-366C440.54,-368.14 457.17,-370.43 472.5,-372.44 514.69,-377.96 561.99,-383.7 599.79,-388.19"/>
<polygon fill="#63b8ff" stroke="#63b8ff" points="599.36,-391.66 609.7,-389.36 600.18,-384.71 599.36,-391.66"/>
</a>
</g>
</g>
<!-- Node29&#45;&gt;Node18 -->
<g id="edge48_Node000029_Node000018" class="edge">
<title>Node29&#45;&gt;Node18</title>
<g id="a_edge48_Node000029_Node000018"><a xlink:title=" ">
<path fill="none" stroke="#63b8ff" d="M425.18,-362.98C499.64,-366.78 637.57,-363.74 731.75,-301.44 773.88,-273.56 802.14,-219.08 815.2,-189.23"/>
<polygon fill="#63b8ff" stroke="#63b8ff" points="818.36,-190.73 819,-180.16 811.91,-188.02 818.36,-190.73"/>
</a>
</g>
</g>
<!-- Node29&#45;&gt;Node21 -->
<g id="edge49_Node000029_Node000021" class="edge">
<title>Node29&#45;&gt;Node21</title>
<g id="a_edge49_Node000029_Node000021"><a xlink:title=" ">
<path fill="none" stroke="#63b8ff" d="M406.09,-348.05C416.14,-344.34 427.03,-339.75 436.5,-334.44 454.18,-324.53 455.24,-317.07 472.5,-306.44 477.43,-303.39 482.82,-300.47 488.17,-297.76"/>
<polygon fill="#63b8ff" stroke="#63b8ff" points="489.44,-301.03 496.93,-293.53 486.4,-294.73 489.44,-301.03"/>
</a>
</g>
</g>
<!-- Node29&#45;&gt;Node22 -->
<g id="edge51_Node000029_Node000022" class="edge">
<title>Node29&#45;&gt;Node22</title>
<g id="a_edge51_Node000029_Node000022"><a xlink:title=" ">
<path fill="none" stroke="#63b8ff" d="M413.96,-347.95C467.36,-334.32 560.62,-310.52 618.81,-295.66"/>
<polygon fill="#63b8ff" stroke="#63b8ff" points="619.67,-299.06 628.49,-293.19 617.94,-292.27 619.67,-299.06"/>
</a>
</g>
</g>
<!-- Node30&#45;&gt;Node14 -->
<g id="edge55_Node000030_Node000014" class="edge">
<title>Node30&#45;&gt;Node14</title>
<g id="a_edge55_Node000030_Node000014"><a xlink:title=" ">
<path fill="none" stroke="#63b8ff" d="M559.18,-140.87C564.85,-143.27 570.51,-146.12 575.5,-149.44 594.88,-162.31 591.55,-175.47 611.5,-187.44 659.03,-215.94 684.45,-191.56 731.75,-220.44 765.76,-241.2 794.87,-278.16 810.72,-300.87"/>
<polygon fill="#63b8ff" stroke="#63b8ff" points="807.68,-302.62 816.18,-308.93 813.47,-298.69 807.68,-302.62"/>
</a>
</g>
</g>
<!-- Node30&#45;&gt;Node15 -->
<g id="edge60_Node000030_Node000015" class="edge">
<title>Node30&#45;&gt;Node15</title>
<g id="a_edge60_Node000030_Node000015"><a xlink:title=" ">
<path fill="none" stroke="#63b8ff" d="M562.46,-139.63C567.36,-142.15 571.91,-145.36 575.5,-149.44 621.37,-201.55 584.81,-237.35 611.5,-301.44 623.1,-329.28 642.37,-358.29 655.75,-376.81"/>
<polygon fill="#63b8ff" stroke="#63b8ff" points="652.84,-378.76 661.59,-384.73 658.47,-374.61 652.84,-378.76"/>
</a>
</g>
</g>
<!-- Node30&#45;&gt;Node18 -->
<g id="edge56_Node000030_Node000018" class="edge">
<title>Node30&#45;&gt;Node18</title>
<g id="a_edge56_Node000030_Node000018"><a xlink:title=" ">
<path fill="none" stroke="#63b8ff" d="M562.12,-132.58C603.62,-135.28 672.75,-140.64 731.75,-149.44 746.88,-151.69 763.27,-154.85 777.96,-157.95"/>
<polygon fill="#63b8ff" stroke="#63b8ff" points="776.82,-161.28 787.33,-159.97 778.29,-154.44 776.82,-161.28"/>
</a>
</g>
</g>
<!-- Node31 -->
<g id="Node000031" class="node">
<title>Node31</title>
<g id="a_Node000031"><a xlink:href="sdcard_8c.html#a5afd6e264210d197c43e84b5e7dd8856" target="_top" xlink:title="Libera uma cadeia de clusters na tabela FAT, marcando&#45;os como disponíveis.">
<polygon fill="white" stroke="#666666" points="718.25,-178.44 625,-178.44 625,-158.44 718.25,-158.44 718.25,-178.44"/>
<text xml:space="preserve" text-anchor="middle" x="671.62" y="-164.94" font-family="Helvetica,sans-Serif" font-size="10.00">sd_fat_free_chain</text>
</a>
</g>
</g>
<!-- Node30&#45;&gt;Node31 -->
<g id="edge57_Node000030_Node000031" class="edge">
<title>Node30&#45;&gt;Node31</title>
<g id="a_edge57_Node000030_Node000031"><a xlink:title=" ">
<path fill="none" stroke="#63b8ff" d="M562.12,-140.12C579.51,-144.66 600.51,-150.14 619.38,-155.06"/>
<polygon fill="#63b8ff" stroke="#63b8ff" points="618.48,-158.45 629.04,-157.58 620.24,-151.67 618.48,-158.45"/>
</a>
</g>
</g>
<!-- Node31&#45;&gt;Node14 -->
<g id="edge58_Node000031_Node000014" class="edge">
<title>Node31&#45;&gt;Node14</title>
<g id="a_edge58_Node000031_Node000014"><a xlink:title=" ">
<path fill="none" stroke="#63b8ff" d="M707.55,-178.84C715.98,-182.33 724.61,-186.81 731.75,-192.44 769.69,-222.33 798.96,-271.92 813.46,-299.79"/>
<polygon fill="#63b8ff" stroke="#63b8ff" points="810.28,-301.26 817.91,-308.61 816.53,-298.1 810.28,-301.26"/>
</a>
</g>
</g>
<!-- Node31&#45;&gt;Node18 -->
<g id="edge59_Node000031_Node000018" class="edge">
<title>Node31&#45;&gt;Node18</title>
<g id="a_edge59_Node000031_Node000018"><a xlink:title=" ">
<path fill="none" stroke="#63b8ff" d="M718.71,-168.44C737.28,-168.44 758.67,-168.44 777.25,-168.44"/>
<polygon fill="#63b8ff" stroke="#63b8ff" points="777.2,-171.94 787.2,-168.44 777.2,-164.94 777.2,-171.94"/>
</a>
</g>
</g>
<!-- Node32&#45;&gt;Node18 -->
<g id="edge62_Node000032_Node000018" class="edge">
<title>Node32&#45;&gt;Node18</title>
<g id="a_edge62_Node000032_Node000018"><a xlink:title=" ">
<path fill="none" stroke="#63b8ff" d="M395.7,-82.09C454.68,-56.99 615.62,1.17 731.75,-54.44 772.05,-73.73 800.28,-120.32 814.01,-147.6"/>
<polygon fill="#63b8ff" stroke="#63b8ff" points="810.85,-149.11 818.34,-156.6 817.16,-146.07 810.85,-149.11"/>
</a>
</g>
</g>
<!-- Node32&#45;&gt;Node25 -->
<g id="edge66_Node000032_Node000025" class="edge">
<title>Node32&#45;&gt;Node25</title>
<g id="a_edge66_Node000032_Node000025"><a xlink:title=" ">
<path fill="none" stroke="#63b8ff" d="M389.01,-102.74C408.37,-114.85 442.03,-135.1 472.5,-149.44 475.62,-150.9 478.89,-152.34 482.19,-153.73"/>
<polygon fill="#63b8ff" stroke="#63b8ff" points="480.77,-156.93 491.36,-157.4 483.38,-150.43 480.77,-156.93"/>
</a>
</g>
</g>
<!-- Node33 -->
<g id="Node000033" class="node">
<title>Node33</title>
<g id="a_Node000033"><a xlink:href="sdcard_8c.html#a796684607b81e66d63286b77382e95f3" target="_top" xlink:title="Atualiza o setor FSInfo do FAT32.">
<polygon fill="white" stroke="#666666" points="725,-102.44 618.25,-102.44 618.25,-82.44 725,-82.44 725,-102.44"/>
<text xml:space="preserve" text-anchor="middle" x="671.62" y="-88.94" font-family="Helvetica,sans-Serif" font-size="10.00">sd_fat_update_fsinfo</text>
</a>
</g>
</g>
<!-- Node32&#45;&gt;Node33 -->
<g id="edge63_Node000032_Node000033" class="edge">
<title>Node32&#45;&gt;Node33</title>
<g id="a_edge63_Node000032_Node000033"><a xlink:title=" ">
<path fill="none" stroke="#63b8ff" d="M407.61,-92.44C456.25,-92.44 545.51,-92.44 606.43,-92.44"/>
<polygon fill="#63b8ff" stroke="#63b8ff" points="606.33,-95.94 616.33,-92.44 606.33,-88.94 606.33,-95.94"/>
</a>
</g>
</g>
<!-- Node33&#45;&gt;Node14 -->
<g id="edge64_Node000033_Node000014" class="edge">
<title>Node33&#45;&gt;Node14</title>
<g id="a_edge64_Node000033_Node000014"><a xlink:title=" ">
<path fill="none" stroke="#63b8ff" d="M685.52,-102.8C698.33,-113.53 717.98,-131.25 731.75,-149.44 769.41,-199.17 800.59,-266.42 814.96,-299.83"/>
<polygon fill="#63b8ff" stroke="#63b8ff" points="811.62,-300.91 818.74,-308.76 818.07,-298.18 811.62,-300.91"/>
</a>
</g>
</g>
<!-- Node33&#45;&gt;Node18 -->
<g id="edge65_Node000033_Node000018" class="edge">
<title>Node33&#45;&gt;Node18</title>
<g id="a_edge65_Node000033_Node000018"><a xlink:title=" ">
<path fill="none" stroke="#63b8ff" d="M700.62,-102.94C710.57,-106.89 721.78,-111.61 731.75,-116.44 754.21,-127.3 778.75,-141.33 796.8,-152.08"/>
<polygon fill="#63b8ff" stroke="#63b8ff" points="794.94,-155.05 805.31,-157.2 798.55,-149.05 794.94,-155.05"/>
</a>
</g>
</g>
<!-- Node34&#45;&gt;Node12 -->
<g id="edge68_Node000034_Node000012" class="edge">
<title>Node34&#45;&gt;Node12</title>
<g id="a_edge68_Node000034_Node000012"><a xlink:title=" ">
<path fill="none" stroke="#63b8ff" d="M976.96,-538.05C996.3,-502.88 1059.52,-387.92 1085.41,-340.83"/>
<polygon fill="#63b8ff" stroke="#63b8ff" points="1088.4,-342.66 1090.15,-332.21 1082.26,-339.29 1088.4,-342.66"/>
</a>
</g>
</g>
</g>
</svg>
