<?xml version="1.0" encoding="UTF-8" standalone="no"?>
<!DOCTYPE svg PUBLIC "-//W3C//DTD SVG 1.1//EN"
 "http://www.w3.org/Graphics/SVG/1.1/DTD/svg11.dtd">
<!-- Generated by graphviz version 14.1.4 (20260321.0153)
 -->
<!-- Title: main Pages: 1 -->
<svg width="668pt" height="218pt"
 viewBox="0.00 0.00 668.00 218.00" xmlns="http://www.w3.org/2000/svg" xmlns:xlink="http://www.w3.org/1999/xlink">
<g id="graph0" class="graph" transform="scale(1 1) rotate(0) translate(4 214)">
<title>main</title>
<!-- Node1 -->
<g id="Node000001" class="node">
<title>Node1</title>
<g id="a_Node000001"><a xlink:title=" ">
<polygon fill="#999999" stroke="#666666" points="37,-105 0,-105 0,-85 37,-85 37,-105"/>
<text xml:space="preserve" text-anchor="middle" x="18.5" y="-91.5" font-family="Helvetica,sans-Serif" font-size="10.00">main</text>
</a>
</g>
</g>
<!-- Node2 -->
<g id="Node000002" class="node">
<title>Node2</title>
<g id="a_Node000002"><a xlink:href="$exemplo_8c.html#a9ddddd20ec13dcafa912ee1d93f76a37" xlink:title=" ">
<polygon fill="white" stroke="#666666" points="149.75,-162 73,-162 73,-142 149.75,-142 149.75,-162"/>
<text xml:space="preserve" text-anchor="middle" x="111.38" y="-148.5" font-family="Helvetica,sans-Serif" font-size="10.00">my_delay_ms</text>
</a>
</g>
</g>
<!-- Node1&#45;&gt;Node2 -->
<g id="edge1_Node000001_Node000002" class="edge">
<title>Node1&#45;&gt;Node2</title>
<g id="a_edge1_Node000001_Node000002"><a xlink:title=" ">
<path fill="none" stroke="#63b8ff" d="M32.76,-105.25C43.37,-113.24 58.77,-124.39 73,-133 74.87,-134.13 76.81,-135.26 78.79,-136.36"/>
<polygon fill="#63b8ff" stroke="#63b8ff" points="76.93,-139.34 87.4,-140.97 80.23,-133.17 76.93,-139.34"/>
</a>
</g>
</g>
<!-- Node3 -->
<g id="Node000003" class="node">
<title>Node3</title>
<g id="a_Node000003"><a xlink:href="$sdcard_8c.html#a0de914bcd39f32ddd2f8412744267322" xlink:title="Prepara o contexto da biblioteca e inicializa a interface de hardware.">
<polygon fill="white" stroke="#666666" points="138.88,-124 83.88,-124 83.88,-104 138.88,-104 138.88,-124"/>
<text xml:space="preserve" text-anchor="middle" x="111.38" y="-110.5" font-family="Helvetica,sans-Serif" font-size="10.00">sd_begin</text>
</a>
</g>
</g>
<!-- Node1&#45;&gt;Node3 -->
<g id="edge2_Node000001_Node000003" class="edge">
<title>Node1&#45;&gt;Node3</title>
<g id="a_edge2_Node000001_Node000003"><a xlink:title=" ">
<path fill="none" stroke="#63b8ff" d="M37.45,-98.75C47.41,-100.84 60.19,-103.51 72.26,-106.03"/>
<polygon fill="#63b8ff" stroke="#63b8ff" points="71.51,-109.45 82.01,-108.07 72.94,-102.6 71.51,-109.45"/>
</a>
</g>
</g>
<!-- Node12 -->
<g id="Node000012" class="node">
<title>Node12</title>
<g id="a_Node000012"><a xlink:href="$sdcard_8c.html#ac0efead9da3dedebd72b376562fca898" xlink:title="Lista todos os arquivos presentes no diretório raiz via Serial.">
<polygon fill="white" stroke="#666666" points="141.5,-86 81.25,-86 81.25,-66 141.5,-66 141.5,-86"/>
<text xml:space="preserve" text-anchor="middle" x="111.38" y="-72.5" font-family="Helvetica,sans-Serif" font-size="10.00">sd_dir_list</text>
</a>
</g>
</g>
<!-- Node1&#45;&gt;Node12 -->
<g id="edge11_Node000001_Node000012" class="edge">
<title>Node1&#45;&gt;Node12</title>
<g id="a_edge11_Node000001_Node000012"><a xlink:title=" ">
<path fill="none" stroke="#63b8ff" d="M37.45,-91.25C46.76,-89.3 58.54,-86.84 69.9,-84.46"/>
<polygon fill="#63b8ff" stroke="#63b8ff" points="70.46,-87.92 79.53,-82.45 69.03,-81.07 70.46,-87.92"/>
</a>
</g>
</g>
<!-- Node15 -->
<g id="Node000015" class="node">
<title>Node15</title>
<g id="a_Node000015"><a xlink:href="$sdcard_8c.html#a8fb3672dbc5a29bab3e7614f4c655aff" xlink:title="Localiza e monta o sistema de arquivos FAT32 no cartão SD.">
<polygon fill="white" stroke="#666666" points="283.5,-20 208.25,-20 208.25,0 283.5,0 283.5,-20"/>
<text xml:space="preserve" text-anchor="middle" x="245.88" y="-6.5" font-family="Helvetica,sans-Serif" font-size="10.00">sd_fat_mount</text>
</a>
</g>
</g>
<!-- Node1&#45;&gt;Node15 -->
<g id="edge16_Node000001_Node000015" class="edge">
<title>Node1&#45;&gt;Node15</title>
<g id="a_edge16_Node000001_Node000015"><a xlink:title=" ">
<path fill="none" stroke="#63b8ff" d="M31.48,-84.61C41.84,-76.1 57.56,-64.31 73,-57 112.86,-38.12 161.63,-25.7 197.02,-18.39"/>
<polygon fill="#63b8ff" stroke="#63b8ff" points="197.41,-21.88 206.53,-16.49 196.04,-15.01 197.41,-21.88"/>
</a>
</g>
</g>
<!-- Node4 -->
<g id="Node000004" class="node">
<title>Node4</title>
<g id="a_Node000004"><a xlink:href="$sdcard_8c.html#afac6d670e786eaea1f07a4eb95b25ac6" xlink:title="Inicialização rápida para AVR (configura pinos + HAL interno).">
<polygon fill="white" stroke="#666666" points="282.38,-134 209.38,-134 209.38,-114 282.38,-114 282.38,-134"/>
<text xml:space="preserve" text-anchor="middle" x="245.88" y="-120.5" font-family="Helvetica,sans-Serif" font-size="10.00">sd_quick_init</text>
</a>
</g>
</g>
<!-- Node3&#45;&gt;Node4 -->
<g id="edge3_Node000003_Node000004" class="edge">
<title>Node3&#45;&gt;Node4</title>
<g id="a_edge3_Node000003_Node000004"><a xlink:title=" ">
<path fill="none" stroke="#63b8ff" d="M139.19,-116.02C156,-117.29 178.15,-118.96 197.82,-120.45"/>
<polygon fill="#63b8ff" stroke="#63b8ff" points="197.31,-123.92 207.55,-121.18 197.84,-116.94 197.31,-123.92"/>
</a>
</g>
</g>
<!-- Node5 -->
<g id="Node000005" class="node">
<title>Node5</title>
<g id="a_Node000005"><a xlink:href="$sdcard_8c.html#a6cf66af945c22b51e07f145a63869c5a" xlink:title="Desativa o Chip Select (CS) &#45; Pino PB2.">
<polygon fill="white" stroke="#666666" points="421.38,-210 350.62,-210 350.62,-190 421.38,-190 421.38,-210"/>
<text xml:space="preserve" text-anchor="middle" x="386" y="-196.5" font-family="Helvetica,sans-Serif" font-size="10.00">_sd_cs_high</text>
</a>
</g>
</g>
<!-- Node4&#45;&gt;Node5 -->
<g id="edge4_Node000004_Node000005" class="edge">
<title>Node4&#45;&gt;Node5</title>
<g id="a_edge4_Node000004_Node000005"><a xlink:title=" ">
<path fill="none" stroke="#63b8ff" d="M262.69,-134.3C281.29,-146.22 313.28,-166.12 342,-181 344.54,-182.31 347.18,-183.62 349.86,-184.91"/>
<polygon fill="#63b8ff" stroke="#63b8ff" points="348.27,-188.03 358.82,-189.03 351.2,-181.67 348.27,-188.03"/>
</a>
</g>
</g>
<!-- Node6 -->
<g id="Node000006" class="node">
<title>Node6</title>
<g id="a_Node000006"><a xlink:href="$sdcard_8c.html#aeabfda2a0d078f02c8fdedc7c840cc69" xlink:title="Ativa o Chip Select (CS) &#45; Pino PB2.">
<polygon fill="white" stroke="#666666" points="419.88,-172 352.12,-172 352.12,-152 419.88,-152 419.88,-172"/>
<text xml:space="preserve" text-anchor="middle" x="386" y="-158.5" font-family="Helvetica,sans-Serif" font-size="10.00">_sd_cs_low</text>
</a>
</g>
</g>
<!-- Node4&#45;&gt;Node6 -->
<g id="edge5_Node000004_Node000006" class="edge">
<title>Node4&#45;&gt;Node6</title>
<g id="a_edge5_Node000004_Node000006"><a xlink:title=" ">
<path fill="none" stroke="#63b8ff" d="M282.81,-133.88C300.63,-138.79 322.31,-144.75 341.11,-149.93"/>
<polygon fill="#63b8ff" stroke="#63b8ff" points="340.06,-153.27 350.63,-152.54 341.92,-146.52 340.06,-153.27"/>
</a>
</g>
</g>
<!-- Node7 -->
<g id="Node000007" class="node">
<title>Node7</title>
<g id="a_Node000007"><a xlink:href="$sdcard_8c.html#a8092c4cbf898989b2bf07325565e0cbd" xlink:title="Transmissão/recepção de um byte via SPI (função interna).">
<polygon fill="white" stroke="#666666" points="430,-134 342,-134 342,-114 430,-114 430,-134"/>
<text xml:space="preserve" text-anchor="middle" x="386" y="-120.5" font-family="Helvetica,sans-Serif" font-size="10.00">_sd_spi_transfer</text>
</a>
</g>
</g>
<!-- Node4&#45;&gt;Node7 -->
<g id="edge6_Node000004_Node000007" class="edge">
<title>Node4&#45;&gt;Node7</title>
<g id="a_edge6_Node000004_Node000007"><a xlink:title=" ">
<path fill="none" stroke="#63b8ff" d="M282.81,-124C297.28,-124 314.29,-124 330.24,-124"/>
<polygon fill="#63b8ff" stroke="#63b8ff" points="330.11,-127.5 340.11,-124 330.11,-120.5 330.11,-127.5"/>
</a>
</g>
</g>
<!-- Node8 -->
<g id="Node000008" class="node">
<title>Node8</title>
<g id="a_Node000008"><a xlink:href="$sdcard_8c.html#abb7664cb3bec0e4c545128d134f0e054" xlink:title="Tenta inicializar o cartão até 3 vezes com delay entre tentativas.">
<polygon fill="white" stroke="#666666" points="420.62,-96 351.38,-96 351.38,-76 420.62,-76 420.62,-96"/>
<text xml:space="preserve" text-anchor="middle" x="386" y="-82.5" font-family="Helvetica,sans-Serif" font-size="10.00">sd_init_retry</text>
</a>
</g>
</g>
<!-- Node4&#45;&gt;Node8 -->
<g id="edge7_Node000004_Node000008" class="edge">
<title>Node4&#45;&gt;Node8</title>
<g id="a_edge7_Node000004_Node000008"><a xlink:title=" ">
<path fill="none" stroke="#63b8ff" d="M282.81,-114.12C300.36,-109.28 321.67,-103.42 340.27,-98.31"/>
<polygon fill="#63b8ff" stroke="#63b8ff" points="340.98,-101.74 349.69,-95.71 339.12,-94.99 340.98,-101.74"/>
</a>
</g>
</g>
<!-- Node9 -->
<g id="Node000009" class="node">
<title>Node9</title>
<g id="a_Node000009"><a xlink:href="$sdcard_8c.html#a6a8f9df03a1b222e8ea45199b7431e19" xlink:title="Inicializa o cartão SD no modo SPI.">
<polygon fill="white" stroke="#666666" points="510.5,-96 466,-96 466,-76 510.5,-76 510.5,-96"/>
<text xml:space="preserve" text-anchor="middle" x="488.25" y="-82.5" font-family="Helvetica,sans-Serif" font-size="10.00">sd_init</text>
</a>
</g>
</g>
<!-- Node8&#45;&gt;Node9 -->
<g id="edge8_Node000008_Node000009" class="edge">
<title>Node8&#45;&gt;Node9</title>
<g id="a_edge8_Node000008_Node000009"><a xlink:title=" ">
<path fill="none" stroke="#63b8ff" d="M420.94,-86C431.67,-86 443.51,-86 454.18,-86"/>
<polygon fill="#63b8ff" stroke="#63b8ff" points="454.09,-89.5 464.09,-86 454.09,-82.5 454.09,-89.5"/>
</a>
</g>
</g>
<!-- Node10 -->
<g id="Node000010" class="node">
<title>Node10</title>
<g id="a_Node000010"><a xlink:href="$sdcard_8c.html#abf6c02ac2130c37a0bff2e6b9a6c25cb" xlink:title="Configura a velocidade do SPI no AVR (função interna).">
<polygon fill="white" stroke="#666666" points="660,-108 546.5,-108 546.5,-76 660,-76 660,-108"/>
<text xml:space="preserve" text-anchor="start" x="554.5" y="-94.5" font-family="Helvetica,sans-Serif" font-size="10.00">sd_avr_spi_set_speed</text>
<text xml:space="preserve" text-anchor="middle" x="603.25" y="-82.5" font-family="Helvetica,sans-Serif" font-size="10.00">_default</text>
</a>
</g>
</g>
<!-- Node9&#45;&gt;Node10 -->
<g id="edge9_Node000009_Node000010" class="edge">
<title>Node9&#45;&gt;Node10</title>
<g id="a_edge9_Node000009_Node000010"><a xlink:title=" ">
<path fill="none" stroke="#63b8ff" d="M510.77,-87.14C517.81,-87.52 526.03,-87.95 534.62,-88.41"/>
<polygon fill="#63b8ff" stroke="#63b8ff" points="534.36,-91.9 544.53,-88.94 534.73,-84.91 534.36,-91.9"/>
</a>
</g>
</g>
<!-- Node11 -->
<g id="Node000011" class="node">
<title>Node11</title>
<g id="a_Node000011"><a xlink:href="$sdcard_8c.html#aae1cfbcba5f92f4639e23fd8ed8fa3c0" xlink:title="Envia um comando SPI para o cartão SD e aguarda resposta R1.">
<polygon fill="white" stroke="#666666" points="641.62,-58 564.88,-58 564.88,-38 641.62,-38 641.62,-58"/>
<text xml:space="preserve" text-anchor="middle" x="603.25" y="-44.5" font-family="Helvetica,sans-Serif" font-size="10.00">sd_cmd_send</text>
</a>
</g>
</g>
<!-- Node9&#45;&gt;Node11 -->
<g id="edge10_Node000009_Node000011" class="edge">
<title>Node9&#45;&gt;Node11</title>
<g id="a_edge10_Node000009_Node000011"><a xlink:title=" ">
<path fill="none" stroke="#63b8ff" d="M510.77,-78.76C524.85,-74.03 543.7,-67.69 560.64,-61.99"/>
<polygon fill="#63b8ff" stroke="#63b8ff" points="561.62,-65.36 569.98,-58.85 559.39,-58.72 561.62,-65.36"/>
</a>
</g>
</g>
<!-- Node13 -->
<g id="Node000013" class="node">
<title>Node13</title>
<g id="a_Node000013"><a xlink:href="$sdcard_8c.html#aba9c8b9a5590e13424ab4a69280f0c1d" xlink:title="Lê um único bloco de 512 bytes do cartão (LBA).">
<polygon fill="white" stroke="#666666" points="420.25,-58 351.75,-58 351.75,-38 420.25,-38 420.25,-58"/>
<text xml:space="preserve" text-anchor="middle" x="386" y="-44.5" font-family="Helvetica,sans-Serif" font-size="10.00">sd_blk_read</text>
</a>
</g>
</g>
<!-- Node12&#45;&gt;Node13 -->
<g id="edge12_Node000012_Node000013" class="edge">
<title>Node12&#45;&gt;Node13</title>
<g id="a_edge12_Node000012_Node000013"><a xlink:title=" ">
<path fill="none" stroke="#63b8ff" d="M141.73,-76.36C179.81,-76.43 248.2,-75.22 306,-67 317.31,-65.39 329.38,-62.9 340.58,-60.24"/>
<polygon fill="#63b8ff" stroke="#63b8ff" points="341.1,-63.72 349.97,-57.92 339.42,-56.92 341.1,-63.72"/>
</a>
</g>
</g>
<!-- Node14 -->
<g id="Node000014" class="node">
<title>Node14</title>
<g id="a_Node000014"><a xlink:href="$sdcard_8c.html#a7b0d2ab1fae193461c611a4f2e6c9245" xlink:title="Obtém o próximo cluster na tabela FAT.">
<polygon fill="white" stroke="#666666" points="306,-58 185.75,-58 185.75,-38 306,-38 306,-58"/>
<text xml:space="preserve" text-anchor="middle" x="245.88" y="-44.5" font-family="Helvetica,sans-Serif" font-size="10.00">sd_fat_get_next_cluster</text>
</a>
</g>
</g>
<!-- Node12&#45;&gt;Node14 -->
<g id="edge14_Node000012_Node000014" class="edge">
<title>Node12&#45;&gt;Node14</title>
<g id="a_edge14_Node000012_Node000014"><a xlink:title=" ">
<path fill="none" stroke="#63b8ff" d="M141.78,-69.79C154.3,-67.14 169.38,-63.95 184.11,-60.84"/>
<polygon fill="#63b8ff" stroke="#63b8ff" points="184.71,-64.29 193.77,-58.8 183.26,-57.44 184.71,-64.29"/>
</a>
</g>
</g>
<!-- Node13&#45;&gt;Node11 -->
<g id="edge13_Node000013_Node000011" class="edge">
<title>Node13&#45;&gt;Node11</title>
<g id="a_edge13_Node000013_Node000011"><a xlink:title=" ">
<path fill="none" stroke="#63b8ff" d="M420.63,-48C456.15,-48 512.49,-48 553.01,-48"/>
<polygon fill="#63b8ff" stroke="#63b8ff" points="553,-51.5 563,-48 553,-44.5 553,-51.5"/>
</a>
</g>
</g>
<!-- Node14&#45;&gt;Node13 -->
<g id="edge15_Node000014_Node000013" class="edge">
<title>Node14&#45;&gt;Node13</title>
<g id="a_edge15_Node000014_Node000013"><a xlink:title=" ">
<path fill="none" stroke="#63b8ff" d="M306.25,-48C317.64,-48 329.38,-48 340.21,-48"/>
<polygon fill="#63b8ff" stroke="#63b8ff" points="340.03,-51.5 350.03,-48 340.03,-44.5 340.03,-51.5"/>
</a>
</g>
</g>
<!-- Node15&#45;&gt;Node13 -->
<g id="edge17_Node000015_Node000013" class="edge">
<title>Node15&#45;&gt;Node13</title>
<g id="a_edge17_Node000015_Node000013"><a xlink:title=" ">
<path fill="none" stroke="#63b8ff" d="M283.89,-20.18C301.36,-24.99 322.35,-30.76 340.66,-35.8"/>
<polygon fill="#63b8ff" stroke="#63b8ff" points="339.63,-39.15 350.2,-38.43 341.49,-32.4 339.63,-39.15"/>
</a>
</g>
</g>
</g>
</svg>
