<?xml version="1.0" encoding="UTF-8" standalone="no"?>
<!DOCTYPE svg PUBLIC "-//W3C//DTD SVG 1.1//EN"
 "http://www.w3.org/Graphics/SVG/1.1/DTD/svg11.dtd">
<!-- Generated by graphviz version 14.1.4 (20260321.0153)
 -->
<!-- Title: main Pages: 1 -->
<svg width="1327pt" height="818pt"
 viewBox="0.00 0.00 1327.00 818.00" xmlns="http://www.w3.org/2000/svg" xmlns:xlink="http://www.w3.org/1999/xlink">
<g id="graph0" class="graph" transform="scale(1 1) rotate(0) translate(4 813.69)">
<title>main</title>
<!-- Node1 -->
<g id="Node000001" class="node">
<title>Node1</title>
<g id="a_Node000001"><a xlink:title="Ponto de entrada do programa.">
<polygon fill="#999999" stroke="#666666" points="37,-153 0,-153 0,-133 37,-133 37,-153"/>
<text xml:space="preserve" text-anchor="middle" x="18.5" y="-139.5" font-family="Helvetica,sans-Serif" font-size="10.00">main</text>
</a>
</g>
</g>
<!-- Node2 -->
<g id="Node000002" class="node">
<title>Node2</title>
<g id="a_Node000002"><a xlink:href="exemplo__3_8c.html#a1888a7d50f8090bc2f0c577e2ce4074f" target="_top" xlink:title="Localiza ou cria o volume de log adequado no cartão.">
<polygon fill="white" stroke="#666666" points="342.75,-409 210.5,-409 210.5,-389 342.75,-389 342.75,-409"/>
<text xml:space="preserve" text-anchor="middle" x="276.62" y="-395.5" font-family="Helvetica,sans-Serif" font-size="10.00">gerenciar_proximo_volume</text>
</a>
</g>
</g>
<!-- Node1&#45;&gt;Node2 -->
<g id="edge1_Node000001_Node000002" class="edge">
<title>Node1&#45;&gt;Node2</title>
<g id="a_edge1_Node000001_Node000002"><a xlink:title=" ">
<path fill="none" stroke="#63b8ff" d="M29.86,-153.35C68.79,-192.27 206.72,-330.13 257.06,-380.44"/>
<polygon fill="#63b8ff" stroke="#63b8ff" points="254.52,-382.85 264.07,-387.45 259.47,-377.9 254.52,-382.85"/>
</a>
</g>
</g>
<!-- Node19 -->
<g id="Node000019" class="node">
<title>Node19</title>
<g id="a_Node000019"><a xlink:href="exemplo__1_8c.html#a9ddddd20ec13dcafa912ee1d93f76a37" target="_top" xlink:title=" ">
<polygon fill="white" stroke="#666666" points="162.12,-96 85.38,-96 85.38,-76 162.12,-76 162.12,-96"/>
<text xml:space="preserve" text-anchor="middle" x="123.75" y="-82.5" font-family="Helvetica,sans-Serif" font-size="10.00">my_delay_ms</text>
</a>
</g>
</g>
<!-- Node1&#45;&gt;Node19 -->
<g id="edge31_Node000001_Node000019" class="edge">
<title>Node1&#45;&gt;Node19</title>
<g id="a_edge31_Node000001_Node000019"><a xlink:title=" ">
<path fill="none" stroke="#63b8ff" d="M32.09,-132.66C42.57,-124.41 58.13,-112.95 73,-105 75.66,-103.58 78.45,-102.21 81.29,-100.9"/>
<polygon fill="#63b8ff" stroke="#63b8ff" points="82.47,-104.21 90.3,-97.06 79.73,-97.77 82.47,-104.21"/>
</a>
</g>
</g>
<!-- Node20 -->
<g id="Node000020" class="node">
<title>Node20</title>
<g id="a_Node000020"><a xlink:href="exemplo__3_8c.html#a9765d93a7e9eac42493b89eb0dc1ab12" target="_top" xlink:title="Formata e grava um registro CSV com data, hora e 4 sensores.">
<polygon fill="white" stroke="#666666" points="174.5,-473 73,-473 73,-441 174.5,-441 174.5,-473"/>
<text xml:space="preserve" text-anchor="start" x="81" y="-459.5" font-family="Helvetica,sans-Serif" font-size="10.00">registrar_dado_com</text>
<text xml:space="preserve" text-anchor="middle" x="123.75" y="-447.5" font-family="Helvetica,sans-Serif" font-size="10.00">_rotacao</text>
</a>
</g>
</g>
<!-- Node1&#45;&gt;Node20 -->
<g id="edge32_Node000001_Node000020" class="edge">
<title>Node1&#45;&gt;Node20</title>
<g id="a_edge32_Node000001_Node000020"><a xlink:title=" ">
<path fill="none" stroke="#63b8ff" d="M19.39,-153.45C19.42,-190.81 23.3,-320.26 73,-410 77.72,-418.52 84.51,-426.4 91.57,-433.17"/>
<polygon fill="#63b8ff" stroke="#63b8ff" points="88.95,-435.53 98.74,-439.59 93.62,-430.31 88.95,-435.53"/>
</a>
</g>
</g>
<!-- Node25 -->
<g id="Node000025" class="node">
<title>Node25</title>
<g id="a_Node000025"><a xlink:href="sdcard_8c.html#a0de914bcd39f32ddd2f8412744267322" target="_top" xlink:title="Prepara o contexto da biblioteca e inicializa a interface de hardware.">
<polygon fill="white" stroke="#666666" points="151.25,-134 96.25,-134 96.25,-114 151.25,-114 151.25,-134"/>
<text xml:space="preserve" text-anchor="middle" x="123.75" y="-120.5" font-family="Helvetica,sans-Serif" font-size="10.00">sd_begin</text>
</a>
</g>
</g>
<!-- Node1&#45;&gt;Node25 -->
<g id="edge50_Node000001_Node000025" class="edge">
<title>Node1&#45;&gt;Node25</title>
<g id="a_edge50_Node000001_Node000025"><a xlink:title=" ">
<path fill="none" stroke="#63b8ff" d="M37.48,-139.69C50.63,-137.27 68.93,-133.9 85.2,-130.91"/>
<polygon fill="#63b8ff" stroke="#63b8ff" points="85.37,-134.44 94.57,-129.19 84.1,-127.55 85.37,-134.44"/>
</a>
</g>
</g>
<!-- Node33 -->
<g id="Node000033" class="node">
<title>Node33</title>
<g id="a_Node000033"><a xlink:href="sdcard_8c.html#a8fb3672dbc5a29bab3e7614f4c655aff" target="_top" xlink:title="Localiza e monta o sistema de arquivos FAT32 no cartão SD.">
<polygon fill="white" stroke="#666666" points="943.75,-172 868.5,-172 868.5,-152 943.75,-152 943.75,-172"/>
<text xml:space="preserve" text-anchor="middle" x="906.12" y="-158.5" font-family="Helvetica,sans-Serif" font-size="10.00">sd_fat_mount</text>
</a>
</g>
</g>
<!-- Node1&#45;&gt;Node33 -->
<g id="edge59_Node000001_Node000033" class="edge">
<title>Node1&#45;&gt;Node33</title>
<g id="a_edge59_Node000001_Node000033"><a xlink:title=" ">
<path fill="none" stroke="#63b8ff" d="M37.48,-145.25C79.22,-150.29 186,-162 275.62,-162 275.62,-162 275.62,-162 596.88,-162 688.69,-162 795.88,-162 856.61,-162"/>
<polygon fill="#63b8ff" stroke="#63b8ff" points="856.6,-165.5 866.6,-162 856.6,-158.5 856.6,-165.5"/>
</a>
</g>
</g>
<!-- Node34 -->
<g id="Node000034" class="node">
<title>Node34</title>
<g id="a_Node000034"><a xlink:href="exemplo__1_8c.html#a0c0ca72359ddf28dcd15900dfba19343" target="_top" xlink:title=" ">
<polygon fill="white" stroke="#666666" points="149,-58 98.5,-58 98.5,-38 149,-38 149,-58"/>
<text xml:space="preserve" text-anchor="middle" x="123.75" y="-44.5" font-family="Helvetica,sans-Serif" font-size="10.00">uart_init</text>
</a>
</g>
</g>
<!-- Node1&#45;&gt;Node34 -->
<g id="edge61_Node000001_Node000034" class="edge">
<title>Node1&#45;&gt;Node34</title>
<g id="a_edge61_Node000001_Node000034"><a xlink:title=" ">
<path fill="none" stroke="#63b8ff" d="M24.25,-132.67C32.18,-116.52 49.57,-85.23 73,-67 77.38,-63.6 82.43,-60.74 87.61,-58.37"/>
<polygon fill="#63b8ff" stroke="#63b8ff" points="88.82,-61.66 96.82,-54.71 86.23,-55.15 88.82,-61.66"/>
</a>
</g>
</g>
<!-- Node3 -->
<g id="Node000003" class="node">
<title>Node3</title>
<g id="a_Node000003"><a xlink:href="sdcard_8c.html#a5228ed5a829330c001b1614c8476236c" target="_top" xlink:title="Cria um novo arquivo no diretório raiz com expansão de cluster.">
<polygon fill="white" stroke="#666666" points="475.38,-324 398.62,-324 398.62,-304 475.38,-304 475.38,-324"/>
<text xml:space="preserve" text-anchor="middle" x="437" y="-310.5" font-family="Helvetica,sans-Serif" font-size="10.00">sd_file_create</text>
</a>
</g>
</g>
<!-- Node2&#45;&gt;Node3 -->
<g id="edge2_Node000002_Node000003" class="edge">
<title>Node2&#45;&gt;Node3</title>
<g id="a_edge2_Node000002_Node000003"><a xlink:title=" ">
<path fill="none" stroke="#63b8ff" d="M297.04,-388.58C324.5,-373.84 374.88,-346.8 406.84,-329.65"/>
<polygon fill="#63b8ff" stroke="#63b8ff" points="408.43,-332.77 415.58,-324.96 405.12,-326.6 408.43,-332.77"/>
</a>
</g>
</g>
<!-- Node15 -->
<g id="Node000015" class="node">
<title>Node15</title>
<g id="a_Node000015"><a xlink:href="sdcard_8c.html#a6bb4db7466137c6d4346e2264d403230" target="_top" xlink:title="Verifica se arquivo existe.">
<polygon fill="white" stroke="#666666" points="633.88,-438 557.88,-438 557.88,-418 633.88,-418 633.88,-438"/>
<text xml:space="preserve" text-anchor="middle" x="595.88" y="-424.5" font-family="Helvetica,sans-Serif" font-size="10.00">sd_file_exists</text>
</a>
</g>
</g>
<!-- Node2&#45;&gt;Node15 -->
<g id="edge24_Node000002_Node000015" class="edge">
<title>Node2&#45;&gt;Node15</title>
<g id="a_edge24_Node000002_Node000015"><a xlink:title=" ">
<path fill="none" stroke="#63b8ff" d="M342.88,-404.47C386.11,-408.16 444.09,-413.2 495.25,-418 511.82,-419.56 529.94,-421.35 546.12,-422.98"/>
<polygon fill="#63b8ff" stroke="#63b8ff" points="545.7,-426.45 556.01,-423.98 546.41,-419.49 545.7,-426.45"/>
</a>
</g>
</g>
<!-- Node17 -->
<g id="Node000017" class="node">
<title>Node17</title>
<g id="a_Node000017"><a xlink:href="sdcard_8c.html#a62fe3cc3e143e0df2bd0bc2c8badc78a" target="_top" xlink:title="Obtém tamanho do arquivo.">
<polygon fill="white" stroke="#666666" points="480.25,-447 393.75,-447 393.75,-427 480.25,-427 480.25,-447"/>
<text xml:space="preserve" text-anchor="middle" x="437" y="-433.5" font-family="Helvetica,sans-Serif" font-size="10.00">sd_file_get_size</text>
</a>
</g>
</g>
<!-- Node2&#45;&gt;Node17 -->
<g id="edge28_Node000002_Node000017" class="edge">
<title>Node2&#45;&gt;Node17</title>
<g id="a_edge28_Node000002_Node000017"><a xlink:title=" ">
<path fill="none" stroke="#63b8ff" d="M321.32,-409.48C340.16,-414 362.38,-419.34 382.22,-424.1"/>
<polygon fill="#63b8ff" stroke="#63b8ff" points="381.26,-427.46 391.8,-426.39 382.89,-420.66 381.26,-427.46"/>
</a>
</g>
</g>
<!-- Node18 -->
<g id="Node000018" class="node">
<title>Node18</title>
<g id="a_Node000018"><a xlink:href="sdcard_8c.html#af2ad3468d37d6d256e022bafa756ac32" target="_top" xlink:title="Converte uma string convencional para o formato FAT 8.3.">
<polygon fill="white" stroke="#666666" points="480.62,-504 393.38,-504 393.38,-484 480.62,-484 480.62,-504"/>
<text xml:space="preserve" text-anchor="middle" x="437" y="-490.5" font-family="Helvetica,sans-Serif" font-size="10.00">sd_set_filename</text>
</a>
</g>
</g>
<!-- Node2&#45;&gt;Node18 -->
<g id="edge30_Node000002_Node000018" class="edge">
<title>Node2&#45;&gt;Node18</title>
<g id="a_edge30_Node000002_Node000018"><a xlink:title=" ">
<path fill="none" stroke="#63b8ff" d="M294.88,-409.35C322.37,-425.84 376.33,-458.21 408.98,-477.79"/>
<polygon fill="#63b8ff" stroke="#63b8ff" points="407.1,-480.74 417.47,-482.89 410.7,-474.74 407.1,-480.74"/>
</a>
</g>
</g>
<!-- Node3&#45;&gt;Node3 -->
<g id="edge23_Node000003_Node000003" class="edge">
<title>Node3&#45;&gt;Node3</title>
<g id="a_edge23_Node000003_Node000003"><a xlink:title=" ">
<path fill="none" stroke="#63b8ff" d="M411.76,-324.34C400.97,-332.98 409.38,-342 437,-342 452.1,-342 461.46,-339.3 465.08,-335.44"/>
<polygon fill="#63b8ff" stroke="#63b8ff" points="468.48,-334.63 462.62,-325.81 461.7,-336.36 468.48,-334.63"/>
</a>
</g>
</g>
<!-- Node4 -->
<g id="Node000004" class="node">
<title>Node4</title>
<g id="a_Node000004"><a xlink:href="sdcard_8c.html#acd7b26d07ec9452df93bb131bbcb4feb" target="_top" xlink:title="Converte componentes de data para o formato FAT (16 bits). Formato: yyyyyyymmmmddddd (ano desde 1980)...">
<polygon fill="white" stroke="#666666" points="646.62,-400 545.12,-400 545.12,-380 646.62,-380 646.62,-400"/>
<text xml:space="preserve" text-anchor="middle" x="595.88" y="-386.5" font-family="Helvetica,sans-Serif" font-size="10.00">_sd_make_fat_date</text>
</a>
</g>
</g>
<!-- Node3&#45;&gt;Node4 -->
<g id="edge3_Node000003_Node000004" class="edge">
<title>Node3&#45;&gt;Node4</title>
<g id="a_edge3_Node000003_Node000004"><a xlink:title=" ">
<path fill="none" stroke="#63b8ff" d="M452.21,-324.31C469.97,-336.79 501.62,-357.79 531.25,-371 535.22,-372.77 539.41,-374.43 543.65,-375.98"/>
<polygon fill="#63b8ff" stroke="#63b8ff" points="542.23,-379.19 552.82,-379.1 544.48,-372.56 542.23,-379.19"/>
</a>
</g>
</g>
<!-- Node5 -->
<g id="Node000005" class="node">
<title>Node5</title>
<g id="a_Node000005"><a xlink:href="sdcard_8c.html#ab9a99a1bb2c8bfaf686c5272fd5190ba" target="_top" xlink:title="Converte componentes de tempo para o formato FAT (16 bits). Formato: hhhhhmmmmmmsssss (segundos são d...">
<polygon fill="white" stroke="#666666" points="646.62,-362 545.12,-362 545.12,-342 646.62,-342 646.62,-362"/>
<text xml:space="preserve" text-anchor="middle" x="595.88" y="-348.5" font-family="Helvetica,sans-Serif" font-size="10.00">_sd_make_fat_time</text>
</a>
</g>
</g>
<!-- Node3&#45;&gt;Node5 -->
<g id="edge4_Node000003_Node000005" class="edge">
<title>Node3&#45;&gt;Node5</title>
<g id="a_edge4_Node000003_Node000005"><a xlink:title=" ">
<path fill="none" stroke="#63b8ff" d="M475.58,-323.1C495.1,-327.83 519.32,-333.7 540.82,-338.91"/>
<polygon fill="#63b8ff" stroke="#63b8ff" points="539.77,-342.25 550.31,-341.21 541.42,-335.45 539.77,-342.25"/>
</a>
</g>
</g>
<!-- Node6 -->
<g id="Node000006" class="node">
<title>Node6</title>
<g id="a_Node000006"><a xlink:href="sdcard_8c.html#aba9c8b9a5590e13424ab4a69280f0c1d" target="_top" xlink:title="Lê um único bloco de 512 bytes do cartão (LBA).">
<polygon fill="white" stroke="#666666" points="1071.88,-286 1003.38,-286 1003.38,-266 1071.88,-266 1071.88,-286"/>
<text xml:space="preserve" text-anchor="middle" x="1037.62" y="-272.5" font-family="Helvetica,sans-Serif" font-size="10.00">sd_blk_read</text>
</a>
</g>
</g>
<!-- Node3&#45;&gt;Node6 -->
<g id="edge5_Node000003_Node000006" class="edge">
<title>Node3&#45;&gt;Node6</title>
<g id="a_edge5_Node000003_Node000006"><a xlink:title=" ">
<path fill="none" stroke="#63b8ff" d="M446.16,-303.63C460.91,-285.78 493.96,-249.76 531.25,-235 621.2,-199.41 875.07,-186.71 966.25,-219 987.89,-226.66 1007.74,-244.13 1020.8,-257.72"/>
<polygon fill="#63b8ff" stroke="#63b8ff" points="1017.99,-259.84 1027.33,-264.84 1023.15,-255.1 1017.99,-259.84"/>
</a>
</g>
</g>
<!-- Node8 -->
<g id="Node000008" class="node">
<title>Node8</title>
<g id="a_Node000008"><a xlink:href="sdcard_8c.html#ac6d558621f33abf80f245adb3d0f4e67" target="_top" xlink:title="Escreve um único bloco de 512 bytes.">
<polygon fill="white" stroke="#666666" points="1073,-400 1002.25,-400 1002.25,-380 1073,-380 1073,-400"/>
<text xml:space="preserve" text-anchor="middle" x="1037.62" y="-386.5" font-family="Helvetica,sans-Serif" font-size="10.00">sd_blk_write</text>
</a>
</g>
</g>
<!-- Node3&#45;&gt;Node8 -->
<g id="edge7_Node000003_Node000008" class="edge">
<title>Node3&#45;&gt;Node8</title>
<g id="a_edge7_Node000003_Node000008"><a xlink:title=" ">
<path fill="none" stroke="#63b8ff" d="M475.85,-304.49C492.69,-300.73 512.84,-296.86 531.25,-295 725.37,-275.42 781.78,-290.46 966.25,-354 981.15,-359.13 996.85,-366.91 1009.62,-373.92"/>
<polygon fill="#63b8ff" stroke="#63b8ff" points="1007.84,-376.93 1018.27,-378.81 1011.29,-370.84 1007.84,-376.93"/>
</a>
</g>
</g>
<!-- Node11 -->
<g id="Node000011" class="node">
<title>Node11</title>
<g id="a_Node000011"><a xlink:href="sdcard_8c.html#a6dcdbe623e720ed71f92e745c440db85" target="_top" xlink:title="Expande o diretorio alocando um novo cluster.">
<polygon fill="white" stroke="#666666" points="648.88,-324 542.88,-324 542.88,-304 648.88,-304 648.88,-324"/>
<text xml:space="preserve" text-anchor="middle" x="595.88" y="-310.5" font-family="Helvetica,sans-Serif" font-size="10.00">sd_expand_directory</text>
</a>
</g>
</g>
<!-- Node3&#45;&gt;Node11 -->
<g id="edge12_Node000003_Node000011" class="edge">
<title>Node3&#45;&gt;Node11</title>
<g id="a_edge12_Node000003_Node000011"><a xlink:title=" ">
<path fill="none" stroke="#63b8ff" d="M475.58,-314C492.24,-314 512.33,-314 531.22,-314"/>
<polygon fill="#63b8ff" stroke="#63b8ff" points="530.97,-317.5 540.97,-314 530.97,-310.5 530.97,-317.5"/>
</a>
</g>
</g>
<!-- Node14 -->
<g id="Node000014" class="node">
<title>Node14</title>
<g id="a_Node000014"><a xlink:href="sdcard_8c.html#a7b0d2ab1fae193461c611a4f2e6c9245" target="_top" xlink:title="Obtém o próximo cluster na tabela FAT.">
<polygon fill="white" stroke="#666666" points="966.25,-248 846,-248 846,-228 966.25,-228 966.25,-248"/>
<text xml:space="preserve" text-anchor="middle" x="906.12" y="-234.5" font-family="Helvetica,sans-Serif" font-size="10.00">sd_fat_get_next_cluster</text>
</a>
</g>
</g>
<!-- Node3&#45;&gt;Node14 -->
<g id="edge22_Node000003_Node000014" class="edge">
<title>Node3&#45;&gt;Node14</title>
<g id="a_edge22_Node000003_Node000014"><a xlink:title=" ">
<path fill="none" stroke="#63b8ff" d="M451.96,-303.57C469.45,-291.15 500.84,-270.95 531.25,-262 633.47,-231.9 757.99,-230.49 834.39,-233.39"/>
<polygon fill="#63b8ff" stroke="#63b8ff" points="834.12,-236.88 844.26,-233.8 834.41,-229.88 834.12,-236.88"/>
</a>
</g>
</g>
<!-- Node7 -->
<g id="Node000007" class="node">
<title>Node7</title>
<g id="a_Node000007"><a xlink:href="sdcard_8c.html#aae1cfbcba5f92f4639e23fd8ed8fa3c0" target="_top" xlink:title="Envia um comando SPI para o cartão SD e aguarda resposta R1.">
<polygon fill="white" stroke="#666666" points="1318.75,-305 1242,-305 1242,-285 1318.75,-285 1318.75,-305"/>
<text xml:space="preserve" text-anchor="middle" x="1280.38" y="-291.5" font-family="Helvetica,sans-Serif" font-size="10.00">sd_cmd_send</text>
</a>
</g>
</g>
<!-- Node6&#45;&gt;Node7 -->
<g id="edge6_Node000006_Node000007" class="edge">
<title>Node6&#45;&gt;Node7</title>
<g id="a_edge6_Node000006_Node000007"><a xlink:title=" ">
<path fill="none" stroke="#63b8ff" d="M1072.35,-278.66C1113.39,-281.9 1183.02,-287.4 1230.07,-291.11"/>
<polygon fill="#63b8ff" stroke="#63b8ff" points="1229.76,-294.6 1240,-291.89 1230.31,-287.62 1229.76,-294.6"/>
</a>
</g>
</g>
<!-- Node8&#45;&gt;Node7 -->
<g id="edge8_Node000008_Node000007" class="edge">
<title>Node8&#45;&gt;Node7</title>
<g id="a_edge8_Node000008_Node000007"><a xlink:title=" ">
<path fill="none" stroke="#63b8ff" d="M1048.08,-379.87C1060.71,-366.96 1084.37,-344.9 1109,-333 1147.37,-314.46 1194.99,-304.82 1230.12,-299.9"/>
<polygon fill="#63b8ff" stroke="#63b8ff" points="1230.56,-303.37 1240.02,-298.6 1229.65,-296.43 1230.56,-303.37"/>
</a>
</g>
</g>
<!-- Node9 -->
<g id="Node000009" class="node">
<title>Node9</title>
<g id="a_Node000009"><a xlink:href="sdcard_8c.html#afcdb9112d386e92b29ad0cac9f5fc277" target="_top" xlink:title="Obtém o status atual do cartão SD (comando CMD13).">
<polygon fill="white" stroke="#666666" points="1196.25,-400 1118.75,-400 1118.75,-380 1196.25,-380 1196.25,-400"/>
<text xml:space="preserve" text-anchor="middle" x="1157.5" y="-386.5" font-family="Helvetica,sans-Serif" font-size="10.00">sd_get_status</text>
</a>
</g>
</g>
<!-- Node8&#45;&gt;Node9 -->
<g id="edge9_Node000008_Node000009" class="edge">
<title>Node8&#45;&gt;Node9</title>
<g id="a_edge9_Node000008_Node000009"><a xlink:title=" ">
<path fill="none" stroke="#63b8ff" d="M1073.35,-390C1083.84,-390 1095.56,-390 1106.82,-390"/>
<polygon fill="#63b8ff" stroke="#63b8ff" points="1106.8,-393.5 1116.8,-390 1106.8,-386.5 1106.8,-393.5"/>
</a>
</g>
</g>
<!-- Node10 -->
<g id="Node000010" class="node">
<title>Node10</title>
<g id="a_Node000010"><a xlink:href="sdcard_8c.html#a8c2c0ebbeee0d06d43335bc9df4b3142" target="_top" xlink:title="Aguarda o cartão sair do estado de ocupado (busy).">
<polygon fill="white" stroke="#666666" points="1206,-362 1109,-362 1109,-342 1206,-342 1206,-362"/>
<text xml:space="preserve" text-anchor="middle" x="1157.5" y="-348.5" font-family="Helvetica,sans-Serif" font-size="10.00">sd_spi_wait_ready</text>
</a>
</g>
</g>
<!-- Node8&#45;&gt;Node10 -->
<g id="edge11_Node000008_Node000010" class="edge">
<title>Node8&#45;&gt;Node10</title>
<g id="a_edge11_Node000008_Node000010"><a xlink:title=" ">
<path fill="none" stroke="#63b8ff" d="M1071.15,-379.52C1084.16,-375.32 1099.34,-370.43 1113.26,-365.94"/>
<polygon fill="#63b8ff" stroke="#63b8ff" points="1114.2,-369.31 1122.64,-362.91 1112.05,-362.65 1114.2,-369.31"/>
</a>
</g>
</g>
<!-- Node9&#45;&gt;Node7 -->
<g id="edge10_Node000009_Node000007" class="edge">
<title>Node9&#45;&gt;Node7</title>
<g id="a_edge10_Node000009_Node000007"><a xlink:title=" ">
<path fill="none" stroke="#63b8ff" d="M1190.12,-379.54C1195.62,-377.12 1201.13,-374.27 1206,-371 1229.29,-355.35 1250.94,-331.27 1264.6,-314.42"/>
<polygon fill="#63b8ff" stroke="#63b8ff" points="1267.29,-316.66 1270.74,-306.64 1261.8,-312.32 1267.29,-316.66"/>
</a>
</g>
</g>
<!-- Node11&#45;&gt;Node8 -->
<g id="edge13_Node000011_Node000008" class="edge">
<title>Node11&#45;&gt;Node8</title>
<g id="a_edge13_Node000011_Node000008"><a xlink:title=" ">
<path fill="none" stroke="#63b8ff" d="M649.05,-323.02C735.77,-338 908.17,-367.8 990.62,-382.05"/>
<polygon fill="#63b8ff" stroke="#63b8ff" points="989.93,-385.48 1000.38,-383.74 991.13,-378.58 989.93,-385.48"/>
</a>
</g>
</g>
<!-- Node12 -->
<g id="Node000012" class="node">
<title>Node12</title>
<g id="a_Node000012"><a xlink:href="sdcard_8c.html#afa6b333a50132b6be29e88aa75fd90f1" target="_top" xlink:title="Aloca um cluster livre na FAT32 utilizando busca circular otimizada.">
<polygon fill="white" stroke="#666666" points="804.75,-628 701.75,-628 701.75,-608 804.75,-608 804.75,-628"/>
<text xml:space="preserve" text-anchor="middle" x="753.25" y="-614.5" font-family="Helvetica,sans-Serif" font-size="10.00">sd_fat_alloc_cluster</text>
</a>
</g>
</g>
<!-- Node11&#45;&gt;Node12 -->
<g id="edge14_Node000011_Node000012" class="edge">
<title>Node11&#45;&gt;Node12</title>
<g id="a_edge14_Node000011_Node000012"><a xlink:title=" ">
<path fill="none" stroke="#63b8ff" d="M649.26,-324.42C653.42,-326.74 657.26,-329.56 660.5,-333 708.16,-383.48 675.01,-418.99 696.5,-485 709.74,-525.67 730.14,-571.29 742.24,-597.14"/>
<polygon fill="#63b8ff" stroke="#63b8ff" points="739.07,-598.63 746.52,-606.17 745.4,-595.63 739.07,-598.63"/>
</a>
</g>
</g>
<!-- Node13 -->
<g id="Node000013" class="node">
<title>Node13</title>
<g id="a_Node000013"><a xlink:href="sdcard_8c.html#a144349126da9cc0bcd1dd34243989e98" target="_top" xlink:title="Atualiza uma entrada na Tabela de Alocação de Arquivos (FAT).">
<polygon fill="white" stroke="#666666" points="954.25,-704 858,-704 858,-684 954.25,-684 954.25,-704"/>
<text xml:space="preserve" text-anchor="middle" x="906.12" y="-690.5" font-family="Helvetica,sans-Serif" font-size="10.00">sd_fat_write_entry</text>
</a>
</g>
</g>
<!-- Node11&#45;&gt;Node13 -->
<g id="edge21_Node000011_Node000013" class="edge">
<title>Node11&#45;&gt;Node13</title>
<g id="a_edge21_Node000011_Node000013"><a xlink:title=" ">
<path fill="none" stroke="#63b8ff" d="M646.54,-324.37C651.57,-326.69 656.34,-329.53 660.5,-333 687.65,-355.68 670.18,-380.36 696.5,-404 736.63,-440.05 771.75,-408.96 810,-447 874.91,-511.56 896.4,-625.23 902.74,-672.47"/>
<polygon fill="#63b8ff" stroke="#63b8ff" points="899.24,-672.7 903.94,-682.2 906.19,-671.85 899.24,-672.7"/>
</a>
</g>
</g>
<!-- Node11&#45;&gt;Node14 -->
<g id="edge19_Node000011_Node000014" class="edge">
<title>Node11&#45;&gt;Node14</title>
<g id="a_edge19_Node000011_Node000014"><a xlink:title=" ">
<path fill="none" stroke="#63b8ff" d="M639.41,-303.51C694.8,-289.86 791.64,-265.98 851.86,-251.13"/>
<polygon fill="#63b8ff" stroke="#63b8ff" points="852.68,-254.53 861.55,-248.74 851.01,-247.74 852.68,-254.53"/>
</a>
</g>
</g>
<!-- Node12&#45;&gt;Node6 -->
<g id="edge15_Node000012_Node000006" class="edge">
<title>Node12&#45;&gt;Node6</title>
<g id="a_edge15_Node000012_Node000006"><a xlink:title=" ">
<path fill="none" stroke="#63b8ff" d="M763.89,-607.62C775.14,-595.42 794.21,-574.5 810,-556 892.07,-459.82 985.85,-340.93 1021.66,-295.18"/>
<polygon fill="#63b8ff" stroke="#63b8ff" points="1024.25,-297.55 1027.65,-287.52 1018.73,-293.24 1024.25,-297.55"/>
</a>
</g>
</g>
<!-- Node12&#45;&gt;Node13 -->
<g id="edge16_Node000012_Node000013" class="edge">
<title>Node12&#45;&gt;Node13</title>
<g id="a_edge16_Node000012_Node000013"><a xlink:title=" ">
<path fill="none" stroke="#63b8ff" d="M774.91,-628.41C800.64,-641.37 844.83,-663.63 874.5,-678.57"/>
<polygon fill="#63b8ff" stroke="#63b8ff" points="872.86,-681.66 883.36,-683.04 876,-675.41 872.86,-681.66"/>
</a>
</g>
</g>
<!-- Node13&#45;&gt;Node6 -->
<g id="edge17_Node000013_Node000006" class="edge">
<title>Node13&#45;&gt;Node6</title>
<g id="a_edge17_Node000013_Node000006"><a xlink:title=" ">
<path fill="none" stroke="#63b8ff" d="M949.15,-683.56C955.73,-680.22 961.81,-675.81 966.25,-670 1006.89,-616.82 986.76,-436.11 1002.25,-371 1008.5,-344.72 1019.67,-315.67 1027.58,-296.7"/>
<polygon fill="#63b8ff" stroke="#63b8ff" points="1030.72,-298.27 1031.42,-287.7 1024.28,-295.53 1030.72,-298.27"/>
</a>
</g>
</g>
<!-- Node13&#45;&gt;Node8 -->
<g id="edge18_Node000013_Node000008" class="edge">
<title>Node13&#45;&gt;Node8</title>
<g id="a_edge18_Node000013_Node000008"><a xlink:title=" ">
<path fill="none" stroke="#63b8ff" d="M947.65,-683.52C954.63,-680.17 961.23,-675.77 966.25,-670 1032.8,-593.46 1038.11,-462.98 1037.42,-411.65"/>
<polygon fill="#63b8ff" stroke="#63b8ff" points="1040.92,-411.81 1037.18,-401.9 1033.92,-411.98 1040.92,-411.81"/>
</a>
</g>
</g>
<!-- Node14&#45;&gt;Node6 -->
<g id="edge20_Node000014_Node000006" class="edge">
<title>Node14&#45;&gt;Node6</title>
<g id="a_edge20_Node000014_Node000006"><a xlink:title=" ">
<path fill="none" stroke="#63b8ff" d="M942.85,-248.48C958.18,-252.98 976.25,-258.28 992.41,-263.03"/>
<polygon fill="#63b8ff" stroke="#63b8ff" points="991.2,-266.32 1001.78,-265.78 993.17,-259.6 991.2,-266.32"/>
</a>
</g>
</g>
<!-- Node16 -->
<g id="Node000016" class="node">
<title>Node16</title>
<g id="a_Node000016"><a xlink:href="sdcard_8c.html#a3794ef278970bdb3d1d50b3f10fc4e9f" target="_top" xlink:title="Localiza a entrada de um arquivo no diretório raiz.">
<polygon fill="white" stroke="#666666" points="799.5,-476 707,-476 707,-456 799.5,-456 799.5,-476"/>
<text xml:space="preserve" text-anchor="middle" x="753.25" y="-462.5" font-family="Helvetica,sans-Serif" font-size="10.00">sd_find_file_entry</text>
</a>
</g>
</g>
<!-- Node15&#45;&gt;Node16 -->
<g id="edge25_Node000015_Node000016" class="edge">
<title>Node15&#45;&gt;Node16</title>
<g id="a_edge25_Node000015_Node000016"><a xlink:title=" ">
<path fill="none" stroke="#63b8ff" d="M634.09,-437.1C653.34,-441.81 677.2,-447.64 698.42,-452.84"/>
<polygon fill="#63b8ff" stroke="#63b8ff" points="697.55,-456.23 708.1,-455.2 699.22,-449.43 697.55,-456.23"/>
</a>
</g>
</g>
<!-- Node16&#45;&gt;Node6 -->
<g id="edge26_Node000016_Node000006" class="edge">
<title>Node16&#45;&gt;Node6</title>
<g id="a_edge26_Node000016_Node000006"><a xlink:title=" ">
<path fill="none" stroke="#63b8ff" d="M758.83,-455.67C770.07,-431.45 801.43,-370.61 846,-338 889.68,-306.04 950.64,-290.03 991.76,-282.39"/>
<polygon fill="#63b8ff" stroke="#63b8ff" points="992.33,-285.84 1001.57,-280.66 991.12,-278.95 992.33,-285.84"/>
</a>
</g>
</g>
<!-- Node16&#45;&gt;Node14 -->
<g id="edge27_Node000016_Node000014" class="edge">
<title>Node16&#45;&gt;Node14</title>
<g id="a_edge27_Node000016_Node000014"><a xlink:title=" ">
<path fill="none" stroke="#63b8ff" d="M758.38,-455.64C774.17,-416.19 830.65,-276.79 846,-262 849.37,-258.76 853.23,-255.93 857.33,-253.47"/>
<polygon fill="#63b8ff" stroke="#63b8ff" points="858.59,-256.76 865.88,-249.07 855.38,-250.54 858.59,-256.76"/>
</a>
</g>
</g>
<!-- Node17&#45;&gt;Node16 -->
<g id="edge29_Node000017_Node000016" class="edge">
<title>Node17&#45;&gt;Node16</title>
<g id="a_edge29_Node000017_Node000016"><a xlink:title=" ">
<path fill="none" stroke="#63b8ff" d="M480.69,-441.77C496.56,-443.49 514.72,-445.4 531.25,-447 586.96,-452.38 650.65,-457.78 695.3,-461.44"/>
<polygon fill="#63b8ff" stroke="#63b8ff" points="694.75,-464.9 705,-462.23 695.32,-457.93 694.75,-464.9"/>
</a>
</g>
</g>
<!-- Node20&#45;&gt;Node2 -->
<g id="edge34_Node000020_Node000002" class="edge">
<title>Node20&#45;&gt;Node2</title>
<g id="a_edge34_Node000020_Node000002"><a xlink:title=" ">
<path fill="none" stroke="#63b8ff" d="M165.67,-440.54C179.84,-434.9 195.84,-428.61 210.5,-423 218.72,-419.86 227.54,-416.56 235.96,-413.44"/>
<polygon fill="#63b8ff" stroke="#63b8ff" points="237.12,-416.74 245.29,-410.01 234.7,-410.18 237.12,-416.74"/>
</a>
</g>
</g>
<!-- Node20&#45;&gt;Node17 -->
<g id="edge48_Node000020_Node000017" class="edge">
<title>Node20&#45;&gt;Node17</title>
<g id="a_edge48_Node000020_Node000017"><a xlink:title=" ">
<path fill="none" stroke="#63b8ff" d="M174.76,-453.79C231.63,-450.13 324.12,-444.19 382.43,-440.44"/>
<polygon fill="#63b8ff" stroke="#63b8ff" points="382.35,-443.95 392.11,-439.82 381.9,-436.97 382.35,-443.95"/>
</a>
</g>
</g>
<!-- Node20&#45;&gt;Node18 -->
<g id="edge49_Node000020_Node000018" class="edge">
<title>Node20&#45;&gt;Node18</title>
<g id="a_edge49_Node000020_Node000018"><a xlink:title=" ">
<path fill="none" stroke="#63b8ff" d="M154.32,-473.32C170.41,-481.27 190.97,-489.97 210.5,-494 268.11,-505.9 335.78,-503.83 381.86,-500.09"/>
<polygon fill="#63b8ff" stroke="#63b8ff" points="381.92,-503.6 391.58,-499.24 381.31,-496.62 381.92,-503.6"/>
</a>
</g>
</g>
<!-- Node21 -->
<g id="Node000021" class="node">
<title>Node21</title>
<g id="a_Node000021"><a xlink:href="exemplo__3_8c.html#a71f1a2293174059d753ba1816e7df0e2" target="_top" xlink:title="Callback que fornece os dados formatados para a biblioteca SD.">
<polygon fill="white" stroke="#666666" points="338.62,-485 214.62,-485 214.62,-465 338.62,-465 338.62,-485"/>
<text xml:space="preserve" text-anchor="middle" x="276.62" y="-471.5" font-family="Helvetica,sans-Serif" font-size="10.00">callback_escrita_rotacao</text>
</a>
</g>
</g>
<!-- Node20&#45;&gt;Node21 -->
<g id="edge33_Node000020_Node000021" class="edge">
<title>Node20&#45;&gt;Node21</title>
<g id="a_edge33_Node000020_Node000021"><a xlink:title=" ">
<path fill="none" stroke="#63b8ff" d="M174.99,-462.99C184.05,-464.07 193.65,-465.22 203.19,-466.36"/>
<polygon fill="#63b8ff" stroke="#63b8ff" points="202.48,-469.8 212.82,-467.51 203.31,-462.85 202.48,-469.8"/>
</a>
</g>
</g>
<!-- Node22 -->
<g id="Node000022" class="node">
<title>Node22</title>
<g id="a_Node000022"><a xlink:href="sdcard_8c.html#a3cb6e9bbb79a21ebf8cf7357ed262726" target="_top" xlink:title="Adiciona dados ao final de um arquivo, expandindo clusters se necessário.">
<polygon fill="white" stroke="#666666" points="495.25,-628 378.75,-628 378.75,-608 495.25,-608 495.25,-628"/>
<text xml:space="preserve" text-anchor="middle" x="437" y="-614.5" font-family="Helvetica,sans-Serif" font-size="10.00">sd_file_append_stream</text>
</a>
</g>
</g>
<!-- Node20&#45;&gt;Node22 -->
<g id="edge35_Node000020_Node000022" class="edge">
<title>Node20&#45;&gt;Node22</title>
<g id="a_edge35_Node000020_Node000022"><a xlink:title=" ">
<path fill="none" stroke="#63b8ff" d="M147.85,-473.38C164.8,-485.07 188.58,-500.82 210.5,-513 275.54,-549.14 355.18,-584.19 400.3,-603.25"/>
<polygon fill="#63b8ff" stroke="#63b8ff" points="398.76,-606.4 409.34,-607.05 401.47,-599.95 398.76,-606.4"/>
</a>
</g>
</g>
<!-- Node22&#45;&gt;Node6 -->
<g id="edge36_Node000022_Node000006" class="edge">
<title>Node22&#45;&gt;Node6</title>
<g id="a_edge36_Node000022_Node000006"><a xlink:title=" ">
<path fill="none" stroke="#63b8ff" d="M467.72,-628.4C533.14,-649.44 693.06,-690.73 810,-637 906.87,-592.49 911.26,-546.33 966.25,-455 974.81,-440.78 1012.51,-340.73 1028.93,-296.7"/>
<polygon fill="#63b8ff" stroke="#63b8ff" points="1032.13,-298.13 1032.35,-287.54 1025.58,-295.68 1032.13,-298.13"/>
</a>
</g>
</g>
<!-- Node22&#45;&gt;Node8 -->
<g id="edge37_Node000022_Node000008" class="edge">
<title>Node22&#45;&gt;Node8</title>
<g id="a_edge37_Node000022_Node000008"><a xlink:title=" ">
<path fill="none" stroke="#63b8ff" d="M442.16,-628.28C452.73,-652.84 483.23,-714.66 531.25,-739 704,-826.58 827.61,-848.24 966.25,-713 1009.77,-670.55 1029.46,-477.12 1034.95,-411.7"/>
<polygon fill="#63b8ff" stroke="#63b8ff" points="1038.43,-412.16 1035.74,-401.91 1031.45,-411.6 1038.43,-412.16"/>
</a>
</g>
</g>
<!-- Node22&#45;&gt;Node12 -->
<g id="edge38_Node000022_Node000012" class="edge">
<title>Node22&#45;&gt;Node12</title>
<g id="a_edge38_Node000022_Node000012"><a xlink:title=" ">
<path fill="none" stroke="#63b8ff" d="M495.64,-618C550.76,-618 633.62,-618 690.17,-618"/>
<polygon fill="#63b8ff" stroke="#63b8ff" points="689.95,-621.5 699.95,-618 689.95,-614.5 689.95,-621.5"/>
</a>
</g>
</g>
<!-- Node22&#45;&gt;Node13 -->
<g id="edge43_Node000022_Node000013" class="edge">
<title>Node22&#45;&gt;Node13</title>
<g id="a_edge43_Node000022_Node000013"><a xlink:title=" ">
<path fill="none" stroke="#63b8ff" d="M444.08,-628.32C457.01,-649.1 489.48,-695.47 531.25,-713 643.32,-760.03 791.15,-728.22 862.7,-707.65"/>
<polygon fill="#63b8ff" stroke="#63b8ff" points="863.46,-711.07 872.06,-704.89 861.48,-704.36 863.46,-711.07"/>
</a>
</g>
</g>
<!-- Node22&#45;&gt;Node14 -->
<g id="edge42_Node000022_Node000014" class="edge">
<title>Node22&#45;&gt;Node14</title>
<g id="a_edge42_Node000022_Node000014"><a xlink:title=" ">
<path fill="none" stroke="#63b8ff" d="M495.59,-614.85C578.61,-607.03 730.63,-579.78 810,-485 845.48,-442.64 826.37,-417.65 846,-366 860.78,-327.11 882,-283.44 894.59,-258.47"/>
<polygon fill="#63b8ff" stroke="#63b8ff" points="897.61,-260.26 899.03,-249.76 891.37,-257.08 897.61,-260.26"/>
</a>
</g>
</g>
<!-- Node22&#45;&gt;Node16 -->
<g id="edge47_Node000022_Node000016" class="edge">
<title>Node22&#45;&gt;Node16</title>
<g id="a_edge47_Node000022_Node000016"><a xlink:title=" ">
<path fill="none" stroke="#63b8ff" d="M445.14,-607.62C459.24,-587.97 492.62,-545.3 531.25,-523 582.45,-493.44 649.04,-478.98 695.68,-472.05"/>
<polygon fill="#63b8ff" stroke="#63b8ff" points="695.88,-475.56 705.3,-470.7 694.91,-468.63 695.88,-475.56"/>
</a>
</g>
</g>
<!-- Node23 -->
<g id="Node000023" class="node">
<title>Node23</title>
<g id="a_Node000023"><a xlink:href="sdcard_8c.html#a7e010bc4f9f46359dcefc007d522f58a" target="_top" xlink:title="Aloca um novo cluster e o encadeia ao final de uma sequência existente.">
<polygon fill="white" stroke="#666666" points="660.5,-704 531.25,-704 531.25,-684 660.5,-684 660.5,-704"/>
<text xml:space="preserve" text-anchor="middle" x="595.88" y="-690.5" font-family="Helvetica,sans-Serif" font-size="10.00">sd_fat_chain_new_cluster</text>
</a>
</g>
</g>
<!-- Node22&#45;&gt;Node23 -->
<g id="edge39_Node000022_Node000023" class="edge">
<title>Node22&#45;&gt;Node23</title>
<g id="a_edge39_Node000022_Node000023"><a xlink:title=" ">
<path fill="none" stroke="#63b8ff" d="M454.79,-628.36C473.16,-639.46 503.68,-657.2 531.25,-670 538.46,-673.35 546.27,-676.59 553.87,-679.56"/>
<polygon fill="#63b8ff" stroke="#63b8ff" points="552.39,-682.74 562.98,-683.01 554.87,-676.19 552.39,-682.74"/>
</a>
</g>
</g>
<!-- Node24 -->
<g id="Node000024" class="node">
<title>Node24</title>
<g id="a_Node000024"><a xlink:href="sdcard_8c.html#afba53615c129e4e1a3ca0dd1c272ab11" target="_top" xlink:title=" ">
<polygon fill="white" stroke="#666666" points="647,-552 544.75,-552 544.75,-532 647,-532 647,-552"/>
<text xml:space="preserve" text-anchor="middle" x="595.88" y="-538.5" font-family="Helvetica,sans-Serif" font-size="10.00">sd_file_update_size</text>
</a>
</g>
</g>
<!-- Node22&#45;&gt;Node24 -->
<g id="edge44_Node000022_Node000024" class="edge">
<title>Node22&#45;&gt;Node24</title>
<g id="a_edge44_Node000022_Node000024"><a xlink:title=" ">
<path fill="none" stroke="#63b8ff" d="M454.79,-607.64C473.16,-596.54 503.68,-578.8 531.25,-566 538.46,-562.65 546.27,-559.41 553.87,-556.44"/>
<polygon fill="#63b8ff" stroke="#63b8ff" points="554.87,-559.81 562.98,-552.99 552.39,-553.26 554.87,-559.81"/>
</a>
</g>
</g>
<!-- Node23&#45;&gt;Node12 -->
<g id="edge40_Node000023_Node000012" class="edge">
<title>Node23&#45;&gt;Node12</title>
<g id="a_edge40_Node000023_Node000012"><a xlink:title=" ">
<path fill="none" stroke="#63b8ff" d="M618.15,-683.59C644.77,-670.57 690.55,-648.18 721.11,-633.23"/>
<polygon fill="#63b8ff" stroke="#63b8ff" points="722.42,-636.49 729.87,-628.95 719.35,-630.2 722.42,-636.49"/>
</a>
</g>
</g>
<!-- Node23&#45;&gt;Node13 -->
<g id="edge41_Node000023_Node000013" class="edge">
<title>Node23&#45;&gt;Node13</title>
<g id="a_edge41_Node000023_Node000013"><a xlink:title=" ">
<path fill="none" stroke="#63b8ff" d="M660.74,-694C715.45,-694 793.59,-694 846.67,-694"/>
<polygon fill="#63b8ff" stroke="#63b8ff" points="846.42,-697.5 856.42,-694 846.42,-690.5 846.42,-697.5"/>
</a>
</g>
</g>
<!-- Node24&#45;&gt;Node8 -->
<g id="edge45_Node000024_Node000008" class="edge">
<title>Node24&#45;&gt;Node8</title>
<g id="a_edge45_Node000024_Node000008"><a xlink:title=" ">
<path fill="none" stroke="#63b8ff" d="M643.15,-531.54C686.68,-521.25 753.46,-504.31 810,-485 880.71,-460.85 960.75,-425.27 1004.25,-405.21"/>
<polygon fill="#63b8ff" stroke="#63b8ff" points="1005.52,-408.48 1013.12,-401.1 1002.58,-402.13 1005.52,-408.48"/>
</a>
</g>
</g>
<!-- Node24&#45;&gt;Node16 -->
<g id="edge46_Node000024_Node000016" class="edge">
<title>Node24&#45;&gt;Node16</title>
<g id="a_edge46_Node000024_Node000016"><a xlink:title=" ">
<path fill="none" stroke="#63b8ff" d="M627.37,-531.59C638,-527.67 649.92,-522.96 660.5,-518 683.23,-507.35 707.93,-493.19 725.97,-482.34"/>
<polygon fill="#63b8ff" stroke="#63b8ff" points="727.74,-485.36 734.46,-477.17 724.1,-479.38 727.74,-485.36"/>
</a>
</g>
</g>
<!-- Node26 -->
<g id="Node000026" class="node">
<title>Node26</title>
<g id="a_Node000026"><a xlink:href="sdcard_8c.html#afac6d670e786eaea1f07a4eb95b25ac6" target="_top" xlink:title="Inicialização rápida para AVR (configura pinos + HAL interno).">
<polygon fill="white" stroke="#666666" points="313.12,-96 240.12,-96 240.12,-76 313.12,-76 313.12,-96"/>
<text xml:space="preserve" text-anchor="middle" x="276.62" y="-82.5" font-family="Helvetica,sans-Serif" font-size="10.00">sd_quick_init</text>
</a>
</g>
</g>
<!-- Node25&#45;&gt;Node26 -->
<g id="edge51_Node000025_Node000026" class="edge">
<title>Node25&#45;&gt;Node26</title>
<g id="a_edge51_Node000025_Node000026"><a xlink:title=" ">
<path fill="none" stroke="#63b8ff" d="M151.72,-117.21C173.14,-111.81 203.58,-104.15 228.93,-97.76"/>
<polygon fill="#63b8ff" stroke="#63b8ff" points="229.5,-101.23 238.34,-95.39 227.79,-94.44 229.5,-101.23"/>
</a>
</g>
</g>
<!-- Node27 -->
<g id="Node000027" class="node">
<title>Node27</title>
<g id="a_Node000027"><a xlink:href="sdcard_8c.html#a6cf66af945c22b51e07f145a63869c5a" target="_top" xlink:title="Desativa o Chip Select (CS) &#45; Pino PB2.">
<polygon fill="white" stroke="#666666" points="472.38,-58 401.62,-58 401.62,-38 472.38,-38 472.38,-58"/>
<text xml:space="preserve" text-anchor="middle" x="437" y="-44.5" font-family="Helvetica,sans-Serif" font-size="10.00">_sd_cs_high</text>
</a>
</g>
</g>
<!-- Node26&#45;&gt;Node27 -->
<g id="edge52_Node000026_Node000027" class="edge">
<title>Node26&#45;&gt;Node27</title>
<g id="a_edge52_Node000026_Node000027"><a xlink:title=" ">
<path fill="none" stroke="#63b8ff" d="M313.56,-77.38C336.25,-71.93 365.78,-64.85 390.15,-59"/>
<polygon fill="#63b8ff" stroke="#63b8ff" points="390.91,-62.42 399.82,-56.68 389.28,-55.61 390.91,-62.42"/>
</a>
</g>
</g>
<!-- Node28 -->
<g id="Node000028" class="node">
<title>Node28</title>
<g id="a_Node000028"><a xlink:href="sdcard_8c.html#aeabfda2a0d078f02c8fdedc7c840cc69" target="_top" xlink:title="Ativa o Chip Select (CS) &#45; Pino PB2.">
<polygon fill="white" stroke="#666666" points="470.88,-20 403.12,-20 403.12,0 470.88,0 470.88,-20"/>
<text xml:space="preserve" text-anchor="middle" x="437" y="-6.5" font-family="Helvetica,sans-Serif" font-size="10.00">_sd_cs_low</text>
</a>
</g>
</g>
<!-- Node26&#45;&gt;Node28 -->
<g id="edge53_Node000026_Node000028" class="edge">
<title>Node26&#45;&gt;Node28</title>
<g id="a_edge53_Node000026_Node000028"><a xlink:title=" ">
<path fill="none" stroke="#63b8ff" d="M293.93,-75.5C313.51,-63.21 347.61,-42.79 378.75,-29 383.06,-27.09 387.62,-25.27 392.22,-23.56"/>
<polygon fill="#63b8ff" stroke="#63b8ff" points="393.2,-26.92 401.46,-20.29 390.87,-20.32 393.2,-26.92"/>
</a>
</g>
</g>
<!-- Node29 -->
<g id="Node000029" class="node">
<title>Node29</title>
<g id="a_Node000029"><a xlink:href="sdcard_8c.html#a8092c4cbf898989b2bf07325565e0cbd" target="_top" xlink:title="Transmissão/recepção de um byte via SPI (função interna).">
<polygon fill="white" stroke="#666666" points="481,-96 393,-96 393,-76 481,-76 481,-96"/>
<text xml:space="preserve" text-anchor="middle" x="437" y="-82.5" font-family="Helvetica,sans-Serif" font-size="10.00">_sd_spi_transfer</text>
</a>
</g>
</g>
<!-- Node26&#45;&gt;Node29 -->
<g id="edge54_Node000026_Node000029" class="edge">
<title>Node26&#45;&gt;Node29</title>
<g id="a_edge54_Node000026_Node000029"><a xlink:title=" ">
<path fill="none" stroke="#63b8ff" d="M313.56,-86C333.54,-86 358.8,-86 381.19,-86"/>
<polygon fill="#63b8ff" stroke="#63b8ff" points="381.08,-89.5 391.08,-86 381.08,-82.5 381.08,-89.5"/>
</a>
</g>
</g>
<!-- Node30 -->
<g id="Node000030" class="node">
<title>Node30</title>
<g id="a_Node000030"><a xlink:href="sdcard_8c.html#abb7664cb3bec0e4c545128d134f0e054" target="_top" xlink:title="Tenta inicializar o cartão at 3 vezes com delay entre tentativas.">
<polygon fill="white" stroke="#666666" points="471.62,-134 402.38,-134 402.38,-114 471.62,-114 471.62,-134"/>
<text xml:space="preserve" text-anchor="middle" x="437" y="-120.5" font-family="Helvetica,sans-Serif" font-size="10.00">sd_init_retry</text>
</a>
</g>
</g>
<!-- Node26&#45;&gt;Node30 -->
<g id="edge55_Node000026_Node000030" class="edge">
<title>Node26&#45;&gt;Node30</title>
<g id="a_edge55_Node000026_Node000030"><a xlink:title=" ">
<path fill="none" stroke="#63b8ff" d="M313.56,-94.62C336.49,-100.12 366.39,-107.3 390.91,-113.18"/>
<polygon fill="#63b8ff" stroke="#63b8ff" points="390.09,-116.58 400.63,-115.51 391.72,-109.78 390.09,-116.58"/>
</a>
</g>
</g>
<!-- Node31 -->
<g id="Node000031" class="node">
<title>Node31</title>
<g id="a_Node000031"><a xlink:href="sdcard_8c.html#a6a8f9df03a1b222e8ea45199b7431e19" target="_top" xlink:title="Inicializa o cartão SD no modo SPI.">
<polygon fill="white" stroke="#666666" points="618.12,-134 573.62,-134 573.62,-114 618.12,-114 618.12,-134"/>
<text xml:space="preserve" text-anchor="middle" x="595.88" y="-120.5" font-family="Helvetica,sans-Serif" font-size="10.00">sd_init</text>
</a>
</g>
</g>
<!-- Node30&#45;&gt;Node31 -->
<g id="edge56_Node000030_Node000031" class="edge">
<title>Node30&#45;&gt;Node31</title>
<g id="a_edge56_Node000030_Node000031"><a xlink:title=" ">
<path fill="none" stroke="#63b8ff" d="M472.04,-124C498.77,-124 535.74,-124 562.13,-124"/>
<polygon fill="#63b8ff" stroke="#63b8ff" points="561.92,-127.5 571.92,-124 561.92,-120.5 561.92,-127.5"/>
</a>
</g>
</g>
<!-- Node31&#45;&gt;Node7 -->
<g id="edge58_Node000031_Node000007" class="edge">
<title>Node31&#45;&gt;Node7</title>
<g id="a_edge58_Node000031_Node000007"><a xlink:title=" ">
<path fill="none" stroke="#63b8ff" d="M618.55,-124C668.88,-124 797.56,-124 905.12,-124 905.12,-124 905.12,-124 1038.62,-124 1142.29,-124 1232.39,-230.69 1265.68,-275.52"/>
<polygon fill="#63b8ff" stroke="#63b8ff" points="1262.65,-277.3 1271.35,-283.34 1268.31,-273.19 1262.65,-277.3"/>
</a>
</g>
</g>
<!-- Node32 -->
<g id="Node000032" class="node">
<title>Node32</title>
<g id="a_Node000032"><a xlink:href="sdcard_8c.html#abf6c02ac2130c37a0bff2e6b9a6c25cb" target="_top" xlink:title="Configura a velocidade do SPI no AVR (função interna).">
<polygon fill="white" stroke="#666666" points="810,-96 696.5,-96 696.5,-64 810,-64 810,-96"/>
<text xml:space="preserve" text-anchor="start" x="704.5" y="-82.5" font-family="Helvetica,sans-Serif" font-size="10.00">sd_avr_spi_set_speed</text>
<text xml:space="preserve" text-anchor="middle" x="753.25" y="-70.5" font-family="Helvetica,sans-Serif" font-size="10.00">_default</text>
</a>
</g>
</g>
<!-- Node31&#45;&gt;Node32 -->
<g id="edge57_Node000031_Node000032" class="edge">
<title>Node31&#45;&gt;Node32</title>
<g id="a_edge57_Node000031_Node000032"><a xlink:title=" ">
<path fill="none" stroke="#63b8ff" d="M618.48,-117.88C635.83,-112.97 661.18,-105.79 685.16,-99"/>
<polygon fill="#63b8ff" stroke="#63b8ff" points="685.92,-102.42 694.59,-96.33 684.01,-95.69 685.92,-102.42"/>
</a>
</g>
</g>
<!-- Node33&#45;&gt;Node6 -->
<g id="edge60_Node000033_Node000006" class="edge">
<title>Node33&#45;&gt;Node6</title>
<g id="a_edge60_Node000033_Node000006"><a xlink:title=" ">
<path fill="none" stroke="#63b8ff" d="M941.58,-172.48C950.11,-175.99 958.91,-180.46 966.25,-186 991.75,-205.24 1013.02,-235.89 1025.29,-255.98"/>
<polygon fill="#63b8ff" stroke="#63b8ff" points="1022.14,-257.53 1030.23,-264.36 1028.16,-253.97 1022.14,-257.53"/>
</a>
</g>
</g>
</g>
</svg>
