<?xml version="1.0" encoding="UTF-8" standalone="no"?>
<!DOCTYPE svg PUBLIC "-//W3C//DTD SVG 1.1//EN"
 "http://www.w3.org/Graphics/SVG/1.1/DTD/svg11.dtd">
<!-- Generated by graphviz version 14.1.4 (20260321.0153)
 -->
<!-- Title: examples/exemplo_3.c Pages: 1 -->
<svg width="476pt" height="140pt"
 viewBox="0.00 0.00 476.00 140.00" xmlns="http://www.w3.org/2000/svg" xmlns:xlink="http://www.w3.org/1999/xlink">

<svg id="main" version="1.1" xmlns="http://www.w3.org/2000/svg" xmlns:xlink="http://www.w3.org/1999/xlink" xml:space="preserve">

<style type="text/css"><![CDATA[
.node, .edge {opacity: 0.7;}
.node.selected, .edge.selected {opacity: 1;}
.edge:hover path { stroke: red; }
.edge:hover polygon { stroke: red; fill: red; }
]]></style>
<script type="application/ecmascript" xlink:href="svg.min.js"/>
<svg id="graph" class="graph">
<g id="graph0" class="graph" transform="scale(1 1) rotate(0) translate(4 136)">
<title>examples/exemplo_3.c</title>
<!-- Node1 -->
<g id="Node000001" class="node">
<title>Node1</title>
<g id="a_Node000001"><a xlink:title=" ">
<polygon fill="#999999" stroke="#666666" points="254.38,-132 137.88,-132 137.88,-112 254.38,-112 254.38,-132"/>
<text xml:space="preserve" text-anchor="middle" x="196.12" y="-118.5" font-family="Helvetica,sans-Serif" font-size="10.00">examples/exemplo_3.c</text>
</a>
</g>
</g>
<!-- Node2 -->
<g id="Node000002" class="node">
<title>Node2</title>
<g id="a_Node000002"><a xlink:title=" ">
<polygon fill="#e0e0e0" stroke="#999999" points="48.25,-20 0,-20 0,0 48.25,0 48.25,-20"/>
<text xml:space="preserve" text-anchor="middle" x="24.12" y="-6.5" font-family="Helvetica,sans-Serif" font-size="10.00">avr/io.h</text>
</a>
</g>
</g>
<!-- Node1&#45;&gt;Node2 -->
<g id="edge1_Node000001_Node000002" class="edge">
<title>Node1&#45;&gt;Node2</title>
<g id="a_edge1_Node000001_Node000002"><a xlink:title=" ">
<path fill="none" stroke="#63b8ff" d="M181.46,-111.62C151.76,-92.63 84.24,-49.45 48.07,-26.31"/>
<polygon fill="#63b8ff" stroke="#63b8ff" points="50.34,-23.61 40.03,-21.17 46.57,-29.51 50.34,-23.61"/>
</a>
</g>
</g>
<!-- Node3 -->
<g id="Node000003" class="node">
<title>Node3</title>
<g id="a_Node000003"><a xlink:title=" ">
<polygon fill="#e0e0e0" stroke="#999999" points="128.38,-20 65.88,-20 65.88,0 128.38,0 128.38,-20"/>
<text xml:space="preserve" text-anchor="middle" x="97.12" y="-6.5" font-family="Helvetica,sans-Serif" font-size="10.00">util/delay.h</text>
</a>
</g>
</g>
<!-- Node1&#45;&gt;Node3 -->
<g id="edge2_Node000001_Node000003" class="edge">
<title>Node1&#45;&gt;Node3</title>
<g id="a_edge2_Node000001_Node000003"><a xlink:title=" ">
<path fill="none" stroke="#63b8ff" d="M187.68,-111.62C171.17,-93.27 134.36,-52.37 113.1,-28.75"/>
<polygon fill="#63b8ff" stroke="#63b8ff" points="115.85,-26.57 106.56,-21.48 110.64,-31.25 115.85,-26.57"/>
</a>
</g>
</g>
<!-- Node4 -->
<g id="Node000004" class="node">
<title>Node4</title>
<g id="a_Node000004"><a xlink:title=" ">
<polygon fill="#e0e0e0" stroke="#999999" points="191.75,-20 146.5,-20 146.5,0 191.75,0 191.75,-20"/>
<text xml:space="preserve" text-anchor="middle" x="169.12" y="-6.5" font-family="Helvetica,sans-Serif" font-size="10.00">stdio.h</text>
</a>
</g>
</g>
<!-- Node1&#45;&gt;Node4 -->
<g id="edge3_Node000001_Node000004" class="edge">
<title>Node1&#45;&gt;Node4</title>
<g id="a_edge3_Node000001_Node000004"><a xlink:title=" ">
<path fill="none" stroke="#63b8ff" d="M193.82,-111.62C189.48,-93.92 179.98,-55.24 174.11,-31.32"/>
<polygon fill="#63b8ff" stroke="#63b8ff" points="177.56,-30.7 171.78,-21.82 170.77,-32.37 177.56,-30.7"/>
</a>
</g>
</g>
<!-- Node5 -->
<g id="Node000005" class="node">
<title>Node5</title>
<g id="a_Node000005"><a xlink:title=" ">
<polygon fill="#e0e0e0" stroke="#999999" points="468.25,-20 420,-20 420,0 468.25,0 468.25,-20"/>
<text xml:space="preserve" text-anchor="middle" x="444.12" y="-6.5" font-family="Helvetica,sans-Serif" font-size="10.00">string.h</text>
</a>
</g>
</g>
<!-- Node1&#45;&gt;Node5 -->
<g id="edge4_Node000001_Node000005" class="edge">
<title>Node1&#45;&gt;Node5</title>
<g id="a_edge4_Node000001_Node000005"><a xlink:title=" ">
<path fill="none" stroke="#63b8ff" d="M208.38,-111.64C226.92,-97.84 263.63,-71.95 298.12,-56 317.92,-46.84 372.55,-30.88 409.08,-20.63"/>
<polygon fill="#63b8ff" stroke="#63b8ff" points="409.63,-24.11 418.32,-18.05 407.75,-17.37 409.63,-24.11"/>
</a>
</g>
</g>
<!-- Node6 -->
<g id="Node000006" class="node">
<title>Node6</title>
<g id="a_Node000006"><a xlink:title=" ">
<polygon fill="#e0e0e0" stroke="#999999" points="354.88,-76 307.38,-76 307.38,-56 354.88,-56 354.88,-76"/>
<text xml:space="preserve" text-anchor="middle" x="331.12" y="-62.5" font-family="Helvetica,sans-Serif" font-size="10.00">stdlib.h</text>
</a>
</g>
</g>
<!-- Node1&#45;&gt;Node6 -->
<g id="edge5_Node000001_Node000006" class="edge">
<title>Node1&#45;&gt;Node6</title>
<g id="a_edge5_Node000001_Node000006"><a xlink:title=" ">
<path fill="none" stroke="#63b8ff" d="M219.64,-111.59C241,-103.05 272.76,-90.35 296.92,-80.68"/>
<polygon fill="#63b8ff" stroke="#63b8ff" points="298.04,-84.01 306.02,-77.04 295.44,-77.51 298.04,-84.01"/>
</a>
</g>
</g>
<!-- Node7 -->
<g id="Node000007" class="node">
<title>Node7</title>
<g id="a_Node000007"><a xlink:href="sdcard_8h.html" target="_top" xlink:title="Driver SD Card SPI + FAT32 (Root&#45;only) para AVR.">
<polygon fill="white" stroke="#666666" points="250.88,-76 197.38,-76 197.38,-56 250.88,-56 250.88,-76"/>
<text xml:space="preserve" text-anchor="middle" x="224.12" y="-62.5" font-family="Helvetica,sans-Serif" font-size="10.00">sdcard.h</text>
</a>
</g>
</g>
<!-- Node1&#45;&gt;Node7 -->
<g id="edge6_Node000001_Node000007" class="edge">
<title>Node1&#45;&gt;Node7</title>
<g id="a_edge6_Node000001_Node000007"><a xlink:title=" ">
<path fill="none" stroke="#63b8ff" d="M201,-111.59C204.62,-104.63 209.67,-94.89 214.12,-86.29"/>
<polygon fill="#63b8ff" stroke="#63b8ff" points="217.11,-88.13 218.61,-77.64 210.9,-84.91 217.11,-88.13"/>
</a>
</g>
</g>
<!-- Node7&#45;&gt;Node2 -->
<g id="edge7_Node000007_Node000002" class="edge">
<title>Node7&#45;&gt;Node2</title>
<g id="a_edge7_Node000007_Node000002"><a xlink:title=" ">
<path fill="none" stroke="#63b8ff" d="M196.93,-57.7C165.94,-49.37 113.48,-35.26 59.45,-20.63"/>
<polygon fill="#63b8ff" stroke="#63b8ff" points="60.66,-17.33 50.09,-18.09 58.83,-24.08 60.66,-17.33"/>
</a>
</g>
</g>
<!-- Node7&#45;&gt;Node3 -->
<g id="edge8_Node000007_Node000003" class="edge">
<title>Node7&#45;&gt;Node3</title>
<g id="a_edge8_Node000007_Node000003"><a xlink:title=" ">
<path fill="none" stroke="#63b8ff" d="M202,-55.59C182.09,-47.13 152.57,-34.58 129.92,-24.94"/>
<polygon fill="#63b8ff" stroke="#63b8ff" points="131.38,-21.76 120.81,-21.07 128.65,-28.21 131.38,-21.76"/>
</a>
</g>
</g>
<!-- Node7&#45;&gt;Node4 -->
<g id="edge12_Node000007_Node000004" class="edge">
<title>Node7&#45;&gt;Node4</title>
<g id="a_edge12_Node000007_Node000004"><a xlink:title=" ">
<path fill="none" stroke="#63b8ff" d="M214.54,-55.59C206.89,-48.08 195.97,-37.35 186.75,-28.3"/>
<polygon fill="#63b8ff" stroke="#63b8ff" points="189.26,-25.87 179.68,-21.36 184.36,-30.86 189.26,-25.87"/>
</a>
</g>
</g>
<!-- Node7&#45;&gt;Node5 -->
<g id="edge11_Node000007_Node000005" class="edge">
<title>Node7&#45;&gt;Node5</title>
<g id="a_edge11_Node000007_Node000005"><a xlink:title=" ">
<path fill="none" stroke="#63b8ff" d="M251.13,-58.77C285.48,-50.79 346.89,-36.33 408.54,-20.61"/>
<polygon fill="#63b8ff" stroke="#63b8ff" points="409.35,-24.01 418.17,-18.14 407.62,-17.23 409.35,-24.01"/>
</a>
</g>
</g>
<!-- Node8 -->
<g id="Node000008" class="node">
<title>Node8</title>
<g id="a_Node000008"><a xlink:title=" ">
<polygon fill="#e0e0e0" stroke="#999999" points="266.38,-20 209.88,-20 209.88,0 266.38,0 266.38,-20"/>
<text xml:space="preserve" text-anchor="middle" x="238.12" y="-6.5" font-family="Helvetica,sans-Serif" font-size="10.00">avr/wdt.h</text>
</a>
</g>
</g>
<!-- Node7&#45;&gt;Node8 -->
<g id="edge9_Node000007_Node000008" class="edge">
<title>Node7&#45;&gt;Node8</title>
<g id="a_edge9_Node000007_Node000008"><a xlink:title=" ">
<path fill="none" stroke="#63b8ff" d="M226.56,-55.59C228.29,-48.93 230.67,-39.75 232.83,-31.44"/>
<polygon fill="#63b8ff" stroke="#63b8ff" points="236.21,-32.32 235.33,-21.76 229.44,-30.56 236.21,-32.32"/>
</a>
</g>
</g>
<!-- Node9 -->
<g id="Node000009" class="node">
<title>Node9</title>
<g id="a_Node000009"><a xlink:title=" ">
<polygon fill="#e0e0e0" stroke="#999999" points="332.25,-20 284,-20 284,0 332.25,0 332.25,-20"/>
<text xml:space="preserve" text-anchor="middle" x="308.12" y="-6.5" font-family="Helvetica,sans-Serif" font-size="10.00">stdint.h</text>
</a>
</g>
</g>
<!-- Node7&#45;&gt;Node9 -->
<g id="edge10_Node000007_Node000009" class="edge">
<title>Node7&#45;&gt;Node9</title>
<g id="a_edge10_Node000007_Node000009"><a xlink:title=" ">
<path fill="none" stroke="#63b8ff" d="M238.76,-55.59C251.21,-47.59 269.34,-35.93 283.95,-26.54"/>
<polygon fill="#63b8ff" stroke="#63b8ff" points="285.59,-29.65 292.11,-21.3 281.8,-23.76 285.59,-29.65"/>
</a>
</g>
</g>
<!-- Node10 -->
<g id="Node000010" class="node">
<title>Node10</title>
<g id="a_Node000010"><a xlink:title=" ">
<polygon fill="#e0e0e0" stroke="#999999" points="401.75,-20 350.5,-20 350.5,0 401.75,0 401.75,-20"/>
<text xml:space="preserve" text-anchor="middle" x="376.12" y="-6.5" font-family="Helvetica,sans-Serif" font-size="10.00">stddef.h</text>
</a>
</g>
</g>
<!-- Node7&#45;&gt;Node10 -->
<g id="edge13_Node000007_Node000010" class="edge">
<title>Node7&#45;&gt;Node10</title>
<g id="a_edge13_Node000007_Node000010"><a xlink:title=" ">
<path fill="none" stroke="#63b8ff" d="M250.6,-55.59C275.2,-46.86 312.05,-33.76 339.47,-24.02"/>
<polygon fill="#63b8ff" stroke="#63b8ff" points="340.53,-27.36 348.78,-20.71 338.18,-20.76 340.53,-27.36"/>
</a>
</g>
</g>
</g>
</svg>
</svg>

<style type='text/css'>
<![CDATA[
[data-mouse-over-selected='false'] { opacity: 0.7; }
[data-mouse-over-selected='true']  { opacity: 1.0; }
]]>
</style>
<script type="application/ecmascript"><![CDATA[
document.addEventListener('DOMContentLoaded', (event) => {
  highlightEdges();
  highlightAdjacentNodes();
});
]]></script>
</svg>
