<?xml version="1.0" encoding="UTF-8" standalone="no"?>
<!DOCTYPE svg PUBLIC "-//W3C//DTD SVG 1.1//EN"
 "http://www.w3.org/Graphics/SVG/1.1/DTD/svg11.dtd">
<!-- Generated by graphviz version 14.1.4 (20260321.0153)
 -->
<!-- Title: examples/exemplo_5.c Pages: 1 -->
<svg width="476pt" height="140pt"
 viewBox="0.00 0.00 476.00 140.00" xmlns="http://www.w3.org/2000/svg" xmlns:xlink="http://www.w3.org/1999/xlink">

<svg id="main" version="1.1" xmlns="http://www.w3.org/2000/svg" xmlns:xlink="http://www.w3.org/1999/xlink" xml:space="preserve">

<style type="text/css"><![CDATA[
.node, .edge {opacity: 0.7;}
.node.selected, .edge.selected {opacity: 1;}
.edge:hover path { stroke: red; }
.edge:hover polygon { stroke: red; fill: red; }
]]></style>
<script type="application/ecmascript" xlink:href="svg.min.js"/>
<svg id="graph" class="graph">
<g id="graph0" class="graph" transform="scale(1 1) rotate(0) translate(4 136)">
<title>examples/exemplo_5.c</title>
<!-- Node1 -->
<g id="Node000001" class="node">
<title>Node1</title>
<g id="a_Node000001"><a xlink:title=" ">
<polygon fill="#999999" stroke="#666666" points="227.38,-132 110.88,-132 110.88,-112 227.38,-112 227.38,-132"/>
<text xml:space="preserve" text-anchor="middle" x="169.12" y="-118.5" font-family="Helvetica,sans-Serif" font-size="10.00">examples/exemplo_5.c</text>
</a>
</g>
</g>
<!-- Node2 -->
<g id="Node000002" class="node">
<title>Node2</title>
<g id="a_Node000002"><a xlink:title=" ">
<polygon fill="#e0e0e0" stroke="#999999" points="48.25,-20 0,-20 0,0 48.25,0 48.25,-20"/>
<text xml:space="preserve" text-anchor="middle" x="24.12" y="-6.5" font-family="Helvetica,sans-Serif" font-size="10.00">avr/io.h</text>
</a>
</g>
</g>
<!-- Node1&#45;&gt;Node2 -->
<g id="edge1_Node000001_Node000002" class="edge">
<title>Node1&#45;&gt;Node2</title>
<g id="a_edge1_Node000001_Node000002"><a xlink:title=" ">
<path fill="none" stroke="#63b8ff" d="M156.76,-111.62C132.04,-92.87 76.26,-50.55 45.49,-27.21"/>
<polygon fill="#63b8ff" stroke="#63b8ff" points="47.74,-24.53 37.66,-21.27 43.51,-30.1 47.74,-24.53"/>
</a>
</g>
</g>
<!-- Node3 -->
<g id="Node000003" class="node">
<title>Node3</title>
<g id="a_Node000003"><a xlink:title=" ">
<polygon fill="#e0e0e0" stroke="#999999" points="128.38,-20 65.88,-20 65.88,0 128.38,0 128.38,-20"/>
<text xml:space="preserve" text-anchor="middle" x="97.12" y="-6.5" font-family="Helvetica,sans-Serif" font-size="10.00">util/delay.h</text>
</a>
</g>
</g>
<!-- Node1&#45;&gt;Node3 -->
<g id="edge2_Node000001_Node000003" class="edge">
<title>Node1&#45;&gt;Node3</title>
<g id="a_edge2_Node000001_Node000003"><a xlink:title=" ">
<path fill="none" stroke="#63b8ff" d="M162.99,-111.62C151.14,-93.52 124.91,-53.45 109.37,-29.7"/>
<polygon fill="#63b8ff" stroke="#63b8ff" points="112.48,-28.07 104.08,-21.62 106.63,-31.91 112.48,-28.07"/>
</a>
</g>
</g>
<!-- Node4 -->
<g id="Node000004" class="node">
<title>Node4</title>
<g id="a_Node000004"><a xlink:title=" ">
<polygon fill="#e0e0e0" stroke="#999999" points="191.75,-20 146.5,-20 146.5,0 191.75,0 191.75,-20"/>
<text xml:space="preserve" text-anchor="middle" x="169.12" y="-6.5" font-family="Helvetica,sans-Serif" font-size="10.00">stdio.h</text>
</a>
</g>
</g>
<!-- Node1&#45;&gt;Node4 -->
<g id="edge3_Node000001_Node000004" class="edge">
<title>Node1&#45;&gt;Node4</title>
<g id="a_edge3_Node000001_Node000004"><a xlink:title=" ">
<path fill="none" stroke="#63b8ff" d="M169.12,-111.62C169.12,-94.01 169.12,-55.59 169.12,-31.65"/>
<polygon fill="#63b8ff" stroke="#63b8ff" points="172.63,-31.87 169.13,-21.87 165.63,-31.87 172.63,-31.87"/>
</a>
</g>
</g>
<!-- Node5 -->
<g id="Node000005" class="node">
<title>Node5</title>
<g id="a_Node000005"><a xlink:title=" ">
<polygon fill="#e0e0e0" stroke="#999999" points="468.25,-20 420,-20 420,0 468.25,0 468.25,-20"/>
<text xml:space="preserve" text-anchor="middle" x="444.12" y="-6.5" font-family="Helvetica,sans-Serif" font-size="10.00">string.h</text>
</a>
</g>
</g>
<!-- Node1&#45;&gt;Node5 -->
<g id="edge4_Node000001_Node000005" class="edge">
<title>Node1&#45;&gt;Node5</title>
<g id="a_edge4_Node000001_Node000005"><a xlink:title=" ">
<path fill="none" stroke="#63b8ff" d="M192.57,-111.62C241.28,-92.14 353.58,-47.22 410.19,-24.57"/>
<polygon fill="#63b8ff" stroke="#63b8ff" points="411.35,-27.88 419.33,-20.92 408.75,-21.38 411.35,-27.88"/>
</a>
</g>
</g>
<!-- Node6 -->
<g id="Node000006" class="node">
<title>Node6</title>
<g id="a_Node000006"><a xlink:href="sdcard_8h.html" target="_top" xlink:title="Driver SD Card SPI + FAT32 (Root&#45;only) para AVR.">
<polygon fill="white" stroke="#666666" points="257.88,-76 204.38,-76 204.38,-56 257.88,-56 257.88,-76"/>
<text xml:space="preserve" text-anchor="middle" x="231.12" y="-62.5" font-family="Helvetica,sans-Serif" font-size="10.00">sdcard.h</text>
</a>
</g>
</g>
<!-- Node1&#45;&gt;Node6 -->
<g id="edge5_Node000001_Node000006" class="edge">
<title>Node1&#45;&gt;Node6</title>
<g id="a_edge5_Node000001_Node000006"><a xlink:title=" ">
<path fill="none" stroke="#63b8ff" d="M179.92,-111.59C188.73,-103.93 201.38,-92.91 211.9,-83.75"/>
<polygon fill="#63b8ff" stroke="#63b8ff" points="214.07,-86.5 219.31,-77.29 209.47,-81.22 214.07,-86.5"/>
</a>
</g>
</g>
<!-- Node6&#45;&gt;Node2 -->
<g id="edge6_Node000006_Node000002" class="edge">
<title>Node6&#45;&gt;Node2</title>
<g id="a_edge6_Node000006_Node000002"><a xlink:title=" ">
<path fill="none" stroke="#63b8ff" d="M203.97,-58.1C171.78,-49.89 116.25,-35.64 59.59,-20.63"/>
<polygon fill="#63b8ff" stroke="#63b8ff" points="60.65,-17.29 50.09,-18.11 58.85,-24.06 60.65,-17.29"/>
</a>
</g>
</g>
<!-- Node6&#45;&gt;Node3 -->
<g id="edge7_Node000006_Node000003" class="edge">
<title>Node6&#45;&gt;Node3</title>
<g id="a_edge7_Node000006_Node000003"><a xlink:title=" ">
<path fill="none" stroke="#63b8ff" d="M207.78,-55.59C186.59,-47.05 155.06,-34.35 131.07,-24.68"/>
<polygon fill="#63b8ff" stroke="#63b8ff" points="132.64,-21.54 122.05,-21.05 130.02,-28.03 132.64,-21.54"/>
</a>
</g>
</g>
<!-- Node6&#45;&gt;Node4 -->
<g id="edge11_Node000006_Node000004" class="edge">
<title>Node6&#45;&gt;Node4</title>
<g id="a_edge11_Node000006_Node000004"><a xlink:title=" ">
<path fill="none" stroke="#63b8ff" d="M220.33,-55.59C211.52,-47.93 198.87,-36.91 188.35,-27.75"/>
<polygon fill="#63b8ff" stroke="#63b8ff" points="190.78,-25.22 180.94,-21.29 186.18,-30.5 190.78,-25.22"/>
</a>
</g>
</g>
<!-- Node6&#45;&gt;Node5 -->
<g id="edge10_Node000006_Node000005" class="edge">
<title>Node6&#45;&gt;Node5</title>
<g id="a_edge10_Node000006_Node000005"><a xlink:title=" ">
<path fill="none" stroke="#63b8ff" d="M258.31,-58.39C291.53,-50.28 349.71,-35.94 408.63,-20.61"/>
<polygon fill="#63b8ff" stroke="#63b8ff" points="409.38,-24.04 418.17,-18.12 407.61,-17.26 409.38,-24.04"/>
</a>
</g>
</g>
<!-- Node7 -->
<g id="Node000007" class="node">
<title>Node7</title>
<g id="a_Node000007"><a xlink:title=" ">
<polygon fill="#e0e0e0" stroke="#999999" points="266.38,-20 209.88,-20 209.88,0 266.38,0 266.38,-20"/>
<text xml:space="preserve" text-anchor="middle" x="238.12" y="-6.5" font-family="Helvetica,sans-Serif" font-size="10.00">avr/wdt.h</text>
</a>
</g>
</g>
<!-- Node6&#45;&gt;Node7 -->
<g id="edge8_Node000006_Node000007" class="edge">
<title>Node6&#45;&gt;Node7</title>
<g id="a_edge8_Node000006_Node000007"><a xlink:title=" ">
<path fill="none" stroke="#63b8ff" d="M232.34,-55.59C233.21,-48.93 234.4,-39.75 235.48,-31.44"/>
<polygon fill="#63b8ff" stroke="#63b8ff" points="238.91,-32.17 236.73,-21.8 231.97,-31.27 238.91,-32.17"/>
</a>
</g>
</g>
<!-- Node8 -->
<g id="Node000008" class="node">
<title>Node8</title>
<g id="a_Node000008"><a xlink:title=" ">
<polygon fill="#e0e0e0" stroke="#999999" points="332.25,-20 284,-20 284,0 332.25,0 332.25,-20"/>
<text xml:space="preserve" text-anchor="middle" x="308.12" y="-6.5" font-family="Helvetica,sans-Serif" font-size="10.00">stdint.h</text>
</a>
</g>
</g>
<!-- Node6&#45;&gt;Node8 -->
<g id="edge9_Node000006_Node000008" class="edge">
<title>Node6&#45;&gt;Node8</title>
<g id="a_edge9_Node000006_Node000008"><a xlink:title=" ">
<path fill="none" stroke="#63b8ff" d="M244.54,-55.59C255.73,-47.74 271.94,-36.38 285.18,-27.09"/>
<polygon fill="#63b8ff" stroke="#63b8ff" points="287.19,-29.96 293.37,-21.35 283.17,-24.22 287.19,-29.96"/>
</a>
</g>
</g>
<!-- Node9 -->
<g id="Node000009" class="node">
<title>Node9</title>
<g id="a_Node000009"><a xlink:title=" ">
<polygon fill="#e0e0e0" stroke="#999999" points="401.75,-20 350.5,-20 350.5,0 401.75,0 401.75,-20"/>
<text xml:space="preserve" text-anchor="middle" x="376.12" y="-6.5" font-family="Helvetica,sans-Serif" font-size="10.00">stddef.h</text>
</a>
</g>
</g>
<!-- Node6&#45;&gt;Node9 -->
<g id="edge12_Node000006_Node000009" class="edge">
<title>Node6&#45;&gt;Node9</title>
<g id="a_edge12_Node000006_Node000009"><a xlink:title=" ">
<path fill="none" stroke="#63b8ff" d="M256.38,-55.59C279.53,-46.97 314.05,-34.12 340.09,-24.42"/>
<polygon fill="#63b8ff" stroke="#63b8ff" points="341.1,-27.78 349.25,-21.01 338.66,-21.22 341.1,-27.78"/>
</a>
</g>
</g>
</g>
</svg>
</svg>

<style type='text/css'>
<![CDATA[
[data-mouse-over-selected='false'] { opacity: 0.7; }
[data-mouse-over-selected='true']  { opacity: 1.0; }
]]>
</style>
<script type="application/ecmascript"><![CDATA[
document.addEventListener('DOMContentLoaded', (event) => {
  highlightEdges();
  highlightAdjacentNodes();
});
]]></script>
</svg>
