<?xml version="1.0" encoding="UTF-8" standalone="no"?>
<!DOCTYPE svg PUBLIC "-//W3C//DTD SVG 1.1//EN"
 "http://www.w3.org/Graphics/SVG/1.1/DTD/svg11.dtd">
<!-- Generated by graphviz version 14.1.4 (20260321.0153)
 -->
<!-- Title: gerenciar_proximo_volume Pages: 1 -->
<svg width="1047pt" height="271pt"
 viewBox="0.00 0.00 1047.00 271.00" xmlns="http://www.w3.org/2000/svg" xmlns:xlink="http://www.w3.org/1999/xlink">
<g id="graph0" class="graph" transform="scale(1 1) rotate(0) translate(4 267.12)">
<title>gerenciar_proximo_volume</title>
<!-- Node1 -->
<g id="Node000001" class="node">
<title>Node1</title>
<g id="a_Node000001"><a xlink:title="Localiza ou cria o volume de log adequado no cartão.">
<polygon fill="#999999" stroke="#666666" points="132.25,-181.12 0,-181.12 0,-161.12 132.25,-161.12 132.25,-181.12"/>
<text xml:space="preserve" text-anchor="middle" x="66.12" y="-167.62" font-family="Helvetica,sans-Serif" font-size="10.00">gerenciar_proximo_volume</text>
</a>
</g>
</g>
<!-- Node2 -->
<g id="Node000002" class="node">
<title>Node2</title>
<g id="a_Node000002"><a xlink:href="sdcard_8c.html#a5228ed5a829330c001b1614c8476236c" target="_top" xlink:title="Cria um novo arquivo no diretório raiz com expansão de cluster.">
<polygon fill="white" stroke="#666666" points="250.25,-151.12 173.5,-151.12 173.5,-131.12 250.25,-131.12 250.25,-151.12"/>
<text xml:space="preserve" text-anchor="middle" x="211.88" y="-137.62" font-family="Helvetica,sans-Serif" font-size="10.00">sd_file_create</text>
</a>
</g>
</g>
<!-- Node1&#45;&gt;Node2 -->
<g id="edge1_Node000001_Node000002" class="edge">
<title>Node1&#45;&gt;Node2</title>
<g id="a_edge1_Node000001_Node000002"><a xlink:title=" ">
<path fill="none" stroke="#63b8ff" d="M117.4,-160.62C131.84,-157.61 147.56,-154.33 161.92,-151.33"/>
<polygon fill="#63b8ff" stroke="#63b8ff" points="162.53,-154.78 171.61,-149.31 161.1,-147.93 162.53,-154.78"/>
</a>
</g>
</g>
<!-- Node14 -->
<g id="Node000014" class="node">
<title>Node14</title>
<g id="a_Node000014"><a xlink:href="sdcard_8c.html#a6bb4db7466137c6d4346e2264d403230" target="_top" xlink:title="Verifica se arquivo existe.">
<polygon fill="white" stroke="#666666" points="249.88,-212.12 173.88,-212.12 173.88,-192.12 249.88,-192.12 249.88,-212.12"/>
<text xml:space="preserve" text-anchor="middle" x="211.88" y="-198.62" font-family="Helvetica,sans-Serif" font-size="10.00">sd_file_exists</text>
</a>
</g>
</g>
<!-- Node1&#45;&gt;Node14 -->
<g id="edge23_Node000001_Node000014" class="edge">
<title>Node1&#45;&gt;Node14</title>
<g id="a_edge23_Node000001_Node000014"><a xlink:title=" ">
<path fill="none" stroke="#63b8ff" d="M115.79,-181.61C130.85,-184.86 147.43,-188.44 162.47,-191.68"/>
<polygon fill="#63b8ff" stroke="#63b8ff" points="161.63,-195.08 172.14,-193.76 163.11,-188.23 161.63,-195.08"/>
</a>
</g>
</g>
<!-- Node16 -->
<g id="Node000016" class="node">
<title>Node16</title>
<g id="a_Node000016"><a xlink:href="sdcard_8c.html#a62fe3cc3e143e0df2bd0bc2c8badc78a" target="_top" xlink:title="Obtém tamanho do arquivo.">
<polygon fill="white" stroke="#666666" points="255.12,-260.12 168.62,-260.12 168.62,-240.12 255.12,-240.12 255.12,-260.12"/>
<text xml:space="preserve" text-anchor="middle" x="211.88" y="-246.62" font-family="Helvetica,sans-Serif" font-size="10.00">sd_file_get_size</text>
</a>
</g>
</g>
<!-- Node1&#45;&gt;Node16 -->
<g id="edge27_Node000001_Node000016" class="edge">
<title>Node1&#45;&gt;Node16</title>
<g id="a_edge27_Node000001_Node000016"><a xlink:title=" ">
<path fill="none" stroke="#63b8ff" d="M86.21,-181.61C110.84,-195.14 153.88,-218.79 182.38,-234.46"/>
<polygon fill="#63b8ff" stroke="#63b8ff" points="180.39,-237.36 190.84,-239.11 183.76,-231.22 180.39,-237.36"/>
</a>
</g>
</g>
<!-- Node17 -->
<g id="Node000017" class="node">
<title>Node17</title>
<g id="a_Node000017"><a xlink:href="sdcard_8c.html#af2ad3468d37d6d256e022bafa756ac32" target="_top" xlink:title="Converte uma string convencional para o formato FAT 8.3.">
<polygon fill="white" stroke="#666666" points="255.5,-113.12 168.25,-113.12 168.25,-93.12 255.5,-93.12 255.5,-113.12"/>
<text xml:space="preserve" text-anchor="middle" x="211.88" y="-99.62" font-family="Helvetica,sans-Serif" font-size="10.00">sd_set_filename</text>
</a>
</g>
</g>
<!-- Node1&#45;&gt;Node17 -->
<g id="edge29_Node000001_Node000017" class="edge">
<title>Node1&#45;&gt;Node17</title>
<g id="a_edge29_Node000001_Node000017"><a xlink:title=" ">
<path fill="none" stroke="#63b8ff" d="M87.95,-160.79C108.33,-150.73 140.3,-135.11 168.25,-122.12 171.05,-120.82 173.95,-119.48 176.88,-118.15"/>
<polygon fill="#63b8ff" stroke="#63b8ff" points="178.3,-121.35 185.98,-114.06 175.43,-114.97 178.3,-121.35"/>
</a>
</g>
</g>
<!-- Node2&#45;&gt;Node2 -->
<g id="edge22_Node000002_Node000002" class="edge">
<title>Node2&#45;&gt;Node2</title>
<g id="a_edge22_Node000002_Node000002"><a xlink:title=" ">
<path fill="none" stroke="#63b8ff" d="M190.8,-151.46C181.8,-160.09 188.82,-169.12 211.88,-169.12 224.48,-169.12 232.3,-166.42 235.32,-162.56"/>
<polygon fill="#63b8ff" stroke="#63b8ff" points="238.77,-161.99 233.26,-152.94 231.93,-163.45 238.77,-161.99"/>
</a>
</g>
</g>
<!-- Node3 -->
<g id="Node000003" class="node">
<title>Node3</title>
<g id="a_Node000003"><a xlink:href="sdcard_8c.html#acd7b26d07ec9452df93bb131bbcb4feb" target="_top" xlink:title="Converte componentes de data para o formato FAT (16 bits). Formato: yyyyyyymmmmddddd (ano desde 1980)...">
<polygon fill="white" stroke="#666666" points="395.25,-111.12 293.75,-111.12 293.75,-91.12 395.25,-91.12 395.25,-111.12"/>
<text xml:space="preserve" text-anchor="middle" x="344.5" y="-97.62" font-family="Helvetica,sans-Serif" font-size="10.00">_sd_make_fat_date</text>
</a>
</g>
</g>
<!-- Node2&#45;&gt;Node3 -->
<g id="edge2_Node000002_Node000003" class="edge">
<title>Node2&#45;&gt;Node3</title>
<g id="a_edge2_Node000002_Node000003"><a xlink:title=" ">
<path fill="none" stroke="#63b8ff" d="M246.85,-130.71C262.6,-125.89 281.54,-120.09 298.46,-114.91"/>
<polygon fill="#63b8ff" stroke="#63b8ff" points="299.25,-118.33 307.79,-112.05 297.2,-111.63 299.25,-118.33"/>
</a>
</g>
</g>
<!-- Node4 -->
<g id="Node000004" class="node">
<title>Node4</title>
<g id="a_Node000004"><a xlink:href="sdcard_8c.html#ab9a99a1bb2c8bfaf686c5272fd5190ba" target="_top" xlink:title="Converte componentes de tempo para o formato FAT (16 bits). Formato: hhhhhmmmmmmsssss (segundos são d...">
<polygon fill="white" stroke="#666666" points="395.25,-73.12 293.75,-73.12 293.75,-53.12 395.25,-53.12 395.25,-73.12"/>
<text xml:space="preserve" text-anchor="middle" x="344.5" y="-59.62" font-family="Helvetica,sans-Serif" font-size="10.00">_sd_make_fat_time</text>
</a>
</g>
</g>
<!-- Node2&#45;&gt;Node4 -->
<g id="edge3_Node000002_Node000004" class="edge">
<title>Node2&#45;&gt;Node4</title>
<g id="a_edge3_Node000002_Node000004"><a xlink:title=" ">
<path fill="none" stroke="#63b8ff" d="M240.87,-130.67C245.95,-128.22 251.04,-125.36 255.5,-122.12 274.85,-108.05 271.68,-95.51 291.5,-82.12 293.43,-80.81 295.46,-79.59 297.55,-78.43"/>
<polygon fill="#63b8ff" stroke="#63b8ff" points="298.82,-81.71 306.32,-74.22 295.79,-75.4 298.82,-81.71"/>
</a>
</g>
</g>
<!-- Node5 -->
<g id="Node000005" class="node">
<title>Node5</title>
<g id="a_Node000005"><a xlink:href="sdcard_8c.html#aba9c8b9a5590e13424ab4a69280f0c1d" target="_top" xlink:title="Lê um único bloco de 512 bytes do cartão (LBA).">
<polygon fill="white" stroke="#666666" points="791.62,-184.12 723.12,-184.12 723.12,-164.12 791.62,-164.12 791.62,-184.12"/>
<text xml:space="preserve" text-anchor="middle" x="757.38" y="-170.62" font-family="Helvetica,sans-Serif" font-size="10.00">sd_blk_read</text>
</a>
</g>
</g>
<!-- Node2&#45;&gt;Node5 -->
<g id="edge4_Node000002_Node000005" class="edge">
<title>Node2&#45;&gt;Node5</title>
<g id="a_edge4_Node000002_Node000005"><a xlink:title=" ">
<path fill="none" stroke="#63b8ff" d="M250.63,-150.71C263.51,-153.6 278.06,-156.45 291.5,-158.12 444.61,-177.15 628.12,-176.69 711.37,-175.22"/>
<polygon fill="#63b8ff" stroke="#63b8ff" points="711.22,-178.73 721.16,-175.04 711.09,-171.73 711.22,-178.73"/>
</a>
</g>
</g>
<!-- Node7 -->
<g id="Node000007" class="node">
<title>Node7</title>
<g id="a_Node000007"><a xlink:href="sdcard_8c.html#ac6d558621f33abf80f245adb3d0f4e67" target="_top" xlink:title="Escreve um único bloco de 512 bytes.">
<polygon fill="white" stroke="#666666" points="792.75,-78.12 722,-78.12 722,-58.12 792.75,-58.12 792.75,-78.12"/>
<text xml:space="preserve" text-anchor="middle" x="757.38" y="-64.62" font-family="Helvetica,sans-Serif" font-size="10.00">sd_blk_write</text>
</a>
</g>
</g>
<!-- Node2&#45;&gt;Node7 -->
<g id="edge6_Node000002_Node000007" class="edge">
<title>Node2&#45;&gt;Node7</title>
<g id="a_edge6_Node000002_Node000007"><a xlink:title=" ">
<path fill="none" stroke="#63b8ff" d="M243.49,-130.76C247.86,-128.39 252.04,-125.53 255.5,-122.12 282.67,-95.3 259.34,-64.69 291.5,-44.12 428.82,43.75 638.39,-21.77 721.07,-53.49"/>
<polygon fill="#63b8ff" stroke="#63b8ff" points="719.65,-56.69 730.24,-57.08 722.2,-50.18 719.65,-56.69"/>
</a>
</g>
</g>
<!-- Node10 -->
<g id="Node000010" class="node">
<title>Node10</title>
<g id="a_Node000010"><a xlink:href="sdcard_8c.html#a6dcdbe623e720ed71f92e745c440db85" target="_top" xlink:title="Expande o diretorio alocando um novo cluster.">
<polygon fill="white" stroke="#666666" points="397.5,-149.12 291.5,-149.12 291.5,-129.12 397.5,-129.12 397.5,-149.12"/>
<text xml:space="preserve" text-anchor="middle" x="344.5" y="-135.62" font-family="Helvetica,sans-Serif" font-size="10.00">sd_expand_directory</text>
</a>
</g>
</g>
<!-- Node2&#45;&gt;Node10 -->
<g id="edge11_Node000002_Node000010" class="edge">
<title>Node2&#45;&gt;Node10</title>
<g id="a_edge11_Node000002_Node000010"><a xlink:title=" ">
<path fill="none" stroke="#63b8ff" d="M250.66,-140.54C259.85,-140.4 269.94,-140.24 279.98,-140.09"/>
<polygon fill="#63b8ff" stroke="#63b8ff" points="279.77,-143.59 289.71,-139.94 279.66,-136.59 279.77,-143.59"/>
</a>
</g>
</g>
<!-- Node13 -->
<g id="Node000013" class="node">
<title>Node13</title>
<g id="a_Node000013"><a xlink:href="sdcard_8c.html#a7b0d2ab1fae193461c611a4f2e6c9245" target="_top" xlink:title="Obtém o próximo cluster na tabela FAT.">
<polygon fill="white" stroke="#666666" points="553.75,-225.12 433.5,-225.12 433.5,-205.12 553.75,-205.12 553.75,-225.12"/>
<text xml:space="preserve" text-anchor="middle" x="493.62" y="-211.62" font-family="Helvetica,sans-Serif" font-size="10.00">sd_fat_get_next_cluster</text>
</a>
</g>
</g>
<!-- Node2&#45;&gt;Node13 -->
<g id="edge21_Node000002_Node000013" class="edge">
<title>Node2&#45;&gt;Node13</title>
<g id="a_edge21_Node000002_Node000013"><a xlink:title=" ">
<path fill="none" stroke="#63b8ff" d="M225.29,-151.54C240.04,-163.31 265.9,-181.99 291.5,-191.12 333.25,-206.01 382.65,-212.05 422.04,-214.35"/>
<polygon fill="#63b8ff" stroke="#63b8ff" points="421.72,-217.84 431.89,-214.85 422.08,-210.85 421.72,-217.84"/>
</a>
</g>
</g>
<!-- Node6 -->
<g id="Node000006" class="node">
<title>Node6</title>
<g id="a_Node000006"><a xlink:href="sdcard_8c.html#aae1cfbcba5f92f4639e23fd8ed8fa3c0" target="_top" xlink:title="Envia um comando SPI para o cartão SD e aguarda resposta R1.">
<polygon fill="white" stroke="#666666" points="1038.5,-135.12 961.75,-135.12 961.75,-115.12 1038.5,-115.12 1038.5,-135.12"/>
<text xml:space="preserve" text-anchor="middle" x="1000.12" y="-121.62" font-family="Helvetica,sans-Serif" font-size="10.00">sd_cmd_send</text>
</a>
</g>
</g>
<!-- Node5&#45;&gt;Node6 -->
<g id="edge5_Node000005_Node000006" class="edge">
<title>Node5&#45;&gt;Node6</title>
<g id="a_edge5_Node000005_Node000006"><a xlink:title=" ">
<path fill="none" stroke="#63b8ff" d="M792.1,-167.25C833.23,-158.88 903.06,-144.67 950.12,-135.09"/>
<polygon fill="#63b8ff" stroke="#63b8ff" points="950.68,-138.55 959.78,-133.12 949.28,-131.69 950.68,-138.55"/>
</a>
</g>
</g>
<!-- Node7&#45;&gt;Node6 -->
<g id="edge7_Node000007_Node000006" class="edge">
<title>Node7&#45;&gt;Node6</title>
<g id="a_edge7_Node000007_Node000006"><a xlink:title=" ">
<path fill="none" stroke="#63b8ff" d="M773.54,-78.54C787.3,-87.44 808.47,-99.78 828.75,-106.12 868.43,-118.53 915.55,-123.05 950.16,-124.6"/>
<polygon fill="#63b8ff" stroke="#63b8ff" points="949.75,-128.09 959.88,-124.96 950.02,-121.09 949.75,-128.09"/>
</a>
</g>
</g>
<!-- Node8 -->
<g id="Node000008" class="node">
<title>Node8</title>
<g id="a_Node000008"><a xlink:href="sdcard_8c.html#afcdb9112d386e92b29ad0cac9f5fc277" target="_top" xlink:title="Obtém o status atual do cartão SD (comando CMD13).">
<polygon fill="white" stroke="#666666" points="916,-97.12 838.5,-97.12 838.5,-77.12 916,-77.12 916,-97.12"/>
<text xml:space="preserve" text-anchor="middle" x="877.25" y="-83.62" font-family="Helvetica,sans-Serif" font-size="10.00">sd_get_status</text>
</a>
</g>
</g>
<!-- Node7&#45;&gt;Node8 -->
<g id="edge8_Node000007_Node000008" class="edge">
<title>Node7&#45;&gt;Node8</title>
<g id="a_edge8_Node000007_Node000008"><a xlink:title=" ">
<path fill="none" stroke="#63b8ff" d="M793.1,-73.71C803.7,-75.42 815.56,-77.33 826.92,-79.17"/>
<polygon fill="#63b8ff" stroke="#63b8ff" points="826.14,-82.58 836.57,-80.72 827.25,-75.67 826.14,-82.58"/>
</a>
</g>
</g>
<!-- Node9 -->
<g id="Node000009" class="node">
<title>Node9</title>
<g id="a_Node000009"><a xlink:href="sdcard_8c.html#a8c2c0ebbeee0d06d43335bc9df4b3142" target="_top" xlink:title="Aguarda o cartão sair do estado de ocupado (busy).">
<polygon fill="white" stroke="#666666" points="925.75,-59.12 828.75,-59.12 828.75,-39.12 925.75,-39.12 925.75,-59.12"/>
<text xml:space="preserve" text-anchor="middle" x="877.25" y="-45.62" font-family="Helvetica,sans-Serif" font-size="10.00">sd_spi_wait_ready</text>
</a>
</g>
</g>
<!-- Node7&#45;&gt;Node9 -->
<g id="edge10_Node000007_Node000009" class="edge">
<title>Node7&#45;&gt;Node9</title>
<g id="a_edge10_Node000007_Node000009"><a xlink:title=" ">
<path fill="none" stroke="#63b8ff" d="M793.1,-62.52C800.76,-61.29 809.08,-59.94 817.39,-58.6"/>
<polygon fill="#63b8ff" stroke="#63b8ff" points="817.86,-62.07 827.17,-57.03 816.74,-55.16 817.86,-62.07"/>
</a>
</g>
</g>
<!-- Node8&#45;&gt;Node6 -->
<g id="edge9_Node000008_Node000006" class="edge">
<title>Node8&#45;&gt;Node6</title>
<g id="a_edge9_Node000008_Node000006"><a xlink:title=" ">
<path fill="none" stroke="#63b8ff" d="M911.6,-97.6C925.08,-101.84 940.82,-106.79 955.2,-111.31"/>
<polygon fill="#63b8ff" stroke="#63b8ff" points="953.85,-114.55 964.44,-114.21 955.95,-107.88 953.85,-114.55"/>
</a>
</g>
</g>
<!-- Node10&#45;&gt;Node7 -->
<g id="edge12_Node000010_Node000007" class="edge">
<title>Node10&#45;&gt;Node7</title>
<g id="a_edge12_Node000010_Node000007"><a xlink:title=" ">
<path fill="none" stroke="#63b8ff" d="M375.65,-128.63C382.86,-125.97 390.49,-123.04 397.5,-120.12 413.83,-113.3 416.53,-108.13 433.5,-103.12 529.2,-74.83 646.9,-68.93 710.43,-67.98"/>
<polygon fill="#63b8ff" stroke="#63b8ff" points="710.18,-71.48 720.14,-67.87 710.1,-64.48 710.18,-71.48"/>
</a>
</g>
</g>
<!-- Node11 -->
<g id="Node000011" class="node">
<title>Node11</title>
<g id="a_Node000011"><a xlink:href="sdcard_8c.html#afa6b333a50132b6be29e88aa75fd90f1" target="_top" xlink:title="Aloca um cluster livre na FAT32 utilizando busca circular otimizada.">
<polygon fill="white" stroke="#666666" points="545.12,-149.12 442.12,-149.12 442.12,-129.12 545.12,-129.12 545.12,-149.12"/>
<text xml:space="preserve" text-anchor="middle" x="493.62" y="-135.62" font-family="Helvetica,sans-Serif" font-size="10.00">sd_fat_alloc_cluster</text>
</a>
</g>
</g>
<!-- Node10&#45;&gt;Node11 -->
<g id="edge13_Node000010_Node000011" class="edge">
<title>Node10&#45;&gt;Node11</title>
<g id="a_edge13_Node000010_Node000011"><a xlink:title=" ">
<path fill="none" stroke="#63b8ff" d="M397.79,-139.12C408.45,-139.12 419.77,-139.12 430.73,-139.12"/>
<polygon fill="#63b8ff" stroke="#63b8ff" points="430.48,-142.62 440.48,-139.12 430.48,-135.62 430.48,-142.62"/>
</a>
</g>
</g>
<!-- Node12 -->
<g id="Node000012" class="node">
<title>Node12</title>
<g id="a_Node000012"><a xlink:href="sdcard_8c.html#a144349126da9cc0bcd1dd34243989e98" target="_top" xlink:title="Atualiza uma entrada na Tabela de Alocação de Arquivos (FAT).">
<polygon fill="white" stroke="#666666" points="686,-111.12 589.75,-111.12 589.75,-91.12 686,-91.12 686,-111.12"/>
<text xml:space="preserve" text-anchor="middle" x="637.88" y="-97.62" font-family="Helvetica,sans-Serif" font-size="10.00">sd_fat_write_entry</text>
</a>
</g>
</g>
<!-- Node10&#45;&gt;Node12 -->
<g id="edge20_Node000010_Node000012" class="edge">
<title>Node10&#45;&gt;Node12</title>
<g id="a_edge20_Node000010_Node000012"><a xlink:title=" ">
<path fill="none" stroke="#63b8ff" d="M388.73,-128.71C402.92,-125.58 418.82,-122.38 433.5,-120.12 481.93,-112.65 537.33,-107.71 578.07,-104.74"/>
<polygon fill="#63b8ff" stroke="#63b8ff" points="578.18,-108.24 587.91,-104.05 577.69,-101.26 578.18,-108.24"/>
</a>
</g>
</g>
<!-- Node10&#45;&gt;Node13 -->
<g id="edge18_Node000010_Node000013" class="edge">
<title>Node10&#45;&gt;Node13</title>
<g id="a_edge18_Node000010_Node000013"><a xlink:title=" ">
<path fill="none" stroke="#63b8ff" d="M365.65,-149.53C390.74,-162.49 433.82,-184.74 462.76,-199.69"/>
<polygon fill="#63b8ff" stroke="#63b8ff" points="460.88,-202.66 471.37,-204.14 464.1,-196.44 460.88,-202.66"/>
</a>
</g>
</g>
<!-- Node11&#45;&gt;Node5 -->
<g id="edge14_Node000011_Node000005" class="edge">
<title>Node11&#45;&gt;Node5</title>
<g id="a_edge14_Node000011_Node000005"><a xlink:title=" ">
<path fill="none" stroke="#63b8ff" d="M545.45,-145.07C584.05,-149.69 638.42,-156.42 686,-163.12 694.25,-164.28 703.03,-165.59 711.5,-166.89"/>
<polygon fill="#63b8ff" stroke="#63b8ff" points="710.84,-170.33 721.26,-168.42 711.92,-163.42 710.84,-170.33"/>
</a>
</g>
</g>
<!-- Node11&#45;&gt;Node12 -->
<g id="edge15_Node000011_Node000012" class="edge">
<title>Node11&#45;&gt;Node12</title>
<g id="a_edge15_Node000011_Node000012"><a xlink:title=" ">
<path fill="none" stroke="#63b8ff" d="M533.87,-128.63C550.2,-124.27 569.35,-119.16 586.68,-114.53"/>
<polygon fill="#63b8ff" stroke="#63b8ff" points="587.54,-117.92 596.29,-111.96 585.73,-111.16 587.54,-117.92"/>
</a>
</g>
</g>
<!-- Node12&#45;&gt;Node5 -->
<g id="edge16_Node000012_Node000005" class="edge">
<title>Node12&#45;&gt;Node5</title>
<g id="a_edge16_Node000012_Node000005"><a xlink:title=" ">
<path fill="none" stroke="#63b8ff" d="M660.8,-111.5C668.85,-115.52 677.97,-120.31 686,-125.12 702.44,-134.97 720.15,-147.3 733.69,-157.13"/>
<polygon fill="#63b8ff" stroke="#63b8ff" points="731.38,-159.78 741.51,-162.88 735.52,-154.14 731.38,-159.78"/>
</a>
</g>
</g>
<!-- Node12&#45;&gt;Node7 -->
<g id="edge17_Node000012_Node000007" class="edge">
<title>Node12&#45;&gt;Node7</title>
<g id="a_edge17_Node000012_Node000007"><a xlink:title=" ">
<path fill="none" stroke="#63b8ff" d="M676.05,-90.68C687.16,-87.56 699.46,-84.1 711.03,-80.85"/>
<polygon fill="#63b8ff" stroke="#63b8ff" points="711.7,-84.3 720.38,-78.23 709.8,-77.56 711.7,-84.3"/>
</a>
</g>
</g>
<!-- Node13&#45;&gt;Node5 -->
<g id="edge19_Node000013_Node000005" class="edge">
<title>Node13&#45;&gt;Node5</title>
<g id="a_edge19_Node000013_Node000005"><a xlink:title=" ">
<path fill="none" stroke="#63b8ff" d="M553.94,-209.41C591.87,-205.34 642.03,-199.16 686,-191.12 694.43,-189.58 703.35,-187.65 711.91,-185.66"/>
<polygon fill="#63b8ff" stroke="#63b8ff" points="712.51,-189.11 721.42,-183.37 710.88,-182.31 712.51,-189.11"/>
</a>
</g>
</g>
<!-- Node15 -->
<g id="Node000015" class="node">
<title>Node15</title>
<g id="a_Node000015"><a xlink:href="sdcard_8c.html#a3794ef278970bdb3d1d50b3f10fc4e9f" target="_top" xlink:title="Localiza a entrada de um arquivo no diretório raiz.">
<polygon fill="white" stroke="#666666" points="390.75,-263.12 298.25,-263.12 298.25,-243.12 390.75,-243.12 390.75,-263.12"/>
<text xml:space="preserve" text-anchor="middle" x="344.5" y="-249.62" font-family="Helvetica,sans-Serif" font-size="10.00">sd_find_file_entry</text>
</a>
</g>
</g>
<!-- Node14&#45;&gt;Node15 -->
<g id="edge24_Node000014_Node000015" class="edge">
<title>Node14&#45;&gt;Node15</title>
<g id="a_edge24_Node000014_Node000015"><a xlink:title=" ">
<path fill="none" stroke="#63b8ff" d="M239.62,-212.56C258.82,-220.06 284.94,-230.25 306.18,-238.55"/>
<polygon fill="#63b8ff" stroke="#63b8ff" points="304.79,-241.76 315.38,-242.14 307.33,-235.24 304.79,-241.76"/>
</a>
</g>
</g>
<!-- Node15&#45;&gt;Node5 -->
<g id="edge25_Node000015_Node000005" class="edge">
<title>Node15&#45;&gt;Node5</title>
<g id="a_edge25_Node000015_Node000005"><a xlink:title=" ">
<path fill="none" stroke="#63b8ff" d="M391.18,-253.6C457.81,-252.99 584.75,-246.8 686,-212.12 701.76,-206.72 718.19,-198.04 731.22,-190.34"/>
<polygon fill="#63b8ff" stroke="#63b8ff" points="732.85,-193.44 739.56,-185.24 729.2,-187.47 732.85,-193.44"/>
</a>
</g>
</g>
<!-- Node15&#45;&gt;Node13 -->
<g id="edge26_Node000015_Node000013" class="edge">
<title>Node15&#45;&gt;Node13</title>
<g id="a_edge26_Node000015_Node000013"><a xlink:title=" ">
<path fill="none" stroke="#63b8ff" d="M386.09,-242.63C403.14,-238.23 423.16,-233.06 441.22,-228.39"/>
<polygon fill="#63b8ff" stroke="#63b8ff" points="441.89,-231.84 450.7,-225.95 440.14,-225.06 441.89,-231.84"/>
</a>
</g>
</g>
<!-- Node16&#45;&gt;Node15 -->
<g id="edge28_Node000016_Node000015" class="edge">
<title>Node16&#45;&gt;Node15</title>
<g id="a_edge28_Node000016_Node000015"><a xlink:title=" ">
<path fill="none" stroke="#63b8ff" d="M255.29,-251.09C265.35,-251.32 276.25,-251.57 286.84,-251.82"/>
<polygon fill="#63b8ff" stroke="#63b8ff" points="286.56,-255.31 296.64,-252.04 286.72,-248.31 286.56,-255.31"/>
</a>
</g>
</g>
</g>
</svg>
