<?xml version="1.0" encoding="UTF-8" standalone="no"?>
<!DOCTYPE svg PUBLIC "-//W3C//DTD SVG 1.1//EN"
 "http://www.w3.org/Graphics/SVG/1.1/DTD/svg11.dtd">
<!-- Generated by graphviz version 14.1.4 (20260321.0153)
 -->
<!-- Title: main Pages: 1 -->
<svg width="909pt" height="408pt"
 viewBox="0.00 0.00 909.00 408.00" xmlns="http://www.w3.org/2000/svg" xmlns:xlink="http://www.w3.org/1999/xlink">
<g id="graph0" class="graph" transform="scale(1 1) rotate(0) translate(4 404)">
<title>main</title>
<!-- Node1 -->
<g id="Node000001" class="node">
<title>Node1</title>
<g id="a_Node000001"><a xlink:title="Função main demonstrando o fluxo completo de carregamento e uso.">
<polygon fill="#999999" stroke="#666666" points="37,-134 0,-134 0,-114 37,-114 37,-134"/>
<text xml:space="preserve" text-anchor="middle" x="18.5" y="-120.5" font-family="Helvetica,sans-Serif" font-size="10.00">main</text>
</a>
</g>
</g>
<!-- Node2 -->
<g id="Node000002" class="node">
<title>Node2</title>
<g id="a_Node000002"><a xlink:href="exemplo__4_8c.html#aea5f9f33267c7ef0c394d9a9e8d45c17" target="_top" xlink:title="Localiza e processa o arquivo CONFIG.ini no cartão SD.">
<polygon fill="white" stroke="#666666" points="202.25,-324 73,-324 73,-304 202.25,-304 202.25,-324"/>
<text xml:space="preserve" text-anchor="middle" x="137.62" y="-310.5" font-family="Helvetica,sans-Serif" font-size="10.00">carregar_parametros_boot</text>
</a>
</g>
</g>
<!-- Node1&#45;&gt;Node2 -->
<g id="edge1_Node000001_Node000002" class="edge">
<title>Node1&#45;&gt;Node2</title>
<g id="a_edge1_Node000001_Node000002"><a xlink:title=" ">
<path fill="none" stroke="#63b8ff" d="M25.5,-134.32C35.29,-151.11 55.38,-185.36 73,-214 90.18,-241.93 110.63,-273.84 123.61,-293.95"/>
<polygon fill="#63b8ff" stroke="#63b8ff" points="120.64,-295.79 129.01,-302.29 126.52,-291.99 120.64,-295.79"/>
</a>
</g>
</g>
<!-- Node11 -->
<g id="Node000011" class="node">
<title>Node11</title>
<g id="a_Node000011"><a xlink:href="exemplo__4_8c.html#ae6c6593780313a1f8717301f24224b2e" target="_top" xlink:title="Executa um delay variável em milissegundos.">
<polygon fill="white" stroke="#666666" points="186.12,-96 89.12,-96 89.12,-76 186.12,-76 186.12,-96"/>
<text xml:space="preserve" text-anchor="middle" x="137.62" y="-82.5" font-family="Helvetica,sans-Serif" font-size="10.00">delay_ms_variavel</text>
</a>
</g>
</g>
<!-- Node1&#45;&gt;Node11 -->
<g id="edge14_Node000001_Node000011" class="edge">
<title>Node1&#45;&gt;Node11</title>
<g id="a_edge14_Node000001_Node000011"><a xlink:title=" ">
<path fill="none" stroke="#63b8ff" d="M37.26,-117.44C47.63,-113.67 61.01,-108.92 73,-105 78.41,-103.23 84.1,-101.44 89.76,-99.7"/>
<polygon fill="#63b8ff" stroke="#63b8ff" points="90.52,-103.13 99.07,-96.87 88.49,-96.43 90.52,-103.13"/>
</a>
</g>
</g>
<!-- Node12 -->
<g id="Node000012" class="node">
<title>Node12</title>
<g id="a_Node000012"><a xlink:href="exemplo__4_8c.html#a9b602da3b929a3986801ce8dc359d8c4" target="_top" xlink:title="Função de delay exigida pela biblioteca sd_begin.">
<polygon fill="white" stroke="#666666" points="183.5,-58 91.75,-58 91.75,-38 183.5,-38 183.5,-58"/>
<text xml:space="preserve" text-anchor="middle" x="137.62" y="-44.5" font-family="Helvetica,sans-Serif" font-size="10.00">my_delay_ms_lib</text>
</a>
</g>
</g>
<!-- Node1&#45;&gt;Node12 -->
<g id="edge15_Node000001_Node000012" class="edge">
<title>Node1&#45;&gt;Node12</title>
<g id="a_edge15_Node000001_Node000012"><a xlink:title=" ">
<path fill="none" stroke="#63b8ff" d="M26.59,-113.58C35.82,-100.79 53.14,-79.27 73,-67 75.58,-65.41 78.3,-63.94 81.1,-62.59"/>
<polygon fill="#63b8ff" stroke="#63b8ff" points="82.27,-65.9 90.13,-58.79 79.55,-59.45 82.27,-65.9"/>
</a>
</g>
</g>
<!-- Node13 -->
<g id="Node000013" class="node">
<title>Node13</title>
<g id="a_Node000013"><a xlink:href="sdcard_8c.html#a0de914bcd39f32ddd2f8412744267322" target="_top" xlink:title="Prepara o contexto da biblioteca e inicializa a interface de hardware.">
<polygon fill="white" stroke="#666666" points="165.12,-134 110.12,-134 110.12,-114 165.12,-114 165.12,-134"/>
<text xml:space="preserve" text-anchor="middle" x="137.62" y="-120.5" font-family="Helvetica,sans-Serif" font-size="10.00">sd_begin</text>
</a>
</g>
</g>
<!-- Node1&#45;&gt;Node13 -->
<g id="edge16_Node000001_Node000013" class="edge">
<title>Node1&#45;&gt;Node13</title>
<g id="a_edge16_Node000001_Node000013"><a xlink:title=" ">
<path fill="none" stroke="#63b8ff" d="M37.29,-124C53.52,-124 78.05,-124 98.67,-124"/>
<polygon fill="#63b8ff" stroke="#63b8ff" points="98.44,-127.5 108.44,-124 98.44,-120.5 98.44,-127.5"/>
</a>
</g>
</g>
<!-- Node21 -->
<g id="Node000021" class="node">
<title>Node21</title>
<g id="a_Node000021"><a xlink:href="sdcard_8c.html#ac0efead9da3dedebd72b376562fca898" target="_top" xlink:title="Lista todos os arquivos presentes no diretório raiz via Serial.">
<polygon fill="white" stroke="#666666" points="466.38,-210 406.12,-210 406.12,-190 466.38,-190 466.38,-210"/>
<text xml:space="preserve" text-anchor="middle" x="436.25" y="-196.5" font-family="Helvetica,sans-Serif" font-size="10.00">sd_dir_list</text>
</a>
</g>
</g>
<!-- Node1&#45;&gt;Node21 -->
<g id="edge25_Node000001_Node000021" class="edge">
<title>Node1&#45;&gt;Node21</title>
<g id="a_edge25_Node000001_Node000021"><a xlink:title=" ">
<path fill="none" stroke="#63b8ff" d="M26.43,-134.2C35.49,-146.58 52.65,-166.94 73,-176 181.05,-224.08 325.33,-214.57 394.67,-206.06"/>
<polygon fill="#63b8ff" stroke="#63b8ff" points="394.96,-209.56 404.43,-204.8 394.07,-202.61 394.96,-209.56"/>
</a>
</g>
</g>
<!-- Node22 -->
<g id="Node000022" class="node">
<title>Node22</title>
<g id="a_Node000022"><a xlink:href="sdcard_8c.html#a8fb3672dbc5a29bab3e7614f4c655aff" target="_top" xlink:title="Localiza e monta o sistema de arquivos FAT32 no cartão SD.">
<polygon fill="white" stroke="#666666" points="616.25,-172 541,-172 541,-152 616.25,-152 616.25,-172"/>
<text xml:space="preserve" text-anchor="middle" x="578.62" y="-158.5" font-family="Helvetica,sans-Serif" font-size="10.00">sd_fat_mount</text>
</a>
</g>
</g>
<!-- Node1&#45;&gt;Node22 -->
<g id="edge28_Node000001_Node000022" class="edge">
<title>Node1&#45;&gt;Node22</title>
<g id="a_edge28_Node000001_Node000022"><a xlink:title=" ">
<path fill="none" stroke="#63b8ff" d="M37.44,-131.91C47.65,-136.02 60.8,-140.66 73,-143 238.18,-174.67 439.18,-169.54 529.55,-164.99"/>
<polygon fill="#63b8ff" stroke="#63b8ff" points="529.47,-168.5 539.27,-164.47 529.1,-161.5 529.47,-168.5"/>
</a>
</g>
</g>
<!-- Node23 -->
<g id="Node000023" class="node">
<title>Node23</title>
<g id="a_Node000023"><a xlink:href="exemplo__1_8c.html#a0c0ca72359ddf28dcd15900dfba19343" target="_top" xlink:title=" ">
<polygon fill="white" stroke="#666666" points="162.88,-20 112.38,-20 112.38,0 162.88,0 162.88,-20"/>
<text xml:space="preserve" text-anchor="middle" x="137.62" y="-6.5" font-family="Helvetica,sans-Serif" font-size="10.00">uart_init</text>
</a>
</g>
</g>
<!-- Node1&#45;&gt;Node23 -->
<g id="edge30_Node000001_Node000023" class="edge">
<title>Node1&#45;&gt;Node23</title>
<g id="a_edge30_Node000001_Node000023"><a xlink:title=" ">
<path fill="none" stroke="#63b8ff" d="M22.44,-113.71C28.54,-94.22 44.46,-51.8 73,-29 80.96,-22.64 91.01,-18.41 100.76,-15.59"/>
<polygon fill="#63b8ff" stroke="#63b8ff" points="101.55,-19 110.45,-13.25 99.91,-12.19 101.55,-19"/>
</a>
</g>
</g>
<!-- Node3 -->
<g id="Node000003" class="node">
<title>Node3</title>
<g id="a_Node000003"><a xlink:href="exemplo__4_8c.html#a95f3b940be7bd6926d8ef9532f3db2a3" target="_top" xlink:title="Callback chamado pela sd_file_read_stream para processar dados lidos.">
<polygon fill="white" stroke="#666666" points="354,-362 238.25,-362 238.25,-342 354,-342 354,-362"/>
<text xml:space="preserve" text-anchor="middle" x="296.12" y="-348.5" font-family="Helvetica,sans-Serif" font-size="10.00">callback_parser_config</text>
</a>
</g>
</g>
<!-- Node2&#45;&gt;Node3 -->
<g id="edge2_Node000002_Node000003" class="edge">
<title>Node2&#45;&gt;Node3</title>
<g id="a_edge2_Node000002_Node000003"><a xlink:title=" ">
<path fill="none" stroke="#63b8ff" d="M181.8,-324.48C200.11,-328.93 221.64,-334.16 240.99,-338.85"/>
<polygon fill="#63b8ff" stroke="#63b8ff" points="240.07,-342.23 250.62,-341.19 241.72,-335.43 240.07,-342.23"/>
</a>
</g>
</g>
<!-- Node4 -->
<g id="Node000004" class="node">
<title>Node4</title>
<g id="a_Node000004"><a xlink:href="sdcard_8c.html#a6bb4db7466137c6d4346e2264d403230" target="_top" xlink:title="Verifica se arquivo existe.">
<polygon fill="white" stroke="#666666" points="334.12,-324 258.12,-324 258.12,-304 334.12,-304 334.12,-324"/>
<text xml:space="preserve" text-anchor="middle" x="296.12" y="-310.5" font-family="Helvetica,sans-Serif" font-size="10.00">sd_file_exists</text>
</a>
</g>
</g>
<!-- Node2&#45;&gt;Node4 -->
<g id="edge3_Node000002_Node000004" class="edge">
<title>Node2&#45;&gt;Node4</title>
<g id="a_edge3_Node000002_Node000004"><a xlink:title=" ">
<path fill="none" stroke="#63b8ff" d="M202.73,-314C217.37,-314 232.7,-314 246.56,-314"/>
<polygon fill="#63b8ff" stroke="#63b8ff" points="246.3,-317.5 256.3,-314 246.3,-310.5 246.3,-317.5"/>
</a>
</g>
</g>
<!-- Node9 -->
<g id="Node000009" class="node">
<title>Node9</title>
<g id="a_Node000009"><a xlink:href="sdcard_8c.html#a4c9e96825f9777aab8c8980c35310db6" target="_top" xlink:title="Lê o conteúdo de um arquivo em modo streaming via callback.">
<polygon fill="white" stroke="#666666" points="348,-286 244.25,-286 244.25,-266 348,-266 348,-286"/>
<text xml:space="preserve" text-anchor="middle" x="296.12" y="-272.5" font-family="Helvetica,sans-Serif" font-size="10.00">sd_file_read_stream</text>
</a>
</g>
</g>
<!-- Node2&#45;&gt;Node9 -->
<g id="edge9_Node000002_Node000009" class="edge">
<title>Node2&#45;&gt;Node9</title>
<g id="a_edge9_Node000002_Node000009"><a xlink:title=" ">
<path fill="none" stroke="#63b8ff" d="M181.8,-303.52C200.11,-299.07 221.64,-293.84 240.99,-289.15"/>
<polygon fill="#63b8ff" stroke="#63b8ff" points="241.72,-292.57 250.62,-286.81 240.07,-285.77 241.72,-292.57"/>
</a>
</g>
</g>
<!-- Node10 -->
<g id="Node000010" class="node">
<title>Node10</title>
<g id="a_Node000010"><a xlink:href="sdcard_8c.html#af2ad3468d37d6d256e022bafa756ac32" target="_top" xlink:title="Converte uma string convencional para o formato FAT 8.3.">
<polygon fill="white" stroke="#666666" points="339.75,-400 252.5,-400 252.5,-380 339.75,-380 339.75,-400"/>
<text xml:space="preserve" text-anchor="middle" x="296.12" y="-386.5" font-family="Helvetica,sans-Serif" font-size="10.00">sd_set_filename</text>
</a>
</g>
</g>
<!-- Node2&#45;&gt;Node10 -->
<g id="edge13_Node000002_Node000010" class="edge">
<title>Node2&#45;&gt;Node10</title>
<g id="a_edge13_Node000002_Node000010"><a xlink:title=" ">
<path fill="none" stroke="#63b8ff" d="M154.33,-324.29C173.55,-336.56 207.33,-357.15 238.25,-371 241.83,-372.6 245.58,-374.14 249.38,-375.61"/>
<polygon fill="#63b8ff" stroke="#63b8ff" points="248.1,-378.87 258.7,-379 250.5,-372.29 248.1,-378.87"/>
</a>
</g>
</g>
<!-- Node5 -->
<g id="Node000005" class="node">
<title>Node5</title>
<g id="a_Node000005"><a xlink:href="sdcard_8c.html#a3794ef278970bdb3d1d50b3f10fc4e9f" target="_top" xlink:title="Localiza a entrada de um arquivo no diretório raiz.">
<polygon fill="white" stroke="#666666" points="482.5,-324 390,-324 390,-304 482.5,-304 482.5,-324"/>
<text xml:space="preserve" text-anchor="middle" x="436.25" y="-310.5" font-family="Helvetica,sans-Serif" font-size="10.00">sd_find_file_entry</text>
</a>
</g>
</g>
<!-- Node4&#45;&gt;Node5 -->
<g id="edge4_Node000004_Node000005" class="edge">
<title>Node4&#45;&gt;Node5</title>
<g id="a_edge4_Node000004_Node000005"><a xlink:title=" ">
<path fill="none" stroke="#63b8ff" d="M334.5,-314C348.06,-314 363.71,-314 378.56,-314"/>
<polygon fill="#63b8ff" stroke="#63b8ff" points="378.2,-317.5 388.2,-314 378.2,-310.5 378.2,-317.5"/>
</a>
</g>
</g>
<!-- Node6 -->
<g id="Node000006" class="node">
<title>Node6</title>
<g id="a_Node000006"><a xlink:href="sdcard_8c.html#aba9c8b9a5590e13424ab4a69280f0c1d" target="_top" xlink:title="Lê um único bloco de 512 bytes do cartão (LBA).">
<polygon fill="white" stroke="#666666" points="765.75,-240 697.25,-240 697.25,-220 765.75,-220 765.75,-240"/>
<text xml:space="preserve" text-anchor="middle" x="731.5" y="-226.5" font-family="Helvetica,sans-Serif" font-size="10.00">sd_blk_read</text>
</a>
</g>
</g>
<!-- Node5&#45;&gt;Node6 -->
<g id="edge5_Node000005_Node000006" class="edge">
<title>Node5&#45;&gt;Node6</title>
<g id="a_edge5_Node000005_Node000006"><a xlink:title=" ">
<path fill="none" stroke="#63b8ff" d="M482.63,-314.46C524.39,-313.53 587.43,-308.67 638.75,-290 665.46,-280.28 692.23,-261.48 709.9,-247.51"/>
<polygon fill="#63b8ff" stroke="#63b8ff" points="712.01,-250.31 717.55,-241.28 707.59,-244.88 712.01,-250.31"/>
</a>
</g>
</g>
<!-- Node8 -->
<g id="Node000008" class="node">
<title>Node8</title>
<g id="a_Node000008"><a xlink:href="sdcard_8c.html#a7b0d2ab1fae193461c611a4f2e6c9245" target="_top" xlink:title="Obtém o próximo cluster na tabela FAT.">
<polygon fill="white" stroke="#666666" points="638.75,-248 518.5,-248 518.5,-228 638.75,-228 638.75,-248"/>
<text xml:space="preserve" text-anchor="middle" x="578.62" y="-234.5" font-family="Helvetica,sans-Serif" font-size="10.00">sd_fat_get_next_cluster</text>
</a>
</g>
</g>
<!-- Node5&#45;&gt;Node8 -->
<g id="edge7_Node000005_Node000008" class="edge">
<title>Node5&#45;&gt;Node8</title>
<g id="a_edge7_Node000005_Node000008"><a xlink:title=" ">
<path fill="none" stroke="#63b8ff" d="M456.47,-303.59C480.31,-290.69 521.16,-268.57 548.77,-253.62"/>
<polygon fill="#63b8ff" stroke="#63b8ff" points="550.17,-256.84 557.3,-249 546.84,-250.69 550.17,-256.84"/>
</a>
</g>
</g>
<!-- Node7 -->
<g id="Node000007" class="node">
<title>Node7</title>
<g id="a_Node000007"><a xlink:href="sdcard_8c.html#aae1cfbcba5f92f4639e23fd8ed8fa3c0" target="_top" xlink:title="Envia um comando SPI para o cartão SD e aguarda resposta R1.">
<polygon fill="white" stroke="#666666" points="901,-217 824.25,-217 824.25,-197 901,-197 901,-217"/>
<text xml:space="preserve" text-anchor="middle" x="862.62" y="-203.5" font-family="Helvetica,sans-Serif" font-size="10.00">sd_cmd_send</text>
</a>
</g>
</g>
<!-- Node6&#45;&gt;Node7 -->
<g id="edge6_Node000006_Node000007" class="edge">
<title>Node6&#45;&gt;Node7</title>
<g id="a_edge6_Node000006_Node000007"><a xlink:title=" ">
<path fill="none" stroke="#63b8ff" d="M766.09,-224.02C780.4,-221.47 797.37,-218.44 813.01,-215.66"/>
<polygon fill="#63b8ff" stroke="#63b8ff" points="813.39,-219.15 822.62,-213.95 812.16,-212.26 813.39,-219.15"/>
</a>
</g>
</g>
<!-- Node8&#45;&gt;Node6 -->
<g id="edge8_Node000008_Node000006" class="edge">
<title>Node8&#45;&gt;Node6</title>
<g id="a_edge8_Node000008_Node000006"><a xlink:title=" ">
<path fill="none" stroke="#63b8ff" d="M638.82,-234.86C654.46,-234.03 671.07,-233.15 685.79,-232.37"/>
<polygon fill="#63b8ff" stroke="#63b8ff" points="685.83,-235.87 695.63,-231.85 685.46,-228.88 685.83,-235.87"/>
</a>
</g>
</g>
<!-- Node9&#45;&gt;Node5 -->
<g id="edge12_Node000009_Node000005" class="edge">
<title>Node9&#45;&gt;Node5</title>
<g id="a_edge12_Node000009_Node000005"><a xlink:title=" ">
<path fill="none" stroke="#63b8ff" d="M335.23,-286.48C351.09,-290.85 369.68,-295.96 386.51,-300.59"/>
<polygon fill="#63b8ff" stroke="#63b8ff" points="385.24,-303.87 395.81,-303.15 387.09,-297.12 385.24,-303.87"/>
</a>
</g>
</g>
<!-- Node9&#45;&gt;Node6 -->
<g id="edge10_Node000009_Node000006" class="edge">
<title>Node9&#45;&gt;Node6</title>
<g id="a_edge10_Node000009_Node000006"><a xlink:title=" ">
<path fill="none" stroke="#63b8ff" d="M348.47,-276.81C415.68,-277.04 536.9,-274.58 638.75,-257 656.17,-253.99 674.96,-248.82 690.98,-243.8"/>
<polygon fill="#63b8ff" stroke="#63b8ff" points="691.69,-247.25 700.13,-240.85 689.54,-240.59 691.69,-247.25"/>
</a>
</g>
</g>
<!-- Node9&#45;&gt;Node8 -->
<g id="edge11_Node000009_Node000008" class="edge">
<title>Node9&#45;&gt;Node8</title>
<g id="a_edge11_Node000009_Node000008"><a xlink:title=" ">
<path fill="none" stroke="#63b8ff" d="M348.19,-268.09C361.77,-266.05 376.43,-263.89 390,-262 428.59,-256.62 471.72,-251.07 506.89,-246.67"/>
<polygon fill="#63b8ff" stroke="#63b8ff" points="507.02,-250.18 516.51,-245.47 506.15,-243.23 507.02,-250.18"/>
</a>
</g>
</g>
<!-- Node14 -->
<g id="Node000014" class="node">
<title>Node14</title>
<g id="a_Node000014"><a xlink:href="sdcard_8c.html#afac6d670e786eaea1f07a4eb95b25ac6" target="_top" xlink:title="Inicialização rápida para AVR (configura pinos + HAL interno).">
<polygon fill="white" stroke="#666666" points="332.62,-96 259.62,-96 259.62,-76 332.62,-76 332.62,-96"/>
<text xml:space="preserve" text-anchor="middle" x="296.12" y="-82.5" font-family="Helvetica,sans-Serif" font-size="10.00">sd_quick_init</text>
</a>
</g>
</g>
<!-- Node13&#45;&gt;Node14 -->
<g id="edge17_Node000013_Node000014" class="edge">
<title>Node13&#45;&gt;Node14</title>
<g id="a_edge17_Node000013_Node000014"><a xlink:title=" ">
<path fill="none" stroke="#63b8ff" d="M165.53,-117.47C188.16,-111.97 221.06,-103.98 248.05,-97.43"/>
<polygon fill="#63b8ff" stroke="#63b8ff" points="248.84,-100.84 257.73,-95.08 247.19,-94.04 248.84,-100.84"/>
</a>
</g>
</g>
<!-- Node15 -->
<g id="Node000015" class="node">
<title>Node15</title>
<g id="a_Node000015"><a xlink:href="sdcard_8c.html#a6cf66af945c22b51e07f145a63869c5a" target="_top" xlink:title="Desativa o Chip Select (CS) &#45; Pino PB2.">
<polygon fill="white" stroke="#666666" points="471.62,-96 400.88,-96 400.88,-76 471.62,-76 471.62,-96"/>
<text xml:space="preserve" text-anchor="middle" x="436.25" y="-82.5" font-family="Helvetica,sans-Serif" font-size="10.00">_sd_cs_high</text>
</a>
</g>
</g>
<!-- Node14&#45;&gt;Node15 -->
<g id="edge18_Node000014_Node000015" class="edge">
<title>Node14&#45;&gt;Node15</title>
<g id="a_edge18_Node000014_Node000015"><a xlink:title=" ">
<path fill="none" stroke="#63b8ff" d="M333.06,-86C350.18,-86 370.88,-86 389.15,-86"/>
<polygon fill="#63b8ff" stroke="#63b8ff" points="388.94,-89.5 398.94,-86 388.94,-82.5 388.94,-89.5"/>
</a>
</g>
</g>
<!-- Node16 -->
<g id="Node000016" class="node">
<title>Node16</title>
<g id="a_Node000016"><a xlink:href="sdcard_8c.html#aeabfda2a0d078f02c8fdedc7c840cc69" target="_top" xlink:title="Ativa o Chip Select (CS) &#45; Pino PB2.">
<polygon fill="white" stroke="#666666" points="470.12,-58 402.38,-58 402.38,-38 470.12,-38 470.12,-58"/>
<text xml:space="preserve" text-anchor="middle" x="436.25" y="-44.5" font-family="Helvetica,sans-Serif" font-size="10.00">_sd_cs_low</text>
</a>
</g>
</g>
<!-- Node14&#45;&gt;Node16 -->
<g id="edge19_Node000014_Node000016" class="edge">
<title>Node14&#45;&gt;Node16</title>
<g id="a_edge19_Node000014_Node000016"><a xlink:title=" ">
<path fill="none" stroke="#63b8ff" d="M333.06,-76.12C350.88,-71.21 372.56,-65.25 391.36,-60.07"/>
<polygon fill="#63b8ff" stroke="#63b8ff" points="392.17,-63.48 400.88,-57.46 390.31,-56.73 392.17,-63.48"/>
</a>
</g>
</g>
<!-- Node17 -->
<g id="Node000017" class="node">
<title>Node17</title>
<g id="a_Node000017"><a xlink:href="sdcard_8c.html#a8092c4cbf898989b2bf07325565e0cbd" target="_top" xlink:title="Transmissão/recepção de um byte via SPI (função interna).">
<polygon fill="white" stroke="#666666" points="480.25,-20 392.25,-20 392.25,0 480.25,0 480.25,-20"/>
<text xml:space="preserve" text-anchor="middle" x="436.25" y="-6.5" font-family="Helvetica,sans-Serif" font-size="10.00">_sd_spi_transfer</text>
</a>
</g>
</g>
<!-- Node14&#45;&gt;Node17 -->
<g id="edge20_Node000014_Node000017" class="edge">
<title>Node14&#45;&gt;Node17</title>
<g id="a_edge20_Node000014_Node000017"><a xlink:title=" ">
<path fill="none" stroke="#63b8ff" d="M312.48,-75.57C330.56,-63.52 361.72,-43.51 390,-29 392.68,-27.63 395.48,-26.27 398.32,-24.95"/>
<polygon fill="#63b8ff" stroke="#63b8ff" points="399.51,-28.25 407.24,-21 396.67,-21.85 399.51,-28.25"/>
</a>
</g>
</g>
<!-- Node18 -->
<g id="Node000018" class="node">
<title>Node18</title>
<g id="a_Node000018"><a xlink:href="sdcard_8c.html#abb7664cb3bec0e4c545128d134f0e054" target="_top" xlink:title="Tenta inicializar o cartão at 3 vezes com delay entre tentativas.">
<polygon fill="white" stroke="#666666" points="470.88,-134 401.62,-134 401.62,-114 470.88,-114 470.88,-134"/>
<text xml:space="preserve" text-anchor="middle" x="436.25" y="-120.5" font-family="Helvetica,sans-Serif" font-size="10.00">sd_init_retry</text>
</a>
</g>
</g>
<!-- Node14&#45;&gt;Node18 -->
<g id="edge21_Node000014_Node000018" class="edge">
<title>Node14&#45;&gt;Node18</title>
<g id="a_edge21_Node000014_Node000018"><a xlink:title=" ">
<path fill="none" stroke="#63b8ff" d="M333.06,-95.88C350.61,-100.72 371.92,-106.58 390.52,-111.69"/>
<polygon fill="#63b8ff" stroke="#63b8ff" points="389.37,-115.01 399.94,-114.29 391.23,-108.26 389.37,-115.01"/>
</a>
</g>
</g>
<!-- Node19 -->
<g id="Node000019" class="node">
<title>Node19</title>
<g id="a_Node000019"><a xlink:href="sdcard_8c.html#a6a8f9df03a1b222e8ea45199b7431e19" target="_top" xlink:title="Inicializa o cartão SD no modo SPI.">
<polygon fill="white" stroke="#666666" points="600.88,-134 556.38,-134 556.38,-114 600.88,-114 600.88,-134"/>
<text xml:space="preserve" text-anchor="middle" x="578.62" y="-120.5" font-family="Helvetica,sans-Serif" font-size="10.00">sd_init</text>
</a>
</g>
</g>
<!-- Node18&#45;&gt;Node19 -->
<g id="edge22_Node000018_Node000019" class="edge">
<title>Node18&#45;&gt;Node19</title>
<g id="a_edge22_Node000018_Node000019"><a xlink:title=" ">
<path fill="none" stroke="#63b8ff" d="M471.23,-124C493.55,-124 522.6,-124 544.7,-124"/>
<polygon fill="#63b8ff" stroke="#63b8ff" points="544.66,-127.5 554.66,-124 544.66,-120.5 544.66,-127.5"/>
</a>
</g>
</g>
<!-- Node19&#45;&gt;Node7 -->
<g id="edge24_Node000019_Node000007" class="edge">
<title>Node19&#45;&gt;Node7</title>
<g id="a_edge24_Node000019_Node000007"><a xlink:title=" ">
<path fill="none" stroke="#63b8ff" d="M601.28,-130.38C646.82,-143.78 753.33,-175.13 815.08,-193.3"/>
<polygon fill="#63b8ff" stroke="#63b8ff" points="814.04,-196.64 824.62,-196.11 816.01,-189.93 814.04,-196.64"/>
</a>
</g>
</g>
<!-- Node20 -->
<g id="Node000020" class="node">
<title>Node20</title>
<g id="a_Node000020"><a xlink:href="sdcard_8c.html#abf6c02ac2130c37a0bff2e6b9a6c25cb" target="_top" xlink:title="Configura a velocidade do SPI no AVR (função interna).">
<polygon fill="white" stroke="#666666" points="788.25,-140 674.75,-140 674.75,-108 788.25,-108 788.25,-140"/>
<text xml:space="preserve" text-anchor="start" x="682.75" y="-126.5" font-family="Helvetica,sans-Serif" font-size="10.00">sd_avr_spi_set_speed</text>
<text xml:space="preserve" text-anchor="middle" x="731.5" y="-114.5" font-family="Helvetica,sans-Serif" font-size="10.00">_default</text>
</a>
</g>
</g>
<!-- Node19&#45;&gt;Node20 -->
<g id="edge23_Node000019_Node000020" class="edge">
<title>Node19&#45;&gt;Node20</title>
<g id="a_edge23_Node000019_Node000020"><a xlink:title=" ">
<path fill="none" stroke="#63b8ff" d="M601.24,-124C617.48,-124 640.66,-124 662.91,-124"/>
<polygon fill="#63b8ff" stroke="#63b8ff" points="662.91,-127.5 672.91,-124 662.91,-120.5 662.91,-127.5"/>
</a>
</g>
</g>
<!-- Node21&#45;&gt;Node6 -->
<g id="edge26_Node000021_Node000006" class="edge">
<title>Node21&#45;&gt;Node6</title>
<g id="a_edge26_Node000021_Node000006"><a xlink:title=" ">
<path fill="none" stroke="#63b8ff" d="M466.64,-202.54C505.9,-205.98 577.61,-212.45 638.75,-219 654.13,-220.65 670.94,-222.61 685.92,-224.43"/>
<polygon fill="#63b8ff" stroke="#63b8ff" points="685.12,-227.85 695.47,-225.59 685.96,-220.9 685.12,-227.85"/>
</a>
</g>
</g>
<!-- Node21&#45;&gt;Node8 -->
<g id="edge27_Node000021_Node000008" class="edge">
<title>Node21&#45;&gt;Node8</title>
<g id="a_edge27_Node000021_Node000008"><a xlink:title=" ">
<path fill="none" stroke="#63b8ff" d="M466.68,-207.97C484.38,-212.76 507.38,-218.98 527.85,-224.52"/>
<polygon fill="#63b8ff" stroke="#63b8ff" points="526.88,-227.89 537.44,-227.12 528.71,-221.13 526.88,-227.89"/>
</a>
</g>
</g>
<!-- Node22&#45;&gt;Node6 -->
<g id="edge29_Node000022_Node000006" class="edge">
<title>Node22&#45;&gt;Node6</title>
<g id="a_edge29_Node000022_Node000006"><a xlink:title=" ">
<path fill="none" stroke="#63b8ff" d="M606.26,-172.41C616.48,-176.51 628.21,-181.34 638.75,-186 659.22,-195.05 681.9,-205.92 699.59,-214.59"/>
<polygon fill="#63b8ff" stroke="#63b8ff" points="698.02,-217.72 708.54,-219 701.12,-211.44 698.02,-217.72"/>
</a>
</g>
</g>
</g>
</svg>
