<?xml version="1.0" encoding="UTF-8" standalone="no"?>
<!DOCTYPE svg PUBLIC "-//W3C//DTD SVG 1.1//EN"
 "http://www.w3.org/Graphics/SVG/1.1/DTD/svg11.dtd">
<!-- Generated by graphviz version 14.1.4 (20260321.0153)
 -->
<!-- Title: main Pages: 1 -->
<svg width="1198pt" height="926pt"
 viewBox="0.00 0.00 1198.00 926.00" xmlns="http://www.w3.org/2000/svg" xmlns:xlink="http://www.w3.org/1999/xlink">
<g id="graph0" class="graph" transform="scale(1 1) rotate(0) translate(4 922.04)">
<title>main</title>
<!-- Node1 -->
<g id="Node000001" class="node">
<title>Node1</title>
<g id="a_Node000001"><a xlink:title="Função principal.">
<polygon fill="#999999" stroke="#666666" points="37,-628 0,-628 0,-608 37,-608 37,-628"/>
<text xml:space="preserve" text-anchor="middle" x="18.5" y="-614.5" font-family="Helvetica,sans-Serif" font-size="10.00">main</text>
</a>
</g>
</g>
<!-- Node2 -->
<g id="Node000002" class="node">
<title>Node2</title>
<g id="a_Node000002"><a xlink:href="exemplo__2_8c.html#a71c134181186f04ca234d95f2b605e9a" target="_top" xlink:title="Executa o teste completo: Inicialização, Gravação e Busca.">
<polygon fill="white" stroke="#666666" points="182,-647 73,-647 73,-627 182,-627 182,-647"/>
<text xml:space="preserve" text-anchor="middle" x="127.5" y="-633.5" font-family="Helvetica,sans-Serif" font-size="10.00">teste_datalogger_csv</text>
</a>
</g>
</g>
<!-- Node1&#45;&gt;Node2 -->
<g id="edge1_Node000001_Node000002" class="edge">
<title>Node1&#45;&gt;Node2</title>
<g id="a_edge1_Node000001_Node000002"><a xlink:title=" ">
<path fill="none" stroke="#63b8ff" d="M37.17,-621.14C44.17,-622.38 52.7,-623.89 61.66,-625.49"/>
<polygon fill="#63b8ff" stroke="#63b8ff" points="60.8,-628.89 71.26,-627.19 62.03,-622 60.8,-628.89"/>
</a>
</g>
</g>
<!-- Node37 -->
<g id="Node000037" class="node">
<title>Node37</title>
<g id="a_Node000037"><a xlink:href="exemplo__1_8c.html#a0c0ca72359ddf28dcd15900dfba19343" target="_top" xlink:title=" ">
<polygon fill="white" stroke="#666666" points="152.75,-609 102.25,-609 102.25,-589 152.75,-589 152.75,-609"/>
<text xml:space="preserve" text-anchor="middle" x="127.5" y="-595.5" font-family="Helvetica,sans-Serif" font-size="10.00">uart_init</text>
</a>
</g>
</g>
<!-- Node1&#45;&gt;Node37 -->
<g id="edge70_Node000001_Node000037" class="edge">
<title>Node1&#45;&gt;Node37</title>
<g id="a_edge70_Node000001_Node000037"><a xlink:title=" ">
<path fill="none" stroke="#63b8ff" d="M37.17,-614.86C51.68,-612.29 72.7,-608.55 90.7,-605.36"/>
<polygon fill="#63b8ff" stroke="#63b8ff" points="91.27,-608.81 100.51,-603.62 90.05,-601.92 91.27,-608.81"/>
</a>
</g>
</g>
<!-- Node3 -->
<g id="Node000003" class="node">
<title>Node3</title>
<g id="a_Node000003"><a xlink:href="exemplo__2_8c.html#aba31b1e3919797222f981b3bc0fa1eda" target="_top" xlink:title="Inicia a busca por um valor em uma coluna específica do arquivo CSV.">
<polygon fill="white" stroke="#666666" points="327.38,-818 225.12,-818 225.12,-798 327.38,-798 327.38,-818"/>
<text xml:space="preserve" text-anchor="middle" x="276.25" y="-804.5" font-family="Helvetica,sans-Serif" font-size="10.00">busca_valor_coluna</text>
</a>
</g>
</g>
<!-- Node2&#45;&gt;Node3 -->
<g id="edge2_Node000002_Node000003" class="edge">
<title>Node2&#45;&gt;Node3</title>
<g id="a_edge2_Node000002_Node000003"><a xlink:title=" ">
<path fill="none" stroke="#63b8ff" d="M132.21,-647.42C142.11,-673.82 171.57,-744.05 218,-784 221.78,-787.25 226.06,-790.11 230.54,-792.61"/>
<polygon fill="#63b8ff" stroke="#63b8ff" points="228.67,-795.59 239.19,-796.87 231.76,-789.31 228.67,-795.59"/>
</a>
</g>
</g>
<!-- Node10 -->
<g id="Node000010" class="node">
<title>Node10</title>
<g id="a_Node000010"><a xlink:href="sdcard_8c.html#af2ad3468d37d6d256e022bafa756ac32" target="_top" xlink:title="Converte uma string convencional para o formato FAT 8.3.">
<polygon fill="white" stroke="#666666" points="478.75,-856 391.5,-856 391.5,-836 478.75,-836 478.75,-856"/>
<text xml:space="preserve" text-anchor="middle" x="435.12" y="-842.5" font-family="Helvetica,sans-Serif" font-size="10.00">sd_set_filename</text>
</a>
</g>
</g>
<!-- Node2&#45;&gt;Node10 -->
<g id="edge69_Node000002_Node000010" class="edge">
<title>Node2&#45;&gt;Node10</title>
<g id="a_edge69_Node000002_Node000010"><a xlink:title=" ">
<path fill="none" stroke="#63b8ff" d="M129.77,-647.06C134.46,-679.58 154,-782.35 218,-827 265.23,-859.95 333.14,-860.32 380.17,-855.27"/>
<polygon fill="#63b8ff" stroke="#63b8ff" points="380.35,-858.78 389.86,-854.11 379.51,-851.83 380.35,-858.78"/>
</a>
</g>
</g>
<!-- Node11 -->
<g id="Node000011" class="node">
<title>Node11</title>
<g id="a_Node000011"><a xlink:href="exemplo__2_8c.html#abefbf62945c5d9d22081fc557119d711" target="_top" xlink:title="Gera linhas formatadas em CSV para gravação via Streaming.">
<polygon fill="white" stroke="#666666" points="327.38,-362 225.12,-362 225.12,-342 327.38,-342 327.38,-362"/>
<text xml:space="preserve" text-anchor="middle" x="276.25" y="-348.5" font-family="Helvetica,sans-Serif" font-size="10.00">callback_datalogger</text>
</a>
</g>
</g>
<!-- Node2&#45;&gt;Node11 -->
<g id="edge13_Node000002_Node000011" class="edge">
<title>Node2&#45;&gt;Node11</title>
<g id="a_edge13_Node000002_Node000011"><a xlink:title=" ">
<path fill="none" stroke="#63b8ff" d="M171.89,-626.54C175.71,-624.24 179.19,-621.43 182,-618 252.37,-532.24 146.74,-456.03 218,-371 218.45,-370.46 218.92,-369.94 219.4,-369.43"/>
<polygon fill="#63b8ff" stroke="#63b8ff" points="221.44,-372.28 227.12,-363.34 217.1,-366.78 221.44,-372.28"/>
</a>
</g>
</g>
<!-- Node12 -->
<g id="Node000012" class="node">
<title>Node12</title>
<g id="a_Node000012"><a xlink:href="exemplo__1_8c.html#a9ddddd20ec13dcafa912ee1d93f76a37" target="_top" xlink:title=" ">
<polygon fill="white" stroke="#666666" points="314.62,-324 237.88,-324 237.88,-304 314.62,-304 314.62,-324"/>
<text xml:space="preserve" text-anchor="middle" x="276.25" y="-310.5" font-family="Helvetica,sans-Serif" font-size="10.00">my_delay_ms</text>
</a>
</g>
</g>
<!-- Node2&#45;&gt;Node12 -->
<g id="edge14_Node000002_Node000012" class="edge">
<title>Node2&#45;&gt;Node12</title>
<g id="a_edge14_Node000002_Node000012"><a xlink:title=" ">
<path fill="none" stroke="#63b8ff" d="M171.95,-626.6C175.76,-624.28 179.22,-621.46 182,-618 262.04,-518.53 136.93,-431.63 218,-333 220.68,-329.73 223.95,-327.03 227.54,-324.78"/>
<polygon fill="#63b8ff" stroke="#63b8ff" points="228.82,-328.05 236.28,-320.52 225.75,-321.75 228.82,-328.05"/>
</a>
</g>
</g>
<!-- Node13 -->
<g id="Node000013" class="node">
<title>Node13</title>
<g id="a_Node000013"><a xlink:href="sdcard_8c.html#a0de914bcd39f32ddd2f8412744267322" target="_top" xlink:title="Prepara o contexto da biblioteca e inicializa a interface de hardware.">
<polygon fill="white" stroke="#666666" points="303.75,-400 248.75,-400 248.75,-380 303.75,-380 303.75,-400"/>
<text xml:space="preserve" text-anchor="middle" x="276.25" y="-386.5" font-family="Helvetica,sans-Serif" font-size="10.00">sd_begin</text>
</a>
</g>
</g>
<!-- Node2&#45;&gt;Node13 -->
<g id="edge15_Node000002_Node000013" class="edge">
<title>Node2&#45;&gt;Node13</title>
<g id="a_edge15_Node000002_Node000013"><a xlink:title=" ">
<path fill="none" stroke="#63b8ff" d="M171.54,-626.62C175.48,-624.3 179.08,-621.47 182,-618 242.73,-545.91 156.53,-480.45 218,-409 223.09,-403.08 230.08,-399 237.42,-396.18"/>
<polygon fill="#63b8ff" stroke="#63b8ff" points="238.25,-399.59 246.8,-393.34 236.22,-392.89 238.25,-399.59"/>
</a>
</g>
</g>
<!-- Node21 -->
<g id="Node000021" class="node">
<title>Node21</title>
<g id="a_Node000021"><a xlink:href="sdcard_8c.html#ac0efead9da3dedebd72b376562fca898" target="_top" xlink:title="Lista todos os arquivos presentes no diretório raiz via Serial.">
<polygon fill="white" stroke="#666666" points="617.38,-742 557.12,-742 557.12,-722 617.38,-722 617.38,-742"/>
<text xml:space="preserve" text-anchor="middle" x="587.25" y="-728.5" font-family="Helvetica,sans-Serif" font-size="10.00">sd_dir_list</text>
</a>
</g>
</g>
<!-- Node2&#45;&gt;Node21 -->
<g id="edge24_Node000002_Node000021" class="edge">
<title>Node2&#45;&gt;Node21</title>
<g id="a_edge24_Node000002_Node000021"><a xlink:title=" ">
<path fill="none" stroke="#63b8ff" d="M148.21,-647.37C165.98,-656.28 193.08,-668.81 218,-676 334.29,-709.56 477.39,-723.98 545.93,-729.31"/>
<polygon fill="#63b8ff" stroke="#63b8ff" points="545.31,-732.77 555.54,-730.03 545.83,-725.79 545.31,-732.77"/>
</a>
</g>
</g>
<!-- Node22 -->
<g id="Node000022" class="node">
<title>Node22</title>
<g id="a_Node000022"><a xlink:href="sdcard_8c.html#a8fb3672dbc5a29bab3e7614f4c655aff" target="_top" xlink:title="Localiza e monta o sistema de arquivos FAT32 no cartão SD.">
<polygon fill="white" stroke="#666666" points="772.5,-875 697.25,-875 697.25,-855 772.5,-855 772.5,-875"/>
<text xml:space="preserve" text-anchor="middle" x="734.88" y="-861.5" font-family="Helvetica,sans-Serif" font-size="10.00">sd_fat_mount</text>
</a>
</g>
</g>
<!-- Node2&#45;&gt;Node22 -->
<g id="edge27_Node000002_Node000022" class="edge">
<title>Node2&#45;&gt;Node22</title>
<g id="a_edge27_Node000002_Node000022"><a xlink:title=" ">
<path fill="none" stroke="#63b8ff" d="M129.05,-647.09C131.6,-682.85 145.51,-804.15 218,-856 363.97,-960.41 597.44,-906.9 692.04,-878.71"/>
<polygon fill="#63b8ff" stroke="#63b8ff" points="692.88,-882.11 701.43,-875.85 690.84,-875.41 692.88,-882.11"/>
</a>
</g>
</g>
<!-- Node23 -->
<g id="Node000023" class="node">
<title>Node23</title>
<g id="a_Node000023"><a xlink:href="sdcard_8c.html#a3cb6e9bbb79a21ebf8cf7357ed262726" target="_top" xlink:title="Adiciona dados ao final de um arquivo, expandindo clusters se necessário.">
<polygon fill="white" stroke="#666666" points="334.5,-552 218,-552 218,-532 334.5,-532 334.5,-552"/>
<text xml:space="preserve" text-anchor="middle" x="276.25" y="-538.5" font-family="Helvetica,sans-Serif" font-size="10.00">sd_file_append_stream</text>
</a>
</g>
</g>
<!-- Node2&#45;&gt;Node23 -->
<g id="edge29_Node000002_Node000023" class="edge">
<title>Node2&#45;&gt;Node23</title>
<g id="a_edge29_Node000002_Node000023"><a xlink:title=" ">
<path fill="none" stroke="#63b8ff" d="M163.51,-626.52C169.84,-624.08 176.24,-621.24 182,-618 210.62,-601.89 239.27,-576.89 257.11,-560.01"/>
<polygon fill="#63b8ff" stroke="#63b8ff" points="259.1,-562.96 263.86,-553.49 254.24,-557.92 259.1,-562.96"/>
</a>
</g>
</g>
<!-- Node31 -->
<g id="Node000031" class="node">
<title>Node31</title>
<g id="a_Node000031"><a xlink:href="sdcard_8c.html#a5228ed5a829330c001b1614c8476236c" target="_top" xlink:title="Cria um novo arquivo no diretório raiz com expansão de cluster.">
<polygon fill="white" stroke="#666666" points="314.62,-438 237.88,-438 237.88,-418 314.62,-418 314.62,-438"/>
<text xml:space="preserve" text-anchor="middle" x="276.25" y="-424.5" font-family="Helvetica,sans-Serif" font-size="10.00">sd_file_create</text>
</a>
</g>
</g>
<!-- Node2&#45;&gt;Node31 -->
<g id="edge50_Node000002_Node000031" class="edge">
<title>Node2&#45;&gt;Node31</title>
<g id="a_edge50_Node000002_Node000031"><a xlink:title=" ">
<path fill="none" stroke="#63b8ff" d="M169.83,-626.59C174.29,-624.27 178.48,-621.45 182,-618 214.26,-586.41 198.27,-563.61 218,-523 231.08,-496.09 249.37,-466.85 261.73,-448.02"/>
<polygon fill="#63b8ff" stroke="#63b8ff" points="264.62,-450 267.24,-439.74 258.79,-446.13 264.62,-450"/>
</a>
</g>
</g>
<!-- Node35 -->
<g id="Node000035" class="node">
<title>Node35</title>
<g id="a_Node000035"><a xlink:href="sdcard_8c.html#af2ad75b395d583c12294747d47860497" target="_top" xlink:title="Exclui um arquivo do diretório e libera seu espaço no disco.">
<polygon fill="white" stroke="#666666" points="625.25,-704 549.25,-704 549.25,-684 625.25,-684 625.25,-704"/>
<text xml:space="preserve" text-anchor="middle" x="587.25" y="-690.5" font-family="Helvetica,sans-Serif" font-size="10.00">sd_file_delete</text>
</a>
</g>
</g>
<!-- Node2&#45;&gt;Node35 -->
<g id="edge62_Node000002_Node000035" class="edge">
<title>Node2&#45;&gt;Node35</title>
<g id="a_edge62_Node000002_Node000035"><a xlink:title=" ">
<path fill="none" stroke="#63b8ff" d="M182.18,-646.5C231.12,-654.91 305.49,-667.04 370.5,-675 427.59,-681.99 493.49,-687.41 537.29,-690.64"/>
<polygon fill="#63b8ff" stroke="#63b8ff" points="537.01,-694.13 547.24,-691.36 537.52,-687.15 537.01,-694.13"/>
</a>
</g>
</g>
<!-- Node4 -->
<g id="Node000004" class="node">
<title>Node4</title>
<g id="a_Node000004"><a xlink:href="exemplo__2_8c.html#a1d139aeb7facf235c50daa42a1924ae5" target="_top" xlink:title="Processa blocos de dados lidos do SD em tempo real para busca de valores.">
<polygon fill="white" stroke="#666666" points="476.88,-818 393.38,-818 393.38,-798 476.88,-798 476.88,-818"/>
<text xml:space="preserve" text-anchor="middle" x="435.12" y="-804.5" font-family="Helvetica,sans-Serif" font-size="10.00">callback_busca</text>
</a>
</g>
</g>
<!-- Node3&#45;&gt;Node4 -->
<g id="edge3_Node000003_Node000004" class="edge">
<title>Node3&#45;&gt;Node4</title>
<g id="a_edge3_Node000003_Node000004"><a xlink:title=" ">
<path fill="none" stroke="#63b8ff" d="M327.75,-808C345.02,-808 364.36,-808 381.77,-808"/>
<polygon fill="#63b8ff" stroke="#63b8ff" points="381.38,-811.5 391.38,-808 381.38,-804.5 381.38,-811.5"/>
</a>
</g>
</g>
<!-- Node5 -->
<g id="Node000005" class="node">
<title>Node5</title>
<g id="a_Node000005"><a xlink:href="sdcard_8c.html#a4c9e96825f9777aab8c8980c35310db6" target="_top" xlink:title="Lê o conteúdo de um arquivo em modo streaming via callback.">
<polygon fill="white" stroke="#666666" points="487,-666 383.25,-666 383.25,-646 487,-646 487,-666"/>
<text xml:space="preserve" text-anchor="middle" x="435.12" y="-652.5" font-family="Helvetica,sans-Serif" font-size="10.00">sd_file_read_stream</text>
</a>
</g>
</g>
<!-- Node3&#45;&gt;Node5 -->
<g id="edge4_Node000003_Node000005" class="edge">
<title>Node3&#45;&gt;Node5</title>
<g id="a_edge4_Node000003_Node000005"><a xlink:title=" ">
<path fill="none" stroke="#63b8ff" d="M288.03,-797.55C314.47,-771.94 382.74,-705.79 415.73,-673.82"/>
<polygon fill="#63b8ff" stroke="#63b8ff" points="417.85,-676.65 422.59,-667.17 412.98,-671.62 417.85,-676.65"/>
</a>
</g>
</g>
<!-- Node3&#45;&gt;Node10 -->
<g id="edge12_Node000003_Node000010" class="edge">
<title>Node3&#45;&gt;Node10</title>
<g id="a_edge12_Node000003_Node000010"><a xlink:title=" ">
<path fill="none" stroke="#63b8ff" d="M320.53,-818.48C338.95,-822.95 360.64,-828.2 380.1,-832.91"/>
<polygon fill="#63b8ff" stroke="#63b8ff" points="379.24,-836.31 389.78,-835.26 380.89,-829.5 379.24,-836.31"/>
</a>
</g>
</g>
<!-- Node6 -->
<g id="Node000006" class="node">
<title>Node6</title>
<g id="a_Node000006"><a xlink:href="sdcard_8c.html#aba9c8b9a5590e13424ab4a69280f0c1d" target="_top" xlink:title="Lê um único bloco de 512 bytes do cartão (LBA).">
<polygon fill="white" stroke="#666666" points="922,-628 853.5,-628 853.5,-608 922,-608 922,-628"/>
<text xml:space="preserve" text-anchor="middle" x="887.75" y="-614.5" font-family="Helvetica,sans-Serif" font-size="10.00">sd_blk_read</text>
</a>
</g>
</g>
<!-- Node5&#45;&gt;Node6 -->
<g id="edge5_Node000005_Node000006" class="edge">
<title>Node5&#45;&gt;Node6</title>
<g id="a_edge5_Node000005_Node000006"><a xlink:title=" ">
<path fill="none" stroke="#63b8ff" d="M477.34,-666.44C485.4,-669.82 493.33,-674.25 499.75,-680 526.09,-703.62 505.6,-732.48 535.75,-751 574.76,-774.96 593.09,-754.34 638.75,-751 708.76,-745.88 733.77,-762.32 795,-728 832.6,-706.92 861.35,-663.95 875.99,-638.4"/>
<polygon fill="#63b8ff" stroke="#63b8ff" points="879.05,-640.1 880.82,-629.66 872.92,-636.72 879.05,-640.1"/>
</a>
</g>
</g>
<!-- Node8 -->
<g id="Node000008" class="node">
<title>Node8</title>
<g id="a_Node000008"><a xlink:href="sdcard_8c.html#a7b0d2ab1fae193461c611a4f2e6c9245" target="_top" xlink:title="Obtém o próximo cluster na tabela FAT.">
<polygon fill="white" stroke="#666666" points="795,-590 674.75,-590 674.75,-570 795,-570 795,-590"/>
<text xml:space="preserve" text-anchor="middle" x="734.88" y="-576.5" font-family="Helvetica,sans-Serif" font-size="10.00">sd_fat_get_next_cluster</text>
</a>
</g>
</g>
<!-- Node5&#45;&gt;Node8 -->
<g id="edge7_Node000005_Node000008" class="edge">
<title>Node5&#45;&gt;Node8</title>
<g id="a_edge7_Node000005_Node000008"><a xlink:title=" ">
<path fill="none" stroke="#63b8ff" d="M487.14,-657.43C529.29,-656.88 589.92,-652.04 638.75,-632 657.5,-624.3 657.19,-614.13 674.75,-604 680.53,-600.67 686.86,-597.57 693.16,-594.79"/>
<polygon fill="#63b8ff" stroke="#63b8ff" points="694.37,-598.08 702.25,-591 691.67,-591.62 694.37,-598.08"/>
</a>
</g>
</g>
<!-- Node9 -->
<g id="Node000009" class="node">
<title>Node9</title>
<g id="a_Node000009"><a xlink:href="sdcard_8c.html#a3794ef278970bdb3d1d50b3f10fc4e9f" target="_top" xlink:title="Localiza a entrada de um arquivo no diretório raiz.">
<polygon fill="white" stroke="#666666" points="633.5,-590 541,-590 541,-570 633.5,-570 633.5,-590"/>
<text xml:space="preserve" text-anchor="middle" x="587.25" y="-576.5" font-family="Helvetica,sans-Serif" font-size="10.00">sd_find_file_entry</text>
</a>
</g>
</g>
<!-- Node5&#45;&gt;Node9 -->
<g id="edge9_Node000005_Node000009" class="edge">
<title>Node5&#45;&gt;Node9</title>
<g id="a_edge9_Node000005_Node000009"><a xlink:title=" ">
<path fill="none" stroke="#63b8ff" d="M456.68,-645.59C482.29,-632.63 526.25,-610.37 555.78,-595.43"/>
<polygon fill="#63b8ff" stroke="#63b8ff" points="557.25,-598.61 564.59,-590.97 554.09,-592.36 557.25,-598.61"/>
</a>
</g>
</g>
<!-- Node7 -->
<g id="Node000007" class="node">
<title>Node7</title>
<g id="a_Node000007"><a xlink:href="sdcard_8c.html#aae1cfbcba5f92f4639e23fd8ed8fa3c0" target="_top" xlink:title="Envia um comando SPI para o cartão SD e aguarda resposta R1.">
<polygon fill="white" stroke="#666666" points="1190.25,-381 1113.5,-381 1113.5,-361 1190.25,-361 1190.25,-381"/>
<text xml:space="preserve" text-anchor="middle" x="1151.88" y="-367.5" font-family="Helvetica,sans-Serif" font-size="10.00">sd_cmd_send</text>
</a>
</g>
</g>
<!-- Node6&#45;&gt;Node7 -->
<g id="edge6_Node000006_Node000007" class="edge">
<title>Node6&#45;&gt;Node7</title>
<g id="a_edge6_Node000006_Node000007"><a xlink:title=" ">
<path fill="none" stroke="#63b8ff" d="M900.49,-607.85C930.52,-581.78 1012.4,-510.07 1077.5,-447 1097.32,-427.8 1119.19,-404.91 1133.85,-389.31"/>
<polygon fill="#63b8ff" stroke="#63b8ff" points="1136.27,-391.84 1140.55,-382.15 1131.16,-387.06 1136.27,-391.84"/>
</a>
</g>
</g>
<!-- Node8&#45;&gt;Node6 -->
<g id="edge8_Node000008_Node000006" class="edge">
<title>Node8&#45;&gt;Node6</title>
<g id="a_edge8_Node000008_Node000006"><a xlink:title=" ">
<path fill="none" stroke="#63b8ff" d="M777.5,-590.48C797.67,-595.56 821.9,-601.67 842.41,-606.83"/>
<polygon fill="#63b8ff" stroke="#63b8ff" points="841.35,-610.17 851.9,-609.22 843.06,-603.39 841.35,-610.17"/>
</a>
</g>
</g>
<!-- Node9&#45;&gt;Node6 -->
<g id="edge10_Node000009_Node000006" class="edge">
<title>Node9&#45;&gt;Node6</title>
<g id="a_edge10_Node000009_Node000006"><a xlink:title=" ">
<path fill="none" stroke="#63b8ff" d="M621.89,-569.51C663.39,-558.25 735.73,-544.09 795,-561 821.93,-568.68 848.66,-586.8 866.27,-600.56"/>
<polygon fill="#63b8ff" stroke="#63b8ff" points="863.9,-603.15 873.87,-606.72 868.3,-597.71 863.9,-603.15"/>
</a>
</g>
</g>
<!-- Node9&#45;&gt;Node8 -->
<g id="edge11_Node000009_Node000008" class="edge">
<title>Node9&#45;&gt;Node8</title>
<g id="a_edge11_Node000009_Node000008"><a xlink:title=" ">
<path fill="none" stroke="#63b8ff" d="M633.93,-580C643.26,-580 653.29,-580 663.26,-580"/>
<polygon fill="#63b8ff" stroke="#63b8ff" points="662.94,-583.5 672.94,-580 662.94,-576.5 662.94,-583.5"/>
</a>
</g>
</g>
<!-- Node14 -->
<g id="Node000014" class="node">
<title>Node14</title>
<g id="a_Node000014"><a xlink:href="sdcard_8c.html#afac6d670e786eaea1f07a4eb95b25ac6" target="_top" xlink:title="Inicialização rápida para AVR (configura pinos + HAL interno).">
<polygon fill="white" stroke="#666666" points="471.62,-96 398.62,-96 398.62,-76 471.62,-76 471.62,-96"/>
<text xml:space="preserve" text-anchor="middle" x="435.12" y="-82.5" font-family="Helvetica,sans-Serif" font-size="10.00">sd_quick_init</text>
</a>
</g>
</g>
<!-- Node13&#45;&gt;Node14 -->
<g id="edge16_Node000013_Node000014" class="edge">
<title>Node13&#45;&gt;Node14</title>
<g id="a_edge16_Node000013_Node000014"><a xlink:title=" ">
<path fill="none" stroke="#63b8ff" d="M304,-387.21C314.99,-384.68 326.9,-379.93 334.5,-371 399.57,-294.55 324.21,-237.09 370.5,-148 379.74,-130.21 396.01,-114.5 409.78,-103.34"/>
<polygon fill="#63b8ff" stroke="#63b8ff" points="411.82,-106.19 417.6,-97.3 407.54,-100.65 411.82,-106.19"/>
</a>
</g>
</g>
<!-- Node15 -->
<g id="Node000015" class="node">
<title>Node15</title>
<g id="a_Node000015"><a xlink:href="sdcard_8c.html#a6cf66af945c22b51e07f145a63869c5a" target="_top" xlink:title="Desativa o Chip Select (CS) &#45; Pino PB2.">
<polygon fill="white" stroke="#666666" points="622.62,-58 551.88,-58 551.88,-38 622.62,-38 622.62,-58"/>
<text xml:space="preserve" text-anchor="middle" x="587.25" y="-44.5" font-family="Helvetica,sans-Serif" font-size="10.00">_sd_cs_high</text>
</a>
</g>
</g>
<!-- Node14&#45;&gt;Node15 -->
<g id="edge17_Node000014_Node000015" class="edge">
<title>Node14&#45;&gt;Node15</title>
<g id="a_edge17_Node000014_Node000015"><a xlink:title=" ">
<path fill="none" stroke="#63b8ff" d="M472.08,-76.9C492.62,-71.7 518.57,-65.13 540.54,-59.57"/>
<polygon fill="#63b8ff" stroke="#63b8ff" points="541.32,-62.98 550.15,-57.14 539.6,-56.2 541.32,-62.98"/>
</a>
</g>
</g>
<!-- Node16 -->
<g id="Node000016" class="node">
<title>Node16</title>
<g id="a_Node000016"><a xlink:href="sdcard_8c.html#aeabfda2a0d078f02c8fdedc7c840cc69" target="_top" xlink:title="Ativa o Chip Select (CS) &#45; Pino PB2.">
<polygon fill="white" stroke="#666666" points="621.12,-20 553.38,-20 553.38,0 621.12,0 621.12,-20"/>
<text xml:space="preserve" text-anchor="middle" x="587.25" y="-6.5" font-family="Helvetica,sans-Serif" font-size="10.00">_sd_cs_low</text>
</a>
</g>
</g>
<!-- Node14&#45;&gt;Node16 -->
<g id="edge18_Node000014_Node000016" class="edge">
<title>Node14&#45;&gt;Node16</title>
<g id="a_edge18_Node000014_Node000016"><a xlink:title=" ">
<path fill="none" stroke="#63b8ff" d="M452.26,-75.69C471.62,-63.59 505.28,-43.34 535.75,-29 538.87,-27.53 542.14,-26.09 545.44,-24.71"/>
<polygon fill="#63b8ff" stroke="#63b8ff" points="546.63,-28 554.61,-21.04 544.02,-21.5 546.63,-28"/>
</a>
</g>
</g>
<!-- Node17 -->
<g id="Node000017" class="node">
<title>Node17</title>
<g id="a_Node000017"><a xlink:href="sdcard_8c.html#a8092c4cbf898989b2bf07325565e0cbd" target="_top" xlink:title="Transmissão/recepção de um byte via SPI (função interna).">
<polygon fill="white" stroke="#666666" points="631.25,-96 543.25,-96 543.25,-76 631.25,-76 631.25,-96"/>
<text xml:space="preserve" text-anchor="middle" x="587.25" y="-82.5" font-family="Helvetica,sans-Serif" font-size="10.00">_sd_spi_transfer</text>
</a>
</g>
</g>
<!-- Node14&#45;&gt;Node17 -->
<g id="edge19_Node000014_Node000017" class="edge">
<title>Node14&#45;&gt;Node17</title>
<g id="a_edge19_Node000014_Node000017"><a xlink:title=" ">
<path fill="none" stroke="#63b8ff" d="M472.08,-86C489.85,-86 511.67,-86 531.46,-86"/>
<polygon fill="#63b8ff" stroke="#63b8ff" points="531.31,-89.5 541.31,-86 531.31,-82.5 531.31,-89.5"/>
</a>
</g>
</g>
<!-- Node18 -->
<g id="Node000018" class="node">
<title>Node18</title>
<g id="a_Node000018"><a xlink:href="sdcard_8c.html#abb7664cb3bec0e4c545128d134f0e054" target="_top" xlink:title="Tenta inicializar o cartão at 3 vezes com delay entre tentativas.">
<polygon fill="white" stroke="#666666" points="621.88,-134 552.62,-134 552.62,-114 621.88,-114 621.88,-134"/>
<text xml:space="preserve" text-anchor="middle" x="587.25" y="-120.5" font-family="Helvetica,sans-Serif" font-size="10.00">sd_init_retry</text>
</a>
</g>
</g>
<!-- Node14&#45;&gt;Node18 -->
<g id="edge20_Node000014_Node000018" class="edge">
<title>Node14&#45;&gt;Node18</title>
<g id="a_edge20_Node000014_Node000018"><a xlink:title=" ">
<path fill="none" stroke="#63b8ff" d="M472.08,-95.1C492.77,-100.34 518.95,-106.96 541.02,-112.55"/>
<polygon fill="#63b8ff" stroke="#63b8ff" points="540.11,-115.93 550.66,-114.99 541.83,-109.15 540.11,-115.93"/>
</a>
</g>
</g>
<!-- Node19 -->
<g id="Node000019" class="node">
<title>Node19</title>
<g id="a_Node000019"><a xlink:href="sdcard_8c.html#a6a8f9df03a1b222e8ea45199b7431e19" target="_top" xlink:title="Inicializa o cartão SD no modo SPI.">
<polygon fill="white" stroke="#666666" points="757.12,-134 712.62,-134 712.62,-114 757.12,-114 757.12,-134"/>
<text xml:space="preserve" text-anchor="middle" x="734.88" y="-120.5" font-family="Helvetica,sans-Serif" font-size="10.00">sd_init</text>
</a>
</g>
</g>
<!-- Node18&#45;&gt;Node19 -->
<g id="edge21_Node000018_Node000019" class="edge">
<title>Node18&#45;&gt;Node19</title>
<g id="a_edge21_Node000018_Node000019"><a xlink:title=" ">
<path fill="none" stroke="#63b8ff" d="M622.03,-124C645.78,-124 677.4,-124 700.96,-124"/>
<polygon fill="#63b8ff" stroke="#63b8ff" points="700.95,-127.5 710.95,-124 700.95,-120.5 700.95,-127.5"/>
</a>
</g>
</g>
<!-- Node19&#45;&gt;Node7 -->
<g id="edge23_Node000019_Node000007" class="edge">
<title>Node19&#45;&gt;Node7</title>
<g id="a_edge23_Node000019_Node000007"><a xlink:title=" ">
<path fill="none" stroke="#63b8ff" d="M757.62,-131.79C768.97,-136.11 782.97,-141.85 795,-148 925.78,-214.87 1071.12,-314.6 1127.11,-354.05"/>
<polygon fill="#63b8ff" stroke="#63b8ff" points="1125.08,-356.91 1135.26,-359.82 1129.12,-351.19 1125.08,-356.91"/>
</a>
</g>
</g>
<!-- Node20 -->
<g id="Node000020" class="node">
<title>Node20</title>
<g id="a_Node000020"><a xlink:href="sdcard_8c.html#abf6c02ac2130c37a0bff2e6b9a6c25cb" target="_top" xlink:title="Configura a velocidade do SPI no AVR (função interna).">
<polygon fill="white" stroke="#666666" points="944.5,-140 831,-140 831,-108 944.5,-108 944.5,-140"/>
<text xml:space="preserve" text-anchor="start" x="839" y="-126.5" font-family="Helvetica,sans-Serif" font-size="10.00">sd_avr_spi_set_speed</text>
<text xml:space="preserve" text-anchor="middle" x="887.75" y="-114.5" font-family="Helvetica,sans-Serif" font-size="10.00">_default</text>
</a>
</g>
</g>
<!-- Node19&#45;&gt;Node20 -->
<g id="edge22_Node000019_Node000020" class="edge">
<title>Node19&#45;&gt;Node20</title>
<g id="a_edge22_Node000019_Node000020"><a xlink:title=" ">
<path fill="none" stroke="#63b8ff" d="M757.49,-124C773.73,-124 796.91,-124 819.16,-124"/>
<polygon fill="#63b8ff" stroke="#63b8ff" points="819.16,-127.5 829.16,-124 819.16,-120.5 819.16,-127.5"/>
</a>
</g>
</g>
<!-- Node21&#45;&gt;Node6 -->
<g id="edge25_Node000021_Node000006" class="edge">
<title>Node21&#45;&gt;Node6</title>
<g id="a_edge25_Node000021_Node000006"><a xlink:title=" ">
<path fill="none" stroke="#63b8ff" d="M617.84,-732.36C659.39,-731.77 736.48,-726.6 795,-699 826.07,-684.34 854.49,-655.89 871.22,-636.91"/>
<polygon fill="#63b8ff" stroke="#63b8ff" points="873.83,-639.25 877.67,-629.37 868.51,-634.7 873.83,-639.25"/>
</a>
</g>
</g>
<!-- Node21&#45;&gt;Node8 -->
<g id="edge26_Node000021_Node000008" class="edge">
<title>Node21&#45;&gt;Node8</title>
<g id="a_edge26_Node000021_Node000008"><a xlink:title=" ">
<path fill="none" stroke="#63b8ff" d="M617.64,-725.21C625.18,-722.39 632.82,-718.46 638.75,-713 666.25,-687.68 652.94,-667.35 674.75,-637 685.36,-622.24 700.06,-608.04 712.16,-597.51"/>
<polygon fill="#63b8ff" stroke="#63b8ff" points="714.25,-600.32 719.63,-591.2 709.73,-594.98 714.25,-600.32"/>
</a>
</g>
</g>
<!-- Node22&#45;&gt;Node6 -->
<g id="edge28_Node000022_Node000006" class="edge">
<title>Node22&#45;&gt;Node6</title>
<g id="a_edge28_Node000022_Node000006"><a xlink:title=" ">
<path fill="none" stroke="#63b8ff" d="M755.22,-854.51C767.87,-846.86 784.03,-835.5 795,-822 841.95,-764.22 870.03,-678.57 881.18,-639.2"/>
<polygon fill="#63b8ff" stroke="#63b8ff" points="884.49,-640.37 883.75,-629.8 877.74,-638.53 884.49,-640.37"/>
</a>
</g>
</g>
<!-- Node23&#45;&gt;Node6 -->
<g id="edge30_Node000023_Node000006" class="edge">
<title>Node23&#45;&gt;Node6</title>
<g id="a_edge30_Node000023_Node000006"><a xlink:title=" ">
<path fill="none" stroke="#63b8ff" d="M282.53,-552.47C295.07,-576.54 328.75,-636.66 370.5,-675 433.06,-732.45 453.74,-748.91 535.75,-771 647.27,-801.04 696.19,-812.81 795,-753 839.07,-726.33 866.81,-669.47 879.2,-638.74"/>
<polygon fill="#63b8ff" stroke="#63b8ff" points="882.32,-640.36 882.65,-629.77 875.79,-637.84 882.32,-640.36"/>
</a>
</g>
</g>
<!-- Node23&#45;&gt;Node8 -->
<g id="edge44_Node000023_Node000008" class="edge">
<title>Node23&#45;&gt;Node8</title>
<g id="a_edge44_Node000023_Node000008"><a xlink:title=" ">
<path fill="none" stroke="#63b8ff" d="M296.64,-552.38C315.09,-561.75 343.9,-575.1 370.5,-582 486.13,-612 519.87,-610.76 638.75,-599 652.24,-597.67 666.64,-595.29 680.06,-592.67"/>
<polygon fill="#63b8ff" stroke="#63b8ff" points="680.47,-596.15 689.57,-590.72 679.07,-589.3 680.47,-596.15"/>
</a>
</g>
</g>
<!-- Node23&#45;&gt;Node9 -->
<g id="edge49_Node000023_Node000009" class="edge">
<title>Node23&#45;&gt;Node9</title>
<g id="a_edge49_Node000023_Node000009"><a xlink:title=" ">
<path fill="none" stroke="#63b8ff" d="M323.08,-552.41C338.12,-555.54 354.97,-558.74 370.5,-561 424.13,-568.8 485.75,-573.84 529.37,-576.75"/>
<polygon fill="#63b8ff" stroke="#63b8ff" points="528.9,-580.23 539.11,-577.39 529.36,-573.25 528.9,-580.23"/>
</a>
</g>
</g>
<!-- Node24 -->
<g id="Node000024" class="node">
<title>Node24</title>
<g id="a_Node000024"><a xlink:href="sdcard_8c.html#ac6d558621f33abf80f245adb3d0f4e67" target="_top" xlink:title="Escreve um único bloco de 512 bytes.">
<polygon fill="white" stroke="#666666" points="923.12,-400 852.38,-400 852.38,-380 923.12,-380 923.12,-400"/>
<text xml:space="preserve" text-anchor="middle" x="887.75" y="-386.5" font-family="Helvetica,sans-Serif" font-size="10.00">sd_blk_write</text>
</a>
</g>
</g>
<!-- Node23&#45;&gt;Node24 -->
<g id="edge31_Node000023_Node000024" class="edge">
<title>Node23&#45;&gt;Node24</title>
<g id="a_edge31_Node000023_Node000024"><a xlink:title=" ">
<path fill="none" stroke="#63b8ff" d="M286.99,-531.97C299.9,-518.1 322.44,-491.72 334.5,-465 366.27,-394.61 313.69,-347.32 370.5,-295 405.2,-263.05 752.84,-268.84 795,-290 830.79,-307.97 859.5,-346.16 874.75,-369.8"/>
<polygon fill="#63b8ff" stroke="#63b8ff" points="871.74,-371.58 879.99,-378.22 877.69,-367.88 871.74,-371.58"/>
</a>
</g>
</g>
<!-- Node27 -->
<g id="Node000027" class="node">
<title>Node27</title>
<g id="a_Node000027"><a xlink:href="sdcard_8c.html#afa6b333a50132b6be29e88aa75fd90f1" target="_top" xlink:title="Aloca um cluster livre na FAT32 utilizando busca circular otimizada.">
<polygon fill="white" stroke="#666666" points="638.75,-438 535.75,-438 535.75,-418 638.75,-418 638.75,-438"/>
<text xml:space="preserve" text-anchor="middle" x="587.25" y="-424.5" font-family="Helvetica,sans-Serif" font-size="10.00">sd_fat_alloc_cluster</text>
</a>
</g>
</g>
<!-- Node23&#45;&gt;Node27 -->
<g id="edge36_Node000023_Node000027" class="edge">
<title>Node23&#45;&gt;Node27</title>
<g id="a_edge36_Node000023_Node000027"><a xlink:title=" ">
<path fill="none" stroke="#63b8ff" d="M305.49,-531.58C361.01,-511.1 484.43,-465.57 547.5,-442.29"/>
<polygon fill="#63b8ff" stroke="#63b8ff" points="548.6,-445.62 556.77,-438.88 546.17,-439.06 548.6,-445.62"/>
</a>
</g>
</g>
<!-- Node28 -->
<g id="Node000028" class="node">
<title>Node28</title>
<g id="a_Node000028"><a xlink:href="sdcard_8c.html#a144349126da9cc0bcd1dd34243989e98" target="_top" xlink:title="Atualiza uma entrada na Tabela de Alocação de Arquivos (FAT).">
<polygon fill="white" stroke="#666666" points="783,-400 686.75,-400 686.75,-380 783,-380 783,-400"/>
<text xml:space="preserve" text-anchor="middle" x="734.88" y="-386.5" font-family="Helvetica,sans-Serif" font-size="10.00">sd_fat_write_entry</text>
</a>
</g>
</g>
<!-- Node23&#45;&gt;Node28 -->
<g id="edge45_Node000023_Node000028" class="edge">
<title>Node23&#45;&gt;Node28</title>
<g id="a_edge45_Node000023_Node000028"><a xlink:title=" ">
<path fill="none" stroke="#63b8ff" d="M286.39,-531.67C298.61,-517.45 320.38,-490.69 334.5,-465 356.05,-425.79 333.64,-396.35 370.5,-371 472.27,-300.99 630.58,-349.02 699.67,-375.61"/>
<polygon fill="#63b8ff" stroke="#63b8ff" points="697.98,-378.7 708.57,-379.11 700.55,-372.19 697.98,-378.7"/>
</a>
</g>
</g>
<!-- Node29 -->
<g id="Node000029" class="node">
<title>Node29</title>
<g id="a_Node000029"><a xlink:href="sdcard_8c.html#a7e010bc4f9f46359dcefc007d522f58a" target="_top" xlink:title="Aloca um novo cluster e o encadeia ao final de uma sequência existente.">
<polygon fill="white" stroke="#666666" points="499.75,-400 370.5,-400 370.5,-380 499.75,-380 499.75,-400"/>
<text xml:space="preserve" text-anchor="middle" x="435.12" y="-386.5" font-family="Helvetica,sans-Serif" font-size="10.00">sd_fat_chain_new_cluster</text>
</a>
</g>
</g>
<!-- Node23&#45;&gt;Node29 -->
<g id="edge41_Node000023_Node000029" class="edge">
<title>Node23&#45;&gt;Node29</title>
<g id="a_edge41_Node000023_Node000029"><a xlink:title=" ">
<path fill="none" stroke="#63b8ff" d="M288.03,-531.55C314.47,-505.94 382.74,-439.79 415.73,-407.82"/>
<polygon fill="#63b8ff" stroke="#63b8ff" points="417.85,-410.65 422.59,-401.17 412.98,-405.62 417.85,-410.65"/>
</a>
</g>
</g>
<!-- Node30 -->
<g id="Node000030" class="node">
<title>Node30</title>
<g id="a_Node000030"><a xlink:href="sdcard_8c.html#afba53615c129e4e1a3ca0dd1c272ab11" target="_top" xlink:title=" ">
<polygon fill="white" stroke="#666666" points="486.25,-552 384,-552 384,-532 486.25,-532 486.25,-552"/>
<text xml:space="preserve" text-anchor="middle" x="435.12" y="-538.5" font-family="Helvetica,sans-Serif" font-size="10.00">sd_file_update_size</text>
</a>
</g>
</g>
<!-- Node23&#45;&gt;Node30 -->
<g id="edge46_Node000023_Node000030" class="edge">
<title>Node23&#45;&gt;Node30</title>
<g id="a_edge46_Node000023_Node000030"><a xlink:title=" ">
<path fill="none" stroke="#63b8ff" d="M334.77,-542C347.03,-542 360.01,-542 372.41,-542"/>
<polygon fill="#63b8ff" stroke="#63b8ff" points="372.09,-545.5 382.09,-542 372.09,-538.5 372.09,-545.5"/>
</a>
</g>
</g>
<!-- Node24&#45;&gt;Node7 -->
<g id="edge32_Node000024_Node000007" class="edge">
<title>Node24&#45;&gt;Node7</title>
<g id="a_edge32_Node000024_Node000007"><a xlink:title=" ">
<path fill="none" stroke="#63b8ff" d="M923.56,-387.48C969.39,-384.15 1050.23,-378.3 1102.13,-374.53"/>
<polygon fill="#63b8ff" stroke="#63b8ff" points="1102.15,-378.04 1111.87,-373.83 1101.64,-371.06 1102.15,-378.04"/>
</a>
</g>
</g>
<!-- Node25 -->
<g id="Node000025" class="node">
<title>Node25</title>
<g id="a_Node000025"><a xlink:href="sdcard_8c.html#afcdb9112d386e92b29ad0cac9f5fc277" target="_top" xlink:title="Obtém o status atual do cartão SD (comando CMD13).">
<polygon fill="white" stroke="#666666" points="1067.75,-362 990.25,-362 990.25,-342 1067.75,-342 1067.75,-362"/>
<text xml:space="preserve" text-anchor="middle" x="1029" y="-348.5" font-family="Helvetica,sans-Serif" font-size="10.00">sd_get_status</text>
</a>
</g>
</g>
<!-- Node24&#45;&gt;Node25 -->
<g id="edge33_Node000024_Node000025" class="edge">
<title>Node24&#45;&gt;Node25</title>
<g id="a_edge33_Node000024_Node000025"><a xlink:title=" ">
<path fill="none" stroke="#63b8ff" d="M923.53,-380.51C940.34,-375.92 960.8,-370.34 979.15,-365.33"/>
<polygon fill="#63b8ff" stroke="#63b8ff" points="980.06,-368.71 988.79,-362.7 978.22,-361.96 980.06,-368.71"/>
</a>
</g>
</g>
<!-- Node26 -->
<g id="Node000026" class="node">
<title>Node26</title>
<g id="a_Node000026"><a xlink:href="sdcard_8c.html#a8c2c0ebbeee0d06d43335bc9df4b3142" target="_top" xlink:title="Aguarda o cartão sair do estado de ocupado (busy).">
<polygon fill="white" stroke="#666666" points="1077.5,-438 980.5,-438 980.5,-418 1077.5,-418 1077.5,-438"/>
<text xml:space="preserve" text-anchor="middle" x="1029" y="-424.5" font-family="Helvetica,sans-Serif" font-size="10.00">sd_spi_wait_ready</text>
</a>
</g>
</g>
<!-- Node24&#45;&gt;Node26 -->
<g id="edge35_Node000024_Node000026" class="edge">
<title>Node24&#45;&gt;Node26</title>
<g id="a_edge35_Node000024_Node000026"><a xlink:title=" ">
<path fill="none" stroke="#63b8ff" d="M923.53,-399.49C940.21,-404.04 960.48,-409.57 978.71,-414.55"/>
<polygon fill="#63b8ff" stroke="#63b8ff" points="977.72,-417.91 988.29,-417.16 979.56,-411.15 977.72,-417.91"/>
</a>
</g>
</g>
<!-- Node25&#45;&gt;Node7 -->
<g id="edge34_Node000025_Node000007" class="edge">
<title>Node25&#45;&gt;Node7</title>
<g id="a_edge34_Node000025_Node000007"><a xlink:title=" ">
<path fill="none" stroke="#63b8ff" d="M1068.25,-358.01C1079.04,-359.71 1090.92,-361.58 1102.23,-363.35"/>
<polygon fill="#63b8ff" stroke="#63b8ff" points="1101.37,-366.76 1111.8,-364.86 1102.46,-359.85 1101.37,-366.76"/>
</a>
</g>
</g>
<!-- Node27&#45;&gt;Node6 -->
<g id="edge37_Node000027_Node000006" class="edge">
<title>Node27&#45;&gt;Node6</title>
<g id="a_edge37_Node000027_Node000006"><a xlink:title=" ">
<path fill="none" stroke="#63b8ff" d="M639.06,-433.85C683.6,-441.04 748.34,-456.68 795,-490 834.5,-518.21 863.34,-568.85 877.31,-597.25"/>
<polygon fill="#63b8ff" stroke="#63b8ff" points="874.12,-598.7 881.58,-606.23 880.45,-595.7 874.12,-598.7"/>
</a>
</g>
</g>
<!-- Node27&#45;&gt;Node28 -->
<g id="edge38_Node000027_Node000028" class="edge">
<title>Node27&#45;&gt;Node28</title>
<g id="a_edge38_Node000027_Node000028"><a xlink:title=" ">
<path fill="none" stroke="#63b8ff" d="M628.43,-417.52C645.22,-413.13 664.93,-407.99 682.74,-403.34"/>
<polygon fill="#63b8ff" stroke="#63b8ff" points="683.57,-406.74 692.36,-400.83 681.8,-399.97 683.57,-406.74"/>
</a>
</g>
</g>
<!-- Node28&#45;&gt;Node6 -->
<g id="edge39_Node000028_Node000006" class="edge">
<title>Node28&#45;&gt;Node6</title>
<g id="a_edge39_Node000028_Node000006"><a xlink:title=" ">
<path fill="none" stroke="#63b8ff" d="M773.78,-400.38C781.47,-403.79 789.02,-408.23 795,-414 848.98,-466.01 873.72,-555.57 882.63,-596.49"/>
<polygon fill="#63b8ff" stroke="#63b8ff" points="879.15,-596.95 884.59,-606.04 886,-595.54 879.15,-596.95"/>
</a>
</g>
</g>
<!-- Node28&#45;&gt;Node24 -->
<g id="edge40_Node000028_Node000024" class="edge">
<title>Node28&#45;&gt;Node24</title>
<g id="a_edge40_Node000028_Node000024"><a xlink:title=" ">
<path fill="none" stroke="#63b8ff" d="M783.2,-390C801.49,-390 822.35,-390 840.53,-390"/>
<polygon fill="#63b8ff" stroke="#63b8ff" points="840.53,-393.5 850.53,-390 840.53,-386.5 840.53,-393.5"/>
</a>
</g>
</g>
<!-- Node29&#45;&gt;Node27 -->
<g id="edge42_Node000029_Node000027" class="edge">
<title>Node29&#45;&gt;Node27</title>
<g id="a_edge42_Node000029_Node000027"><a xlink:title=" ">
<path fill="none" stroke="#63b8ff" d="M477.54,-400.48C495.02,-404.91 515.56,-410.11 534.06,-414.79"/>
<polygon fill="#63b8ff" stroke="#63b8ff" points="532.95,-418.12 543.5,-417.18 534.66,-411.33 532.95,-418.12"/>
</a>
</g>
</g>
<!-- Node29&#45;&gt;Node28 -->
<g id="edge43_Node000029_Node000028" class="edge">
<title>Node29&#45;&gt;Node28</title>
<g id="a_edge43_Node000029_Node000028"><a xlink:title=" ">
<path fill="none" stroke="#63b8ff" d="M500,-390C552,-390 624.8,-390 675.31,-390"/>
<polygon fill="#63b8ff" stroke="#63b8ff" points="675.17,-393.5 685.17,-390 675.17,-386.5 675.17,-393.5"/>
</a>
</g>
</g>
<!-- Node30&#45;&gt;Node9 -->
<g id="edge48_Node000030_Node000009" class="edge">
<title>Node30&#45;&gt;Node9</title>
<g id="a_edge48_Node000030_Node000009"><a xlink:title=" ">
<path fill="none" stroke="#63b8ff" d="M477.54,-552.48C495.02,-556.91 515.56,-562.11 534.06,-566.79"/>
<polygon fill="#63b8ff" stroke="#63b8ff" points="532.95,-570.12 543.5,-569.18 534.66,-563.33 532.95,-570.12"/>
</a>
</g>
</g>
<!-- Node30&#45;&gt;Node24 -->
<g id="edge47_Node000030_Node000024" class="edge">
<title>Node30&#45;&gt;Node24</title>
<g id="a_edge47_Node000030_Node000024"><a xlink:title=" ">
<path fill="none" stroke="#63b8ff" d="M467.1,-531.55C546.14,-504.89 755.39,-434.31 845.03,-404.07"/>
<polygon fill="#63b8ff" stroke="#63b8ff" points="846.07,-407.42 854.42,-400.9 843.83,-400.78 846.07,-407.42"/>
</a>
</g>
</g>
<!-- Node31&#45;&gt;Node6 -->
<g id="edge53_Node000031_Node000006" class="edge">
<title>Node31&#45;&gt;Node6</title>
<g id="a_edge53_Node000031_Node000006"><a xlink:title=" ">
<path fill="none" stroke="#63b8ff" d="M314.82,-430.56C403.19,-437.86 629.25,-464.09 795,-549 822.19,-562.93 849.71,-584.91 867.42,-600.32"/>
<polygon fill="#63b8ff" stroke="#63b8ff" points="864.8,-602.67 874.6,-606.69 869.45,-597.43 864.8,-602.67"/>
</a>
</g>
</g>
<!-- Node31&#45;&gt;Node8 -->
<g id="edge60_Node000031_Node000008" class="edge">
<title>Node31&#45;&gt;Node8</title>
<g id="a_edge60_Node000031_Node000008"><a xlink:title=" ">
<path fill="none" stroke="#63b8ff" d="M308.64,-438.45C388.81,-465.14 601.2,-535.84 691.88,-566.02"/>
<polygon fill="#63b8ff" stroke="#63b8ff" points="690.54,-569.26 701.14,-569.1 692.75,-562.62 690.54,-569.26"/>
</a>
</g>
</g>
<!-- Node31&#45;&gt;Node24 -->
<g id="edge54_Node000031_Node000024" class="edge">
<title>Node31&#45;&gt;Node24</title>
<g id="a_edge54_Node000031_Node000024"><a xlink:title=" ">
<path fill="none" stroke="#63b8ff" d="M315.02,-421.92C322.4,-419.1 329.42,-414.99 334.5,-409 400.86,-330.77 292.51,-247.64 370.5,-181 394.71,-160.32 729.07,-142.57 795,-186 858.46,-227.81 878.51,-324.9 884.44,-368.33"/>
<polygon fill="#63b8ff" stroke="#63b8ff" points="880.93,-368.51 885.62,-378.01 887.88,-367.66 880.93,-368.51"/>
</a>
</g>
</g>
<!-- Node31&#45;&gt;Node31 -->
<g id="edge61_Node000031_Node000031" class="edge">
<title>Node31&#45;&gt;Node31</title>
<g id="a_edge61_Node000031_Node000031"><a xlink:title=" ">
<path fill="none" stroke="#63b8ff" d="M252.62,-438.34C242.51,-446.98 250.39,-456 276.25,-456 290.39,-456 299.15,-453.3 302.54,-449.44"/>
<polygon fill="#63b8ff" stroke="#63b8ff" points="305.97,-448.72 300.24,-439.81 299.16,-450.35 305.97,-448.72"/>
</a>
</g>
</g>
<!-- Node32 -->
<g id="Node000032" class="node">
<title>Node32</title>
<g id="a_Node000032"><a xlink:href="sdcard_8c.html#acd7b26d07ec9452df93bb131bbcb4feb" target="_top" xlink:title="Converte componentes de data para o formato FAT (16 bits). Formato: yyyyyyymmmmddddd (ano desde 1980)...">
<polygon fill="white" stroke="#666666" points="485.88,-210 384.38,-210 384.38,-190 485.88,-190 485.88,-210"/>
<text xml:space="preserve" text-anchor="middle" x="435.12" y="-196.5" font-family="Helvetica,sans-Serif" font-size="10.00">_sd_make_fat_date</text>
</a>
</g>
</g>
<!-- Node31&#45;&gt;Node32 -->
<g id="edge51_Node000031_Node000032" class="edge">
<title>Node31&#45;&gt;Node32</title>
<g id="a_edge51_Node000031_Node000032"><a xlink:title=" ">
<path fill="none" stroke="#63b8ff" d="M314.88,-421.8C322.27,-418.99 329.33,-414.91 334.5,-409 391.09,-344.32 312.93,-282.82 370.5,-219 371.8,-217.56 373.21,-216.22 374.7,-214.99"/>
<polygon fill="#63b8ff" stroke="#63b8ff" points="376.26,-218.15 382.75,-209.77 372.45,-212.27 376.26,-218.15"/>
</a>
</g>
</g>
<!-- Node33 -->
<g id="Node000033" class="node">
<title>Node33</title>
<g id="a_Node000033"><a xlink:href="sdcard_8c.html#ab9a99a1bb2c8bfaf686c5272fd5190ba" target="_top" xlink:title="Converte componentes de tempo para o formato FAT (16 bits). Formato: hhhhhmmmmmmsssss (segundos são d...">
<polygon fill="white" stroke="#666666" points="485.88,-248 384.38,-248 384.38,-228 485.88,-228 485.88,-248"/>
<text xml:space="preserve" text-anchor="middle" x="435.12" y="-234.5" font-family="Helvetica,sans-Serif" font-size="10.00">_sd_make_fat_time</text>
</a>
</g>
</g>
<!-- Node31&#45;&gt;Node33 -->
<g id="edge52_Node000031_Node000033" class="edge">
<title>Node31&#45;&gt;Node33</title>
<g id="a_edge52_Node000031_Node000033"><a xlink:title=" ">
<path fill="none" stroke="#63b8ff" d="M314.95,-421.48C322.24,-418.69 329.24,-414.7 334.5,-409 380.12,-359.57 325.89,-312.34 370.5,-262 373.16,-258.99 376.25,-256.36 379.58,-254.06"/>
<polygon fill="#63b8ff" stroke="#63b8ff" points="381.26,-257.13 388.23,-249.15 377.81,-251.04 381.26,-257.13"/>
</a>
</g>
</g>
<!-- Node34 -->
<g id="Node000034" class="node">
<title>Node34</title>
<g id="a_Node000034"><a xlink:href="sdcard_8c.html#a6dcdbe623e720ed71f92e745c440db85" target="_top" xlink:title="Expande o diretorio alocando um novo cluster.">
<polygon fill="white" stroke="#666666" points="488.12,-324 382.12,-324 382.12,-304 488.12,-304 488.12,-324"/>
<text xml:space="preserve" text-anchor="middle" x="435.12" y="-310.5" font-family="Helvetica,sans-Serif" font-size="10.00">sd_expand_directory</text>
</a>
</g>
</g>
<!-- Node31&#45;&gt;Node34 -->
<g id="edge55_Node000031_Node000034" class="edge">
<title>Node31&#45;&gt;Node34</title>
<g id="a_edge55_Node000031_Node000034"><a xlink:title=" ">
<path fill="none" stroke="#63b8ff" d="M314.91,-420.18C321.95,-417.47 328.87,-413.85 334.5,-409 361.31,-385.91 344.16,-361.62 370.5,-338 374.21,-334.67 378.42,-331.79 382.88,-329.3"/>
<polygon fill="#63b8ff" stroke="#63b8ff" points="384.07,-332.61 391.54,-325.1 381.02,-326.31 384.07,-332.61"/>
</a>
</g>
</g>
<!-- Node34&#45;&gt;Node8 -->
<g id="edge58_Node000034_Node000008" class="edge">
<title>Node34&#45;&gt;Node8</title>
<g id="a_edge58_Node000034_Node000008"><a xlink:title=" ">
<path fill="none" stroke="#63b8ff" d="M475.37,-324.41C519.54,-337.8 591.31,-364.74 638.75,-409 685.19,-452.33 714.53,-523.57 726.98,-558.85"/>
<polygon fill="#63b8ff" stroke="#63b8ff" points="723.66,-559.95 730.2,-568.29 730.29,-557.7 723.66,-559.95"/>
</a>
</g>
</g>
<!-- Node34&#45;&gt;Node24 -->
<g id="edge56_Node000034_Node000024" class="edge">
<title>Node34&#45;&gt;Node24</title>
<g id="a_edge56_Node000034_Node000024"><a xlink:title=" ">
<path fill="none" stroke="#63b8ff" d="M463.12,-303.52C482.89,-296.44 510.55,-287.71 535.75,-284 581.04,-277.33 593.9,-274.82 638.75,-284 723.47,-301.35 815.03,-348.84 859.47,-373.95"/>
<polygon fill="#63b8ff" stroke="#63b8ff" points="857.48,-376.85 867.9,-378.78 860.96,-370.77 857.48,-376.85"/>
</a>
</g>
</g>
<!-- Node34&#45;&gt;Node27 -->
<g id="edge57_Node000034_Node000027" class="edge">
<title>Node34&#45;&gt;Node27</title>
<g id="a_edge57_Node000034_Node000027"><a xlink:title=" ">
<path fill="none" stroke="#63b8ff" d="M449.71,-324.32C475.61,-343.99 532.29,-387.02 563.87,-411"/>
<polygon fill="#63b8ff" stroke="#63b8ff" points="561.52,-413.61 571.6,-416.87 565.75,-408.04 561.52,-413.61"/>
</a>
</g>
</g>
<!-- Node34&#45;&gt;Node28 -->
<g id="edge59_Node000034_Node000028" class="edge">
<title>Node34&#45;&gt;Node28</title>
<g id="a_edge59_Node000034_Node000028"><a xlink:title=" ">
<path fill="none" stroke="#63b8ff" d="M467.98,-303.53C509.04,-291.85 581.91,-277.37 638.75,-300 674.29,-314.15 704.2,-348.57 720.53,-370.51"/>
<polygon fill="#63b8ff" stroke="#63b8ff" points="717.49,-372.28 726.17,-378.36 723.18,-368.2 717.49,-372.28"/>
</a>
</g>
</g>
<!-- Node35&#45;&gt;Node6 -->
<g id="edge63_Node000035_Node000006" class="edge">
<title>Node35&#45;&gt;Node6</title>
<g id="a_edge63_Node000035_Node000006"><a xlink:title=" ">
<path fill="none" stroke="#63b8ff" d="M625.53,-695.66C667.76,-696.39 738.1,-694.09 795,-675 821.25,-666.19 847.74,-648.58 865.46,-635.25"/>
<polygon fill="#63b8ff" stroke="#63b8ff" points="867.39,-638.19 873.15,-629.3 863.1,-632.65 867.39,-638.19"/>
</a>
</g>
</g>
<!-- Node35&#45;&gt;Node8 -->
<g id="edge68_Node000035_Node000008" class="edge">
<title>Node35&#45;&gt;Node8</title>
<g id="a_edge68_Node000035_Node000008"><a xlink:title=" ">
<path fill="none" stroke="#63b8ff" d="M618.25,-683.52C625.53,-680.01 632.9,-675.54 638.75,-670 663.03,-647.04 649.82,-626.25 674.75,-604 678.33,-600.81 682.39,-598 686.67,-595.56"/>
<polygon fill="#63b8ff" stroke="#63b8ff" points="688.16,-598.72 695.56,-591.14 685.05,-592.45 688.16,-598.72"/>
</a>
</g>
</g>
<!-- Node35&#45;&gt;Node24 -->
<g id="edge64_Node000035_Node000024" class="edge">
<title>Node35&#45;&gt;Node24</title>
<g id="a_edge64_Node000035_Node000024"><a xlink:title=" ">
<path fill="none" stroke="#63b8ff" d="M601.34,-683.69C617.72,-671.21 646.98,-650.22 674.75,-637 725.36,-612.91 753.29,-636.44 795,-599 852.31,-547.55 875.48,-453.76 883.32,-411.57"/>
<polygon fill="#63b8ff" stroke="#63b8ff" points="886.73,-412.4 884.99,-401.95 879.83,-411.2 886.73,-412.4"/>
</a>
</g>
</g>
<!-- Node36 -->
<g id="Node000036" class="node">
<title>Node36</title>
<g id="a_Node000036"><a xlink:href="sdcard_8c.html#a5afd6e264210d197c43e84b5e7dd8856" target="_top" xlink:title="Libera uma cadeia de clusters na tabela FAT, marcando&#45;os como disponíveis.">
<polygon fill="white" stroke="#666666" points="781.5,-666 688.25,-666 688.25,-646 781.5,-646 781.5,-666"/>
<text xml:space="preserve" text-anchor="middle" x="734.88" y="-652.5" font-family="Helvetica,sans-Serif" font-size="10.00">sd_fat_free_chain</text>
</a>
</g>
</g>
<!-- Node35&#45;&gt;Node36 -->
<g id="edge65_Node000035_Node000036" class="edge">
<title>Node35&#45;&gt;Node36</title>
<g id="a_edge65_Node000035_Node000036"><a xlink:title=" ">
<path fill="none" stroke="#63b8ff" d="M625.37,-684.31C642.76,-679.78 663.76,-674.3 682.63,-669.37"/>
<polygon fill="#63b8ff" stroke="#63b8ff" points="683.49,-672.76 692.29,-666.85 681.73,-665.99 683.49,-672.76"/>
</a>
</g>
</g>
<!-- Node36&#45;&gt;Node6 -->
<g id="edge66_Node000036_Node000006" class="edge">
<title>Node36&#45;&gt;Node6</title>
<g id="a_edge66_Node000036_Node000006"><a xlink:title=" ">
<path fill="none" stroke="#63b8ff" d="M777.5,-645.52C797.67,-640.44 821.9,-634.33 842.41,-629.17"/>
<polygon fill="#63b8ff" stroke="#63b8ff" points="843.06,-632.61 851.9,-626.78 841.35,-625.83 843.06,-632.61"/>
</a>
</g>
</g>
<!-- Node36&#45;&gt;Node24 -->
<g id="edge67_Node000036_Node000024" class="edge">
<title>Node36&#45;&gt;Node24</title>
<g id="a_edge67_Node000036_Node000024"><a xlink:title=" ">
<path fill="none" stroke="#63b8ff" d="M774.65,-645.61C782.11,-642.22 789.35,-637.78 795,-632 857.28,-568.25 878.13,-458.01 884.36,-411.59"/>
<polygon fill="#63b8ff" stroke="#63b8ff" points="887.82,-412.14 885.57,-401.78 880.87,-411.28 887.82,-412.14"/>
</a>
</g>
</g>
</g>
</svg>
