<?xml version="1.0" encoding="UTF-8" standalone="no"?>
<!DOCTYPE svg PUBLIC "-//W3C//DTD SVG 1.1//EN"
 "http://www.w3.org/Graphics/SVG/1.1/DTD/svg11.dtd">
<!-- Generated by graphviz version 14.1.4 (20260321.0153)
 -->
<!-- Title: examples/exemplo.c Pages: 1 -->
<svg width="475pt" height="140pt"
 viewBox="0.00 0.00 475.00 140.00" xmlns="http://www.w3.org/2000/svg" xmlns:xlink="http://www.w3.org/1999/xlink">
<g id="graph0" class="graph" transform="scale(1 1) rotate(0) translate(4 136)">
<title>examples/exemplo.c</title>
<!-- Node1 -->
<g id="Node000001" class="node">
<title>Node1</title>
<g id="a_Node000001"><a xlink:title=" ">
<polygon fill="#999999" stroke="#666666" points="190.25,-132 84.25,-132 84.25,-112 190.25,-112 190.25,-132"/>
<text xml:space="preserve" text-anchor="middle" x="137.25" y="-118.5" font-family="Helvetica,sans-Serif" font-size="10.00">examples/exemplo.c</text>
</a>
</g>
</g>
<!-- Node2 -->
<g id="Node000002" class="node">
<title>Node2</title>
<g id="a_Node000002"><a xlink:title=" ">
<polygon fill="#e0e0e0" stroke="#999999" points="62.5,-20 0,-20 0,0 62.5,0 62.5,-20"/>
<text xml:space="preserve" text-anchor="middle" x="31.25" y="-6.5" font-family="Helvetica,sans-Serif" font-size="10.00">util/delay.h</text>
</a>
</g>
</g>
<!-- Node1&#45;&gt;Node2 -->
<g id="edge1_Node000001_Node000002" class="edge">
<title>Node1&#45;&gt;Node2</title>
<g id="a_edge1_Node000001_Node000002"><a xlink:title=" ">
<path fill="none" stroke="#63b8ff" d="M128.21,-111.62C110.45,-93.19 70.77,-52.01 48.06,-28.44"/>
<polygon fill="#63b8ff" stroke="#63b8ff" points="50.77,-26.22 41.31,-21.44 45.73,-31.07 50.77,-26.22"/>
</a>
</g>
</g>
<!-- Node3 -->
<g id="Node000003" class="node">
<title>Node3</title>
<g id="a_Node000003"><a xlink:href="$sdcard_8h.html" xlink:title="Driver SD Card SPI + FAT32 (Root&#45;only) para AVR.">
<polygon fill="white" stroke="#666666" points="236,-76 182.5,-76 182.5,-56 236,-56 236,-76"/>
<text xml:space="preserve" text-anchor="middle" x="209.25" y="-62.5" font-family="Helvetica,sans-Serif" font-size="10.00">sdcard.h</text>
</a>
</g>
</g>
<!-- Node1&#45;&gt;Node3 -->
<g id="edge2_Node000001_Node000003" class="edge">
<title>Node1&#45;&gt;Node3</title>
<g id="a_edge2_Node000001_Node000003"><a xlink:title=" ">
<path fill="none" stroke="#63b8ff" d="M149.79,-111.59C160.22,-103.77 175.3,-92.46 187.66,-83.19"/>
<polygon fill="#63b8ff" stroke="#63b8ff" points="189.74,-86.01 195.64,-77.21 185.54,-80.41 189.74,-86.01"/>
</a>
</g>
</g>
<!-- Node3&#45;&gt;Node2 -->
<g id="edge4_Node000003_Node000002" class="edge">
<title>Node3&#45;&gt;Node2</title>
<g id="a_edge4_Node000003_Node000002"><a xlink:title=" ">
<path fill="none" stroke="#63b8ff" d="M182.22,-56.8C153.29,-48.02 107.04,-33.99 73.34,-23.77"/>
<polygon fill="#63b8ff" stroke="#63b8ff" points="74.48,-20.46 63.89,-20.9 72.44,-27.15 74.48,-20.46"/>
</a>
</g>
</g>
<!-- Node4 -->
<g id="Node000004" class="node">
<title>Node4</title>
<g id="a_Node000004"><a xlink:title=" ">
<polygon fill="#e0e0e0" stroke="#999999" points="128.38,-20 80.12,-20 80.12,0 128.38,0 128.38,-20"/>
<text xml:space="preserve" text-anchor="middle" x="104.25" y="-6.5" font-family="Helvetica,sans-Serif" font-size="10.00">avr/io.h</text>
</a>
</g>
</g>
<!-- Node3&#45;&gt;Node4 -->
<g id="edge3_Node000003_Node000004" class="edge">
<title>Node3&#45;&gt;Node4</title>
<g id="a_edge3_Node000003_Node000004"><a xlink:title=" ">
<path fill="none" stroke="#63b8ff" d="M190.96,-55.59C174.95,-47.36 151.42,-35.26 132.91,-25.74"/>
<polygon fill="#63b8ff" stroke="#63b8ff" points="134.52,-22.63 124.03,-21.17 131.32,-28.86 134.52,-22.63"/>
</a>
</g>
</g>
<!-- Node5 -->
<g id="Node000005" class="node">
<title>Node5</title>
<g id="a_Node000005"><a xlink:title=" ">
<polygon fill="#e0e0e0" stroke="#999999" points="202.5,-20 146,-20 146,0 202.5,0 202.5,-20"/>
<text xml:space="preserve" text-anchor="middle" x="174.25" y="-6.5" font-family="Helvetica,sans-Serif" font-size="10.00">avr/wdt.h</text>
</a>
</g>
</g>
<!-- Node3&#45;&gt;Node5 -->
<g id="edge5_Node000003_Node000005" class="edge">
<title>Node3&#45;&gt;Node5</title>
<g id="a_edge5_Node000003_Node000005"><a xlink:title=" ">
<path fill="none" stroke="#63b8ff" d="M203.15,-55.59C198.54,-48.47 192.04,-38.45 186.38,-29.72"/>
<polygon fill="#63b8ff" stroke="#63b8ff" points="189.48,-28.06 181.1,-21.57 183.6,-31.86 189.48,-28.06"/>
</a>
</g>
</g>
<!-- Node6 -->
<g id="Node000006" class="node">
<title>Node6</title>
<g id="a_Node000006"><a xlink:title=" ">
<polygon fill="#e0e0e0" stroke="#999999" points="268.38,-20 220.12,-20 220.12,0 268.38,0 268.38,-20"/>
<text xml:space="preserve" text-anchor="middle" x="244.25" y="-6.5" font-family="Helvetica,sans-Serif" font-size="10.00">stdint.h</text>
</a>
</g>
</g>
<!-- Node3&#45;&gt;Node6 -->
<g id="edge6_Node000003_Node000006" class="edge">
<title>Node3&#45;&gt;Node6</title>
<g id="a_edge6_Node000003_Node000006"><a xlink:title=" ">
<path fill="none" stroke="#63b8ff" d="M215.35,-55.59C219.96,-48.47 226.46,-38.45 232.12,-29.72"/>
<polygon fill="#63b8ff" stroke="#63b8ff" points="234.9,-31.86 237.4,-21.57 229.02,-28.06 234.9,-31.86"/>
</a>
</g>
</g>
<!-- Node7 -->
<g id="Node000007" class="node">
<title>Node7</title>
<g id="a_Node000007"><a xlink:title=" ">
<polygon fill="#e0e0e0" stroke="#999999" points="334.38,-20 286.12,-20 286.12,0 334.38,0 334.38,-20"/>
<text xml:space="preserve" text-anchor="middle" x="310.25" y="-6.5" font-family="Helvetica,sans-Serif" font-size="10.00">string.h</text>
</a>
</g>
</g>
<!-- Node3&#45;&gt;Node7 -->
<g id="edge7_Node000003_Node000007" class="edge">
<title>Node3&#45;&gt;Node7</title>
<g id="a_edge7_Node000003_Node000007"><a xlink:title=" ">
<path fill="none" stroke="#63b8ff" d="M226.84,-55.59C242.17,-47.4 264.67,-35.37 282.44,-25.87"/>
<polygon fill="#63b8ff" stroke="#63b8ff" points="284.02,-28.99 291.19,-21.19 280.72,-22.82 284.02,-28.99"/>
</a>
</g>
</g>
<!-- Node8 -->
<g id="Node000008" class="node">
<title>Node8</title>
<g id="a_Node000008"><a xlink:title=" ">
<polygon fill="#e0e0e0" stroke="#999999" points="397.88,-20 352.62,-20 352.62,0 397.88,0 397.88,-20"/>
<text xml:space="preserve" text-anchor="middle" x="375.25" y="-6.5" font-family="Helvetica,sans-Serif" font-size="10.00">stdio.h</text>
</a>
</g>
</g>
<!-- Node3&#45;&gt;Node8 -->
<g id="edge8_Node000003_Node000008" class="edge">
<title>Node3&#45;&gt;Node8</title>
<g id="a_edge8_Node000003_Node000008"><a xlink:title=" ">
<path fill="none" stroke="#63b8ff" d="M236.29,-56.2C265.01,-46.86 310.46,-32.08 341.51,-21.98"/>
<polygon fill="#63b8ff" stroke="#63b8ff" points="342.37,-25.38 350.8,-18.95 340.2,-18.72 342.37,-25.38"/>
</a>
</g>
</g>
<!-- Node9 -->
<g id="Node000009" class="node">
<title>Node9</title>
<g id="a_Node000009"><a xlink:title=" ">
<polygon fill="#e0e0e0" stroke="#999999" points="466.88,-20 415.62,-20 415.62,0 466.88,0 466.88,-20"/>
<text xml:space="preserve" text-anchor="middle" x="441.25" y="-6.5" font-family="Helvetica,sans-Serif" font-size="10.00">stddef.h</text>
</a>
</g>
</g>
<!-- Node3&#45;&gt;Node9 -->
<g id="edge9_Node000003_Node000009" class="edge">
<title>Node3&#45;&gt;Node9</title>
<g id="a_edge9_Node000003_Node000009"><a xlink:title=" ">
<path fill="none" stroke="#63b8ff" d="M236.22,-59.19C272.38,-51.32 338.83,-36.64 404.36,-20.65"/>
<polygon fill="#63b8ff" stroke="#63b8ff" points="404.94,-24.12 413.82,-18.33 403.27,-17.32 404.94,-24.12"/>
</a>
</g>
</g>
</g>
</svg>
