<?xml version="1.0" encoding="UTF-8" standalone="no"?>
<!DOCTYPE svg PUBLIC "-//W3C//DTD SVG 1.1//EN"
 "http://www.w3.org/Graphics/SVG/1.1/DTD/svg11.dtd">
<!-- Generated by graphviz version 14.1.4 (20260321.0153)
 -->
<!-- Title: sd_file_update_size Pages: 1 -->
<svg width="641pt" height="117pt"
 viewBox="0.00 0.00 641.00 117.00" xmlns="http://www.w3.org/2000/svg" xmlns:xlink="http://www.w3.org/1999/xlink">
<g id="graph0" class="graph" transform="scale(1 1) rotate(0) translate(4 112.78)">
<title>sd_file_update_size</title>
<!-- Node1 -->
<g id="Node000001" class="node">
<title>Node1</title>
<g id="a_Node000001"><a xlink:title=" ">
<polygon fill="#999999" stroke="#666666" points="102.25,-77 0,-77 0,-57 102.25,-57 102.25,-77"/>
<text xml:space="preserve" text-anchor="middle" x="51.12" y="-63.5" font-family="Helvetica,sans-Serif" font-size="10.00">sd_file_update_size</text>
</a>
</g>
</g>
<!-- Node2 -->
<g id="Node000002" class="node">
<title>Node2</title>
<g id="a_Node000002"><a xlink:href="sdcard_8c.html#ac6d558621f33abf80f245adb3d0f4e67" target="_top" xlink:title="Escreve um único bloco de 512 bytes.">
<polygon fill="white" stroke="#666666" points="362.25,-96 291.5,-96 291.5,-76 362.25,-76 362.25,-96"/>
<text xml:space="preserve" text-anchor="middle" x="326.88" y="-82.5" font-family="Helvetica,sans-Serif" font-size="10.00">sd_blk_write</text>
</a>
</g>
</g>
<!-- Node1&#45;&gt;Node2 -->
<g id="edge1_Node000001_Node000002" class="edge">
<title>Node1&#45;&gt;Node2</title>
<g id="a_edge1_Node000001_Node000002"><a xlink:title=" ">
<path fill="none" stroke="#63b8ff" d="M102.65,-70.51C153.43,-74.03 230.99,-79.41 280.03,-82.82"/>
<polygon fill="#63b8ff" stroke="#63b8ff" points="279.52,-86.29 289.74,-83.49 280.01,-79.31 279.52,-86.29"/>
</a>
</g>
</g>
<!-- Node6 -->
<g id="Node000006" class="node">
<title>Node6</title>
<g id="a_Node000006"><a xlink:href="sdcard_8c.html#a3794ef278970bdb3d1d50b3f10fc4e9f" target="_top" xlink:title="Localiza a entrada de um arquivo no diretório raiz.">
<polygon fill="white" stroke="#666666" points="230.75,-58 138.25,-58 138.25,-38 230.75,-38 230.75,-58"/>
<text xml:space="preserve" text-anchor="middle" x="184.5" y="-44.5" font-family="Helvetica,sans-Serif" font-size="10.00">sd_find_file_entry</text>
</a>
</g>
</g>
<!-- Node1&#45;&gt;Node6 -->
<g id="edge6_Node000001_Node000006" class="edge">
<title>Node1&#45;&gt;Node6</title>
<g id="a_edge6_Node000001_Node000006"><a xlink:title=" ">
<path fill="none" stroke="#63b8ff" d="M102.54,-59.71C110.51,-58.56 118.79,-57.36 126.89,-56.19"/>
<polygon fill="#63b8ff" stroke="#63b8ff" points="127.27,-59.67 136.66,-54.77 126.27,-52.74 127.27,-59.67"/>
</a>
</g>
</g>
<!-- Node3 -->
<g id="Node000003" class="node">
<title>Node3</title>
<g id="a_Node000003"><a xlink:href="sdcard_8c.html#aae1cfbcba5f92f4639e23fd8ed8fa3c0" target="_top" xlink:title="Envia um comando SPI para o cartão SD e aguarda resposta R1.">
<polygon fill="white" stroke="#666666" points="632.75,-96 556,-96 556,-76 632.75,-76 632.75,-96"/>
<text xml:space="preserve" text-anchor="middle" x="594.38" y="-82.5" font-family="Helvetica,sans-Serif" font-size="10.00">sd_cmd_send</text>
</a>
</g>
</g>
<!-- Node2&#45;&gt;Node3 -->
<g id="edge2_Node000002_Node000003" class="edge">
<title>Node2&#45;&gt;Node3</title>
<g id="a_edge2_Node000002_Node000003"><a xlink:title=" ">
<path fill="none" stroke="#63b8ff" d="M362.42,-94.61C380.36,-98.64 402.72,-102.99 423,-105 465.9,-109.24 477.23,-110.45 520,-105 529.66,-103.77 539.87,-101.66 549.51,-99.29"/>
<polygon fill="#63b8ff" stroke="#63b8ff" points="550.23,-102.71 559.02,-96.8 548.46,-95.94 550.23,-102.71"/>
</a>
</g>
</g>
<!-- Node4 -->
<g id="Node000004" class="node">
<title>Node4</title>
<g id="a_Node000004"><a xlink:href="sdcard_8c.html#afcdb9112d386e92b29ad0cac9f5fc277" target="_top" xlink:title="Obtém o status atual do cartão SD (comando CMD13).">
<polygon fill="white" stroke="#666666" points="510.25,-96 432.75,-96 432.75,-76 510.25,-76 510.25,-96"/>
<text xml:space="preserve" text-anchor="middle" x="471.5" y="-82.5" font-family="Helvetica,sans-Serif" font-size="10.00">sd_get_status</text>
</a>
</g>
</g>
<!-- Node2&#45;&gt;Node4 -->
<g id="edge3_Node000002_Node000004" class="edge">
<title>Node2&#45;&gt;Node4</title>
<g id="a_edge3_Node000002_Node000004"><a xlink:title=" ">
<path fill="none" stroke="#63b8ff" d="M362.4,-86C379.96,-86 401.62,-86 420.93,-86"/>
<polygon fill="#63b8ff" stroke="#63b8ff" points="420.77,-89.5 430.77,-86 420.77,-82.5 420.77,-89.5"/>
</a>
</g>
</g>
<!-- Node5 -->
<g id="Node000005" class="node">
<title>Node5</title>
<g id="a_Node000005"><a xlink:href="sdcard_8c.html#a8c2c0ebbeee0d06d43335bc9df4b3142" target="_top" xlink:title="Aguarda o cartão sair do estado de ocupado (busy).">
<polygon fill="white" stroke="#666666" points="520,-58 423,-58 423,-38 520,-38 520,-58"/>
<text xml:space="preserve" text-anchor="middle" x="471.5" y="-44.5" font-family="Helvetica,sans-Serif" font-size="10.00">sd_spi_wait_ready</text>
</a>
</g>
</g>
<!-- Node2&#45;&gt;Node5 -->
<g id="edge5_Node000002_Node000005" class="edge">
<title>Node2&#45;&gt;Node5</title>
<g id="a_edge5_Node000002_Node000005"><a xlink:title=" ">
<path fill="none" stroke="#63b8ff" d="M362.4,-76.8C379.77,-72.17 401.14,-66.48 420.29,-61.38"/>
<polygon fill="#63b8ff" stroke="#63b8ff" points="421.03,-64.8 429.79,-58.85 419.23,-58.04 421.03,-64.8"/>
</a>
</g>
</g>
<!-- Node4&#45;&gt;Node3 -->
<g id="edge4_Node000004_Node000003" class="edge">
<title>Node4&#45;&gt;Node3</title>
<g id="a_edge4_Node000004_Node000003"><a xlink:title=" ">
<path fill="none" stroke="#63b8ff" d="M510.75,-86C521.42,-86 533.17,-86 544.38,-86"/>
<polygon fill="#63b8ff" stroke="#63b8ff" points="544.28,-89.5 554.28,-86 544.28,-82.5 544.28,-89.5"/>
</a>
</g>
</g>
<!-- Node7 -->
<g id="Node000007" class="node">
<title>Node7</title>
<g id="a_Node000007"><a xlink:href="sdcard_8c.html#aba9c8b9a5590e13424ab4a69280f0c1d" target="_top" xlink:title="Lê um único bloco de 512 bytes do cartão (LBA).">
<polygon fill="white" stroke="#666666" points="505.75,-20 437.25,-20 437.25,0 505.75,0 505.75,-20"/>
<text xml:space="preserve" text-anchor="middle" x="471.5" y="-6.5" font-family="Helvetica,sans-Serif" font-size="10.00">sd_blk_read</text>
</a>
</g>
</g>
<!-- Node6&#45;&gt;Node7 -->
<g id="edge7_Node000006_Node000007" class="edge">
<title>Node6&#45;&gt;Node7</title>
<g id="a_edge7_Node000006_Node000007"><a xlink:title=" ">
<path fill="none" stroke="#63b8ff" d="M230.93,-45.41C271.91,-42.66 333.74,-37.53 387,-29 399.7,-26.97 413.35,-24.14 425.86,-21.28"/>
<polygon fill="#63b8ff" stroke="#63b8ff" points="426.56,-24.71 435.5,-19.02 424.96,-17.9 426.56,-24.71"/>
</a>
</g>
</g>
<!-- Node8 -->
<g id="Node000008" class="node">
<title>Node8</title>
<g id="a_Node000008"><a xlink:href="sdcard_8c.html#a7b0d2ab1fae193461c611a4f2e6c9245" target="_top" xlink:title="Obtém o próximo cluster na tabela FAT.">
<polygon fill="white" stroke="#666666" points="387,-20 266.75,-20 266.75,0 387,0 387,-20"/>
<text xml:space="preserve" text-anchor="middle" x="326.88" y="-6.5" font-family="Helvetica,sans-Serif" font-size="10.00">sd_fat_get_next_cluster</text>
</a>
</g>
</g>
<!-- Node6&#45;&gt;Node8 -->
<g id="edge9_Node000006_Node000008" class="edge">
<title>Node6&#45;&gt;Node8</title>
<g id="a_edge9_Node000006_Node000008"><a xlink:title=" ">
<path fill="none" stroke="#63b8ff" d="M224.23,-37.52C240.34,-33.15 259.24,-28.04 276.34,-23.41"/>
<polygon fill="#63b8ff" stroke="#63b8ff" points="277.07,-26.84 285.81,-20.85 275.24,-20.08 277.07,-26.84"/>
</a>
</g>
</g>
<!-- Node7&#45;&gt;Node3 -->
<g id="edge8_Node000007_Node000003" class="edge">
<title>Node7&#45;&gt;Node3</title>
<g id="a_edge8_Node000007_Node000003"><a xlink:title=" ">
<path fill="none" stroke="#63b8ff" d="M502.24,-20.41C508.27,-22.93 514.45,-25.82 520,-29 539.52,-40.19 559.54,-56.1 573.73,-68.27"/>
<polygon fill="#63b8ff" stroke="#63b8ff" points="571.18,-70.69 581.01,-74.64 575.79,-65.42 571.18,-70.69"/>
</a>
</g>
</g>
<!-- Node8&#45;&gt;Node7 -->
<g id="edge10_Node000008_Node000007" class="edge">
<title>Node8&#45;&gt;Node7</title>
<g id="a_edge10_Node000008_Node000007"><a xlink:title=" ">
<path fill="none" stroke="#63b8ff" d="M387.12,-10C400,-10 413.41,-10 425.63,-10"/>
<polygon fill="#63b8ff" stroke="#63b8ff" points="425.39,-13.5 435.39,-10 425.39,-6.5 425.39,-13.5"/>
</a>
</g>
</g>
</g>
</svg>
