<?xml version="1.0" encoding="UTF-8" standalone="no"?>
<!DOCTYPE svg PUBLIC "-//W3C//DTD SVG 1.1//EN"
 "http://www.w3.org/Graphics/SVG/1.1/DTD/svg11.dtd">
<!-- Generated by graphviz version 14.1.4 (20260321.0153)
 -->
<!-- Title: sd_begin Pages: 1 -->
<svg width="526pt" height="164pt"
 viewBox="0.00 0.00 526.00 164.00" xmlns="http://www.w3.org/2000/svg" xmlns:xlink="http://www.w3.org/1999/xlink">
<g id="graph0" class="graph" transform="scale(1 1) rotate(0) translate(4 160)">
<title>sd_begin</title>
<!-- Node1 -->
<g id="Node000001" class="node">
<title>Node1</title>
<g id="a_Node000001"><a xlink:title="Prepara o contexto da biblioteca e inicializa a interface de hardware.">
<polygon fill="#999999" stroke="#666666" points="55,-99 0,-99 0,-79 55,-79 55,-99"/>
<text xml:space="preserve" text-anchor="middle" x="27.5" y="-85.5" font-family="Helvetica,sans-Serif" font-size="10.00">sd_begin</text>
</a>
</g>
</g>
<!-- Node2 -->
<g id="Node000002" class="node">
<title>Node2</title>
<g id="a_Node000002"><a xlink:href="sdcard_8c.html#afac6d670e786eaea1f07a4eb95b25ac6" target="_top" xlink:title="Inicialização rápida para AVR (configura pinos + HAL interno).">
<polygon fill="white" stroke="#666666" points="164,-99 91,-99 91,-79 164,-79 164,-99"/>
<text xml:space="preserve" text-anchor="middle" x="127.5" y="-85.5" font-family="Helvetica,sans-Serif" font-size="10.00">sd_quick_init</text>
</a>
</g>
</g>
<!-- Node1&#45;&gt;Node2 -->
<g id="edge1_Node000001_Node000002" class="edge">
<title>Node1&#45;&gt;Node2</title>
<g id="a_edge1_Node000001_Node000002"><a xlink:title=" ">
<path fill="none" stroke="#63b8ff" d="M55.28,-89C62.67,-89 70.93,-89 79.12,-89"/>
<polygon fill="#63b8ff" stroke="#63b8ff" points="79.05,-92.5 89.05,-89 79.05,-85.5 79.05,-92.5"/>
</a>
</g>
</g>
<!-- Node3 -->
<g id="Node000003" class="node">
<title>Node3</title>
<g id="a_Node000003"><a xlink:href="sdcard_8c.html#a6cf66af945c22b51e07f145a63869c5a" target="_top" xlink:title="Desativa o Chip Select (CS) &#45; Pino PB2.">
<polygon fill="white" stroke="#666666" points="279.38,-156 208.62,-156 208.62,-136 279.38,-136 279.38,-156"/>
<text xml:space="preserve" text-anchor="middle" x="244" y="-142.5" font-family="Helvetica,sans-Serif" font-size="10.00">_sd_cs_high</text>
</a>
</g>
</g>
<!-- Node2&#45;&gt;Node3 -->
<g id="edge2_Node000002_Node000003" class="edge">
<title>Node2&#45;&gt;Node3</title>
<g id="a_edge2_Node000002_Node000003"><a xlink:title=" ">
<path fill="none" stroke="#63b8ff" d="M147.13,-99.38C161.45,-107.24 181.79,-118.15 200,-127 202.73,-128.33 205.57,-129.67 208.43,-130.99"/>
<polygon fill="#63b8ff" stroke="#63b8ff" points="206.82,-134.1 217.37,-135.03 209.7,-127.72 206.82,-134.1"/>
</a>
</g>
</g>
<!-- Node4 -->
<g id="Node000004" class="node">
<title>Node4</title>
<g id="a_Node000004"><a xlink:href="sdcard_8c.html#aeabfda2a0d078f02c8fdedc7c840cc69" target="_top" xlink:title="Ativa o Chip Select (CS) &#45; Pino PB2.">
<polygon fill="white" stroke="#666666" points="277.88,-118 210.12,-118 210.12,-98 277.88,-98 277.88,-118"/>
<text xml:space="preserve" text-anchor="middle" x="244" y="-104.5" font-family="Helvetica,sans-Serif" font-size="10.00">_sd_cs_low</text>
</a>
</g>
</g>
<!-- Node2&#45;&gt;Node4 -->
<g id="edge3_Node000002_Node000004" class="edge">
<title>Node2&#45;&gt;Node4</title>
<g id="a_edge3_Node000002_Node000004"><a xlink:title=" ">
<path fill="none" stroke="#63b8ff" d="M164.41,-94.96C175.33,-96.77 187.46,-98.78 198.86,-100.68"/>
<polygon fill="#63b8ff" stroke="#63b8ff" points="198.01,-104.08 208.45,-102.27 199.15,-97.18 198.01,-104.08"/>
</a>
</g>
</g>
<!-- Node5 -->
<g id="Node000005" class="node">
<title>Node5</title>
<g id="a_Node000005"><a xlink:href="sdcard_8c.html#a8092c4cbf898989b2bf07325565e0cbd" target="_top" xlink:title="Transmissão/recepção de um byte via SPI (função interna).">
<polygon fill="white" stroke="#666666" points="288,-80 200,-80 200,-60 288,-60 288,-80"/>
<text xml:space="preserve" text-anchor="middle" x="244" y="-66.5" font-family="Helvetica,sans-Serif" font-size="10.00">_sd_spi_transfer</text>
</a>
</g>
</g>
<!-- Node2&#45;&gt;Node5 -->
<g id="edge4_Node000002_Node000005" class="edge">
<title>Node2&#45;&gt;Node5</title>
<g id="a_edge4_Node000002_Node000005"><a xlink:title=" ">
<path fill="none" stroke="#63b8ff" d="M164.41,-83.04C171.99,-81.78 180.15,-80.43 188.25,-79.09"/>
<polygon fill="#63b8ff" stroke="#63b8ff" points="188.79,-82.54 198.08,-77.45 187.64,-75.64 188.79,-82.54"/>
</a>
</g>
</g>
<!-- Node6 -->
<g id="Node000006" class="node">
<title>Node6</title>
<g id="a_Node000006"><a xlink:href="sdcard_8c.html#abb7664cb3bec0e4c545128d134f0e054" target="_top" xlink:title="Tenta inicializar o cartão até 3 vezes com delay entre tentativas.">
<polygon fill="white" stroke="#666666" points="278.62,-42 209.38,-42 209.38,-22 278.62,-22 278.62,-42"/>
<text xml:space="preserve" text-anchor="middle" x="244" y="-28.5" font-family="Helvetica,sans-Serif" font-size="10.00">sd_init_retry</text>
</a>
</g>
</g>
<!-- Node2&#45;&gt;Node6 -->
<g id="edge5_Node000002_Node000006" class="edge">
<title>Node2&#45;&gt;Node6</title>
<g id="a_edge5_Node000002_Node000006"><a xlink:title=" ">
<path fill="none" stroke="#63b8ff" d="M147.13,-78.62C161.45,-70.76 181.79,-59.85 200,-51 202.73,-49.67 205.57,-48.33 208.43,-47.01"/>
<polygon fill="#63b8ff" stroke="#63b8ff" points="209.7,-50.28 217.37,-42.97 206.82,-43.9 209.7,-50.28"/>
</a>
</g>
</g>
<!-- Node7 -->
<g id="Node000007" class="node">
<title>Node7</title>
<g id="a_Node000007"><a xlink:href="sdcard_8c.html#a6a8f9df03a1b222e8ea45199b7431e19" target="_top" xlink:title="Inicializa o cartão SD no modo SPI.">
<polygon fill="white" stroke="#666666" points="368.5,-42 324,-42 324,-22 368.5,-22 368.5,-42"/>
<text xml:space="preserve" text-anchor="middle" x="346.25" y="-28.5" font-family="Helvetica,sans-Serif" font-size="10.00">sd_init</text>
</a>
</g>
</g>
<!-- Node6&#45;&gt;Node7 -->
<g id="edge6_Node000006_Node000007" class="edge">
<title>Node6&#45;&gt;Node7</title>
<g id="a_edge6_Node000006_Node000007"><a xlink:title=" ">
<path fill="none" stroke="#63b8ff" d="M278.94,-32C289.67,-32 301.51,-32 312.18,-32"/>
<polygon fill="#63b8ff" stroke="#63b8ff" points="312.09,-35.5 322.09,-32 312.09,-28.5 312.09,-35.5"/>
</a>
</g>
</g>
<!-- Node8 -->
<g id="Node000008" class="node">
<title>Node8</title>
<g id="a_Node000008"><a xlink:href="sdcard_8c.html#abf6c02ac2130c37a0bff2e6b9a6c25cb" target="_top" xlink:title="Configura a velocidade do SPI no AVR (função interna).">
<polygon fill="white" stroke="#666666" points="518,-70 404.5,-70 404.5,-38 518,-38 518,-70"/>
<text xml:space="preserve" text-anchor="start" x="412.5" y="-56.5" font-family="Helvetica,sans-Serif" font-size="10.00">sd_avr_spi_set_speed</text>
<text xml:space="preserve" text-anchor="middle" x="461.25" y="-44.5" font-family="Helvetica,sans-Serif" font-size="10.00">_default</text>
</a>
</g>
</g>
<!-- Node7&#45;&gt;Node8 -->
<g id="edge7_Node000007_Node000008" class="edge">
<title>Node7&#45;&gt;Node8</title>
<g id="a_edge7_Node000007_Node000008"><a xlink:title=" ">
<path fill="none" stroke="#63b8ff" d="M368.77,-36.19C375.88,-37.57 384.22,-39.2 392.91,-40.89"/>
<polygon fill="#63b8ff" stroke="#63b8ff" points="392.07,-44.29 402.55,-42.77 393.41,-37.42 392.07,-44.29"/>
</a>
</g>
</g>
<!-- Node9 -->
<g id="Node000009" class="node">
<title>Node9</title>
<g id="a_Node000009"><a xlink:href="sdcard_8c.html#aae1cfbcba5f92f4639e23fd8ed8fa3c0" target="_top" xlink:title="Envia um comando SPI para o cartão SD e aguarda resposta R1.">
<polygon fill="white" stroke="#666666" points="499.62,-20 422.88,-20 422.88,0 499.62,0 499.62,-20"/>
<text xml:space="preserve" text-anchor="middle" x="461.25" y="-6.5" font-family="Helvetica,sans-Serif" font-size="10.00">sd_cmd_send</text>
</a>
</g>
</g>
<!-- Node7&#45;&gt;Node9 -->
<g id="edge8_Node000007_Node000009" class="edge">
<title>Node7&#45;&gt;Node9</title>
<g id="a_edge8_Node000007_Node000009"><a xlink:title=" ">
<path fill="none" stroke="#63b8ff" d="M368.77,-27.81C380.92,-25.45 396.61,-22.39 411.57,-19.48"/>
<polygon fill="#63b8ff" stroke="#63b8ff" points="412.16,-22.93 421.3,-17.58 410.82,-16.06 412.16,-22.93"/>
</a>
</g>
</g>
</g>
</svg>
