<?xml version="1.0" encoding="UTF-8" standalone="no"?>
<!DOCTYPE svg PUBLIC "-//W3C//DTD SVG 1.1//EN"
 "http://www.w3.org/Graphics/SVG/1.1/DTD/svg11.dtd">
<!-- Generated by graphviz version 14.1.4 (20260321.0153)
 -->
<!-- Title: sd_file_exists Pages: 1 -->
<svg width="586pt" height="47pt"
 viewBox="0.00 0.00 586.00 47.00" xmlns="http://www.w3.org/2000/svg" xmlns:xlink="http://www.w3.org/1999/xlink">
<g id="graph0" class="graph" transform="scale(1 1) rotate(0) translate(4 43)">
<title>sd_file_exists</title>
<!-- Node1 -->
<g id="Node000001" class="node">
<title>Node1</title>
<g id="a_Node000001"><a xlink:title="Verifica se arquivo existe.">
<polygon fill="#999999" stroke="#666666" points="76,-39 0,-39 0,-19 76,-19 76,-39"/>
<text xml:space="preserve" text-anchor="middle" x="38" y="-25.5" font-family="Helvetica,sans-Serif" font-size="10.00">sd_file_exists</text>
</a>
</g>
</g>
<!-- Node2 -->
<g id="Node000002" class="node">
<title>Node2</title>
<g id="a_Node000002"><a xlink:href="sdcard_8c.html#a3794ef278970bdb3d1d50b3f10fc4e9f" target="_top" xlink:title="Localiza a entrada de um arquivo no diretório raiz.">
<polygon fill="white" stroke="#666666" points="204.5,-39 112,-39 112,-19 204.5,-19 204.5,-39"/>
<text xml:space="preserve" text-anchor="middle" x="158.25" y="-25.5" font-family="Helvetica,sans-Serif" font-size="10.00">sd_find_file_entry</text>
</a>
</g>
</g>
<!-- Node1&#45;&gt;Node2 -->
<g id="edge1_Node000001_Node000002" class="edge">
<title>Node1&#45;&gt;Node2</title>
<g id="a_edge1_Node000001_Node000002"><a xlink:title=" ">
<path fill="none" stroke="#63b8ff" d="M76.42,-29C84.05,-29 92.24,-29 100.38,-29"/>
<polygon fill="#63b8ff" stroke="#63b8ff" points="100.27,-32.5 110.27,-29 100.27,-25.5 100.27,-32.5"/>
</a>
</g>
</g>
<!-- Node3 -->
<g id="Node000003" class="node">
<title>Node3</title>
<g id="a_Node000003"><a xlink:href="sdcard_8c.html#aba9c8b9a5590e13424ab4a69280f0c1d" target="_top" xlink:title="Lê um único bloco de 512 bytes do cartão (LBA).">
<polygon fill="white" stroke="#666666" points="465.25,-39 396.75,-39 396.75,-19 465.25,-19 465.25,-39"/>
<text xml:space="preserve" text-anchor="middle" x="431" y="-25.5" font-family="Helvetica,sans-Serif" font-size="10.00">sd_blk_read</text>
</a>
</g>
</g>
<!-- Node2&#45;&gt;Node3 -->
<g id="edge2_Node000002_Node000003" class="edge">
<title>Node2&#45;&gt;Node3</title>
<g id="a_edge2_Node000002_Node000003"><a xlink:title=" ">
<path fill="none" stroke="#63b8ff" d="M204.87,-29C255.1,-29 335.33,-29 385.22,-29"/>
<polygon fill="#63b8ff" stroke="#63b8ff" points="385.09,-32.5 395.09,-29 385.09,-25.5 385.09,-32.5"/>
</a>
</g>
</g>
<!-- Node5 -->
<g id="Node000005" class="node">
<title>Node5</title>
<g id="a_Node000005"><a xlink:href="sdcard_8c.html#a7b0d2ab1fae193461c611a4f2e6c9245" target="_top" xlink:title="Obtém o próximo cluster na tabela FAT.">
<polygon fill="white" stroke="#666666" points="360.75,-20 240.5,-20 240.5,0 360.75,0 360.75,-20"/>
<text xml:space="preserve" text-anchor="middle" x="300.62" y="-6.5" font-family="Helvetica,sans-Serif" font-size="10.00">sd_fat_get_next_cluster</text>
</a>
</g>
</g>
<!-- Node2&#45;&gt;Node5 -->
<g id="edge4_Node000002_Node000005" class="edge">
<title>Node2&#45;&gt;Node5</title>
<g id="a_edge4_Node000002_Node000005"><a xlink:title=" ">
<path fill="none" stroke="#63b8ff" d="M204.83,-22.83C212.59,-21.78 220.81,-20.67 229.03,-19.55"/>
<polygon fill="#63b8ff" stroke="#63b8ff" points="229.27,-23.05 238.72,-18.24 228.34,-16.12 229.27,-23.05"/>
</a>
</g>
</g>
<!-- Node4 -->
<g id="Node000004" class="node">
<title>Node4</title>
<g id="a_Node000004"><a xlink:href="sdcard_8c.html#aae1cfbcba5f92f4639e23fd8ed8fa3c0" target="_top" xlink:title="Envia um comando SPI para o cartão SD e aguarda resposta R1.">
<polygon fill="white" stroke="#666666" points="578,-39 501.25,-39 501.25,-19 578,-19 578,-39"/>
<text xml:space="preserve" text-anchor="middle" x="539.62" y="-25.5" font-family="Helvetica,sans-Serif" font-size="10.00">sd_cmd_send</text>
</a>
</g>
</g>
<!-- Node3&#45;&gt;Node4 -->
<g id="edge3_Node000003_Node000004" class="edge">
<title>Node3&#45;&gt;Node4</title>
<g id="a_edge3_Node000003_Node000004"><a xlink:title=" ">
<path fill="none" stroke="#63b8ff" d="M465.74,-29C473.37,-29 481.62,-29 489.73,-29"/>
<polygon fill="#63b8ff" stroke="#63b8ff" points="489.52,-32.5 499.52,-29 489.52,-25.5 489.52,-32.5"/>
</a>
</g>
</g>
<!-- Node5&#45;&gt;Node3 -->
<g id="edge5_Node000005_Node000003" class="edge">
<title>Node5&#45;&gt;Node3</title>
<g id="a_edge5_Node000005_Node000003"><a xlink:title=" ">
<path fill="none" stroke="#63b8ff" d="M360.93,-18.78C369.14,-19.99 377.45,-21.22 385.34,-22.39"/>
<polygon fill="#63b8ff" stroke="#63b8ff" points="384.61,-25.82 395.02,-23.82 385.64,-18.9 384.61,-25.82"/>
</a>
</g>
</g>
</g>
</svg>
