<?xml version="1.0" encoding="UTF-8" standalone="no"?>
<!DOCTYPE svg PUBLIC "-//W3C//DTD SVG 1.1//EN"
 "http://www.w3.org/Graphics/SVG/1.1/DTD/svg11.dtd">
<!-- Generated by graphviz version 14.1.4 (20260321.0153)
 -->
<!-- Title: inc/sdcard.h Pages: 1 -->
<svg width="752pt" height="84pt"
 viewBox="0.00 0.00 752.00 84.00" xmlns="http://www.w3.org/2000/svg" xmlns:xlink="http://www.w3.org/1999/xlink">
<g id="graph0" class="graph" transform="scale(1 1) rotate(0) translate(4 80)">
<title>inc/sdcard.h</title>
<!-- Node1 -->
<g id="Node000001" class="node">
<title>Node1</title>
<g id="a_Node000001"><a xlink:title="Driver SD Card SPI + FAT32 (Root&#45;only) para AVR.">
<polygon fill="#999999" stroke="#666666" points="429.88,-76 360.62,-76 360.62,-56 429.88,-56 429.88,-76"/>
<text xml:space="preserve" text-anchor="middle" x="395.25" y="-62.5" font-family="Helvetica,sans-Serif" font-size="10.00">inc/sdcard.h</text>
</a>
</g>
</g>
<!-- Node2 -->
<g id="Node000002" class="node">
<title>Node2</title>
<g id="a_Node000002"><a xlink:href="exemplo__1_8c.html" target="_top" xlink:title=" ">
<polygon fill="white" stroke="#666666" points="116.5,-20 0,-20 0,0 116.5,0 116.5,-20"/>
<text xml:space="preserve" text-anchor="middle" x="58.25" y="-6.5" font-family="Helvetica,sans-Serif" font-size="10.00">examples/exemplo_1.c</text>
</a>
</g>
</g>
<!-- Node1&#45;&gt;Node2 -->
<g id="edge1_Node000001_Node000002" class="edge">
<title>Node1&#45;&gt;Node2</title>
<g id="a_edge1_Node000001_Node000002"><a xlink:title=" ">
<path fill="none" stroke="#63b8ff" d="M349.05,-57.6C288.68,-47.92 182.9,-30.97 116.93,-20.4"/>
<polygon fill="#63b8ff" stroke="#63b8ff" points="348.22,-61.01 358.64,-59.13 349.32,-54.1 348.22,-61.01"/>
</a>
</g>
</g>
<!-- Node3 -->
<g id="Node000003" class="node">
<title>Node3</title>
<g id="a_Node000003"><a xlink:href="exemplo__2_8c.html" target="_top" xlink:title=" ">
<polygon fill="white" stroke="#666666" points="251.5,-20 135,-20 135,0 251.5,0 251.5,-20"/>
<text xml:space="preserve" text-anchor="middle" x="193.25" y="-6.5" font-family="Helvetica,sans-Serif" font-size="10.00">examples/exemplo_2.c</text>
</a>
</g>
</g>
<!-- Node1&#45;&gt;Node3 -->
<g id="edge2_Node000001_Node000003" class="edge">
<title>Node1&#45;&gt;Node3</title>
<g id="a_edge2_Node000001_Node000003"><a xlink:title=" ">
<path fill="none" stroke="#63b8ff" d="M349.63,-52.8C312.95,-43 262.16,-29.42 228.54,-20.43"/>
<polygon fill="#63b8ff" stroke="#63b8ff" points="348.5,-56.12 359.06,-55.33 350.31,-49.36 348.5,-56.12"/>
</a>
</g>
</g>
<!-- Node4 -->
<g id="Node000004" class="node">
<title>Node4</title>
<g id="a_Node000004"><a xlink:href="exemplo__3_8c.html" target="_top" xlink:title=" ">
<polygon fill="white" stroke="#666666" points="386.5,-20 270,-20 270,0 386.5,0 386.5,-20"/>
<text xml:space="preserve" text-anchor="middle" x="328.25" y="-6.5" font-family="Helvetica,sans-Serif" font-size="10.00">examples/exemplo_3.c</text>
</a>
</g>
</g>
<!-- Node1&#45;&gt;Node4 -->
<g id="edge3_Node000001_Node000004" class="edge">
<title>Node1&#45;&gt;Node4</title>
<g id="a_edge3_Node000001_Node000004"><a xlink:title=" ">
<path fill="none" stroke="#63b8ff" d="M374.66,-48.4C363.2,-39.17 349.35,-28.01 339.79,-20.3"/>
<polygon fill="#63b8ff" stroke="#63b8ff" points="372.42,-51.09 382.4,-54.64 376.81,-45.64 372.42,-51.09"/>
</a>
</g>
</g>
<!-- Node5 -->
<g id="Node000005" class="node">
<title>Node5</title>
<g id="a_Node000005"><a xlink:href="exemplo__4_8c.html" target="_top" xlink:title=" ">
<polygon fill="white" stroke="#666666" points="521.5,-20 405,-20 405,0 521.5,0 521.5,-20"/>
<text xml:space="preserve" text-anchor="middle" x="463.25" y="-6.5" font-family="Helvetica,sans-Serif" font-size="10.00">examples/exemplo_4.c</text>
</a>
</g>
</g>
<!-- Node1&#45;&gt;Node5 -->
<g id="edge4_Node000001_Node000005" class="edge">
<title>Node1&#45;&gt;Node5</title>
<g id="a_edge4_Node000001_Node000005"><a xlink:title=" ">
<path fill="none" stroke="#63b8ff" d="M415.8,-48.68C427.5,-39.39 441.73,-28.09 451.54,-20.3"/>
<polygon fill="#63b8ff" stroke="#63b8ff" points="413.93,-45.69 408.28,-54.65 418.29,-51.17 413.93,-45.69"/>
</a>
</g>
</g>
<!-- Node6 -->
<g id="Node000006" class="node">
<title>Node6</title>
<g id="a_Node000006"><a xlink:href="exemplo__5_8c.html" target="_top" xlink:title=" ">
<polygon fill="white" stroke="#666666" points="656.5,-20 540,-20 540,0 656.5,0 656.5,-20"/>
<text xml:space="preserve" text-anchor="middle" x="598.25" y="-6.5" font-family="Helvetica,sans-Serif" font-size="10.00">examples/exemplo_5.c</text>
</a>
</g>
</g>
<!-- Node1&#45;&gt;Node6 -->
<g id="edge5_Node000001_Node000006" class="edge">
<title>Node1&#45;&gt;Node6</title>
<g id="a_edge5_Node000001_Node000006"><a xlink:title=" ">
<path fill="none" stroke="#63b8ff" d="M441.1,-52.8C477.96,-43 529,-29.42 562.79,-20.43"/>
<polygon fill="#63b8ff" stroke="#63b8ff" points="440.37,-49.37 431.61,-55.33 442.17,-56.14 440.37,-49.37"/>
</a>
</g>
</g>
<!-- Node7 -->
<g id="Node000007" class="node">
<title>Node7</title>
<g id="a_Node000007"><a xlink:href="sdcard_8c.html" target="_top" xlink:title="Implementação completa do Driver SD Card SPI + FAT32 (Root&#45;only) para AVR.">
<polygon fill="white" stroke="#666666" points="744.25,-20 674.25,-20 674.25,0 744.25,0 744.25,-20"/>
<text xml:space="preserve" text-anchor="middle" x="709.25" y="-6.5" font-family="Helvetica,sans-Serif" font-size="10.00">src/sdcard.c</text>
</a>
</g>
</g>
<!-- Node1&#45;&gt;Node7 -->
<g id="edge6_Node000001_Node000007" class="edge">
<title>Node1&#45;&gt;Node7</title>
<g id="a_edge6_Node000001_Node000007"><a xlink:title=" ">
<path fill="none" stroke="#63b8ff" d="M441.5,-57.82C495.34,-49.34 586.9,-34.54 665.25,-20 668.16,-19.46 671.18,-18.88 674.21,-18.29"/>
<polygon fill="#63b8ff" stroke="#63b8ff" points="441.1,-54.34 431.77,-59.35 442.19,-61.25 441.1,-54.34"/>
</a>
</g>
</g>
</g>
</svg>
