<?xml version="1.0" encoding="UTF-8" standalone="no"?>
<!DOCTYPE svg PUBLIC "-//W3C//DTD SVG 1.1//EN"
 "http://www.w3.org/Graphics/SVG/1.1/DTD/svg11.dtd">
<!-- Generated by graphviz version 14.1.4 (20260321.0153)
 -->
<!-- Title: sd_blk_write Pages: 1 -->
<svg width="325pt" height="85pt"
 viewBox="0.00 0.00 325.00 85.00" xmlns="http://www.w3.org/2000/svg" xmlns:xlink="http://www.w3.org/1999/xlink">

<svg id="main" version="1.1" xmlns="http://www.w3.org/2000/svg" xmlns:xlink="http://www.w3.org/1999/xlink" xml:space="preserve">

<style type="text/css"><![CDATA[
.node, .edge {opacity: 0.7;}
.node.selected, .edge.selected {opacity: 1;}
.edge:hover path { stroke: red; }
.edge:hover polygon { stroke: red; fill: red; }
]]></style>
<script type="application/ecmascript" xlink:href="svg.min.js"/>
<svg id="graph" class="graph">
<g id="graph0" class="graph" transform="scale(1 1) rotate(0) translate(4 81)">
<title>sd_blk_write</title>
<!-- Node1 -->
<g id="Node000001" class="node">
<title>Node1</title>
<g id="a_Node000001"><a xlink:title="Escreve um único bloco de 512 bytes.">
<polygon fill="#999999" stroke="#666666" points="70.75,-58 0,-58 0,-38 70.75,-38 70.75,-58"/>
<text xml:space="preserve" text-anchor="middle" x="35.38" y="-44.5" font-family="Helvetica,sans-Serif" font-size="10.00">sd_blk_write</text>
</a>
</g>
</g>
<!-- Node2 -->
<g id="Node000002" class="node">
<title>Node2</title>
<g id="a_Node000002"><a xlink:href="sdcard_8c.html#aae1cfbcba5f92f4639e23fd8ed8fa3c0" target="_top" xlink:title="Envia um comando SPI para o cartão SD e aguarda resposta R1.">
<polygon fill="white" stroke="#666666" points="316.5,-77 239.75,-77 239.75,-57 316.5,-57 316.5,-77"/>
<text xml:space="preserve" text-anchor="middle" x="278.12" y="-63.5" font-family="Helvetica,sans-Serif" font-size="10.00">sd_cmd_send</text>
</a>
</g>
</g>
<!-- Node1&#45;&gt;Node2 -->
<g id="edge1_Node000001_Node000002" class="edge">
<title>Node1&#45;&gt;Node2</title>
<g id="a_edge1_Node000001_Node000002"><a xlink:title=" ">
<path fill="none" stroke="#63b8ff" d="M67.89,-58.41C79.91,-61.88 93.83,-65.29 106.75,-67 147.45,-72.4 194.11,-71.94 228.29,-70.39"/>
<polygon fill="#63b8ff" stroke="#63b8ff" points="228.06,-73.91 237.87,-69.91 227.7,-66.92 228.06,-73.91"/>
</a>
</g>
</g>
<!-- Node3 -->
<g id="Node000003" class="node">
<title>Node3</title>
<g id="a_Node000003"><a xlink:href="sdcard_8c.html#afcdb9112d386e92b29ad0cac9f5fc277" target="_top" xlink:title="Obtém o status atual do cartão SD (comando CMD13).">
<polygon fill="white" stroke="#666666" points="194,-58 116.5,-58 116.5,-38 194,-38 194,-58"/>
<text xml:space="preserve" text-anchor="middle" x="155.25" y="-44.5" font-family="Helvetica,sans-Serif" font-size="10.00">sd_get_status</text>
</a>
</g>
</g>
<!-- Node1&#45;&gt;Node3 -->
<g id="edge2_Node000001_Node000003" class="edge">
<title>Node1&#45;&gt;Node3</title>
<g id="a_edge2_Node000001_Node000003"><a xlink:title=" ">
<path fill="none" stroke="#63b8ff" d="M71.1,-48C81.59,-48 93.31,-48 104.57,-48"/>
<polygon fill="#63b8ff" stroke="#63b8ff" points="104.55,-51.5 114.55,-48 104.55,-44.5 104.55,-51.5"/>
</a>
</g>
</g>
<!-- Node4 -->
<g id="Node000004" class="node">
<title>Node4</title>
<g id="a_Node000004"><a xlink:href="sdcard_8c.html#a8c2c0ebbeee0d06d43335bc9df4b3142" target="_top" xlink:title="Aguarda o cartão sair do estado de ocupado (busy).">
<polygon fill="white" stroke="#666666" points="203.75,-20 106.75,-20 106.75,0 203.75,0 203.75,-20"/>
<text xml:space="preserve" text-anchor="middle" x="155.25" y="-6.5" font-family="Helvetica,sans-Serif" font-size="10.00">sd_spi_wait_ready</text>
</a>
</g>
</g>
<!-- Node1&#45;&gt;Node4 -->
<g id="edge4_Node000001_Node000004" class="edge">
<title>Node1&#45;&gt;Node4</title>
<g id="a_edge4_Node000001_Node000004"><a xlink:title=" ">
<path fill="none" stroke="#63b8ff" d="M68.9,-37.52C81.91,-33.32 97.09,-28.43 111.01,-23.94"/>
<polygon fill="#63b8ff" stroke="#63b8ff" points="111.95,-27.31 120.39,-20.91 109.8,-20.65 111.95,-27.31"/>
</a>
</g>
</g>
<!-- Node3&#45;&gt;Node2 -->
<g id="edge3_Node000003_Node000002" class="edge">
<title>Node3&#45;&gt;Node2</title>
<g id="a_edge3_Node000003_Node000002"><a xlink:title=" ">
<path fill="none" stroke="#63b8ff" d="M194.5,-54.01C205.29,-55.71 217.17,-57.58 228.48,-59.35"/>
<polygon fill="#63b8ff" stroke="#63b8ff" points="227.62,-62.76 238.05,-60.86 228.71,-55.85 227.62,-62.76"/>
</a>
</g>
</g>
</g>
</svg>
</svg>

<style type='text/css'>
<![CDATA[
[data-mouse-over-selected='false'] { opacity: 0.7; }
[data-mouse-over-selected='true']  { opacity: 1.0; }
]]>
</style>
<script type="application/ecmascript"><![CDATA[
document.addEventListener('DOMContentLoaded', (event) => {
  highlightEdges();
  highlightAdjacentNodes();
});
]]></script>
</svg>
