<?xml version="1.0" encoding="UTF-8" standalone="no"?>
<!DOCTYPE svg PUBLIC "-//W3C//DTD SVG 1.1//EN"
 "http://www.w3.org/Graphics/SVG/1.1/DTD/svg11.dtd">
<!-- Generated by graphviz version 14.1.4 (20260321.0153)
 -->
<!-- Title: sd_file_create Pages: 1 -->
<!--zoomable 294 -->

<svg id="main" version="1.1" xmlns="http://www.w3.org/2000/svg" xmlns:xlink="http://www.w3.org/1999/xlink" xml:space="preserve" onload="init(evt)">

<style type="text/css"><![CDATA[
.node, .edge {opacity: 0.7;}
.node.selected, .edge.selected {opacity: 1;}
.edge:hover path { stroke: red; }
.edge:hover polygon { stroke: red; fill: red; }
]]></style>

<defs>
  <circle id="rim" cx="0" cy="0" r="7"/>
  <circle id="rim2" cx="0" cy="0" r="3.5"/>
  <g id="zoomPlus">
    <use xlink:href="#rim" fill="#404040"><set attributeName="fill" to="#808080" begin="zoomplus.mouseover" end="zoomplus.mouseout"/></use>
    <path d="M-4,0h8M0,-4v8" fill="none" stroke="white" stroke-width="1.5" pointer-events="none"/>
  </g>
  <g id="zoomMin">
    <use xlink:href="#rim" fill="#404040"><set attributeName="fill" to="#808080" begin="zoomminus.mouseover" end="zoomminus.mouseout"/></use>
    <path d="M-4,0h8" fill="none" stroke="white" stroke-width="1.5" pointer-events="none"/>
  </g>
  <g id="arrowUp" transform="translate(30 24)">
    <use xlink:href="#rim"/>
    <path pointer-events="none" fill="none" stroke="white" stroke-width="1.5" d="M0,-3.0v7 M-2.5,-0.5L0,-3.0L2.5,-0.5"/>
  </g>
  <g id="arrowRight" transform="rotate(90) translate(36 -43)">
    <use xlink:href="#rim"/>
    <path pointer-events="none" fill="none" stroke="white" stroke-width="1.5" d="M0,-3.0v7 M-2.5,-0.5L0,-3.0L2.5,-0.5"/>
  </g>
  <g id="arrowDown" transform="rotate(180) translate(-30 -48)">
    <use xlink:href="#rim"/>
    <path pointer-events="none" fill="none" stroke="white" stroke-width="1.5" d="M0,-3.0v7 M-2.5,-0.5L0,-3.0L2.5,-0.5"/>
  </g>
  <g id="arrowLeft" transform="rotate(270) translate(-36 17)">
    <use xlink:href="#rim"/>
    <path pointer-events="none" fill="none" stroke="white" stroke-width="1.5" d="M0,-3.0v7 M-2.5,-0.5L0,-3.0L2.5,-0.5"/>
  </g>
  <g id="resetDef">
    <use xlink:href="#rim2" fill="#404040"><set attributeName="fill" to="#808080" begin="reset.mouseover" end="reset.mouseout"/></use>
  </g>
</defs>
<script type="application/ecmascript">
var viewWidth = 868;
var viewHeight = 294;
var sectionId = 'dynsection-10';
</script>
<script type="application/ecmascript" xlink:href="svg.min.js"/>
<svg id="graph" class="graph">
<g id="viewport">
<title>sd_file_create</title>
<!-- Node1 -->
<g id="Node000001" class="node">
<title>Node1</title>
<g id="a_Node000001"><a xlink:title="Cria um novo arquivo no diretorio raiz com expansao de cluster.">
<polygon fill="#999999" stroke="#666666" points="76.75,-191 0,-191 0,-171 76.75,-171 76.75,-191"/>
<text xml:space="preserve" text-anchor="middle" x="38.38" y="-177.5" font-family="Helvetica,sans-Serif" font-size="10.00">sd_file_create</text>
</a>
</g>
</g>
<!-- Node1&#45;&gt;Node1 -->
<g id="edge21_Node000001_Node000001" class="edge">
<title>Node1&#45;&gt;Node1</title>
<g id="a_edge21_Node000001_Node000001"><a xlink:title=" ">
<path fill="none" stroke="#63b8ff" d="M18.14,-191.34C9.49,-199.98 16.23,-209 38.38,-209 50.48,-209 57.99,-206.3 60.89,-202.44"/>
<polygon fill="#63b8ff" stroke="#63b8ff" points="64.35,-201.92 58.92,-192.82 57.5,-203.32 64.35,-201.92"/>
</a>
</g>
</g>
<!-- Node2 -->
<g id="Node000002" class="node">
<title>Node2</title>
<g id="a_Node000002"><a xlink:href="sdcard_8c.html#acd7b26d07ec9452df93bb131bbcb4feb" target="_top" xlink:title="Converte componentes de data para o formato FAT (16 bits). Formato: yyyyyyymmmmddddd (ano desde 1980)...">
<polygon fill="white" stroke="#666666" points="216.5,-286 115,-286 115,-266 216.5,-266 216.5,-286"/>
<text xml:space="preserve" text-anchor="middle" x="165.75" y="-272.5" font-family="Helvetica,sans-Serif" font-size="10.00">_sd_make_fat_date</text>
</a>
</g>
</g>
<!-- Node1&#45;&gt;Node2 -->
<g id="edge1_Node000001_Node000002" class="edge">
<title>Node1&#45;&gt;Node2</title>
<g id="a_edge1_Node000001_Node000002"><a xlink:title=" ">
<path fill="none" stroke="#63b8ff" d="M46.81,-191.29C58.93,-207.39 84.46,-238.6 112.75,-257 114.73,-258.29 116.82,-259.51 118.96,-260.65"/>
<polygon fill="#63b8ff" stroke="#63b8ff" points="117.39,-263.79 127.93,-264.87 120.37,-257.45 117.39,-263.79"/>
</a>
</g>
</g>
<!-- Node3 -->
<g id="Node000003" class="node">
<title>Node3</title>
<g id="a_Node000003"><a xlink:href="sdcard_8c.html#ab9a99a1bb2c8bfaf686c5272fd5190ba" target="_top" xlink:title="Converte componentes de tempo para o formato FAT (16 bits). Formato: hhhhhmmmmmmsssss (segundos são d...">
<polygon fill="white" stroke="#666666" points="216.5,-248 115,-248 115,-228 216.5,-228 216.5,-248"/>
<text xml:space="preserve" text-anchor="middle" x="165.75" y="-234.5" font-family="Helvetica,sans-Serif" font-size="10.00">_sd_make_fat_time</text>
</a>
</g>
</g>
<!-- Node1&#45;&gt;Node3 -->
<g id="edge2_Node000001_Node000003" class="edge">
<title>Node1&#45;&gt;Node3</title>
<g id="a_edge2_Node000001_Node000003"><a xlink:title=" ">
<path fill="none" stroke="#63b8ff" d="M62.37,-191.45C81.72,-200.25 109.65,-212.95 131.45,-222.86"/>
<polygon fill="#63b8ff" stroke="#63b8ff" points="129.97,-226.03 140.52,-226.99 132.87,-219.66 129.97,-226.03"/>
</a>
</g>
</g>
<!-- Node4 -->
<g id="Node000004" class="node">
<title>Node4</title>
<g id="a_Node000004"><a xlink:href="sdcard_8c.html#aba9c8b9a5590e13424ab4a69280f0c1d" target="_top" xlink:title="Lê um único bloco de 512 bytes do cartão (LBA).">
<polygon fill="white" stroke="#666666" points="612.88,-134 544.38,-134 544.38,-114 612.88,-114 612.88,-134"/>
<text xml:space="preserve" text-anchor="middle" x="578.62" y="-120.5" font-family="Helvetica,sans-Serif" font-size="10.00">sd_blk_read</text>
</a>
</g>
</g>
<!-- Node1&#45;&gt;Node4 -->
<g id="edge3_Node000001_Node000004" class="edge">
<title>Node1&#45;&gt;Node4</title>
<g id="a_edge3_Node000001_Node000004"><a xlink:title=" ">
<path fill="none" stroke="#63b8ff" d="M76.95,-185.76C157.96,-194.64 354.07,-208.6 507.25,-159 522.06,-154.2 537.64,-146.73 550.37,-139.92"/>
<polygon fill="#63b8ff" stroke="#63b8ff" points="551.92,-143.06 558.98,-135.17 548.54,-136.94 551.92,-143.06"/>
</a>
</g>
</g>
<!-- Node6 -->
<g id="Node000006" class="node">
<title>Node6</title>
<g id="a_Node000006"><a xlink:href="sdcard_8c.html#ac6d558621f33abf80f245adb3d0f4e67" target="_top" xlink:title="Escreve um único bloco de 512 bytes.">
<polygon fill="white" stroke="#666666" points="614,-58 543.25,-58 543.25,-38 614,-38 614,-58"/>
<text xml:space="preserve" text-anchor="middle" x="578.62" y="-44.5" font-family="Helvetica,sans-Serif" font-size="10.00">sd_blk_write</text>
</a>
</g>
</g>
<!-- Node1&#45;&gt;Node6 -->
<g id="edge5_Node000001_Node000006" class="edge">
<title>Node1&#45;&gt;Node6</title>
<g id="a_edge5_Node000001_Node000006"><a xlink:title=" ">
<path fill="none" stroke="#63b8ff" d="M46.7,-170.54C58.68,-154.21 84.01,-122.69 112.75,-105 246.62,-22.61 443.4,-32.15 531.74,-41.76"/>
<polygon fill="#63b8ff" stroke="#63b8ff" points="531.13,-45.21 541.47,-42.87 531.93,-38.26 531.13,-45.21"/>
</a>
</g>
</g>
<!-- Node9 -->
<g id="Node000009" class="node">
<title>Node9</title>
<g id="a_Node000009"><a xlink:href="sdcard_8c.html#a6dcdbe623e720ed71f92e745c440db85" target="_top" xlink:title="Expande o diretorio alocando um novo cluster.">
<polygon fill="white" stroke="#666666" points="218.75,-134 112.75,-134 112.75,-114 218.75,-114 218.75,-134"/>
<text xml:space="preserve" text-anchor="middle" x="165.75" y="-120.5" font-family="Helvetica,sans-Serif" font-size="10.00">sd_expand_directory</text>
</a>
</g>
</g>
<!-- Node1&#45;&gt;Node9 -->
<g id="edge10_Node000001_Node000009" class="edge">
<title>Node1&#45;&gt;Node9</title>
<g id="a_edge10_Node000001_Node000009"><a xlink:title=" ">
<path fill="none" stroke="#63b8ff" d="M62.37,-170.55C81.72,-161.75 109.65,-149.05 131.45,-139.14"/>
<polygon fill="#63b8ff" stroke="#63b8ff" points="132.87,-142.34 140.52,-135.01 129.97,-135.97 132.87,-142.34"/>
</a>
</g>
</g>
<!-- Node12 -->
<g id="Node000012" class="node">
<title>Node12</title>
<g id="a_Node000012"><a xlink:href="sdcard_8c.html#a7b0d2ab1fae193461c611a4f2e6c9245" target="_top" xlink:title="Obtém o próximo cluster na tabela FAT.">
<polygon fill="white" stroke="#666666" points="375,-172 254.75,-172 254.75,-152 375,-152 375,-172"/>
<text xml:space="preserve" text-anchor="middle" x="314.88" y="-158.5" font-family="Helvetica,sans-Serif" font-size="10.00">sd_fat_get_next_cluster</text>
</a>
</g>
</g>
<!-- Node1&#45;&gt;Node12 -->
<g id="edge20_Node000001_Node000012" class="edge">
<title>Node1&#45;&gt;Node12</title>
<g id="a_edge20_Node000001_Node000012"><a xlink:title=" ">
<path fill="none" stroke="#63b8ff" d="M76.97,-178.4C119.58,-175.45 190,-170.57 243.01,-166.91"/>
<polygon fill="#63b8ff" stroke="#63b8ff" points="243.14,-170.4 252.87,-166.22 242.65,-163.42 243.14,-170.4"/>
</a>
</g>
</g>
<!-- Node5 -->
<g id="Node000005" class="node">
<title>Node5</title>
<g id="a_Node000005"><a xlink:href="sdcard_8c.html#aae1cfbcba5f92f4639e23fd8ed8fa3c0" target="_top" xlink:title="Envia um comando SPI para o cartão SD e aguarda resposta R1.">
<polygon fill="white" stroke="#666666" points="859.75,-58 783,-58 783,-38 859.75,-38 859.75,-58"/>
<text xml:space="preserve" text-anchor="middle" x="821.38" y="-44.5" font-family="Helvetica,sans-Serif" font-size="10.00">sd_cmd_send</text>
</a>
</g>
</g>
<!-- Node4&#45;&gt;Node5 -->
<g id="edge4_Node000004_Node000005" class="edge">
<title>Node4&#45;&gt;Node5</title>
<g id="a_edge4_Node000004_Node000005"><a xlink:title=" ">
<path fill="none" stroke="#63b8ff" d="M613.33,-125.43C648.09,-125.71 703.26,-122.81 747,-105 768.57,-96.22 789.15,-79.21 802.99,-66.05"/>
<polygon fill="#63b8ff" stroke="#63b8ff" points="805.33,-68.66 809.98,-59.15 800.41,-63.68 805.33,-68.66"/>
</a>
</g>
</g>
<!-- Node6&#45;&gt;Node5 -->
<g id="edge6_Node000006_Node000005" class="edge">
<title>Node6&#45;&gt;Node5</title>
<g id="a_edge6_Node000006_Node000005"><a xlink:title=" ">
<path fill="none" stroke="#63b8ff" d="M614.38,-48C655.67,-48 724.84,-48 771.51,-48"/>
<polygon fill="#63b8ff" stroke="#63b8ff" points="771.35,-51.5 781.35,-48 771.35,-44.5 771.35,-51.5"/>
</a>
</g>
</g>
<!-- Node7 -->
<g id="Node000007" class="node">
<title>Node7</title>
<g id="a_Node000007"><a xlink:href="sdcard_8c.html#afcdb9112d386e92b29ad0cac9f5fc277" target="_top" xlink:title="Obtém o status atual do cartão SD (comando CMD13).">
<polygon fill="white" stroke="#666666" points="737.25,-20 659.75,-20 659.75,0 737.25,0 737.25,-20"/>
<text xml:space="preserve" text-anchor="middle" x="698.5" y="-6.5" font-family="Helvetica,sans-Serif" font-size="10.00">sd_get_status</text>
</a>
</g>
</g>
<!-- Node6&#45;&gt;Node7 -->
<g id="edge7_Node000006_Node000007" class="edge">
<title>Node6&#45;&gt;Node7</title>
<g id="a_edge7_Node000006_Node000007"><a xlink:title=" ">
<path fill="none" stroke="#63b8ff" d="M612.15,-37.52C625.16,-33.32 640.34,-28.43 654.26,-23.94"/>
<polygon fill="#63b8ff" stroke="#63b8ff" points="655.2,-27.31 663.64,-20.91 653.05,-20.65 655.2,-27.31"/>
</a>
</g>
</g>
<!-- Node8 -->
<g id="Node000008" class="node">
<title>Node8</title>
<g id="a_Node000008"><a xlink:href="sdcard_8c.html#a8c2c0ebbeee0d06d43335bc9df4b3142" target="_top" xlink:title="Aguarda o cartão sair do estado de ocupado (busy).">
<polygon fill="white" stroke="#666666" points="747,-96 650,-96 650,-76 747,-76 747,-96"/>
<text xml:space="preserve" text-anchor="middle" x="698.5" y="-82.5" font-family="Helvetica,sans-Serif" font-size="10.00">sd_spi_wait_ready</text>
</a>
</g>
</g>
<!-- Node6&#45;&gt;Node8 -->
<g id="edge9_Node000006_Node000008" class="edge">
<title>Node6&#45;&gt;Node8</title>
<g id="a_edge9_Node000006_Node000008"><a xlink:title=" ">
<path fill="none" stroke="#63b8ff" d="M612.15,-58.48C625.16,-62.68 640.34,-67.57 654.26,-72.06"/>
<polygon fill="#63b8ff" stroke="#63b8ff" points="653.05,-75.35 663.64,-75.09 655.2,-68.69 653.05,-75.35"/>
</a>
</g>
</g>
<!-- Node7&#45;&gt;Node5 -->
<g id="edge8_Node000007_Node000005" class="edge">
<title>Node7&#45;&gt;Node5</title>
<g id="a_edge8_Node000007_Node000005"><a xlink:title=" ">
<path fill="none" stroke="#63b8ff" d="M732.85,-20.48C746.33,-24.72 762.07,-29.67 776.45,-34.19"/>
<polygon fill="#63b8ff" stroke="#63b8ff" points="775.1,-37.44 785.69,-37.1 777.2,-30.76 775.1,-37.44"/>
</a>
</g>
</g>
<!-- Node9&#45;&gt;Node6 -->
<g id="edge11_Node000009_Node000006" class="edge">
<title>Node9&#45;&gt;Node6</title>
<g id="a_edge11_Node000009_Node000006"><a xlink:title=" ">
<path fill="none" stroke="#63b8ff" d="M187.92,-113.55C205.42,-105.35 231.15,-94.3 254.75,-88 351.33,-62.21 468.69,-52.96 531.94,-49.71"/>
<polygon fill="#63b8ff" stroke="#63b8ff" points="531.77,-53.22 541.59,-49.24 531.43,-46.23 531.77,-53.22"/>
</a>
</g>
</g>
<!-- Node10 -->
<g id="Node000010" class="node">
<title>Node10</title>
<g id="a_Node000010"><a xlink:href="sdcard_8c.html#afa6b333a50132b6be29e88aa75fd90f1" target="_top" xlink:title="Aloca um cluster livre na FAT32 utilizando busca circular otimizada.">
<polygon fill="white" stroke="#666666" points="366.38,-134 263.38,-134 263.38,-114 366.38,-114 366.38,-134"/>
<text xml:space="preserve" text-anchor="middle" x="314.88" y="-120.5" font-family="Helvetica,sans-Serif" font-size="10.00">sd_fat_alloc_cluster</text>
</a>
</g>
</g>
<!-- Node9&#45;&gt;Node10 -->
<g id="edge12_Node000009_Node000010" class="edge">
<title>Node9&#45;&gt;Node10</title>
<g id="a_edge12_Node000009_Node000010"><a xlink:title=" ">
<path fill="none" stroke="#63b8ff" d="M219.04,-124C229.7,-124 241.02,-124 251.98,-124"/>
<polygon fill="#63b8ff" stroke="#63b8ff" points="251.73,-127.5 261.73,-124 251.73,-120.5 251.73,-127.5"/>
</a>
</g>
</g>
<!-- Node11 -->
<g id="Node000011" class="node">
<title>Node11</title>
<g id="a_Node000011"><a xlink:href="sdcard_8c.html#a144349126da9cc0bcd1dd34243989e98" target="_top" xlink:title="Atualiza uma entrada na Tabela de Alocação de Arquivos (FAT).">
<polygon fill="white" stroke="#666666" points="507.25,-96 411,-96 411,-76 507.25,-76 507.25,-96"/>
<text xml:space="preserve" text-anchor="middle" x="459.12" y="-82.5" font-family="Helvetica,sans-Serif" font-size="10.00">sd_fat_write_entry</text>
</a>
</g>
</g>
<!-- Node9&#45;&gt;Node11 -->
<g id="edge19_Node000009_Node000011" class="edge">
<title>Node9&#45;&gt;Node11</title>
<g id="a_edge19_Node000009_Node000011"><a xlink:title=" ">
<path fill="none" stroke="#63b8ff" d="M209.98,-113.59C224.17,-110.46 240.07,-107.26 254.75,-105 303.18,-97.54 358.58,-92.59 399.32,-89.63"/>
<polygon fill="#63b8ff" stroke="#63b8ff" points="399.43,-93.13 409.16,-88.93 398.94,-86.14 399.43,-93.13"/>
</a>
</g>
</g>
<!-- Node9&#45;&gt;Node12 -->
<g id="edge17_Node000009_Node000012" class="edge">
<title>Node9&#45;&gt;Node12</title>
<g id="a_edge17_Node000009_Node000012"><a xlink:title=" ">
<path fill="none" stroke="#63b8ff" d="M207.34,-134.48C224.39,-138.89 244.41,-144.06 262.47,-148.72"/>
<polygon fill="#63b8ff" stroke="#63b8ff" points="261.39,-152.06 271.95,-151.17 263.14,-145.28 261.39,-152.06"/>
</a>
</g>
</g>
<!-- Node10&#45;&gt;Node4 -->
<g id="edge13_Node000010_Node000004" class="edge">
<title>Node10&#45;&gt;Node4</title>
<g id="a_edge13_Node000010_Node000004"><a xlink:title=" ">
<path fill="none" stroke="#63b8ff" d="M366.65,-124C414.79,-124 486.43,-124 532.58,-124"/>
<polygon fill="#63b8ff" stroke="#63b8ff" points="532.51,-127.5 542.51,-124 532.51,-120.5 532.51,-127.5"/>
</a>
</g>
</g>
<!-- Node10&#45;&gt;Node11 -->
<g id="edge14_Node000010_Node000011" class="edge">
<title>Node10&#45;&gt;Node11</title>
<g id="a_edge14_Node000010_Node000011"><a xlink:title=" ">
<path fill="none" stroke="#63b8ff" d="M355.12,-113.52C371.45,-109.15 390.6,-104.04 407.93,-99.41"/>
<polygon fill="#63b8ff" stroke="#63b8ff" points="408.79,-102.8 417.54,-96.84 406.98,-96.04 408.79,-102.8"/>
</a>
</g>
</g>
<!-- Node11&#45;&gt;Node4 -->
<g id="edge15_Node000011_Node000004" class="edge">
<title>Node11&#45;&gt;Node4</title>
<g id="a_edge15_Node000011_Node000004"><a xlink:title=" ">
<path fill="none" stroke="#63b8ff" d="M492.54,-96.48C505.51,-100.68 520.64,-105.57 534.52,-110.06"/>
<polygon fill="#63b8ff" stroke="#63b8ff" points="533.28,-113.34 543.87,-113.08 535.43,-106.68 533.28,-113.34"/>
</a>
</g>
</g>
<!-- Node11&#45;&gt;Node6 -->
<g id="edge16_Node000011_Node000006" class="edge">
<title>Node11&#45;&gt;Node6</title>
<g id="a_edge16_Node000011_Node000006"><a xlink:title=" ">
<path fill="none" stroke="#63b8ff" d="M492.54,-75.52C505.51,-71.32 520.64,-66.43 534.52,-61.94"/>
<polygon fill="#63b8ff" stroke="#63b8ff" points="535.43,-65.32 543.87,-58.92 533.28,-58.66 535.43,-65.32"/>
</a>
</g>
</g>
<!-- Node12&#45;&gt;Node4 -->
<g id="edge18_Node000012_Node000004" class="edge">
<title>Node12&#45;&gt;Node4</title>
<g id="a_edge18_Node000012_Node000004"><a xlink:title=" ">
<path fill="none" stroke="#63b8ff" d="M375.09,-155.68C412.97,-151.37 463.12,-145.15 507.25,-138 515.54,-136.66 524.33,-135.05 532.8,-133.42"/>
<polygon fill="#63b8ff" stroke="#63b8ff" points="533.45,-136.86 542.58,-131.48 532.09,-129.99 533.45,-136.86"/>
</a>
</g>
</g>
</g>
</svg>

<g id="navigator" transform="translate(0 0)" fill="#404254">
  <rect fill="#f2f5e9" fill-opacity="0.5" stroke="#606060" stroke-width=".5" x="0" y="0" width="60" height="60"/>
  <use id="zoomplus" xlink:href="#zoomPlus" x="17" y="9" onmousedown="handleZoom(evt,'in')"/>
  <use id="zoomminus" xlink:href="#zoomMin" x="42" y="9" onmousedown="handleZoom(evt,'out')"/>
  <use id="reset" xlink:href="#resetDef" x="30" y="36" onmousedown="handleReset()"/>
   <use id="arrowup" xlink:href="#arrowUp" x="0" y="0" onmousedown="handlePan(0,-1)"/>
  <use id="arrowright" xlink:href="#arrowRight" x="0" y="0" onmousedown="handlePan(1,0)"/>
  <use id="arrowdown" xlink:href="#arrowDown" x="0" y="0" onmousedown="handlePan(0,1)"/>
  <use id="arrowleft" xlink:href="#arrowLeft" x="0" y="0" onmousedown="handlePan(-1,0)"/>
</g>
<svg viewBox="0 0 15 15" width="100%" height="30px" preserveAspectRatio="xMaxYMin meet">
 <g id="arrow_out" transform="scale(0.3 0.3)">
  <a xlink:href="sdcard_8h_a5228ed5a829330c001b1614c8476236c_cgraph_org.svg" target="_base">
   <rect id="button" ry="5" rx="5" y="6" x="6" height="38" width="38"
        fill="#f2f5e9" fill-opacity="0.5" stroke="#606060" stroke-width="1.0"/>
   <path id="arrow"
     d="M 11.500037,31.436501 C 11.940474,20.09759 22.043105,11.32322 32.158766,21.979434 L 37.068811,17.246167 C 37.068811,17.246167 37.088388,32 37.088388,32 L 22.160133,31.978069 C 22.160133,31.978069 26.997745,27.140456 26.997745,27.140456 C 18.528582,18.264221 13.291696,25.230495 11.500037,31.436501 z"
     style="fill:#404040;"/>
  </a>
 </g>
</svg>

<style type='text/css'>
<![CDATA[
[data-mouse-over-selected='false'] { opacity: 0.7; }
[data-mouse-over-selected='true']  { opacity: 1.0; }
]]>
</style>
<script type="application/ecmascript"><![CDATA[
document.addEventListener('DOMContentLoaded', (event) => {
  highlightEdges();
  highlightAdjacentNodes();
});
]]></script>
</svg>
