<?xml version="1.0" encoding="UTF-8" standalone="no"?>
<!DOCTYPE svg PUBLIC "-//W3C//DTD SVG 1.1//EN"
 "http://www.w3.org/Graphics/SVG/1.1/DTD/svg11.dtd">
<!-- Generated by graphviz version 14.1.4 (20260321.0153)
 -->
<!-- Title: sd_fat_chain_new_cluster Pages: 1 -->
<svg width="761pt" height="132pt"
 viewBox="0.00 0.00 761.00 132.00" xmlns="http://www.w3.org/2000/svg" xmlns:xlink="http://www.w3.org/1999/xlink">
<g id="graph0" class="graph" transform="scale(1 1) rotate(0) translate(4 128)">
<title>sd_fat_chain_new_cluster</title>
<!-- Node1 -->
<g id="Node000001" class="node">
<title>Node1</title>
<g id="a_Node000001"><a xlink:title="Aloca um novo cluster e o encadeia ao final de uma sequência existente.">
<polygon fill="#999999" stroke="#666666" points="129.25,-105 0,-105 0,-85 129.25,-85 129.25,-105"/>
<text xml:space="preserve" text-anchor="middle" x="64.62" y="-91.5" font-family="Helvetica,sans-Serif" font-size="10.00">sd_fat_chain_new_cluster</text>
</a>
</g>
</g>
<!-- Node2 -->
<g id="Node000002" class="node">
<title>Node2</title>
<g id="a_Node000002"><a xlink:href="sdcard_8c.html#afa6b333a50132b6be29e88aa75fd90f1" target="_top" xlink:title="Aloca um cluster livre na FAT32 utilizando busca circular otimizada.">
<polygon fill="white" stroke="#666666" points="268.25,-124 165.25,-124 165.25,-104 268.25,-104 268.25,-124"/>
<text xml:space="preserve" text-anchor="middle" x="216.75" y="-110.5" font-family="Helvetica,sans-Serif" font-size="10.00">sd_fat_alloc_cluster</text>
</a>
</g>
</g>
<!-- Node1&#45;&gt;Node2 -->
<g id="edge1_Node000001_Node000002" class="edge">
<title>Node1&#45;&gt;Node2</title>
<g id="a_edge1_Node000001_Node000002"><a xlink:title=" ">
<path fill="none" stroke="#63b8ff" d="M129.73,-103.11C137.65,-104.12 145.74,-105.14 153.64,-106.14"/>
<polygon fill="#63b8ff" stroke="#63b8ff" points="153.16,-109.61 163.52,-107.39 154.04,-102.66 153.16,-109.61"/>
</a>
</g>
</g>
<!-- Node5 -->
<g id="Node000005" class="node">
<title>Node5</title>
<g id="a_Node000005"><a xlink:href="sdcard_8c.html#a144349126da9cc0bcd1dd34243989e98" target="_top" xlink:title="Atualiza uma entrada na Tabela de Alocação de Arquivos (FAT).">
<polygon fill="white" stroke="#666666" points="400.5,-86 304.25,-86 304.25,-66 400.5,-66 400.5,-86"/>
<text xml:space="preserve" text-anchor="middle" x="352.38" y="-72.5" font-family="Helvetica,sans-Serif" font-size="10.00">sd_fat_write_entry</text>
</a>
</g>
</g>
<!-- Node1&#45;&gt;Node5 -->
<g id="edge11_Node000001_Node000005" class="edge">
<title>Node1&#45;&gt;Node5</title>
<g id="a_edge11_Node000001_Node000005"><a xlink:title=" ">
<path fill="none" stroke="#63b8ff" d="M129.4,-90.76C178.18,-87.52 244.92,-83.08 292.45,-79.92"/>
<polygon fill="#63b8ff" stroke="#63b8ff" points="292.54,-83.42 302.28,-79.26 292.07,-76.44 292.54,-83.42"/>
</a>
</g>
</g>
<!-- Node3 -->
<g id="Node000003" class="node">
<title>Node3</title>
<g id="a_Node000003"><a xlink:href="sdcard_8c.html#aba9c8b9a5590e13424ab4a69280f0c1d" target="_top" xlink:title="Lê um único bloco de 512 bytes do cartão (LBA).">
<polygon fill="white" stroke="#666666" points="506.12,-124 437.62,-124 437.62,-104 506.12,-104 506.12,-124"/>
<text xml:space="preserve" text-anchor="middle" x="471.88" y="-110.5" font-family="Helvetica,sans-Serif" font-size="10.00">sd_blk_read</text>
</a>
</g>
</g>
<!-- Node2&#45;&gt;Node3 -->
<g id="edge2_Node000002_Node000003" class="edge">
<title>Node2&#45;&gt;Node3</title>
<g id="a_edge2_Node000002_Node000003"><a xlink:title=" ">
<path fill="none" stroke="#63b8ff" d="M268.67,-114C314.69,-114 381.79,-114 425.88,-114"/>
<polygon fill="#63b8ff" stroke="#63b8ff" points="425.88,-117.5 435.88,-114 425.88,-110.5 425.88,-117.5"/>
</a>
</g>
</g>
<!-- Node2&#45;&gt;Node5 -->
<g id="edge4_Node000002_Node000005" class="edge">
<title>Node2&#45;&gt;Node5</title>
<g id="a_edge4_Node000002_Node000005"><a xlink:title=" ">
<path fill="none" stroke="#63b8ff" d="M254.62,-103.52C269.81,-99.2 287.6,-94.14 303.76,-89.54"/>
<polygon fill="#63b8ff" stroke="#63b8ff" points="304.51,-92.97 313.17,-86.86 302.6,-86.23 304.51,-92.97"/>
</a>
</g>
</g>
<!-- Node4 -->
<g id="Node000004" class="node">
<title>Node4</title>
<g id="a_Node000004"><a xlink:href="sdcard_8c.html#aae1cfbcba5f92f4639e23fd8ed8fa3c0" target="_top" xlink:title="Envia um comando SPI para o cartão SD e aguarda resposta R1.">
<polygon fill="white" stroke="#666666" points="753,-96 676.25,-96 676.25,-76 753,-76 753,-96"/>
<text xml:space="preserve" text-anchor="middle" x="714.62" y="-82.5" font-family="Helvetica,sans-Serif" font-size="10.00">sd_cmd_send</text>
</a>
</g>
</g>
<!-- Node3&#45;&gt;Node4 -->
<g id="edge3_Node000003_Node000004" class="edge">
<title>Node3&#45;&gt;Node4</title>
<g id="a_edge3_Node000003_Node000004"><a xlink:title=" ">
<path fill="none" stroke="#63b8ff" d="M506.33,-112.24C540.2,-110.21 594.03,-106.33 640.25,-100 648.2,-98.91 656.59,-97.53 664.74,-96.07"/>
<polygon fill="#63b8ff" stroke="#63b8ff" points="665.37,-99.51 674.56,-94.23 664.08,-92.63 665.37,-99.51"/>
</a>
</g>
</g>
<!-- Node5&#45;&gt;Node3 -->
<g id="edge5_Node000005_Node000003" class="edge">
<title>Node5&#45;&gt;Node3</title>
<g id="a_edge5_Node000005_Node000003"><a xlink:title=" ">
<path fill="none" stroke="#63b8ff" d="M385.79,-86.48C398.76,-90.68 413.89,-95.57 427.77,-100.06"/>
<polygon fill="#63b8ff" stroke="#63b8ff" points="426.53,-103.34 437.12,-103.08 428.68,-96.68 426.53,-103.34"/>
</a>
</g>
</g>
<!-- Node6 -->
<g id="Node000006" class="node">
<title>Node6</title>
<g id="a_Node000006"><a xlink:href="sdcard_8c.html#ac6d558621f33abf80f245adb3d0f4e67" target="_top" xlink:title="Escreve um único bloco de 512 bytes.">
<polygon fill="white" stroke="#666666" points="507.25,-67 436.5,-67 436.5,-47 507.25,-47 507.25,-67"/>
<text xml:space="preserve" text-anchor="middle" x="471.88" y="-53.5" font-family="Helvetica,sans-Serif" font-size="10.00">sd_blk_write</text>
</a>
</g>
</g>
<!-- Node5&#45;&gt;Node6 -->
<g id="edge6_Node000005_Node000006" class="edge">
<title>Node5&#45;&gt;Node6</title>
<g id="a_edge6_Node000005_Node000006"><a xlink:title=" ">
<path fill="none" stroke="#63b8ff" d="M400.83,-68.33C408.79,-67.04 417.03,-65.71 424.95,-64.43"/>
<polygon fill="#63b8ff" stroke="#63b8ff" points="425.45,-67.89 434.76,-62.84 424.33,-60.98 425.45,-67.89"/>
</a>
</g>
</g>
<!-- Node6&#45;&gt;Node4 -->
<g id="edge7_Node000006_Node000004" class="edge">
<title>Node6&#45;&gt;Node4</title>
<g id="a_edge7_Node000006_Node000004"><a xlink:title=" ">
<path fill="none" stroke="#63b8ff" d="M507.57,-62.14C518.93,-63.77 531.62,-65.53 543.25,-67 584.23,-72.2 630.86,-77.34 664.97,-80.97"/>
<polygon fill="#63b8ff" stroke="#63b8ff" points="664.21,-84.41 674.52,-81.98 664.95,-77.45 664.21,-84.41"/>
</a>
</g>
</g>
<!-- Node7 -->
<g id="Node000007" class="node">
<title>Node7</title>
<g id="a_Node000007"><a xlink:href="sdcard_8c.html#afcdb9112d386e92b29ad0cac9f5fc277" target="_top" xlink:title="Obtém o status atual do cartão SD (comando CMD13).">
<polygon fill="white" stroke="#666666" points="630.5,-58 553,-58 553,-38 630.5,-38 630.5,-58"/>
<text xml:space="preserve" text-anchor="middle" x="591.75" y="-44.5" font-family="Helvetica,sans-Serif" font-size="10.00">sd_get_status</text>
</a>
</g>
</g>
<!-- Node6&#45;&gt;Node7 -->
<g id="edge8_Node000006_Node000007" class="edge">
<title>Node6&#45;&gt;Node7</title>
<g id="a_edge8_Node000006_Node000007"><a xlink:title=" ">
<path fill="none" stroke="#63b8ff" d="M507.6,-54.35C518.2,-53.54 530.06,-52.63 541.42,-51.77"/>
<polygon fill="#63b8ff" stroke="#63b8ff" points="541.35,-55.28 551.05,-51.03 540.81,-48.3 541.35,-55.28"/>
</a>
</g>
</g>
<!-- Node8 -->
<g id="Node000008" class="node">
<title>Node8</title>
<g id="a_Node000008"><a xlink:href="sdcard_8c.html#a8c2c0ebbeee0d06d43335bc9df4b3142" target="_top" xlink:title="Aguarda o cartão sair do estado de ocupado (busy).">
<polygon fill="white" stroke="#666666" points="640.25,-20 543.25,-20 543.25,0 640.25,0 640.25,-20"/>
<text xml:space="preserve" text-anchor="middle" x="591.75" y="-6.5" font-family="Helvetica,sans-Serif" font-size="10.00">sd_spi_wait_ready</text>
</a>
</g>
</g>
<!-- Node6&#45;&gt;Node8 -->
<g id="edge10_Node000006_Node000008" class="edge">
<title>Node6&#45;&gt;Node8</title>
<g id="a_edge10_Node000006_Node000008"><a xlink:title=" ">
<path fill="none" stroke="#63b8ff" d="M499.04,-46.57C515.21,-40.12 536.22,-31.74 554.05,-24.64"/>
<polygon fill="#63b8ff" stroke="#63b8ff" points="555.26,-27.92 563.26,-20.96 552.67,-21.41 555.26,-27.92"/>
</a>
</g>
</g>
<!-- Node7&#45;&gt;Node4 -->
<g id="edge9_Node000007_Node000004" class="edge">
<title>Node7&#45;&gt;Node4</title>
<g id="a_edge9_Node000007_Node000004"><a xlink:title=" ">
<path fill="none" stroke="#63b8ff" d="M626.1,-58.48C639.58,-62.72 655.32,-67.67 669.7,-72.19"/>
<polygon fill="#63b8ff" stroke="#63b8ff" points="668.35,-75.44 678.94,-75.1 670.45,-68.76 668.35,-75.44"/>
</a>
</g>
</g>
</g>
</svg>
