<?xml version="1.0" encoding="UTF-8" standalone="no"?>
<!DOCTYPE svg PUBLIC "-//W3C//DTD SVG 1.1//EN"
 "http://www.w3.org/Graphics/SVG/1.1/DTD/svg11.dtd">
<!-- Generated by graphviz version 14.1.4 (20260321.0153)
 -->
<!-- Title: sd_expand_directory Pages: 1 -->
<svg width="762pt" height="180pt"
 viewBox="0.00 0.00 762.00 180.00" xmlns="http://www.w3.org/2000/svg" xmlns:xlink="http://www.w3.org/1999/xlink">
<g id="graph0" class="graph" transform="scale(1 1) rotate(0) translate(4 176)">
<title>sd_expand_directory</title>
<!-- Node1 -->
<g id="Node000001" class="node">
<title>Node1</title>
<g id="a_Node000001"><a xlink:title="Expande o diretorio alocando um novo cluster.">
<polygon fill="#999999" stroke="#666666" points="106,-115 0,-115 0,-95 106,-95 106,-115"/>
<text xml:space="preserve" text-anchor="middle" x="53" y="-101.5" font-family="Helvetica,sans-Serif" font-size="10.00">sd_expand_directory</text>
</a>
</g>
</g>
<!-- Node2 -->
<g id="Node000002" class="node">
<title>Node2</title>
<g id="a_Node000002"><a xlink:href="sdcard_8c.html#ac6d558621f33abf80f245adb3d0f4e67" target="_top" xlink:title="Escreve um único bloco de 512 bytes.">
<polygon fill="white" stroke="#666666" points="508,-58 437.25,-58 437.25,-38 508,-38 508,-58"/>
<text xml:space="preserve" text-anchor="middle" x="472.62" y="-44.5" font-family="Helvetica,sans-Serif" font-size="10.00">sd_blk_write</text>
</a>
</g>
</g>
<!-- Node1&#45;&gt;Node2 -->
<g id="edge1_Node000001_Node000002" class="edge">
<title>Node1&#45;&gt;Node2</title>
<g id="a_edge1_Node000001_Node000002"><a xlink:title=" ">
<path fill="none" stroke="#63b8ff" d="M106.08,-95.33C117.88,-93.19 130.37,-90.98 142,-89 203.66,-78.52 218.97,-74.99 281,-67 330.17,-60.66 386.72,-55.26 425.38,-51.86"/>
<polygon fill="#63b8ff" stroke="#63b8ff" points="425.61,-55.35 435.26,-51 425,-48.38 425.61,-55.35"/>
</a>
</g>
</g>
<!-- Node6 -->
<g id="Node000006" class="node">
<title>Node6</title>
<g id="a_Node000006"><a xlink:href="sdcard_8c.html#afa6b333a50132b6be29e88aa75fd90f1" target="_top" xlink:title="Aloca um cluster livre na FAT32 utilizando busca circular otimizada.">
<polygon fill="white" stroke="#666666" points="245,-134 142,-134 142,-114 245,-114 245,-134"/>
<text xml:space="preserve" text-anchor="middle" x="193.5" y="-120.5" font-family="Helvetica,sans-Serif" font-size="10.00">sd_fat_alloc_cluster</text>
</a>
</g>
</g>
<!-- Node1&#45;&gt;Node6 -->
<g id="edge6_Node000001_Node000006" class="edge">
<title>Node1&#45;&gt;Node6</title>
<g id="a_edge6_Node000001_Node000006"><a xlink:title=" ">
<path fill="none" stroke="#63b8ff" d="M106.36,-112.18C114.27,-113.27 122.5,-114.4 130.59,-115.51"/>
<polygon fill="#63b8ff" stroke="#63b8ff" points="130.02,-118.96 140.4,-116.85 130.97,-112.03 130.02,-118.96"/>
</a>
</g>
</g>
<!-- Node8 -->
<g id="Node000008" class="node">
<title>Node8</title>
<g id="a_Node000008"><a xlink:href="sdcard_8c.html#a144349126da9cc0bcd1dd34243989e98" target="_top" xlink:title="Atualiza uma entrada na Tabela de Alocação de Arquivos (FAT).">
<polygon fill="white" stroke="#666666" points="389.25,-96 293,-96 293,-76 389.25,-76 389.25,-96"/>
<text xml:space="preserve" text-anchor="middle" x="341.12" y="-82.5" font-family="Helvetica,sans-Serif" font-size="10.00">sd_fat_write_entry</text>
</a>
</g>
</g>
<!-- Node1&#45;&gt;Node8 -->
<g id="edge14_Node000001_Node000008" class="edge">
<title>Node1&#45;&gt;Node8</title>
<g id="a_edge14_Node000001_Node000008"><a xlink:title=" ">
<path fill="none" stroke="#63b8ff" d="M106.48,-101.52C155.98,-98.23 230.05,-93.31 281.47,-89.9"/>
<polygon fill="#63b8ff" stroke="#63b8ff" points="281.47,-93.4 291.22,-89.25 281.01,-86.42 281.47,-93.4"/>
</a>
</g>
</g>
<!-- Node9 -->
<g id="Node000009" class="node">
<title>Node9</title>
<g id="a_Node000009"><a xlink:href="sdcard_8c.html#a7b0d2ab1fae193461c611a4f2e6c9245" target="_top" xlink:title="Obtém o próximo cluster na tabela FAT.">
<polygon fill="white" stroke="#666666" points="401.25,-172 281,-172 281,-152 401.25,-152 401.25,-172"/>
<text xml:space="preserve" text-anchor="middle" x="341.12" y="-158.5" font-family="Helvetica,sans-Serif" font-size="10.00">sd_fat_get_next_cluster</text>
</a>
</g>
</g>
<!-- Node1&#45;&gt;Node9 -->
<g id="edge12_Node000001_Node000009" class="edge">
<title>Node1&#45;&gt;Node9</title>
<g id="a_edge12_Node000001_Node000009"><a xlink:title=" ">
<path fill="none" stroke="#63b8ff" d="M73.3,-115.43C90.72,-124.33 117.34,-136.66 142,-143 183.58,-153.69 231.46,-158.48 269.74,-160.58"/>
<polygon fill="#63b8ff" stroke="#63b8ff" points="269.11,-164.05 279.27,-161.05 269.45,-157.06 269.11,-164.05"/>
</a>
</g>
</g>
<!-- Node3 -->
<g id="Node000003" class="node">
<title>Node3</title>
<g id="a_Node000003"><a xlink:href="sdcard_8c.html#aae1cfbcba5f92f4639e23fd8ed8fa3c0" target="_top" xlink:title="Envia um comando SPI para o cartão SD e aguarda resposta R1.">
<polygon fill="white" stroke="#666666" points="753.75,-58 677,-58 677,-38 753.75,-38 753.75,-58"/>
<text xml:space="preserve" text-anchor="middle" x="715.38" y="-44.5" font-family="Helvetica,sans-Serif" font-size="10.00">sd_cmd_send</text>
</a>
</g>
</g>
<!-- Node2&#45;&gt;Node3 -->
<g id="edge2_Node000002_Node000003" class="edge">
<title>Node2&#45;&gt;Node3</title>
<g id="a_edge2_Node000002_Node000003"><a xlink:title=" ">
<path fill="none" stroke="#63b8ff" d="M508.38,-48C549.67,-48 618.84,-48 665.51,-48"/>
<polygon fill="#63b8ff" stroke="#63b8ff" points="665.35,-51.5 675.35,-48 665.35,-44.5 665.35,-51.5"/>
</a>
</g>
</g>
<!-- Node4 -->
<g id="Node000004" class="node">
<title>Node4</title>
<g id="a_Node000004"><a xlink:href="sdcard_8c.html#afcdb9112d386e92b29ad0cac9f5fc277" target="_top" xlink:title="Obtém o status atual do cartão SD (comando CMD13).">
<polygon fill="white" stroke="#666666" points="631.25,-20 553.75,-20 553.75,0 631.25,0 631.25,-20"/>
<text xml:space="preserve" text-anchor="middle" x="592.5" y="-6.5" font-family="Helvetica,sans-Serif" font-size="10.00">sd_get_status</text>
</a>
</g>
</g>
<!-- Node2&#45;&gt;Node4 -->
<g id="edge3_Node000002_Node000004" class="edge">
<title>Node2&#45;&gt;Node4</title>
<g id="a_edge3_Node000002_Node000004"><a xlink:title=" ">
<path fill="none" stroke="#63b8ff" d="M506.15,-37.52C519.16,-33.32 534.34,-28.43 548.26,-23.94"/>
<polygon fill="#63b8ff" stroke="#63b8ff" points="549.2,-27.31 557.64,-20.91 547.05,-20.65 549.2,-27.31"/>
</a>
</g>
</g>
<!-- Node5 -->
<g id="Node000005" class="node">
<title>Node5</title>
<g id="a_Node000005"><a xlink:href="sdcard_8c.html#a8c2c0ebbeee0d06d43335bc9df4b3142" target="_top" xlink:title="Aguarda o cartão sair do estado de ocupado (busy).">
<polygon fill="white" stroke="#666666" points="641,-96 544,-96 544,-76 641,-76 641,-96"/>
<text xml:space="preserve" text-anchor="middle" x="592.5" y="-82.5" font-family="Helvetica,sans-Serif" font-size="10.00">sd_spi_wait_ready</text>
</a>
</g>
</g>
<!-- Node2&#45;&gt;Node5 -->
<g id="edge5_Node000002_Node000005" class="edge">
<title>Node2&#45;&gt;Node5</title>
<g id="a_edge5_Node000002_Node000005"><a xlink:title=" ">
<path fill="none" stroke="#63b8ff" d="M506.15,-58.48C519.16,-62.68 534.34,-67.57 548.26,-72.06"/>
<polygon fill="#63b8ff" stroke="#63b8ff" points="547.05,-75.35 557.64,-75.09 549.2,-68.69 547.05,-75.35"/>
</a>
</g>
</g>
<!-- Node4&#45;&gt;Node3 -->
<g id="edge4_Node000004_Node000003" class="edge">
<title>Node4&#45;&gt;Node3</title>
<g id="a_edge4_Node000004_Node000003"><a xlink:title=" ">
<path fill="none" stroke="#63b8ff" d="M626.85,-20.48C640.33,-24.72 656.07,-29.67 670.45,-34.19"/>
<polygon fill="#63b8ff" stroke="#63b8ff" points="669.1,-37.44 679.69,-37.1 671.2,-30.76 669.1,-37.44"/>
</a>
</g>
</g>
<!-- Node7 -->
<g id="Node000007" class="node">
<title>Node7</title>
<g id="a_Node000007"><a xlink:href="sdcard_8c.html#aba9c8b9a5590e13424ab4a69280f0c1d" target="_top" xlink:title="Lê um único bloco de 512 bytes do cartão (LBA).">
<polygon fill="white" stroke="#666666" points="506.88,-134 438.38,-134 438.38,-114 506.88,-114 506.88,-134"/>
<text xml:space="preserve" text-anchor="middle" x="472.62" y="-120.5" font-family="Helvetica,sans-Serif" font-size="10.00">sd_blk_read</text>
</a>
</g>
</g>
<!-- Node6&#45;&gt;Node7 -->
<g id="edge7_Node000006_Node000007" class="edge">
<title>Node6&#45;&gt;Node7</title>
<g id="a_edge7_Node000006_Node000007"><a xlink:title=" ">
<path fill="none" stroke="#63b8ff" d="M245.33,-124C297.26,-124 377.13,-124 426.78,-124"/>
<polygon fill="#63b8ff" stroke="#63b8ff" points="426.59,-127.5 436.59,-124 426.59,-120.5 426.59,-127.5"/>
</a>
</g>
</g>
<!-- Node6&#45;&gt;Node8 -->
<g id="edge9_Node000006_Node000008" class="edge">
<title>Node6&#45;&gt;Node8</title>
<g id="a_edge9_Node000006_Node000008"><a xlink:title=" ">
<path fill="none" stroke="#63b8ff" d="M234.68,-113.52C251.47,-109.13 271.18,-103.99 288.99,-99.34"/>
<polygon fill="#63b8ff" stroke="#63b8ff" points="289.82,-102.74 298.61,-96.83 288.05,-95.97 289.82,-102.74"/>
</a>
</g>
</g>
<!-- Node7&#45;&gt;Node3 -->
<g id="edge8_Node000007_Node000003" class="edge">
<title>Node7&#45;&gt;Node3</title>
<g id="a_edge8_Node000007_Node000003"><a xlink:title=" ">
<path fill="none" stroke="#63b8ff" d="M507.33,-125.43C542.09,-125.71 597.26,-122.81 641,-105 662.57,-96.22 683.15,-79.21 696.99,-66.05"/>
<polygon fill="#63b8ff" stroke="#63b8ff" points="699.33,-68.66 703.98,-59.15 694.41,-63.68 699.33,-68.66"/>
</a>
</g>
</g>
<!-- Node8&#45;&gt;Node2 -->
<g id="edge11_Node000008_Node000002" class="edge">
<title>Node8&#45;&gt;Node2</title>
<g id="a_edge11_Node000008_Node000002"><a xlink:title=" ">
<path fill="none" stroke="#63b8ff" d="M377.85,-75.52C392.82,-71.12 410.39,-65.97 426.25,-61.31"/>
<polygon fill="#63b8ff" stroke="#63b8ff" points="426.84,-64.79 435.45,-58.61 424.87,-58.07 426.84,-64.79"/>
</a>
</g>
</g>
<!-- Node8&#45;&gt;Node7 -->
<g id="edge10_Node000008_Node000007" class="edge">
<title>Node8&#45;&gt;Node7</title>
<g id="a_edge10_Node000008_Node000007"><a xlink:title=" ">
<path fill="none" stroke="#63b8ff" d="M377.85,-96.48C393.18,-100.98 411.25,-106.28 427.41,-111.03"/>
<polygon fill="#63b8ff" stroke="#63b8ff" points="426.2,-114.32 436.78,-113.78 428.17,-107.6 426.2,-114.32"/>
</a>
</g>
</g>
<!-- Node9&#45;&gt;Node7 -->
<g id="edge13_Node000009_Node000007" class="edge">
<title>Node9&#45;&gt;Node7</title>
<g id="a_edge13_Node000009_Node000007"><a xlink:title=" ">
<path fill="none" stroke="#63b8ff" d="M377.85,-151.52C393.18,-147.02 411.25,-141.72 427.41,-136.97"/>
<polygon fill="#63b8ff" stroke="#63b8ff" points="428.17,-140.4 436.78,-134.22 426.2,-133.68 428.17,-140.4"/>
</a>
</g>
</g>
</g>
</svg>
