<?xml version="1.0" encoding="UTF-8" standalone="no"?>
<!DOCTYPE svg PUBLIC "-//W3C//DTD SVG 1.1//EN"
 "http://www.w3.org/Graphics/SVG/1.1/DTD/svg11.dtd">
<!-- Generated by graphviz version 14.1.4 (20260321.0153)
 -->
<!-- Title: sd_quick_init Pages: 1 -->
<svg width="435pt" height="164pt"
 viewBox="0.00 0.00 435.00 164.00" xmlns="http://www.w3.org/2000/svg" xmlns:xlink="http://www.w3.org/1999/xlink">
<g id="graph0" class="graph" transform="scale(1 1) rotate(0) translate(4 160)">
<title>sd_quick_init</title>
<!-- Node1 -->
<g id="Node000001" class="node">
<title>Node1</title>
<g id="a_Node000001"><a xlink:title="Inicialização rápida para AVR (configura pinos + HAL interno).">
<polygon fill="#999999" stroke="#666666" points="73,-99 0,-99 0,-79 73,-79 73,-99"/>
<text xml:space="preserve" text-anchor="middle" x="36.5" y="-85.5" font-family="Helvetica,sans-Serif" font-size="10.00">sd_quick_init</text>
</a>
</g>
</g>
<!-- Node2 -->
<g id="Node000002" class="node">
<title>Node2</title>
<g id="a_Node000002"><a xlink:href="sdcard_8c.html#a6cf66af945c22b51e07f145a63869c5a" target="_top" xlink:title="Desativa o Chip Select (CS) &#45; Pino PB2.">
<polygon fill="white" stroke="#666666" points="188.38,-156 117.62,-156 117.62,-136 188.38,-136 188.38,-156"/>
<text xml:space="preserve" text-anchor="middle" x="153" y="-142.5" font-family="Helvetica,sans-Serif" font-size="10.00">_sd_cs_high</text>
</a>
</g>
</g>
<!-- Node1&#45;&gt;Node2 -->
<g id="edge1_Node000001_Node000002" class="edge">
<title>Node1&#45;&gt;Node2</title>
<g id="a_edge1_Node000001_Node000002"><a xlink:title=" ">
<path fill="none" stroke="#63b8ff" d="M56.13,-99.38C70.45,-107.24 90.79,-118.15 109,-127 111.73,-128.33 114.57,-129.67 117.43,-130.99"/>
<polygon fill="#63b8ff" stroke="#63b8ff" points="115.82,-134.1 126.37,-135.03 118.7,-127.72 115.82,-134.1"/>
</a>
</g>
</g>
<!-- Node3 -->
<g id="Node000003" class="node">
<title>Node3</title>
<g id="a_Node000003"><a xlink:href="sdcard_8c.html#aeabfda2a0d078f02c8fdedc7c840cc69" target="_top" xlink:title="Ativa o Chip Select (CS) &#45; Pino PB2.">
<polygon fill="white" stroke="#666666" points="186.88,-118 119.12,-118 119.12,-98 186.88,-98 186.88,-118"/>
<text xml:space="preserve" text-anchor="middle" x="153" y="-104.5" font-family="Helvetica,sans-Serif" font-size="10.00">_sd_cs_low</text>
</a>
</g>
</g>
<!-- Node1&#45;&gt;Node3 -->
<g id="edge2_Node000001_Node000003" class="edge">
<title>Node1&#45;&gt;Node3</title>
<g id="a_edge2_Node000001_Node000003"><a xlink:title=" ">
<path fill="none" stroke="#63b8ff" d="M73.41,-94.96C84.33,-96.77 96.46,-98.78 107.86,-100.68"/>
<polygon fill="#63b8ff" stroke="#63b8ff" points="107.01,-104.08 117.45,-102.27 108.15,-97.18 107.01,-104.08"/>
</a>
</g>
</g>
<!-- Node4 -->
<g id="Node000004" class="node">
<title>Node4</title>
<g id="a_Node000004"><a xlink:href="sdcard_8c.html#a8092c4cbf898989b2bf07325565e0cbd" target="_top" xlink:title="Transmissão/recepção de um byte via SPI (função interna).">
<polygon fill="white" stroke="#666666" points="197,-80 109,-80 109,-60 197,-60 197,-80"/>
<text xml:space="preserve" text-anchor="middle" x="153" y="-66.5" font-family="Helvetica,sans-Serif" font-size="10.00">_sd_spi_transfer</text>
</a>
</g>
</g>
<!-- Node1&#45;&gt;Node4 -->
<g id="edge3_Node000001_Node000004" class="edge">
<title>Node1&#45;&gt;Node4</title>
<g id="a_edge3_Node000001_Node000004"><a xlink:title=" ">
<path fill="none" stroke="#63b8ff" d="M73.41,-83.04C80.99,-81.78 89.15,-80.43 97.25,-79.09"/>
<polygon fill="#63b8ff" stroke="#63b8ff" points="97.79,-82.54 107.08,-77.45 96.64,-75.64 97.79,-82.54"/>
</a>
</g>
</g>
<!-- Node5 -->
<g id="Node000005" class="node">
<title>Node5</title>
<g id="a_Node000005"><a xlink:href="sdcard_8c.html#abb7664cb3bec0e4c545128d134f0e054" target="_top" xlink:title="Tenta inicializar o cartão at 3 vezes com delay entre tentativas.">
<polygon fill="white" stroke="#666666" points="187.62,-42 118.38,-42 118.38,-22 187.62,-22 187.62,-42"/>
<text xml:space="preserve" text-anchor="middle" x="153" y="-28.5" font-family="Helvetica,sans-Serif" font-size="10.00">sd_init_retry</text>
</a>
</g>
</g>
<!-- Node1&#45;&gt;Node5 -->
<g id="edge4_Node000001_Node000005" class="edge">
<title>Node1&#45;&gt;Node5</title>
<g id="a_edge4_Node000001_Node000005"><a xlink:title=" ">
<path fill="none" stroke="#63b8ff" d="M56.13,-78.62C70.45,-70.76 90.79,-59.85 109,-51 111.73,-49.67 114.57,-48.33 117.43,-47.01"/>
<polygon fill="#63b8ff" stroke="#63b8ff" points="118.7,-50.28 126.37,-42.97 115.82,-43.9 118.7,-50.28"/>
</a>
</g>
</g>
<!-- Node6 -->
<g id="Node000006" class="node">
<title>Node6</title>
<g id="a_Node000006"><a xlink:href="sdcard_8c.html#a6a8f9df03a1b222e8ea45199b7431e19" target="_top" xlink:title="Inicializa o cartão SD no modo SPI.">
<polygon fill="white" stroke="#666666" points="277.5,-42 233,-42 233,-22 277.5,-22 277.5,-42"/>
<text xml:space="preserve" text-anchor="middle" x="255.25" y="-28.5" font-family="Helvetica,sans-Serif" font-size="10.00">sd_init</text>
</a>
</g>
</g>
<!-- Node5&#45;&gt;Node6 -->
<g id="edge5_Node000005_Node000006" class="edge">
<title>Node5&#45;&gt;Node6</title>
<g id="a_edge5_Node000005_Node000006"><a xlink:title=" ">
<path fill="none" stroke="#63b8ff" d="M187.94,-32C198.67,-32 210.51,-32 221.18,-32"/>
<polygon fill="#63b8ff" stroke="#63b8ff" points="221.09,-35.5 231.09,-32 221.09,-28.5 221.09,-35.5"/>
</a>
</g>
</g>
<!-- Node7 -->
<g id="Node000007" class="node">
<title>Node7</title>
<g id="a_Node000007"><a xlink:href="sdcard_8c.html#abf6c02ac2130c37a0bff2e6b9a6c25cb" target="_top" xlink:title="Configura a velocidade do SPI no AVR (função interna).">
<polygon fill="white" stroke="#666666" points="427,-70 313.5,-70 313.5,-38 427,-38 427,-70"/>
<text xml:space="preserve" text-anchor="start" x="321.5" y="-56.5" font-family="Helvetica,sans-Serif" font-size="10.00">sd_avr_spi_set_speed</text>
<text xml:space="preserve" text-anchor="middle" x="370.25" y="-44.5" font-family="Helvetica,sans-Serif" font-size="10.00">_default</text>
</a>
</g>
</g>
<!-- Node6&#45;&gt;Node7 -->
<g id="edge6_Node000006_Node000007" class="edge">
<title>Node6&#45;&gt;Node7</title>
<g id="a_edge6_Node000006_Node000007"><a xlink:title=" ">
<path fill="none" stroke="#63b8ff" d="M277.77,-36.19C284.88,-37.57 293.22,-39.2 301.91,-40.89"/>
<polygon fill="#63b8ff" stroke="#63b8ff" points="301.07,-44.29 311.55,-42.77 302.41,-37.42 301.07,-44.29"/>
</a>
</g>
</g>
<!-- Node8 -->
<g id="Node000008" class="node">
<title>Node8</title>
<g id="a_Node000008"><a xlink:href="sdcard_8c.html#aae1cfbcba5f92f4639e23fd8ed8fa3c0" target="_top" xlink:title="Envia um comando SPI para o cartão SD e aguarda resposta R1.">
<polygon fill="white" stroke="#666666" points="408.62,-20 331.88,-20 331.88,0 408.62,0 408.62,-20"/>
<text xml:space="preserve" text-anchor="middle" x="370.25" y="-6.5" font-family="Helvetica,sans-Serif" font-size="10.00">sd_cmd_send</text>
</a>
</g>
</g>
<!-- Node6&#45;&gt;Node8 -->
<g id="edge7_Node000006_Node000008" class="edge">
<title>Node6&#45;&gt;Node8</title>
<g id="a_edge7_Node000006_Node000008"><a xlink:title=" ">
<path fill="none" stroke="#63b8ff" d="M277.77,-27.81C289.92,-25.45 305.61,-22.39 320.57,-19.48"/>
<polygon fill="#63b8ff" stroke="#63b8ff" points="321.16,-22.93 330.3,-17.58 319.82,-16.06 321.16,-22.93"/>
</a>
</g>
</g>
</g>
</svg>
