<?xml version="1.0" encoding="UTF-8" standalone="no"?>
<!DOCTYPE svg PUBLIC "-//W3C//DTD SVG 1.1//EN"
 "http://www.w3.org/Graphics/SVG/1.1/DTD/svg11.dtd">
<!-- Generated by graphviz version 14.1.4 (20260321.0153)
 -->
<!-- Title: sd_set_filename Pages: 1 -->
<svg width="482pt" height="268pt"
 viewBox="0.00 0.00 482.00 268.00" xmlns="http://www.w3.org/2000/svg" xmlns:xlink="http://www.w3.org/1999/xlink">

<svg id="main" version="1.1" xmlns="http://www.w3.org/2000/svg" xmlns:xlink="http://www.w3.org/1999/xlink" xml:space="preserve">

<style type="text/css"><![CDATA[
.node, .edge {opacity: 0.7;}
.node.selected, .edge.selected {opacity: 1;}
.edge:hover path { stroke: red; }
.edge:hover polygon { stroke: red; fill: red; }
]]></style>
<script type="application/ecmascript" xlink:href="svg.min.js"/>
<svg id="graph" class="graph">
<g id="graph0" class="graph" transform="scale(1 1) rotate(0) translate(4 264)">
<title>sd_set_filename</title>
<!-- Node1 -->
<g id="Node000001" class="node">
<title>Node1</title>
<g id="a_Node000001"><a xlink:title="Converte uma string convencional para o formato FAT 8.3.">
<polygon fill="#999999" stroke="#666666" points="473.5,-146 386.25,-146 386.25,-126 473.5,-126 473.5,-146"/>
<text xml:space="preserve" text-anchor="middle" x="429.88" y="-132.5" font-family="Helvetica,sans-Serif" font-size="10.00">sd_set_filename</text>
</a>
</g>
</g>
<!-- Node2 -->
<g id="Node000002" class="node">
<title>Node2</title>
<g id="a_Node000002"><a xlink:href="exemplo__2_8c.html#aba31b1e3919797222f981b3bc0fa1eda" target="_top" xlink:title="Inicia a busca por um valor em uma coluna específica do arquivo CSV.">
<polygon fill="white" stroke="#666666" points="335.25,-260 233,-260 233,-240 335.25,-240 335.25,-260"/>
<text xml:space="preserve" text-anchor="middle" x="284.12" y="-246.5" font-family="Helvetica,sans-Serif" font-size="10.00">busca_valor_coluna</text>
</a>
</g>
</g>
<!-- Node1&#45;&gt;Node2 -->
<g id="edge1_Node000001_Node000002" class="edge">
<title>Node1&#45;&gt;Node2</title>
<g id="a_edge1_Node000001_Node000002"><a xlink:title=" ">
<path fill="none" stroke="#63b8ff" d="M416,-155.86C402.01,-176.04 377.9,-206.96 350.25,-226 342.11,-231.6 332.5,-236.08 323.21,-239.57"/>
<polygon fill="#63b8ff" stroke="#63b8ff" points="418.84,-157.91 421.52,-147.66 413.03,-154 418.84,-157.91"/>
</a>
</g>
</g>
<!-- Node3 -->
<g id="Node000003" class="node">
<title>Node3</title>
<g id="a_Node000003"><a xlink:href="exemplo__2_8c.html#a71c134181186f04ca234d95f2b605e9a" target="_top" xlink:title="Executa o teste completo: Inicialização, Gravação e Busca.">
<polygon fill="white" stroke="#666666" points="182,-244 73,-244 73,-224 182,-224 182,-244"/>
<text xml:space="preserve" text-anchor="middle" x="127.5" y="-230.5" font-family="Helvetica,sans-Serif" font-size="10.00">teste_datalogger_csv</text>
</a>
</g>
</g>
<!-- Node1&#45;&gt;Node3 -->
<g id="edge15_Node000001_Node000003" class="edge">
<title>Node1&#45;&gt;Node3</title>
<g id="a_edge15_Node000001_Node000003"><a xlink:title=" ">
<path fill="none" stroke="#63b8ff" d="M409.74,-153.67C394.68,-166.57 372.58,-183.43 350.25,-193 295.92,-216.3 228.53,-226.37 182.39,-230.72"/>
<polygon fill="#63b8ff" stroke="#63b8ff" points="411.83,-156.49 417.01,-147.24 407.2,-151.24 411.83,-156.49"/>
</a>
</g>
</g>
<!-- Node5 -->
<g id="Node000005" class="node">
<title>Node5</title>
<g id="a_Node000005"><a xlink:href="exemplo__4_8c.html#aea5f9f33267c7ef0c394d9a9e8d45c17" target="_top" xlink:title="Localiza e processa o arquivo CONFIG.ini no cartão SD.">
<polygon fill="white" stroke="#666666" points="348.75,-184 219.5,-184 219.5,-164 348.75,-164 348.75,-184"/>
<text xml:space="preserve" text-anchor="middle" x="284.12" y="-170.5" font-family="Helvetica,sans-Serif" font-size="10.00">carregar_parametros_boot</text>
</a>
</g>
</g>
<!-- Node1&#45;&gt;Node5 -->
<g id="edge4_Node000001_Node000005" class="edge">
<title>Node1&#45;&gt;Node5</title>
<g id="a_edge4_Node000001_Node000005"><a xlink:title=" ">
<path fill="none" stroke="#63b8ff" d="M378.26,-149.38C360.67,-154.03 341.22,-159.17 324.66,-163.55"/>
<polygon fill="#63b8ff" stroke="#63b8ff" points="378.98,-152.81 387.75,-146.87 377.19,-146.04 378.98,-152.81"/>
</a>
</g>
</g>
<!-- Node7 -->
<g id="Node000007" class="node">
<title>Node7</title>
<g id="a_Node000007"><a xlink:href="exemplo__3_8c.html#a1888a7d50f8090bc2f0c577e2ce4074f" target="_top" xlink:title="Localiza ou cria o volume de log adequado no cartão.">
<polygon fill="white" stroke="#666666" points="350.25,-146 218,-146 218,-126 350.25,-126 350.25,-146"/>
<text xml:space="preserve" text-anchor="middle" x="284.12" y="-132.5" font-family="Helvetica,sans-Serif" font-size="10.00">gerenciar_proximo_volume</text>
</a>
</g>
</g>
<!-- Node1&#45;&gt;Node7 -->
<g id="edge6_Node000001_Node000007" class="edge">
<title>Node1&#45;&gt;Node7</title>
<g id="a_edge6_Node000001_Node000007"><a xlink:title=" ">
<path fill="none" stroke="#63b8ff" d="M374.82,-136C366.91,-136 358.7,-136 350.6,-136"/>
<polygon fill="#63b8ff" stroke="#63b8ff" points="374.62,-139.5 384.62,-136 374.62,-132.5 374.62,-139.5"/>
</a>
</g>
</g>
<!-- Node9 -->
<g id="Node000009" class="node">
<title>Node9</title>
<g id="a_Node000009"><a xlink:href="exemplo__3_8c.html#a9765d93a7e9eac42493b89eb0dc1ab12" target="_top" xlink:title="Formata e grava um registro CSV com data, hora e 4 sensores.">
<polygon fill="white" stroke="#666666" points="178.25,-114 76.75,-114 76.75,-82 178.25,-82 178.25,-114"/>
<text xml:space="preserve" text-anchor="start" x="84.75" y="-100.5" font-family="Helvetica,sans-Serif" font-size="10.00">registrar_dado_com</text>
<text xml:space="preserve" text-anchor="middle" x="127.5" y="-88.5" font-family="Helvetica,sans-Serif" font-size="10.00">_rotacao</text>
</a>
</g>
</g>
<!-- Node1&#45;&gt;Node9 -->
<g id="edge12_Node000001_Node000009" class="edge">
<title>Node1&#45;&gt;Node9</title>
<g id="a_edge12_Node000001_Node000009"><a xlink:title=" ">
<path fill="none" stroke="#63b8ff" d="M379.62,-122.89C369.93,-120.65 359.81,-118.56 350.25,-117 291.71,-107.48 223.64,-102.54 178.53,-100.12"/>
<polygon fill="#63b8ff" stroke="#63b8ff" points="378.71,-126.27 389.25,-125.2 380.34,-119.46 378.71,-126.27"/>
</a>
</g>
</g>
<!-- Node10 -->
<g id="Node000010" class="node">
<title>Node10</title>
<g id="a_Node000010"><a xlink:href="exemplo__5_8c.html#a1ebabf5df3f5856d744054ab8d011d87" target="_top" xlink:title="Interpreta e executa o comando digitado.">
<polygon fill="white" stroke="#666666" points="336,-70 232.25,-70 232.25,-50 336,-50 336,-70"/>
<text xml:space="preserve" text-anchor="middle" x="284.12" y="-56.5" font-family="Helvetica,sans-Serif" font-size="10.00">processar_comando</text>
</a>
</g>
</g>
<!-- Node1&#45;&gt;Node10 -->
<g id="edge10_Node000001_Node000010" class="edge">
<title>Node1&#45;&gt;Node10</title>
<g id="a_edge10_Node000001_Node000010"><a xlink:title=" ">
<path fill="none" stroke="#63b8ff" d="M406.11,-118.9C390.86,-107.97 370.01,-94.01 350.25,-84 340.04,-78.83 328.44,-74.19 317.88,-70.4"/>
<polygon fill="#63b8ff" stroke="#63b8ff" points="403.9,-121.62 414.04,-124.69 408.03,-115.97 403.9,-121.62"/>
</a>
</g>
</g>
<!-- Node12 -->
<g id="Node000012" class="node">
<title>Node12</title>
<g id="a_Node000012"><a xlink:href="exemplo__1_8c.html#a45578ec38e9d0ae49d3313fa3900f338" target="_top" xlink:title="Demonstração completa e básica da biblioteca.">
<polygon fill="white" stroke="#666666" points="341.25,-32 227,-32 227,0 341.25,0 341.25,-32"/>
<text xml:space="preserve" text-anchor="start" x="235" y="-18.5" font-family="Helvetica,sans-Serif" font-size="10.00">teste_basico_escrever</text>
<text xml:space="preserve" text-anchor="middle" x="284.12" y="-6.5" font-family="Helvetica,sans-Serif" font-size="10.00">_string</text>
</a>
</g>
</g>
<!-- Node1&#45;&gt;Node12 -->
<g id="edge13_Node000001_Node000012" class="edge">
<title>Node1&#45;&gt;Node12</title>
<g id="a_edge13_Node000001_Node000012"><a xlink:title=" ">
<path fill="none" stroke="#63b8ff" d="M416.82,-116.04C403.09,-94.81 378.81,-61.52 350.25,-41 345.82,-37.82 340.94,-34.99 335.9,-32.47"/>
<polygon fill="#63b8ff" stroke="#63b8ff" points="413.77,-117.76 422.04,-124.37 419.7,-114.04 413.77,-117.76"/>
</a>
</g>
</g>
<!-- Node2&#45;&gt;Node3 -->
<g id="edge2_Node000002_Node000003" class="edge">
<title>Node2&#45;&gt;Node3</title>
<g id="a_edge2_Node000002_Node000003"><a xlink:title=" ">
<path fill="none" stroke="#63b8ff" d="M221.72,-243.65C208.73,-242.3 195.13,-240.89 182.45,-239.58"/>
<polygon fill="#63b8ff" stroke="#63b8ff" points="221.11,-247.1 231.42,-244.65 221.83,-240.14 221.11,-247.1"/>
</a>
</g>
</g>
<!-- Node4 -->
<g id="Node000004" class="node">
<title>Node4</title>
<g id="a_Node000004"><a xlink:href="exemplo__2_8c.html#a840291bc02cba5474a4cb46a9b9566fe" target="_top" xlink:title="Função principal.">
<polygon fill="white" stroke="#666666" points="37,-244 0,-244 0,-224 37,-224 37,-244"/>
<text xml:space="preserve" text-anchor="middle" x="18.5" y="-230.5" font-family="Helvetica,sans-Serif" font-size="10.00">main</text>
</a>
</g>
</g>
<!-- Node3&#45;&gt;Node4 -->
<g id="edge3_Node000003_Node000004" class="edge">
<title>Node3&#45;&gt;Node4</title>
<g id="a_edge3_Node000003_Node000004"><a xlink:title=" ">
<path fill="none" stroke="#63b8ff" d="M61.28,-234C52.4,-234 43.97,-234 37.05,-234"/>
<polygon fill="#63b8ff" stroke="#63b8ff" points="61.17,-237.5 71.17,-234 61.17,-230.5 61.17,-237.5"/>
</a>
</g>
</g>
<!-- Node6 -->
<g id="Node000006" class="node">
<title>Node6</title>
<g id="a_Node000006"><a xlink:href="exemplo__4_8c.html#a840291bc02cba5474a4cb46a9b9566fe" target="_top" xlink:title="Função main demonstrando o fluxo completo de carregamento e uso.">
<polygon fill="white" stroke="#666666" points="146,-190 109,-190 109,-170 146,-170 146,-190"/>
<text xml:space="preserve" text-anchor="middle" x="127.5" y="-176.5" font-family="Helvetica,sans-Serif" font-size="10.00">main</text>
</a>
</g>
</g>
<!-- Node5&#45;&gt;Node6 -->
<g id="edge5_Node000005_Node000006" class="edge">
<title>Node5&#45;&gt;Node6</title>
<g id="a_edge5_Node000005_Node000006"><a xlink:title=" ">
<path fill="none" stroke="#63b8ff" d="M208.09,-176.91C185.04,-177.81 161.73,-178.71 146.35,-179.31"/>
<polygon fill="#63b8ff" stroke="#63b8ff" points="207.97,-180.42 217.83,-176.53 207.7,-173.42 207.97,-180.42"/>
</a>
</g>
</g>
<!-- Node8 -->
<g id="Node000008" class="node">
<title>Node8</title>
<g id="a_Node000008"><a xlink:href="exemplo__3_8c.html#a840291bc02cba5474a4cb46a9b9566fe" target="_top" xlink:title="Ponto de entrada do programa.">
<polygon fill="white" stroke="#666666" points="37,-130 0,-130 0,-110 37,-110 37,-130"/>
<text xml:space="preserve" text-anchor="middle" x="18.5" y="-116.5" font-family="Helvetica,sans-Serif" font-size="10.00">main</text>
</a>
</g>
</g>
<!-- Node7&#45;&gt;Node8 -->
<g id="edge7_Node000007_Node000008" class="edge">
<title>Node7&#45;&gt;Node8</title>
<g id="a_edge7_Node000007_Node000008"><a xlink:title=" ">
<path fill="none" stroke="#63b8ff" d="M206.17,-131.33C147.67,-127.78 71.62,-123.16 37.48,-121.09"/>
<polygon fill="#63b8ff" stroke="#63b8ff" points="205.92,-134.82 216.11,-131.93 206.34,-127.83 205.92,-134.82"/>
</a>
</g>
</g>
<!-- Node7&#45;&gt;Node9 -->
<g id="edge8_Node000007_Node000009" class="edge">
<title>Node7&#45;&gt;Node9</title>
<g id="a_edge8_Node000007_Node000009"><a xlink:title=" ">
<path fill="none" stroke="#63b8ff" d="M229.37,-122.79C212.92,-118.75 194.9,-114.32 178.69,-110.34"/>
<polygon fill="#63b8ff" stroke="#63b8ff" points="228.45,-126.17 238.99,-125.15 230.12,-119.37 228.45,-126.17"/>
</a>
</g>
</g>
<!-- Node9&#45;&gt;Node8 -->
<g id="edge9_Node000009_Node000008" class="edge">
<title>Node9&#45;&gt;Node8</title>
<g id="a_edge9_Node000009_Node000008"><a xlink:title=" ">
<path fill="none" stroke="#63b8ff" d="M65.18,-110.61C54.88,-112.73 44.97,-114.76 37.03,-116.4"/>
<polygon fill="#63b8ff" stroke="#63b8ff" points="65.87,-114.04 74.96,-108.6 64.46,-107.18 65.87,-114.04"/>
</a>
</g>
</g>
<!-- Node11 -->
<g id="Node000011" class="node">
<title>Node11</title>
<g id="a_Node000011"><a xlink:href="exemplo__5_8c.html#a840291bc02cba5474a4cb46a9b9566fe" target="_top" xlink:title=" ">
<polygon fill="white" stroke="#666666" points="146,-64 109,-64 109,-44 146,-44 146,-64"/>
<text xml:space="preserve" text-anchor="middle" x="127.5" y="-50.5" font-family="Helvetica,sans-Serif" font-size="10.00">main</text>
</a>
</g>
</g>
<!-- Node10&#45;&gt;Node11 -->
<g id="edge11_Node000010_Node000011" class="edge">
<title>Node10&#45;&gt;Node11</title>
<g id="a_edge11_Node000010_Node000011"><a xlink:title=" ">
<path fill="none" stroke="#63b8ff" d="M220.75,-57.58C193.9,-56.54 164.54,-55.4 146.32,-54.69"/>
<polygon fill="#63b8ff" stroke="#63b8ff" points="220.43,-61.07 230.55,-57.96 220.7,-54.07 220.43,-61.07"/>
</a>
</g>
</g>
<!-- Node13 -->
<g id="Node000013" class="node">
<title>Node13</title>
<g id="a_Node000013"><a xlink:href="exemplo__1_8c.html#a840291bc02cba5474a4cb46a9b9566fe" target="_top" xlink:title=" ">
<polygon fill="white" stroke="#666666" points="146,-26 109,-26 109,-6 146,-6 146,-26"/>
<text xml:space="preserve" text-anchor="middle" x="127.5" y="-12.5" font-family="Helvetica,sans-Serif" font-size="10.00">main</text>
</a>
</g>
</g>
<!-- Node12&#45;&gt;Node13 -->
<g id="edge14_Node000012_Node000013" class="edge">
<title>Node12&#45;&gt;Node13</title>
<g id="a_edge14_Node000012_Node000013"><a xlink:title=" ">
<path fill="none" stroke="#63b8ff" d="M215.68,-16C190.17,-16 163.22,-16 146.15,-16"/>
<polygon fill="#63b8ff" stroke="#63b8ff" points="215.35,-19.5 225.35,-16 215.35,-12.5 215.35,-19.5"/>
</a>
</g>
</g>
</g>
</svg>
</svg>

<style type='text/css'>
<![CDATA[
[data-mouse-over-selected='false'] { opacity: 0.7; }
[data-mouse-over-selected='true']  { opacity: 1.0; }
]]>
</style>
<script type="application/ecmascript"><![CDATA[
document.addEventListener('DOMContentLoaded', (event) => {
  highlightEdges();
  highlightAdjacentNodes();
});
]]></script>
</svg>
