<?xml version="1.0" encoding="UTF-8" standalone="no"?>
<!DOCTYPE svg PUBLIC "-//W3C//DTD SVG 1.1//EN"
 "http://www.w3.org/Graphics/SVG/1.1/DTD/svg11.dtd">
<!-- Generated by graphviz version 14.1.4 (20260321.0153)
 -->
<!-- Title: sd_get_status Pages: 1 -->
<svg width="1171pt" height="449pt"
 viewBox="0.00 0.00 1171.00 449.00" xmlns="http://www.w3.org/2000/svg" xmlns:xlink="http://www.w3.org/1999/xlink">
<g id="graph0" class="graph" transform="scale(1 1) rotate(0) translate(4 444.75)">
<title>sd_get_status</title>
<!-- Node1 -->
<g id="Node000001" class="node">
<title>Node1</title>
<g id="a_Node000001"><a xlink:title="Obtém o status atual do cartão SD (comando CMD13).">
<polygon fill="#999999" stroke="#666666" points="1162.5,-191 1085,-191 1085,-171 1162.5,-171 1162.5,-191"/>
<text xml:space="preserve" text-anchor="middle" x="1123.75" y="-177.5" font-family="Helvetica,sans-Serif" font-size="10.00">sd_get_status</text>
</a>
</g>
</g>
<!-- Node2 -->
<g id="Node000002" class="node">
<title>Node2</title>
<g id="a_Node000002"><a xlink:href="sdcard_8c.html#ac6d558621f33abf80f245adb3d0f4e67" target="_top" xlink:title="Escreve um único bloco de 512 bytes.">
<polygon fill="white" stroke="#666666" points="1049,-191 978.25,-191 978.25,-171 1049,-171 1049,-191"/>
<text xml:space="preserve" text-anchor="middle" x="1013.62" y="-177.5" font-family="Helvetica,sans-Serif" font-size="10.00">sd_blk_write</text>
</a>
</g>
</g>
<!-- Node1&#45;&gt;Node2 -->
<g id="edge1_Node000001_Node000002" class="edge">
<title>Node1&#45;&gt;Node2</title>
<g id="a_edge1_Node000001_Node000002"><a xlink:title=" ">
<path fill="none" stroke="#63b8ff" d="M1073.28,-181C1065.13,-181 1056.84,-181 1049.16,-181"/>
<polygon fill="#63b8ff" stroke="#63b8ff" points="1073.12,-184.5 1083.12,-181 1073.12,-177.5 1073.12,-184.5"/>
</a>
</g>
</g>
<!-- Node3 -->
<g id="Node000003" class="node">
<title>Node3</title>
<g id="a_Node000003"><a xlink:href="sdcard_8c.html#a6dcdbe623e720ed71f92e745c440db85" target="_top" xlink:title="Expande o diretorio alocando um novo cluster.">
<polygon fill="white" stroke="#666666" points="648.88,-362 542.88,-362 542.88,-342 648.88,-342 648.88,-362"/>
<text xml:space="preserve" text-anchor="middle" x="595.88" y="-348.5" font-family="Helvetica,sans-Serif" font-size="10.00">sd_expand_directory</text>
</a>
</g>
</g>
<!-- Node2&#45;&gt;Node3 -->
<g id="edge2_Node000002_Node000003" class="edge">
<title>Node2&#45;&gt;Node3</title>
<g id="a_edge2_Node000002_Node000003"><a xlink:title=" ">
<path fill="none" stroke="#63b8ff" d="M1008.23,-202.59C1000.38,-236.12 981.04,-301.02 942.25,-341 893.31,-391.44 868.05,-393.51 799.5,-409 754.85,-419.09 740.74,-420.76 696.5,-409 662.41,-399.94 627.84,-376.16 609.74,-362.35"/>
<polygon fill="#63b8ff" stroke="#63b8ff" points="1011.63,-203.38 1010.36,-192.86 1004.8,-201.88 1011.63,-203.38"/>
</a>
</g>
</g>
<!-- Node4 -->
<g id="Node000004" class="node">
<title>Node4</title>
<g id="a_Node000004"><a xlink:href="sdcard_8c.html#a5228ed5a829330c001b1614c8476236c" target="_top" xlink:title="Cria um novo arquivo no diretório raiz com expansão de cluster.">
<polygon fill="white" stroke="#666666" points="475.38,-324 398.62,-324 398.62,-304 475.38,-304 475.38,-324"/>
<text xml:space="preserve" text-anchor="middle" x="437" y="-310.5" font-family="Helvetica,sans-Serif" font-size="10.00">sd_file_create</text>
</a>
</g>
</g>
<!-- Node2&#45;&gt;Node4 -->
<g id="edge35_Node000002_Node000004" class="edge">
<title>Node2&#45;&gt;Node4</title>
<g id="a_edge35_Node000002_Node000004"><a xlink:title=" ">
<path fill="none" stroke="#63b8ff" d="M1011.47,-202.58C1008.06,-243.98 994.68,-334.93 942.25,-385 894.42,-430.67 864.96,-417.57 799.5,-427 680.9,-444.09 638.96,-452.49 531.25,-400 493.44,-381.57 460.14,-342.77 445.67,-324.25"/>
<polygon fill="#63b8ff" stroke="#63b8ff" points="1014.95,-202.93 1012.14,-192.71 1007.97,-202.45 1014.95,-202.93"/>
</a>
</g>
</g>
<!-- Node12 -->
<g id="Node000012" class="node">
<title>Node12</title>
<g id="a_Node000012"><a xlink:href="sdcard_8c.html#a5afd6e264210d197c43e84b5e7dd8856" target="_top" xlink:title="Libera uma cadeia de clusters na tabela FAT, marcando&#45;os como disponíveis.">
<polygon fill="white" stroke="#666666" points="935.5,-134 842.25,-134 842.25,-114 935.5,-114 935.5,-134"/>
<text xml:space="preserve" text-anchor="middle" x="888.88" y="-120.5" font-family="Helvetica,sans-Serif" font-size="10.00">sd_fat_free_chain</text>
</a>
</g>
</g>
<!-- Node2&#45;&gt;Node12 -->
<g id="edge13_Node000002_Node000012" class="edge">
<title>Node2&#45;&gt;Node12</title>
<g id="a_edge13_Node000002_Node000012"><a xlink:title=" ">
<path fill="none" stroke="#63b8ff" d="M980.09,-165.67C968.19,-160.09 954.62,-153.74 942.25,-148 932.63,-143.54 922,-138.66 912.84,-134.47"/>
<polygon fill="#63b8ff" stroke="#63b8ff" points="978.55,-168.82 989.09,-169.9 981.53,-162.48 978.55,-168.82"/>
</a>
</g>
</g>
<!-- Node13 -->
<g id="Node000013" class="node">
<title>Node13</title>
<g id="a_Node000013"><a xlink:href="sdcard_8c.html#af2ad75b395d583c12294747d47860497" target="_top" xlink:title="Exclui um arquivo do diretório e libera seu espaço no disco.">
<polygon fill="white" stroke="#666666" points="786,-134 710,-134 710,-114 786,-114 786,-134"/>
<text xml:space="preserve" text-anchor="middle" x="748" y="-120.5" font-family="Helvetica,sans-Serif" font-size="10.00">sd_file_delete</text>
</a>
</g>
</g>
<!-- Node2&#45;&gt;Node13 -->
<g id="edge36_Node000002_Node000013" class="edge">
<title>Node2&#45;&gt;Node13</title>
<g id="a_edge36_Node000002_Node000013"><a xlink:title=" ">
<path fill="none" stroke="#63b8ff" d="M966.94,-171.26C931.17,-163.62 880.15,-152.69 835.5,-143 819.42,-139.51 801.67,-135.62 786.46,-132.27"/>
<polygon fill="#63b8ff" stroke="#63b8ff" points="966,-174.64 976.52,-173.31 967.47,-167.8 966,-174.64"/>
</a>
</g>
</g>
<!-- Node16 -->
<g id="Node000016" class="node">
<title>Node16</title>
<g id="a_Node000016"><a xlink:href="sdcard_8c.html#a796684607b81e66d63286b77382e95f3" target="_top" xlink:title="Atualiza o setor FSInfo do FAT32.">
<polygon fill="white" stroke="#666666" points="942.25,-58 835.5,-58 835.5,-38 942.25,-38 942.25,-58"/>
<text xml:space="preserve" text-anchor="middle" x="888.88" y="-44.5" font-family="Helvetica,sans-Serif" font-size="10.00">sd_fat_update_fsinfo</text>
</a>
</g>
</g>
<!-- Node2&#45;&gt;Node16 -->
<g id="edge19_Node000002_Node000016" class="edge">
<title>Node2&#45;&gt;Node16</title>
<g id="a_edge19_Node000002_Node000016"><a xlink:title=" ">
<path fill="none" stroke="#63b8ff" d="M1003.62,-160.18C992.34,-136.18 970.93,-96.83 942.25,-72 935.9,-66.5 928.08,-62.03 920.43,-58.5"/>
<polygon fill="#63b8ff" stroke="#63b8ff" points="1000.41,-161.56 1007.72,-169.23 1006.78,-158.67 1000.41,-161.56"/>
</a>
</g>
</g>
<!-- Node17 -->
<g id="Node000017" class="node">
<title>Node17</title>
<g id="a_Node000017"><a xlink:href="sdcard_8c.html#aec0c2db609a8f514fa7487deecd78461" target="_top" xlink:title="Sincroniza o tamanho do arquivo no diretório físico (Flush).">
<polygon fill="white" stroke="#666666" points="783.38,-58 712.62,-58 712.62,-38 783.38,-38 783.38,-58"/>
<text xml:space="preserve" text-anchor="middle" x="748" y="-44.5" font-family="Helvetica,sans-Serif" font-size="10.00">sd_file_sync</text>
</a>
</g>
</g>
<!-- Node2&#45;&gt;Node17 -->
<g id="edge37_Node000002_Node000017" class="edge">
<title>Node2&#45;&gt;Node17</title>
<g id="a_edge37_Node000002_Node000017"><a xlink:title=" ">
<path fill="none" stroke="#63b8ff" d="M999.38,-161.59C986.64,-144.34 965.88,-119.66 942.25,-105 915.65,-88.49 831.77,-67.2 783.71,-55.89"/>
<polygon fill="#63b8ff" stroke="#63b8ff" points="996.38,-163.41 1005.03,-169.52 1002.08,-159.35 996.38,-163.41"/>
</a>
</g>
</g>
<!-- Node18 -->
<g id="Node000018" class="node">
<title>Node18</title>
<g id="a_Node000018"><a xlink:href="sdcard_8c.html#a144349126da9cc0bcd1dd34243989e98" target="_top" xlink:title="Atualiza uma entrada na Tabela de Alocação de Arquivos (FAT).">
<polygon fill="white" stroke="#666666" points="937,-286 840.75,-286 840.75,-266 937,-266 937,-286"/>
<text xml:space="preserve" text-anchor="middle" x="888.88" y="-272.5" font-family="Helvetica,sans-Serif" font-size="10.00">sd_fat_write_entry</text>
</a>
</g>
</g>
<!-- Node2&#45;&gt;Node18 -->
<g id="edge22_Node000002_Node000018" class="edge">
<title>Node2&#45;&gt;Node18</title>
<g id="a_edge22_Node000002_Node000018"><a xlink:title=" ">
<path fill="none" stroke="#63b8ff" d="M990.59,-198.05C965.21,-217.7 924.31,-249.35 903.29,-265.62"/>
<polygon fill="#63b8ff" stroke="#63b8ff" points="992.53,-200.98 998.29,-192.09 988.24,-195.45 992.53,-200.98"/>
</a>
</g>
</g>
<!-- Node21 -->
<g id="Node000021" class="node">
<title>Node21</title>
<g id="a_Node000021"><a xlink:href="sdcard_8c.html#a3cb6e9bbb79a21ebf8cf7357ed262726" target="_top" xlink:title="Adiciona dados ao final de um arquivo, expandindo clusters se necessário.">
<polygon fill="white" stroke="#666666" points="495.25,-267 378.75,-267 378.75,-247 495.25,-247 495.25,-267"/>
<text xml:space="preserve" text-anchor="middle" x="437" y="-253.5" font-family="Helvetica,sans-Serif" font-size="10.00">sd_file_append_stream</text>
</a>
</g>
</g>
<!-- Node2&#45;&gt;Node21 -->
<g id="edge34_Node000002_Node000021" class="edge">
<title>Node2&#45;&gt;Node21</title>
<g id="a_edge34_Node000002_Node000021"><a xlink:title=" ">
<path fill="none" stroke="#63b8ff" d="M966.63,-187.08C862.67,-200.83 609.75,-234.28 495.59,-249.38"/>
<polygon fill="#63b8ff" stroke="#63b8ff" points="967.02,-190.56 976.47,-185.78 966.1,-183.62 967.02,-190.56"/>
</a>
</g>
</g>
<!-- Node22 -->
<g id="Node000022" class="node">
<title>Node22</title>
<g id="a_Node000022"><a xlink:href="sdcard_8c.html#afba53615c129e4e1a3ca0dd1c272ab11" target="_top" xlink:title=" ">
<polygon fill="white" stroke="#666666" points="799.12,-400 696.88,-400 696.88,-380 799.12,-380 799.12,-400"/>
<text xml:space="preserve" text-anchor="middle" x="748" y="-386.5" font-family="Helvetica,sans-Serif" font-size="10.00">sd_file_update_size</text>
</a>
</g>
</g>
<!-- Node2&#45;&gt;Node22 -->
<g id="edge38_Node000002_Node000022" class="edge">
<title>Node2&#45;&gt;Node22</title>
<g id="a_edge38_Node000002_Node000022"><a xlink:title=" ">
<path fill="none" stroke="#63b8ff" d="M1004.06,-201.92C992.97,-226.84 971.53,-268.41 942.25,-295 895.2,-337.73 825.42,-365.6 783.85,-379.51"/>
<polygon fill="#63b8ff" stroke="#63b8ff" points="1007.22,-203.43 1007.94,-192.86 1000.79,-200.67 1007.22,-203.43"/>
</a>
</g>
</g>
<!-- Node23 -->
<g id="Node000023" class="node">
<title>Node23</title>
<g id="a_Node000023"><a xlink:href="sdcard_8c.html#ac738738df5abe4582855b5b34312e41e" target="_top" xlink:title="Escreve dados em um arquivo FAT32 existente (modo streaming).">
<polygon fill="white" stroke="#666666" points="941.88,-20 835.88,-20 835.88,0 941.88,0 941.88,-20"/>
<text xml:space="preserve" text-anchor="middle" x="888.88" y="-6.5" font-family="Helvetica,sans-Serif" font-size="10.00">sd_file_write_stream</text>
</a>
</g>
</g>
<!-- Node2&#45;&gt;Node23 -->
<g id="edge40_Node000002_Node000023" class="edge">
<title>Node2&#45;&gt;Node23</title>
<g id="a_edge40_Node000002_Node000023"><a xlink:title=" ">
<path fill="none" stroke="#63b8ff" d="M1008.24,-159.57C1000.5,-126.97 981.38,-64.92 942.25,-29 938.54,-25.6 934.18,-22.8 929.59,-20.49"/>
<polygon fill="#63b8ff" stroke="#63b8ff" points="1004.76,-160.02 1010.34,-169.03 1011.59,-158.51 1004.76,-160.02"/>
</a>
</g>
</g>
<!-- Node3&#45;&gt;Node4 -->
<g id="edge3_Node000003_Node000004" class="edge">
<title>Node3&#45;&gt;Node4</title>
<g id="a_edge3_Node000003_Node000004"><a xlink:title=" ">
<path fill="none" stroke="#63b8ff" d="M540.69,-338.88C519.31,-333.69 495.25,-327.87 475.8,-323.16"/>
<polygon fill="#63b8ff" stroke="#63b8ff" points="539.58,-342.21 550.12,-341.16 541.23,-335.4 539.58,-342.21"/>
</a>
</g>
</g>
<!-- Node4&#45;&gt;Node4 -->
<g id="edge8_Node000004_Node000004" class="edge">
<title>Node4&#45;&gt;Node4</title>
<g id="a_edge8_Node000004_Node000004"><a xlink:title=" ">
<path fill="none" stroke="#63b8ff" d="M465.08,-335.44C461.46,-339.3 452.1,-342 437,-342 409.38,-342 400.97,-332.98 411.76,-324.34"/>
<polygon fill="#63b8ff" stroke="#63b8ff" points="468.48,-334.63 462.62,-325.81 461.7,-336.36 468.48,-334.63"/>
</a>
</g>
</g>
<!-- Node5 -->
<g id="Node000005" class="node">
<title>Node5</title>
<g id="a_Node000005"><a xlink:href="exemplo__3_8c.html#a1888a7d50f8090bc2f0c577e2ce4074f" target="_top" xlink:title="Localiza ou cria o volume de log adequado no cartão.">
<polygon fill="white" stroke="#666666" points="342.75,-324 210.5,-324 210.5,-304 342.75,-304 342.75,-324"/>
<text xml:space="preserve" text-anchor="middle" x="276.62" y="-310.5" font-family="Helvetica,sans-Serif" font-size="10.00">gerenciar_proximo_volume</text>
</a>
</g>
</g>
<!-- Node4&#45;&gt;Node5 -->
<g id="edge4_Node000004_Node000005" class="edge">
<title>Node4&#45;&gt;Node5</title>
<g id="a_edge4_Node000004_Node000005"><a xlink:title=" ">
<path fill="none" stroke="#63b8ff" d="M387.16,-314C373.23,-314 357.83,-314 343.08,-314"/>
<polygon fill="#63b8ff" stroke="#63b8ff" points="386.95,-317.5 396.95,-314 386.95,-310.5 386.95,-317.5"/>
</a>
</g>
</g>
<!-- Node8 -->
<g id="Node000008" class="node">
<title>Node8</title>
<g id="a_Node000008"><a xlink:href="exemplo__1_8c.html#a45578ec38e9d0ae49d3313fa3900f338" target="_top" xlink:title="Demonstração completa e básica da biblioteca.">
<polygon fill="white" stroke="#666666" points="333.75,-155 219.5,-155 219.5,-123 333.75,-123 333.75,-155"/>
<text xml:space="preserve" text-anchor="start" x="227.5" y="-141.5" font-family="Helvetica,sans-Serif" font-size="10.00">teste_basico_escrever</text>
<text xml:space="preserve" text-anchor="middle" x="276.62" y="-129.5" font-family="Helvetica,sans-Serif" font-size="10.00">_string</text>
</a>
</g>
</g>
<!-- Node4&#45;&gt;Node8 -->
<g id="edge9_Node000004_Node000008" class="edge">
<title>Node4&#45;&gt;Node8</title>
<g id="a_edge9_Node000004_Node000008"><a xlink:title=" ">
<path fill="none" stroke="#63b8ff" d="M406.35,-297.75C396.87,-291.69 386.76,-284.26 378.75,-276 357.63,-254.22 360.44,-242.65 342.75,-218 326.58,-195.47 305.94,-171.06 292.27,-155.43"/>
<polygon fill="#63b8ff" stroke="#63b8ff" points="404.23,-300.56 414.6,-302.75 407.86,-294.57 404.23,-300.56"/>
</a>
</g>
</g>
<!-- Node10 -->
<g id="Node000010" class="node">
<title>Node10</title>
<g id="a_Node000010"><a xlink:href="exemplo__2_8c.html#a71c134181186f04ca234d95f2b605e9a" target="_top" xlink:title="Executa o teste completo: Inicialização, Gravação e Busca.">
<polygon fill="white" stroke="#666666" points="331.12,-247 222.12,-247 222.12,-227 331.12,-227 331.12,-247"/>
<text xml:space="preserve" text-anchor="middle" x="276.62" y="-233.5" font-family="Helvetica,sans-Serif" font-size="10.00">teste_datalogger_csv</text>
</a>
</g>
</g>
<!-- Node4&#45;&gt;Node10 -->
<g id="edge11_Node000004_Node000010" class="edge">
<title>Node4&#45;&gt;Node10</title>
<g id="a_edge11_Node000004_Node000010"><a xlink:title=" ">
<path fill="none" stroke="#63b8ff" d="M404.31,-298.59C373.1,-283.42 326.27,-260.65 299.15,-247.47"/>
<polygon fill="#63b8ff" stroke="#63b8ff" points="402.76,-301.73 413.28,-302.95 405.82,-295.43 402.76,-301.73"/>
</a>
</g>
</g>
<!-- Node6 -->
<g id="Node000006" class="node">
<title>Node6</title>
<g id="a_Node000006"><a xlink:href="exemplo__3_8c.html#a840291bc02cba5474a4cb46a9b9566fe" target="_top" xlink:title="Ponto de entrada do programa.">
<polygon fill="white" stroke="#666666" points="37,-311 0,-311 0,-291 37,-291 37,-311"/>
<text xml:space="preserve" text-anchor="middle" x="18.5" y="-297.5" font-family="Helvetica,sans-Serif" font-size="10.00">main</text>
</a>
</g>
</g>
<!-- Node5&#45;&gt;Node6 -->
<g id="edge5_Node000005_Node000006" class="edge">
<title>Node5&#45;&gt;Node6</title>
<g id="a_edge5_Node000005_Node000006"><a xlink:title=" ">
<path fill="none" stroke="#63b8ff" d="M198.9,-310.33C161,-308.49 114.6,-306.19 73,-304 61.11,-303.37 47.73,-302.62 37.33,-302.03"/>
<polygon fill="#63b8ff" stroke="#63b8ff" points="198.7,-313.83 208.86,-310.82 199.04,-306.84 198.7,-313.83"/>
</a>
</g>
</g>
<!-- Node7 -->
<g id="Node000007" class="node">
<title>Node7</title>
<g id="a_Node000007"><a xlink:href="exemplo__3_8c.html#a9765d93a7e9eac42493b89eb0dc1ab12" target="_top" xlink:title="Formata e grava um registro CSV com data, hora e 4 sensores.">
<polygon fill="white" stroke="#666666" points="174.5,-295 73,-295 73,-263 174.5,-263 174.5,-295"/>
<text xml:space="preserve" text-anchor="start" x="81" y="-281.5" font-family="Helvetica,sans-Serif" font-size="10.00">registrar_dado_com</text>
<text xml:space="preserve" text-anchor="middle" x="123.75" y="-269.5" font-family="Helvetica,sans-Serif" font-size="10.00">_rotacao</text>
</a>
</g>
</g>
<!-- Node5&#45;&gt;Node7 -->
<g id="edge6_Node000005_Node000007" class="edge">
<title>Node5&#45;&gt;Node7</title>
<g id="a_edge6_Node000005_Node000007"><a xlink:title=" ">
<path fill="none" stroke="#63b8ff" d="M219.79,-301.05C205.1,-297.64 189.35,-293.99 174.98,-290.65"/>
<polygon fill="#63b8ff" stroke="#63b8ff" points="218.76,-304.4 229.29,-303.25 220.34,-297.58 218.76,-304.4"/>
</a>
</g>
</g>
<!-- Node7&#45;&gt;Node6 -->
<g id="edge7_Node000007_Node000006" class="edge">
<title>Node7&#45;&gt;Node6</title>
<g id="a_edge7_Node000007_Node000006"><a xlink:title=" ">
<path fill="none" stroke="#63b8ff" d="M61.63,-292.02C52.71,-293.92 44.17,-295.74 37.15,-297.24"/>
<polygon fill="#63b8ff" stroke="#63b8ff" points="62.11,-295.5 71.16,-289.99 60.65,-288.65 62.11,-295.5"/>
</a>
</g>
</g>
<!-- Node9 -->
<g id="Node000009" class="node">
<title>Node9</title>
<g id="a_Node000009"><a xlink:href="exemplo__1_8c.html#a840291bc02cba5474a4cb46a9b9566fe" target="_top" xlink:title=" ">
<polygon fill="white" stroke="#666666" points="142.25,-149 105.25,-149 105.25,-129 142.25,-129 142.25,-149"/>
<text xml:space="preserve" text-anchor="middle" x="123.75" y="-135.5" font-family="Helvetica,sans-Serif" font-size="10.00">main</text>
</a>
</g>
</g>
<!-- Node8&#45;&gt;Node9 -->
<g id="edge10_Node000008_Node000009" class="edge">
<title>Node8&#45;&gt;Node9</title>
<g id="a_edge10_Node000008_Node000009"><a xlink:title=" ">
<path fill="none" stroke="#63b8ff" d="M207.75,-139C183.79,-139 158.8,-139 142.59,-139"/>
<polygon fill="#63b8ff" stroke="#63b8ff" points="207.5,-142.5 217.5,-139 207.5,-135.5 207.5,-142.5"/>
</a>
</g>
</g>
<!-- Node11 -->
<g id="Node000011" class="node">
<title>Node11</title>
<g id="a_Node000011"><a xlink:href="exemplo__2_8c.html#a840291bc02cba5474a4cb46a9b9566fe" target="_top" xlink:title="Função principal.">
<polygon fill="white" stroke="#666666" points="142.25,-245 105.25,-245 105.25,-225 142.25,-225 142.25,-245"/>
<text xml:space="preserve" text-anchor="middle" x="123.75" y="-231.5" font-family="Helvetica,sans-Serif" font-size="10.00">main</text>
</a>
</g>
</g>
<!-- Node10&#45;&gt;Node11 -->
<g id="edge12_Node000010_Node000011" class="edge">
<title>Node10&#45;&gt;Node11</title>
<g id="a_edge12_Node000010_Node000011"><a xlink:title=" ">
<path fill="none" stroke="#63b8ff" d="M210.75,-236.14C185.92,-235.81 159.54,-235.46 142.64,-235.24"/>
<polygon fill="#63b8ff" stroke="#63b8ff" points="210.45,-239.64 220.49,-236.27 210.54,-232.64 210.45,-239.64"/>
</a>
</g>
</g>
<!-- Node12&#45;&gt;Node13 -->
<g id="edge14_Node000012_Node000013" class="edge">
<title>Node12&#45;&gt;Node13</title>
<g id="a_edge14_Node000012_Node000013"><a xlink:title=" ">
<path fill="none" stroke="#63b8ff" d="M830.79,-124C815.85,-124 800.11,-124 786.48,-124"/>
<polygon fill="#63b8ff" stroke="#63b8ff" points="830.5,-127.5 840.5,-124 830.5,-120.5 830.5,-127.5"/>
</a>
</g>
</g>
<!-- Node13&#45;&gt;Node8 -->
<g id="edge17_Node000013_Node000008" class="edge">
<title>Node13&#45;&gt;Node8</title>
<g id="a_edge17_Node000013_Node000008"><a xlink:title=" ">
<path fill="none" stroke="#63b8ff" d="M698.33,-125.56C610.74,-128.35 427.05,-134.22 334.09,-137.2"/>
<polygon fill="#63b8ff" stroke="#63b8ff" points="698.38,-129.06 708.26,-125.24 698.16,-122.06 698.38,-129.06"/>
</a>
</g>
</g>
<!-- Node13&#45;&gt;Node10 -->
<g id="edge18_Node000013_Node000010" class="edge">
<title>Node13&#45;&gt;Node10</title>
<g id="a_edge18_Node000013_Node000010"><a xlink:title=" ">
<path fill="none" stroke="#63b8ff" d="M698.54,-116.36C625.83,-107.08 485.64,-97.78 378.75,-143 335.7,-161.21 299.56,-206.22 284.78,-226.63"/>
<polygon fill="#63b8ff" stroke="#63b8ff" points="697.74,-119.78 708.11,-117.64 698.67,-112.84 697.74,-119.78"/>
</a>
</g>
</g>
<!-- Node14 -->
<g id="Node000014" class="node">
<title>Node14</title>
<g id="a_Node000014"><a xlink:href="exemplo__5_8c.html#a1ebabf5df3f5856d744054ab8d011d87" target="_top" xlink:title="Interpreta e executa o comando digitado.">
<polygon fill="white" stroke="#666666" points="647.75,-172 544,-172 544,-152 647.75,-152 647.75,-172"/>
<text xml:space="preserve" text-anchor="middle" x="595.88" y="-158.5" font-family="Helvetica,sans-Serif" font-size="10.00">processar_comando</text>
</a>
</g>
</g>
<!-- Node13&#45;&gt;Node14 -->
<g id="edge15_Node000013_Node000014" class="edge">
<title>Node13&#45;&gt;Node14</title>
<g id="a_edge15_Node000013_Node000014"><a xlink:title=" ">
<path fill="none" stroke="#63b8ff" d="M698.41,-136.3C678.95,-141.22 656.77,-146.84 638.11,-151.56"/>
<polygon fill="#63b8ff" stroke="#63b8ff" points="699.2,-139.71 708.04,-133.86 697.48,-132.92 699.2,-139.71"/>
</a>
</g>
</g>
<!-- Node15 -->
<g id="Node000015" class="node">
<title>Node15</title>
<g id="a_Node000015"><a xlink:href="exemplo__5_8c.html#a840291bc02cba5474a4cb46a9b9566fe" target="_top" xlink:title=" ">
<polygon fill="white" stroke="#666666" points="455.5,-172 418.5,-172 418.5,-152 455.5,-152 455.5,-172"/>
<text xml:space="preserve" text-anchor="middle" x="437" y="-158.5" font-family="Helvetica,sans-Serif" font-size="10.00">main</text>
</a>
</g>
</g>
<!-- Node14&#45;&gt;Node15 -->
<g id="edge16_Node000014_Node000015" class="edge">
<title>Node14&#45;&gt;Node15</title>
<g id="a_edge16_Node000014_Node000015"><a xlink:title=" ">
<path fill="none" stroke="#63b8ff" d="M532.31,-162C504.73,-162 474.43,-162 455.81,-162"/>
<polygon fill="#63b8ff" stroke="#63b8ff" points="531.99,-165.5 541.99,-162 531.99,-158.5 531.99,-165.5"/>
</a>
</g>
</g>
<!-- Node16&#45;&gt;Node17 -->
<g id="edge20_Node000016_Node000017" class="edge">
<title>Node16&#45;&gt;Node17</title>
<g id="a_edge20_Node000016_Node000017"><a xlink:title=" ">
<path fill="none" stroke="#63b8ff" d="M824.23,-48C810.2,-48 795.85,-48 783.49,-48"/>
<polygon fill="#63b8ff" stroke="#63b8ff" points="823.86,-51.5 833.86,-48 823.86,-44.5 823.86,-51.5"/>
</a>
</g>
</g>
<!-- Node17&#45;&gt;Node8 -->
<g id="edge21_Node000017_Node000008" class="edge">
<title>Node17&#45;&gt;Node8</title>
<g id="a_edge21_Node000017_Node000008"><a xlink:title=" ">
<path fill="none" stroke="#63b8ff" d="M701.14,-43.59C630.02,-38.37 489.74,-34.59 378.75,-72 346.62,-82.83 314.91,-106.54 295.79,-122.64"/>
<polygon fill="#63b8ff" stroke="#63b8ff" points="700.61,-47.06 710.85,-44.35 701.15,-40.08 700.61,-47.06"/>
</a>
</g>
</g>
<!-- Node18&#45;&gt;Node3 -->
<g id="edge23_Node000018_Node000003" class="edge">
<title>Node18&#45;&gt;Node3</title>
<g id="a_edge23_Node000018_Node000003"><a xlink:title=" ">
<path fill="none" stroke="#63b8ff" d="M867.48,-293.25C850.46,-306.57 824.98,-324.18 799.5,-333 750.42,-349.99 690.89,-353.73 649.1,-353.84"/>
<polygon fill="#63b8ff" stroke="#63b8ff" points="869.24,-296.32 874.82,-287.32 864.84,-290.88 869.24,-296.32"/>
</a>
</g>
</g>
<!-- Node19 -->
<g id="Node000019" class="node">
<title>Node19</title>
<g id="a_Node000019"><a xlink:href="sdcard_8c.html#afa6b333a50132b6be29e88aa75fd90f1" target="_top" xlink:title="Aloca um cluster livre na FAT32 utilizando busca circular otimizada.">
<polygon fill="white" stroke="#666666" points="799.5,-324 696.5,-324 696.5,-304 799.5,-304 799.5,-324"/>
<text xml:space="preserve" text-anchor="middle" x="748" y="-310.5" font-family="Helvetica,sans-Serif" font-size="10.00">sd_fat_alloc_cluster</text>
</a>
</g>
</g>
<!-- Node18&#45;&gt;Node19 -->
<g id="edge24_Node000018_Node000019" class="edge">
<title>Node18&#45;&gt;Node19</title>
<g id="a_edge24_Node000018_Node000019"><a xlink:title=" ">
<path fill="none" stroke="#63b8ff" d="M838.74,-289.45C821.81,-294.08 803.11,-299.19 787.19,-303.55"/>
<polygon fill="#63b8ff" stroke="#63b8ff" points="839.38,-292.9 848.1,-286.88 837.53,-286.15 839.38,-292.9"/>
</a>
</g>
</g>
<!-- Node20 -->
<g id="Node000020" class="node">
<title>Node20</title>
<g id="a_Node000020"><a xlink:href="sdcard_8c.html#a7e010bc4f9f46359dcefc007d522f58a" target="_top" xlink:title="Aloca um novo cluster e o encadeia ao final de uma sequência existente.">
<polygon fill="white" stroke="#666666" points="660.5,-286 531.25,-286 531.25,-266 660.5,-266 660.5,-286"/>
<text xml:space="preserve" text-anchor="middle" x="595.88" y="-272.5" font-family="Helvetica,sans-Serif" font-size="10.00">sd_fat_chain_new_cluster</text>
</a>
</g>
</g>
<!-- Node18&#45;&gt;Node20 -->
<g id="edge32_Node000018_Node000020" class="edge">
<title>Node18&#45;&gt;Node20</title>
<g id="a_edge32_Node000018_Node000020"><a xlink:title=" ">
<path fill="none" stroke="#63b8ff" d="M829.15,-276C780.36,-276 711.04,-276 660.85,-276"/>
<polygon fill="#63b8ff" stroke="#63b8ff" points="828.96,-279.5 838.96,-276 828.96,-272.5 828.96,-279.5"/>
</a>
</g>
</g>
<!-- Node18&#45;&gt;Node21 -->
<g id="edge33_Node000018_Node000021" class="edge">
<title>Node18&#45;&gt;Node21</title>
<g id="a_edge33_Node000018_Node000021"><a xlink:title=" ">
<path fill="none" stroke="#63b8ff" d="M829.26,-269.75C783.39,-265.19 717.97,-259.4 660.5,-257 604.54,-254.67 540.59,-254.98 495.65,-255.68"/>
<polygon fill="#63b8ff" stroke="#63b8ff" points="828.67,-273.21 838.97,-270.73 829.37,-266.24 828.67,-273.21"/>
</a>
</g>
</g>
<!-- Node19&#45;&gt;Node3 -->
<g id="edge25_Node000019_Node000003" class="edge">
<title>Node19&#45;&gt;Node3</title>
<g id="a_edge25_Node000019_Node000003"><a xlink:title=" ">
<path fill="none" stroke="#63b8ff" d="M694.66,-327.25C676.16,-331.93 655.62,-337.13 638.16,-341.55"/>
<polygon fill="#63b8ff" stroke="#63b8ff" points="695.28,-330.7 704.11,-324.86 693.56,-323.92 695.28,-330.7"/>
</a>
</g>
</g>
<!-- Node19&#45;&gt;Node20 -->
<g id="edge26_Node000019_Node000020" class="edge">
<title>Node19&#45;&gt;Node20</title>
<g id="a_edge26_Node000019_Node000020"><a xlink:title=" ">
<path fill="none" stroke="#63b8ff" d="M694.66,-300.75C676.16,-296.07 655.62,-290.87 638.16,-286.45"/>
<polygon fill="#63b8ff" stroke="#63b8ff" points="693.56,-304.08 704.11,-303.14 695.28,-297.3 693.56,-304.08"/>
</a>
</g>
</g>
<!-- Node19&#45;&gt;Node21 -->
<g id="edge31_Node000019_Node000021" class="edge">
<title>Node19&#45;&gt;Node21</title>
<g id="a_edge31_Node000019_Node000021"><a xlink:title=" ">
<path fill="none" stroke="#63b8ff" d="M684.9,-313.43C641.35,-311.84 582.08,-307.3 531.25,-295 505.25,-288.71 477.02,-276.36 458.51,-267.45"/>
<polygon fill="#63b8ff" stroke="#63b8ff" points="684.56,-316.92 694.66,-313.74 684.78,-309.92 684.56,-316.92"/>
</a>
</g>
</g>
<!-- Node20&#45;&gt;Node21 -->
<g id="edge27_Node000020_Node000021" class="edge">
<title>Node20&#45;&gt;Node21</title>
<g id="a_edge27_Node000020_Node000021"><a xlink:title=" ">
<path fill="none" stroke="#63b8ff" d="M519.72,-266.9C511.64,-265.92 503.52,-264.94 495.69,-263.99"/>
<polygon fill="#63b8ff" stroke="#63b8ff" points="519.22,-270.36 529.57,-268.09 520.06,-263.41 519.22,-270.36"/>
</a>
</g>
</g>
<!-- Node21&#45;&gt;Node7 -->
<g id="edge28_Node000021_Node000007" class="edge">
<title>Node21&#45;&gt;Node7</title>
<g id="a_edge28_Node000021_Node000007"><a xlink:title=" ">
<path fill="none" stroke="#63b8ff" d="M367.25,-261.86C309.08,-265.97 227.08,-271.77 174.93,-275.45"/>
<polygon fill="#63b8ff" stroke="#63b8ff" points="367.31,-265.36 377.04,-261.17 366.82,-258.38 367.31,-265.36"/>
</a>
</g>
</g>
<!-- Node21&#45;&gt;Node8 -->
<g id="edge29_Node000021_Node000008" class="edge">
<title>Node21&#45;&gt;Node8</title>
<g id="a_edge29_Node000021_Node000008"><a xlink:title=" ">
<path fill="none" stroke="#63b8ff" d="M412.94,-239.82C382.56,-217.18 329.5,-177.65 299.65,-155.41"/>
<polygon fill="#63b8ff" stroke="#63b8ff" points="410.62,-242.46 420.73,-245.62 414.8,-236.84 410.62,-242.46"/>
</a>
</g>
</g>
<!-- Node21&#45;&gt;Node10 -->
<g id="edge30_Node000021_Node000010" class="edge">
<title>Node21&#45;&gt;Node10</title>
<g id="a_edge30_Node000021_Node000010"><a xlink:title=" ">
<path fill="none" stroke="#63b8ff" d="M367.09,-248.3C355.18,-246.79 342.96,-245.25 331.52,-243.81"/>
<polygon fill="#63b8ff" stroke="#63b8ff" points="366.51,-251.75 376.87,-249.53 367.39,-244.81 366.51,-251.75"/>
</a>
</g>
</g>
<!-- Node22&#45;&gt;Node21 -->
<g id="edge39_Node000022_Node000021" class="edge">
<title>Node22&#45;&gt;Node21</title>
<g id="a_edge39_Node000022_Node000021"><a xlink:title=" ">
<path fill="none" stroke="#63b8ff" d="M685.03,-400.01C638.64,-404.09 575.77,-401.99 531.25,-371 500.58,-349.65 519.71,-323.26 495.25,-295 485.33,-283.55 471.17,-274.1 459.41,-267.5"/>
<polygon fill="#63b8ff" stroke="#63b8ff" points="685.34,-403.5 694.94,-399.01 684.64,-396.53 685.34,-403.5"/>
</a>
</g>
</g>
</g>
</svg>
