<?xml version="1.0" encoding="UTF-8" standalone="no"?>
<!DOCTYPE svg PUBLIC "-//W3C//DTD SVG 1.1//EN"
 "http://www.w3.org/Graphics/SVG/1.1/DTD/svg11.dtd">
<!-- Generated by graphviz version 14.1.4 (20260321.0153)
 -->
<!-- Title: sd_file_write_stream Pages: 1 -->
<svg width="645pt" height="117pt"
 viewBox="0.00 0.00 645.00 117.00" xmlns="http://www.w3.org/2000/svg" xmlns:xlink="http://www.w3.org/1999/xlink">
<g id="graph0" class="graph" transform="scale(1 1) rotate(0) translate(4 112.78)">
<title>sd_file_write_stream</title>
<!-- Node1 -->
<g id="Node000001" class="node">
<title>Node1</title>
<g id="a_Node000001"><a xlink:title="Escreve dados em um arquivo FAT32 existente (modo streaming).">
<polygon fill="#999999" stroke="#666666" points="106,-58 0,-58 0,-38 106,-38 106,-58"/>
<text xml:space="preserve" text-anchor="middle" x="53" y="-44.5" font-family="Helvetica,sans-Serif" font-size="10.00">sd_file_write_stream</text>
</a>
</g>
</g>
<!-- Node2 -->
<g id="Node000002" class="node">
<title>Node2</title>
<g id="a_Node000002"><a xlink:href="sdcard_8c.html#ac6d558621f33abf80f245adb3d0f4e67" target="_top" xlink:title="Escreve um único bloco de 512 bytes.">
<polygon fill="white" stroke="#666666" points="366,-96 295.25,-96 295.25,-76 366,-76 366,-96"/>
<text xml:space="preserve" text-anchor="middle" x="330.62" y="-82.5" font-family="Helvetica,sans-Serif" font-size="10.00">sd_blk_write</text>
</a>
</g>
</g>
<!-- Node1&#45;&gt;Node2 -->
<g id="edge1_Node000001_Node000002" class="edge">
<title>Node1&#45;&gt;Node2</title>
<g id="a_edge1_Node000001_Node000002"><a xlink:title=" ">
<path fill="none" stroke="#63b8ff" d="M106.08,-56.55C117.88,-58.42 130.36,-60.33 142,-62 190.31,-68.93 245.77,-75.9 283.79,-80.53"/>
<polygon fill="#63b8ff" stroke="#63b8ff" points="283.15,-83.98 293.5,-81.71 283.99,-77.03 283.15,-83.98"/>
</a>
</g>
</g>
<!-- Node6 -->
<g id="Node000006" class="node">
<title>Node6</title>
<g id="a_Node000006"><a xlink:href="sdcard_8c.html#a7b0d2ab1fae193461c611a4f2e6c9245" target="_top" xlink:title="Obtém o próximo cluster na tabela FAT.">
<polygon fill="white" stroke="#666666" points="390.75,-58 270.5,-58 270.5,-38 390.75,-38 390.75,-58"/>
<text xml:space="preserve" text-anchor="middle" x="330.62" y="-44.5" font-family="Helvetica,sans-Serif" font-size="10.00">sd_fat_get_next_cluster</text>
</a>
</g>
</g>
<!-- Node1&#45;&gt;Node6 -->
<g id="edge6_Node000001_Node000006" class="edge">
<title>Node1&#45;&gt;Node6</title>
<g id="a_edge6_Node000001_Node000006"><a xlink:title=" ">
<path fill="none" stroke="#63b8ff" d="M106.49,-48C149.64,-48 211.17,-48 258.7,-48"/>
<polygon fill="#63b8ff" stroke="#63b8ff" points="258.64,-51.5 268.64,-48 258.64,-44.5 258.64,-51.5"/>
</a>
</g>
</g>
<!-- Node8 -->
<g id="Node000008" class="node">
<title>Node8</title>
<g id="a_Node000008"><a xlink:href="sdcard_8c.html#a3794ef278970bdb3d1d50b3f10fc4e9f" target="_top" xlink:title="Localiza a entrada de um arquivo no diretório raiz.">
<polygon fill="white" stroke="#666666" points="234.5,-20 142,-20 142,0 234.5,0 234.5,-20"/>
<text xml:space="preserve" text-anchor="middle" x="188.25" y="-6.5" font-family="Helvetica,sans-Serif" font-size="10.00">sd_find_file_entry</text>
</a>
</g>
</g>
<!-- Node1&#45;&gt;Node8 -->
<g id="edge9_Node000001_Node000008" class="edge">
<title>Node1&#45;&gt;Node8</title>
<g id="a_edge9_Node000001_Node000008"><a xlink:title=" ">
<path fill="none" stroke="#63b8ff" d="M90.76,-37.52C105.91,-33.2 123.65,-28.14 139.76,-23.54"/>
<polygon fill="#63b8ff" stroke="#63b8ff" points="140.49,-26.97 149.15,-20.87 138.57,-20.24 140.49,-26.97"/>
</a>
</g>
</g>
<!-- Node3 -->
<g id="Node000003" class="node">
<title>Node3</title>
<g id="a_Node000003"><a xlink:href="sdcard_8c.html#aae1cfbcba5f92f4639e23fd8ed8fa3c0" target="_top" xlink:title="Envia um comando SPI para o cartão SD e aguarda resposta R1.">
<polygon fill="white" stroke="#666666" points="636.5,-96 559.75,-96 559.75,-76 636.5,-76 636.5,-96"/>
<text xml:space="preserve" text-anchor="middle" x="598.12" y="-82.5" font-family="Helvetica,sans-Serif" font-size="10.00">sd_cmd_send</text>
</a>
</g>
</g>
<!-- Node2&#45;&gt;Node3 -->
<g id="edge2_Node000002_Node000003" class="edge">
<title>Node2&#45;&gt;Node3</title>
<g id="a_edge2_Node000002_Node000003"><a xlink:title=" ">
<path fill="none" stroke="#63b8ff" d="M366.17,-94.61C384.11,-98.64 406.47,-102.99 426.75,-105 469.65,-109.24 480.98,-110.45 523.75,-105 533.41,-103.77 543.62,-101.66 553.26,-99.29"/>
<polygon fill="#63b8ff" stroke="#63b8ff" points="553.98,-102.71 562.77,-96.8 552.21,-95.94 553.98,-102.71"/>
</a>
</g>
</g>
<!-- Node4 -->
<g id="Node000004" class="node">
<title>Node4</title>
<g id="a_Node000004"><a xlink:href="sdcard_8c.html#afcdb9112d386e92b29ad0cac9f5fc277" target="_top" xlink:title="Obtém o status atual do cartão SD (comando CMD13).">
<polygon fill="white" stroke="#666666" points="514,-96 436.5,-96 436.5,-76 514,-76 514,-96"/>
<text xml:space="preserve" text-anchor="middle" x="475.25" y="-82.5" font-family="Helvetica,sans-Serif" font-size="10.00">sd_get_status</text>
</a>
</g>
</g>
<!-- Node2&#45;&gt;Node4 -->
<g id="edge3_Node000002_Node000004" class="edge">
<title>Node2&#45;&gt;Node4</title>
<g id="a_edge3_Node000002_Node000004"><a xlink:title=" ">
<path fill="none" stroke="#63b8ff" d="M366.15,-86C383.71,-86 405.37,-86 424.68,-86"/>
<polygon fill="#63b8ff" stroke="#63b8ff" points="424.52,-89.5 434.52,-86 424.52,-82.5 424.52,-89.5"/>
</a>
</g>
</g>
<!-- Node5 -->
<g id="Node000005" class="node">
<title>Node5</title>
<g id="a_Node000005"><a xlink:href="sdcard_8c.html#a8c2c0ebbeee0d06d43335bc9df4b3142" target="_top" xlink:title="Aguarda o cartão sair do estado de ocupado (busy).">
<polygon fill="white" stroke="#666666" points="523.75,-58 426.75,-58 426.75,-38 523.75,-38 523.75,-58"/>
<text xml:space="preserve" text-anchor="middle" x="475.25" y="-44.5" font-family="Helvetica,sans-Serif" font-size="10.00">sd_spi_wait_ready</text>
</a>
</g>
</g>
<!-- Node2&#45;&gt;Node5 -->
<g id="edge5_Node000002_Node000005" class="edge">
<title>Node2&#45;&gt;Node5</title>
<g id="a_edge5_Node000002_Node000005"><a xlink:title=" ">
<path fill="none" stroke="#63b8ff" d="M366.15,-76.8C383.52,-72.17 404.89,-66.48 424.04,-61.38"/>
<polygon fill="#63b8ff" stroke="#63b8ff" points="424.78,-64.8 433.54,-58.85 422.98,-58.04 424.78,-64.8"/>
</a>
</g>
</g>
<!-- Node4&#45;&gt;Node3 -->
<g id="edge4_Node000004_Node000003" class="edge">
<title>Node4&#45;&gt;Node3</title>
<g id="a_edge4_Node000004_Node000003"><a xlink:title=" ">
<path fill="none" stroke="#63b8ff" d="M514.5,-86C525.17,-86 536.92,-86 548.13,-86"/>
<polygon fill="#63b8ff" stroke="#63b8ff" points="548.03,-89.5 558.03,-86 548.03,-82.5 548.03,-89.5"/>
</a>
</g>
</g>
<!-- Node7 -->
<g id="Node000007" class="node">
<title>Node7</title>
<g id="a_Node000007"><a xlink:href="sdcard_8c.html#aba9c8b9a5590e13424ab4a69280f0c1d" target="_top" xlink:title="Lê um único bloco de 512 bytes do cartão (LBA).">
<polygon fill="white" stroke="#666666" points="509.5,-20 441,-20 441,0 509.5,0 509.5,-20"/>
<text xml:space="preserve" text-anchor="middle" x="475.25" y="-6.5" font-family="Helvetica,sans-Serif" font-size="10.00">sd_blk_read</text>
</a>
</g>
</g>
<!-- Node6&#45;&gt;Node7 -->
<g id="edge7_Node000006_Node000007" class="edge">
<title>Node6&#45;&gt;Node7</title>
<g id="a_edge7_Node000006_Node000007"><a xlink:title=" ">
<path fill="none" stroke="#63b8ff" d="M370.98,-37.52C389.22,-32.65 410.99,-26.85 429.83,-21.83"/>
<polygon fill="#63b8ff" stroke="#63b8ff" points="430.6,-25.25 439.36,-19.29 428.8,-18.49 430.6,-25.25"/>
</a>
</g>
</g>
<!-- Node7&#45;&gt;Node3 -->
<g id="edge8_Node000007_Node000003" class="edge">
<title>Node7&#45;&gt;Node3</title>
<g id="a_edge8_Node000007_Node000003"><a xlink:title=" ">
<path fill="none" stroke="#63b8ff" d="M505.99,-20.41C512.02,-22.93 518.2,-25.82 523.75,-29 543.27,-40.19 563.29,-56.1 577.48,-68.27"/>
<polygon fill="#63b8ff" stroke="#63b8ff" points="574.93,-70.69 584.76,-74.64 579.54,-65.42 574.93,-70.69"/>
</a>
</g>
</g>
<!-- Node8&#45;&gt;Node6 -->
<g id="edge11_Node000008_Node000006" class="edge">
<title>Node8&#45;&gt;Node6</title>
<g id="a_edge11_Node000008_Node000006"><a xlink:title=" ">
<path fill="none" stroke="#63b8ff" d="M227.98,-20.48C244.09,-24.85 262.99,-29.96 280.09,-34.59"/>
<polygon fill="#63b8ff" stroke="#63b8ff" points="278.99,-37.92 289.56,-37.15 280.82,-31.16 278.99,-37.92"/>
</a>
</g>
</g>
<!-- Node8&#45;&gt;Node7 -->
<g id="edge10_Node000008_Node000007" class="edge">
<title>Node8&#45;&gt;Node7</title>
<g id="a_edge10_Node000008_Node000007"><a xlink:title=" ">
<path fill="none" stroke="#63b8ff" d="M234.72,-10C288.05,-10 375.91,-10 429.1,-10"/>
<polygon fill="#63b8ff" stroke="#63b8ff" points="429.03,-13.5 439.03,-10 429.03,-6.5 429.03,-13.5"/>
</a>
</g>
</g>
</g>
</svg>
