<?xml version="1.0" encoding="UTF-8" standalone="no"?>
<!DOCTYPE svg PUBLIC "-//W3C//DTD SVG 1.1//EN"
 "http://www.w3.org/Graphics/SVG/1.1/DTD/svg11.dtd">
<!-- Generated by graphviz version 14.1.4 (20260321.0153)
 -->
<!-- Title: sd_fat_mount Pages: 1 -->
<svg width="301pt" height="28pt"
 viewBox="0.00 0.00 301.00 28.00" xmlns="http://www.w3.org/2000/svg" xmlns:xlink="http://www.w3.org/1999/xlink">
<g id="graph0" class="graph" transform="scale(1 1) rotate(0) translate(4 24)">
<title>sd_fat_mount</title>
<!-- Node1 -->
<g id="Node000001" class="node">
<title>Node1</title>
<g id="a_Node000001"><a xlink:title="Localiza e monta o sistema de arquivos FAT32 no cartão SD.">
<polygon fill="#999999" stroke="#666666" points="75.25,-20 0,-20 0,0 75.25,0 75.25,-20"/>
<text xml:space="preserve" text-anchor="middle" x="37.62" y="-6.5" font-family="Helvetica,sans-Serif" font-size="10.00">sd_fat_mount</text>
</a>
</g>
</g>
<!-- Node2 -->
<g id="Node000002" class="node">
<title>Node2</title>
<g id="a_Node000002"><a xlink:href="sdcard_8c.html#aba9c8b9a5590e13424ab4a69280f0c1d" target="_top" xlink:title="Lê um único bloco de 512 bytes do cartão (LBA).">
<polygon fill="white" stroke="#666666" points="179.75,-20 111.25,-20 111.25,0 179.75,0 179.75,-20"/>
<text xml:space="preserve" text-anchor="middle" x="145.5" y="-6.5" font-family="Helvetica,sans-Serif" font-size="10.00">sd_blk_read</text>
</a>
</g>
</g>
<!-- Node1&#45;&gt;Node2 -->
<g id="edge1_Node000001_Node000002" class="edge">
<title>Node1&#45;&gt;Node2</title>
<g id="a_edge1_Node000001_Node000002"><a xlink:title=" ">
<path fill="none" stroke="#63b8ff" d="M75.65,-10C83.35,-10 91.53,-10 99.48,-10"/>
<polygon fill="#63b8ff" stroke="#63b8ff" points="99.34,-13.5 109.34,-10 99.34,-6.5 99.34,-13.5"/>
</a>
</g>
</g>
<!-- Node3 -->
<g id="Node000003" class="node">
<title>Node3</title>
<g id="a_Node000003"><a xlink:href="sdcard_8c.html#aae1cfbcba5f92f4639e23fd8ed8fa3c0" target="_top" xlink:title="Envia um comando SPI para o cartão SD e aguarda resposta R1.">
<polygon fill="white" stroke="#666666" points="292.5,-20 215.75,-20 215.75,0 292.5,0 292.5,-20"/>
<text xml:space="preserve" text-anchor="middle" x="254.12" y="-6.5" font-family="Helvetica,sans-Serif" font-size="10.00">sd_cmd_send</text>
</a>
</g>
</g>
<!-- Node2&#45;&gt;Node3 -->
<g id="edge2_Node000002_Node000003" class="edge">
<title>Node2&#45;&gt;Node3</title>
<g id="a_edge2_Node000002_Node000003"><a xlink:title=" ">
<path fill="none" stroke="#63b8ff" d="M180.24,-10C187.87,-10 196.12,-10 204.23,-10"/>
<polygon fill="#63b8ff" stroke="#63b8ff" points="204.02,-13.5 214.02,-10 204.02,-6.5 204.02,-13.5"/>
</a>
</g>
</g>
</g>
</svg>
