<?xml version="1.0" encoding="UTF-8" standalone="no"?>
<!DOCTYPE svg PUBLIC "-//W3C//DTD SVG 1.1//EN"
 "http://www.w3.org/Graphics/SVG/1.1/DTD/svg11.dtd">
<!-- Generated by graphviz version 14.1.4 (20260321.0153)
 -->
<!-- Title: sd_init_retry Pages: 1 -->
<svg width="307pt" height="78pt"
 viewBox="0.00 0.00 307.00 78.00" xmlns="http://www.w3.org/2000/svg" xmlns:xlink="http://www.w3.org/1999/xlink">
<g id="graph0" class="graph" transform="scale(1 1) rotate(0) translate(4 74)">
<title>sd_init_retry</title>
<!-- Node1 -->
<g id="Node000001" class="node">
<title>Node1</title>
<g id="a_Node000001"><a xlink:title="Tenta inicializar o cartão at 3 vezes com delay entre tentativas.">
<polygon fill="#999999" stroke="#666666" points="69.25,-42 0,-42 0,-22 69.25,-22 69.25,-42"/>
<text xml:space="preserve" text-anchor="middle" x="34.62" y="-28.5" font-family="Helvetica,sans-Serif" font-size="10.00">sd_init_retry</text>
</a>
</g>
</g>
<!-- Node2 -->
<g id="Node000002" class="node">
<title>Node2</title>
<g id="a_Node000002"><a xlink:href="sdcard_8c.html#a6a8f9df03a1b222e8ea45199b7431e19" target="_top" xlink:title="Inicializa o cartão SD no modo SPI.">
<polygon fill="white" stroke="#666666" points="149.75,-42 105.25,-42 105.25,-22 149.75,-22 149.75,-42"/>
<text xml:space="preserve" text-anchor="middle" x="127.5" y="-28.5" font-family="Helvetica,sans-Serif" font-size="10.00">sd_init</text>
</a>
</g>
</g>
<!-- Node1&#45;&gt;Node2 -->
<g id="edge1_Node000001_Node000002" class="edge">
<title>Node1&#45;&gt;Node2</title>
<g id="a_edge1_Node000001_Node000002"><a xlink:title=" ">
<path fill="none" stroke="#63b8ff" d="M69.72,-32C77.55,-32 85.85,-32 93.63,-32"/>
<polygon fill="#63b8ff" stroke="#63b8ff" points="93.37,-35.5 103.37,-32 93.37,-28.5 93.37,-35.5"/>
</a>
</g>
</g>
<!-- Node3 -->
<g id="Node000003" class="node">
<title>Node3</title>
<g id="a_Node000003"><a xlink:href="sdcard_8c.html#abf6c02ac2130c37a0bff2e6b9a6c25cb" target="_top" xlink:title="Configura a velocidade do SPI no AVR (função interna).">
<polygon fill="white" stroke="#666666" points="299.25,-70 185.75,-70 185.75,-38 299.25,-38 299.25,-70"/>
<text xml:space="preserve" text-anchor="start" x="193.75" y="-56.5" font-family="Helvetica,sans-Serif" font-size="10.00">sd_avr_spi_set_speed</text>
<text xml:space="preserve" text-anchor="middle" x="242.5" y="-44.5" font-family="Helvetica,sans-Serif" font-size="10.00">_default</text>
</a>
</g>
</g>
<!-- Node2&#45;&gt;Node3 -->
<g id="edge2_Node000002_Node000003" class="edge">
<title>Node2&#45;&gt;Node3</title>
<g id="a_edge2_Node000002_Node000003"><a xlink:title=" ">
<path fill="none" stroke="#63b8ff" d="M150.02,-36.19C157.13,-37.57 165.47,-39.2 174.16,-40.89"/>
<polygon fill="#63b8ff" stroke="#63b8ff" points="173.32,-44.29 183.8,-42.77 174.66,-37.42 173.32,-44.29"/>
</a>
</g>
</g>
<!-- Node4 -->
<g id="Node000004" class="node">
<title>Node4</title>
<g id="a_Node000004"><a xlink:href="sdcard_8c.html#aae1cfbcba5f92f4639e23fd8ed8fa3c0" target="_top" xlink:title="Envia um comando SPI para o cartão SD e aguarda resposta R1.">
<polygon fill="white" stroke="#666666" points="280.88,-20 204.12,-20 204.12,0 280.88,0 280.88,-20"/>
<text xml:space="preserve" text-anchor="middle" x="242.5" y="-6.5" font-family="Helvetica,sans-Serif" font-size="10.00">sd_cmd_send</text>
</a>
</g>
</g>
<!-- Node2&#45;&gt;Node4 -->
<g id="edge3_Node000002_Node000004" class="edge">
<title>Node2&#45;&gt;Node4</title>
<g id="a_edge3_Node000002_Node000004"><a xlink:title=" ">
<path fill="none" stroke="#63b8ff" d="M150.02,-27.81C162.17,-25.45 177.86,-22.39 192.82,-19.48"/>
<polygon fill="#63b8ff" stroke="#63b8ff" points="193.41,-22.93 202.55,-17.58 192.07,-16.06 193.41,-22.93"/>
</a>
</g>
</g>
</g>
</svg>
