<?xml version="1.0" encoding="UTF-8" standalone="no"?>
<!DOCTYPE svg PUBLIC "-//W3C//DTD SVG 1.1//EN"
 "http://www.w3.org/Graphics/SVG/1.1/DTD/svg11.dtd">
<!-- Generated by graphviz version 14.1.4 (20260321.0153)
 -->
<!-- Title: sd_file_append_stream Pages: 1 -->
<!--zoomable 296 -->

<svg id="main" version="1.1" xmlns="http://www.w3.org/2000/svg" xmlns:xlink="http://www.w3.org/1999/xlink" xml:space="preserve" onload="init(evt)">

<style type="text/css"><![CDATA[
.node, .edge {opacity: 0.7;}
.node.selected, .edge.selected {opacity: 1;}
.edge:hover path { stroke: red; }
.edge:hover polygon { stroke: red; fill: red; }
]]></style>

<defs>
  <circle id="rim" cx="0" cy="0" r="7"/>
  <circle id="rim2" cx="0" cy="0" r="3.5"/>
  <g id="zoomPlus">
    <use xlink:href="#rim" fill="#404040"><set attributeName="fill" to="#808080" begin="zoomplus.mouseover" end="zoomplus.mouseout"/></use>
    <path d="M-4,0h8M0,-4v8" fill="none" stroke="white" stroke-width="1.5" pointer-events="none"/>
  </g>
  <g id="zoomMin">
    <use xlink:href="#rim" fill="#404040"><set attributeName="fill" to="#808080" begin="zoomminus.mouseover" end="zoomminus.mouseout"/></use>
    <path d="M-4,0h8" fill="none" stroke="white" stroke-width="1.5" pointer-events="none"/>
  </g>
  <g id="arrowUp" transform="translate(30 24)">
    <use xlink:href="#rim"/>
    <path pointer-events="none" fill="none" stroke="white" stroke-width="1.5" d="M0,-3.0v7 M-2.5,-0.5L0,-3.0L2.5,-0.5"/>
  </g>
  <g id="arrowRight" transform="rotate(90) translate(36 -43)">
    <use xlink:href="#rim"/>
    <path pointer-events="none" fill="none" stroke="white" stroke-width="1.5" d="M0,-3.0v7 M-2.5,-0.5L0,-3.0L2.5,-0.5"/>
  </g>
  <g id="arrowDown" transform="rotate(180) translate(-30 -48)">
    <use xlink:href="#rim"/>
    <path pointer-events="none" fill="none" stroke="white" stroke-width="1.5" d="M0,-3.0v7 M-2.5,-0.5L0,-3.0L2.5,-0.5"/>
  </g>
  <g id="arrowLeft" transform="rotate(270) translate(-36 17)">
    <use xlink:href="#rim"/>
    <path pointer-events="none" fill="none" stroke="white" stroke-width="1.5" d="M0,-3.0v7 M-2.5,-0.5L0,-3.0L2.5,-0.5"/>
  </g>
  <g id="resetDef">
    <use xlink:href="#rim2" fill="#404040"><set attributeName="fill" to="#808080" begin="reset.mouseover" end="reset.mouseout"/></use>
  </g>
</defs>
<script type="application/ecmascript">
var viewWidth = 938;
var viewHeight = 296;
var sectionId = 'dynsection-8';
</script>
<script type="application/ecmascript" xlink:href="svg.min.js"/>
<svg id="graph" class="graph">
<g id="viewport">
<title>sd_file_append_stream</title>
<!-- Node1 -->
<g id="Node000001" class="node">
<title>Node1</title>
<g id="a_Node000001"><a xlink:title="Adiciona dados ao final de um arquivo, expandindo clusters se necessário.">
<polygon fill="#999999" stroke="#666666" points="116.5,-140.09 0,-140.09 0,-120.09 116.5,-120.09 116.5,-140.09"/>
<text xml:space="preserve" text-anchor="middle" x="58.25" y="-126.59" font-family="Helvetica,sans-Serif" font-size="10.00">sd_file_append_stream</text>
</a>
</g>
</g>
<!-- Node2 -->
<g id="Node000002" class="node">
<title>Node2</title>
<g id="a_Node000002"><a xlink:href="sdcard_8c.html#aba9c8b9a5590e13424ab4a69280f0c1d" target="_top" xlink:title="Lê um único bloco de 512 bytes do cartão (LBA).">
<polygon fill="white" stroke="#666666" points="682.62,-194.09 614.12,-194.09 614.12,-174.09 682.62,-174.09 682.62,-194.09"/>
<text xml:space="preserve" text-anchor="middle" x="648.38" y="-180.59" font-family="Helvetica,sans-Serif" font-size="10.00">sd_blk_read</text>
</a>
</g>
</g>
<!-- Node1&#45;&gt;Node2 -->
<g id="edge1_Node000001_Node000002" class="edge">
<title>Node1&#45;&gt;Node2</title>
<g id="a_edge1_Node000001_Node000002"><a xlink:title=" ">
<path fill="none" stroke="#63b8ff" d="M66.55,-140.53C80.65,-159.79 113.7,-200.62 152.5,-219.09 323.15,-300.31 399.66,-309.42 577,-244.09 599.25,-235.89 619.24,-217.19 632.18,-202.83"/>
<polygon fill="#63b8ff" stroke="#63b8ff" points="634.77,-205.18 638.63,-195.32 629.46,-200.62 634.77,-205.18"/>
</a>
</g>
</g>
<!-- Node4 -->
<g id="Node000004" class="node">
<title>Node4</title>
<g id="a_Node000004"><a xlink:href="sdcard_8c.html#ac6d558621f33abf80f245adb3d0f4e67" target="_top" xlink:title="Escreve um único bloco de 512 bytes.">
<polygon fill="white" stroke="#666666" points="683.75,-88.09 613,-88.09 613,-68.09 683.75,-68.09 683.75,-88.09"/>
<text xml:space="preserve" text-anchor="middle" x="648.38" y="-74.59" font-family="Helvetica,sans-Serif" font-size="10.00">sd_blk_write</text>
</a>
</g>
</g>
<!-- Node1&#45;&gt;Node4 -->
<g id="edge3_Node000001_Node000004" class="edge">
<title>Node1&#45;&gt;Node4</title>
<g id="a_edge3_Node000001_Node000004"><a xlink:title=" ">
<path fill="none" stroke="#63b8ff" d="M64.8,-119.9C77.19,-98.4 109.4,-48.83 152.5,-30.09 312.57,39.51 528.52,-30.78 612.21,-63.4"/>
<polygon fill="#63b8ff" stroke="#63b8ff" points="610.9,-66.65 621.48,-67.08 613.48,-60.14 610.9,-66.65"/>
</a>
</g>
</g>
<!-- Node7 -->
<g id="Node000007" class="node">
<title>Node7</title>
<g id="a_Node000007"><a xlink:href="sdcard_8c.html#afa6b333a50132b6be29e88aa75fd90f1" target="_top" xlink:title="Aloca um cluster livre na FAT32 utilizando busca circular otimizada.">
<polygon fill="white" stroke="#666666" points="420.75,-121.09 317.75,-121.09 317.75,-101.09 420.75,-101.09 420.75,-121.09"/>
<text xml:space="preserve" text-anchor="middle" x="369.25" y="-107.59" font-family="Helvetica,sans-Serif" font-size="10.00">sd_fat_alloc_cluster</text>
</a>
</g>
</g>
<!-- Node1&#45;&gt;Node7 -->
<g id="edge8_Node000001_Node000007" class="edge">
<title>Node1&#45;&gt;Node7</title>
<g id="a_edge8_Node000001_Node000007"><a xlink:title=" ">
<path fill="none" stroke="#63b8ff" d="M116.65,-126.56C170.42,-123.25 250.58,-118.32 305.9,-114.92"/>
<polygon fill="#63b8ff" stroke="#63b8ff" points="306.03,-118.42 315.8,-114.31 305.6,-111.43 306.03,-118.42"/>
</a>
</g>
</g>
<!-- Node8 -->
<g id="Node000008" class="node">
<title>Node8</title>
<g id="a_Node000008"><a xlink:href="sdcard_8c.html#a144349126da9cc0bcd1dd34243989e98" target="_top" xlink:title="Atualiza uma entrada na Tabela de Alocação de Arquivos (FAT).">
<polygon fill="white" stroke="#666666" points="565,-83.09 468.75,-83.09 468.75,-63.09 565,-63.09 565,-83.09"/>
<text xml:space="preserve" text-anchor="middle" x="516.88" y="-69.59" font-family="Helvetica,sans-Serif" font-size="10.00">sd_fat_write_entry</text>
</a>
</g>
</g>
<!-- Node1&#45;&gt;Node8 -->
<g id="edge18_Node000001_Node000008" class="edge">
<title>Node1&#45;&gt;Node8</title>
<g id="a_edge18_Node000001_Node000008"><a xlink:title=" ">
<path fill="none" stroke="#63b8ff" d="M67.66,-119.64C82.56,-102.07 115.51,-67.25 152.5,-54.09 261.25,-15.38 399.88,-41.61 470.33,-59.8"/>
<polygon fill="#63b8ff" stroke="#63b8ff" points="469.01,-63.07 479.58,-62.25 470.81,-56.3 469.01,-63.07"/>
</a>
</g>
</g>
<!-- Node9 -->
<g id="Node000009" class="node">
<title>Node9</title>
<g id="a_Node000009"><a xlink:href="sdcard_8c.html#a7e010bc4f9f46359dcefc007d522f58a" target="_top" xlink:title="Aloca um novo cluster e o encadeia ao final de uma sequência existente.">
<polygon fill="white" stroke="#666666" points="281.75,-83.09 152.5,-83.09 152.5,-63.09 281.75,-63.09 281.75,-83.09"/>
<text xml:space="preserve" text-anchor="middle" x="217.12" y="-69.59" font-family="Helvetica,sans-Serif" font-size="10.00">sd_fat_chain_new_cluster</text>
</a>
</g>
</g>
<!-- Node1&#45;&gt;Node9 -->
<g id="edge13_Node000001_Node000009" class="edge">
<title>Node1&#45;&gt;Node9</title>
<g id="a_edge13_Node000001_Node000009"><a xlink:title=" ">
<path fill="none" stroke="#63b8ff" d="M88.02,-119.63C112.93,-110.58 149.2,-97.41 176.79,-87.38"/>
<polygon fill="#63b8ff" stroke="#63b8ff" points="177.64,-90.79 185.85,-84.09 175.25,-84.21 177.64,-90.79"/>
</a>
</g>
</g>
<!-- Node10 -->
<g id="Node000010" class="node">
<title>Node10</title>
<g id="a_Node000010"><a xlink:href="sdcard_8c.html#a7b0d2ab1fae193461c611a4f2e6c9245" target="_top" xlink:title="Obtém o próximo cluster na tabela FAT.">
<polygon fill="white" stroke="#666666" points="577,-235.09 456.75,-235.09 456.75,-215.09 577,-215.09 577,-235.09"/>
<text xml:space="preserve" text-anchor="middle" x="516.88" y="-221.59" font-family="Helvetica,sans-Serif" font-size="10.00">sd_fat_get_next_cluster</text>
</a>
</g>
</g>
<!-- Node1&#45;&gt;Node10 -->
<g id="edge16_Node000001_Node000010" class="edge">
<title>Node1&#45;&gt;Node10</title>
<g id="a_edge16_Node000001_Node000010"><a xlink:title=" ">
<path fill="none" stroke="#63b8ff" d="M70.89,-140.46C87.61,-154.67 119.99,-179.72 152.5,-191.09 249.93,-225.15 370.49,-229.63 445.3,-228.38"/>
<polygon fill="#63b8ff" stroke="#63b8ff" points="445.01,-231.89 454.93,-228.18 444.86,-224.89 445.01,-231.89"/>
</a>
</g>
</g>
<!-- Node11 -->
<g id="Node000011" class="node">
<title>Node11</title>
<g id="a_Node000011"><a xlink:href="sdcard_8c.html#afba53615c129e4e1a3ca0dd1c272ab11" target="_top" xlink:title=" ">
<polygon fill="white" stroke="#666666" points="268.25,-159.09 166,-159.09 166,-139.09 268.25,-139.09 268.25,-159.09"/>
<text xml:space="preserve" text-anchor="middle" x="217.12" y="-145.59" font-family="Helvetica,sans-Serif" font-size="10.00">sd_file_update_size</text>
</a>
</g>
</g>
<!-- Node1&#45;&gt;Node11 -->
<g id="edge19_Node000001_Node000011" class="edge">
<title>Node1&#45;&gt;Node11</title>
<g id="a_edge19_Node000001_Node000011"><a xlink:title=" ">
<path fill="none" stroke="#63b8ff" d="M116.77,-137.05C129.03,-138.54 142.01,-140.11 154.41,-141.61"/>
<polygon fill="#63b8ff" stroke="#63b8ff" points="153.75,-145.06 164.1,-142.79 154.59,-138.11 153.75,-145.06"/>
</a>
</g>
</g>
<!-- Node12 -->
<g id="Node000012" class="node">
<title>Node12</title>
<g id="a_Node000012"><a xlink:href="sdcard_8c.html#a3794ef278970bdb3d1d50b3f10fc4e9f" target="_top" xlink:title="Localiza a entrada de um arquivo no diretório raiz.">
<polygon fill="white" stroke="#666666" points="415.5,-197.09 323,-197.09 323,-177.09 415.5,-177.09 415.5,-197.09"/>
<text xml:space="preserve" text-anchor="middle" x="369.25" y="-183.59" font-family="Helvetica,sans-Serif" font-size="10.00">sd_find_file_entry</text>
</a>
</g>
</g>
<!-- Node1&#45;&gt;Node12 -->
<g id="edge24_Node000001_Node000012" class="edge">
<title>Node1&#45;&gt;Node12</title>
<g id="a_edge24_Node000001_Node000012"><a xlink:title=" ">
<path fill="none" stroke="#63b8ff" d="M79.76,-140.54C98.27,-149.45 126.5,-161.8 152.5,-168.09 205.34,-180.87 267.31,-185.28 311.25,-186.69"/>
<polygon fill="#63b8ff" stroke="#63b8ff" points="310.97,-190.18 321.06,-186.96 311.16,-183.18 310.97,-190.18"/>
</a>
</g>
</g>
<!-- Node3 -->
<g id="Node000003" class="node">
<title>Node3</title>
<g id="a_Node000003"><a xlink:href="sdcard_8c.html#aae1cfbcba5f92f4639e23fd8ed8fa3c0" target="_top" xlink:title="Envia um comando SPI para o cartão SD e aguarda resposta R1.">
<polygon fill="white" stroke="#666666" points="929.5,-145.09 852.75,-145.09 852.75,-125.09 929.5,-125.09 929.5,-145.09"/>
<text xml:space="preserve" text-anchor="middle" x="891.12" y="-131.59" font-family="Helvetica,sans-Serif" font-size="10.00">sd_cmd_send</text>
</a>
</g>
</g>
<!-- Node2&#45;&gt;Node3 -->
<g id="edge2_Node000002_Node000003" class="edge">
<title>Node2&#45;&gt;Node3</title>
<g id="a_edge2_Node000002_Node000003"><a xlink:title=" ">
<path fill="none" stroke="#63b8ff" d="M683.1,-177.22C724.23,-168.85 794.06,-154.64 841.12,-145.06"/>
<polygon fill="#63b8ff" stroke="#63b8ff" points="841.68,-148.52 850.78,-143.1 840.28,-141.66 841.68,-148.52"/>
</a>
</g>
</g>
<!-- Node4&#45;&gt;Node3 -->
<g id="edge4_Node000004_Node000003" class="edge">
<title>Node4&#45;&gt;Node3</title>
<g id="a_edge4_Node000004_Node000003"><a xlink:title=" ">
<path fill="none" stroke="#63b8ff" d="M664.54,-88.51C678.3,-97.41 699.47,-109.75 719.75,-116.09 759.43,-128.5 806.55,-133.02 841.16,-134.57"/>
<polygon fill="#63b8ff" stroke="#63b8ff" points="840.75,-138.06 850.88,-134.93 841.02,-131.06 840.75,-138.06"/>
</a>
</g>
</g>
<!-- Node5 -->
<g id="Node000005" class="node">
<title>Node5</title>
<g id="a_Node000005"><a xlink:href="sdcard_8c.html#afcdb9112d386e92b29ad0cac9f5fc277" target="_top" xlink:title="Obtém o status atual do cartão SD (comando CMD13).">
<polygon fill="white" stroke="#666666" points="807,-107.09 729.5,-107.09 729.5,-87.09 807,-87.09 807,-107.09"/>
<text xml:space="preserve" text-anchor="middle" x="768.25" y="-93.59" font-family="Helvetica,sans-Serif" font-size="10.00">sd_get_status</text>
</a>
</g>
</g>
<!-- Node4&#45;&gt;Node5 -->
<g id="edge5_Node000004_Node000005" class="edge">
<title>Node4&#45;&gt;Node5</title>
<g id="a_edge5_Node000004_Node000005"><a xlink:title=" ">
<path fill="none" stroke="#63b8ff" d="M684.1,-83.69C694.7,-85.39 706.56,-87.3 717.92,-89.14"/>
<polygon fill="#63b8ff" stroke="#63b8ff" points="717.14,-92.55 727.57,-90.69 718.25,-85.64 717.14,-92.55"/>
</a>
</g>
</g>
<!-- Node6 -->
<g id="Node000006" class="node">
<title>Node6</title>
<g id="a_Node000006"><a xlink:href="sdcard_8c.html#a8c2c0ebbeee0d06d43335bc9df4b3142" target="_top" xlink:title="Aguarda o cartão sair do estado de ocupado (busy).">
<polygon fill="white" stroke="#666666" points="816.75,-69.09 719.75,-69.09 719.75,-49.09 816.75,-49.09 816.75,-69.09"/>
<text xml:space="preserve" text-anchor="middle" x="768.25" y="-55.59" font-family="Helvetica,sans-Serif" font-size="10.00">sd_spi_wait_ready</text>
</a>
</g>
</g>
<!-- Node4&#45;&gt;Node6 -->
<g id="edge7_Node000004_Node000006" class="edge">
<title>Node4&#45;&gt;Node6</title>
<g id="a_edge7_Node000004_Node000006"><a xlink:title=" ">
<path fill="none" stroke="#63b8ff" d="M684.1,-72.49C691.76,-71.26 700.08,-69.91 708.39,-68.57"/>
<polygon fill="#63b8ff" stroke="#63b8ff" points="708.86,-72.04 718.17,-67 707.74,-65.13 708.86,-72.04"/>
</a>
</g>
</g>
<!-- Node5&#45;&gt;Node3 -->
<g id="edge6_Node000005_Node000003" class="edge">
<title>Node5&#45;&gt;Node3</title>
<g id="a_edge6_Node000005_Node000003"><a xlink:title=" ">
<path fill="none" stroke="#63b8ff" d="M802.6,-107.57C816.08,-111.81 831.82,-116.76 846.2,-121.28"/>
<polygon fill="#63b8ff" stroke="#63b8ff" points="844.85,-124.52 855.44,-124.18 846.95,-117.85 844.85,-124.52"/>
</a>
</g>
</g>
<!-- Node7&#45;&gt;Node2 -->
<g id="edge9_Node000007_Node000002" class="edge">
<title>Node7&#45;&gt;Node2</title>
<g id="a_edge9_Node000007_Node000002"><a xlink:title=" ">
<path fill="none" stroke="#63b8ff" d="M409.96,-121.55C461.09,-135.02 549.72,-158.36 603.02,-172.4"/>
<polygon fill="#63b8ff" stroke="#63b8ff" points="601.81,-175.7 612.37,-174.87 603.59,-168.93 601.81,-175.7"/>
</a>
</g>
</g>
<!-- Node7&#45;&gt;Node8 -->
<g id="edge10_Node000007_Node000008" class="edge">
<title>Node7&#45;&gt;Node8</title>
<g id="a_edge10_Node000007_Node000008"><a xlink:title=" ">
<path fill="none" stroke="#63b8ff" d="M410.43,-100.6C427.22,-96.22 446.93,-91.08 464.74,-86.43"/>
<polygon fill="#63b8ff" stroke="#63b8ff" points="465.57,-89.83 474.36,-83.92 463.8,-83.06 465.57,-89.83"/>
</a>
</g>
</g>
<!-- Node8&#45;&gt;Node2 -->
<g id="edge11_Node000008_Node000002" class="edge">
<title>Node8&#45;&gt;Node2</title>
<g id="a_edge11_Node000008_Node000002"><a xlink:title=" ">
<path fill="none" stroke="#63b8ff" d="M529.83,-83.33C551.99,-102.33 599.7,-143.22 627.03,-166.65"/>
<polygon fill="#63b8ff" stroke="#63b8ff" points="624.43,-169.03 634.3,-172.88 628.99,-163.72 624.43,-169.03"/>
</a>
</g>
</g>
<!-- Node8&#45;&gt;Node4 -->
<g id="edge12_Node000008_Node000004" class="edge">
<title>Node8&#45;&gt;Node4</title>
<g id="a_edge12_Node000008_Node000004"><a xlink:title=" ">
<path fill="none" stroke="#63b8ff" d="M565.36,-74.92C577.16,-75.38 589.79,-75.86 601.51,-76.32"/>
<polygon fill="#63b8ff" stroke="#63b8ff" points="601.23,-79.81 611.36,-76.7 601.5,-72.81 601.23,-79.81"/>
</a>
</g>
</g>
<!-- Node9&#45;&gt;Node7 -->
<g id="edge14_Node000009_Node000007" class="edge">
<title>Node9&#45;&gt;Node7</title>
<g id="a_edge14_Node000009_Node000007"><a xlink:title=" ">
<path fill="none" stroke="#63b8ff" d="M259.54,-83.57C277.02,-88 297.56,-93.19 316.06,-97.88"/>
<polygon fill="#63b8ff" stroke="#63b8ff" points="314.95,-101.21 325.5,-100.27 316.66,-94.42 314.95,-101.21"/>
</a>
</g>
</g>
<!-- Node9&#45;&gt;Node8 -->
<g id="edge15_Node000009_Node000008" class="edge">
<title>Node9&#45;&gt;Node8</title>
<g id="a_edge15_Node000009_Node000008"><a xlink:title=" ">
<path fill="none" stroke="#63b8ff" d="M282,-73.09C334,-73.09 406.8,-73.09 457.31,-73.09"/>
<polygon fill="#63b8ff" stroke="#63b8ff" points="457.17,-76.59 467.17,-73.09 457.17,-69.59 457.17,-76.59"/>
</a>
</g>
</g>
<!-- Node10&#45;&gt;Node2 -->
<g id="edge17_Node000010_Node000002" class="edge">
<title>Node10&#45;&gt;Node2</title>
<g id="a_edge17_Node000010_Node000002"><a xlink:title=" ">
<path fill="none" stroke="#63b8ff" d="M550.89,-214.64C566.87,-209.58 586.28,-203.43 603.49,-197.98"/>
<polygon fill="#63b8ff" stroke="#63b8ff" points="604.5,-201.33 612.98,-194.98 602.39,-194.66 604.5,-201.33"/>
</a>
</g>
</g>
<!-- Node11&#45;&gt;Node4 -->
<g id="edge20_Node000011_Node000004" class="edge">
<title>Node11&#45;&gt;Node4</title>
<g id="a_edge20_Node000011_Node000004"><a xlink:title=" ">
<path fill="none" stroke="#63b8ff" d="M268.74,-146.2C309.87,-143.41 369.3,-138.37 420.75,-130.09 484.13,-119.89 556.22,-102.3 601.74,-90.43"/>
<polygon fill="#63b8ff" stroke="#63b8ff" points="602.47,-93.86 611.25,-87.93 600.69,-87.09 602.47,-93.86"/>
</a>
</g>
</g>
<!-- Node11&#45;&gt;Node12 -->
<g id="edge21_Node000011_Node000012" class="edge">
<title>Node11&#45;&gt;Node12</title>
<g id="a_edge21_Node000011_Node000012"><a xlink:title=" ">
<path fill="none" stroke="#63b8ff" d="M259.54,-159.57C277.02,-164 297.56,-169.19 316.06,-173.88"/>
<polygon fill="#63b8ff" stroke="#63b8ff" points="314.95,-177.21 325.5,-176.27 316.66,-170.42 314.95,-177.21"/>
</a>
</g>
</g>
<!-- Node12&#45;&gt;Node2 -->
<g id="edge22_Node000012_Node000002" class="edge">
<title>Node12&#45;&gt;Node2</title>
<g id="a_edge22_Node000012_Node000002"><a xlink:title=" ">
<path fill="none" stroke="#63b8ff" d="M415.7,-186.6C467.27,-186.04 550.87,-185.13 602.29,-184.58"/>
<polygon fill="#63b8ff" stroke="#63b8ff" points="602.21,-188.08 612.17,-184.47 602.13,-181.08 602.21,-188.08"/>
</a>
</g>
</g>
<!-- Node12&#45;&gt;Node10 -->
<g id="edge23_Node000012_Node000010" class="edge">
<title>Node12&#45;&gt;Node10</title>
<g id="a_edge23_Node000012_Node000010"><a xlink:title=" ">
<path fill="none" stroke="#63b8ff" d="M410.43,-197.57C427.22,-201.95 446.93,-207.1 464.74,-211.74"/>
<polygon fill="#63b8ff" stroke="#63b8ff" points="463.8,-215.12 474.36,-214.26 465.57,-208.34 463.8,-215.12"/>
</a>
</g>
</g>
</g>
</svg>

<g id="navigator" transform="translate(0 0)" fill="#404254">
  <rect fill="#f2f5e9" fill-opacity="0.5" stroke="#606060" stroke-width=".5" x="0" y="0" width="60" height="60"/>
  <use id="zoomplus" xlink:href="#zoomPlus" x="17" y="9" onmousedown="handleZoom(evt,'in')"/>
  <use id="zoomminus" xlink:href="#zoomMin" x="42" y="9" onmousedown="handleZoom(evt,'out')"/>
  <use id="reset" xlink:href="#resetDef" x="30" y="36" onmousedown="handleReset()"/>
   <use id="arrowup" xlink:href="#arrowUp" x="0" y="0" onmousedown="handlePan(0,-1)"/>
  <use id="arrowright" xlink:href="#arrowRight" x="0" y="0" onmousedown="handlePan(1,0)"/>
  <use id="arrowdown" xlink:href="#arrowDown" x="0" y="0" onmousedown="handlePan(0,1)"/>
  <use id="arrowleft" xlink:href="#arrowLeft" x="0" y="0" onmousedown="handlePan(-1,0)"/>
</g>
<svg viewBox="0 0 15 15" width="100%" height="30px" preserveAspectRatio="xMaxYMin meet">
 <g id="arrow_out" transform="scale(0.3 0.3)">
  <a xlink:href="sdcard_8h_a3cb6e9bbb79a21ebf8cf7357ed262726_cgraph_org.svg" target="_base">
   <rect id="button" ry="5" rx="5" y="6" x="6" height="38" width="38"
        fill="#f2f5e9" fill-opacity="0.5" stroke="#606060" stroke-width="1.0"/>
   <path id="arrow"
     d="M 11.500037,31.436501 C 11.940474,20.09759 22.043105,11.32322 32.158766,21.979434 L 37.068811,17.246167 C 37.068811,17.246167 37.088388,32 37.088388,32 L 22.160133,31.978069 C 22.160133,31.978069 26.997745,27.140456 26.997745,27.140456 C 18.528582,18.264221 13.291696,25.230495 11.500037,31.436501 z"
     style="fill:#404040;"/>
  </a>
 </g>
</svg>

<style type='text/css'>
<![CDATA[
[data-mouse-over-selected='false'] { opacity: 0.7; }
[data-mouse-over-selected='true']  { opacity: 1.0; }
]]>
</style>
<script type="application/ecmascript"><![CDATA[
document.addEventListener('DOMContentLoaded', (event) => {
  highlightEdges();
  highlightAdjacentNodes();
});
]]></script>
</svg>
