<?xml version="1.0" encoding="UTF-8" standalone="no"?>
<!DOCTYPE svg PUBLIC "-//W3C//DTD SVG 1.1//EN"
 "http://www.w3.org/Graphics/SVG/1.1/DTD/svg11.dtd">
<!-- Generated by graphviz version 14.1.4 (20260321.0153)
 -->
<!-- Title: sd_file_delete Pages: 1 -->
<svg width="593pt" height="159pt"
 viewBox="0.00 0.00 593.00 159.00" xmlns="http://www.w3.org/2000/svg" xmlns:xlink="http://www.w3.org/1999/xlink">
<g id="graph0" class="graph" transform="scale(1 1) rotate(0) translate(4 154.75)">
<title>sd_file_delete</title>
<!-- Node1 -->
<g id="Node000001" class="node">
<title>Node1</title>
<g id="a_Node000001"><a xlink:title="Exclui um arquivo do diretório e libera seu espaço no disco.">
<polygon fill="#999999" stroke="#666666" points="76,-115 0,-115 0,-95 76,-95 76,-115"/>
<text xml:space="preserve" text-anchor="middle" x="38" y="-101.5" font-family="Helvetica,sans-Serif" font-size="10.00">sd_file_delete</text>
</a>
</g>
</g>
<!-- Node2 -->
<g id="Node000002" class="node">
<title>Node2</title>
<g id="a_Node000002"><a xlink:href="sdcard_8c.html#aba9c8b9a5590e13424ab4a69280f0c1d" target="_top" xlink:title="Lê um único bloco de 512 bytes do cartão (LBA).">
<polygon fill="white" stroke="#666666" points="337.88,-134 269.38,-134 269.38,-114 337.88,-114 337.88,-134"/>
<text xml:space="preserve" text-anchor="middle" x="303.62" y="-120.5" font-family="Helvetica,sans-Serif" font-size="10.00">sd_blk_read</text>
</a>
</g>
</g>
<!-- Node1&#45;&gt;Node2 -->
<g id="edge1_Node000001_Node000002" class="edge">
<title>Node1&#45;&gt;Node2</title>
<g id="a_edge1_Node000001_Node000002"><a xlink:title=" ">
<path fill="none" stroke="#63b8ff" d="M53.8,-115.44C67.98,-124.75 90.35,-137.7 112,-143 163.91,-155.7 179.27,-150.03 232.25,-143 241.44,-141.78 251.13,-139.71 260.28,-137.36"/>
<polygon fill="#63b8ff" stroke="#63b8ff" points="260.92,-140.82 269.65,-134.81 259.08,-134.06 260.92,-140.82"/>
</a>
</g>
</g>
<!-- Node4 -->
<g id="Node000004" class="node">
<title>Node4</title>
<g id="a_Node000004"><a xlink:href="sdcard_8c.html#ac6d558621f33abf80f245adb3d0f4e67" target="_top" xlink:title="Escreve um único bloco de 512 bytes.">
<polygon fill="white" stroke="#666666" points="339,-58 268.25,-58 268.25,-38 339,-38 339,-58"/>
<text xml:space="preserve" text-anchor="middle" x="303.62" y="-44.5" font-family="Helvetica,sans-Serif" font-size="10.00">sd_blk_write</text>
</a>
</g>
</g>
<!-- Node1&#45;&gt;Node4 -->
<g id="edge3_Node000001_Node000004" class="edge">
<title>Node1&#45;&gt;Node4</title>
<g id="a_edge3_Node000001_Node000004"><a xlink:title=" ">
<path fill="none" stroke="#63b8ff" d="M54.77,-94.53C69.07,-85.6 91.05,-73.24 112,-67 159.91,-52.72 217.27,-48.66 256.47,-47.74"/>
<polygon fill="#63b8ff" stroke="#63b8ff" points="256.32,-51.24 266.26,-47.58 256.21,-44.24 256.32,-51.24"/>
</a>
</g>
</g>
<!-- Node7 -->
<g id="Node000007" class="node">
<title>Node7</title>
<g id="a_Node000007"><a xlink:href="sdcard_8c.html#a5afd6e264210d197c43e84b5e7dd8856" target="_top" xlink:title="Libera uma cadeia de clusters na tabela FAT, marcando&#45;os como disponíveis.">
<polygon fill="white" stroke="#666666" points="218.75,-96 125.5,-96 125.5,-76 218.75,-76 218.75,-96"/>
<text xml:space="preserve" text-anchor="middle" x="172.12" y="-82.5" font-family="Helvetica,sans-Serif" font-size="10.00">sd_fat_free_chain</text>
</a>
</g>
</g>
<!-- Node1&#45;&gt;Node7 -->
<g id="edge8_Node000001_Node000007" class="edge">
<title>Node1&#45;&gt;Node7</title>
<g id="a_edge8_Node000001_Node000007"><a xlink:title=" ">
<path fill="none" stroke="#63b8ff" d="M76.16,-99.66C87.96,-97.96 101.3,-96.04 114.17,-94.19"/>
<polygon fill="#63b8ff" stroke="#63b8ff" points="114.42,-97.69 123.82,-92.8 113.42,-90.76 114.42,-97.69"/>
</a>
</g>
</g>
<!-- Node8 -->
<g id="Node000008" class="node">
<title>Node8</title>
<g id="a_Node000008"><a xlink:href="sdcard_8c.html#a7b0d2ab1fae193461c611a4f2e6c9245" target="_top" xlink:title="Obtém o próximo cluster na tabela FAT.">
<polygon fill="white" stroke="#666666" points="232.25,-134 112,-134 112,-114 232.25,-114 232.25,-134"/>
<text xml:space="preserve" text-anchor="middle" x="172.12" y="-120.5" font-family="Helvetica,sans-Serif" font-size="10.00">sd_fat_get_next_cluster</text>
</a>
</g>
</g>
<!-- Node1&#45;&gt;Node8 -->
<g id="edge11_Node000001_Node000008" class="edge">
<title>Node1&#45;&gt;Node8</title>
<g id="a_edge11_Node000001_Node000008"><a xlink:title=" ">
<path fill="none" stroke="#63b8ff" d="M76.16,-110.34C83.71,-111.43 91.9,-112.61 100.18,-113.8"/>
<polygon fill="#63b8ff" stroke="#63b8ff" points="99.61,-117.25 110,-115.21 100.6,-110.32 99.61,-117.25"/>
</a>
</g>
</g>
<!-- Node3 -->
<g id="Node000003" class="node">
<title>Node3</title>
<g id="a_Node000003"><a xlink:href="sdcard_8c.html#aae1cfbcba5f92f4639e23fd8ed8fa3c0" target="_top" xlink:title="Envia um comando SPI para o cartão SD e aguarda resposta R1.">
<polygon fill="white" stroke="#666666" points="584.75,-96 508,-96 508,-76 584.75,-76 584.75,-96"/>
<text xml:space="preserve" text-anchor="middle" x="546.38" y="-82.5" font-family="Helvetica,sans-Serif" font-size="10.00">sd_cmd_send</text>
</a>
</g>
</g>
<!-- Node2&#45;&gt;Node3 -->
<g id="edge2_Node000002_Node000003" class="edge">
<title>Node2&#45;&gt;Node3</title>
<g id="a_edge2_Node000002_Node000003"><a xlink:title=" ">
<path fill="none" stroke="#63b8ff" d="M338.36,-119.63C372.21,-115.13 425.82,-107.71 472,-100 479.91,-98.68 488.28,-97.18 496.43,-95.66"/>
<polygon fill="#63b8ff" stroke="#63b8ff" points="497.07,-99.11 506.24,-93.81 495.77,-92.23 497.07,-99.11"/>
</a>
</g>
</g>
<!-- Node4&#45;&gt;Node3 -->
<g id="edge4_Node000004_Node000003" class="edge">
<title>Node4&#45;&gt;Node3</title>
<g id="a_edge4_Node000004_Node000003"><a xlink:title=" ">
<path fill="none" stroke="#63b8ff" d="M339.1,-58.43C350.45,-61.57 363.19,-64.76 375,-67 415.59,-74.7 462.25,-79.63 496.47,-82.54"/>
<polygon fill="#63b8ff" stroke="#63b8ff" points="495.81,-86 506.06,-83.32 496.38,-79.02 495.81,-86"/>
</a>
</g>
</g>
<!-- Node5 -->
<g id="Node000005" class="node">
<title>Node5</title>
<g id="a_Node000005"><a xlink:href="sdcard_8c.html#afcdb9112d386e92b29ad0cac9f5fc277" target="_top" xlink:title="Obtém o status atual do cartão SD (comando CMD13).">
<polygon fill="white" stroke="#666666" points="462.25,-58 384.75,-58 384.75,-38 462.25,-38 462.25,-58"/>
<text xml:space="preserve" text-anchor="middle" x="423.5" y="-44.5" font-family="Helvetica,sans-Serif" font-size="10.00">sd_get_status</text>
</a>
</g>
</g>
<!-- Node4&#45;&gt;Node5 -->
<g id="edge5_Node000004_Node000005" class="edge">
<title>Node4&#45;&gt;Node5</title>
<g id="a_edge5_Node000004_Node000005"><a xlink:title=" ">
<path fill="none" stroke="#63b8ff" d="M339.35,-48C349.84,-48 361.56,-48 372.82,-48"/>
<polygon fill="#63b8ff" stroke="#63b8ff" points="372.8,-51.5 382.8,-48 372.8,-44.5 372.8,-51.5"/>
</a>
</g>
</g>
<!-- Node6 -->
<g id="Node000006" class="node">
<title>Node6</title>
<g id="a_Node000006"><a xlink:href="sdcard_8c.html#a8c2c0ebbeee0d06d43335bc9df4b3142" target="_top" xlink:title="Aguarda o cartão sair do estado de ocupado (busy).">
<polygon fill="white" stroke="#666666" points="472,-20 375,-20 375,0 472,0 472,-20"/>
<text xml:space="preserve" text-anchor="middle" x="423.5" y="-6.5" font-family="Helvetica,sans-Serif" font-size="10.00">sd_spi_wait_ready</text>
</a>
</g>
</g>
<!-- Node4&#45;&gt;Node6 -->
<g id="edge7_Node000004_Node000006" class="edge">
<title>Node4&#45;&gt;Node6</title>
<g id="a_edge7_Node000004_Node000006"><a xlink:title=" ">
<path fill="none" stroke="#63b8ff" d="M337.15,-37.52C350.16,-33.32 365.34,-28.43 379.26,-23.94"/>
<polygon fill="#63b8ff" stroke="#63b8ff" points="380.2,-27.31 388.64,-20.91 378.05,-20.65 380.2,-27.31"/>
</a>
</g>
</g>
<!-- Node5&#45;&gt;Node3 -->
<g id="edge6_Node000005_Node000003" class="edge">
<title>Node5&#45;&gt;Node3</title>
<g id="a_edge6_Node000005_Node000003"><a xlink:title=" ">
<path fill="none" stroke="#63b8ff" d="M457.85,-58.48C471.33,-62.72 487.07,-67.67 501.45,-72.19"/>
<polygon fill="#63b8ff" stroke="#63b8ff" points="500.1,-75.44 510.69,-75.1 502.2,-68.76 500.1,-75.44"/>
</a>
</g>
</g>
<!-- Node7&#45;&gt;Node2 -->
<g id="edge9_Node000007_Node000002" class="edge">
<title>Node7&#45;&gt;Node2</title>
<g id="a_edge9_Node000007_Node000002"><a xlink:title=" ">
<path fill="none" stroke="#63b8ff" d="M208.85,-96.48C224.18,-100.98 242.25,-106.28 258.41,-111.03"/>
<polygon fill="#63b8ff" stroke="#63b8ff" points="257.2,-114.32 267.78,-113.78 259.17,-107.6 257.2,-114.32"/>
</a>
</g>
</g>
<!-- Node7&#45;&gt;Node4 -->
<g id="edge10_Node000007_Node000004" class="edge">
<title>Node7&#45;&gt;Node4</title>
<g id="a_edge10_Node000007_Node000004"><a xlink:title=" ">
<path fill="none" stroke="#63b8ff" d="M208.85,-75.52C223.82,-71.12 241.39,-65.97 257.25,-61.31"/>
<polygon fill="#63b8ff" stroke="#63b8ff" points="257.84,-64.79 266.45,-58.61 255.87,-58.07 257.84,-64.79"/>
</a>
</g>
</g>
<!-- Node8&#45;&gt;Node2 -->
<g id="edge12_Node000008_Node000002" class="edge">
<title>Node8&#45;&gt;Node2</title>
<g id="a_edge12_Node000008_Node000002"><a xlink:title=" ">
<path fill="none" stroke="#63b8ff" d="M232.57,-124C240.97,-124 249.49,-124 257.55,-124"/>
<polygon fill="#63b8ff" stroke="#63b8ff" points="257.47,-127.5 267.47,-124 257.47,-120.5 257.47,-127.5"/>
</a>
</g>
</g>
</g>
</svg>
