<?xml version="1.0" encoding="UTF-8" standalone="no"?>
<!DOCTYPE svg PUBLIC "-//W3C//DTD SVG 1.1//EN"
 "http://www.w3.org/Graphics/SVG/1.1/DTD/svg11.dtd">
<!-- Generated by graphviz version 14.1.4 (20260321.0153)
 -->
<!-- Title: sd_file_read_stream Pages: 1 -->
<svg width="495pt" height="66pt"
 viewBox="0.00 0.00 495.00 66.00" xmlns="http://www.w3.org/2000/svg" xmlns:xlink="http://www.w3.org/1999/xlink">
<g id="graph0" class="graph" transform="scale(1 1) rotate(0) translate(4 62)">
<title>sd_file_read_stream</title>
<!-- Node1 -->
<g id="Node000001" class="node">
<title>Node1</title>
<g id="a_Node000001"><a xlink:title="Lê o conteúdo de um arquivo em modo streaming via callback.">
<polygon fill="#999999" stroke="#666666" points="487,-39 383.25,-39 383.25,-19 487,-19 487,-39"/>
<text xml:space="preserve" text-anchor="middle" x="435.12" y="-25.5" font-family="Helvetica,sans-Serif" font-size="10.00">sd_file_read_stream</text>
</a>
</g>
</g>
<!-- Node2 -->
<g id="Node000002" class="node">
<title>Node2</title>
<g id="a_Node000002"><a xlink:href="exemplo__2_8c.html#aba31b1e3919797222f981b3bc0fa1eda" target="_top" xlink:title="Inicia a busca por um valor em uma coluna específica do arquivo CSV.">
<polygon fill="white" stroke="#666666" points="333.75,-58 231.5,-58 231.5,-38 333.75,-38 333.75,-58"/>
<text xml:space="preserve" text-anchor="middle" x="282.62" y="-44.5" font-family="Helvetica,sans-Serif" font-size="10.00">busca_valor_coluna</text>
</a>
</g>
</g>
<!-- Node1&#45;&gt;Node2 -->
<g id="edge1_Node000001_Node000002" class="edge">
<title>Node1&#45;&gt;Node2</title>
<g id="a_edge1_Node000001_Node000002"><a xlink:title=" ">
<path fill="none" stroke="#63b8ff" d="M371.46,-36.91C358.97,-38.49 346.01,-40.12 334,-41.64"/>
<polygon fill="#63b8ff" stroke="#63b8ff" points="371.77,-40.4 381.25,-35.68 370.89,-33.46 371.77,-40.4"/>
</a>
</g>
</g>
<!-- Node5 -->
<g id="Node000005" class="node">
<title>Node5</title>
<g id="a_Node000005"><a xlink:href="exemplo__4_8c.html#aea5f9f33267c7ef0c394d9a9e8d45c17" target="_top" xlink:title="Localiza e processa o arquivo CONFIG.ini no cartão SD.">
<polygon fill="white" stroke="#666666" points="347.25,-20 218,-20 218,0 347.25,0 347.25,-20"/>
<text xml:space="preserve" text-anchor="middle" x="282.62" y="-6.5" font-family="Helvetica,sans-Serif" font-size="10.00">carregar_parametros_boot</text>
</a>
</g>
</g>
<!-- Node1&#45;&gt;Node5 -->
<g id="edge4_Node000001_Node000005" class="edge">
<title>Node1&#45;&gt;Node5</title>
<g id="a_edge4_Node000001_Node000005"><a xlink:title=" ">
<path fill="none" stroke="#63b8ff" d="M371.39,-21.08C363.51,-20.08 355.44,-19.07 347.54,-18.07"/>
<polygon fill="#63b8ff" stroke="#63b8ff" points="370.89,-24.54 381.25,-22.32 371.77,-17.6 370.89,-24.54"/>
</a>
</g>
</g>
<!-- Node3 -->
<g id="Node000003" class="node">
<title>Node3</title>
<g id="a_Node000003"><a xlink:href="exemplo__2_8c.html#a71c134181186f04ca234d95f2b605e9a" target="_top" xlink:title="Executa o teste completo: Inicialização, Gravação e Busca.">
<polygon fill="white" stroke="#666666" points="182,-58 73,-58 73,-38 182,-38 182,-58"/>
<text xml:space="preserve" text-anchor="middle" x="127.5" y="-44.5" font-family="Helvetica,sans-Serif" font-size="10.00">teste_datalogger_csv</text>
</a>
</g>
</g>
<!-- Node2&#45;&gt;Node3 -->
<g id="edge2_Node000002_Node000003" class="edge">
<title>Node2&#45;&gt;Node3</title>
<g id="a_edge2_Node000002_Node000003"><a xlink:title=" ">
<path fill="none" stroke="#63b8ff" d="M219.87,-48C207.47,-48 194.54,-48 182.43,-48"/>
<polygon fill="#63b8ff" stroke="#63b8ff" points="219.55,-51.5 229.55,-48 219.55,-44.5 219.55,-51.5"/>
</a>
</g>
</g>
<!-- Node4 -->
<g id="Node000004" class="node">
<title>Node4</title>
<g id="a_Node000004"><a xlink:href="exemplo__2_8c.html#a840291bc02cba5474a4cb46a9b9566fe" target="_top" xlink:title="Função principal.">
<polygon fill="white" stroke="#666666" points="37,-58 0,-58 0,-38 37,-38 37,-58"/>
<text xml:space="preserve" text-anchor="middle" x="18.5" y="-44.5" font-family="Helvetica,sans-Serif" font-size="10.00">main</text>
</a>
</g>
</g>
<!-- Node3&#45;&gt;Node4 -->
<g id="edge3_Node000003_Node000004" class="edge">
<title>Node3&#45;&gt;Node4</title>
<g id="a_edge3_Node000003_Node000004"><a xlink:title=" ">
<path fill="none" stroke="#63b8ff" d="M61.28,-48C52.4,-48 43.97,-48 37.05,-48"/>
<polygon fill="#63b8ff" stroke="#63b8ff" points="61.17,-51.5 71.17,-48 61.17,-44.5 61.17,-51.5"/>
</a>
</g>
</g>
<!-- Node6 -->
<g id="Node000006" class="node">
<title>Node6</title>
<g id="a_Node000006"><a xlink:href="exemplo__4_8c.html#a840291bc02cba5474a4cb46a9b9566fe" target="_top" xlink:title="Função main demonstrando o fluxo completo de carregamento e uso.">
<polygon fill="white" stroke="#666666" points="146,-20 109,-20 109,0 146,0 146,-20"/>
<text xml:space="preserve" text-anchor="middle" x="127.5" y="-6.5" font-family="Helvetica,sans-Serif" font-size="10.00">main</text>
</a>
</g>
</g>
<!-- Node5&#45;&gt;Node6 -->
<g id="edge5_Node000005_Node000006" class="edge">
<title>Node5&#45;&gt;Node6</title>
<g id="a_edge5_Node000005_Node000006"><a xlink:title=" ">
<path fill="none" stroke="#63b8ff" d="M206.26,-10C183.84,-10 161.28,-10 146.28,-10"/>
<polygon fill="#63b8ff" stroke="#63b8ff" points="206.06,-13.5 216.06,-10 206.06,-6.5 206.06,-13.5"/>
</a>
</g>
</g>
</g>
</svg>
