<?xml version="1.0" encoding="UTF-8" standalone="no"?>
<!DOCTYPE svg PUBLIC "-//W3C//DTD SVG 1.1//EN"
 "http://www.w3.org/Graphics/SVG/1.1/DTD/svg11.dtd">
<!-- Generated by graphviz version 14.1.4 (20260321.0153)
 -->
<!-- Title: sd_find_file_entry Pages: 1 -->
<!--zoomable 300 -->

<svg id="main" version="1.1" xmlns="http://www.w3.org/2000/svg" xmlns:xlink="http://www.w3.org/1999/xlink" xml:space="preserve" onload="init(evt)">

<style type="text/css"><![CDATA[
.node, .edge {opacity: 0.7;}
.node.selected, .edge.selected {opacity: 1;}
.edge:hover path { stroke: red; }
.edge:hover polygon { stroke: red; fill: red; }
]]></style>

<defs>
  <circle id="rim" cx="0" cy="0" r="7"/>
  <circle id="rim2" cx="0" cy="0" r="3.5"/>
  <g id="zoomPlus">
    <use xlink:href="#rim" fill="#404040"><set attributeName="fill" to="#808080" begin="zoomplus.mouseover" end="zoomplus.mouseout"/></use>
    <path d="M-4,0h8M0,-4v8" fill="none" stroke="white" stroke-width="1.5" pointer-events="none"/>
  </g>
  <g id="zoomMin">
    <use xlink:href="#rim" fill="#404040"><set attributeName="fill" to="#808080" begin="zoomminus.mouseover" end="zoomminus.mouseout"/></use>
    <path d="M-4,0h8" fill="none" stroke="white" stroke-width="1.5" pointer-events="none"/>
  </g>
  <g id="arrowUp" transform="translate(30 24)">
    <use xlink:href="#rim"/>
    <path pointer-events="none" fill="none" stroke="white" stroke-width="1.5" d="M0,-3.0v7 M-2.5,-0.5L0,-3.0L2.5,-0.5"/>
  </g>
  <g id="arrowRight" transform="rotate(90) translate(36 -43)">
    <use xlink:href="#rim"/>
    <path pointer-events="none" fill="none" stroke="white" stroke-width="1.5" d="M0,-3.0v7 M-2.5,-0.5L0,-3.0L2.5,-0.5"/>
  </g>
  <g id="arrowDown" transform="rotate(180) translate(-30 -48)">
    <use xlink:href="#rim"/>
    <path pointer-events="none" fill="none" stroke="white" stroke-width="1.5" d="M0,-3.0v7 M-2.5,-0.5L0,-3.0L2.5,-0.5"/>
  </g>
  <g id="arrowLeft" transform="rotate(270) translate(-36 17)">
    <use xlink:href="#rim"/>
    <path pointer-events="none" fill="none" stroke="white" stroke-width="1.5" d="M0,-3.0v7 M-2.5,-0.5L0,-3.0L2.5,-0.5"/>
  </g>
  <g id="resetDef">
    <use xlink:href="#rim2" fill="#404040"><set attributeName="fill" to="#808080" begin="reset.mouseover" end="reset.mouseout"/></use>
  </g>
</defs>
<script type="application/ecmascript">
var viewWidth = 634;
var viewHeight = 300;
var sectionId = 'dynsection-55';
</script>
<script type="application/ecmascript" xlink:href="svg.min.js"/>
<svg id="graph" class="graph">
<g id="viewport">
<title>sd_find_file_entry</title>
<!-- Node1 -->
<g id="Node000001" class="node">
<title>Node1</title>
<g id="a_Node000001"><a xlink:title="Localiza a entrada de um arquivo no diretório raiz.">
<polygon fill="#999999" stroke="#666666" points="626,-153 533.5,-153 533.5,-133 626,-133 626,-153"/>
<text xml:space="preserve" text-anchor="middle" x="579.75" y="-139.5" font-family="Helvetica,sans-Serif" font-size="10.00">sd_find_file_entry</text>
</a>
</g>
</g>
<!-- Node2 -->
<g id="Node000002" class="node">
<title>Node2</title>
<g id="a_Node000002"><a xlink:href="sdcard_8c.html#a3cb6e9bbb79a21ebf8cf7357ed262726" target="_top" xlink:title="Adiciona dados ao final de um arquivo, expandindo clusters se necessário.">
<polygon fill="white" stroke="#666666" points="347.62,-134 231.12,-134 231.12,-114 347.62,-114 347.62,-134"/>
<text xml:space="preserve" text-anchor="middle" x="289.38" y="-120.5" font-family="Helvetica,sans-Serif" font-size="10.00">sd_file_append_stream</text>
</a>
</g>
</g>
<!-- Node1&#45;&gt;Node2 -->
<g id="edge1_Node000001_Node000002" class="edge">
<title>Node1&#45;&gt;Node2</title>
<g id="a_edge1_Node000001_Node000002"><a xlink:title=" ">
<path fill="none" stroke="#63b8ff" d="M521.74,-139.24C471.45,-135.93 398.51,-131.12 348.03,-127.8"/>
<polygon fill="#63b8ff" stroke="#63b8ff" points="521.34,-142.72 531.55,-139.89 521.8,-135.74 521.34,-142.72"/>
</a>
</g>
</g>
<!-- Node9 -->
<g id="Node000009" class="node">
<title>Node9</title>
<g id="a_Node000009"><a xlink:href="sdcard_8c.html#a6bb4db7466137c6d4346e2264d403230" target="_top" xlink:title="Verifica se arquivo existe.">
<polygon fill="white" stroke="#666666" points="482.5,-248 406.5,-248 406.5,-228 482.5,-228 482.5,-248"/>
<text xml:space="preserve" text-anchor="middle" x="444.5" y="-234.5" font-family="Helvetica,sans-Serif" font-size="10.00">sd_file_exists</text>
</a>
</g>
</g>
<!-- Node1&#45;&gt;Node9 -->
<g id="edge8_Node000001_Node000009" class="edge">
<title>Node1&#45;&gt;Node9</title>
<g id="a_edge8_Node000001_Node000009"><a xlink:title=" ">
<path fill="none" stroke="#63b8ff" d="M562.52,-162.03C547.22,-178.96 522.91,-203.38 497.5,-219 492.18,-222.27 486.21,-225.11 480.26,-227.52"/>
<polygon fill="#63b8ff" stroke="#63b8ff" points="565.05,-164.45 569.04,-154.63 559.8,-159.82 565.05,-164.45"/>
</a>
</g>
</g>
<!-- Node13 -->
<g id="Node000013" class="node">
<title>Node13</title>
<g id="a_Node000013"><a xlink:href="sdcard_8c.html#a62fe3cc3e143e0df2bd0bc2c8badc78a" target="_top" xlink:title="Obtém tamanho do arquivo.">
<polygon fill="white" stroke="#666666" points="487.75,-286 401.25,-286 401.25,-266 487.75,-266 487.75,-286"/>
<text xml:space="preserve" text-anchor="middle" x="444.5" y="-272.5" font-family="Helvetica,sans-Serif" font-size="10.00">sd_file_get_size</text>
</a>
</g>
</g>
<!-- Node1&#45;&gt;Node13 -->
<g id="edge14_Node000001_Node000013" class="edge">
<title>Node1&#45;&gt;Node13</title>
<g id="a_edge14_Node000001_Node000013"><a xlink:title=" ">
<path fill="none" stroke="#63b8ff" d="M568.92,-163.72C555.91,-189.06 530.7,-231.71 497.5,-257 493.07,-260.38 487.97,-263.2 482.74,-265.55"/>
<polygon fill="#63b8ff" stroke="#63b8ff" points="572.05,-165.28 573.35,-154.77 565.78,-162.18 572.05,-165.28"/>
</a>
</g>
</g>
<!-- Node14 -->
<g id="Node000014" class="node">
<title>Node14</title>
<g id="a_Node000014"><a xlink:href="sdcard_8c.html#aeb8a12857aacd74c71460265f529e634" target="_top" xlink:title="Lê o conteúdo de um arquivo FAT32 para um buffer externo.">
<polygon fill="white" stroke="#666666" points="478.75,-58 410.25,-58 410.25,-38 478.75,-38 478.75,-58"/>
<text xml:space="preserve" text-anchor="middle" x="444.5" y="-44.5" font-family="Helvetica,sans-Serif" font-size="10.00">sd_file_read</text>
</a>
</g>
</g>
<!-- Node1&#45;&gt;Node14 -->
<g id="edge17_Node000001_Node000014" class="edge">
<title>Node1&#45;&gt;Node14</title>
<g id="a_edge17_Node000001_Node000014"><a xlink:title=" ">
<path fill="none" stroke="#63b8ff" d="M561.21,-125C545.52,-109.58 521.37,-87.48 497.5,-72 489.57,-66.86 480.37,-62.23 471.93,-58.44"/>
<polygon fill="#63b8ff" stroke="#63b8ff" points="558.38,-127.13 567.93,-131.72 563.33,-122.18 558.38,-127.13"/>
</a>
</g>
</g>
<!-- Node15 -->
<g id="Node000015" class="node">
<title>Node15</title>
<g id="a_Node000015"><a xlink:href="sdcard_8c.html#a4c9e96825f9777aab8c8980c35310db6" target="_top" xlink:title="Lê o conteúdo de um arquivo em modo streaming via callback.">
<polygon fill="white" stroke="#666666" points="496.38,-210 392.62,-210 392.62,-190 496.38,-190 496.38,-210"/>
<text xml:space="preserve" text-anchor="middle" x="444.5" y="-196.5" font-family="Helvetica,sans-Serif" font-size="10.00">sd_file_read_stream</text>
</a>
</g>
</g>
<!-- Node1&#45;&gt;Node15 -->
<g id="edge18_Node000001_Node000015" class="edge">
<title>Node1&#45;&gt;Node15</title>
<g id="a_edge18_Node000001_Node000015"><a xlink:title=" ">
<path fill="none" stroke="#63b8ff" d="M547.66,-158.32C532.64,-165.52 514.28,-174.03 497.5,-181 490.4,-183.95 482.66,-186.91 475.37,-189.59"/>
<polygon fill="#63b8ff" stroke="#63b8ff" points="549.09,-161.51 556.57,-154.01 546.04,-155.21 549.09,-161.51"/>
</a>
</g>
</g>
<!-- Node17 -->
<g id="Node000017" class="node">
<title>Node17</title>
<g id="a_Node000017"><a xlink:href="sdcard_8c.html#aec0c2db609a8f514fa7487deecd78461" target="_top" xlink:title="Sincroniza o tamanho do arquivo no diretório físico (Flush).">
<polygon fill="white" stroke="#666666" points="324.75,-96 254,-96 254,-76 324.75,-76 324.75,-96"/>
<text xml:space="preserve" text-anchor="middle" x="289.38" y="-82.5" font-family="Helvetica,sans-Serif" font-size="10.00">sd_file_sync</text>
</a>
</g>
</g>
<!-- Node1&#45;&gt;Node17 -->
<g id="edge22_Node000001_Node000017" class="edge">
<title>Node1&#45;&gt;Node17</title>
<g id="a_edge22_Node000001_Node000017"><a xlink:title=" ">
<path fill="none" stroke="#63b8ff" d="M521.76,-131.74C463.14,-120.15 373.73,-102.48 324.99,-92.84"/>
<polygon fill="#63b8ff" stroke="#63b8ff" points="521.08,-135.17 531.57,-133.67 522.44,-128.3 521.08,-135.17"/>
</a>
</g>
</g>
<!-- Node18 -->
<g id="Node000018" class="node">
<title>Node18</title>
<g id="a_Node000018"><a xlink:href="sdcard_8c.html#afba53615c129e4e1a3ca0dd1c272ab11" target="_top" xlink:title=" ">
<polygon fill="white" stroke="#666666" points="495.62,-172 393.38,-172 393.38,-152 495.62,-152 495.62,-172"/>
<text xml:space="preserve" text-anchor="middle" x="444.5" y="-158.5" font-family="Helvetica,sans-Serif" font-size="10.00">sd_file_update_size</text>
</a>
</g>
</g>
<!-- Node1&#45;&gt;Node18 -->
<g id="edge24_Node000001_Node000018" class="edge">
<title>Node1&#45;&gt;Node18</title>
<g id="a_edge24_Node000001_Node000018"><a xlink:title=" ">
<path fill="none" stroke="#63b8ff" d="M522,-151.09C513.3,-152.33 504.36,-153.61 495.8,-154.83"/>
<polygon fill="#63b8ff" stroke="#63b8ff" points="522.36,-154.58 531.77,-149.7 521.37,-147.65 522.36,-154.58"/>
</a>
</g>
</g>
<!-- Node19 -->
<g id="Node000019" class="node">
<title>Node19</title>
<g id="a_Node000019"><a xlink:href="sdcard_8c.html#ac738738df5abe4582855b5b34312e41e" target="_top" xlink:title="Escreve dados em um arquivo FAT32 existente (modo streaming).">
<polygon fill="white" stroke="#666666" points="497.5,-20 391.5,-20 391.5,0 497.5,0 497.5,-20"/>
<text xml:space="preserve" text-anchor="middle" x="444.5" y="-6.5" font-family="Helvetica,sans-Serif" font-size="10.00">sd_file_write_stream</text>
</a>
</g>
</g>
<!-- Node1&#45;&gt;Node19 -->
<g id="edge26_Node000001_Node000019" class="edge">
<title>Node1&#45;&gt;Node19</title>
<g id="a_edge26_Node000001_Node000019"><a xlink:title=" ">
<path fill="none" stroke="#63b8ff" d="M568.92,-122.28C555.91,-96.94 530.7,-54.29 497.5,-29 493.07,-25.62 487.97,-22.8 482.74,-20.45"/>
<polygon fill="#63b8ff" stroke="#63b8ff" points="565.78,-123.82 573.35,-131.23 572.05,-120.72 565.78,-123.82"/>
</a>
</g>
</g>
<!-- Node3 -->
<g id="Node000003" class="node">
<title>Node3</title>
<g id="a_Node000003"><a xlink:href="exemplo__3_8c.html#a9765d93a7e9eac42493b89eb0dc1ab12" target="_top" xlink:title="Formata e grava um registro CSV com data, hora e 4 sensores.">
<polygon fill="white" stroke="#666666" points="180.88,-292 79.38,-292 79.38,-260 180.88,-260 180.88,-292"/>
<text xml:space="preserve" text-anchor="start" x="87.38" y="-278.5" font-family="Helvetica,sans-Serif" font-size="10.00">registrar_dado_com</text>
<text xml:space="preserve" text-anchor="middle" x="130.12" y="-266.5" font-family="Helvetica,sans-Serif" font-size="10.00">_rotacao</text>
</a>
</g>
</g>
<!-- Node2&#45;&gt;Node3 -->
<g id="edge2_Node000002_Node000003" class="edge">
<title>Node2&#45;&gt;Node3</title>
<g id="a_edge2_Node000002_Node000003"><a xlink:title=" ">
<path fill="none" stroke="#63b8ff" d="M227.33,-139.95C225.92,-140.91 224.56,-141.92 223.25,-143 196.26,-165.26 207.04,-184.15 187.25,-213 175.56,-230.03 159.73,-247.41 147.85,-259.59"/>
<polygon fill="#63b8ff" stroke="#63b8ff" points="228.89,-143.09 235.92,-135.16 225.48,-136.97 228.89,-143.09"/>
</a>
</g>
</g>
<!-- Node5 -->
<g id="Node000005" class="node">
<title>Node5</title>
<g id="a_Node000005"><a xlink:href="exemplo__1_8c.html#a45578ec38e9d0ae49d3313fa3900f338" target="_top" xlink:title="Demonstração completa e básica da biblioteca.">
<polygon fill="white" stroke="#666666" points="187.25,-109 73,-109 73,-77 187.25,-77 187.25,-109"/>
<text xml:space="preserve" text-anchor="start" x="81" y="-95.5" font-family="Helvetica,sans-Serif" font-size="10.00">teste_basico_escrever</text>
<text xml:space="preserve" text-anchor="middle" x="130.12" y="-83.5" font-family="Helvetica,sans-Serif" font-size="10.00">_string</text>
</a>
</g>
</g>
<!-- Node2&#45;&gt;Node5 -->
<g id="edge4_Node000002_Node000005" class="edge">
<title>Node2&#45;&gt;Node5</title>
<g id="a_edge4_Node000002_Node000005"><a xlink:title=" ">
<path fill="none" stroke="#63b8ff" d="M224.16,-111.34C212.02,-108.95 199.41,-106.46 187.53,-104.12"/>
<polygon fill="#63b8ff" stroke="#63b8ff" points="223.16,-114.71 233.65,-113.21 224.52,-107.84 223.16,-114.71"/>
</a>
</g>
</g>
<!-- Node7 -->
<g id="Node000007" class="node">
<title>Node7</title>
<g id="a_Node000007"><a xlink:href="exemplo__2_8c.html#a71c134181186f04ca234d95f2b605e9a" target="_top" xlink:title="Executa o teste completo: Inicialização, Gravação e Busca.">
<polygon fill="white" stroke="#666666" points="184.62,-160 75.62,-160 75.62,-140 184.62,-140 184.62,-160"/>
<text xml:space="preserve" text-anchor="middle" x="130.12" y="-146.5" font-family="Helvetica,sans-Serif" font-size="10.00">teste_datalogger_csv</text>
</a>
</g>
</g>
<!-- Node2&#45;&gt;Node7 -->
<g id="edge6_Node000002_Node000007" class="edge">
<title>Node2&#45;&gt;Node7</title>
<g id="a_edge6_Node000002_Node000007"><a xlink:title=" ">
<path fill="none" stroke="#63b8ff" d="M219.37,-135.41C207.9,-137.31 196.15,-139.25 185.12,-141.07"/>
<polygon fill="#63b8ff" stroke="#63b8ff" points="219.93,-138.87 229.22,-133.78 218.78,-131.96 219.93,-138.87"/>
</a>
</g>
</g>
<!-- Node4 -->
<g id="Node000004" class="node">
<title>Node4</title>
<g id="a_Node000004"><a xlink:href="exemplo__3_8c.html#a840291bc02cba5474a4cb46a9b9566fe" target="_top" xlink:title="Ponto de entrada do programa.">
<polygon fill="white" stroke="#666666" points="37,-264 0,-264 0,-244 37,-244 37,-264"/>
<text xml:space="preserve" text-anchor="middle" x="18.5" y="-250.5" font-family="Helvetica,sans-Serif" font-size="10.00">main</text>
</a>
</g>
</g>
<!-- Node3&#45;&gt;Node4 -->
<g id="edge3_Node000003_Node000004" class="edge">
<title>Node3&#45;&gt;Node4</title>
<g id="a_edge3_Node000003_Node000004"><a xlink:title=" ">
<path fill="none" stroke="#63b8ff" d="M67.92,-263.72C56.77,-261.48 45.98,-259.31 37.42,-257.6"/>
<polygon fill="#63b8ff" stroke="#63b8ff" points="67.15,-267.13 77.64,-265.67 68.52,-260.27 67.15,-267.13"/>
</a>
</g>
</g>
<!-- Node6 -->
<g id="Node000006" class="node">
<title>Node6</title>
<g id="a_Node000006"><a xlink:href="exemplo__1_8c.html#a840291bc02cba5474a4cb46a9b9566fe" target="_top" xlink:title=" ">
<polygon fill="white" stroke="#666666" points="37,-103 0,-103 0,-83 37,-83 37,-103"/>
<text xml:space="preserve" text-anchor="middle" x="18.5" y="-89.5" font-family="Helvetica,sans-Serif" font-size="10.00">main</text>
</a>
</g>
</g>
<!-- Node5&#45;&gt;Node6 -->
<g id="edge5_Node000005_Node000006" class="edge">
<title>Node5&#45;&gt;Node6</title>
<g id="a_edge5_Node000005_Node000006"><a xlink:title=" ">
<path fill="none" stroke="#63b8ff" d="M61.41,-93C52.63,-93 44.32,-93 37.45,-93"/>
<polygon fill="#63b8ff" stroke="#63b8ff" points="61.19,-96.5 71.19,-93 61.19,-89.5 61.19,-96.5"/>
</a>
</g>
</g>
<!-- Node8 -->
<g id="Node000008" class="node">
<title>Node8</title>
<g id="a_Node000008"><a xlink:href="exemplo__2_8c.html#a840291bc02cba5474a4cb46a9b9566fe" target="_top" xlink:title="Função principal.">
<polygon fill="white" stroke="#666666" points="37,-160 0,-160 0,-140 37,-140 37,-160"/>
<text xml:space="preserve" text-anchor="middle" x="18.5" y="-146.5" font-family="Helvetica,sans-Serif" font-size="10.00">main</text>
</a>
</g>
</g>
<!-- Node7&#45;&gt;Node8 -->
<g id="edge7_Node000007_Node000008" class="edge">
<title>Node7&#45;&gt;Node8</title>
<g id="a_edge7_Node000007_Node000008"><a xlink:title=" ">
<path fill="none" stroke="#63b8ff" d="M63.82,-150C54.17,-150 44.98,-150 37.49,-150"/>
<polygon fill="#63b8ff" stroke="#63b8ff" points="63.76,-153.5 73.76,-150 63.76,-146.5 63.76,-153.5"/>
</a>
</g>
</g>
<!-- Node10 -->
<g id="Node000010" class="node">
<title>Node10</title>
<g id="a_Node000010"><a xlink:href="exemplo__4_8c.html#aea5f9f33267c7ef0c394d9a9e8d45c17" target="_top" xlink:title="Localiza e processa o arquivo CONFIG.ini no cartão SD.">
<polygon fill="white" stroke="#666666" points="354,-210 224.75,-210 224.75,-190 354,-190 354,-210"/>
<text xml:space="preserve" text-anchor="middle" x="289.38" y="-196.5" font-family="Helvetica,sans-Serif" font-size="10.00">carregar_parametros_boot</text>
</a>
</g>
</g>
<!-- Node9&#45;&gt;Node10 -->
<g id="edge9_Node000009_Node000010" class="edge">
<title>Node9&#45;&gt;Node10</title>
<g id="a_edge9_Node000009_Node000010"><a xlink:title=" ">
<path fill="none" stroke="#63b8ff" d="M394.95,-225.95C374.91,-220.98 351.9,-215.27 332.58,-210.47"/>
<polygon fill="#63b8ff" stroke="#63b8ff" points="394.02,-229.33 404.57,-228.34 395.71,-222.53 394.02,-229.33"/>
</a>
</g>
</g>
<!-- Node12 -->
<g id="Node000012" class="node">
<title>Node12</title>
<g id="a_Node000012"><a xlink:href="exemplo__3_8c.html#a1888a7d50f8090bc2f0c577e2ce4074f" target="_top" xlink:title="Localiza ou cria o volume de log adequado no cartão.">
<polygon fill="white" stroke="#666666" points="355.5,-248 223.25,-248 223.25,-228 355.5,-228 355.5,-248"/>
<text xml:space="preserve" text-anchor="middle" x="289.38" y="-234.5" font-family="Helvetica,sans-Serif" font-size="10.00">gerenciar_proximo_volume</text>
</a>
</g>
</g>
<!-- Node9&#45;&gt;Node12 -->
<g id="edge11_Node000009_Node000012" class="edge">
<title>Node9&#45;&gt;Node12</title>
<g id="a_edge11_Node000009_Node000012"><a xlink:title=" ">
<path fill="none" stroke="#63b8ff" d="M394.6,-238C382.26,-238 368.81,-238 355.81,-238"/>
<polygon fill="#63b8ff" stroke="#63b8ff" points="394.53,-241.5 404.53,-238 394.53,-234.5 394.53,-241.5"/>
</a>
</g>
</g>
<!-- Node11 -->
<g id="Node000011" class="node">
<title>Node11</title>
<g id="a_Node000011"><a xlink:href="exemplo__4_8c.html#a840291bc02cba5474a4cb46a9b9566fe" target="_top" xlink:title="Função main demonstrando o fluxo completo de carregamento e uso.">
<polygon fill="white" stroke="#666666" points="148.62,-204 111.62,-204 111.62,-184 148.62,-184 148.62,-204"/>
<text xml:space="preserve" text-anchor="middle" x="130.12" y="-190.5" font-family="Helvetica,sans-Serif" font-size="10.00">main</text>
</a>
</g>
</g>
<!-- Node10&#45;&gt;Node11 -->
<g id="edge10_Node000010_Node000011" class="edge">
<title>Node10&#45;&gt;Node11</title>
<g id="a_edge10_Node000010_Node000011"><a xlink:title=" ">
<path fill="none" stroke="#63b8ff" d="M213.08,-197.13C189.09,-196.21 164.68,-195.28 148.82,-194.68"/>
<polygon fill="#63b8ff" stroke="#63b8ff" points="212.78,-200.62 222.9,-197.5 213.04,-193.62 212.78,-200.62"/>
</a>
</g>
</g>
<!-- Node12&#45;&gt;Node3 -->
<g id="edge13_Node000012_Node000003" class="edge">
<title>Node12&#45;&gt;Node3</title>
<g id="a_edge13_Node000012_Node000003"><a xlink:title=" ">
<path fill="none" stroke="#63b8ff" d="M234.03,-251.13C216.93,-255.27 198.12,-259.81 181.32,-263.87"/>
<polygon fill="#63b8ff" stroke="#63b8ff" points="234.62,-254.59 243.52,-248.84 232.98,-247.79 234.62,-254.59"/>
</a>
</g>
</g>
<!-- Node12&#45;&gt;Node4 -->
<g id="edge12_Node000012_Node000004" class="edge">
<title>Node12&#45;&gt;Node4</title>
<g id="a_edge12_Node000012_Node000004"><a xlink:title=" ">
<path fill="none" stroke="#63b8ff" d="M211.58,-242.57C151.48,-246.15 72.43,-250.85 37.46,-252.93"/>
<polygon fill="#63b8ff" stroke="#63b8ff" points="211.66,-246.07 221.43,-241.98 211.24,-239.08 211.66,-246.07"/>
</a>
</g>
</g>
<!-- Node13&#45;&gt;Node3 -->
<g id="edge16_Node000013_Node000003" class="edge">
<title>Node13&#45;&gt;Node3</title>
<g id="a_edge16_Node000013_Node000003"><a xlink:title=" ">
<path fill="none" stroke="#63b8ff" d="M389.82,-276C331.28,-276 238.33,-276 181.23,-276"/>
<polygon fill="#63b8ff" stroke="#63b8ff" points="389.53,-279.5 399.53,-276 389.53,-272.5 389.53,-279.5"/>
</a>
</g>
</g>
<!-- Node13&#45;&gt;Node12 -->
<g id="edge15_Node000013_Node000012" class="edge">
<title>Node13&#45;&gt;Node12</title>
<g id="a_edge15_Node000013_Node000012"><a xlink:title=" ">
<path fill="none" stroke="#63b8ff" d="M390.12,-262.75C371.24,-258.07 350.29,-252.87 332.48,-248.45"/>
<polygon fill="#63b8ff" stroke="#63b8ff" points="389.23,-266.14 399.78,-265.15 390.92,-259.35 389.23,-266.14"/>
</a>
</g>
</g>
<!-- Node15&#45;&gt;Node10 -->
<g id="edge21_Node000015_Node000010" class="edge">
<title>Node15&#45;&gt;Node10</title>
<g id="a_edge21_Node000015_Node000010"><a xlink:title=" ">
<path fill="none" stroke="#63b8ff" d="M381.15,-200C372.36,-200 363.31,-200 354.49,-200"/>
<polygon fill="#63b8ff" stroke="#63b8ff" points="381,-203.5 391,-200 381,-196.5 381,-203.5"/>
</a>
</g>
</g>
<!-- Node16 -->
<g id="Node000016" class="node">
<title>Node16</title>
<g id="a_Node000016"><a xlink:href="exemplo__2_8c.html#aba31b1e3919797222f981b3bc0fa1eda" target="_top" xlink:title="Inicia a busca por um valor em uma coluna específica do arquivo CSV.">
<polygon fill="white" stroke="#666666" points="340.5,-172 238.25,-172 238.25,-152 340.5,-152 340.5,-172"/>
<text xml:space="preserve" text-anchor="middle" x="289.38" y="-158.5" font-family="Helvetica,sans-Serif" font-size="10.00">busca_valor_coluna</text>
</a>
</g>
</g>
<!-- Node15&#45;&gt;Node16 -->
<g id="edge19_Node000015_Node000016" class="edge">
<title>Node15&#45;&gt;Node16</title>
<g id="a_edge19_Node000015_Node000016"><a xlink:title=" ">
<path fill="none" stroke="#63b8ff" d="M390.12,-186.75C371.24,-182.07 350.29,-176.87 332.48,-172.45"/>
<polygon fill="#63b8ff" stroke="#63b8ff" points="389.23,-190.14 399.78,-189.15 390.92,-183.35 389.23,-190.14"/>
</a>
</g>
</g>
<!-- Node16&#45;&gt;Node7 -->
<g id="edge20_Node000016_Node000007" class="edge">
<title>Node16&#45;&gt;Node7</title>
<g id="a_edge20_Node000016_Node000007"><a xlink:title=" ">
<path fill="none" stroke="#63b8ff" d="M226.43,-157.27C212.71,-156.23 198.27,-155.12 184.9,-154.1"/>
<polygon fill="#63b8ff" stroke="#63b8ff" points="226.01,-160.75 236.25,-158.02 226.54,-153.77 226.01,-160.75"/>
</a>
</g>
</g>
<!-- Node17&#45;&gt;Node5 -->
<g id="edge23_Node000017_Node000005" class="edge">
<title>Node17&#45;&gt;Node5</title>
<g id="a_edge23_Node000017_Node000005"><a xlink:title=" ">
<path fill="none" stroke="#63b8ff" d="M242.42,-88.05C225.23,-88.81 205.51,-89.69 187.49,-90.49"/>
<polygon fill="#63b8ff" stroke="#63b8ff" points="242.52,-91.54 252.35,-87.6 242.21,-84.55 242.52,-91.54"/>
</a>
</g>
</g>
<!-- Node18&#45;&gt;Node2 -->
<g id="edge25_Node000018_Node000002" class="edge">
<title>Node18&#45;&gt;Node2</title>
<g id="a_edge25_Node000018_Node000002"><a xlink:title=" ">
<path fill="none" stroke="#63b8ff" d="M390.12,-148.75C371.24,-144.07 350.29,-138.87 332.48,-134.45"/>
<polygon fill="#63b8ff" stroke="#63b8ff" points="389.23,-152.14 399.78,-151.15 390.92,-145.35 389.23,-152.14"/>
</a>
</g>
</g>
</g>
</svg>

<g id="navigator" transform="translate(0 0)" fill="#404254">
  <rect fill="#f2f5e9" fill-opacity="0.5" stroke="#606060" stroke-width=".5" x="0" y="0" width="60" height="60"/>
  <use id="zoomplus" xlink:href="#zoomPlus" x="17" y="9" onmousedown="handleZoom(evt,'in')"/>
  <use id="zoomminus" xlink:href="#zoomMin" x="42" y="9" onmousedown="handleZoom(evt,'out')"/>
  <use id="reset" xlink:href="#resetDef" x="30" y="36" onmousedown="handleReset()"/>
   <use id="arrowup" xlink:href="#arrowUp" x="0" y="0" onmousedown="handlePan(0,-1)"/>
  <use id="arrowright" xlink:href="#arrowRight" x="0" y="0" onmousedown="handlePan(1,0)"/>
  <use id="arrowdown" xlink:href="#arrowDown" x="0" y="0" onmousedown="handlePan(0,1)"/>
  <use id="arrowleft" xlink:href="#arrowLeft" x="0" y="0" onmousedown="handlePan(-1,0)"/>
</g>
<svg viewBox="0 0 15 15" width="100%" height="30px" preserveAspectRatio="xMaxYMin meet">
 <g id="arrow_out" transform="scale(0.3 0.3)">
  <a xlink:href="sdcard_8c_a3794ef278970bdb3d1d50b3f10fc4e9f_icgraph_org.svg" target="_base">
   <rect id="button" ry="5" rx="5" y="6" x="6" height="38" width="38"
        fill="#f2f5e9" fill-opacity="0.5" stroke="#606060" stroke-width="1.0"/>
   <path id="arrow"
     d="M 11.500037,31.436501 C 11.940474,20.09759 22.043105,11.32322 32.158766,21.979434 L 37.068811,17.246167 C 37.068811,17.246167 37.088388,32 37.088388,32 L 22.160133,31.978069 C 22.160133,31.978069 26.997745,27.140456 26.997745,27.140456 C 18.528582,18.264221 13.291696,25.230495 11.500037,31.436501 z"
     style="fill:#404040;"/>
  </a>
 </g>
</svg>

<style type='text/css'>
<![CDATA[
[data-mouse-over-selected='false'] { opacity: 0.7; }
[data-mouse-over-selected='true']  { opacity: 1.0; }
]]>
</style>
<script type="application/ecmascript"><![CDATA[
document.addEventListener('DOMContentLoaded', (event) => {
  highlightEdges();
  highlightAdjacentNodes();
});
]]></script>
</svg>
