<?xml version="1.0" encoding="UTF-8" standalone="no"?>
<!DOCTYPE svg PUBLIC "-//W3C//DTD SVG 1.1//EN"
 "http://www.w3.org/Graphics/SVG/1.1/DTD/svg11.dtd">
<!-- Generated by graphviz version 14.1.4 (20260321.0153)
 -->
<!-- Title: sd_file_get_size Pages: 1 -->
<svg width="597pt" height="47pt"
 viewBox="0.00 0.00 597.00 47.00" xmlns="http://www.w3.org/2000/svg" xmlns:xlink="http://www.w3.org/1999/xlink">
<g id="graph0" class="graph" transform="scale(1 1) rotate(0) translate(4 43)">
<title>sd_file_get_size</title>
<!-- Node1 -->
<g id="Node000001" class="node">
<title>Node1</title>
<g id="a_Node000001"><a xlink:title="Obtém tamanho do arquivo.">
<polygon fill="#999999" stroke="#666666" points="86.5,-39 0,-39 0,-19 86.5,-19 86.5,-39"/>
<text xml:space="preserve" text-anchor="middle" x="43.25" y="-25.5" font-family="Helvetica,sans-Serif" font-size="10.00">sd_file_get_size</text>
</a>
</g>
</g>
<!-- Node2 -->
<g id="Node000002" class="node">
<title>Node2</title>
<g id="a_Node000002"><a xlink:href="sdcard_8c.html#a3794ef278970bdb3d1d50b3f10fc4e9f" target="_top" xlink:title="Localiza a entrada de um arquivo no diretório raiz.">
<polygon fill="white" stroke="#666666" points="215,-39 122.5,-39 122.5,-19 215,-19 215,-39"/>
<text xml:space="preserve" text-anchor="middle" x="168.75" y="-25.5" font-family="Helvetica,sans-Serif" font-size="10.00">sd_find_file_entry</text>
</a>
</g>
</g>
<!-- Node1&#45;&gt;Node2 -->
<g id="edge1_Node000001_Node000002" class="edge">
<title>Node1&#45;&gt;Node2</title>
<g id="a_edge1_Node000001_Node000002"><a xlink:title=" ">
<path fill="none" stroke="#63b8ff" d="M86.75,-29C94.53,-29 102.76,-29 110.88,-29"/>
<polygon fill="#63b8ff" stroke="#63b8ff" points="110.7,-32.5 120.7,-29 110.7,-25.5 110.7,-32.5"/>
</a>
</g>
</g>
<!-- Node3 -->
<g id="Node000003" class="node">
<title>Node3</title>
<g id="a_Node000003"><a xlink:href="sdcard_8c.html#aba9c8b9a5590e13424ab4a69280f0c1d" target="_top" xlink:title="Lê um único bloco de 512 bytes do cartão (LBA).">
<polygon fill="white" stroke="#666666" points="475.75,-39 407.25,-39 407.25,-19 475.75,-19 475.75,-39"/>
<text xml:space="preserve" text-anchor="middle" x="441.5" y="-25.5" font-family="Helvetica,sans-Serif" font-size="10.00">sd_blk_read</text>
</a>
</g>
</g>
<!-- Node2&#45;&gt;Node3 -->
<g id="edge2_Node000002_Node000003" class="edge">
<title>Node2&#45;&gt;Node3</title>
<g id="a_edge2_Node000002_Node000003"><a xlink:title=" ">
<path fill="none" stroke="#63b8ff" d="M215.37,-29C265.6,-29 345.83,-29 395.72,-29"/>
<polygon fill="#63b8ff" stroke="#63b8ff" points="395.59,-32.5 405.59,-29 395.59,-25.5 395.59,-32.5"/>
</a>
</g>
</g>
<!-- Node5 -->
<g id="Node000005" class="node">
<title>Node5</title>
<g id="a_Node000005"><a xlink:href="sdcard_8c.html#a7b0d2ab1fae193461c611a4f2e6c9245" target="_top" xlink:title="Obtém o próximo cluster na tabela FAT.">
<polygon fill="white" stroke="#666666" points="371.25,-20 251,-20 251,0 371.25,0 371.25,-20"/>
<text xml:space="preserve" text-anchor="middle" x="311.12" y="-6.5" font-family="Helvetica,sans-Serif" font-size="10.00">sd_fat_get_next_cluster</text>
</a>
</g>
</g>
<!-- Node2&#45;&gt;Node5 -->
<g id="edge4_Node000002_Node000005" class="edge">
<title>Node2&#45;&gt;Node5</title>
<g id="a_edge4_Node000002_Node000005"><a xlink:title=" ">
<path fill="none" stroke="#63b8ff" d="M215.33,-22.83C223.09,-21.78 231.31,-20.67 239.53,-19.55"/>
<polygon fill="#63b8ff" stroke="#63b8ff" points="239.77,-23.05 249.22,-18.24 238.84,-16.12 239.77,-23.05"/>
</a>
</g>
</g>
<!-- Node4 -->
<g id="Node000004" class="node">
<title>Node4</title>
<g id="a_Node000004"><a xlink:href="sdcard_8c.html#aae1cfbcba5f92f4639e23fd8ed8fa3c0" target="_top" xlink:title="Envia um comando SPI para o cartão SD e aguarda resposta R1.">
<polygon fill="white" stroke="#666666" points="588.5,-39 511.75,-39 511.75,-19 588.5,-19 588.5,-39"/>
<text xml:space="preserve" text-anchor="middle" x="550.12" y="-25.5" font-family="Helvetica,sans-Serif" font-size="10.00">sd_cmd_send</text>
</a>
</g>
</g>
<!-- Node3&#45;&gt;Node4 -->
<g id="edge3_Node000003_Node000004" class="edge">
<title>Node3&#45;&gt;Node4</title>
<g id="a_edge3_Node000003_Node000004"><a xlink:title=" ">
<path fill="none" stroke="#63b8ff" d="M476.24,-29C483.87,-29 492.12,-29 500.23,-29"/>
<polygon fill="#63b8ff" stroke="#63b8ff" points="500.02,-32.5 510.02,-29 500.02,-25.5 500.02,-32.5"/>
</a>
</g>
</g>
<!-- Node5&#45;&gt;Node3 -->
<g id="edge5_Node000005_Node000003" class="edge">
<title>Node5&#45;&gt;Node3</title>
<g id="a_edge5_Node000005_Node000003"><a xlink:title=" ">
<path fill="none" stroke="#63b8ff" d="M371.43,-18.78C379.64,-19.99 387.95,-21.22 395.84,-22.39"/>
<polygon fill="#63b8ff" stroke="#63b8ff" points="395.11,-25.82 405.52,-23.82 396.14,-18.9 395.11,-25.82"/>
</a>
</g>
</g>
</g>
</svg>
