<?xml version="1.0" encoding="UTF-8" standalone="no"?>
<!DOCTYPE svg PUBLIC "-//W3C//DTD SVG 1.1//EN"
 "http://www.w3.org/Graphics/SVG/1.1/DTD/svg11.dtd">
<!-- Generated by graphviz version 14.1.4 (20260321.0153)
 -->
<!-- Title: sd_fat_get_next_cluster Pages: 1 -->
<!--zoomable 429 -->

<svg id="main" version="1.1" xmlns="http://www.w3.org/2000/svg" xmlns:xlink="http://www.w3.org/1999/xlink" xml:space="preserve" onload="init(evt)">

<style type="text/css"><![CDATA[
.node, .edge {opacity: 0.7;}
.node.selected, .edge.selected {opacity: 1;}
.edge:hover path { stroke: red; }
.edge:hover polygon { stroke: red; fill: red; }
]]></style>

<defs>
  <circle id="rim" cx="0" cy="0" r="7"/>
  <circle id="rim2" cx="0" cy="0" r="3.5"/>
  <g id="zoomPlus">
    <use xlink:href="#rim" fill="#404040"><set attributeName="fill" to="#808080" begin="zoomplus.mouseover" end="zoomplus.mouseout"/></use>
    <path d="M-4,0h8M0,-4v8" fill="none" stroke="white" stroke-width="1.5" pointer-events="none"/>
  </g>
  <g id="zoomMin">
    <use xlink:href="#rim" fill="#404040"><set attributeName="fill" to="#808080" begin="zoomminus.mouseover" end="zoomminus.mouseout"/></use>
    <path d="M-4,0h8" fill="none" stroke="white" stroke-width="1.5" pointer-events="none"/>
  </g>
  <g id="arrowUp" transform="translate(30 24)">
    <use xlink:href="#rim"/>
    <path pointer-events="none" fill="none" stroke="white" stroke-width="1.5" d="M0,-3.0v7 M-2.5,-0.5L0,-3.0L2.5,-0.5"/>
  </g>
  <g id="arrowRight" transform="rotate(90) translate(36 -43)">
    <use xlink:href="#rim"/>
    <path pointer-events="none" fill="none" stroke="white" stroke-width="1.5" d="M0,-3.0v7 M-2.5,-0.5L0,-3.0L2.5,-0.5"/>
  </g>
  <g id="arrowDown" transform="rotate(180) translate(-30 -48)">
    <use xlink:href="#rim"/>
    <path pointer-events="none" fill="none" stroke="white" stroke-width="1.5" d="M0,-3.0v7 M-2.5,-0.5L0,-3.0L2.5,-0.5"/>
  </g>
  <g id="arrowLeft" transform="rotate(270) translate(-36 17)">
    <use xlink:href="#rim"/>
    <path pointer-events="none" fill="none" stroke="white" stroke-width="1.5" d="M0,-3.0v7 M-2.5,-0.5L0,-3.0L2.5,-0.5"/>
  </g>
  <g id="resetDef">
    <use xlink:href="#rim2" fill="#404040"><set attributeName="fill" to="#808080" begin="reset.mouseover" end="reset.mouseout"/></use>
  </g>
</defs>
<script type="application/ecmascript">
var viewWidth = 804;
var viewHeight = 429;
var sectionId = 'dynsection-27';
</script>
<script type="application/ecmascript" xlink:href="svg.min.js"/>
<svg id="graph" class="graph">
<g id="viewport">
<title>sd_fat_get_next_cluster</title>
<!-- Node1 -->
<g id="Node000001" class="node">
<title>Node1</title>
<g id="a_Node000001"><a xlink:title="Obtém o próximo cluster na tabela FAT.">
<polygon fill="#999999" stroke="#666666" points="795.75,-289 675.5,-289 675.5,-269 795.75,-269 795.75,-289"/>
<text xml:space="preserve" text-anchor="middle" x="735.62" y="-275.5" font-family="Helvetica,sans-Serif" font-size="10.00">sd_fat_get_next_cluster</text>
</a>
</g>
</g>
<!-- Node2 -->
<g id="Node000002" class="node">
<title>Node2</title>
<g id="a_Node000002"><a xlink:href="sdcard_8c.html#ac0efead9da3dedebd72b376562fca898" target="_top" xlink:title="Lista todos os arquivos presentes no diretório raiz via Serial.">
<polygon fill="white" stroke="#666666" points="319.5,-341 259.25,-341 259.25,-321 319.5,-321 319.5,-341"/>
<text xml:space="preserve" text-anchor="middle" x="289.38" y="-327.5" font-family="Helvetica,sans-Serif" font-size="10.00">sd_dir_list</text>
</a>
</g>
</g>
<!-- Node1&#45;&gt;Node2 -->
<g id="edge1_Node000001_Node000002" class="edge">
<title>Node1&#45;&gt;Node2</title>
<g id="a_edge1_Node000001_Node000002"><a xlink:title=" ">
<path fill="none" stroke="#63b8ff" d="M721.95,-298.49C705.74,-321.74 675.42,-359.98 639.5,-380 583.23,-411.36 561.59,-402.52 497.5,-409 450.63,-413.74 432.58,-432.06 391.5,-409 364.71,-393.96 379.89,-368.67 355.5,-350 345.21,-342.12 331.74,-337.51 319.72,-334.81"/>
<polygon fill="#63b8ff" stroke="#63b8ff" points="724.64,-300.75 727.35,-290.51 718.85,-296.83 724.64,-300.75"/>
</a>
</g>
</g>
<!-- Node10 -->
<g id="Node000010" class="node">
<title>Node10</title>
<g id="a_Node000010"><a xlink:href="sdcard_8c.html#a6dcdbe623e720ed71f92e745c440db85" target="_top" xlink:title="Expande o diretorio alocando um novo cluster.">
<polygon fill="white" stroke="#666666" points="639.5,-38 533.5,-38 533.5,-18 639.5,-18 639.5,-38"/>
<text xml:space="preserve" text-anchor="middle" x="586.5" y="-24.5" font-family="Helvetica,sans-Serif" font-size="10.00">sd_expand_directory</text>
</a>
</g>
</g>
<!-- Node1&#45;&gt;Node10 -->
<g id="edge9_Node000001_Node000010" class="edge">
<title>Node1&#45;&gt;Node10</title>
<g id="a_edge9_Node000001_Node000010"><a xlink:title=" ">
<path fill="none" stroke="#63b8ff" d="M731.06,-257.77C722.67,-213.93 697.83,-112.45 639.5,-52 634.05,-46.35 627.01,-41.9 619.88,-38.45"/>
<polygon fill="#63b8ff" stroke="#63b8ff" points="727.59,-258.26 732.81,-267.48 734.48,-257.02 727.59,-258.26"/>
</a>
</g>
</g>
<!-- Node11 -->
<g id="Node000011" class="node">
<title>Node11</title>
<g id="a_Node000011"><a xlink:href="sdcard_8c.html#a5228ed5a829330c001b1614c8476236c" target="_top" xlink:title="Cria um novo arquivo no diretorio raiz com expansao de cluster.">
<polygon fill="white" stroke="#666666" points="482.88,-58 406.12,-58 406.12,-38 482.88,-38 482.88,-58"/>
<text xml:space="preserve" text-anchor="middle" x="444.5" y="-44.5" font-family="Helvetica,sans-Serif" font-size="10.00">sd_file_create</text>
</a>
</g>
</g>
<!-- Node1&#45;&gt;Node11 -->
<g id="edge22_Node000001_Node000011" class="edge">
<title>Node1&#45;&gt;Node11</title>
<g id="a_edge22_Node000001_Node000011"><a xlink:title=" ">
<path fill="none" stroke="#63b8ff" d="M730.25,-257.69C720.94,-218.08 695.33,-133.22 639.5,-90 594,-54.77 525.3,-47.63 483.04,-46.92"/>
<polygon fill="#63b8ff" stroke="#63b8ff" points="726.81,-258.36 732.39,-267.37 733.65,-256.85 726.81,-258.36"/>
</a>
</g>
</g>
<!-- Node15 -->
<g id="Node000015" class="node">
<title>Node15</title>
<g id="a_Node000015"><a xlink:href="sdcard_8c.html#a3cb6e9bbb79a21ebf8cf7357ed262726" target="_top" xlink:title="Adiciona dados ao final de um arquivo, expandindo clusters se necessário.">
<polygon fill="white" stroke="#666666" points="347.62,-187 231.12,-187 231.12,-167 347.62,-167 347.62,-187"/>
<text xml:space="preserve" text-anchor="middle" x="289.38" y="-173.5" font-family="Helvetica,sans-Serif" font-size="10.00">sd_file_append_stream</text>
</a>
</g>
</g>
<!-- Node1&#45;&gt;Node15 -->
<g id="edge18_Node000001_Node000015" class="edge">
<title>Node1&#45;&gt;Node15</title>
<g id="a_edge18_Node000001_Node000015"><a xlink:title=" ">
<path fill="none" stroke="#63b8ff" d="M715.99,-261.03C678.42,-226.19 589.28,-150.48 497.5,-123 452.37,-109.49 436.46,-108.92 391.5,-123 372.91,-128.82 372.47,-138.44 355.5,-148 343.21,-154.92 328.95,-161.43 316.91,-166.52"/>
<polygon fill="#63b8ff" stroke="#63b8ff" points="713.23,-263.23 722.91,-267.54 718.02,-258.14 713.23,-263.23"/>
</a>
</g>
</g>
<!-- Node16 -->
<g id="Node000016" class="node">
<title>Node16</title>
<g id="a_Node000016"><a xlink:href="sdcard_8c.html#af2ad75b395d583c12294747d47860497" target="_top" xlink:title="Exclui um arquivo do diretório e libera seu espaço no disco.">
<polygon fill="white" stroke="#666666" points="327.38,-303 251.38,-303 251.38,-283 327.38,-283 327.38,-303"/>
<text xml:space="preserve" text-anchor="middle" x="289.38" y="-289.5" font-family="Helvetica,sans-Serif" font-size="10.00">sd_file_delete</text>
</a>
</g>
</g>
<!-- Node1&#45;&gt;Node16 -->
<g id="edge23_Node000001_Node000016" class="edge">
<title>Node1&#45;&gt;Node16</title>
<g id="a_edge23_Node000001_Node000016"><a xlink:title=" ">
<path fill="none" stroke="#63b8ff" d="M714.91,-296.84C696.58,-312.58 667.9,-335.13 639.5,-349 580.59,-377.78 562.45,-380.03 497.5,-389 450.83,-395.45 431.25,-414.29 391.5,-389 359.63,-368.72 384.18,-336.59 355.5,-312 347.63,-305.25 337.48,-300.9 327.54,-298.09"/>
<polygon fill="#63b8ff" stroke="#63b8ff" points="717.15,-299.53 722.36,-290.31 712.54,-294.27 717.15,-299.53"/>
</a>
</g>
</g>
<!-- Node17 -->
<g id="Node000017" class="node">
<title>Node17</title>
<g id="a_Node000017"><a xlink:href="sdcard_8c.html#a4c9e96825f9777aab8c8980c35310db6" target="_top" xlink:title="Lê o conteúdo de um arquivo em modo streaming via callback.">
<polygon fill="white" stroke="#666666" points="496.38,-380 392.62,-380 392.62,-360 496.38,-360 496.38,-380"/>
<text xml:space="preserve" text-anchor="middle" x="444.5" y="-366.5" font-family="Helvetica,sans-Serif" font-size="10.00">sd_file_read_stream</text>
</a>
</g>
</g>
<!-- Node1&#45;&gt;Node17 -->
<g id="edge27_Node000001_Node000017" class="edge">
<title>Node1&#45;&gt;Node17</title>
<g id="a_edge27_Node000001_Node000017"><a xlink:title=" ">
<path fill="none" stroke="#63b8ff" d="M702.74,-294.21C684.49,-302.54 661.02,-312.64 639.5,-320 591.12,-336.55 534.34,-350.58 494.75,-359.53"/>
<polygon fill="#63b8ff" stroke="#63b8ff" points="704.11,-297.44 711.71,-290.06 701.17,-291.08 704.11,-297.44"/>
</a>
</g>
</g>
<!-- Node20 -->
<g id="Node000020" class="node">
<title>Node20</title>
<g id="a_Node000020"><a xlink:href="sdcard_8c.html#ac738738df5abe4582855b5b34312e41e" target="_top" xlink:title="Escreve dados em um arquivo FAT32 existente (modo streaming).">
<polygon fill="white" stroke="#666666" points="497.5,-342 391.5,-342 391.5,-322 497.5,-322 497.5,-342"/>
<text xml:space="preserve" text-anchor="middle" x="444.5" y="-328.5" font-family="Helvetica,sans-Serif" font-size="10.00">sd_file_write_stream</text>
</a>
</g>
</g>
<!-- Node1&#45;&gt;Node20 -->
<g id="edge32_Node000001_Node000020" class="edge">
<title>Node1&#45;&gt;Node20</title>
<g id="a_edge32_Node000001_Node000020"><a xlink:title=" ">
<path fill="none" stroke="#63b8ff" d="M666.44,-291.5C614.79,-300.97 544.88,-313.78 497.64,-322.44"/>
<polygon fill="#63b8ff" stroke="#63b8ff" points="666.81,-294.99 676.01,-289.74 665.55,-288.1 666.81,-294.99"/>
</a>
</g>
</g>
<!-- Node21 -->
<g id="Node000021" class="node">
<title>Node21</title>
<g id="a_Node000021"><a xlink:href="sdcard_8c.html#a3794ef278970bdb3d1d50b3f10fc4e9f" target="_top" xlink:title="Localiza a entrada de um arquivo no diretório raiz.">
<polygon fill="white" stroke="#666666" points="632.75,-266 540.25,-266 540.25,-246 632.75,-246 632.75,-266"/>
<text xml:space="preserve" text-anchor="middle" x="586.5" y="-252.5" font-family="Helvetica,sans-Serif" font-size="10.00">sd_find_file_entry</text>
</a>
</g>
</g>
<!-- Node1&#45;&gt;Node21 -->
<g id="edge33_Node000001_Node000021" class="edge">
<title>Node1&#45;&gt;Node21</title>
<g id="a_edge33_Node000001_Node000021"><a xlink:title=" ">
<path fill="none" stroke="#63b8ff" d="M663.91,-267.95C653.44,-266.31 642.88,-264.66 633.11,-263.13"/>
<polygon fill="#63b8ff" stroke="#63b8ff" points="663.29,-271.39 673.71,-269.48 664.37,-264.47 663.29,-271.39"/>
</a>
</g>
</g>
<!-- Node3 -->
<g id="Node000003" class="node">
<title>Node3</title>
<g id="a_Node000003"><a xlink:href="exemplo__4_8c.html#a840291bc02cba5474a4cb46a9b9566fe" target="_top" xlink:title="Função main demonstrando o fluxo completo de carregamento e uso.">
<polygon fill="white" stroke="#666666" points="148.62,-360 111.62,-360 111.62,-340 148.62,-340 148.62,-360"/>
<text xml:space="preserve" text-anchor="middle" x="130.12" y="-346.5" font-family="Helvetica,sans-Serif" font-size="10.00">main</text>
</a>
</g>
</g>
<!-- Node2&#45;&gt;Node3 -->
<g id="edge2_Node000002_Node000003" class="edge">
<title>Node2&#45;&gt;Node3</title>
<g id="a_edge2_Node000002_Node000003"><a xlink:title=" ">
<path fill="none" stroke="#63b8ff" d="M247.56,-335.93C215.58,-339.8 172.63,-344.99 148.84,-347.86"/>
<polygon fill="#63b8ff" stroke="#63b8ff" points="247.79,-339.43 257.29,-334.76 246.95,-332.48 247.79,-339.43"/>
</a>
</g>
</g>
<!-- Node4 -->
<g id="Node000004" class="node">
<title>Node4</title>
<g id="a_Node000004"><a xlink:href="exemplo__5_8c.html#a1ebabf5df3f5856d744054ab8d011d87" target="_top" xlink:title="Interpreta e executa o comando digitado.">
<polygon fill="white" stroke="#666666" points="182,-303 78.25,-303 78.25,-283 182,-283 182,-303"/>
<text xml:space="preserve" text-anchor="middle" x="130.12" y="-289.5" font-family="Helvetica,sans-Serif" font-size="10.00">processar_comando</text>
</a>
</g>
</g>
<!-- Node2&#45;&gt;Node4 -->
<g id="edge3_Node000002_Node000004" class="edge">
<title>Node2&#45;&gt;Node4</title>
<g id="a_edge3_Node000002_Node000004"><a xlink:title=" ">
<path fill="none" stroke="#63b8ff" d="M247.62,-321.15C225.19,-315.73 197.36,-309.01 174.53,-303.49"/>
<polygon fill="#63b8ff" stroke="#63b8ff" points="246.78,-324.55 257.33,-323.5 248.43,-317.75 246.78,-324.55"/>
</a>
</g>
</g>
<!-- Node6 -->
<g id="Node000006" class="node">
<title>Node6</title>
<g id="a_Node000006"><a xlink:href="exemplo__1_8c.html#a45578ec38e9d0ae49d3313fa3900f338" target="_top" xlink:title="Demonstração completa e básica da biblioteca.">
<polygon fill="white" stroke="#666666" points="187.25,-227 73,-227 73,-195 187.25,-195 187.25,-227"/>
<text xml:space="preserve" text-anchor="start" x="81" y="-213.5" font-family="Helvetica,sans-Serif" font-size="10.00">teste_basico_escrever</text>
<text xml:space="preserve" text-anchor="middle" x="130.12" y="-201.5" font-family="Helvetica,sans-Serif" font-size="10.00">_string</text>
</a>
</g>
</g>
<!-- Node2&#45;&gt;Node6 -->
<g id="edge5_Node000002_Node000006" class="edge">
<title>Node2&#45;&gt;Node6</title>
<g id="a_edge5_Node000002_Node000006"><a xlink:title=" ">
<path fill="none" stroke="#63b8ff" d="M247.86,-324.87C239.03,-322.06 230.24,-317.96 223.25,-312 194.81,-287.75 213.98,-262.12 187.25,-236 183.97,-232.79 180.21,-229.96 176.22,-227.46"/>
<polygon fill="#63b8ff" stroke="#63b8ff" points="246.91,-328.24 257.47,-327.4 248.69,-321.47 246.91,-328.24"/>
</a>
</g>
</g>
<!-- Node8 -->
<g id="Node000008" class="node">
<title>Node8</title>
<g id="a_Node000008"><a xlink:href="exemplo__2_8c.html#a71c134181186f04ca234d95f2b605e9a" target="_top" xlink:title="Executa o teste completo: Inicialização, Gravação e Busca.">
<polygon fill="white" stroke="#666666" points="184.62,-265 75.62,-265 75.62,-245 184.62,-245 184.62,-265"/>
<text xml:space="preserve" text-anchor="middle" x="130.12" y="-251.5" font-family="Helvetica,sans-Serif" font-size="10.00">teste_datalogger_csv</text>
</a>
</g>
</g>
<!-- Node2&#45;&gt;Node8 -->
<g id="edge7_Node000002_Node000008" class="edge">
<title>Node2&#45;&gt;Node8</title>
<g id="a_edge7_Node000002_Node000008"><a xlink:title=" ">
<path fill="none" stroke="#63b8ff" d="M247.84,-322.77C239.36,-320.08 230.73,-316.57 223.25,-312 203.39,-299.88 206.84,-286.54 187.25,-274 181.96,-270.62 176.01,-267.77 170.01,-265.39"/>
<polygon fill="#63b8ff" stroke="#63b8ff" points="246.77,-326.11 257.35,-325.45 248.67,-319.37 246.77,-326.11"/>
</a>
</g>
</g>
<!-- Node5 -->
<g id="Node000005" class="node">
<title>Node5</title>
<g id="a_Node000005"><a xlink:href="exemplo__5_8c.html#a840291bc02cba5474a4cb46a9b9566fe" target="_top" xlink:title=" ">
<polygon fill="white" stroke="#666666" points="37,-303 0,-303 0,-283 37,-283 37,-303"/>
<text xml:space="preserve" text-anchor="middle" x="18.5" y="-289.5" font-family="Helvetica,sans-Serif" font-size="10.00">main</text>
</a>
</g>
</g>
<!-- Node4&#45;&gt;Node5 -->
<g id="edge4_Node000004_Node000005" class="edge">
<title>Node4&#45;&gt;Node5</title>
<g id="a_edge4_Node000004_Node000005"><a xlink:title=" ">
<path fill="none" stroke="#63b8ff" d="M66.64,-293C55.96,-293 45.68,-293 37.46,-293"/>
<polygon fill="#63b8ff" stroke="#63b8ff" points="66.33,-296.5 76.33,-293 66.33,-289.5 66.33,-296.5"/>
</a>
</g>
</g>
<!-- Node7 -->
<g id="Node000007" class="node">
<title>Node7</title>
<g id="a_Node000007"><a xlink:href="exemplo__1_8c.html#a840291bc02cba5474a4cb46a9b9566fe" target="_top" xlink:title=" ">
<polygon fill="white" stroke="#666666" points="37,-221 0,-221 0,-201 37,-201 37,-221"/>
<text xml:space="preserve" text-anchor="middle" x="18.5" y="-207.5" font-family="Helvetica,sans-Serif" font-size="10.00">main</text>
</a>
</g>
</g>
<!-- Node6&#45;&gt;Node7 -->
<g id="edge6_Node000006_Node000007" class="edge">
<title>Node6&#45;&gt;Node7</title>
<g id="a_edge6_Node000006_Node000007"><a xlink:title=" ">
<path fill="none" stroke="#63b8ff" d="M61.41,-211C52.63,-211 44.32,-211 37.45,-211"/>
<polygon fill="#63b8ff" stroke="#63b8ff" points="61.19,-214.5 71.19,-211 61.19,-207.5 61.19,-214.5"/>
</a>
</g>
</g>
<!-- Node9 -->
<g id="Node000009" class="node">
<title>Node9</title>
<g id="a_Node000009"><a xlink:href="exemplo__2_8c.html#a840291bc02cba5474a4cb46a9b9566fe" target="_top" xlink:title="Função principal.">
<polygon fill="white" stroke="#666666" points="37,-265 0,-265 0,-245 37,-245 37,-265"/>
<text xml:space="preserve" text-anchor="middle" x="18.5" y="-251.5" font-family="Helvetica,sans-Serif" font-size="10.00">main</text>
</a>
</g>
</g>
<!-- Node8&#45;&gt;Node9 -->
<g id="edge8_Node000008_Node000009" class="edge">
<title>Node8&#45;&gt;Node9</title>
<g id="a_edge8_Node000008_Node000009"><a xlink:title=" ">
<path fill="none" stroke="#63b8ff" d="M63.82,-255C54.17,-255 44.98,-255 37.49,-255"/>
<polygon fill="#63b8ff" stroke="#63b8ff" points="63.76,-258.5 73.76,-255 63.76,-251.5 63.76,-258.5"/>
</a>
</g>
</g>
<!-- Node10&#45;&gt;Node11 -->
<g id="edge10_Node000010_Node000011" class="edge">
<title>Node10&#45;&gt;Node11</title>
<g id="a_edge10_Node000010_Node000011"><a xlink:title=" ">
<path fill="none" stroke="#63b8ff" d="M522.29,-37.03C508.95,-38.94 495.28,-40.89 483.24,-42.61"/>
<polygon fill="#63b8ff" stroke="#63b8ff" points="522.47,-40.54 531.87,-35.66 521.48,-33.61 522.47,-40.54"/>
</a>
</g>
</g>
<!-- Node11&#45;&gt;Node6 -->
<g id="edge16_Node000011_Node000006" class="edge">
<title>Node11&#45;&gt;Node6</title>
<g id="a_edge16_Node000011_Node000006"><a xlink:title=" ">
<path fill="none" stroke="#63b8ff" d="M394.94,-58.11C348.49,-69.21 277.65,-90 223.25,-123 190.91,-142.62 160.67,-175.29 144.15,-194.83"/>
<polygon fill="#63b8ff" stroke="#63b8ff" points="395.49,-61.57 404.44,-55.9 393.9,-54.75 395.49,-61.57"/>
</a>
</g>
</g>
<!-- Node11&#45;&gt;Node8 -->
<g id="edge17_Node000011_Node000008" class="edge">
<title>Node11&#45;&gt;Node8</title>
<g id="a_edge17_Node000011_Node000008"><a xlink:title=" ">
<path fill="none" stroke="#63b8ff" d="M422.77,-65.4C405.59,-79.17 380.09,-98.15 355.5,-111 300.21,-139.88 269.32,-115.94 223.25,-158 195.05,-183.74 215.64,-210.47 187.25,-236 183.43,-239.44 178.95,-242.26 174.23,-244.57"/>
<polygon fill="#63b8ff" stroke="#63b8ff" points="424.69,-68.35 430.23,-59.31 420.26,-62.92 424.69,-68.35"/>
</a>
</g>
</g>
<!-- Node11&#45;&gt;Node11 -->
<g id="edge15_Node000011_Node000011" class="edge">
<title>Node11&#45;&gt;Node11</title>
<g id="a_edge15_Node000011_Node000011"><a xlink:title=" ">
<path fill="none" stroke="#63b8ff" d="M469.6,-69.44C466.36,-73.3 458,-76 444.5,-76 419.82,-76 412.3,-66.98 421.94,-58.34"/>
<polygon fill="#63b8ff" stroke="#63b8ff" points="473.04,-68.78 467.4,-59.81 466.21,-70.34 473.04,-68.78"/>
</a>
</g>
</g>
<!-- Node12 -->
<g id="Node000012" class="node">
<title>Node12</title>
<g id="a_Node000012"><a xlink:href="exemplo__3_8c.html#a1888a7d50f8090bc2f0c577e2ce4074f" target="_top" xlink:title="Localiza ou cria o volume de log adequado no cartão.">
<polygon fill="white" stroke="#666666" points="355.5,-58 223.25,-58 223.25,-38 355.5,-38 355.5,-58"/>
<text xml:space="preserve" text-anchor="middle" x="289.38" y="-44.5" font-family="Helvetica,sans-Serif" font-size="10.00">gerenciar_proximo_volume</text>
</a>
</g>
</g>
<!-- Node11&#45;&gt;Node12 -->
<g id="edge11_Node000011_Node000012" class="edge">
<title>Node11&#45;&gt;Node12</title>
<g id="a_edge11_Node000011_Node000012"><a xlink:title=" ">
<path fill="none" stroke="#63b8ff" d="M394.28,-48C382.03,-48 368.71,-48 355.81,-48"/>
<polygon fill="#63b8ff" stroke="#63b8ff" points="394.14,-51.5 404.14,-48 394.14,-44.5 394.14,-51.5"/>
</a>
</g>
</g>
<!-- Node13 -->
<g id="Node000013" class="node">
<title>Node13</title>
<g id="a_Node000013"><a xlink:href="exemplo__3_8c.html#a840291bc02cba5474a4cb46a9b9566fe" target="_top" xlink:title="Ponto de entrada do programa.">
<polygon fill="white" stroke="#666666" points="37,-58 0,-58 0,-38 37,-38 37,-58"/>
<text xml:space="preserve" text-anchor="middle" x="18.5" y="-44.5" font-family="Helvetica,sans-Serif" font-size="10.00">main</text>
</a>
</g>
</g>
<!-- Node12&#45;&gt;Node13 -->
<g id="edge12_Node000012_Node000013" class="edge">
<title>Node12&#45;&gt;Node13</title>
<g id="a_edge12_Node000012_Node000013"><a xlink:title=" ">
<path fill="none" stroke="#63b8ff" d="M211.55,-45.37C170.44,-44.35 118.96,-43.71 73,-45 61.1,-45.33 47.72,-46.08 37.32,-46.75"/>
<polygon fill="#63b8ff" stroke="#63b8ff" points="211.26,-48.86 221.35,-45.62 211.44,-41.86 211.26,-48.86"/>
</a>
</g>
</g>
<!-- Node14 -->
<g id="Node000014" class="node">
<title>Node14</title>
<g id="a_Node000014"><a xlink:href="exemplo__3_8c.html#a9765d93a7e9eac42493b89eb0dc1ab12" target="_top" xlink:title="Formata e grava um registro CSV com data, hora e 4 sensores.">
<polygon fill="white" stroke="#666666" points="180.88,-86 79.38,-86 79.38,-54 180.88,-54 180.88,-86"/>
<text xml:space="preserve" text-anchor="start" x="87.38" y="-72.5" font-family="Helvetica,sans-Serif" font-size="10.00">registrar_dado_com</text>
<text xml:space="preserve" text-anchor="middle" x="130.12" y="-60.5" font-family="Helvetica,sans-Serif" font-size="10.00">_rotacao</text>
</a>
</g>
</g>
<!-- Node12&#45;&gt;Node14 -->
<g id="edge13_Node000012_Node000014" class="edge">
<title>Node12&#45;&gt;Node14</title>
<g id="a_edge13_Node000012_Node000014"><a xlink:title=" ">
<path fill="none" stroke="#63b8ff" d="M211.8,-58.71C201.39,-60.17 190.92,-61.63 181.14,-63"/>
<polygon fill="#63b8ff" stroke="#63b8ff" points="212.14,-62.2 221.55,-57.35 211.17,-55.27 212.14,-62.2"/>
</a>
</g>
</g>
<!-- Node14&#45;&gt;Node13 -->
<g id="edge14_Node000014_Node000013" class="edge">
<title>Node14&#45;&gt;Node13</title>
<g id="a_edge14_Node000014_Node000013"><a xlink:title=" ">
<path fill="none" stroke="#63b8ff" d="M67.92,-57.72C56.77,-55.48 45.98,-53.31 37.42,-51.6"/>
<polygon fill="#63b8ff" stroke="#63b8ff" points="67.15,-61.13 77.64,-59.67 68.52,-54.27 67.15,-61.13"/>
</a>
</g>
</g>
<!-- Node15&#45;&gt;Node6 -->
<g id="edge20_Node000015_Node000006" class="edge">
<title>Node15&#45;&gt;Node6</title>
<g id="a_edge20_Node000015_Node000006"><a xlink:title=" ">
<path fill="none" stroke="#63b8ff" d="M228.81,-189.88C215.33,-192.79 201.05,-195.88 187.7,-198.77"/>
<polygon fill="#63b8ff" stroke="#63b8ff" points="229.4,-193.33 238.43,-187.8 227.92,-186.49 229.4,-193.33"/>
</a>
</g>
</g>
<!-- Node15&#45;&gt;Node8 -->
<g id="edge21_Node000015_Node000008" class="edge">
<title>Node15&#45;&gt;Node8</title>
<g id="a_edge21_Node000015_Node000008"><a xlink:title=" ">
<path fill="none" stroke="#63b8ff" d="M232.6,-191.89C229.35,-193.44 226.21,-195.14 223.25,-197 203.28,-209.56 207.03,-223.15 187.25,-236 182.07,-239.36 176.24,-242.19 170.34,-244.55"/>
<polygon fill="#63b8ff" stroke="#63b8ff" points="233.94,-195.12 241.81,-188.03 231.24,-188.67 233.94,-195.12"/>
</a>
</g>
</g>
<!-- Node15&#45;&gt;Node14 -->
<g id="edge19_Node000015_Node000014" class="edge">
<title>Node15&#45;&gt;Node14</title>
<g id="a_edge19_Node000015_Node000014"><a xlink:title=" ">
<path fill="none" stroke="#63b8ff" d="M263.78,-160.26C234.13,-140.09 184.65,-106.42 155.23,-86.4"/>
<polygon fill="#63b8ff" stroke="#63b8ff" points="261.52,-162.96 271.76,-165.69 265.46,-157.17 261.52,-162.96"/>
</a>
</g>
</g>
<!-- Node16&#45;&gt;Node4 -->
<g id="edge24_Node000016_Node000004" class="edge">
<title>Node16&#45;&gt;Node4</title>
<g id="a_edge24_Node000016_Node000004"><a xlink:title=" ">
<path fill="none" stroke="#63b8ff" d="M239.84,-293C221.62,-293 200.86,-293 182.4,-293"/>
<polygon fill="#63b8ff" stroke="#63b8ff" points="239.6,-296.5 249.6,-293 239.6,-289.5 239.6,-296.5"/>
</a>
</g>
</g>
<!-- Node16&#45;&gt;Node6 -->
<g id="edge25_Node000016_Node000006" class="edge">
<title>Node16&#45;&gt;Node6</title>
<g id="a_edge25_Node000016_Node000006"><a xlink:title=" ">
<path fill="none" stroke="#63b8ff" d="M240.35,-282.18C234.38,-279.92 228.53,-277.22 223.25,-274 203.39,-261.88 206.24,-249.44 187.25,-236 182.81,-232.86 177.91,-229.98 172.91,-227.37"/>
<polygon fill="#63b8ff" stroke="#63b8ff" points="239.09,-285.45 249.68,-285.3 241.31,-278.81 239.09,-285.45"/>
</a>
</g>
</g>
<!-- Node16&#45;&gt;Node8 -->
<g id="edge26_Node000016_Node000008" class="edge">
<title>Node16&#45;&gt;Node8</title>
<g id="a_edge26_Node000016_Node000008"><a xlink:title=" ">
<path fill="none" stroke="#63b8ff" d="M240.19,-281.36C219.25,-276.3 194.9,-270.41 174.53,-265.49"/>
<polygon fill="#63b8ff" stroke="#63b8ff" points="239.1,-284.69 249.64,-283.64 240.74,-277.89 239.1,-284.69"/>
</a>
</g>
</g>
<!-- Node18 -->
<g id="Node000018" class="node">
<title>Node18</title>
<g id="a_Node000018"><a xlink:href="exemplo__2_8c.html#aba31b1e3919797222f981b3bc0fa1eda" target="_top" xlink:title="Inicia a busca por um valor em uma coluna específica do arquivo CSV.">
<polygon fill="white" stroke="#666666" points="340.5,-265 238.25,-265 238.25,-245 340.5,-245 340.5,-265"/>
<text xml:space="preserve" text-anchor="middle" x="289.38" y="-251.5" font-family="Helvetica,sans-Serif" font-size="10.00">busca_valor_coluna</text>
</a>
</g>
</g>
<!-- Node17&#45;&gt;Node18 -->
<g id="edge28_Node000017_Node000018" class="edge">
<title>Node17&#45;&gt;Node18</title>
<g id="a_edge28_Node000017_Node000018"><a xlink:title=" ">
<path fill="none" stroke="#63b8ff" d="M394.82,-353.76C393.67,-352.89 392.56,-351.97 391.5,-351 363.65,-325.47 384.18,-298.59 355.5,-274 351.21,-270.32 346.24,-267.35 340.99,-264.96"/>
<polygon fill="#63b8ff" stroke="#63b8ff" points="392.7,-356.57 403.06,-358.81 396.36,-350.6 392.7,-356.57"/>
</a>
</g>
</g>
<!-- Node19 -->
<g id="Node000019" class="node">
<title>Node19</title>
<g id="a_Node000019"><a xlink:href="exemplo__4_8c.html#aea5f9f33267c7ef0c394d9a9e8d45c17" target="_top" xlink:title="Localiza e processa o arquivo CONFIG.ini no cartão SD.">
<polygon fill="white" stroke="#666666" points="354,-379 224.75,-379 224.75,-359 354,-359 354,-379"/>
<text xml:space="preserve" text-anchor="middle" x="289.38" y="-365.5" font-family="Helvetica,sans-Serif" font-size="10.00">carregar_parametros_boot</text>
</a>
</g>
</g>
<!-- Node17&#45;&gt;Node19 -->
<g id="edge30_Node000017_Node000019" class="edge">
<title>Node17&#45;&gt;Node19</title>
<g id="a_edge30_Node000017_Node000019"><a xlink:title=" ">
<path fill="none" stroke="#63b8ff" d="M381.15,-369.59C372.36,-369.54 363.31,-369.48 354.49,-369.42"/>
<polygon fill="#63b8ff" stroke="#63b8ff" points="380.98,-373.09 391,-369.66 381.02,-366.09 380.98,-373.09"/>
</a>
</g>
</g>
<!-- Node18&#45;&gt;Node8 -->
<g id="edge29_Node000018_Node000008" class="edge">
<title>Node18&#45;&gt;Node8</title>
<g id="a_edge29_Node000018_Node000008"><a xlink:title=" ">
<path fill="none" stroke="#63b8ff" d="M226.43,-255C212.71,-255 198.27,-255 184.9,-255"/>
<polygon fill="#63b8ff" stroke="#63b8ff" points="226.24,-258.5 236.24,-255 226.24,-251.5 226.24,-258.5"/>
</a>
</g>
</g>
<!-- Node19&#45;&gt;Node3 -->
<g id="edge31_Node000019_Node000003" class="edge">
<title>Node19&#45;&gt;Node3</title>
<g id="a_edge31_Node000019_Node000003"><a xlink:title=" ">
<path fill="none" stroke="#63b8ff" d="M213.08,-359.9C189.09,-357 164.68,-354.05 148.82,-352.14"/>
<polygon fill="#63b8ff" stroke="#63b8ff" points="212.57,-363.37 222.91,-361.09 213.4,-356.42 212.57,-363.37"/>
</a>
</g>
</g>
<!-- Node21&#45;&gt;Node15 -->
<g id="edge34_Node000021_Node000015" class="edge">
<title>Node21&#45;&gt;Node15</title>
<g id="a_edge34_Node000021_Node000015"><a xlink:title=" ">
<path fill="none" stroke="#63b8ff" d="M536.53,-242.58C523.82,-239.12 510.16,-235.41 497.5,-232 439.3,-216.34 371.81,-198.47 330.1,-187.46"/>
<polygon fill="#63b8ff" stroke="#63b8ff" points="535.37,-245.89 545.94,-245.15 537.21,-239.14 535.37,-245.89"/>
</a>
</g>
</g>
<!-- Node21&#45;&gt;Node17 -->
<g id="edge42_Node000021_Node000017" class="edge">
<title>Node21&#45;&gt;Node17</title>
<g id="a_edge42_Node000021_Node000017"><a xlink:title=" ">
<path fill="none" stroke="#63b8ff" d="M571.75,-275.69C556.02,-296.93 528.39,-330.46 497.5,-351 492.46,-354.35 486.75,-357.21 481.01,-359.6"/>
<polygon fill="#63b8ff" stroke="#63b8ff" points="574.59,-277.75 577.6,-267.59 568.91,-273.65 574.59,-277.75"/>
</a>
</g>
</g>
<!-- Node21&#45;&gt;Node20 -->
<g id="edge47_Node000021_Node000020" class="edge">
<title>Node21&#45;&gt;Node20</title>
<g id="a_edge47_Node000021_Node000020"><a xlink:title=" ">
<path fill="none" stroke="#63b8ff" d="M559.46,-272.36C551.14,-277.63 541.91,-283.53 533.5,-289 517.38,-299.49 514.65,-304.31 497.5,-313 491.33,-316.13 484.51,-319 477.91,-321.51"/>
<polygon fill="#63b8ff" stroke="#63b8ff" points="561.18,-275.42 567.77,-267.12 557.44,-269.5 561.18,-275.42"/>
</a>
</g>
</g>
<!-- Node22 -->
<g id="Node000022" class="node">
<title>Node22</title>
<g id="a_Node000022"><a xlink:href="sdcard_8c.html#a6bb4db7466137c6d4346e2264d403230" target="_top" xlink:title="Verifica se arquivo existe.">
<polygon fill="white" stroke="#666666" points="482.5,-304 406.5,-304 406.5,-284 482.5,-284 482.5,-304"/>
<text xml:space="preserve" text-anchor="middle" x="444.5" y="-290.5" font-family="Helvetica,sans-Serif" font-size="10.00">sd_file_exists</text>
</a>
</g>
</g>
<!-- Node21&#45;&gt;Node22 -->
<g id="edge35_Node000021_Node000022" class="edge">
<title>Node21&#45;&gt;Node22</title>
<g id="a_edge35_Node000021_Node000022"><a xlink:title=" ">
<path fill="none" stroke="#63b8ff" d="M536.18,-269.39C518.55,-274.17 498.98,-279.48 482.55,-283.94"/>
<polygon fill="#63b8ff" stroke="#63b8ff" points="536.68,-272.88 545.41,-266.88 534.85,-266.12 536.68,-272.88"/>
</a>
</g>
</g>
<!-- Node23 -->
<g id="Node000023" class="node">
<title>Node23</title>
<g id="a_Node000023"><a xlink:href="sdcard_8c.html#a62fe3cc3e143e0df2bd0bc2c8badc78a" target="_top" xlink:title="Obtém tamanho do arquivo.">
<polygon fill="white" stroke="#666666" points="487.75,-20 401.25,-20 401.25,0 487.75,0 487.75,-20"/>
<text xml:space="preserve" text-anchor="middle" x="444.5" y="-6.5" font-family="Helvetica,sans-Serif" font-size="10.00">sd_file_get_size</text>
</a>
</g>
</g>
<!-- Node21&#45;&gt;Node23 -->
<g id="edge38_Node000021_Node000023" class="edge">
<title>Node21&#45;&gt;Node23</title>
<g id="a_edge38_Node000021_Node000023"><a xlink:title=" ">
<path fill="none" stroke="#63b8ff" d="M583.06,-234.38C576.92,-189.84 556.82,-87.17 497.5,-29 494,-25.57 489.83,-22.75 485.4,-20.44"/>
<polygon fill="#63b8ff" stroke="#63b8ff" points="579.56,-234.56 584.28,-244.04 586.5,-233.68 579.56,-234.56"/>
</a>
</g>
</g>
<!-- Node24 -->
<g id="Node000024" class="node">
<title>Node24</title>
<g id="a_Node000024"><a xlink:href="sdcard_8c.html#aeb8a12857aacd74c71460265f529e634" target="_top" xlink:title="Lê o conteúdo de um arquivo FAT32 para um buffer externo.">
<polygon fill="white" stroke="#666666" points="478.75,-190 410.25,-190 410.25,-170 478.75,-170 478.75,-190"/>
<text xml:space="preserve" text-anchor="middle" x="444.5" y="-176.5" font-family="Helvetica,sans-Serif" font-size="10.00">sd_file_read</text>
</a>
</g>
</g>
<!-- Node21&#45;&gt;Node24 -->
<g id="edge41_Node000021_Node000024" class="edge">
<title>Node21&#45;&gt;Node24</title>
<g id="a_edge41_Node000021_Node000024"><a xlink:title=" ">
<path fill="none" stroke="#63b8ff" d="M559.49,-239.69C542.17,-229.07 518.78,-215.16 497.5,-204 488.52,-199.29 478.44,-194.52 469.56,-190.49"/>
<polygon fill="#63b8ff" stroke="#63b8ff" points="557.28,-242.44 567.63,-244.72 560.96,-236.49 557.28,-242.44"/>
</a>
</g>
</g>
<!-- Node25 -->
<g id="Node000025" class="node">
<title>Node25</title>
<g id="a_Node000025"><a xlink:href="sdcard_8c.html#aec0c2db609a8f514fa7487deecd78461" target="_top" xlink:title="Sincroniza o tamanho do arquivo no diretório físico (Flush).">
<polygon fill="white" stroke="#666666" points="324.75,-226 254,-226 254,-206 324.75,-206 324.75,-226"/>
<text xml:space="preserve" text-anchor="middle" x="289.38" y="-212.5" font-family="Helvetica,sans-Serif" font-size="10.00">sd_file_sync</text>
</a>
</g>
</g>
<!-- Node21&#45;&gt;Node25 -->
<g id="edge43_Node000021_Node000025" class="edge">
<title>Node21&#45;&gt;Node25</title>
<g id="a_edge43_Node000021_Node000025"><a xlink:title=" ">
<path fill="none" stroke="#63b8ff" d="M528.93,-249.51C490.19,-244.95 437.68,-238.51 391.5,-232 369.32,-228.87 344.48,-224.95 324.97,-221.77"/>
<polygon fill="#63b8ff" stroke="#63b8ff" points="528.13,-252.94 538.47,-250.63 528.95,-245.99 528.13,-252.94"/>
</a>
</g>
</g>
<!-- Node26 -->
<g id="Node000026" class="node">
<title>Node26</title>
<g id="a_Node000026"><a xlink:href="sdcard_8c.html#afba53615c129e4e1a3ca0dd1c272ab11" target="_top" xlink:title=" ">
<polygon fill="white" stroke="#666666" points="495.62,-152 393.38,-152 393.38,-132 495.62,-132 495.62,-152"/>
<text xml:space="preserve" text-anchor="middle" x="444.5" y="-138.5" font-family="Helvetica,sans-Serif" font-size="10.00">sd_file_update_size</text>
</a>
</g>
</g>
<!-- Node21&#45;&gt;Node26 -->
<g id="edge45_Node000021_Node000026" class="edge">
<title>Node21&#45;&gt;Node26</title>
<g id="a_edge45_Node000021_Node000026"><a xlink:title=" ">
<path fill="none" stroke="#63b8ff" d="M571.75,-236.31C556.02,-215.07 528.39,-181.54 497.5,-161 492.46,-157.65 486.75,-154.79 481.01,-152.4"/>
<polygon fill="#63b8ff" stroke="#63b8ff" points="568.91,-238.35 577.6,-244.41 574.59,-234.25 568.91,-238.35"/>
</a>
</g>
</g>
<!-- Node22&#45;&gt;Node12 -->
<g id="edge37_Node000022_Node000012" class="edge">
<title>Node22&#45;&gt;Node12</title>
<g id="a_edge37_Node000022_Node000012"><a xlink:title=" ">
<path fill="none" stroke="#63b8ff" d="M431.13,-274.13C400.15,-224.35 320.03,-95.65 296.79,-58.3"/>
<polygon fill="#63b8ff" stroke="#63b8ff" points="428.06,-275.82 436.32,-282.46 434,-272.12 428.06,-275.82"/>
</a>
</g>
</g>
<!-- Node22&#45;&gt;Node19 -->
<g id="edge36_Node000022_Node000019" class="edge">
<title>Node22&#45;&gt;Node19</title>
<g id="a_edge36_Node000022_Node000019"><a xlink:title=" ">
<path fill="none" stroke="#63b8ff" d="M398.08,-309.16C395.81,-310.36 393.6,-311.64 391.5,-313 372.24,-325.47 375.16,-338.17 355.5,-350 349.85,-353.4 343.55,-356.22 337.17,-358.55"/>
<polygon fill="#63b8ff" stroke="#63b8ff" points="399.38,-312.42 406.97,-305.03 396.42,-306.07 399.38,-312.42"/>
</a>
</g>
</g>
<!-- Node23&#45;&gt;Node12 -->
<g id="edge39_Node000023_Node000012" class="edge">
<title>Node23&#45;&gt;Node12</title>
<g id="a_edge39_Node000023_Node000012"><a xlink:title=" ">
<path fill="none" stroke="#63b8ff" d="M390.12,-23.25C371.24,-27.93 350.29,-33.13 332.48,-37.55"/>
<polygon fill="#63b8ff" stroke="#63b8ff" points="390.92,-26.65 399.78,-20.85 389.23,-19.86 390.92,-26.65"/>
</a>
</g>
</g>
<!-- Node23&#45;&gt;Node14 -->
<g id="edge40_Node000023_Node000014" class="edge">
<title>Node23&#45;&gt;Node14</title>
<g id="a_edge40_Node000023_Node000014"><a xlink:title=" ">
<path fill="none" stroke="#63b8ff" d="M389.7,-9.69C344.58,-10.6 278.81,-14.67 223.25,-29 201.55,-34.6 178.52,-44.85 160.91,-53.7"/>
<polygon fill="#63b8ff" stroke="#63b8ff" points="389.53,-13.19 399.47,-9.54 389.42,-6.19 389.53,-13.19"/>
</a>
</g>
</g>
<!-- Node25&#45;&gt;Node6 -->
<g id="edge44_Node000025_Node000006" class="edge">
<title>Node25&#45;&gt;Node6</title>
<g id="a_edge44_Node000025_Node000006"><a xlink:title=" ">
<path fill="none" stroke="#63b8ff" d="M242.42,-214.54C225.23,-213.99 205.51,-213.37 187.49,-212.79"/>
<polygon fill="#63b8ff" stroke="#63b8ff" points="242.25,-218.03 252.35,-214.85 242.47,-211.04 242.25,-218.03"/>
</a>
</g>
</g>
<!-- Node26&#45;&gt;Node15 -->
<g id="edge46_Node000026_Node000015" class="edge">
<title>Node26&#45;&gt;Node15</title>
<g id="a_edge46_Node000026_Node000015"><a xlink:title=" ">
<path fill="none" stroke="#63b8ff" d="M387.19,-154.87C370.43,-158.7 352.27,-162.85 336.26,-166.51"/>
<polygon fill="#63b8ff" stroke="#63b8ff" points="387.53,-158.38 396.5,-152.74 385.97,-151.56 387.53,-158.38"/>
</a>
</g>
</g>
</g>
</svg>

<g id="navigator" transform="translate(0 0)" fill="#404254">
  <rect fill="#f2f5e9" fill-opacity="0.5" stroke="#606060" stroke-width=".5" x="0" y="0" width="60" height="60"/>
  <use id="zoomplus" xlink:href="#zoomPlus" x="17" y="9" onmousedown="handleZoom(evt,'in')"/>
  <use id="zoomminus" xlink:href="#zoomMin" x="42" y="9" onmousedown="handleZoom(evt,'out')"/>
  <use id="reset" xlink:href="#resetDef" x="30" y="36" onmousedown="handleReset()"/>
   <use id="arrowup" xlink:href="#arrowUp" x="0" y="0" onmousedown="handlePan(0,-1)"/>
  <use id="arrowright" xlink:href="#arrowRight" x="0" y="0" onmousedown="handlePan(1,0)"/>
  <use id="arrowdown" xlink:href="#arrowDown" x="0" y="0" onmousedown="handlePan(0,1)"/>
  <use id="arrowleft" xlink:href="#arrowLeft" x="0" y="0" onmousedown="handlePan(-1,0)"/>
</g>
<svg viewBox="0 0 15 15" width="100%" height="30px" preserveAspectRatio="xMaxYMin meet">
 <g id="arrow_out" transform="scale(0.3 0.3)">
  <a xlink:href="sdcard_8c_a7b0d2ab1fae193461c611a4f2e6c9245_icgraph_org.svg" target="_base">
   <rect id="button" ry="5" rx="5" y="6" x="6" height="38" width="38"
        fill="#f2f5e9" fill-opacity="0.5" stroke="#606060" stroke-width="1.0"/>
   <path id="arrow"
     d="M 11.500037,31.436501 C 11.940474,20.09759 22.043105,11.32322 32.158766,21.979434 L 37.068811,17.246167 C 37.068811,17.246167 37.088388,32 37.088388,32 L 22.160133,31.978069 C 22.160133,31.978069 26.997745,27.140456 26.997745,27.140456 C 18.528582,18.264221 13.291696,25.230495 11.500037,31.436501 z"
     style="fill:#404040;"/>
  </a>
 </g>
</svg>

<style type='text/css'>
<![CDATA[
[data-mouse-over-selected='false'] { opacity: 0.7; }
[data-mouse-over-selected='true']  { opacity: 1.0; }
]]>
</style>
<script type="application/ecmascript"><![CDATA[
document.addEventListener('DOMContentLoaded', (event) => {
  highlightEdges();
  highlightAdjacentNodes();
});
]]></script>
</svg>
