<?xml version="1.0" encoding="UTF-8" standalone="no"?>
<!DOCTYPE svg PUBLIC "-//W3C//DTD SVG 1.1//EN"
 "http://www.w3.org/Graphics/SVG/1.1/DTD/svg11.dtd">
<!-- Generated by graphviz version 14.1.4 (20260321.0153)
 -->
<!-- Title: sd_file_read Pages: 1 -->
<svg width="579pt" height="126pt"
 viewBox="0.00 0.00 579.00 126.00" xmlns="http://www.w3.org/2000/svg" xmlns:xlink="http://www.w3.org/1999/xlink">
<g id="graph0" class="graph" transform="scale(1 1) rotate(0) translate(4 121.54)">
<title>sd_file_read</title>
<!-- Node1 -->
<g id="Node000001" class="node">
<title>Node1</title>
<g id="a_Node000001"><a xlink:title="Lê o conteúdo de um arquivo FAT32 para um buffer externo.">
<polygon fill="#999999" stroke="#666666" points="68.5,-96 0,-96 0,-76 68.5,-76 68.5,-96"/>
<text xml:space="preserve" text-anchor="middle" x="34.25" y="-82.5" font-family="Helvetica,sans-Serif" font-size="10.00">sd_file_read</text>
</a>
</g>
</g>
<!-- Node2 -->
<g id="Node000002" class="node">
<title>Node2</title>
<g id="a_Node000002"><a xlink:href="sdcard_8c.html#aba9c8b9a5590e13424ab4a69280f0c1d" target="_top" xlink:title="Lê um único bloco de 512 bytes do cartão (LBA).">
<polygon fill="white" stroke="#666666" points="457.75,-77 389.25,-77 389.25,-57 457.75,-57 457.75,-77"/>
<text xml:space="preserve" text-anchor="middle" x="423.5" y="-63.5" font-family="Helvetica,sans-Serif" font-size="10.00">sd_blk_read</text>
</a>
</g>
</g>
<!-- Node1&#45;&gt;Node2 -->
<g id="edge1_Node000001_Node000002" class="edge">
<title>Node1&#45;&gt;Node2</title>
<g id="a_edge1_Node000001_Node000002"><a xlink:title=" ">
<path fill="none" stroke="#63b8ff" d="M68.85,-94.67C127.58,-108.35 252.26,-130.89 353.25,-105 369.6,-100.81 386.24,-91.86 399.11,-83.7"/>
<polygon fill="#63b8ff" stroke="#63b8ff" points="400.89,-86.72 407.28,-78.27 397.02,-80.89 400.89,-86.72"/>
</a>
</g>
</g>
<!-- Node4 -->
<g id="Node000004" class="node">
<title>Node4</title>
<g id="a_Node000004"><a xlink:href="sdcard_8c.html#a17f6e77858a3ffcce9797f927d2fb076" target="_top" xlink:title="Obtém próximo cluster na FAT.">
<polygon fill="white" stroke="#666666" points="343.88,-96 242.38,-96 242.38,-76 343.88,-76 343.88,-96"/>
<text xml:space="preserve" text-anchor="middle" x="293.12" y="-82.5" font-family="Helvetica,sans-Serif" font-size="10.00">sd_fat_next_cluster</text>
</a>
</g>
</g>
<!-- Node1&#45;&gt;Node4 -->
<g id="edge3_Node000001_Node000004" class="edge">
<title>Node1&#45;&gt;Node4</title>
<g id="a_edge3_Node000001_Node000004"><a xlink:title=" ">
<path fill="none" stroke="#63b8ff" d="M68.83,-86C109.84,-86 179.98,-86 230.73,-86"/>
<polygon fill="#63b8ff" stroke="#63b8ff" points="230.7,-89.5 240.7,-86 230.7,-82.5 230.7,-89.5"/>
</a>
</g>
</g>
<!-- Node5 -->
<g id="Node000005" class="node">
<title>Node5</title>
<g id="a_Node000005"><a xlink:href="sdcard_8c.html#a3794ef278970bdb3d1d50b3f10fc4e9f" target="_top" xlink:title="Localiza a entrada de um arquivo no diretório raiz.">
<polygon fill="white" stroke="#666666" points="197,-58 104.5,-58 104.5,-38 197,-38 197,-58"/>
<text xml:space="preserve" text-anchor="middle" x="150.75" y="-44.5" font-family="Helvetica,sans-Serif" font-size="10.00">sd_find_file_entry</text>
</a>
</g>
</g>
<!-- Node1&#45;&gt;Node5 -->
<g id="edge5_Node000001_Node000005" class="edge">
<title>Node1&#45;&gt;Node5</title>
<g id="a_edge5_Node000001_Node000005"><a xlink:title=" ">
<path fill="none" stroke="#63b8ff" d="M66.84,-75.52C79.36,-71.36 93.93,-66.52 107.34,-62.07"/>
<polygon fill="#63b8ff" stroke="#63b8ff" points="108.44,-65.4 116.83,-58.93 106.23,-58.75 108.44,-65.4"/>
</a>
</g>
</g>
<!-- Node3 -->
<g id="Node000003" class="node">
<title>Node3</title>
<g id="a_Node000003"><a xlink:href="sdcard_8c.html#aae1cfbcba5f92f4639e23fd8ed8fa3c0" target="_top" xlink:title="Envia um comando SPI para o cartão SD e aguarda resposta R1.">
<polygon fill="white" stroke="#666666" points="570.5,-77 493.75,-77 493.75,-57 570.5,-57 570.5,-77"/>
<text xml:space="preserve" text-anchor="middle" x="532.12" y="-63.5" font-family="Helvetica,sans-Serif" font-size="10.00">sd_cmd_send</text>
</a>
</g>
</g>
<!-- Node2&#45;&gt;Node3 -->
<g id="edge2_Node000002_Node000003" class="edge">
<title>Node2&#45;&gt;Node3</title>
<g id="a_edge2_Node000002_Node000003"><a xlink:title=" ">
<path fill="none" stroke="#63b8ff" d="M458.24,-67C465.87,-67 474.12,-67 482.23,-67"/>
<polygon fill="#63b8ff" stroke="#63b8ff" points="482.02,-70.5 492.02,-67 482.02,-63.5 482.02,-70.5"/>
</a>
</g>
</g>
<!-- Node4&#45;&gt;Node2 -->
<g id="edge4_Node000004_Node000002" class="edge">
<title>Node4&#45;&gt;Node2</title>
<g id="a_edge4_Node000004_Node000002"><a xlink:title=" ">
<path fill="none" stroke="#63b8ff" d="M344.13,-78.6C355.19,-76.96 366.85,-75.24 377.69,-73.63"/>
<polygon fill="#63b8ff" stroke="#63b8ff" points="378.19,-77.1 387.57,-72.17 377.16,-70.17 378.19,-77.1"/>
</a>
</g>
</g>
<!-- Node5&#45;&gt;Node2 -->
<g id="edge6_Node000005_Node000002" class="edge">
<title>Node5&#45;&gt;Node2</title>
<g id="a_edge6_Node000005_Node000002"><a xlink:title=" ">
<path fill="none" stroke="#63b8ff" d="M197.37,-51.2C247.6,-54.73 327.83,-60.36 377.72,-63.86"/>
<polygon fill="#63b8ff" stroke="#63b8ff" points="377.37,-67.34 387.59,-64.55 377.86,-60.36 377.37,-67.34"/>
</a>
</g>
</g>
<!-- Node6 -->
<g id="Node000006" class="node">
<title>Node6</title>
<g id="a_Node000006"><a xlink:href="sdcard_8c.html#a7b0d2ab1fae193461c611a4f2e6c9245" target="_top" xlink:title="Obtém o próximo cluster na tabela FAT.">
<polygon fill="white" stroke="#666666" points="353.25,-20 233,-20 233,0 353.25,0 353.25,-20"/>
<text xml:space="preserve" text-anchor="middle" x="293.12" y="-6.5" font-family="Helvetica,sans-Serif" font-size="10.00">sd_fat_get_next_cluster</text>
</a>
</g>
</g>
<!-- Node5&#45;&gt;Node6 -->
<g id="edge7_Node000005_Node000006" class="edge">
<title>Node5&#45;&gt;Node6</title>
<g id="a_edge7_Node000005_Node000006"><a xlink:title=" ">
<path fill="none" stroke="#63b8ff" d="M190.48,-37.52C206.59,-33.15 225.49,-28.04 242.59,-23.41"/>
<polygon fill="#63b8ff" stroke="#63b8ff" points="243.32,-26.84 252.06,-20.85 241.49,-20.08 243.32,-26.84"/>
</a>
</g>
</g>
<!-- Node6&#45;&gt;Node2 -->
<g id="edge8_Node000006_Node000002" class="edge">
<title>Node6&#45;&gt;Node2</title>
<g id="a_edge8_Node000006_Node000002"><a xlink:title=" ">
<path fill="none" stroke="#63b8ff" d="M320.75,-20.42C330.97,-24.52 342.71,-29.35 353.25,-34 365.75,-39.51 379.36,-45.9 391.17,-51.59"/>
<polygon fill="#63b8ff" stroke="#63b8ff" points="389.55,-54.69 400.07,-55.9 392.6,-48.39 389.55,-54.69"/>
</a>
</g>
</g>
</g>
</svg>
