<?xml version="1.0" encoding="UTF-8" standalone="no"?>
<!DOCTYPE svg PUBLIC "-//W3C//DTD SVG 1.1//EN"
 "http://www.w3.org/Graphics/SVG/1.1/DTD/svg11.dtd">
<!-- Generated by graphviz version 14.1.4 (20260321.0153)
 -->
<!-- Title: inc/sdcard.h Pages: 1 -->
<svg width="476pt" height="84pt"
 viewBox="0.00 0.00 476.00 84.00" xmlns="http://www.w3.org/2000/svg" xmlns:xlink="http://www.w3.org/1999/xlink">
<g id="graph0" class="graph" transform="scale(1 1) rotate(0) translate(4 80)">
<title>inc/sdcard.h</title>
<!-- Node1 -->
<g id="Node000001" class="node">
<title>Node1</title>
<g id="a_Node000001"><a xlink:title="Driver SD Card SPI + FAT32 (Root&#45;only) para AVR.">
<polygon fill="#999999" stroke="#666666" points="279.75,-76 210.5,-76 210.5,-56 279.75,-56 279.75,-76"/>
<text xml:space="preserve" text-anchor="middle" x="245.12" y="-62.5" font-family="Helvetica,sans-Serif" font-size="10.00">inc/sdcard.h</text>
</a>
</g>
</g>
<!-- Node2 -->
<g id="Node000002" class="node">
<title>Node2</title>
<g id="a_Node000002"><a xlink:title=" ">
<polygon fill="#e0e0e0" stroke="#999999" points="48.25,-20 0,-20 0,0 48.25,0 48.25,-20"/>
<text xml:space="preserve" text-anchor="middle" x="24.12" y="-6.5" font-family="Helvetica,sans-Serif" font-size="10.00">avr/io.h</text>
</a>
</g>
</g>
<!-- Node1&#45;&gt;Node2 -->
<g id="edge1_Node000001_Node000002" class="edge">
<title>Node1&#45;&gt;Node2</title>
<g id="a_edge1_Node000001_Node000002"><a xlink:title=" ">
<path fill="none" stroke="#63b8ff" d="M210.05,-56.95C174.44,-48.7 117.46,-35.3 59.45,-20.54"/>
<polygon fill="#63b8ff" stroke="#63b8ff" points="60.63,-17.23 50.08,-18.14 58.9,-24.01 60.63,-17.23"/>
</a>
</g>
</g>
<!-- Node3 -->
<g id="Node000003" class="node">
<title>Node3</title>
<g id="a_Node000003"><a xlink:title=" ">
<polygon fill="#e0e0e0" stroke="#999999" points="128.38,-20 65.88,-20 65.88,0 128.38,0 128.38,-20"/>
<text xml:space="preserve" text-anchor="middle" x="97.12" y="-6.5" font-family="Helvetica,sans-Serif" font-size="10.00">util/delay.h</text>
</a>
</g>
</g>
<!-- Node1&#45;&gt;Node3 -->
<g id="edge2_Node000001_Node000003" class="edge">
<title>Node1&#45;&gt;Node3</title>
<g id="a_edge2_Node000001_Node000003"><a xlink:title=" ">
<path fill="none" stroke="#63b8ff" d="M219.35,-55.59C195.72,-46.97 160.48,-34.12 133.91,-24.42"/>
<polygon fill="#63b8ff" stroke="#63b8ff" points="135.12,-21.14 124.53,-21 132.72,-27.71 135.12,-21.14"/>
</a>
</g>
</g>
<!-- Node4 -->
<g id="Node000004" class="node">
<title>Node4</title>
<g id="a_Node000004"><a xlink:title=" ">
<polygon fill="#e0e0e0" stroke="#999999" points="203.38,-20 146.88,-20 146.88,0 203.38,0 203.38,-20"/>
<text xml:space="preserve" text-anchor="middle" x="175.12" y="-6.5" font-family="Helvetica,sans-Serif" font-size="10.00">avr/wdt.h</text>
</a>
</g>
</g>
<!-- Node1&#45;&gt;Node4 -->
<g id="edge3_Node000001_Node000004" class="edge">
<title>Node1&#45;&gt;Node4</title>
<g id="a_edge3_Node000001_Node000004"><a xlink:title=" ">
<path fill="none" stroke="#63b8ff" d="M232.93,-55.59C222.79,-47.77 208.13,-36.46 196.11,-27.19"/>
<polygon fill="#63b8ff" stroke="#63b8ff" points="198.43,-24.56 188.38,-21.22 194.16,-30.1 198.43,-24.56"/>
</a>
</g>
</g>
<!-- Node5 -->
<g id="Node000005" class="node">
<title>Node5</title>
<g id="a_Node000005"><a xlink:title=" ">
<polygon fill="#e0e0e0" stroke="#999999" points="269.25,-20 221,-20 221,0 269.25,0 269.25,-20"/>
<text xml:space="preserve" text-anchor="middle" x="245.12" y="-6.5" font-family="Helvetica,sans-Serif" font-size="10.00">stdint.h</text>
</a>
</g>
</g>
<!-- Node1&#45;&gt;Node5 -->
<g id="edge4_Node000001_Node000005" class="edge">
<title>Node1&#45;&gt;Node5</title>
<g id="a_edge4_Node000001_Node000005"><a xlink:title=" ">
<path fill="none" stroke="#63b8ff" d="M245.12,-55.59C245.12,-49.01 245.12,-39.96 245.12,-31.73"/>
<polygon fill="#63b8ff" stroke="#63b8ff" points="248.63,-31.81 245.13,-21.81 241.63,-31.81 248.63,-31.81"/>
</a>
</g>
</g>
<!-- Node6 -->
<g id="Node000006" class="node">
<title>Node6</title>
<g id="a_Node000006"><a xlink:title=" ">
<polygon fill="#e0e0e0" stroke="#999999" points="335.25,-20 287,-20 287,0 335.25,0 335.25,-20"/>
<text xml:space="preserve" text-anchor="middle" x="311.12" y="-6.5" font-family="Helvetica,sans-Serif" font-size="10.00">string.h</text>
</a>
</g>
</g>
<!-- Node1&#45;&gt;Node6 -->
<g id="edge5_Node000001_Node000006" class="edge">
<title>Node1&#45;&gt;Node6</title>
<g id="a_edge5_Node000001_Node000006"><a xlink:title=" ">
<path fill="none" stroke="#63b8ff" d="M256.62,-55.59C266.09,-47.85 279.73,-36.69 291,-27.47"/>
<polygon fill="#63b8ff" stroke="#63b8ff" points="293.07,-30.3 298.59,-21.26 288.63,-24.88 293.07,-30.3"/>
</a>
</g>
</g>
<!-- Node7 -->
<g id="Node000007" class="node">
<title>Node7</title>
<g id="a_Node000007"><a xlink:title=" ">
<polygon fill="#e0e0e0" stroke="#999999" points="398.75,-20 353.5,-20 353.5,0 398.75,0 398.75,-20"/>
<text xml:space="preserve" text-anchor="middle" x="376.12" y="-6.5" font-family="Helvetica,sans-Serif" font-size="10.00">stdio.h</text>
</a>
</g>
</g>
<!-- Node1&#45;&gt;Node7 -->
<g id="edge6_Node000001_Node000007" class="edge">
<title>Node1&#45;&gt;Node7</title>
<g id="a_edge6_Node000001_Node000007"><a xlink:title=" ">
<path fill="none" stroke="#63b8ff" d="M267.94,-55.59C288.57,-47.09 319.21,-34.46 342.62,-24.81"/>
<polygon fill="#63b8ff" stroke="#63b8ff" points="343.82,-28.1 351.73,-21.06 341.15,-21.63 343.82,-28.1"/>
</a>
</g>
</g>
<!-- Node8 -->
<g id="Node000008" class="node">
<title>Node8</title>
<g id="a_Node000008"><a xlink:title=" ">
<polygon fill="#e0e0e0" stroke="#999999" points="467.75,-20 416.5,-20 416.5,0 467.75,0 467.75,-20"/>
<text xml:space="preserve" text-anchor="middle" x="442.12" y="-6.5" font-family="Helvetica,sans-Serif" font-size="10.00">stddef.h</text>
</a>
</g>
</g>
<!-- Node1&#45;&gt;Node8 -->
<g id="edge7_Node000001_Node000008" class="edge">
<title>Node1&#45;&gt;Node8</title>
<g id="a_edge7_Node000001_Node000008"><a xlink:title=" ">
<path fill="none" stroke="#63b8ff" d="M279.44,-55.59C314.55,-45.97 368.94,-31.06 405.03,-21.17"/>
<polygon fill="#63b8ff" stroke="#63b8ff" points="405.88,-24.56 414.6,-18.54 404.03,-17.81 405.88,-24.56"/>
</a>
</g>
</g>
</g>
</svg>
