<?xml version="1.0" encoding="UTF-8" standalone="no"?>
<!DOCTYPE svg PUBLIC "-//W3C//DTD SVG 1.1//EN"
 "http://www.w3.org/Graphics/SVG/1.1/DTD/svg11.dtd">
<!-- Generated by graphviz version 14.1.4 (20260321.0153)
 -->
<!-- Title: sd_init Pages: 1 -->
<svg width="581pt" height="116pt"
 viewBox="0.00 0.00 581.00 116.00" xmlns="http://www.w3.org/2000/svg" xmlns:xlink="http://www.w3.org/1999/xlink">
<g id="graph0" class="graph" transform="scale(1 1) rotate(0) translate(4 112)">
<title>sd_init</title>
<!-- Node1 -->
<g id="Node000001" class="node">
<title>Node1</title>
<g id="a_Node000001"><a xlink:title="Inicializa o cartão SD no modo SPI.">
<polygon fill="#999999" stroke="#666666" points="573,-64 528.5,-64 528.5,-44 573,-44 573,-64"/>
<text xml:space="preserve" text-anchor="middle" x="550.75" y="-50.5" font-family="Helvetica,sans-Serif" font-size="10.00">sd_init</text>
</a>
</g>
</g>
<!-- Node2 -->
<g id="Node000002" class="node">
<title>Node2</title>
<g id="a_Node000002"><a xlink:href="sdcard_8c.html#abb7664cb3bec0e4c545128d134f0e054" target="_top" xlink:title="Tenta inicializar o cartão até 3 vezes com delay entre tentativas.">
<polygon fill="white" stroke="#666666" points="492.5,-64 423.25,-64 423.25,-44 492.5,-44 492.5,-64"/>
<text xml:space="preserve" text-anchor="middle" x="457.88" y="-50.5" font-family="Helvetica,sans-Serif" font-size="10.00">sd_init_retry</text>
</a>
</g>
</g>
<!-- Node1&#45;&gt;Node2 -->
<g id="edge1_Node000001_Node000002" class="edge">
<title>Node1&#45;&gt;Node2</title>
<g id="a_edge1_Node000001_Node000002"><a xlink:title=" ">
<path fill="none" stroke="#63b8ff" d="M516.84,-54C508.99,-54 500.59,-54 492.69,-54"/>
<polygon fill="#63b8ff" stroke="#63b8ff" points="516.7,-57.5 526.7,-54 516.7,-50.5 516.7,-57.5"/>
</a>
</g>
</g>
<!-- Node3 -->
<g id="Node000003" class="node">
<title>Node3</title>
<g id="a_Node000003"><a xlink:href="sdcard_8c.html#afac6d670e786eaea1f07a4eb95b25ac6" target="_top" xlink:title="Inicialização rápida para AVR (configura pinos + HAL interno).">
<polygon fill="white" stroke="#666666" points="387.25,-64 314.25,-64 314.25,-44 387.25,-44 387.25,-64"/>
<text xml:space="preserve" text-anchor="middle" x="350.75" y="-50.5" font-family="Helvetica,sans-Serif" font-size="10.00">sd_quick_init</text>
</a>
</g>
</g>
<!-- Node2&#45;&gt;Node3 -->
<g id="edge2_Node000002_Node000003" class="edge">
<title>Node2&#45;&gt;Node3</title>
<g id="a_edge2_Node000002_Node000003"><a xlink:title=" ">
<path fill="none" stroke="#63b8ff" d="M411.59,-54C403.6,-54 395.39,-54 387.7,-54"/>
<polygon fill="#63b8ff" stroke="#63b8ff" points="411.52,-57.5 421.52,-54 411.52,-50.5 411.52,-57.5"/>
</a>
</g>
</g>
<!-- Node4 -->
<g id="Node000004" class="node">
<title>Node4</title>
<g id="a_Node000004"><a xlink:href="sdcard_8c.html#a0de914bcd39f32ddd2f8412744267322" target="_top" xlink:title="Prepara o contexto da biblioteca e inicializa a interface de hardware.">
<polygon fill="white" stroke="#666666" points="278.25,-64 223.25,-64 223.25,-44 278.25,-44 278.25,-64"/>
<text xml:space="preserve" text-anchor="middle" x="250.75" y="-50.5" font-family="Helvetica,sans-Serif" font-size="10.00">sd_begin</text>
</a>
</g>
</g>
<!-- Node3&#45;&gt;Node4 -->
<g id="edge3_Node000003_Node000004" class="edge">
<title>Node3&#45;&gt;Node4</title>
<g id="a_edge3_Node000003_Node000004"><a xlink:title=" ">
<path fill="none" stroke="#63b8ff" d="M302.35,-54C294.14,-54 285.87,-54 278.47,-54"/>
<polygon fill="#63b8ff" stroke="#63b8ff" points="302.3,-57.5 312.3,-54 302.3,-50.5 302.3,-57.5"/>
</a>
</g>
</g>
<!-- Node5 -->
<g id="Node000005" class="node">
<title>Node5</title>
<g id="a_Node000005"><a xlink:href="exemplo__3_8c.html#a840291bc02cba5474a4cb46a9b9566fe" target="_top" xlink:title="Ponto de entrada do programa.">
<polygon fill="white" stroke="#666666" points="148.62,-108 111.62,-108 111.62,-88 148.62,-88 148.62,-108"/>
<text xml:space="preserve" text-anchor="middle" x="130.12" y="-94.5" font-family="Helvetica,sans-Serif" font-size="10.00">main</text>
</a>
</g>
</g>
<!-- Node4&#45;&gt;Node5 -->
<g id="edge4_Node000004_Node000005" class="edge">
<title>Node4&#45;&gt;Node5</title>
<g id="a_edge4_Node000004_Node000005"><a xlink:title=" ">
<path fill="none" stroke="#63b8ff" d="M214,-68.68C205.29,-72.16 195.96,-75.79 187.25,-79 174.51,-83.7 159.99,-88.6 148.91,-92.25"/>
<polygon fill="#63b8ff" stroke="#63b8ff" points="215.26,-71.95 223.23,-64.97 212.64,-65.46 215.26,-71.95"/>
</a>
</g>
</g>
<!-- Node6 -->
<g id="Node000006" class="node">
<title>Node6</title>
<g id="a_Node000006"><a xlink:href="exemplo__1_8c.html#a45578ec38e9d0ae49d3313fa3900f338" target="_top" xlink:title="Demonstração completa e básica da biblioteca.">
<polygon fill="white" stroke="#666666" points="187.25,-70 73,-70 73,-38 187.25,-38 187.25,-70"/>
<text xml:space="preserve" text-anchor="start" x="81" y="-56.5" font-family="Helvetica,sans-Serif" font-size="10.00">teste_basico_escrever</text>
<text xml:space="preserve" text-anchor="middle" x="130.12" y="-44.5" font-family="Helvetica,sans-Serif" font-size="10.00">_string</text>
</a>
</g>
</g>
<!-- Node4&#45;&gt;Node6 -->
<g id="edge5_Node000004_Node000006" class="edge">
<title>Node4&#45;&gt;Node6</title>
<g id="a_edge5_Node000004_Node000006"><a xlink:title=" ">
<path fill="none" stroke="#63b8ff" d="M211.37,-54C203.74,-54 195.58,-54 187.49,-54"/>
<polygon fill="#63b8ff" stroke="#63b8ff" points="211.32,-57.5 221.32,-54 211.32,-50.5 211.32,-57.5"/>
</a>
</g>
</g>
<!-- Node8 -->
<g id="Node000008" class="node">
<title>Node8</title>
<g id="a_Node000008"><a xlink:href="exemplo__2_8c.html#a71c134181186f04ca234d95f2b605e9a" target="_top" xlink:title="Executa o teste completo: Inicialização, Gravação e Busca.">
<polygon fill="white" stroke="#666666" points="184.62,-20 75.62,-20 75.62,0 184.62,0 184.62,-20"/>
<text xml:space="preserve" text-anchor="middle" x="130.12" y="-6.5" font-family="Helvetica,sans-Serif" font-size="10.00">teste_datalogger_csv</text>
</a>
</g>
</g>
<!-- Node4&#45;&gt;Node8 -->
<g id="edge7_Node000004_Node000008" class="edge">
<title>Node4&#45;&gt;Node8</title>
<g id="a_edge7_Node000004_Node000008"><a xlink:title=" ">
<path fill="none" stroke="#63b8ff" d="M214,-39.32C205.29,-35.84 195.96,-32.21 187.25,-29 179.43,-26.12 170.94,-23.15 162.99,-20.45"/>
<polygon fill="#63b8ff" stroke="#63b8ff" points="212.64,-42.54 223.23,-43.03 215.26,-36.05 212.64,-42.54"/>
</a>
</g>
</g>
<!-- Node7 -->
<g id="Node000007" class="node">
<title>Node7</title>
<g id="a_Node000007"><a xlink:href="exemplo__1_8c.html#a840291bc02cba5474a4cb46a9b9566fe" target="_top" xlink:title=" ">
<polygon fill="white" stroke="#666666" points="37,-64 0,-64 0,-44 37,-44 37,-64"/>
<text xml:space="preserve" text-anchor="middle" x="18.5" y="-50.5" font-family="Helvetica,sans-Serif" font-size="10.00">main</text>
</a>
</g>
</g>
<!-- Node6&#45;&gt;Node7 -->
<g id="edge6_Node000006_Node000007" class="edge">
<title>Node6&#45;&gt;Node7</title>
<g id="a_edge6_Node000006_Node000007"><a xlink:title=" ">
<path fill="none" stroke="#63b8ff" d="M61.41,-54C52.63,-54 44.32,-54 37.45,-54"/>
<polygon fill="#63b8ff" stroke="#63b8ff" points="61.19,-57.5 71.19,-54 61.19,-50.5 61.19,-57.5"/>
</a>
</g>
</g>
<!-- Node9 -->
<g id="Node000009" class="node">
<title>Node9</title>
<g id="a_Node000009"><a xlink:href="exemplo__2_8c.html#a840291bc02cba5474a4cb46a9b9566fe" target="_top" xlink:title="Função principal.">
<polygon fill="white" stroke="#666666" points="37,-20 0,-20 0,0 37,0 37,-20"/>
<text xml:space="preserve" text-anchor="middle" x="18.5" y="-6.5" font-family="Helvetica,sans-Serif" font-size="10.00">main</text>
</a>
</g>
</g>
<!-- Node8&#45;&gt;Node9 -->
<g id="edge8_Node000008_Node000009" class="edge">
<title>Node8&#45;&gt;Node9</title>
<g id="a_edge8_Node000008_Node000009"><a xlink:title=" ">
<path fill="none" stroke="#63b8ff" d="M63.82,-10C54.17,-10 44.98,-10 37.49,-10"/>
<polygon fill="#63b8ff" stroke="#63b8ff" points="63.76,-13.5 73.76,-10 63.76,-6.5 63.76,-13.5"/>
</a>
</g>
</g>
</g>
</svg>
