<?xml version="1.0" encoding="UTF-8" standalone="no"?>
<!DOCTYPE svg PUBLIC "-//W3C//DTD SVG 1.1//EN"
 "http://www.w3.org/Graphics/SVG/1.1/DTD/svg11.dtd">
<!-- Generated by graphviz version 14.1.4 (20260321.0153)
 -->
<!-- Title: sd_file_create Pages: 1 -->
<svg width="464pt" height="138pt"
 viewBox="0.00 0.00 464.00 138.00" xmlns="http://www.w3.org/2000/svg" xmlns:xlink="http://www.w3.org/1999/xlink">
<g id="graph0" class="graph" transform="scale(1 1) rotate(0) translate(4 134)">
<title>sd_file_create</title>
<!-- Node1 -->
<g id="Node000001" class="node">
<title>Node1</title>
<g id="a_Node000001"><a xlink:title="Cria um novo arquivo no diretório raiz com expansão de cluster.">
<polygon fill="#999999" stroke="#666666" points="455.5,-64 378.75,-64 378.75,-44 455.5,-44 455.5,-64"/>
<text xml:space="preserve" text-anchor="middle" x="417.12" y="-50.5" font-family="Helvetica,sans-Serif" font-size="10.00">sd_file_create</text>
</a>
</g>
</g>
<!-- Node1&#45;&gt;Node1 -->
<g id="edge5_Node000001_Node000001" class="edge">
<title>Node1&#45;&gt;Node1</title>
<g id="a_edge5_Node000001_Node000001"><a xlink:title=" ">
<path fill="none" stroke="#63b8ff" d="M441.96,-75.44C438.76,-79.3 430.48,-82 417.12,-82 392.7,-82 385.26,-72.98 394.8,-64.34"/>
<polygon fill="#63b8ff" stroke="#63b8ff" points="445.4,-74.8 439.78,-65.81 438.57,-76.34 445.4,-74.8"/>
</a>
</g>
</g>
<!-- Node2 -->
<g id="Node000002" class="node">
<title>Node2</title>
<g id="a_Node000002"><a xlink:href="exemplo__3_8c.html#a1888a7d50f8090bc2f0c577e2ce4074f" target="_top" xlink:title="Localiza ou cria o volume de log adequado no cartão.">
<polygon fill="white" stroke="#666666" points="342.75,-108 210.5,-108 210.5,-88 342.75,-88 342.75,-108"/>
<text xml:space="preserve" text-anchor="middle" x="276.62" y="-94.5" font-family="Helvetica,sans-Serif" font-size="10.00">gerenciar_proximo_volume</text>
</a>
</g>
</g>
<!-- Node1&#45;&gt;Node2 -->
<g id="edge1_Node000001_Node000002" class="edge">
<title>Node1&#45;&gt;Node2</title>
<g id="a_edge1_Node000001_Node000002"><a xlink:title=" ">
<path fill="none" stroke="#63b8ff" d="M375.81,-68.1C365.1,-71.74 353.51,-75.6 342.75,-79 333.65,-81.88 323.79,-84.83 314.56,-87.53"/>
<polygon fill="#63b8ff" stroke="#63b8ff" points="376.84,-71.44 385.16,-64.89 374.57,-64.82 376.84,-71.44"/>
</a>
</g>
</g>
<!-- Node5 -->
<g id="Node000005" class="node">
<title>Node5</title>
<g id="a_Node000005"><a xlink:href="exemplo__1_8c.html#a45578ec38e9d0ae49d3313fa3900f338" target="_top" xlink:title="Demonstração completa e básica da biblioteca.">
<polygon fill="white" stroke="#666666" points="333.75,-70 219.5,-70 219.5,-38 333.75,-38 333.75,-70"/>
<text xml:space="preserve" text-anchor="start" x="227.5" y="-56.5" font-family="Helvetica,sans-Serif" font-size="10.00">teste_basico_escrever</text>
<text xml:space="preserve" text-anchor="middle" x="276.62" y="-44.5" font-family="Helvetica,sans-Serif" font-size="10.00">_string</text>
</a>
</g>
</g>
<!-- Node1&#45;&gt;Node5 -->
<g id="edge6_Node000001_Node000005" class="edge">
<title>Node1&#45;&gt;Node5</title>
<g id="a_edge6_Node000001_Node000005"><a xlink:title=" ">
<path fill="none" stroke="#63b8ff" d="M367.05,-54C356.4,-54 345.05,-54 334.13,-54"/>
<polygon fill="#63b8ff" stroke="#63b8ff" points="366.77,-57.5 376.77,-54 366.77,-50.5 366.77,-57.5"/>
</a>
</g>
</g>
<!-- Node7 -->
<g id="Node000007" class="node">
<title>Node7</title>
<g id="a_Node000007"><a xlink:href="exemplo__2_8c.html#a71c134181186f04ca234d95f2b605e9a" target="_top" xlink:title="Executa o teste completo: Inicialização, Gravação e Busca.">
<polygon fill="white" stroke="#666666" points="331.12,-20 222.12,-20 222.12,0 331.12,0 331.12,-20"/>
<text xml:space="preserve" text-anchor="middle" x="276.62" y="-6.5" font-family="Helvetica,sans-Serif" font-size="10.00">teste_datalogger_csv</text>
</a>
</g>
</g>
<!-- Node1&#45;&gt;Node7 -->
<g id="edge8_Node000001_Node000007" class="edge">
<title>Node1&#45;&gt;Node7</title>
<g id="a_edge8_Node000001_Node000007"><a xlink:title=" ">
<path fill="none" stroke="#63b8ff" d="M375.81,-39.9C365.1,-36.26 353.51,-32.4 342.75,-29 333.65,-26.12 323.79,-23.17 314.56,-20.47"/>
<polygon fill="#63b8ff" stroke="#63b8ff" points="374.57,-43.18 385.16,-43.11 376.84,-36.56 374.57,-43.18"/>
</a>
</g>
</g>
<!-- Node3 -->
<g id="Node000003" class="node">
<title>Node3</title>
<g id="a_Node000003"><a xlink:href="exemplo__3_8c.html#a840291bc02cba5474a4cb46a9b9566fe" target="_top" xlink:title="Ponto de entrada do programa.">
<polygon fill="white" stroke="#666666" points="37,-130 0,-130 0,-110 37,-110 37,-130"/>
<text xml:space="preserve" text-anchor="middle" x="18.5" y="-116.5" font-family="Helvetica,sans-Serif" font-size="10.00">main</text>
</a>
</g>
</g>
<!-- Node2&#45;&gt;Node3 -->
<g id="edge2_Node000002_Node000003" class="edge">
<title>Node2&#45;&gt;Node3</title>
<g id="a_edge2_Node000002_Node000003"><a xlink:title=" ">
<path fill="none" stroke="#63b8ff" d="M231.26,-111.44C213.75,-116.09 193.35,-120.7 174.5,-123 129.72,-128.45 118.09,-124.26 73,-123 61.1,-122.67 47.72,-121.92 37.32,-121.25"/>
<polygon fill="#63b8ff" stroke="#63b8ff" points="232.12,-114.83 240.84,-108.8 230.27,-108.08 232.12,-114.83"/>
</a>
</g>
</g>
<!-- Node4 -->
<g id="Node000004" class="node">
<title>Node4</title>
<g id="a_Node000004"><a xlink:href="exemplo__3_8c.html#a9765d93a7e9eac42493b89eb0dc1ab12" target="_top" xlink:title="Formata e grava um registro CSV com data, hora e 4 sensores.">
<polygon fill="white" stroke="#666666" points="174.5,-114 73,-114 73,-82 174.5,-82 174.5,-114"/>
<text xml:space="preserve" text-anchor="start" x="81" y="-100.5" font-family="Helvetica,sans-Serif" font-size="10.00">registrar_dado_com</text>
<text xml:space="preserve" text-anchor="middle" x="123.75" y="-88.5" font-family="Helvetica,sans-Serif" font-size="10.00">_rotacao</text>
</a>
</g>
</g>
<!-- Node2&#45;&gt;Node4 -->
<g id="edge3_Node000002_Node000004" class="edge">
<title>Node2&#45;&gt;Node4</title>
<g id="a_edge3_Node000002_Node000004"><a xlink:title=" ">
<path fill="none" stroke="#63b8ff" d="M199.06,-98C190.78,-98 182.52,-98 174.68,-98"/>
<polygon fill="#63b8ff" stroke="#63b8ff" points="198.81,-101.5 208.81,-98 198.81,-94.5 198.81,-101.5"/>
</a>
</g>
</g>
<!-- Node4&#45;&gt;Node3 -->
<g id="edge4_Node000004_Node000003" class="edge">
<title>Node4&#45;&gt;Node3</title>
<g id="a_edge4_Node000004_Node000003"><a xlink:title=" ">
<path fill="none" stroke="#63b8ff" d="M61.63,-111.02C52.71,-112.92 44.17,-114.74 37.15,-116.24"/>
<polygon fill="#63b8ff" stroke="#63b8ff" points="62.11,-114.5 71.16,-108.99 60.65,-107.65 62.11,-114.5"/>
</a>
</g>
</g>
<!-- Node6 -->
<g id="Node000006" class="node">
<title>Node6</title>
<g id="a_Node000006"><a xlink:href="exemplo__1_8c.html#a840291bc02cba5474a4cb46a9b9566fe" target="_top" xlink:title=" ">
<polygon fill="white" stroke="#666666" points="142.25,-64 105.25,-64 105.25,-44 142.25,-44 142.25,-64"/>
<text xml:space="preserve" text-anchor="middle" x="123.75" y="-50.5" font-family="Helvetica,sans-Serif" font-size="10.00">main</text>
</a>
</g>
</g>
<!-- Node5&#45;&gt;Node6 -->
<g id="edge7_Node000005_Node000006" class="edge">
<title>Node5&#45;&gt;Node6</title>
<g id="a_edge7_Node000005_Node000006"><a xlink:title=" ">
<path fill="none" stroke="#63b8ff" d="M207.75,-54C183.79,-54 158.8,-54 142.59,-54"/>
<polygon fill="#63b8ff" stroke="#63b8ff" points="207.5,-57.5 217.5,-54 207.5,-50.5 207.5,-57.5"/>
</a>
</g>
</g>
<!-- Node8 -->
<g id="Node000008" class="node">
<title>Node8</title>
<g id="a_Node000008"><a xlink:href="exemplo__2_8c.html#a840291bc02cba5474a4cb46a9b9566fe" target="_top" xlink:title="Função principal.">
<polygon fill="white" stroke="#666666" points="142.25,-20 105.25,-20 105.25,0 142.25,0 142.25,-20"/>
<text xml:space="preserve" text-anchor="middle" x="123.75" y="-6.5" font-family="Helvetica,sans-Serif" font-size="10.00">main</text>
</a>
</g>
</g>
<!-- Node7&#45;&gt;Node8 -->
<g id="edge9_Node000007_Node000008" class="edge">
<title>Node7&#45;&gt;Node8</title>
<g id="a_edge9_Node000007_Node000008"><a xlink:title=" ">
<path fill="none" stroke="#63b8ff" d="M210.75,-10C185.92,-10 159.54,-10 142.64,-10"/>
<polygon fill="#63b8ff" stroke="#63b8ff" points="210.49,-13.5 220.49,-10 210.49,-6.5 210.49,-13.5"/>
</a>
</g>
</g>
</g>
</svg>
