<?xml version="1.0" encoding="UTF-8" standalone="no"?>
<!DOCTYPE svg PUBLIC "-//W3C//DTD SVG 1.1//EN"
 "http://www.w3.org/Graphics/SVG/1.1/DTD/svg11.dtd">
<!-- Generated by graphviz version 14.1.4 (20260321.0153)
 -->
<!-- Title: sd_fat_write_entry Pages: 1 -->
<svg width="940pt" height="154pt"
 viewBox="0.00 0.00 940.00 154.00" xmlns="http://www.w3.org/2000/svg" xmlns:xlink="http://www.w3.org/1999/xlink">
<g id="graph0" class="graph" transform="scale(1 1) rotate(0) translate(4 150)">
<title>sd_fat_write_entry</title>
<!-- Node1 -->
<g id="Node000001" class="node">
<title>Node1</title>
<g id="a_Node000001"><a xlink:title="Atualiza uma entrada na Tabela de Alocação de Arquivos (FAT).">
<polygon fill="#999999" stroke="#666666" points="931.75,-53 835.5,-53 835.5,-33 931.75,-33 931.75,-53"/>
<text xml:space="preserve" text-anchor="middle" x="883.62" y="-39.5" font-family="Helvetica,sans-Serif" font-size="10.00">sd_fat_write_entry</text>
</a>
</g>
</g>
<!-- Node2 -->
<g id="Node000002" class="node">
<title>Node2</title>
<g id="a_Node000002"><a xlink:href="sdcard_8c.html#a6dcdbe623e720ed71f92e745c440db85" target="_top" xlink:title="Expande o diretorio alocando um novo cluster.">
<polygon fill="white" stroke="#666666" points="648.88,-110 542.88,-110 542.88,-90 648.88,-90 648.88,-110"/>
<text xml:space="preserve" text-anchor="middle" x="595.88" y="-96.5" font-family="Helvetica,sans-Serif" font-size="10.00">sd_expand_directory</text>
</a>
</g>
</g>
<!-- Node1&#45;&gt;Node2 -->
<g id="edge1_Node000001_Node000002" class="edge">
<title>Node1&#45;&gt;Node2</title>
<g id="a_edge1_Node000001_Node000002"><a xlink:title=" ">
<path fill="none" stroke="#63b8ff" d="M854.4,-58.78C838.71,-66.8 818.56,-75.91 799.5,-81 749.66,-94.32 690.77,-98.63 649.35,-99.87"/>
<polygon fill="#63b8ff" stroke="#63b8ff" points="855.92,-61.93 863.14,-54.17 852.66,-55.74 855.92,-61.93"/>
</a>
</g>
</g>
<!-- Node11 -->
<g id="Node000011" class="node">
<title>Node11</title>
<g id="a_Node000011"><a xlink:href="sdcard_8c.html#afa6b333a50132b6be29e88aa75fd90f1" target="_top" xlink:title="Aloca um cluster livre na FAT32 utilizando busca circular otimizada.">
<polygon fill="white" stroke="#666666" points="799.5,-72 696.5,-72 696.5,-52 799.5,-52 799.5,-72"/>
<text xml:space="preserve" text-anchor="middle" x="748" y="-58.5" font-family="Helvetica,sans-Serif" font-size="10.00">sd_fat_alloc_cluster</text>
</a>
</g>
</g>
<!-- Node1&#45;&gt;Node11 -->
<g id="edge12_Node000001_Node000011" class="edge">
<title>Node1&#45;&gt;Node11</title>
<g id="a_edge12_Node000001_Node000011"><a xlink:title=" ">
<path fill="none" stroke="#63b8ff" d="M823.98,-51.34C815.97,-52.48 807.81,-53.64 799.96,-54.75"/>
<polygon fill="#63b8ff" stroke="#63b8ff" points="824.23,-54.84 833.64,-49.97 823.25,-47.91 824.23,-54.84"/>
</a>
</g>
</g>
<!-- Node12 -->
<g id="Node000012" class="node">
<title>Node12</title>
<g id="a_Node000012"><a xlink:href="sdcard_8c.html#a7e010bc4f9f46359dcefc007d522f58a" target="_top" xlink:title="Aloca um novo cluster e o encadeia ao final de uma sequência existente.">
<polygon fill="white" stroke="#666666" points="660.5,-34 531.25,-34 531.25,-14 660.5,-14 660.5,-34"/>
<text xml:space="preserve" text-anchor="middle" x="595.88" y="-20.5" font-family="Helvetica,sans-Serif" font-size="10.00">sd_fat_chain_new_cluster</text>
</a>
</g>
</g>
<!-- Node1&#45;&gt;Node12 -->
<g id="edge20_Node000001_Node000012" class="edge">
<title>Node1&#45;&gt;Node12</title>
<g id="a_edge20_Node000001_Node000012"><a xlink:title=" ">
<path fill="none" stroke="#63b8ff" d="M823.79,-39.09C776.31,-35.93 709.63,-31.5 660.84,-28.25"/>
<polygon fill="#63b8ff" stroke="#63b8ff" points="823.4,-42.57 833.61,-39.74 823.86,-35.58 823.4,-42.57"/>
</a>
</g>
</g>
<!-- Node13 -->
<g id="Node000013" class="node">
<title>Node13</title>
<g id="a_Node000013"><a xlink:href="sdcard_8c.html#a3cb6e9bbb79a21ebf8cf7357ed262726" target="_top" xlink:title="Adiciona dados ao final de um arquivo, expandindo clusters se necessário.">
<polygon fill="white" stroke="#666666" points="495.25,-42 378.75,-42 378.75,-22 495.25,-22 495.25,-42"/>
<text xml:space="preserve" text-anchor="middle" x="437" y="-28.5" font-family="Helvetica,sans-Serif" font-size="10.00">sd_file_append_stream</text>
</a>
</g>
</g>
<!-- Node1&#45;&gt;Node13 -->
<g id="edge21_Node000001_Node000013" class="edge">
<title>Node1&#45;&gt;Node13</title>
<g id="a_edge21_Node000001_Node000013"><a xlink:title=" ">
<path fill="none" stroke="#63b8ff" d="M833.23,-29.93C765.11,-13.66 638.57,10.22 531.25,-5 508.89,-8.17 484.39,-15.42 466.11,-21.61"/>
<polygon fill="#63b8ff" stroke="#63b8ff" points="832.03,-33.24 842.57,-32.21 833.69,-26.44 832.03,-33.24"/>
</a>
</g>
</g>
<!-- Node3 -->
<g id="Node000003" class="node">
<title>Node3</title>
<g id="a_Node000003"><a xlink:href="sdcard_8c.html#a5228ed5a829330c001b1614c8476236c" target="_top" xlink:title="Cria um novo arquivo no diretório raiz com expansão de cluster.">
<polygon fill="white" stroke="#666666" points="475.38,-106 398.62,-106 398.62,-86 475.38,-86 475.38,-106"/>
<text xml:space="preserve" text-anchor="middle" x="437" y="-92.5" font-family="Helvetica,sans-Serif" font-size="10.00">sd_file_create</text>
</a>
</g>
</g>
<!-- Node2&#45;&gt;Node3 -->
<g id="edge2_Node000002_Node000003" class="edge">
<title>Node2&#45;&gt;Node3</title>
<g id="a_edge2_Node000002_Node000003"><a xlink:title=" ">
<path fill="none" stroke="#63b8ff" d="M531.37,-98.38C512.45,-97.9 492.33,-97.39 475.63,-96.96"/>
<polygon fill="#63b8ff" stroke="#63b8ff" points="531.04,-101.87 541.12,-98.63 531.22,-94.88 531.04,-101.87"/>
</a>
</g>
</g>
<!-- Node3&#45;&gt;Node3 -->
<g id="edge7_Node000003_Node000003" class="edge">
<title>Node3&#45;&gt;Node3</title>
<g id="a_edge7_Node000003_Node000003"><a xlink:title=" ">
<path fill="none" stroke="#63b8ff" d="M465.08,-117.44C461.46,-121.3 452.1,-124 437,-124 409.38,-124 400.97,-114.98 411.76,-106.34"/>
<polygon fill="#63b8ff" stroke="#63b8ff" points="468.48,-116.63 462.62,-107.81 461.7,-118.36 468.48,-116.63"/>
</a>
</g>
</g>
<!-- Node4 -->
<g id="Node000004" class="node">
<title>Node4</title>
<g id="a_Node000004"><a xlink:href="exemplo__3_8c.html#a1888a7d50f8090bc2f0c577e2ce4074f" target="_top" xlink:title="Localiza ou cria o volume de log adequado no cartão.">
<polygon fill="white" stroke="#666666" points="342.75,-146 210.5,-146 210.5,-126 342.75,-126 342.75,-146"/>
<text xml:space="preserve" text-anchor="middle" x="276.62" y="-132.5" font-family="Helvetica,sans-Serif" font-size="10.00">gerenciar_proximo_volume</text>
</a>
</g>
</g>
<!-- Node3&#45;&gt;Node4 -->
<g id="edge3_Node000003_Node000004" class="edge">
<title>Node3&#45;&gt;Node4</title>
<g id="a_edge3_Node000003_Node000004"><a xlink:title=" ">
<path fill="none" stroke="#63b8ff" d="M387.41,-108.27C365.55,-113.79 340.01,-120.24 319.06,-125.53"/>
<polygon fill="#63b8ff" stroke="#63b8ff" points="388.16,-111.69 397,-105.85 386.45,-104.91 388.16,-111.69"/>
</a>
</g>
</g>
<!-- Node7 -->
<g id="Node000007" class="node">
<title>Node7</title>
<g id="a_Node000007"><a xlink:href="exemplo__1_8c.html#a45578ec38e9d0ae49d3313fa3900f338" target="_top" xlink:title="Demonstração completa e básica da biblioteca.">
<polygon fill="white" stroke="#666666" points="333.75,-108 219.5,-108 219.5,-76 333.75,-76 333.75,-108"/>
<text xml:space="preserve" text-anchor="start" x="227.5" y="-94.5" font-family="Helvetica,sans-Serif" font-size="10.00">teste_basico_escrever</text>
<text xml:space="preserve" text-anchor="middle" x="276.62" y="-82.5" font-family="Helvetica,sans-Serif" font-size="10.00">_string</text>
</a>
</g>
</g>
<!-- Node3&#45;&gt;Node7 -->
<g id="edge8_Node000003_Node000007" class="edge">
<title>Node3&#45;&gt;Node7</title>
<g id="a_edge8_Node000003_Node000007"><a xlink:title=" ">
<path fill="none" stroke="#63b8ff" d="M387.23,-94.77C370.43,-94.34 351.47,-93.87 334.11,-93.43"/>
<polygon fill="#63b8ff" stroke="#63b8ff" points="386.87,-98.26 396.95,-95.01 387.05,-91.26 386.87,-98.26"/>
</a>
</g>
</g>
<!-- Node9 -->
<g id="Node000009" class="node">
<title>Node9</title>
<g id="a_Node000009"><a xlink:href="exemplo__2_8c.html#a71c134181186f04ca234d95f2b605e9a" target="_top" xlink:title="Executa o teste completo: Inicialização, Gravação e Busca.">
<polygon fill="white" stroke="#666666" points="331.12,-20 222.12,-20 222.12,0 331.12,0 331.12,-20"/>
<text xml:space="preserve" text-anchor="middle" x="276.62" y="-6.5" font-family="Helvetica,sans-Serif" font-size="10.00">teste_datalogger_csv</text>
</a>
</g>
</g>
<!-- Node3&#45;&gt;Node9 -->
<g id="edge10_Node000003_Node000009" class="edge">
<title>Node3&#45;&gt;Node9</title>
<g id="a_edge10_Node000003_Node000009"><a xlink:title=" ">
<path fill="none" stroke="#63b8ff" d="M406.79,-80.14C374.73,-62.73 324.18,-35.28 296.8,-20.41"/>
<polygon fill="#63b8ff" stroke="#63b8ff" points="405.11,-83.21 415.57,-84.9 408.45,-77.06 405.11,-83.21"/>
</a>
</g>
</g>
<!-- Node5 -->
<g id="Node000005" class="node">
<title>Node5</title>
<g id="a_Node000005"><a xlink:href="exemplo__3_8c.html#a840291bc02cba5474a4cb46a9b9566fe" target="_top" xlink:title="Ponto de entrada do programa.">
<polygon fill="white" stroke="#666666" points="37,-105 0,-105 0,-85 37,-85 37,-105"/>
<text xml:space="preserve" text-anchor="middle" x="18.5" y="-91.5" font-family="Helvetica,sans-Serif" font-size="10.00">main</text>
</a>
</g>
</g>
<!-- Node4&#45;&gt;Node5 -->
<g id="edge4_Node000004_Node000005" class="edge">
<title>Node4&#45;&gt;Node5</title>
<g id="a_edge4_Node000004_Node000005"><a xlink:title=" ">
<path fill="none" stroke="#63b8ff" d="M198.94,-134.16C160.66,-131.9 113.9,-127.09 73,-117 60.71,-113.97 47.56,-108.59 37.37,-103.91"/>
<polygon fill="#63b8ff" stroke="#63b8ff" points="198.33,-137.64 208.5,-134.68 198.71,-130.65 198.33,-137.64"/>
</a>
</g>
</g>
<!-- Node6 -->
<g id="Node000006" class="node">
<title>Node6</title>
<g id="a_Node000006"><a xlink:href="exemplo__3_8c.html#a9765d93a7e9eac42493b89eb0dc1ab12" target="_top" xlink:title="Formata e grava um registro CSV com data, hora e 4 sensores.">
<polygon fill="white" stroke="#666666" points="174.5,-70 73,-70 73,-38 174.5,-38 174.5,-70"/>
<text xml:space="preserve" text-anchor="start" x="81" y="-56.5" font-family="Helvetica,sans-Serif" font-size="10.00">registrar_dado_com</text>
<text xml:space="preserve" text-anchor="middle" x="123.75" y="-44.5" font-family="Helvetica,sans-Serif" font-size="10.00">_rotacao</text>
</a>
</g>
</g>
<!-- Node4&#45;&gt;Node6 -->
<g id="edge5_Node000004_Node000006" class="edge">
<title>Node4&#45;&gt;Node6</title>
<g id="a_edge5_Node000004_Node000006"><a xlink:title=" ">
<path fill="none" stroke="#63b8ff" d="M218.22,-121.18C215.55,-119.89 212.96,-118.5 210.5,-117 190.64,-104.88 193.17,-92.88 174.5,-79 170.39,-75.94 165.85,-73.08 161.23,-70.47"/>
<polygon fill="#63b8ff" stroke="#63b8ff" points="216.82,-124.39 227.4,-125.04 219.54,-117.94 216.82,-124.39"/>
</a>
</g>
</g>
<!-- Node6&#45;&gt;Node5 -->
<g id="edge6_Node000006_Node000005" class="edge">
<title>Node6&#45;&gt;Node5</title>
<g id="a_edge6_Node000006_Node000005"><a xlink:title=" ">
<path fill="none" stroke="#63b8ff" d="M70.85,-74.61C58.84,-79.38 46.84,-84.14 37.47,-87.86"/>
<polygon fill="#63b8ff" stroke="#63b8ff" points="71.94,-77.94 79.94,-71 69.36,-71.44 71.94,-77.94"/>
</a>
</g>
</g>
<!-- Node8 -->
<g id="Node000008" class="node">
<title>Node8</title>
<g id="a_Node000008"><a xlink:href="exemplo__1_8c.html#a840291bc02cba5474a4cb46a9b9566fe" target="_top" xlink:title=" ">
<polygon fill="white" stroke="#666666" points="142.25,-108 105.25,-108 105.25,-88 142.25,-88 142.25,-108"/>
<text xml:space="preserve" text-anchor="middle" x="123.75" y="-94.5" font-family="Helvetica,sans-Serif" font-size="10.00">main</text>
</a>
</g>
</g>
<!-- Node7&#45;&gt;Node8 -->
<g id="edge9_Node000007_Node000008" class="edge">
<title>Node7&#45;&gt;Node8</title>
<g id="a_edge9_Node000007_Node000008"><a xlink:title=" ">
<path fill="none" stroke="#63b8ff" d="M207.75,-94.7C183.79,-95.65 158.8,-96.65 142.59,-97.29"/>
<polygon fill="#63b8ff" stroke="#63b8ff" points="207.65,-98.21 217.5,-94.31 207.37,-91.21 207.65,-98.21"/>
</a>
</g>
</g>
<!-- Node10 -->
<g id="Node000010" class="node">
<title>Node10</title>
<g id="a_Node000010"><a xlink:href="exemplo__2_8c.html#a840291bc02cba5474a4cb46a9b9566fe" target="_top" xlink:title="Função principal.">
<polygon fill="white" stroke="#666666" points="142.25,-20 105.25,-20 105.25,0 142.25,0 142.25,-20"/>
<text xml:space="preserve" text-anchor="middle" x="123.75" y="-6.5" font-family="Helvetica,sans-Serif" font-size="10.00">main</text>
</a>
</g>
</g>
<!-- Node9&#45;&gt;Node10 -->
<g id="edge11_Node000009_Node000010" class="edge">
<title>Node9&#45;&gt;Node10</title>
<g id="a_edge11_Node000009_Node000010"><a xlink:title=" ">
<path fill="none" stroke="#63b8ff" d="M210.75,-10C185.92,-10 159.54,-10 142.64,-10"/>
<polygon fill="#63b8ff" stroke="#63b8ff" points="210.49,-13.5 220.49,-10 210.49,-6.5 210.49,-13.5"/>
</a>
</g>
</g>
<!-- Node11&#45;&gt;Node2 -->
<g id="edge13_Node000011_Node000002" class="edge">
<title>Node11&#45;&gt;Node2</title>
<g id="a_edge13_Node000011_Node000002"><a xlink:title=" ">
<path fill="none" stroke="#63b8ff" d="M694.66,-75.25C676.16,-79.93 655.62,-85.13 638.16,-89.55"/>
<polygon fill="#63b8ff" stroke="#63b8ff" points="695.28,-78.7 704.11,-72.86 693.56,-71.92 695.28,-78.7"/>
</a>
</g>
</g>
<!-- Node11&#45;&gt;Node12 -->
<g id="edge14_Node000011_Node000012" class="edge">
<title>Node11&#45;&gt;Node12</title>
<g id="a_edge14_Node000011_Node000012"><a xlink:title=" ">
<path fill="none" stroke="#63b8ff" d="M694.66,-48.75C676.16,-44.07 655.62,-38.87 638.16,-34.45"/>
<polygon fill="#63b8ff" stroke="#63b8ff" points="693.56,-52.08 704.11,-51.14 695.28,-45.3 693.56,-52.08"/>
</a>
</g>
</g>
<!-- Node11&#45;&gt;Node13 -->
<g id="edge19_Node000011_Node000013" class="edge">
<title>Node11&#45;&gt;Node13</title>
<g id="a_edge19_Node000011_Node000013"><a xlink:title=" ">
<path fill="none" stroke="#63b8ff" d="M684.94,-57.02C641.8,-53.45 582.99,-48.33 531.25,-43 519.74,-41.81 507.44,-40.44 495.67,-39.07"/>
<polygon fill="#63b8ff" stroke="#63b8ff" points="684.63,-60.51 694.88,-57.84 685.21,-53.53 684.63,-60.51"/>
</a>
</g>
</g>
<!-- Node12&#45;&gt;Node13 -->
<g id="edge15_Node000012_Node000013" class="edge">
<title>Node12&#45;&gt;Node13</title>
<g id="a_edge15_Node000012_Node000013"><a xlink:title=" ">
<path fill="none" stroke="#63b8ff" d="M519.72,-27.83C511.64,-28.24 503.52,-28.66 495.69,-29.06"/>
<polygon fill="#63b8ff" stroke="#63b8ff" points="519.75,-31.34 529.56,-27.33 519.39,-24.34 519.75,-31.34"/>
</a>
</g>
</g>
<!-- Node13&#45;&gt;Node6 -->
<g id="edge16_Node000013_Node000006" class="edge">
<title>Node13&#45;&gt;Node6</title>
<g id="a_edge16_Node000013_Node000006"><a xlink:title=" ">
<path fill="none" stroke="#63b8ff" d="M367.25,-36.86C309.08,-40.97 227.08,-46.77 174.93,-50.45"/>
<polygon fill="#63b8ff" stroke="#63b8ff" points="367.31,-40.36 377.04,-36.17 366.82,-33.38 367.31,-40.36"/>
</a>
</g>
</g>
<!-- Node13&#45;&gt;Node7 -->
<g id="edge17_Node000013_Node000007" class="edge">
<title>Node13&#45;&gt;Node7</title>
<g id="a_edge17_Node000013_Node000007"><a xlink:title=" ">
<path fill="none" stroke="#63b8ff" d="M397.94,-46.42C374.77,-55.2 345.09,-66.44 321.01,-75.57"/>
<polygon fill="#63b8ff" stroke="#63b8ff" points="398.89,-49.8 407,-42.99 396.41,-43.26 398.89,-49.8"/>
</a>
</g>
</g>
<!-- Node13&#45;&gt;Node9 -->
<g id="edge18_Node000013_Node000009" class="edge">
<title>Node13&#45;&gt;Node9</title>
<g id="a_edge18_Node000013_Node000009"><a xlink:title=" ">
<path fill="none" stroke="#63b8ff" d="M367.09,-22.43C355.18,-20.77 342.96,-19.08 331.52,-17.49"/>
<polygon fill="#63b8ff" stroke="#63b8ff" points="366.49,-25.88 376.88,-23.79 367.45,-18.94 366.49,-25.88"/>
</a>
</g>
</g>
</g>
</svg>
