<?xml version="1.0" encoding="UTF-8" standalone="no"?>
<!DOCTYPE svg PUBLIC "-//W3C//DTD SVG 1.1//EN"
 "http://www.w3.org/Graphics/SVG/1.1/DTD/svg11.dtd">
<!-- Generated by graphviz version 14.1.4 (20260321.0153)
 -->
<!-- Title: sd_dir_list Pages: 1 -->
<svg width="292pt" height="154pt"
 viewBox="0.00 0.00 292.00 154.00" xmlns="http://www.w3.org/2000/svg" xmlns:xlink="http://www.w3.org/1999/xlink">
<g id="graph0" class="graph" transform="scale(1 1) rotate(0) translate(4 150)">
<title>sd_dir_list</title>
<!-- Node1 -->
<g id="Node000001" class="node">
<title>Node1</title>
<g id="a_Node000001"><a xlink:title="Lista todos os arquivos presentes no diretório raiz via Serial.">
<polygon fill="#999999" stroke="#666666" points="283.5,-86 223.25,-86 223.25,-66 283.5,-66 283.5,-86"/>
<text xml:space="preserve" text-anchor="middle" x="253.38" y="-72.5" font-family="Helvetica,sans-Serif" font-size="10.00">sd_dir_list</text>
</a>
</g>
</g>
<!-- Node2 -->
<g id="Node000002" class="node">
<title>Node2</title>
<g id="a_Node000002"><a xlink:href="exemplo__4_8c.html#a840291bc02cba5474a4cb46a9b9566fe" target="_top" xlink:title="Função main demonstrando o fluxo completo de carregamento e uso.">
<polygon fill="white" stroke="#666666" points="148.62,-146 111.62,-146 111.62,-126 148.62,-126 148.62,-146"/>
<text xml:space="preserve" text-anchor="middle" x="130.12" y="-132.5" font-family="Helvetica,sans-Serif" font-size="10.00">main</text>
</a>
</g>
</g>
<!-- Node1&#45;&gt;Node2 -->
<g id="edge1_Node000001_Node000002" class="edge">
<title>Node1&#45;&gt;Node2</title>
<g id="a_edge1_Node000001_Node000002"><a xlink:title=" ">
<path fill="none" stroke="#63b8ff" d="M228.64,-92.84C216.62,-100.87 201.58,-110.18 187.25,-117 174.9,-122.88 160.23,-127.78 148.99,-131.13"/>
<polygon fill="#63b8ff" stroke="#63b8ff" points="230.41,-95.87 236.69,-87.34 226.46,-90.09 230.41,-95.87"/>
</a>
</g>
</g>
<!-- Node3 -->
<g id="Node000003" class="node">
<title>Node3</title>
<g id="a_Node000003"><a xlink:href="exemplo__5_8c.html#a1ebabf5df3f5856d744054ab8d011d87" target="_top" xlink:title="Interpreta e executa o comando digitado.">
<polygon fill="white" stroke="#666666" points="182,-108 78.25,-108 78.25,-88 182,-88 182,-108"/>
<text xml:space="preserve" text-anchor="middle" x="130.12" y="-94.5" font-family="Helvetica,sans-Serif" font-size="10.00">processar_comando</text>
</a>
</g>
</g>
<!-- Node1&#45;&gt;Node3 -->
<g id="edge2_Node000001_Node000003" class="edge">
<title>Node1&#45;&gt;Node3</title>
<g id="a_edge2_Node000001_Node000003"><a xlink:title=" ">
<path fill="none" stroke="#63b8ff" d="M211.94,-83.34C202.49,-85.05 192.3,-86.9 182.45,-88.69"/>
<polygon fill="#63b8ff" stroke="#63b8ff" points="212.32,-86.82 221.53,-81.6 211.07,-79.94 212.32,-86.82"/>
</a>
</g>
</g>
<!-- Node5 -->
<g id="Node000005" class="node">
<title>Node5</title>
<g id="a_Node000005"><a xlink:href="exemplo__1_8c.html#a45578ec38e9d0ae49d3313fa3900f338" target="_top" xlink:title="Demonstração completa e básica da biblioteca.">
<polygon fill="white" stroke="#666666" points="187.25,-70 73,-70 73,-38 187.25,-38 187.25,-70"/>
<text xml:space="preserve" text-anchor="start" x="81" y="-56.5" font-family="Helvetica,sans-Serif" font-size="10.00">teste_basico_escrever</text>
<text xml:space="preserve" text-anchor="middle" x="130.12" y="-44.5" font-family="Helvetica,sans-Serif" font-size="10.00">_string</text>
</a>
</g>
</g>
<!-- Node1&#45;&gt;Node5 -->
<g id="edge4_Node000001_Node000005" class="edge">
<title>Node1&#45;&gt;Node5</title>
<g id="a_edge4_Node000001_Node000005"><a xlink:title=" ">
<path fill="none" stroke="#63b8ff" d="M211.76,-68.63C204.05,-67.23 195.84,-65.74 187.73,-64.27"/>
<polygon fill="#63b8ff" stroke="#63b8ff" points="211.07,-72.06 221.53,-70.4 212.32,-65.18 211.07,-72.06"/>
</a>
</g>
</g>
<!-- Node7 -->
<g id="Node000007" class="node">
<title>Node7</title>
<g id="a_Node000007"><a xlink:href="exemplo__2_8c.html#a71c134181186f04ca234d95f2b605e9a" target="_top" xlink:title="Executa o teste completo: Inicialização, Gravação e Busca.">
<polygon fill="white" stroke="#666666" points="184.62,-20 75.62,-20 75.62,0 184.62,0 184.62,-20"/>
<text xml:space="preserve" text-anchor="middle" x="130.12" y="-6.5" font-family="Helvetica,sans-Serif" font-size="10.00">teste_datalogger_csv</text>
</a>
</g>
</g>
<!-- Node1&#45;&gt;Node7 -->
<g id="edge6_Node000001_Node000007" class="edge">
<title>Node1&#45;&gt;Node7</title>
<g id="a_edge6_Node000001_Node000007"><a xlink:title=" ">
<path fill="none" stroke="#63b8ff" d="M231.66,-58.59C219.35,-48.89 203.09,-37.16 187.25,-29 180.94,-25.75 173.95,-22.87 167.12,-20.4"/>
<polygon fill="#63b8ff" stroke="#63b8ff" points="229.45,-61.31 239.43,-64.88 233.86,-55.86 229.45,-61.31"/>
</a>
</g>
</g>
<!-- Node4 -->
<g id="Node000004" class="node">
<title>Node4</title>
<g id="a_Node000004"><a xlink:href="exemplo__5_8c.html#a840291bc02cba5474a4cb46a9b9566fe" target="_top" xlink:title=" ">
<polygon fill="white" stroke="#666666" points="37,-108 0,-108 0,-88 37,-88 37,-108"/>
<text xml:space="preserve" text-anchor="middle" x="18.5" y="-94.5" font-family="Helvetica,sans-Serif" font-size="10.00">main</text>
</a>
</g>
</g>
<!-- Node3&#45;&gt;Node4 -->
<g id="edge3_Node000003_Node000004" class="edge">
<title>Node3&#45;&gt;Node4</title>
<g id="a_edge3_Node000003_Node000004"><a xlink:title=" ">
<path fill="none" stroke="#63b8ff" d="M66.64,-98C55.96,-98 45.68,-98 37.46,-98"/>
<polygon fill="#63b8ff" stroke="#63b8ff" points="66.33,-101.5 76.33,-98 66.33,-94.5 66.33,-101.5"/>
</a>
</g>
</g>
<!-- Node6 -->
<g id="Node000006" class="node">
<title>Node6</title>
<g id="a_Node000006"><a xlink:href="exemplo__1_8c.html#a840291bc02cba5474a4cb46a9b9566fe" target="_top" xlink:title=" ">
<polygon fill="white" stroke="#666666" points="37,-64 0,-64 0,-44 37,-44 37,-64"/>
<text xml:space="preserve" text-anchor="middle" x="18.5" y="-50.5" font-family="Helvetica,sans-Serif" font-size="10.00">main</text>
</a>
</g>
</g>
<!-- Node5&#45;&gt;Node6 -->
<g id="edge5_Node000005_Node000006" class="edge">
<title>Node5&#45;&gt;Node6</title>
<g id="a_edge5_Node000005_Node000006"><a xlink:title=" ">
<path fill="none" stroke="#63b8ff" d="M61.41,-54C52.63,-54 44.32,-54 37.45,-54"/>
<polygon fill="#63b8ff" stroke="#63b8ff" points="61.19,-57.5 71.19,-54 61.19,-50.5 61.19,-57.5"/>
</a>
</g>
</g>
<!-- Node8 -->
<g id="Node000008" class="node">
<title>Node8</title>
<g id="a_Node000008"><a xlink:href="exemplo__2_8c.html#a840291bc02cba5474a4cb46a9b9566fe" target="_top" xlink:title="Função principal.">
<polygon fill="white" stroke="#666666" points="37,-20 0,-20 0,0 37,0 37,-20"/>
<text xml:space="preserve" text-anchor="middle" x="18.5" y="-6.5" font-family="Helvetica,sans-Serif" font-size="10.00">main</text>
</a>
</g>
</g>
<!-- Node7&#45;&gt;Node8 -->
<g id="edge7_Node000007_Node000008" class="edge">
<title>Node7&#45;&gt;Node8</title>
<g id="a_edge7_Node000007_Node000008"><a xlink:title=" ">
<path fill="none" stroke="#63b8ff" d="M63.82,-10C54.17,-10 44.98,-10 37.49,-10"/>
<polygon fill="#63b8ff" stroke="#63b8ff" points="63.76,-13.5 73.76,-10 63.76,-6.5 63.76,-13.5"/>
</a>
</g>
</g>
</g>
</svg>
