<?xml version="1.0" encoding="UTF-8" standalone="no"?>
<!DOCTYPE svg PUBLIC "-//W3C//DTD SVG 1.1//EN"
 "http://www.w3.org/Graphics/SVG/1.1/DTD/svg11.dtd">
<!-- Generated by graphviz version 14.1.4 (20260321.0153)
 -->
<!-- Title: sd_fat_alloc_cluster Pages: 1 -->
<svg width="808pt" height="154pt"
 viewBox="0.00 0.00 808.00 154.00" xmlns="http://www.w3.org/2000/svg" xmlns:xlink="http://www.w3.org/1999/xlink">
<g id="graph0" class="graph" transform="scale(1 1) rotate(0) translate(4 150)">
<title>sd_fat_alloc_cluster</title>
<!-- Node1 -->
<g id="Node000001" class="node">
<title>Node1</title>
<g id="a_Node000001"><a xlink:title="Aloca um cluster livre na FAT32 utilizando busca circular otimizada.">
<polygon fill="#999999" stroke="#666666" points="799.5,-64 696.5,-64 696.5,-44 799.5,-44 799.5,-64"/>
<text xml:space="preserve" text-anchor="middle" x="748" y="-50.5" font-family="Helvetica,sans-Serif" font-size="10.00">sd_fat_alloc_cluster</text>
</a>
</g>
</g>
<!-- Node2 -->
<g id="Node000002" class="node">
<title>Node2</title>
<g id="a_Node000002"><a xlink:href="sdcard_8c.html#a6dcdbe623e720ed71f92e745c440db85" target="_top" xlink:title="Expande o diretorio alocando um novo cluster.">
<polygon fill="white" stroke="#666666" points="648.88,-102 542.88,-102 542.88,-82 648.88,-82 648.88,-102"/>
<text xml:space="preserve" text-anchor="middle" x="595.88" y="-88.5" font-family="Helvetica,sans-Serif" font-size="10.00">sd_expand_directory</text>
</a>
</g>
</g>
<!-- Node1&#45;&gt;Node2 -->
<g id="edge1_Node000001_Node000002" class="edge">
<title>Node1&#45;&gt;Node2</title>
<g id="a_edge1_Node000001_Node000002"><a xlink:title=" ">
<path fill="none" stroke="#63b8ff" d="M694.66,-67.25C676.16,-71.93 655.62,-77.13 638.16,-81.55"/>
<polygon fill="#63b8ff" stroke="#63b8ff" points="695.28,-70.7 704.11,-64.86 693.56,-63.92 695.28,-70.7"/>
</a>
</g>
</g>
<!-- Node11 -->
<g id="Node000011" class="node">
<title>Node11</title>
<g id="a_Node000011"><a xlink:href="sdcard_8c.html#a7e010bc4f9f46359dcefc007d522f58a" target="_top" xlink:title="Aloca um novo cluster e o encadeia ao final de uma sequência existente.">
<polygon fill="white" stroke="#666666" points="660.5,-64 531.25,-64 531.25,-44 660.5,-44 660.5,-64"/>
<text xml:space="preserve" text-anchor="middle" x="595.88" y="-50.5" font-family="Helvetica,sans-Serif" font-size="10.00">sd_fat_chain_new_cluster</text>
</a>
</g>
</g>
<!-- Node1&#45;&gt;Node11 -->
<g id="edge12_Node000001_Node000011" class="edge">
<title>Node1&#45;&gt;Node11</title>
<g id="a_edge12_Node000001_Node000011"><a xlink:title=" ">
<path fill="none" stroke="#63b8ff" d="M684.81,-54C676.94,-54 668.86,-54 660.96,-54"/>
<polygon fill="#63b8ff" stroke="#63b8ff" points="684.66,-57.5 694.66,-54 684.66,-50.5 684.66,-57.5"/>
</a>
</g>
</g>
<!-- Node12 -->
<g id="Node000012" class="node">
<title>Node12</title>
<g id="a_Node000012"><a xlink:href="sdcard_8c.html#a3cb6e9bbb79a21ebf8cf7357ed262726" target="_top" xlink:title="Adiciona dados ao final de um arquivo, expandindo clusters se necessário.">
<polygon fill="white" stroke="#666666" points="495.25,-58 378.75,-58 378.75,-38 495.25,-38 495.25,-58"/>
<text xml:space="preserve" text-anchor="middle" x="437" y="-44.5" font-family="Helvetica,sans-Serif" font-size="10.00">sd_file_append_stream</text>
</a>
</g>
</g>
<!-- Node1&#45;&gt;Node12 -->
<g id="edge17_Node000001_Node000012" class="edge">
<title>Node1&#45;&gt;Node12</title>
<g id="a_edge17_Node000001_Node000012"><a xlink:title=" ">
<path fill="none" stroke="#63b8ff" d="M697.01,-41.1C685.13,-38.57 672.43,-36.29 660.5,-35 603.39,-28.8 588.56,-31.02 531.25,-35 519.67,-35.8 507.34,-37.16 495.57,-38.7"/>
<polygon fill="#63b8ff" stroke="#63b8ff" points="696.11,-44.48 706.63,-43.25 697.64,-37.65 696.11,-44.48"/>
</a>
</g>
</g>
<!-- Node3 -->
<g id="Node000003" class="node">
<title>Node3</title>
<g id="a_Node000003"><a xlink:href="sdcard_8c.html#a5228ed5a829330c001b1614c8476236c" target="_top" xlink:title="Cria um novo arquivo no diretorio raiz com expansao de cluster.">
<polygon fill="white" stroke="#666666" points="475.38,-102 398.62,-102 398.62,-82 475.38,-82 475.38,-102"/>
<text xml:space="preserve" text-anchor="middle" x="437" y="-88.5" font-family="Helvetica,sans-Serif" font-size="10.00">sd_file_create</text>
</a>
</g>
</g>
<!-- Node2&#45;&gt;Node3 -->
<g id="edge2_Node000002_Node000003" class="edge">
<title>Node2&#45;&gt;Node3</title>
<g id="a_edge2_Node000002_Node000003"><a xlink:title=" ">
<path fill="none" stroke="#63b8ff" d="M531.37,-92C512.45,-92 492.33,-92 475.63,-92"/>
<polygon fill="#63b8ff" stroke="#63b8ff" points="531.12,-95.5 541.12,-92 531.12,-88.5 531.12,-95.5"/>
</a>
</g>
</g>
<!-- Node3&#45;&gt;Node3 -->
<g id="edge7_Node000003_Node000003" class="edge">
<title>Node3&#45;&gt;Node3</title>
<g id="a_edge7_Node000003_Node000003"><a xlink:title=" ">
<path fill="none" stroke="#63b8ff" d="M465.08,-113.44C461.46,-117.3 452.1,-120 437,-120 409.38,-120 400.97,-110.98 411.76,-102.34"/>
<polygon fill="#63b8ff" stroke="#63b8ff" points="468.48,-112.63 462.62,-103.81 461.7,-114.36 468.48,-112.63"/>
</a>
</g>
</g>
<!-- Node4 -->
<g id="Node000004" class="node">
<title>Node4</title>
<g id="a_Node000004"><a xlink:href="exemplo__3_8c.html#a1888a7d50f8090bc2f0c577e2ce4074f" target="_top" xlink:title="Localiza ou cria o volume de log adequado no cartão.">
<polygon fill="white" stroke="#666666" points="342.75,-146 210.5,-146 210.5,-126 342.75,-126 342.75,-146"/>
<text xml:space="preserve" text-anchor="middle" x="276.62" y="-132.5" font-family="Helvetica,sans-Serif" font-size="10.00">gerenciar_proximo_volume</text>
</a>
</g>
</g>
<!-- Node3&#45;&gt;Node4 -->
<g id="edge3_Node000003_Node000004" class="edge">
<title>Node3&#45;&gt;Node4</title>
<g id="a_edge3_Node000003_Node000004"><a xlink:title=" ">
<path fill="none" stroke="#63b8ff" d="M387.43,-105.49C364.19,-111.95 336.78,-119.57 315.16,-125.57"/>
<polygon fill="#63b8ff" stroke="#63b8ff" points="388.31,-108.88 397.01,-102.83 386.44,-102.14 388.31,-108.88"/>
</a>
</g>
</g>
<!-- Node7 -->
<g id="Node000007" class="node">
<title>Node7</title>
<g id="a_Node000007"><a xlink:href="exemplo__1_8c.html#a45578ec38e9d0ae49d3313fa3900f338" target="_top" xlink:title="Demonstração completa e básica da biblioteca.">
<polygon fill="white" stroke="#666666" points="333.75,-108 219.5,-108 219.5,-76 333.75,-76 333.75,-108"/>
<text xml:space="preserve" text-anchor="start" x="227.5" y="-94.5" font-family="Helvetica,sans-Serif" font-size="10.00">teste_basico_escrever</text>
<text xml:space="preserve" text-anchor="middle" x="276.62" y="-82.5" font-family="Helvetica,sans-Serif" font-size="10.00">_string</text>
</a>
</g>
</g>
<!-- Node3&#45;&gt;Node7 -->
<g id="edge8_Node000003_Node000007" class="edge">
<title>Node3&#45;&gt;Node7</title>
<g id="a_edge8_Node000003_Node000007"><a xlink:title=" ">
<path fill="none" stroke="#63b8ff" d="M387.23,-92C370.43,-92 351.47,-92 334.11,-92"/>
<polygon fill="#63b8ff" stroke="#63b8ff" points="386.95,-95.5 396.95,-92 386.95,-88.5 386.95,-95.5"/>
</a>
</g>
</g>
<!-- Node9 -->
<g id="Node000009" class="node">
<title>Node9</title>
<g id="a_Node000009"><a xlink:href="exemplo__2_8c.html#a71c134181186f04ca234d95f2b605e9a" target="_top" xlink:title="Executa o teste completo: Inicialização, Gravação e Busca.">
<polygon fill="white" stroke="#666666" points="331.12,-20 222.12,-20 222.12,0 331.12,0 331.12,-20"/>
<text xml:space="preserve" text-anchor="middle" x="276.62" y="-6.5" font-family="Helvetica,sans-Serif" font-size="10.00">teste_datalogger_csv</text>
</a>
</g>
</g>
<!-- Node3&#45;&gt;Node9 -->
<g id="edge10_Node000003_Node000009" class="edge">
<title>Node3&#45;&gt;Node9</title>
<g id="a_edge10_Node000003_Node000009"><a xlink:title=" ">
<path fill="none" stroke="#63b8ff" d="M400.13,-77C392.99,-73.83 385.58,-70.41 378.75,-67 348.63,-51.98 314.77,-32.3 294.87,-20.43"/>
<polygon fill="#63b8ff" stroke="#63b8ff" points="398.71,-80.2 409.28,-80.99 401.51,-73.79 398.71,-80.2"/>
</a>
</g>
</g>
<!-- Node5 -->
<g id="Node000005" class="node">
<title>Node5</title>
<g id="a_Node000005"><a xlink:href="exemplo__3_8c.html#a840291bc02cba5474a4cb46a9b9566fe" target="_top" xlink:title="Ponto de entrada do programa.">
<polygon fill="white" stroke="#666666" points="37,-105 0,-105 0,-85 37,-85 37,-105"/>
<text xml:space="preserve" text-anchor="middle" x="18.5" y="-91.5" font-family="Helvetica,sans-Serif" font-size="10.00">main</text>
</a>
</g>
</g>
<!-- Node4&#45;&gt;Node5 -->
<g id="edge4_Node000004_Node000005" class="edge">
<title>Node4&#45;&gt;Node5</title>
<g id="a_edge4_Node000004_Node000005"><a xlink:title=" ">
<path fill="none" stroke="#63b8ff" d="M198.94,-134.16C160.66,-131.9 113.9,-127.09 73,-117 60.71,-113.97 47.56,-108.59 37.37,-103.91"/>
<polygon fill="#63b8ff" stroke="#63b8ff" points="198.33,-137.64 208.5,-134.68 198.71,-130.65 198.33,-137.64"/>
</a>
</g>
</g>
<!-- Node6 -->
<g id="Node000006" class="node">
<title>Node6</title>
<g id="a_Node000006"><a xlink:href="exemplo__3_8c.html#a9765d93a7e9eac42493b89eb0dc1ab12" target="_top" xlink:title="Formata e grava um registro CSV com data, hora e 4 sensores.">
<polygon fill="white" stroke="#666666" points="174.5,-70 73,-70 73,-38 174.5,-38 174.5,-70"/>
<text xml:space="preserve" text-anchor="start" x="81" y="-56.5" font-family="Helvetica,sans-Serif" font-size="10.00">registrar_dado_com</text>
<text xml:space="preserve" text-anchor="middle" x="123.75" y="-44.5" font-family="Helvetica,sans-Serif" font-size="10.00">_rotacao</text>
</a>
</g>
</g>
<!-- Node4&#45;&gt;Node6 -->
<g id="edge5_Node000004_Node000006" class="edge">
<title>Node4&#45;&gt;Node6</title>
<g id="a_edge5_Node000004_Node000006"><a xlink:title=" ">
<path fill="none" stroke="#63b8ff" d="M218.22,-121.18C215.55,-119.89 212.96,-118.5 210.5,-117 190.64,-104.88 193.17,-92.88 174.5,-79 170.39,-75.94 165.85,-73.08 161.23,-70.47"/>
<polygon fill="#63b8ff" stroke="#63b8ff" points="216.82,-124.39 227.4,-125.04 219.54,-117.94 216.82,-124.39"/>
</a>
</g>
</g>
<!-- Node6&#45;&gt;Node5 -->
<g id="edge6_Node000006_Node000005" class="edge">
<title>Node6&#45;&gt;Node5</title>
<g id="a_edge6_Node000006_Node000005"><a xlink:title=" ">
<path fill="none" stroke="#63b8ff" d="M70.85,-74.61C58.84,-79.38 46.84,-84.14 37.47,-87.86"/>
<polygon fill="#63b8ff" stroke="#63b8ff" points="71.94,-77.94 79.94,-71 69.36,-71.44 71.94,-77.94"/>
</a>
</g>
</g>
<!-- Node8 -->
<g id="Node000008" class="node">
<title>Node8</title>
<g id="a_Node000008"><a xlink:href="exemplo__1_8c.html#a840291bc02cba5474a4cb46a9b9566fe" target="_top" xlink:title=" ">
<polygon fill="white" stroke="#666666" points="142.25,-108 105.25,-108 105.25,-88 142.25,-88 142.25,-108"/>
<text xml:space="preserve" text-anchor="middle" x="123.75" y="-94.5" font-family="Helvetica,sans-Serif" font-size="10.00">main</text>
</a>
</g>
</g>
<!-- Node7&#45;&gt;Node8 -->
<g id="edge9_Node000007_Node000008" class="edge">
<title>Node7&#45;&gt;Node8</title>
<g id="a_edge9_Node000007_Node000008"><a xlink:title=" ">
<path fill="none" stroke="#63b8ff" d="M207.75,-94.7C183.79,-95.65 158.8,-96.65 142.59,-97.29"/>
<polygon fill="#63b8ff" stroke="#63b8ff" points="207.65,-98.21 217.5,-94.31 207.37,-91.21 207.65,-98.21"/>
</a>
</g>
</g>
<!-- Node10 -->
<g id="Node000010" class="node">
<title>Node10</title>
<g id="a_Node000010"><a xlink:href="exemplo__2_8c.html#a840291bc02cba5474a4cb46a9b9566fe" target="_top" xlink:title="Função principal.">
<polygon fill="white" stroke="#666666" points="142.25,-20 105.25,-20 105.25,0 142.25,0 142.25,-20"/>
<text xml:space="preserve" text-anchor="middle" x="123.75" y="-6.5" font-family="Helvetica,sans-Serif" font-size="10.00">main</text>
</a>
</g>
</g>
<!-- Node9&#45;&gt;Node10 -->
<g id="edge11_Node000009_Node000010" class="edge">
<title>Node9&#45;&gt;Node10</title>
<g id="a_edge11_Node000009_Node000010"><a xlink:title=" ">
<path fill="none" stroke="#63b8ff" d="M210.75,-10C185.92,-10 159.54,-10 142.64,-10"/>
<polygon fill="#63b8ff" stroke="#63b8ff" points="210.49,-13.5 220.49,-10 210.49,-6.5 210.49,-13.5"/>
</a>
</g>
</g>
<!-- Node11&#45;&gt;Node12 -->
<g id="edge13_Node000011_Node000012" class="edge">
<title>Node11&#45;&gt;Node12</title>
<g id="a_edge13_Node000011_Node000012"><a xlink:title=" ">
<path fill="none" stroke="#63b8ff" d="M519.72,-51.13C511.64,-50.82 503.52,-50.51 495.69,-50.21"/>
<polygon fill="#63b8ff" stroke="#63b8ff" points="519.43,-54.62 529.56,-51.5 519.7,-47.62 519.43,-54.62"/>
</a>
</g>
</g>
<!-- Node12&#45;&gt;Node6 -->
<g id="edge14_Node000012_Node000006" class="edge">
<title>Node12&#45;&gt;Node6</title>
<g id="a_edge14_Node000012_Node000006"><a xlink:title=" ">
<path fill="none" stroke="#63b8ff" d="M367.25,-49.33C309.08,-50.45 227.08,-52.03 174.93,-53.03"/>
<polygon fill="#63b8ff" stroke="#63b8ff" points="367.11,-52.83 377.04,-49.14 366.97,-45.83 367.11,-52.83"/>
</a>
</g>
</g>
<!-- Node12&#45;&gt;Node7 -->
<g id="edge15_Node000012_Node000007" class="edge">
<title>Node12&#45;&gt;Node7</title>
<g id="a_edge15_Node000012_Node000007"><a xlink:title=" ">
<path fill="none" stroke="#63b8ff" d="M387.71,-61.42C370.79,-66.12 351.64,-71.44 334.11,-76.31"/>
<polygon fill="#63b8ff" stroke="#63b8ff" points="388.31,-64.88 397.01,-58.83 386.44,-58.14 388.31,-64.88"/>
</a>
</g>
</g>
<!-- Node12&#45;&gt;Node9 -->
<g id="edge16_Node000012_Node000009" class="edge">
<title>Node12&#45;&gt;Node9</title>
<g id="a_edge16_Node000012_Node000009"><a xlink:title=" ">
<path fill="none" stroke="#63b8ff" d="M381.34,-34.88C361.67,-30.17 339.77,-24.91 321.18,-20.45"/>
<polygon fill="#63b8ff" stroke="#63b8ff" points="380.29,-38.23 390.83,-37.16 381.92,-31.43 380.29,-38.23"/>
</a>
</g>
</g>
</g>
</svg>
