<?xml version="1.0" encoding="UTF-8" standalone="no"?>
<!DOCTYPE svg PUBLIC "-//W3C//DTD SVG 1.1//EN"
 "http://www.w3.org/Graphics/SVG/1.1/DTD/svg11.dtd">
<!-- Generated by graphviz version 14.1.4 (20260321.0153)
 -->
<!-- Title: sd_file_exists Pages: 1 -->
<svg width="463pt" height="116pt"
 viewBox="0.00 0.00 463.00 116.00" xmlns="http://www.w3.org/2000/svg" xmlns:xlink="http://www.w3.org/1999/xlink">

<svg id="main" version="1.1" xmlns="http://www.w3.org/2000/svg" xmlns:xlink="http://www.w3.org/1999/xlink" xml:space="preserve">

<style type="text/css"><![CDATA[
.node, .edge {opacity: 0.7;}
.node.selected, .edge.selected {opacity: 1;}
.edge:hover path { stroke: red; }
.edge:hover polygon { stroke: red; fill: red; }
]]></style>
<script type="application/ecmascript" xlink:href="svg.min.js"/>
<svg id="graph" class="graph">
<g id="graph0" class="graph" transform="scale(1 1) rotate(0) translate(4 112)">
<title>sd_file_exists</title>
<!-- Node1 -->
<g id="Node000001" class="node">
<title>Node1</title>
<g id="a_Node000001"><a xlink:title="Verifica se arquivo existe.">
<polygon fill="#999999" stroke="#666666" points="454.75,-89 378.75,-89 378.75,-69 454.75,-69 454.75,-89"/>
<text xml:space="preserve" text-anchor="middle" x="416.75" y="-75.5" font-family="Helvetica,sans-Serif" font-size="10.00">sd_file_exists</text>
</a>
</g>
</g>
<!-- Node2 -->
<g id="Node000002" class="node">
<title>Node2</title>
<g id="a_Node000002"><a xlink:href="exemplo__4_8c.html#aea5f9f33267c7ef0c394d9a9e8d45c17" target="_top" xlink:title="Localiza e processa o arquivo CONFIG.ini no cartão SD.">
<polygon fill="white" stroke="#666666" points="341.25,-108 212,-108 212,-88 341.25,-88 341.25,-108"/>
<text xml:space="preserve" text-anchor="middle" x="276.62" y="-94.5" font-family="Helvetica,sans-Serif" font-size="10.00">carregar_parametros_boot</text>
</a>
</g>
</g>
<!-- Node1&#45;&gt;Node2 -->
<g id="edge1_Node000001_Node000002" class="edge">
<title>Node1&#45;&gt;Node2</title>
<g id="a_edge1_Node000001_Node000002"><a xlink:title=" ">
<path fill="none" stroke="#63b8ff" d="M367.08,-85.7C358.85,-86.83 350.2,-88.02 341.65,-89.19"/>
<polygon fill="#63b8ff" stroke="#63b8ff" points="367.44,-89.18 376.87,-84.35 366.49,-82.24 367.44,-89.18"/>
</a>
</g>
</g>
<!-- Node4 -->
<g id="Node000004" class="node">
<title>Node4</title>
<g id="a_Node000004"><a xlink:href="exemplo__3_8c.html#a1888a7d50f8090bc2f0c577e2ce4074f" target="_top" xlink:title="Localiza ou cria o volume de log adequado no cartão.">
<polygon fill="white" stroke="#666666" points="342.75,-70 210.5,-70 210.5,-50 342.75,-50 342.75,-70"/>
<text xml:space="preserve" text-anchor="middle" x="276.62" y="-56.5" font-family="Helvetica,sans-Serif" font-size="10.00">gerenciar_proximo_volume</text>
</a>
</g>
</g>
<!-- Node1&#45;&gt;Node4 -->
<g id="edge3_Node000001_Node000004" class="edge">
<title>Node1&#45;&gt;Node4</title>
<g id="a_edge3_Node000001_Node000004"><a xlink:title=" ">
<path fill="none" stroke="#63b8ff" d="M367.02,-72.3C359.32,-71.24 351.25,-70.13 343.24,-69.03"/>
<polygon fill="#63b8ff" stroke="#63b8ff" points="366.49,-75.76 376.87,-73.65 367.44,-68.82 366.49,-75.76"/>
</a>
</g>
</g>
<!-- Node3 -->
<g id="Node000003" class="node">
<title>Node3</title>
<g id="a_Node000003"><a xlink:href="exemplo__4_8c.html#a840291bc02cba5474a4cb46a9b9566fe" target="_top" xlink:title="Função main demonstrando o fluxo completo de carregamento e uso.">
<polygon fill="white" stroke="#666666" points="142.25,-108 105.25,-108 105.25,-88 142.25,-88 142.25,-108"/>
<text xml:space="preserve" text-anchor="middle" x="123.75" y="-94.5" font-family="Helvetica,sans-Serif" font-size="10.00">main</text>
</a>
</g>
</g>
<!-- Node2&#45;&gt;Node3 -->
<g id="edge2_Node000002_Node000003" class="edge">
<title>Node2&#45;&gt;Node3</title>
<g id="a_edge2_Node000002_Node000003"><a xlink:title=" ">
<path fill="none" stroke="#63b8ff" d="M200.4,-98C178.84,-98 157.26,-98 142.7,-98"/>
<polygon fill="#63b8ff" stroke="#63b8ff" points="200.13,-101.5 210.13,-98 200.13,-94.5 200.13,-101.5"/>
</a>
</g>
</g>
<!-- Node5 -->
<g id="Node000005" class="node">
<title>Node5</title>
<g id="a_Node000005"><a xlink:href="exemplo__3_8c.html#a840291bc02cba5474a4cb46a9b9566fe" target="_top" xlink:title="Ponto de entrada do programa.">
<polygon fill="white" stroke="#666666" points="37,-48 0,-48 0,-28 37,-28 37,-48"/>
<text xml:space="preserve" text-anchor="middle" x="18.5" y="-34.5" font-family="Helvetica,sans-Serif" font-size="10.00">main</text>
</a>
</g>
</g>
<!-- Node4&#45;&gt;Node5 -->
<g id="edge4_Node000004_Node000005" class="edge">
<title>Node4&#45;&gt;Node5</title>
<g id="a_edge4_Node000004_Node000005"><a xlink:title=" ">
<path fill="none" stroke="#63b8ff" d="M198.92,-53.41C142.53,-48.57 70.21,-42.36 37.27,-39.53"/>
<polygon fill="#63b8ff" stroke="#63b8ff" points="198.56,-56.89 208.82,-54.26 199.16,-49.92 198.56,-56.89"/>
</a>
</g>
</g>
<!-- Node6 -->
<g id="Node000006" class="node">
<title>Node6</title>
<g id="a_Node000006"><a xlink:href="exemplo__3_8c.html#a9765d93a7e9eac42493b89eb0dc1ab12" target="_top" xlink:title="Formata e grava um registro CSV com data, hora e 4 sensores.">
<polygon fill="white" stroke="#666666" points="174.5,-32 73,-32 73,0 174.5,0 174.5,-32"/>
<text xml:space="preserve" text-anchor="start" x="81" y="-18.5" font-family="Helvetica,sans-Serif" font-size="10.00">registrar_dado_com</text>
<text xml:space="preserve" text-anchor="middle" x="123.75" y="-6.5" font-family="Helvetica,sans-Serif" font-size="10.00">_rotacao</text>
</a>
</g>
</g>
<!-- Node4&#45;&gt;Node6 -->
<g id="edge5_Node000004_Node000006" class="edge">
<title>Node4&#45;&gt;Node6</title>
<g id="a_edge5_Node000004_Node000006"><a xlink:title=" ">
<path fill="none" stroke="#63b8ff" d="M228.97,-46.39C211.79,-41.38 192.27,-35.69 174.8,-30.6"/>
<polygon fill="#63b8ff" stroke="#63b8ff" points="227.84,-49.71 238.42,-49.15 229.8,-42.99 227.84,-49.71"/>
</a>
</g>
</g>
<!-- Node6&#45;&gt;Node5 -->
<g id="edge6_Node000006_Node000005" class="edge">
<title>Node6&#45;&gt;Node5</title>
<g id="a_edge6_Node000006_Node000005"><a xlink:title=" ">
<path fill="none" stroke="#63b8ff" d="M61.63,-29.02C52.71,-30.92 44.17,-32.74 37.15,-34.24"/>
<polygon fill="#63b8ff" stroke="#63b8ff" points="62.11,-32.5 71.16,-26.99 60.65,-25.65 62.11,-32.5"/>
</a>
</g>
</g>
</g>
</svg>
</svg>

<style type='text/css'>
<![CDATA[
[data-mouse-over-selected='false'] { opacity: 0.7; }
[data-mouse-over-selected='true']  { opacity: 1.0; }
]]>
</style>
<script type="application/ecmascript"><![CDATA[
document.addEventListener('DOMContentLoaded', (event) => {
  highlightEdges();
  highlightAdjacentNodes();
});
]]></script>
</svg>
