<?xml version="1.0" encoding="UTF-8" standalone="no"?>
<!DOCTYPE svg PUBLIC "-//W3C//DTD SVG 1.1//EN"
 "http://www.w3.org/Graphics/SVG/1.1/DTD/svg11.dtd">
<!-- Generated by graphviz version 14.1.4 (20260321.0153)
 -->
<!-- Title: sd_fat_alloc_cluster Pages: 1 -->
<svg width="596pt" height="132pt"
 viewBox="0.00 0.00 596.00 132.00" xmlns="http://www.w3.org/2000/svg" xmlns:xlink="http://www.w3.org/1999/xlink">
<g id="graph0" class="graph" transform="scale(1 1) rotate(0) translate(4 128)">
<title>sd_fat_alloc_cluster</title>
<!-- Node1 -->
<g id="Node000001" class="node">
<title>Node1</title>
<g id="a_Node000001"><a xlink:title="Aloca um cluster livre na FAT32 utilizando busca circular otimizada.">
<polygon fill="#999999" stroke="#666666" points="103,-105 0,-105 0,-85 103,-85 103,-105"/>
<text xml:space="preserve" text-anchor="middle" x="51.5" y="-91.5" font-family="Helvetica,sans-Serif" font-size="10.00">sd_fat_alloc_cluster</text>
</a>
</g>
</g>
<!-- Node2 -->
<g id="Node000002" class="node">
<title>Node2</title>
<g id="a_Node000002"><a xlink:href="sdcard_8c.html#aba9c8b9a5590e13424ab4a69280f0c1d" target="_top" xlink:title="Lê um único bloco de 512 bytes do cartão (LBA).">
<polygon fill="white" stroke="#666666" points="340.88,-124 272.38,-124 272.38,-104 340.88,-104 340.88,-124"/>
<text xml:space="preserve" text-anchor="middle" x="306.62" y="-110.5" font-family="Helvetica,sans-Serif" font-size="10.00">sd_blk_read</text>
</a>
</g>
</g>
<!-- Node1&#45;&gt;Node2 -->
<g id="edge1_Node000001_Node000002" class="edge">
<title>Node1&#45;&gt;Node2</title>
<g id="a_edge1_Node000001_Node000002"><a xlink:title=" ">
<path fill="none" stroke="#63b8ff" d="M103.42,-98.82C149.54,-102.28 216.82,-107.33 260.91,-110.64"/>
<polygon fill="#63b8ff" stroke="#63b8ff" points="260.4,-114.11 270.63,-111.37 260.92,-107.13 260.4,-114.11"/>
</a>
</g>
</g>
<!-- Node4 -->
<g id="Node000004" class="node">
<title>Node4</title>
<g id="a_Node000004"><a xlink:href="sdcard_8c.html#a144349126da9cc0bcd1dd34243989e98" target="_top" xlink:title="Atualiza uma entrada na Tabela de Alocação de Arquivos (FAT).">
<polygon fill="white" stroke="#666666" points="235.25,-86 139,-86 139,-66 235.25,-66 235.25,-86"/>
<text xml:space="preserve" text-anchor="middle" x="187.12" y="-72.5" font-family="Helvetica,sans-Serif" font-size="10.00">sd_fat_write_entry</text>
</a>
</g>
</g>
<!-- Node1&#45;&gt;Node4 -->
<g id="edge3_Node000001_Node000004" class="edge">
<title>Node1&#45;&gt;Node4</title>
<g id="a_edge3_Node000001_Node000004"><a xlink:title=" ">
<path fill="none" stroke="#63b8ff" d="M103.4,-87.76C111.32,-86.64 119.56,-85.47 127.63,-84.32"/>
<polygon fill="#63b8ff" stroke="#63b8ff" points="127.98,-87.8 137.38,-82.93 126.99,-80.87 127.98,-87.8"/>
</a>
</g>
</g>
<!-- Node3 -->
<g id="Node000003" class="node">
<title>Node3</title>
<g id="a_Node000003"><a xlink:href="sdcard_8c.html#aae1cfbcba5f92f4639e23fd8ed8fa3c0" target="_top" xlink:title="Envia um comando SPI para o cartão SD e aguarda resposta R1.">
<polygon fill="white" stroke="#666666" points="587.75,-96 511,-96 511,-76 587.75,-76 587.75,-96"/>
<text xml:space="preserve" text-anchor="middle" x="549.38" y="-82.5" font-family="Helvetica,sans-Serif" font-size="10.00">sd_cmd_send</text>
</a>
</g>
</g>
<!-- Node2&#45;&gt;Node3 -->
<g id="edge2_Node000002_Node000003" class="edge">
<title>Node2&#45;&gt;Node3</title>
<g id="a_edge2_Node000002_Node000003"><a xlink:title=" ">
<path fill="none" stroke="#63b8ff" d="M341.08,-112.24C374.95,-110.21 428.78,-106.33 475,-100 482.95,-98.91 491.34,-97.53 499.49,-96.07"/>
<polygon fill="#63b8ff" stroke="#63b8ff" points="500.12,-99.51 509.31,-94.23 498.83,-92.63 500.12,-99.51"/>
</a>
</g>
</g>
<!-- Node4&#45;&gt;Node2 -->
<g id="edge4_Node000004_Node000002" class="edge">
<title>Node4&#45;&gt;Node2</title>
<g id="a_edge4_Node000004_Node000002"><a xlink:title=" ">
<path fill="none" stroke="#63b8ff" d="M220.54,-86.48C233.51,-90.68 248.64,-95.57 262.52,-100.06"/>
<polygon fill="#63b8ff" stroke="#63b8ff" points="261.28,-103.34 271.87,-103.08 263.43,-96.68 261.28,-103.34"/>
</a>
</g>
</g>
<!-- Node5 -->
<g id="Node000005" class="node">
<title>Node5</title>
<g id="a_Node000005"><a xlink:href="sdcard_8c.html#ac6d558621f33abf80f245adb3d0f4e67" target="_top" xlink:title="Escreve um único bloco de 512 bytes.">
<polygon fill="white" stroke="#666666" points="342,-67 271.25,-67 271.25,-47 342,-47 342,-67"/>
<text xml:space="preserve" text-anchor="middle" x="306.62" y="-53.5" font-family="Helvetica,sans-Serif" font-size="10.00">sd_blk_write</text>
</a>
</g>
</g>
<!-- Node4&#45;&gt;Node5 -->
<g id="edge5_Node000004_Node000005" class="edge">
<title>Node4&#45;&gt;Node5</title>
<g id="a_edge5_Node000004_Node000005"><a xlink:title=" ">
<path fill="none" stroke="#63b8ff" d="M235.58,-68.33C243.54,-67.04 251.78,-65.71 259.7,-64.43"/>
<polygon fill="#63b8ff" stroke="#63b8ff" points="260.2,-67.89 269.51,-62.84 259.08,-60.98 260.2,-67.89"/>
</a>
</g>
</g>
<!-- Node5&#45;&gt;Node3 -->
<g id="edge6_Node000005_Node000003" class="edge">
<title>Node5&#45;&gt;Node3</title>
<g id="a_edge6_Node000005_Node000003"><a xlink:title=" ">
<path fill="none" stroke="#63b8ff" d="M342.32,-62.14C353.68,-63.77 366.37,-65.53 378,-67 418.98,-72.2 465.61,-77.34 499.72,-80.97"/>
<polygon fill="#63b8ff" stroke="#63b8ff" points="498.96,-84.41 509.27,-81.98 499.7,-77.45 498.96,-84.41"/>
</a>
</g>
</g>
<!-- Node6 -->
<g id="Node000006" class="node">
<title>Node6</title>
<g id="a_Node000006"><a xlink:href="sdcard_8c.html#afcdb9112d386e92b29ad0cac9f5fc277" target="_top" xlink:title="Obtém o status atual do cartão SD (comando CMD13).">
<polygon fill="white" stroke="#666666" points="465.25,-58 387.75,-58 387.75,-38 465.25,-38 465.25,-58"/>
<text xml:space="preserve" text-anchor="middle" x="426.5" y="-44.5" font-family="Helvetica,sans-Serif" font-size="10.00">sd_get_status</text>
</a>
</g>
</g>
<!-- Node5&#45;&gt;Node6 -->
<g id="edge7_Node000005_Node000006" class="edge">
<title>Node5&#45;&gt;Node6</title>
<g id="a_edge7_Node000005_Node000006"><a xlink:title=" ">
<path fill="none" stroke="#63b8ff" d="M342.35,-54.35C352.95,-53.54 364.81,-52.63 376.17,-51.77"/>
<polygon fill="#63b8ff" stroke="#63b8ff" points="376.1,-55.28 385.8,-51.03 375.56,-48.3 376.1,-55.28"/>
</a>
</g>
</g>
<!-- Node7 -->
<g id="Node000007" class="node">
<title>Node7</title>
<g id="a_Node000007"><a xlink:href="sdcard_8c.html#a8c2c0ebbeee0d06d43335bc9df4b3142" target="_top" xlink:title="Aguarda o cartão sair do estado de ocupado (busy).">
<polygon fill="white" stroke="#666666" points="475,-20 378,-20 378,0 475,0 475,-20"/>
<text xml:space="preserve" text-anchor="middle" x="426.5" y="-6.5" font-family="Helvetica,sans-Serif" font-size="10.00">sd_spi_wait_ready</text>
</a>
</g>
</g>
<!-- Node5&#45;&gt;Node7 -->
<g id="edge9_Node000005_Node000007" class="edge">
<title>Node5&#45;&gt;Node7</title>
<g id="a_edge9_Node000005_Node000007"><a xlink:title=" ">
<path fill="none" stroke="#63b8ff" d="M333.79,-46.57C349.96,-40.12 370.97,-31.74 388.8,-24.64"/>
<polygon fill="#63b8ff" stroke="#63b8ff" points="390.01,-27.92 398.01,-20.96 387.42,-21.41 390.01,-27.92"/>
</a>
</g>
</g>
<!-- Node6&#45;&gt;Node3 -->
<g id="edge8_Node000006_Node000003" class="edge">
<title>Node6&#45;&gt;Node3</title>
<g id="a_edge8_Node000006_Node000003"><a xlink:title=" ">
<path fill="none" stroke="#63b8ff" d="M460.85,-58.48C474.33,-62.72 490.07,-67.67 504.45,-72.19"/>
<polygon fill="#63b8ff" stroke="#63b8ff" points="503.1,-75.44 513.69,-75.1 505.2,-68.76 503.1,-75.44"/>
</a>
</g>
</g>
</g>
</svg>
