<?xml version="1.0" encoding="UTF-8" standalone="no"?>
<!DOCTYPE svg PUBLIC "-//W3C//DTD SVG 1.1//EN"
 "http://www.w3.org/Graphics/SVG/1.1/DTD/svg11.dtd">
<!-- Generated by graphviz version 14.1.4 (20260321.0153)
 -->
<!-- Title: sd_fat_update_fsinfo Pages: 1 -->
<svg width="467pt" height="132pt"
 viewBox="0.00 0.00 467.00 132.00" xmlns="http://www.w3.org/2000/svg" xmlns:xlink="http://www.w3.org/1999/xlink">
<g id="graph0" class="graph" transform="scale(1 1) rotate(0) translate(4 128)">
<title>sd_fat_update_fsinfo</title>
<!-- Node1 -->
<g id="Node000001" class="node">
<title>Node1</title>
<g id="a_Node000001"><a xlink:title="Atualiza o setor FSInfo do FAT32.">
<polygon fill="#999999" stroke="#666666" points="106.75,-96 0,-96 0,-76 106.75,-76 106.75,-96"/>
<text xml:space="preserve" text-anchor="middle" x="53.38" y="-82.5" font-family="Helvetica,sans-Serif" font-size="10.00">sd_fat_update_fsinfo</text>
</a>
</g>
</g>
<!-- Node2 -->
<g id="Node000002" class="node">
<title>Node2</title>
<g id="a_Node000002"><a xlink:href="sdcard_8c.html#aba9c8b9a5590e13424ab4a69280f0c1d" target="_top" xlink:title="Lê um único bloco de 512 bytes do cartão (LBA).">
<polygon fill="white" stroke="#666666" points="212.38,-124 143.88,-124 143.88,-104 212.38,-104 212.38,-124"/>
<text xml:space="preserve" text-anchor="middle" x="178.12" y="-110.5" font-family="Helvetica,sans-Serif" font-size="10.00">sd_blk_read</text>
</a>
</g>
</g>
<!-- Node1&#45;&gt;Node2 -->
<g id="edge1_Node000001_Node000002" class="edge">
<title>Node1&#45;&gt;Node2</title>
<g id="a_edge1_Node000001_Node000002"><a xlink:title=" ">
<path fill="none" stroke="#63b8ff" d="M100.08,-96.43C110.69,-98.85 121.98,-101.42 132.54,-103.83"/>
<polygon fill="#63b8ff" stroke="#63b8ff" points="131.65,-107.22 142.18,-106.03 133.21,-100.39 131.65,-107.22"/>
</a>
</g>
</g>
<!-- Node4 -->
<g id="Node000004" class="node">
<title>Node4</title>
<g id="a_Node000004"><a xlink:href="sdcard_8c.html#ac6d558621f33abf80f245adb3d0f4e67" target="_top" xlink:title="Escreve um único bloco de 512 bytes.">
<polygon fill="white" stroke="#666666" points="213.5,-77 142.75,-77 142.75,-57 213.5,-57 213.5,-77"/>
<text xml:space="preserve" text-anchor="middle" x="178.12" y="-63.5" font-family="Helvetica,sans-Serif" font-size="10.00">sd_blk_write</text>
</a>
</g>
</g>
<!-- Node1&#45;&gt;Node4 -->
<g id="edge3_Node000001_Node000004" class="edge">
<title>Node1&#45;&gt;Node4</title>
<g id="a_edge3_Node000001_Node000004"><a xlink:title=" ">
<path fill="none" stroke="#63b8ff" d="M107.14,-77.83C115.18,-76.59 123.41,-75.31 131.28,-74.1"/>
<polygon fill="#63b8ff" stroke="#63b8ff" points="131.64,-77.58 140.99,-72.59 130.57,-70.66 131.64,-77.58"/>
</a>
</g>
</g>
<!-- Node3 -->
<g id="Node000003" class="node">
<title>Node3</title>
<g id="a_Node000003"><a xlink:href="sdcard_8c.html#aae1cfbcba5f92f4639e23fd8ed8fa3c0" target="_top" xlink:title="Envia um comando SPI para o cartão SD e aguarda resposta R1.">
<polygon fill="white" stroke="#666666" points="459.25,-96 382.5,-96 382.5,-76 459.25,-76 459.25,-96"/>
<text xml:space="preserve" text-anchor="middle" x="420.88" y="-82.5" font-family="Helvetica,sans-Serif" font-size="10.00">sd_cmd_send</text>
</a>
</g>
</g>
<!-- Node2&#45;&gt;Node3 -->
<g id="edge2_Node000002_Node000003" class="edge">
<title>Node2&#45;&gt;Node3</title>
<g id="a_edge2_Node000002_Node000003"><a xlink:title=" ">
<path fill="none" stroke="#63b8ff" d="M212.85,-110.08C253.98,-105.29 323.81,-97.17 370.87,-91.7"/>
<polygon fill="#63b8ff" stroke="#63b8ff" points="370.98,-95.21 380.51,-90.58 370.17,-88.26 370.98,-95.21"/>
</a>
</g>
</g>
<!-- Node4&#45;&gt;Node3 -->
<g id="edge4_Node000004_Node000003" class="edge">
<title>Node4&#45;&gt;Node3</title>
<g id="a_edge4_Node000004_Node000003"><a xlink:title=" ">
<path fill="none" stroke="#63b8ff" d="M213.88,-69.74C255.17,-73 324.34,-78.46 371.01,-82.14"/>
<polygon fill="#63b8ff" stroke="#63b8ff" points="370.61,-85.62 380.85,-82.92 371.16,-78.64 370.61,-85.62"/>
</a>
</g>
</g>
<!-- Node5 -->
<g id="Node000005" class="node">
<title>Node5</title>
<g id="a_Node000005"><a xlink:href="sdcard_8c.html#afcdb9112d386e92b29ad0cac9f5fc277" target="_top" xlink:title="Obtém o status atual do cartão SD (comando CMD13).">
<polygon fill="white" stroke="#666666" points="336.75,-58 259.25,-58 259.25,-38 336.75,-38 336.75,-58"/>
<text xml:space="preserve" text-anchor="middle" x="298" y="-44.5" font-family="Helvetica,sans-Serif" font-size="10.00">sd_get_status</text>
</a>
</g>
</g>
<!-- Node4&#45;&gt;Node5 -->
<g id="edge5_Node000004_Node000005" class="edge">
<title>Node4&#45;&gt;Node5</title>
<g id="a_edge5_Node000004_Node000005"><a xlink:title=" ">
<path fill="none" stroke="#63b8ff" d="M213.85,-61.4C224.45,-59.69 236.31,-57.78 247.67,-55.95"/>
<polygon fill="#63b8ff" stroke="#63b8ff" points="248,-59.44 257.32,-54.4 246.89,-52.53 248,-59.44"/>
</a>
</g>
</g>
<!-- Node6 -->
<g id="Node000006" class="node">
<title>Node6</title>
<g id="a_Node000006"><a xlink:href="sdcard_8c.html#a8c2c0ebbeee0d06d43335bc9df4b3142" target="_top" xlink:title="Aguarda o cartão sair do estado de ocupado (busy).">
<polygon fill="white" stroke="#666666" points="346.5,-20 249.5,-20 249.5,0 346.5,0 346.5,-20"/>
<text xml:space="preserve" text-anchor="middle" x="298" y="-6.5" font-family="Helvetica,sans-Serif" font-size="10.00">sd_spi_wait_ready</text>
</a>
</g>
</g>
<!-- Node4&#45;&gt;Node6 -->
<g id="edge7_Node000004_Node000006" class="edge">
<title>Node4&#45;&gt;Node6</title>
<g id="a_edge7_Node000004_Node000006"><a xlink:title=" ">
<path fill="none" stroke="#63b8ff" d="M197.06,-56.58C211.11,-48.59 231.27,-37.54 249.5,-29 252.58,-27.56 255.8,-26.12 259.05,-24.73"/>
<polygon fill="#63b8ff" stroke="#63b8ff" points="260.11,-28.08 267.99,-21 257.42,-21.61 260.11,-28.08"/>
</a>
</g>
</g>
<!-- Node5&#45;&gt;Node3 -->
<g id="edge6_Node000005_Node000003" class="edge">
<title>Node5&#45;&gt;Node3</title>
<g id="a_edge6_Node000005_Node000003"><a xlink:title=" ">
<path fill="none" stroke="#63b8ff" d="M332.35,-58.48C345.83,-62.72 361.57,-67.67 375.95,-72.19"/>
<polygon fill="#63b8ff" stroke="#63b8ff" points="374.6,-75.44 385.19,-75.1 376.7,-68.76 374.6,-75.44"/>
</a>
</g>
</g>
</g>
</svg>
