<?xml version="1.0" encoding="UTF-8" standalone="no"?>
<!DOCTYPE svg PUBLIC "-//W3C//DTD SVG 1.1//EN"
 "http://www.w3.org/Graphics/SVG/1.1/DTD/svg11.dtd">
<!-- Generated by graphviz version 14.1.4 (20260321.0153)
 -->
<!-- Title: sd_file_read_stream Pages: 1 -->
<svg width="614pt" height="83pt"
 viewBox="0.00 0.00 614.00 83.00" xmlns="http://www.w3.org/2000/svg" xmlns:xlink="http://www.w3.org/1999/xlink">
<g id="graph0" class="graph" transform="scale(1 1) rotate(0) translate(4 79.07)">
<title>sd_file_read_stream</title>
<!-- Node1 -->
<g id="Node000001" class="node">
<title>Node1</title>
<g id="a_Node000001"><a xlink:title="Lê o conteúdo de um arquivo em modo streaming via callback.">
<polygon fill="#999999" stroke="#666666" points="103.75,-58 0,-58 0,-38 103.75,-38 103.75,-58"/>
<text xml:space="preserve" text-anchor="middle" x="51.88" y="-44.5" font-family="Helvetica,sans-Serif" font-size="10.00">sd_file_read_stream</text>
</a>
</g>
</g>
<!-- Node2 -->
<g id="Node000002" class="node">
<title>Node2</title>
<g id="a_Node000002"><a xlink:href="sdcard_8c.html#aba9c8b9a5590e13424ab4a69280f0c1d" target="_top" xlink:title="Lê um único bloco de 512 bytes do cartão (LBA).">
<polygon fill="white" stroke="#666666" points="493,-58 424.5,-58 424.5,-38 493,-38 493,-58"/>
<text xml:space="preserve" text-anchor="middle" x="458.75" y="-44.5" font-family="Helvetica,sans-Serif" font-size="10.00">sd_blk_read</text>
</a>
</g>
</g>
<!-- Node1&#45;&gt;Node2 -->
<g id="edge1_Node000001_Node000002" class="edge">
<title>Node1&#45;&gt;Node2</title>
<g id="a_edge1_Node000001_Node000002"><a xlink:title=" ">
<path fill="none" stroke="#63b8ff" d="M104.19,-57.32C115.85,-59.15 128.2,-60.85 139.75,-62 249.78,-72.97 278.91,-81.76 388.5,-67 397.45,-65.79 406.88,-63.75 415.79,-61.44"/>
<polygon fill="#63b8ff" stroke="#63b8ff" points="416.58,-64.85 425.29,-58.81 414.72,-58.11 416.58,-64.85"/>
</a>
</g>
</g>
<!-- Node4 -->
<g id="Node000004" class="node">
<title>Node4</title>
<g id="a_Node000004"><a xlink:href="sdcard_8c.html#a7b0d2ab1fae193461c611a4f2e6c9245" target="_top" xlink:title="Obtém o próximo cluster na tabela FAT.">
<polygon fill="white" stroke="#666666" points="388.5,-58 268.25,-58 268.25,-38 388.5,-38 388.5,-58"/>
<text xml:space="preserve" text-anchor="middle" x="328.38" y="-44.5" font-family="Helvetica,sans-Serif" font-size="10.00">sd_fat_get_next_cluster</text>
</a>
</g>
</g>
<!-- Node1&#45;&gt;Node4 -->
<g id="edge3_Node000001_Node000004" class="edge">
<title>Node1&#45;&gt;Node4</title>
<g id="a_edge3_Node000001_Node000004"><a xlink:title=" ">
<path fill="none" stroke="#63b8ff" d="M104.18,-48C147.19,-48 209.04,-48 256.72,-48"/>
<polygon fill="#63b8ff" stroke="#63b8ff" points="256.7,-51.5 266.7,-48 256.7,-44.5 256.7,-51.5"/>
</a>
</g>
</g>
<!-- Node5 -->
<g id="Node000005" class="node">
<title>Node5</title>
<g id="a_Node000005"><a xlink:href="sdcard_8c.html#a3794ef278970bdb3d1d50b3f10fc4e9f" target="_top" xlink:title="Localiza a entrada de um arquivo no diretório raiz.">
<polygon fill="white" stroke="#666666" points="232.25,-20 139.75,-20 139.75,0 232.25,0 232.25,-20"/>
<text xml:space="preserve" text-anchor="middle" x="186" y="-6.5" font-family="Helvetica,sans-Serif" font-size="10.00">sd_find_file_entry</text>
</a>
</g>
</g>
<!-- Node1&#45;&gt;Node5 -->
<g id="edge5_Node000001_Node000005" class="edge">
<title>Node1&#45;&gt;Node5</title>
<g id="a_edge5_Node000001_Node000005"><a xlink:title=" ">
<path fill="none" stroke="#63b8ff" d="M89.33,-37.52C104.35,-33.2 121.94,-28.14 137.92,-23.54"/>
<polygon fill="#63b8ff" stroke="#63b8ff" points="138.57,-27 147.21,-20.87 136.63,-20.27 138.57,-27"/>
</a>
</g>
</g>
<!-- Node3 -->
<g id="Node000003" class="node">
<title>Node3</title>
<g id="a_Node000003"><a xlink:href="sdcard_8c.html#aae1cfbcba5f92f4639e23fd8ed8fa3c0" target="_top" xlink:title="Envia um comando SPI para o cartão SD e aguarda resposta R1.">
<polygon fill="white" stroke="#666666" points="605.75,-58 529,-58 529,-38 605.75,-38 605.75,-58"/>
<text xml:space="preserve" text-anchor="middle" x="567.38" y="-44.5" font-family="Helvetica,sans-Serif" font-size="10.00">sd_cmd_send</text>
</a>
</g>
</g>
<!-- Node2&#45;&gt;Node3 -->
<g id="edge2_Node000002_Node000003" class="edge">
<title>Node2&#45;&gt;Node3</title>
<g id="a_edge2_Node000002_Node000003"><a xlink:title=" ">
<path fill="none" stroke="#63b8ff" d="M493.49,-48C501.12,-48 509.37,-48 517.48,-48"/>
<polygon fill="#63b8ff" stroke="#63b8ff" points="517.27,-51.5 527.27,-48 517.27,-44.5 517.27,-51.5"/>
</a>
</g>
</g>
<!-- Node4&#45;&gt;Node2 -->
<g id="edge4_Node000004_Node000002" class="edge">
<title>Node4&#45;&gt;Node2</title>
<g id="a_edge4_Node000004_Node000002"><a xlink:title=" ">
<path fill="none" stroke="#63b8ff" d="M388.68,-48C396.79,-48 405.01,-48 412.81,-48"/>
<polygon fill="#63b8ff" stroke="#63b8ff" points="412.75,-51.5 422.75,-48 412.75,-44.5 412.75,-51.5"/>
</a>
</g>
</g>
<!-- Node5&#45;&gt;Node2 -->
<g id="edge6_Node000005_Node000002" class="edge">
<title>Node5&#45;&gt;Node2</title>
<g id="a_edge6_Node000005_Node000002"><a xlink:title=" ">
<path fill="none" stroke="#63b8ff" d="M232.52,-12.03C273.57,-14.4 335.44,-19.3 388.5,-29 396.59,-30.48 405.12,-32.46 413.31,-34.58"/>
<polygon fill="#63b8ff" stroke="#63b8ff" points="412.18,-37.9 422.75,-37.14 414.01,-31.15 412.18,-37.9"/>
</a>
</g>
</g>
<!-- Node5&#45;&gt;Node4 -->
<g id="edge7_Node000005_Node000004" class="edge">
<title>Node5&#45;&gt;Node4</title>
<g id="a_edge7_Node000005_Node000004"><a xlink:title=" ">
<path fill="none" stroke="#63b8ff" d="M225.73,-20.48C241.84,-24.85 260.74,-29.96 277.84,-34.59"/>
<polygon fill="#63b8ff" stroke="#63b8ff" points="276.74,-37.92 287.31,-37.15 278.57,-31.16 276.74,-37.92"/>
</a>
</g>
</g>
</g>
</svg>
