<?xml version="1.0" encoding="UTF-8" standalone="no"?>
<!DOCTYPE svg PUBLIC "-//W3C//DTD SVG 1.1//EN"
 "http://www.w3.org/Graphics/SVG/1.1/DTD/svg11.dtd">
<!-- Generated by graphviz version 14.1.4 (20260321.0153)
 -->
<!-- Title: sd_file_sync Pages: 1 -->
<svg width="624pt" height="155pt"
 viewBox="0.00 0.00 624.00 155.00" xmlns="http://www.w3.org/2000/svg" xmlns:xlink="http://www.w3.org/1999/xlink">
<g id="graph0" class="graph" transform="scale(1 1) rotate(0) translate(4 150.78)">
<title>sd_file_sync</title>
<!-- Node1 -->
<g id="Node000001" class="node">
<title>Node1</title>
<g id="a_Node000001"><a xlink:title="Sincroniza o tamanho do arquivo no diretório físico (Flush).">
<polygon fill="#999999" stroke="#666666" points="70.75,-96 0,-96 0,-76 70.75,-76 70.75,-96"/>
<text xml:space="preserve" text-anchor="middle" x="35.38" y="-82.5" font-family="Helvetica,sans-Serif" font-size="10.00">sd_file_sync</text>
</a>
</g>
</g>
<!-- Node2 -->
<g id="Node000002" class="node">
<title>Node2</title>
<g id="a_Node000002"><a xlink:href="sdcard_8c.html#ac6d558621f33abf80f245adb3d0f4e67" target="_top" xlink:title="Escreve um único bloco de 512 bytes.">
<polygon fill="white" stroke="#666666" points="345,-134 274.25,-134 274.25,-114 345,-114 345,-134"/>
<text xml:space="preserve" text-anchor="middle" x="309.62" y="-120.5" font-family="Helvetica,sans-Serif" font-size="10.00">sd_blk_write</text>
</a>
</g>
</g>
<!-- Node1&#45;&gt;Node2 -->
<g id="edge1_Node000001_Node000002" class="edge">
<title>Node1&#45;&gt;Node2</title>
<g id="a_edge1_Node000001_Node000002"><a xlink:title=" ">
<path fill="none" stroke="#63b8ff" d="M70.47,-96.46C81.91,-99.63 94.79,-102.84 106.75,-105 159.83,-114.59 221.7,-119.51 262.81,-121.91"/>
<polygon fill="#63b8ff" stroke="#63b8ff" points="262.4,-125.39 272.58,-122.45 262.79,-118.4 262.4,-125.39"/>
</a>
</g>
</g>
<!-- Node6 -->
<g id="Node000006" class="node">
<title>Node6</title>
<g id="a_Node000006"><a xlink:href="sdcard_8c.html#a796684607b81e66d63286b77382e95f3" target="_top" xlink:title="Atualiza o setor FSInfo do FAT32.">
<polygon fill="white" stroke="#666666" points="213.5,-96 106.75,-96 106.75,-76 213.5,-76 213.5,-96"/>
<text xml:space="preserve" text-anchor="middle" x="160.12" y="-82.5" font-family="Helvetica,sans-Serif" font-size="10.00">sd_fat_update_fsinfo</text>
</a>
</g>
</g>
<!-- Node1&#45;&gt;Node6 -->
<g id="edge6_Node000001_Node000006" class="edge">
<title>Node1&#45;&gt;Node6</title>
<g id="a_edge6_Node000001_Node000006"><a xlink:title=" ">
<path fill="none" stroke="#63b8ff" d="M71.22,-86C78.64,-86 86.7,-86 94.83,-86"/>
<polygon fill="#63b8ff" stroke="#63b8ff" points="94.79,-89.5 104.79,-86 94.79,-82.5 94.79,-89.5"/>
</a>
</g>
</g>
<!-- Node8 -->
<g id="Node000008" class="node">
<title>Node8</title>
<g id="a_Node000008"><a xlink:href="sdcard_8c.html#a3794ef278970bdb3d1d50b3f10fc4e9f" target="_top" xlink:title="Localiza a entrada de um arquivo no diretório raiz.">
<polygon fill="white" stroke="#666666" points="206.38,-58 113.88,-58 113.88,-38 206.38,-38 206.38,-58"/>
<text xml:space="preserve" text-anchor="middle" x="160.12" y="-44.5" font-family="Helvetica,sans-Serif" font-size="10.00">sd_find_file_entry</text>
</a>
</g>
</g>
<!-- Node1&#45;&gt;Node8 -->
<g id="edge10_Node000001_Node000008" class="edge">
<title>Node1&#45;&gt;Node8</title>
<g id="a_edge10_Node000001_Node000008"><a xlink:title=" ">
<path fill="none" stroke="#63b8ff" d="M70.24,-75.52C83.93,-71.28 99.91,-66.33 114.52,-61.81"/>
<polygon fill="#63b8ff" stroke="#63b8ff" points="115.41,-65.2 123.92,-58.9 113.33,-58.51 115.41,-65.2"/>
</a>
</g>
</g>
<!-- Node3 -->
<g id="Node000003" class="node">
<title>Node3</title>
<g id="a_Node000003"><a xlink:href="sdcard_8c.html#aae1cfbcba5f92f4639e23fd8ed8fa3c0" target="_top" xlink:title="Envia um comando SPI para o cartão SD e aguarda resposta R1.">
<polygon fill="white" stroke="#666666" points="615.5,-134 538.75,-134 538.75,-114 615.5,-114 615.5,-134"/>
<text xml:space="preserve" text-anchor="middle" x="577.12" y="-120.5" font-family="Helvetica,sans-Serif" font-size="10.00">sd_cmd_send</text>
</a>
</g>
</g>
<!-- Node2&#45;&gt;Node3 -->
<g id="edge2_Node000002_Node000003" class="edge">
<title>Node2&#45;&gt;Node3</title>
<g id="a_edge2_Node000002_Node000003"><a xlink:title=" ">
<path fill="none" stroke="#63b8ff" d="M345.17,-132.61C363.11,-136.64 385.47,-140.99 405.75,-143 448.65,-147.24 459.98,-148.45 502.75,-143 512.41,-141.77 522.62,-139.66 532.26,-137.29"/>
<polygon fill="#63b8ff" stroke="#63b8ff" points="532.98,-140.71 541.77,-134.8 531.21,-133.94 532.98,-140.71"/>
</a>
</g>
</g>
<!-- Node4 -->
<g id="Node000004" class="node">
<title>Node4</title>
<g id="a_Node000004"><a xlink:href="sdcard_8c.html#afcdb9112d386e92b29ad0cac9f5fc277" target="_top" xlink:title="Obtém o status atual do cartão SD (comando CMD13).">
<polygon fill="white" stroke="#666666" points="493,-134 415.5,-134 415.5,-114 493,-114 493,-134"/>
<text xml:space="preserve" text-anchor="middle" x="454.25" y="-120.5" font-family="Helvetica,sans-Serif" font-size="10.00">sd_get_status</text>
</a>
</g>
</g>
<!-- Node2&#45;&gt;Node4 -->
<g id="edge3_Node000002_Node000004" class="edge">
<title>Node2&#45;&gt;Node4</title>
<g id="a_edge3_Node000002_Node000004"><a xlink:title=" ">
<path fill="none" stroke="#63b8ff" d="M345.15,-124C362.71,-124 384.37,-124 403.68,-124"/>
<polygon fill="#63b8ff" stroke="#63b8ff" points="403.52,-127.5 413.52,-124 403.52,-120.5 403.52,-127.5"/>
</a>
</g>
</g>
<!-- Node5 -->
<g id="Node000005" class="node">
<title>Node5</title>
<g id="a_Node000005"><a xlink:href="sdcard_8c.html#a8c2c0ebbeee0d06d43335bc9df4b3142" target="_top" xlink:title="Aguarda o cartão sair do estado de ocupado (busy).">
<polygon fill="white" stroke="#666666" points="502.75,-96 405.75,-96 405.75,-76 502.75,-76 502.75,-96"/>
<text xml:space="preserve" text-anchor="middle" x="454.25" y="-82.5" font-family="Helvetica,sans-Serif" font-size="10.00">sd_spi_wait_ready</text>
</a>
</g>
</g>
<!-- Node2&#45;&gt;Node5 -->
<g id="edge5_Node000002_Node000005" class="edge">
<title>Node2&#45;&gt;Node5</title>
<g id="a_edge5_Node000002_Node000005"><a xlink:title=" ">
<path fill="none" stroke="#63b8ff" d="M345.15,-114.8C362.52,-110.17 383.89,-104.48 403.04,-99.38"/>
<polygon fill="#63b8ff" stroke="#63b8ff" points="403.78,-102.8 412.54,-96.85 401.98,-96.04 403.78,-102.8"/>
</a>
</g>
</g>
<!-- Node4&#45;&gt;Node3 -->
<g id="edge4_Node000004_Node000003" class="edge">
<title>Node4&#45;&gt;Node3</title>
<g id="a_edge4_Node000004_Node000003"><a xlink:title=" ">
<path fill="none" stroke="#63b8ff" d="M493.5,-124C504.17,-124 515.92,-124 527.13,-124"/>
<polygon fill="#63b8ff" stroke="#63b8ff" points="527.03,-127.5 537.03,-124 527.03,-120.5 527.03,-127.5"/>
</a>
</g>
</g>
<!-- Node6&#45;&gt;Node2 -->
<g id="edge9_Node000006_Node000002" class="edge">
<title>Node6&#45;&gt;Node2</title>
<g id="a_edge9_Node000006_Node000002"><a xlink:title=" ">
<path fill="none" stroke="#63b8ff" d="M201.82,-96.48C220.78,-101.37 243.42,-107.2 262.96,-112.24"/>
<polygon fill="#63b8ff" stroke="#63b8ff" points="262.04,-115.61 272.59,-114.72 263.78,-108.83 262.04,-115.61"/>
</a>
</g>
</g>
<!-- Node7 -->
<g id="Node000007" class="node">
<title>Node7</title>
<g id="a_Node000007"><a xlink:href="sdcard_8c.html#aba9c8b9a5590e13424ab4a69280f0c1d" target="_top" xlink:title="Lê um único bloco de 512 bytes do cartão (LBA).">
<polygon fill="white" stroke="#666666" points="488.5,-58 420,-58 420,-38 488.5,-38 488.5,-58"/>
<text xml:space="preserve" text-anchor="middle" x="454.25" y="-44.5" font-family="Helvetica,sans-Serif" font-size="10.00">sd_blk_read</text>
</a>
</g>
</g>
<!-- Node6&#45;&gt;Node7 -->
<g id="edge7_Node000006_Node000007" class="edge">
<title>Node6&#45;&gt;Node7</title>
<g id="a_edge7_Node000006_Node000007"><a xlink:title=" ">
<path fill="none" stroke="#63b8ff" d="M213.95,-80.68C256.18,-76.25 316.86,-69.47 369.75,-62 382.34,-60.22 395.96,-58.05 408.47,-55.95"/>
<polygon fill="#63b8ff" stroke="#63b8ff" points="408.83,-59.43 418.1,-54.3 407.65,-52.53 408.83,-59.43"/>
</a>
</g>
</g>
<!-- Node7&#45;&gt;Node3 -->
<g id="edge8_Node000007_Node000003" class="edge">
<title>Node7&#45;&gt;Node3</title>
<g id="a_edge8_Node000007_Node000003"><a xlink:title=" ">
<path fill="none" stroke="#63b8ff" d="M484.99,-58.41C491.02,-60.93 497.2,-63.82 502.75,-67 522.27,-78.19 542.29,-94.1 556.48,-106.27"/>
<polygon fill="#63b8ff" stroke="#63b8ff" points="553.93,-108.69 563.76,-112.64 558.54,-103.42 553.93,-108.69"/>
</a>
</g>
</g>
<!-- Node8&#45;&gt;Node7 -->
<g id="edge11_Node000008_Node000007" class="edge">
<title>Node8&#45;&gt;Node7</title>
<g id="a_edge11_Node000008_Node000007"><a xlink:title=" ">
<path fill="none" stroke="#63b8ff" d="M206.77,-48C261.79,-48 353.64,-48 408.33,-48"/>
<polygon fill="#63b8ff" stroke="#63b8ff" points="408.23,-51.5 418.23,-48 408.23,-44.5 408.23,-51.5"/>
</a>
</g>
</g>
<!-- Node9 -->
<g id="Node000009" class="node">
<title>Node9</title>
<g id="a_Node000009"><a xlink:href="sdcard_8c.html#a7b0d2ab1fae193461c611a4f2e6c9245" target="_top" xlink:title="Obtém o próximo cluster na tabela FAT.">
<polygon fill="white" stroke="#666666" points="369.75,-20 249.5,-20 249.5,0 369.75,0 369.75,-20"/>
<text xml:space="preserve" text-anchor="middle" x="309.62" y="-6.5" font-family="Helvetica,sans-Serif" font-size="10.00">sd_fat_get_next_cluster</text>
</a>
</g>
</g>
<!-- Node8&#45;&gt;Node9 -->
<g id="edge12_Node000008_Node000009" class="edge">
<title>Node8&#45;&gt;Node9</title>
<g id="a_edge12_Node000008_Node000009"><a xlink:title=" ">
<path fill="none" stroke="#63b8ff" d="M201.82,-37.52C218.91,-33.11 238.98,-27.94 257.09,-23.28"/>
<polygon fill="#63b8ff" stroke="#63b8ff" points="257.79,-26.71 266.6,-20.83 256.04,-19.93 257.79,-26.71"/>
</a>
</g>
</g>
<!-- Node9&#45;&gt;Node7 -->
<g id="edge13_Node000009_Node000007" class="edge">
<title>Node9&#45;&gt;Node7</title>
<g id="a_edge13_Node000009_Node000007"><a xlink:title=" ">
<path fill="none" stroke="#63b8ff" d="M349.98,-20.48C368.22,-25.35 389.99,-31.15 408.83,-36.17"/>
<polygon fill="#63b8ff" stroke="#63b8ff" points="407.8,-39.51 418.36,-38.71 409.6,-32.75 407.8,-39.51"/>
</a>
</g>
</g>
</g>
</svg>
